<?xml version="1.0" encoding="UTF-8" standalone="no"?><svg xmlns="http://www.w3.org/2000/svg" xmlns:xlink="http://www.w3.org/1999/xlink" contentStyleType="text/css" height="272px" preserveAspectRatio="none" style="width:168px;height:272px;background:#00000000;" version="1.1" viewBox="0 0 168 272" width="168px" zoomAndPan="magnify"><defs/><g><rect fill="none" height="195.1738" style="stroke:#000000;stroke-width:1.5;" width="151" x="10" y="53.4883"/><line style="stroke:#181818;stroke-width:0.5;stroke-dasharray:5.0,5.0;" x1="37" x2="37" y1="36.4883" y2="265.6621"/><line style="stroke:#181818;stroke-width:0.5;stroke-dasharray:5.0,5.0;" x1="133" x2="133" y1="36.4883" y2="265.6621"/><rect fill="#E2E2F0" height="30.4883" rx="2.5" ry="2.5" style="stroke:#181818;stroke-width:0.5;" width="35" x="20" y="5"/><text fill="#000000" font-family="sans-serif" font-size="14" lengthAdjust="spacing" textLength="21" x="27" y="25.5352">:P1</text><rect fill="#E2E2F0" height="30.4883" rx="2.5" ry="2.5" style="stroke:#181818;stroke-width:0.5;" width="35" x="116" y="5"/><text fill="#000000" font-family="sans-serif" font-size="14" lengthAdjust="spacing" textLength="21" x="123" y="25.5352">:P2</text><path d="M10,53.4883 L78,53.4883 L78,60.7988 L68,70.7988 L10,70.7988 L10,53.4883 " fill="#EEEEEE" style="stroke:#000000;stroke-width:1.5;"/><rect fill="none" height="195.1738" style="stroke:#000000;stroke-width:1.5;" width="151" x="10" y="53.4883"/><text fill="#000000" font-family="sans-serif" font-size="13" font-weight="bold" lengthAdjust="spacing" textLength="23" x="25" y="67.0566">par</text><polygon fill="#181818" points="121.5,88.1094,131.5,92.1094,121.5,96.1094,125.5,92.1094" style="stroke:#181818;stroke-width:1.0;"/><line style="stroke:#181818;stroke-width:1.0;" x1="37.5" x2="127.5" y1="92.1094" y2="92.1094"/><text fill="#000000" font-family="sans-serif" font-size="13" lengthAdjust="spacing" textLength="71" x="44.5" y="87.3672">message1()</text><polygon fill="#181818" points="121.5,117.4199,131.5,121.4199,121.5,125.4199,125.5,121.4199" style="stroke:#181818;stroke-width:1.0;"/><line style="stroke:#181818;stroke-width:1.0;" x1="37.5" x2="127.5" y1="121.4199" y2="121.4199"/><text fill="#000000" font-family="sans-serif" font-size="13" lengthAdjust="spacing" textLength="71" x="44.5" y="116.6777">message2()</text><polygon fill="#181818" points="121.5,146.7305,131.5,150.7305,121.5,154.7305,125.5,150.7305" style="stroke:#181818;stroke-width:1.0;"/><line style="stroke:#181818;stroke-width:1.0;" x1="37.5" x2="127.5" y1="150.7305" y2="150.7305"/><text fill="#000000" font-family="sans-serif" font-size="13" lengthAdjust="spacing" textLength="71" x="44.5" y="145.9883">message3()</text><line style="stroke:#000000;stroke-width:1.0;stroke-dasharray:2.0,2.0;" x1="10" x2="161" y1="159.7305" y2="159.7305"/><polygon fill="#181818" points="48.5,178.041,38.5,182.041,48.5,186.041,44.5,182.041" style="stroke:#181818;stroke-width:1.0;"/><line style="stroke:#181818;stroke-width:1.0;" x1="42.5" x2="132.5" y1="182.041" y2="182.041"/><text fill="#000000" font-family="sans-serif" font-size="13" lengthAdjust="spacing" textLength="72" x="54.5" y="177.2988">messageA()</text><polygon fill="#181818" points="48.5,207.3516,38.5,211.3516,48.5,215.3516,44.5,211.3516" style="stroke:#181818;stroke-width:1.0;"/><line style="stroke:#181818;stroke-width:1.0;" x1="42.5" x2="132.5" y1="211.3516" y2="211.3516"/><text fill="#000000" font-family="sans-serif" font-size="13" lengthAdjust="spacing" textLength="70" x="54.5" y="206.6094">messageB()</text><polygon fill="#181818" points="48.5,236.6621,38.5,240.6621,48.5,244.6621,44.5,240.6621" style="stroke:#181818;stroke-width:1.0;"/><line style="stroke:#181818;stroke-width:1.0;" x1="42.5" x2="132.5" y1="240.6621" y2="240.6621"/><text fill="#000000" font-family="sans-serif" font-size="13" lengthAdjust="spacing" textLength="72" x="54.5" y="235.9199">messageC()</text><!--MD5=[ee91640f4dec9653f25d288e07ce875c]
@startuml
hide footbox
skinparam backgroundcolor transparent
participant ":P1" as P1
participant ":P2" as P2


par 
  P1 -> P2 : message1()
  P1 -> P2 : message2()
  P1 -> P2 : message3()
else
  P1 <- P2 : messageA()
  P1 <- P2 : messageB()
  P1 <- P2 : messageC()
end par

@enduml

PlantUML version 1.2022.7(Mon Aug 22 13:01:30 EDT 2022)
(GPL source distribution)
Java Runtime: OpenJDK Runtime Environment
JVM: OpenJDK 64-Bit Server VM
Default Encoding: UTF-8
Language: en
Country: CA
--></g></svg>