<?xml version="1.0" encoding="UTF-8" standalone="no"?><svg xmlns="http://www.w3.org/2000/svg" xmlns:xlink="http://www.w3.org/1999/xlink" contentStyleType="text/css" height="281px" preserveAspectRatio="none" style="width:166px;height:281px;background:#FFFFFF;" version="1.1" viewBox="0 0 166 281" width="166px" zoomAndPan="magnify"><defs/><g><rect fill="none" height="202.4609" style="stroke:#000000;stroke-width:1.5;" width="149" x="10" y="54.6094"/><line style="stroke:#181818;stroke-width:0.5;stroke-dasharray:5.0,5.0;" x1="37" x2="37" y1="37.6094" y2="274.0703"/><line style="stroke:#181818;stroke-width:0.5;stroke-dasharray:5.0,5.0;" x1="131" x2="131" y1="37.6094" y2="274.0703"/><rect fill="#E2E2F0" height="31.6094" rx="2.5" ry="2.5" style="stroke:#181818;stroke-width:0.5;" width="35" x="20" y="5"/><text fill="#000000" font-family="sans-serif" font-size="14" lengthAdjust="spacing" textLength="21" x="27" y="26.5332">:P1</text><rect fill="#E2E2F0" height="31.6094" rx="2.5" ry="2.5" style="stroke:#181818;stroke-width:0.5;" width="35" x="114" y="5"/><text fill="#000000" font-family="sans-serif" font-size="14" lengthAdjust="spacing" textLength="21" x="121" y="26.5332">:P2</text><path d="M10,54.6094 L76,54.6094 L76,62.9609 L66,72.9609 L10,72.9609 L10,54.6094 " fill="#EEEEEE" style="stroke:#000000;stroke-width:1.5;"/><rect fill="none" height="202.4609" style="stroke:#000000;stroke-width:1.5;" width="149" x="10" y="54.6094"/><text fill="#000000" font-family="sans-serif" font-size="13" font-weight="bold" lengthAdjust="spacing" textLength="21" x="25" y="69.1045">par</text><polygon fill="#181818" points="119.5,91.3125,129.5,95.3125,119.5,99.3125,123.5,95.3125" style="stroke:#181818;stroke-width:1.0;"/><line style="stroke:#181818;stroke-width:1.0;" x1="37.5" x2="125.5" y1="95.3125" y2="95.3125"/><text fill="#000000" font-family="sans-serif" font-size="13" lengthAdjust="spacing" textLength="68" x="44.5" y="90.4561">message1()</text><polygon fill="#181818" points="119.5,121.6641,129.5,125.6641,119.5,129.6641,123.5,125.6641" style="stroke:#181818;stroke-width:1.0;"/><line style="stroke:#181818;stroke-width:1.0;" x1="37.5" x2="125.5" y1="125.6641" y2="125.6641"/><text fill="#000000" font-family="sans-serif" font-size="13" lengthAdjust="spacing" textLength="68" x="44.5" y="120.8076">message2()</text><polygon fill="#181818" points="119.5,152.0156,129.5,156.0156,119.5,160.0156,123.5,156.0156" style="stroke:#181818;stroke-width:1.0;"/><line style="stroke:#181818;stroke-width:1.0;" x1="37.5" x2="125.5" y1="156.0156" y2="156.0156"/><text fill="#000000" font-family="sans-serif" font-size="13" lengthAdjust="spacing" textLength="68" x="44.5" y="151.1592">message3()</text><line style="stroke:#000000;stroke-width:1.0;stroke-dasharray:2.0,2.0;" x1="10" x2="159" y1="165.0156" y2="165.0156"/><polygon fill="#181818" points="48.5,184.3672,38.5,188.3672,48.5,192.3672,44.5,188.3672" style="stroke:#181818;stroke-width:1.0;"/><line style="stroke:#181818;stroke-width:1.0;" x1="42.5" x2="130.5" y1="188.3672" y2="188.3672"/><text fill="#000000" font-family="sans-serif" font-size="13" lengthAdjust="spacing" textLength="70" x="54.5" y="183.5107">messageA()</text><polygon fill="#181818" points="48.5,214.7188,38.5,218.7188,48.5,222.7188,44.5,218.7188" style="stroke:#181818;stroke-width:1.0;"/><line style="stroke:#181818;stroke-width:1.0;" x1="42.5" x2="130.5" y1="218.7188" y2="218.7188"/><text fill="#000000" font-family="sans-serif" font-size="13" lengthAdjust="spacing" textLength="70" x="54.5" y="213.8623">messageB()</text><polygon fill="#181818" points="48.5,245.0703,38.5,249.0703,48.5,253.0703,44.5,249.0703" style="stroke:#181818;stroke-width:1.0;"/><line style="stroke:#181818;stroke-width:1.0;" x1="42.5" x2="130.5" y1="249.0703" y2="249.0703"/><text fill="#000000" font-family="sans-serif" font-size="13" lengthAdjust="spacing" textLength="70" x="54.5" y="244.2139">messageC()</text><!--MD5=[ef0b30be871def0425c6551260671b03]
@startuml
hide footbox

participant ":P1" as P1
participant ":P2" as P2


par 
  P1 -> P2 : message1()
  P1 -> P2 : message2()
  P1 -> P2 : message3()
else
  P1 <- P2 : messageA()
  P1 <- P2 : messageB()
  P1 <- P2 : messageC()
end par

@enduml

PlantUML version 1.2022.7(Mon Aug 22 13:01:30 EDT 2022)
(GPL source distribution)
Java Runtime: Java(TM) SE Runtime Environment
JVM: Java HotSpot(TM) 64-Bit Server VM
Default Encoding: Cp1252
Language: en
Country: US
--></g></svg>