<?plantuml 1.2026.2?><svg xmlns="http://www.w3.org/2000/svg" xmlns:xlink="http://www.w3.org/1999/xlink" contentStyleType="text/css" data-diagram-type="SEQUENCE" height="281px" preserveAspectRatio="none" style="width:166px;height:281px;" version="1.1" viewBox="0 0 166 281" width="166px" zoomAndPan="magnify"><defs/><g><rect fill="none" height="202.4609" style="stroke:#000000;stroke-width:1.5;" width="149.8091" x="10" y="54.6094"/><g class="participant-lifeline" data-entity-uid="part1" data-qualified-name="P1" id="part1-lifeline"><g><title>.P1</title><rect fill="#000000" fill-opacity="0.00000" height="236.4609" width="8" x="33.5068" y="37.6094"/><line style="stroke:#181818;stroke-width:0.5;stroke-dasharray:5,5;" x1="37" x2="37" y1="37.6094" y2="274.0703"/></g></g><g class="participant-lifeline" data-entity-uid="part2" data-qualified-name="P2" id="part2-lifeline"><g><title>.P2</title><rect fill="#000000" fill-opacity="0.00000" height="236.4609" width="8" x="128.3022" y="37.6094"/><line style="stroke:#181818;stroke-width:0.5;stroke-dasharray:5,5;" x1="131.7954" x2="131.7954" y1="37.6094" y2="274.0703"/></g></g><g class="participant participant-head" data-entity-uid="part1" data-qualified-name="P1" id="part1-head"><rect fill="#E2E2F0" height="31.6094" rx="2.5" ry="2.5" style="stroke:#181818;stroke-width:0.5;" width="35.0137" x="20" y="5"/><text fill="#000000" font-family="sans-serif" font-size="14" lengthAdjust="spacing" textLength="21.0137" x="27" y="26.5332">:P1</text></g><g class="participant participant-head" data-entity-uid="part2" data-qualified-name="P2" id="part2-head"><rect fill="#E2E2F0" height="31.6094" rx="2.5" ry="2.5" style="stroke:#181818;stroke-width:0.5;" width="35.0137" x="114.7954" y="5"/><text fill="#000000" font-family="sans-serif" font-size="14" lengthAdjust="spacing" textLength="21.0137" x="121.7954" y="26.5332">:P2</text></g><path d="M10,54.6094 L75.23,54.6094 L75.23,62.9609 L65.23,72.9609 L10,72.9609 L10,54.6094" fill="#EEEEEE" style="stroke:#000000;stroke-width:1.5;"/><rect fill="none" height="202.4609" style="stroke:#000000;stroke-width:1.5;" width="149.8091" x="10" y="54.6094"/><text fill="#000000" font-family="sans-serif" font-size="13" font-weight="bold" lengthAdjust="spacing" textLength="20.23" x="25" y="69.1045">par</text><g class="message" data-entity-1="part1" data-entity-2="part2" id="msg1"><polygon fill="#181818" points="120.3022,91.3125,130.3022,95.3125,120.3022,99.3125,124.3022,95.3125" style="stroke:#181818;stroke-width:1;"/><line style="stroke:#181818;stroke-width:1;" x1="37.5068" x2="126.3022" y1="95.3125" y2="95.3125"/><text fill="#000000" font-family="sans-serif" font-size="13" lengthAdjust="spacing" textLength="68.6372" x="44.5068" y="90.4561">message1()</text></g><g class="message" data-entity-1="part1" data-entity-2="part2" id="msg2"><polygon fill="#181818" points="120.3022,121.6641,130.3022,125.6641,120.3022,129.6641,124.3022,125.6641" style="stroke:#181818;stroke-width:1;"/><line style="stroke:#181818;stroke-width:1;" x1="37.5068" x2="126.3022" y1="125.6641" y2="125.6641"/><text fill="#000000" font-family="sans-serif" font-size="13" lengthAdjust="spacing" textLength="68.6372" x="44.5068" y="120.8076">message2()</text></g><g class="message" data-entity-1="part1" data-entity-2="part2" id="msg3"><polygon fill="#181818" points="120.3022,152.0156,130.3022,156.0156,120.3022,160.0156,124.3022,156.0156" style="stroke:#181818;stroke-width:1;"/><line style="stroke:#181818;stroke-width:1;" x1="37.5068" x2="126.3022" y1="156.0156" y2="156.0156"/><text fill="#000000" font-family="sans-serif" font-size="13" lengthAdjust="spacing" textLength="68.6372" x="44.5068" y="151.1592">message3()</text></g><line style="stroke:#000000;stroke-width:1;stroke-dasharray:2,2;" x1="10" x2="159.8091" y1="165.0156" y2="165.0156"/><g class="message" data-entity-1="part2" data-entity-2="part1" id="msg4"><polygon fill="#181818" points="48.5068,184.3672,38.5068,188.3672,48.5068,192.3672,44.5068,188.3672" style="stroke:#181818;stroke-width:1;"/><line style="stroke:#181818;stroke-width:1;stroke-dasharray:2,2;" x1="42.5068" x2="131.3022" y1="188.3672" y2="188.3672"/><text fill="#000000" font-family="sans-serif" font-size="13" lengthAdjust="spacing" textLength="70.0781" x="54.5068" y="183.5107">messageA()</text></g><g class="message" data-entity-1="part2" data-entity-2="part1" id="msg5"><polygon fill="#181818" points="48.5068,214.7188,38.5068,218.7188,48.5068,222.7188,44.5068,218.7188" style="stroke:#181818;stroke-width:1;"/><line style="stroke:#181818;stroke-width:1;stroke-dasharray:2,2;" x1="42.5068" x2="131.3022" y1="218.7188" y2="218.7188"/><text fill="#000000" font-family="sans-serif" font-size="13" lengthAdjust="spacing" textLength="70.0781" x="54.5068" y="213.8623">messageB()</text></g><g class="message" data-entity-1="part2" data-entity-2="part1" id="msg6"><polygon fill="#181818" points="48.5068,245.0703,38.5068,249.0703,48.5068,253.0703,44.5068,249.0703" style="stroke:#181818;stroke-width:1;"/><line style="stroke:#181818;stroke-width:1;stroke-dasharray:2,2;" x1="42.5068" x2="131.3022" y1="249.0703" y2="249.0703"/><text fill="#000000" font-family="sans-serif" font-size="13" lengthAdjust="spacing" textLength="70.7954" x="54.5068" y="244.2139">messageC()</text></g><?plantuml-src TSx12i8m383XUvyYxAI77bPlGmJr1VOAMHjdsPQCfeAFRyVmu72dmlybeSyO21uYkPEtqI7oZ0adwD0FVP8N1o-Z9CW9MGiHPrEU77sSaJDKJLjNW0fjlUrkxSwOHS10cG5xAGKQc4WLUweFnx_TxVHJwJGghNYszaUltwqjtFRWljpZ0EM3vWC0?></g></svg>