<?xml version="1.0" encoding="UTF-8" standalone="no"?><svg xmlns="http://www.w3.org/2000/svg" xmlns:xlink="http://www.w3.org/1999/xlink" contentStyleType="text/css" height="297px" preserveAspectRatio="none" style="width:262px;height:297px;background:#FFFFFF;" version="1.1" viewBox="0 0 262 297" width="262px" zoomAndPan="magnify"><defs/><g><ellipse cx="131" cy="20" fill="#222222" rx="10" ry="10" style="stroke:#222222;stroke-width:1.0;"/><rect fill="#F1F1F1" height="34.1328" rx="12.5" ry="12.5" style="stroke:#181818;stroke-width:0.5;" width="93" x="84.5" y="50"/><text fill="#000000" font-family="sans-serif" font-size="12" lengthAdjust="spacing" textLength="73" x="94.5" y="71.6016">Se connecter</text><rect fill="#555555" height="6" rx="2.5" ry="2.5" style="stroke:#555555;stroke-width:1.0;" width="240" x="11" y="104.1328"/><rect fill="#F1F1F1" height="34.1328" rx="12.5" ry="12.5" style="stroke:#181818;stroke-width:0.5;" width="76" x="23" y="130.1328"/><text fill="#000000" font-family="sans-serif" font-size="12" lengthAdjust="spacing" textLength="56" x="33" y="151.7344">Clavarder</text><rect fill="#F1F1F1" height="34.1328" rx="12.5" ry="12.5" style="stroke:#181818;stroke-width:0.5;" width="112" x="127" y="130.1328"/><text fill="#000000" font-family="sans-serif" font-size="12" lengthAdjust="spacing" textLength="92" x="137" y="151.7344">Écouter le cours</text><rect fill="#555555" height="6" rx="2.5" ry="2.5" style="stroke:#555555;stroke-width:1.0;" width="240" x="11" y="184.2656"/><rect fill="#F1F1F1" height="34.1328" rx="12.5" ry="12.5" style="stroke:#181818;stroke-width:0.5;" width="108" x="77" y="210.2656"/><text fill="#000000" font-family="sans-serif" font-size="12" lengthAdjust="spacing" textLength="88" x="87" y="231.8672">Se déconnecter</text><ellipse cx="131" cy="275.3984" fill="none" rx="11" ry="11" style="stroke:#222222;stroke-width:1.0;"/><ellipse cx="131" cy="275.3984" fill="#222222" rx="6" ry="6" style="stroke:#111111;stroke-width:1.0;"/><line style="stroke:#181818;stroke-width:1.0;" x1="131" x2="131" y1="30" y2="50"/><polygon fill="#181818" points="127,40,131,50,135,40,131,44" style="stroke:#181818;stroke-width:1.0;"/><line style="stroke:#181818;stroke-width:1.0;" x1="61" x2="61" y1="110.1328" y2="130.1328"/><polygon fill="#181818" points="57,120.1328,61,130.1328,65,120.1328,61,124.1328" style="stroke:#181818;stroke-width:1.0;"/><line style="stroke:#181818;stroke-width:1.0;" x1="183" x2="183" y1="110.1328" y2="130.1328"/><polygon fill="#181818" points="179,120.1328,183,130.1328,187,120.1328,183,124.1328" style="stroke:#181818;stroke-width:1.0;"/><line style="stroke:#181818;stroke-width:1.0;" x1="61" x2="61" y1="164.2656" y2="184.2656"/><polygon fill="#181818" points="57,174.2656,61,184.2656,65,174.2656,61,178.2656" style="stroke:#181818;stroke-width:1.0;"/><line style="stroke:#181818;stroke-width:1.0;" x1="183" x2="183" y1="164.2656" y2="184.2656"/><polygon fill="#181818" points="179,174.2656,183,184.2656,187,174.2656,183,178.2656" style="stroke:#181818;stroke-width:1.0;"/><line style="stroke:#181818;stroke-width:1.0;" x1="131" x2="131" y1="84.1328" y2="104.1328"/><polygon fill="#181818" points="127,94.1328,131,104.1328,135,94.1328,131,98.1328" style="stroke:#181818;stroke-width:1.0;"/><line style="stroke:#181818;stroke-width:1.0;" x1="131" x2="131" y1="190.2656" y2="210.2656"/><polygon fill="#181818" points="127,200.2656,131,210.2656,135,200.2656,131,204.2656" style="stroke:#181818;stroke-width:1.0;"/><line style="stroke:#181818;stroke-width:1.0;" x1="131" x2="131" y1="244.3984" y2="264.3984"/><polygon fill="#181818" points="127,254.3984,131,264.3984,135,254.3984,131,258.3984" style="stroke:#181818;stroke-width:1.0;"/><!--MD5=[b4c9f934c3a2dca79529ee32a0ab71e3]
@startuml
start
:Se connecter;
fork
:Clavarder;
fork again
:Écouter le cours;
end fork
:Se déconnecter;
stop
@enduml

PlantUML version 1.2022.7(Mon Aug 22 13:01:30 EDT 2022)
(GPL source distribution)
Java Runtime: OpenJDK Runtime Environment
JVM: OpenJDK 64-Bit Server VM
Default Encoding: UTF-8
Language: en
Country: CA
--></g></svg>