<?xml version="1.0" encoding="UTF-8" standalone="no"?><svg xmlns="http://www.w3.org/2000/svg" xmlns:xlink="http://www.w3.org/1999/xlink" contentStyleType="text/css" height="100px" preserveAspectRatio="none" style="width:210px;height:100px;background:#00000000;" version="1.1" viewBox="0 0 210 100" width="210px" zoomAndPan="magnify"><defs/><g><!--MD5=[94aedccb8cc96a5518789508ee38c62c]
cluster Package--><g id="cluster_Package"><path d="M8.5,6 L67.5,6 A3.75,3.75 0 0 1 70,8.5 L77,28.4883 L200.5,28.4883 A2.5,2.5 0 0 1 203,30.9883 L203,90.99 A2.5,2.5 0 0 1 200.5,93.49 L8.5,93.49 A2.5,2.5 0 0 1 6,90.99 L6,8.5 A2.5,2.5 0 0 1 8.5,6 " fill="none" style="stroke:#000000;stroke-width:1.5;"/><line style="stroke:#000000;stroke-width:1.5;" x1="6" x2="77" y1="28.4883" y2="28.4883"/><text fill="#000000" font-family="sans-serif" font-size="14" font-weight="bold" lengthAdjust="spacing" textLength="58" x="10" y="21.5352">Package</text></g><!--MD5=[b0c75860eec0385fd16d50cbd63f3eb2]
entity ClassA--><g id="elem_ClassA"><rect fill="#F1F1F1" height="36.4883" rx="2.5" ry="2.5" style="stroke:#181818;stroke-width:0.5;" width="66" x="121" y="41"/><text fill="#000000" font-family="sans-serif" font-size="14" lengthAdjust="spacing" textLength="46" x="131" y="64.5352">ClassA</text></g><!--MD5=[31716fce1adb17d697538ec72afcbf37]
entity ClassB--><g id="elem_ClassB"><rect fill="#F1F1F1" height="36.4883" rx="2.5" ry="2.5" style="stroke:#181818;stroke-width:0.5;" width="64" x="22" y="41"/><text fill="#000000" font-family="sans-serif" font-size="14" lengthAdjust="spacing" textLength="44" x="32" y="64.5352">ClassB</text></g><!--MD5=[0abd6748f96a4fcc5c377e5293a1bbfb]
@startuml
hide circle
skinparam backgroundcolor transparent
package Package {
  rectangle ClassA
  rectangle ClassB
}

@enduml

PlantUML version 1.2022.7(Mon Aug 22 13:01:30 EDT 2022)
(GPL source distribution)
Java Runtime: OpenJDK Runtime Environment
JVM: OpenJDK 64-Bit Server VM
Default Encoding: UTF-8
Language: en
Country: CA
--></g></svg>