<?xml version="1.0" encoding="UTF-8" standalone="no"?><svg xmlns="http://www.w3.org/2000/svg" xmlns:xlink="http://www.w3.org/1999/xlink" contentStyleType="text/css" height="100px" preserveAspectRatio="none" style="width:226px;height:100px;background:#00000000;" version="1.1" viewBox="0 0 226 100" width="226px" zoomAndPan="magnify"><defs/><g><!--MD5=[2cb917ba76d3110b173b79bca8b565cd]
cluster Paquetage--><g id="cluster_Paquetage"><path d="M8.5,6 L83.5,6 A3.75,3.75 0 0 1 86,8.5 L93,28.4883 L216.5,28.4883 A2.5,2.5 0 0 1 219,30.9883 L219,90.99 A2.5,2.5 0 0 1 216.5,93.49 L8.5,93.49 A2.5,2.5 0 0 1 6,90.99 L6,8.5 A2.5,2.5 0 0 1 8.5,6 " fill="none" style="stroke:#000000;stroke-width:1.5;"/><line style="stroke:#000000;stroke-width:1.5;" x1="6" x2="93" y1="28.4883" y2="28.4883"/><text fill="#000000" font-family="sans-serif" font-size="14" font-weight="bold" lengthAdjust="spacing" textLength="74" x="10" y="21.5352">Paquetage</text></g><!--MD5=[346131d7317d104f7cb35d35ccba1498]
entity ClasseA--><g id="elem_ClasseA"><rect fill="#F1F1F1" height="36.4883" rx="2.5" ry="2.5" style="stroke:#181818;stroke-width:0.5;" width="74" x="129" y="41"/><text fill="#000000" font-family="sans-serif" font-size="14" lengthAdjust="spacing" textLength="54" x="139" y="64.5352">ClasseA</text></g><!--MD5=[8ae21eb4e1094799e18dfff59ec623b7]
entity ClasseB--><g id="elem_ClasseB"><rect fill="#F1F1F1" height="36.4883" rx="2.5" ry="2.5" style="stroke:#181818;stroke-width:0.5;" width="72" x="22" y="41"/><text fill="#000000" font-family="sans-serif" font-size="14" lengthAdjust="spacing" textLength="52" x="32" y="64.5352">ClasseB</text></g><!--MD5=[8c7ac6b894a3a1061125c3b59b59bdb6]
@startuml
hide circle
skinparam backgroundcolor transparent
package Paquetage {
  rectangle ClasseA
  rectangle ClasseB
}

@enduml

PlantUML version 1.2022.7(Mon Aug 22 13:01:30 EDT 2022)
(GPL source distribution)
Java Runtime: OpenJDK Runtime Environment
JVM: OpenJDK 64-Bit Server VM
Default Encoding: UTF-8
Language: en
Country: CA
--></g></svg>