<?xml version="1.0" encoding="UTF-8" standalone="no"?><svg xmlns="http://www.w3.org/2000/svg" xmlns:xlink="http://www.w3.org/1999/xlink" contentStyleType="text/css" height="399px" preserveAspectRatio="none" style="width:596px;height:399px;background:#00000000;" version="1.1" viewBox="0 0 596 399" width="596px" zoomAndPan="magnify"><defs/><g><ellipse cx="62" cy="16" fill="#222222" rx="10" ry="10" style="stroke:none;stroke-width:1.0;"/><g id="NonEnregistré"><rect fill="#F1F1F1" height="50" rx="12.5" ry="12.5" style="stroke:#181818;stroke-width:0.5;" width="110" x="7" y="87"/><line style="stroke:#181818;stroke-width:0.5;" x1="7" x2="117" y1="114.6094" y2="114.6094"/><text fill="#000000" font-family="sans-serif" font-size="14" lengthAdjust="spacing" textLength="90" x="17" y="106.5332">NonEnregistré</text></g><g id="Enregistré"><rect fill="#F1F1F1" height="50" rx="12.5" ry="12.5" style="stroke:#181818;stroke-width:0.5;" width="85" x="212.5" y="87"/><line style="stroke:#181818;stroke-width:0.5;" x1="212.5" x2="297.5" y1="114.6094" y2="114.6094"/><text fill="#000000" font-family="sans-serif" font-size="14" lengthAdjust="spacing" textLength="65" x="222.5" y="106.5332">Enregistré</text></g><g id="Disponible"><rect fill="#F1F1F1" height="50" rx="12.5" ry="12.5" style="stroke:#181818;stroke-width:0.5;" width="86" x="395" y="87"/><line style="stroke:#181818;stroke-width:0.5;" x1="395" x2="481" y1="114.6094" y2="114.6094"/><text fill="#000000" font-family="sans-serif" font-size="14" lengthAdjust="spacing" textLength="66" x="405" y="106.5332">Disponible</text></g><g id="Réservé"><rect fill="#F1F1F1" height="50" rx="12.5" ry="12.5" style="stroke:#181818;stroke-width:0.5;" width="73" x="329.5" y="215"/><line style="stroke:#181818;stroke-width:0.5;" x1="329.5" x2="402.5" y1="242.6094" y2="242.6094"/><text fill="#000000" font-family="sans-serif" font-size="14" lengthAdjust="spacing" textLength="53" x="339.5" y="234.5332">Réservé</text></g><g id="EnCours"><rect fill="#F1F1F1" height="50" rx="12.5" ry="12.5" style="stroke:#181818;stroke-width:0.5;" width="75" x="435.5" y="343"/><line style="stroke:#181818;stroke-width:0.5;" x1="435.5" x2="510.5" y1="370.6094" y2="370.6094"/><text fill="#000000" font-family="sans-serif" font-size="14" lengthAdjust="spacing" textLength="55" x="445.5" y="362.5332">EnCours</text></g><!--MD5=[b6672ea59b36b7eee0c08032461528e6]
link *start to NonEnregistré--><g id="link_*start_NonEnregistré"><path d="M62,26.01 C62,38.7 62,62.41 62,81.57 " fill="none" id="*start-to-NonEnregistré" style="stroke:#181818;stroke-width:1.0;"/><polygon fill="#181818" points="62,86.84,66,77.84,62,81.84,58,77.84,62,86.84" style="stroke:#181818;stroke-width:1.0;"/></g><!--MD5=[75513cf123f60126e781c36b15121639]
link NonEnregistré to Enregistré--><g id="link_NonEnregistré_Enregistré"><path d="M117.05,112 C145.58,112 180.08,112 207.44,112 " fill="none" id="NonEnregistré-to-Enregistré" style="stroke:#181818;stroke-width:1.0;"/><polygon fill="#181818" points="212.46,112,203.46,108,207.46,112,203.46,116,212.46,112" style="stroke:#181818;stroke-width:1.0;"/><text fill="#000000" font-family="sans-serif" font-size="13" lengthAdjust="spacing" textLength="59" x="135.25" y="105.4951">Inscription</text></g><!--MD5=[524e7e7ed86eab5beac9d500c831b895]
link Enregistré to Disponible--><g id="link_Enregistré_Disponible"><path d="M297.91,112 C325.35,112 361.02,112 389.5,112 " fill="none" id="Enregistré-to-Disponible" style="stroke:#181818;stroke-width:1.0;"/><polygon fill="#181818" points="394.73,112,385.73,108,389.73,112,385.73,116,394.73,112" style="stroke:#181818;stroke-width:1.0;"/><text fill="#000000" font-family="sans-serif" font-size="13" lengthAdjust="spacing" textLength="61" x="315.75" y="105.4951">Connexion</text></g><!--MD5=[8202dccebd2b93127e34fb8fd7b2ff29]
link Disponible to Réservé--><g id="link_Disponible_Réservé"><path d="M394.77,118.65 C365.17,125.01 327.97,138.5 309,167 C298.5,182.78 310.05,199.44 325.44,212.75 " fill="none" id="Disponible-to-Réservé" style="stroke:#181818;stroke-width:1.0;"/><polygon fill="#181818" points="329.42,216.06,325.0441,207.2367,325.5707,212.8689,319.9384,213.3955,329.42,216.06" style="stroke:#181818;stroke-width:1.0;"/><text fill="#000000" font-family="sans-serif" font-size="13" lengthAdjust="spacing" textLength="50" x="310" y="181.4951">Réserver</text></g><!--MD5=[e0e355f5b2acc813d2b8416b293eaaef]
link Réservé to Disponible--><g id="link_Réservé_Disponible"><path d="M376.64,214.87 C383.17,200.66 391.99,182.5 401,167 C405.92,158.54 411.71,149.67 417.23,141.62 " fill="none" id="Réservé-to-Disponible" style="stroke:#181818;stroke-width:1.0;"/><polygon fill="#181818" points="420.27,137.23,411.863,142.3605,417.4277,141.3435,418.4446,146.9082,420.27,137.23" style="stroke:#181818;stroke-width:1.0;"/><text fill="#000000" font-family="sans-serif" font-size="13" lengthAdjust="spacing" textLength="44" x="402" y="181.4951">Annuler</text></g><!--MD5=[2c7a78f8640e95329ecb94cf0a387c7a]
link Réservé to EnCours--><g id="link_Réservé_EnCours"><path d="M363.73,265.29 C363.54,280.24 365.6,299.13 375,313 C388.12,332.35 410.56,345.44 430.66,353.88 " fill="none" id="Réservé-to-EnCours" style="stroke:#181818;stroke-width:1.0;"/><polygon fill="#181818" points="435.45,355.82,428.598,348.7454,430.8126,353.9508,425.6072,356.1653,435.45,355.82" style="stroke:#181818;stroke-width:1.0;"/><text fill="#000000" font-family="sans-serif" font-size="13" lengthAdjust="spacing" textLength="70" x="376" y="309.4951">Déverrouiller</text></g><!--MD5=[051ab4c3c536a8620ced6942879d02e5]
link EnCours to Disponible--><g id="link_EnCours_Disponible"><path d="M471.34,342.85 C468.51,305.11 462,229.97 451,167 C449.57,158.82 447.63,150.03 445.69,141.97 " fill="none" id="EnCours-to-Disponible" style="stroke:#181818;stroke-width:1.0;"/><polygon fill="#181818" points="444.48,137.06,442.7554,146.7567,445.6792,141.9141,450.5219,144.8379,444.48,137.06" style="stroke:#181818;stroke-width:1.0;"/><text fill="#000000" font-family="sans-serif" font-size="13" lengthAdjust="spacing" textLength="56" x="466" y="245.4951">Retourner</text></g><!--MD5=[051ab4c3c536a8620ced6942879d02e5]
link EnCours to Disponible--><g id="link_EnCours_Disponible"><path d="M493.71,342.75 C516.71,312.73 548.45,260.04 531,215 C519.51,185.34 494.93,159.01 473.93,140.54 " fill="none" id="EnCours-to-Disponible-1" style="stroke:#181818;stroke-width:1.0;"/><polygon fill="#181818" points="470.05,137.18,474.2251,146.1001,473.8261,140.4574,479.4689,140.0584,470.05,137.18" style="stroke:#181818;stroke-width:1.0;"/><text fill="#000000" font-family="sans-serif" font-size="13" lengthAdjust="spacing" textLength="50" x="538" y="245.4951">Terminer</text></g><!--MD5=[a6799796f392f792945c6fa5b69f7076]
@startuml

skinparam backgroundcolor transparent

[*] - -> NonEnregistré

NonEnregistré -> Enregistré : Inscription
Enregistré -> Disponible : Connexion

Disponible - -> Réservé : Réserver
Réservé - -> EnCours : Déverrouiller
EnCours - -> Disponible : Retourner
Réservé - -> Disponible : Annuler
EnCours - -> Disponible : Terminer

@enduml

PlantUML version 1.2022.7(Mon Aug 22 13:01:30 EDT 2022)
(GPL source distribution)
Java Runtime: Java(TM) SE Runtime Environment
JVM: Java HotSpot(TM) 64-Bit Server VM
Default Encoding: Cp1252
Language: en
Country: CA
--></g></svg>