<?xml version="1.0" encoding="UTF-8" standalone="no"?><svg xmlns="http://www.w3.org/2000/svg" xmlns:xlink="http://www.w3.org/1999/xlink" contentStyleType="text/css" height="394px" preserveAspectRatio="none" style="width:446px;height:394px;background:#00000000;" version="1.1" viewBox="0 0 446 394" width="446px" zoomAndPan="magnify"><defs/><g><!--MD5=[5021fd074e5a2aaf768de29927a6013f]
cluster Employé--><g id="cluster_Employé"><path d="M8.5,149 L70.5,149 A3.75,3.75 0 0 1 73,151.5 L80,171.4883 L199.5,171.4883 A2.5,2.5 0 0 1 202,173.9883 L202,384.5 A2.5,2.5 0 0 1 199.5,387 L8.5,387 A2.5,2.5 0 0 1 6,384.5 L6,151.5 A2.5,2.5 0 0 1 8.5,149 " fill="none" style="stroke:#000000;stroke-width:1.5;"/><line style="stroke:#000000;stroke-width:1.5;" x1="6" x2="80" y1="171.4883" y2="171.4883"/><text fill="#000000" font-family="sans-serif" font-size="14" font-weight="bold" lengthAdjust="spacing" textLength="61" x="10" y="164.5352">Employé</text></g><!--MD5=[bc938698130bec3721522f38f16e3aed]
cluster Restaurant--><g id="cluster_Restaurant"><rect fill="none" height="297" rx="2.5" ry="2.5" style="stroke:#181818;stroke-width:1.0;" width="210.04" x="230" y="7"/><text fill="#000000" font-family="sans-serif" font-size="14" font-weight="bold" lengthAdjust="spacing" textLength="78" x="296.02" y="22.5352">Restaurant</text></g><!--MD5=[8e9b2d9d80e066cced8e5d90e9bdea61]
entity c--><g id="elem_c"><ellipse cx="104" cy="192.26" fill="#F1F1F1" rx="8" ry="8" style="stroke:#181818;stroke-width:0.5;"/><path d="M104,200.26 L104,227.26 M91,208.26 L117,208.26 M104,227.26 L91,242.26 M104,227.26 L117,242.26 " fill="none" style="stroke:#181818;stroke-width:0.5;"/><text fill="#000000" font-family="sans-serif" font-size="14" lengthAdjust="spacing" textLength="32" x="88" y="257.2952">Chef</text></g><!--MD5=[db756db308cf6ff8cfeeb51570136b75]
entity fc--><g id="elem_fc"><ellipse cx="104" cy="303.26" fill="#F1F1F1" rx="8" ry="8" style="stroke:#181818;stroke-width:0.5;"/><path d="M104,311.26 L104,338.26 M91,319.26 L117,319.26 M104,338.26 L91,353.26 M104,338.26 L117,353.26 " fill="none" style="stroke:#181818;stroke-width:0.5;"/><text fill="#000000" font-family="sans-serif" font-size="14" lengthAdjust="spacing" textLength="164" x="22" y="368.2952">Critique gastronomique</text></g><g id="elem_UC1"><ellipse cx="335.0159" cy="59.9952" fill="#F1F1F1" rx="79.1259" ry="18.2252" style="stroke:#181818;stroke-width:0.5;"/><text fill="#000000" font-family="sans-serif" font-size="14" lengthAdjust="spacing" textLength="116" x="277.0159" y="63.2862">Manger un repas</text></g><g id="elem_UC2"><ellipse cx="335.0239" cy="131.0028" fill="#F1F1F1" rx="74.5639" ry="17.3128" style="stroke:#181818;stroke-width:0.5;"/><text fill="#000000" font-family="sans-serif" font-size="14" lengthAdjust="spacing" textLength="105" x="282.5239" y="134.2938">Payer l'addition</text></g><g id="elem_UC3"><ellipse cx="335.024" cy="197.999" fill="#F1F1F1" rx="36.234" ry="14.659" style="stroke:#181818;stroke-width:0.5;"/><text fill="#000000" font-family="sans-serif" font-size="14" lengthAdjust="spacing" textLength="35" x="317.524" y="201.29">Boire</text></g><g id="elem_UC4"><ellipse cx="335.0197" cy="268.0039" fill="#F1F1F1" rx="89.0197" ry="20.2039" style="stroke:#181818;stroke-width:0.5;"/><text fill="#000000" font-family="sans-serif" font-size="14" lengthAdjust="spacing" textLength="139" x="265.5197" y="271.295">Émettre une critique</text></g><!--MD5=[338e9af232e5abde8a6bc8ae9f528414]
entity g--><g id="elem_g"><ellipse cx="104" cy="65.26" fill="#F1F1F1" rx="8" ry="8" style="stroke:#181818;stroke-width:0.5;"/><path d="M104,73.26 L104,100.26 M91,81.26 L117,81.26 M104,100.26 L91,115.26 M104,100.26 L117,115.26 " fill="none" style="stroke:#181818;stroke-width:0.5;"/><text fill="#000000" font-family="sans-serif" font-size="14" lengthAdjust="spacing" textLength="40" x="84" y="130.2952">Client</text></g><!--MD5=[671315809142cbf8f95afb4988884e94]
link fc to UC4--><g id="link_fc_UC4"><path d="M186.39,309.9 C214.72,301.86 246,292.98 272.45,285.47 " fill="none" id="fc-to-UC4" style="stroke:#181818;stroke-width:1.0;"/><polygon fill="#181818" points="277.02,283.89,267.2685,282.5087,272.2113,285.2598,269.4602,290.2027,277.02,283.89" style="stroke:#181818;stroke-width:1.0;"/></g><!--MD5=[e6283e10ea57013afd663a209f443892]
link g to UC1--><g id="link_g_UC1"><path d="M124.13,92.08 C154.25,87.47 214.23,78.31 262.39,70.95 " fill="none" id="g-to-UC1" style="stroke:#181818;stroke-width:1.0;"/><polygon fill="#181818" points="267.2,70.06,257.6981,67.4688,262.2576,70.8171,258.9094,75.3766,267.2,70.06" style="stroke:#181818;stroke-width:1.0;"/></g><!--MD5=[de7f95d11870be32e701ecd3c2a76950]
link g to UC2--><g id="link_g_UC2"><path d="M124.13,98.01 C155.12,102.88 217.76,112.72 266.57,120.4 " fill="none" id="g-to-UC2" style="stroke:#181818;stroke-width:1.0;"/><polygon fill="#181818" points="271.45,121.32,263.192,115.953,266.5124,120.5328,261.9325,123.8532,271.45,121.32" style="stroke:#181818;stroke-width:1.0;"/></g><!--MD5=[ea36581ba262fe67fca98703761d6744]
link g to UC3--><g id="link_g_UC3"><path d="M124.41,109.02 C146.93,124.74 185.64,150.12 222,166 C245.99,176.48 274.36,184.54 296.54,189.95 " fill="none" id="g-to-UC3" style="stroke:#181818;stroke-width:1.0;"/><polygon fill="#181818" points="301.33,191.34,293.5147,185.3466,296.4686,190.171,291.6442,193.1249,301.33,191.34" style="stroke:#181818;stroke-width:1.0;"/></g><!--MD5=[59b304d47772fd7d7713f22d7a59c7d2]
@startuml
left to right direction
skinparam backgroundcolor transparent
actor Client as g
Package Employé {
  actor Chef as c
  actor "Critique gastronomique" as fc
}
Rectangle Restaurant {
  usecase "Manger un repas" as UC1
  usecase "Payer l'addition" as UC2
  usecase "Boire" as UC3
  usecase "Émettre une critique" as UC4
}
fc - -> UC4
g - -> UC1
g - -> UC2
g - -> UC3
@enduml

PlantUML version 1.2022.7(Mon Aug 22 13:01:30 EDT 2022)
(GPL source distribution)
Java Runtime: OpenJDK Runtime Environment
JVM: OpenJDK 64-Bit Server VM
Default Encoding: UTF-8
Language: en
Country: CA
--></g></svg>