<?xml version="1.0" encoding="UTF-8" standalone="no"?><svg xmlns="http://www.w3.org/2000/svg" xmlns:xlink="http://www.w3.org/1999/xlink" contentStyleType="text/css" height="401px" preserveAspectRatio="none" style="width:346px;height:401px;background:#00000000;" version="1.1" viewBox="0 0 346 401" width="346px" zoomAndPan="magnify"><defs/><g><!--MD5=[5021fd074e5a2aaf768de29927a6013f]
cluster Employé--><g id="cluster_Employé"><path d="M8.5,151 L68.5,151 A3.75,3.75 0 0 1 71,153.5 L78,174.6094 L85.5,174.6094 A2.5,2.5 0 0 1 88,177.1094 L88,391.5 A2.5,2.5 0 0 1 85.5,394 L8.5,394 A2.5,2.5 0 0 1 6,391.5 L6,153.5 A2.5,2.5 0 0 1 8.5,151 " fill="none" style="stroke:#000000;stroke-width:1.5;"/><line style="stroke:#000000;stroke-width:1.5;" x1="6" x2="78" y1="174.6094" y2="174.6094"/><text fill="#000000" font-family="sans-serif" font-size="14" font-weight="bold" lengthAdjust="spacing" textLength="59" x="10" y="167.5332">Employé</text></g><!--MD5=[bc938698130bec3721522f38f16e3aed]
cluster Restaurant--><g id="cluster_Restaurant"><rect fill="none" height="302" rx="2.5" ry="2.5" style="stroke:#181818;stroke-width:1.0;" width="224" x="116" y="7"/><text fill="#000000" font-family="sans-serif" font-size="14" font-weight="bold" lengthAdjust="spacing" textLength="77" x="189.5" y="23.5332">Restaurant</text></g><!--MD5=[8e9b2d9d80e066cced8e5d90e9bdea61]
entity c--><g id="elem_c"><ellipse cx="47" cy="195.5" fill="#F1F1F1" rx="8" ry="8" style="stroke:#181818;stroke-width:0.5;"/><path d="M47,203.5 L47,230.5 M34,211.5 L60,211.5 M47,230.5 L34,245.5 M47,230.5 L60,245.5 " fill="none" style="stroke:#181818;stroke-width:0.5;"/><text fill="#000000" font-family="sans-serif" font-size="14" lengthAdjust="spacing" textLength="30" x="32" y="261.5332">Chef</text></g><!--MD5=[db756db308cf6ff8cfeeb51570136b75]
entity fc--><g id="elem_fc"><ellipse cx="47" cy="308.5" fill="#F1F1F1" rx="8" ry="8" style="stroke:#181818;stroke-width:0.5;"/><path d="M47,316.5 L47,343.5 M34,324.5 L60,324.5 M47,343.5 L34,358.5 M47,343.5 L60,358.5 " fill="none" style="stroke:#181818;stroke-width:0.5;"/><text fill="#000000" font-family="sans-serif" font-size="14" lengthAdjust="spacing" textLength="50" x="22" y="374.5332">Serveur</text></g><g id="elem_UC1"><ellipse cx="228.0069" cy="60.9014" fill="#F1F1F1" rx="77.5069" ry="17.9014" style="stroke:#181818;stroke-width:0.5;"/><text fill="#000000" font-family="sans-serif" font-size="14" lengthAdjust="spacing" textLength="108" x="171.8567" y="65.216">Manger un repas</text></g><g id="elem_UC2"><ellipse cx="227.876" cy="131.0752" fill="#F1F1F1" rx="73.376" ry="17.0752" style="stroke:#181818;stroke-width:0.5;"/><text fill="#000000" font-family="sans-serif" font-size="14" lengthAdjust="spacing" textLength="97" x="176.376" y="135.5918">Payer l'addition</text></g><g id="elem_UC3"><ellipse cx="227.8198" cy="198.9517" fill="#F1F1F1" rx="34.8198" ry="15.4517" style="stroke:#181818;stroke-width:0.5;"/><text fill="#000000" font-family="sans-serif" font-size="14" lengthAdjust="spacing" textLength="33" x="211.3198" y="202.6802">Boire</text></g><g id="elem_UC4"><ellipse cx="228.0702" cy="271.114" fill="#F1F1F1" rx="96.0702" ry="21.614" style="stroke:#181818;stroke-width:0.5;"/><text fill="#000000" font-family="sans-serif" font-size="14" lengthAdjust="spacing" textLength="152" x="152.0702" y="274.8426">Prendre une commande</text></g><!--MD5=[338e9af232e5abde8a6bc8ae9f528414]
entity g--><g id="elem_g"><ellipse cx="47" cy="65.5" fill="#F1F1F1" rx="8" ry="8" style="stroke:#181818;stroke-width:0.5;"/><path d="M47,73.5 L47,100.5 M34,81.5 L60,81.5 M47,100.5 L34,115.5 M47,100.5 L60,115.5 " fill="none" style="stroke:#181818;stroke-width:0.5;"/><text fill="#000000" font-family="sans-serif" font-size="14" lengthAdjust="spacing" textLength="36" x="29" y="131.5332">Client</text></g><!--MD5=[671315809142cbf8f95afb4988884e94]
link fc to UC4--><g id="link_fc_UC4"><path d="M72.14,329.83 C97.97,320.02 139.77,304.14 173.44,291.35 " fill="none" id="fc-to-UC4" style="stroke:#181818;stroke-width:1.0;"/><polygon fill="#181818" points="178.35,289.48,168.5165,288.931,173.6748,291.2528,171.353,296.4112,178.35,289.48" style="stroke:#181818;stroke-width:1.0;"/></g><!--MD5=[e6283e10ea57013afd663a209f443892]
link g to UC1--><g id="link_g_UC1"><path d="M65.16,92.64 C87.6,88.26 128.15,80.33 163.04,73.51 " fill="none" id="g-to-UC1" style="stroke:#181818;stroke-width:1.0;"/><polygon fill="#181818" points="168.15,72.51,158.544,70.3366,163.2455,73.4823,160.0997,78.1838,168.15,72.51" style="stroke:#181818;stroke-width:1.0;"/></g><!--MD5=[de7f95d11870be32e701ecd3c2a76950]
link g to UC2--><g id="link_g_UC2"><path d="M65.16,99.36 C88.27,103.87 130.57,112.15 166.14,119.1 " fill="none" id="g-to-UC2" style="stroke:#181818;stroke-width:1.0;"/><polygon fill="#181818" points="171.33,120.12,163.2638,114.4688,166.4227,119.1614,161.7301,122.3204,171.33,120.12" style="stroke:#181818;stroke-width:1.0;"/></g><!--MD5=[ea36581ba262fe67fca98703761d6744]
link g to UC3--><g id="link_g_UC3"><path d="M65.03,122.76 C75.71,137.51 90.71,155.01 108,166 C132.49,181.57 164.36,189.9 188.95,194.3 " fill="none" id="g-to-UC3" style="stroke:#181818;stroke-width:1.0;"/><polygon fill="#181818" points="194.08,195.18,185.8831,189.7201,189.1515,194.3372,184.5345,197.6057,194.08,195.18" style="stroke:#181818;stroke-width:1.0;"/></g><!--MD5=[fc2b4e2d814c915f929f946369b98fe8]
@startuml
left to right direction
skinparam backgroundcolor transparent
actor Client as g
Package Employé {
  actor Chef as c
  actor "Serveur" as fc
}
Rectangle Restaurant {
  usecase "Manger un repas" as UC1
  usecase "Payer l'addition" as UC2
  usecase "Boire" as UC3
  usecase "Prendre une commande" as UC4
}
fc - -> UC4
g - -> UC1
g - -> UC2
g - -> UC3
@enduml

PlantUML version 1.2022.7(Mon Aug 22 13:01:30 EDT 2022)
(GPL source distribution)
Java Runtime: Java(TM) SE Runtime Environment
JVM: Java HotSpot(TM) 64-Bit Server VM
Default Encoding: Cp1252
Language: en
Country: CA
--></g></svg>