<?xml version="1.0" encoding="UTF-8" standalone="no"?><svg xmlns="http://www.w3.org/2000/svg" xmlns:xlink="http://www.w3.org/1999/xlink" contentStyleType="text/css" height="400px" preserveAspectRatio="none" style="width:423px;height:400px;background:#FFFFFF;" version="1.1" viewBox="0 0 423 400" width="423px" zoomAndPan="magnify"><defs/><g><!--MD5=[5021fd074e5a2aaf768de29927a6013f]
cluster Employé--><g id="cluster_Employé"><path d="M8.5,150 L68.5,150 A3.75,3.75 0 0 1 71,152.5 L78,173.6094 L182.5,173.6094 A2.5,2.5 0 0 1 185,176.1094 L185,390.5 A2.5,2.5 0 0 1 182.5,393 L8.5,393 A2.5,2.5 0 0 1 6,390.5 L6,152.5 A2.5,2.5 0 0 1 8.5,150 " fill="none" style="stroke:#000000;stroke-width:1.5;"/><line style="stroke:#000000;stroke-width:1.5;" x1="6" x2="78" y1="173.6094" y2="173.6094"/><text fill="#000000" font-family="sans-serif" font-size="14" font-weight="bold" lengthAdjust="spacing" textLength="59" x="10" y="166.5332">Employé</text></g><!--MD5=[bc938698130bec3721522f38f16e3aed]
cluster Restaurant--><g id="cluster_Restaurant"><path d="M215.5,6 L293.5,6 A3.75,3.75 0 0 1 296,8.5 L303,29.6094 L413.5,29.6094 A2.5,2.5 0 0 1 416,32.1094 L416,301.5 A2.5,2.5 0 0 1 413.5,304 L215.5,304 A2.5,2.5 0 0 1 213,301.5 L213,8.5 A2.5,2.5 0 0 1 215.5,6 " fill="none" style="stroke:#000000;stroke-width:1.5;"/><line style="stroke:#000000;stroke-width:1.5;" x1="213" x2="303" y1="29.6094" y2="29.6094"/><text fill="#000000" font-family="sans-serif" font-size="14" font-weight="bold" lengthAdjust="spacing" textLength="77" x="217" y="22.5332">Restaurant</text></g><!--MD5=[8e9b2d9d80e066cced8e5d90e9bdea61]
entity c--><g id="elem_c"><ellipse cx="95.5" cy="194.5" fill="#F1F1F1" rx="8" ry="8" style="stroke:#181818;stroke-width:0.5;"/><path d="M95.5,202.5 L95.5,229.5 M82.5,210.5 L108.5,210.5 M95.5,229.5 L82.5,244.5 M95.5,229.5 L108.5,244.5 " fill="none" style="stroke:#181818;stroke-width:0.5;"/><text fill="#000000" font-family="sans-serif" font-size="14" lengthAdjust="spacing" textLength="30" x="80.5" y="260.5332">Chef</text></g><!--MD5=[db756db308cf6ff8cfeeb51570136b75]
entity fc--><g id="elem_fc"><ellipse cx="95.5" cy="307.5" fill="#F1F1F1" rx="8" ry="8" style="stroke:#181818;stroke-width:0.5;"/><path d="M95.5,315.5 L95.5,342.5 M82.5,323.5 L108.5,323.5 M95.5,342.5 L82.5,357.5 M95.5,342.5 L108.5,357.5 " fill="none" style="stroke:#181818;stroke-width:0.5;"/><text fill="#000000" font-family="sans-serif" font-size="14" lengthAdjust="spacing" textLength="147" x="22" y="373.5332">Critique gastronomique</text></g><g id="elem_UC1"><ellipse cx="314.5069" cy="59.9014" fill="#F1F1F1" rx="77.5069" ry="17.9014" style="stroke:#181818;stroke-width:0.5;"/><text fill="#000000" font-family="sans-serif" font-size="14" lengthAdjust="spacing" textLength="108" x="258.3567" y="64.216">Manger un repas</text></g><g id="elem_UC2"><ellipse cx="314.376" cy="130.0752" fill="#F1F1F1" rx="73.376" ry="17.0752" style="stroke:#181818;stroke-width:0.5;"/><text fill="#000000" font-family="sans-serif" font-size="14" lengthAdjust="spacing" textLength="97" x="262.876" y="134.5918">Payer l'addition</text></g><g id="elem_UC3"><ellipse cx="314.3198" cy="197.9517" fill="#F1F1F1" rx="34.8198" ry="15.4517" style="stroke:#181818;stroke-width:0.5;"/><text fill="#000000" font-family="sans-serif" font-size="14" lengthAdjust="spacing" textLength="33" x="297.8198" y="201.6802">Boire</text></g><g id="elem_UC4"><ellipse cx="314.2698" cy="267.954" fill="#F1F1F1" rx="85.2698" ry="19.454" style="stroke:#181818;stroke-width:0.5;"/><text fill="#000000" font-family="sans-serif" font-size="14" lengthAdjust="spacing" textLength="127" x="250.7698" y="271.6825">Émettre une critique</text></g><!--MD5=[338e9af232e5abde8a6bc8ae9f528414]
entity g--><g id="elem_g"><ellipse cx="95.5" cy="64.5" fill="#F1F1F1" rx="8" ry="8" style="stroke:#181818;stroke-width:0.5;"/><path d="M95.5,72.5 L95.5,99.5 M82.5,80.5 L108.5,80.5 M95.5,99.5 L82.5,114.5 M95.5,99.5 L108.5,114.5 " fill="none" style="stroke:#181818;stroke-width:0.5;"/><text fill="#000000" font-family="sans-serif" font-size="14" lengthAdjust="spacing" textLength="36" x="77.5" y="130.5332">Client</text></g><!--MD5=[671315809142cbf8f95afb4988884e94]
link fc to UC4--><g id="link_fc_UC4"><path d="M169.06,314.59 C198.52,305.09 231.97,294.3 259.25,285.5 " fill="none" id="fc-to-UC4" style="stroke:#181818;stroke-width:1.0;"/><polygon fill="#181818" points="264.27,283.88,254.4778,282.825,259.5097,285.4096,256.9251,290.4415,264.27,283.88" style="stroke:#181818;stroke-width:1.0;"/></g><!--MD5=[e6283e10ea57013afd663a209f443892]
link g to UC1--><g id="link_g_UC1"><path d="M113.53,92.25 C141.58,87.73 199,78.47 245.14,71.03 " fill="none" id="g-to-UC1" style="stroke:#181818;stroke-width:1.0;"/><polygon fill="#181818" points="250.14,70.22,240.6225,67.6868,245.2024,71.0072,241.882,75.587,250.14,70.22" style="stroke:#181818;stroke-width:1.0;"/></g><!--MD5=[de7f95d11870be32e701ecd3c2a76950]
link g to UC2--><g id="link_g_UC2"><path d="M113.53,97.75 C142.26,102.38 201.78,111.98 248.45,119.51 " fill="none" id="g-to-UC2" style="stroke:#181818;stroke-width:1.0;"/><polygon fill="#181818" points="253.5,120.32,245.2572,114.9297,248.5646,119.5189,243.9754,122.8263,253.5,120.32" style="stroke:#181818;stroke-width:1.0;"/></g><!--MD5=[ea36581ba262fe67fca98703761d6744]
link g to UC3--><g id="link_g_UC3"><path d="M113.67,108.24 C134.35,123.66 170.63,149.07 205,165 C228.32,175.81 256.07,184.18 277.66,189.78 " fill="none" id="g-to-UC3" style="stroke:#181818;stroke-width:1.0;"/><polygon fill="#181818" points="282.73,191.07,274.9899,184.9797,277.8835,189.8405,273.0227,192.7341,282.73,191.07" style="stroke:#181818;stroke-width:1.0;"/></g><!--MD5=[9e81183a0997782ccb1bb234427be8ae]
@startuml
left to right direction
actor Client as g
package Employé {
  actor Chef as c
  actor "Critique gastronomique" as fc
}
package Restaurant {
  usecase "Manger un repas" as UC1
  usecase "Payer l'addition" as UC2
  usecase "Boire" as UC3
  usecase "Émettre une critique" as UC4
}
fc - -> UC4
g - -> UC1
g - -> UC2
g - -> UC3
@enduml

PlantUML version 1.2022.7(Mon Aug 22 13:01:30 EDT 2022)
(GPL source distribution)
Java Runtime: Java(TM) SE Runtime Environment
JVM: Java HotSpot(TM) 64-Bit Server VM
Default Encoding: Cp1252
Language: en
Country: CA
--></g></svg>