<?xml version="1.0" encoding="UTF-8" standalone="no"?><svg xmlns="http://www.w3.org/2000/svg" xmlns:xlink="http://www.w3.org/1999/xlink" contentStyleType="text/css" height="226px" preserveAspectRatio="none" style="width:195px;height:226px;background:#00000000;" version="1.1" viewBox="0 0 195 226" width="195px" zoomAndPan="magnify"><defs/><g><rect fill="none" height="90.8867" style="stroke:#000000;stroke-width:1.5;" width="178" x="10" y="112.1094"/><line style="stroke:#181818;stroke-width:0.5;stroke-dasharray:5.0,5.0;" x1="37" x2="37" y1="36.4883" y2="219.9961"/><line style="stroke:#181818;stroke-width:0.5;stroke-dasharray:5.0,5.0;" x1="141" x2="141" y1="36.4883" y2="219.9961"/><rect fill="#E2E2F0" height="30.4883" rx="2.5" ry="2.5" style="stroke:#181818;stroke-width:0.5;" width="35" x="20" y="5"/><text fill="#000000" font-family="sans-serif" font-size="14" lengthAdjust="spacing" textLength="21" x="27" y="25.5352">:P1</text><rect fill="#E2E2F0" height="30.4883" rx="2.5" ry="2.5" style="stroke:#181818;stroke-width:0.5;" width="35" x="124" y="5"/><text fill="#000000" font-family="sans-serif" font-size="14" lengthAdjust="spacing" textLength="21" x="131" y="25.5352">:P2</text><polygon fill="#181818" points="129.5,63.7988,139.5,67.7988,129.5,71.7988,133.5,67.7988" style="stroke:#181818;stroke-width:1.0;"/><line style="stroke:#181818;stroke-width:1.0;" x1="37.5" x2="135.5" y1="67.7988" y2="67.7988"/><text fill="#000000" font-family="sans-serif" font-size="13" lengthAdjust="spacing" textLength="71" x="44.5" y="63.0566">message1()</text><polygon fill="#181818" points="48.5,93.1094,38.5,97.1094,48.5,101.1094,44.5,97.1094" style="stroke:#181818;stroke-width:1.0;"/><line style="stroke:#181818;stroke-width:1.0;" x1="42.5" x2="140.5" y1="97.1094" y2="97.1094"/><text fill="#000000" font-family="sans-serif" font-size="13" lengthAdjust="spacing" textLength="71" x="54.5" y="92.3672">message2()</text><path d="M10,112.1094 L72,112.1094 L72,119.4199 L62,129.4199 L10,129.4199 L10,112.1094 " fill="#EEEEEE" style="stroke:#000000;stroke-width:1.5;"/><rect fill="none" height="90.8867" style="stroke:#000000;stroke-width:1.5;" width="178" x="10" y="112.1094"/><text fill="#000000" font-family="sans-serif" font-size="13" font-weight="bold" lengthAdjust="spacing" textLength="17" x="25" y="125.6777">alt</text><text fill="#000000" font-family="sans-serif" font-size="11" font-weight="bold" lengthAdjust="spacing" textLength="96" x="87" y="124.7441">[P1.attr == True]</text><polygon fill="#181818" points="129.5,146.7305,139.5,150.7305,129.5,154.7305,133.5,150.7305" style="stroke:#181818;stroke-width:1.0;"/><line style="stroke:#181818;stroke-width:1.0;" x1="37.5" x2="135.5" y1="150.7305" y2="150.7305"/><text fill="#000000" font-family="sans-serif" font-size="13" lengthAdjust="spacing" textLength="80" x="44.5" y="145.9883">message3A()</text><line style="stroke:#000000;stroke-width:1.0;stroke-dasharray:2.0,2.0;" x1="10" x2="188" y1="159.7305" y2="159.7305"/><text fill="#000000" font-family="sans-serif" font-size="11" font-weight="bold" lengthAdjust="spacing" textLength="30" x="15" y="170.3652">[else]</text><polygon fill="#181818" points="129.5,190.9961,139.5,194.9961,129.5,198.9961,133.5,194.9961" style="stroke:#181818;stroke-width:1.0;"/><line style="stroke:#181818;stroke-width:1.0;" x1="37.5" x2="135.5" y1="194.9961" y2="194.9961"/><text fill="#000000" font-family="sans-serif" font-size="13" lengthAdjust="spacing" textLength="78" x="44.5" y="190.2539">message3B()</text><!--MD5=[7f6f2b1beef51f57f37e9531f8376556]
@startuml
skinparam backgroundcolor transparent
hide footbox

participant ":P1" as P1
participant ":P2" as P2

P1 -> P2 : message1()
P1 <- P2 : message2()


alt P1.attr == True
  P1 -> P2 : message3A()
else else
  P1 -> P2 : message3B()
end alt

@enduml

PlantUML version 1.2022.7(Mon Aug 22 13:01:30 EDT 2022)
(GPL source distribution)
Java Runtime: OpenJDK Runtime Environment
JVM: OpenJDK 64-Bit Server VM
Default Encoding: UTF-8
Language: en
Country: CA
--></g></svg>