<?xml version="1.0" encoding="UTF-8" standalone="no"?><svg xmlns="http://www.w3.org/2000/svg" xmlns:xlink="http://www.w3.org/1999/xlink" contentStyleType="text/css" height="234px" preserveAspectRatio="none" style="width:185px;height:234px;background:#FFFFFF;" version="1.1" viewBox="0 0 185 234" width="185px" zoomAndPan="magnify"><defs/><g><rect fill="none" height="94.8906" style="stroke:#000000;stroke-width:1.5;" width="168" x="10" y="115.3125"/><line style="stroke:#181818;stroke-width:0.5;stroke-dasharray:5.0,5.0;" x1="37" x2="37" y1="37.6094" y2="227.2031"/><line style="stroke:#181818;stroke-width:0.5;stroke-dasharray:5.0,5.0;" x1="138" x2="138" y1="37.6094" y2="227.2031"/><rect fill="#E2E2F0" height="31.6094" rx="2.5" ry="2.5" style="stroke:#181818;stroke-width:0.5;" width="35" x="20" y="5"/><text fill="#000000" font-family="sans-serif" font-size="14" lengthAdjust="spacing" textLength="21" x="27" y="26.5332">:P1</text><rect fill="#E2E2F0" height="31.6094" rx="2.5" ry="2.5" style="stroke:#181818;stroke-width:0.5;" width="35" x="121" y="5"/><text fill="#000000" font-family="sans-serif" font-size="14" lengthAdjust="spacing" textLength="21" x="128" y="26.5332">:P2</text><polygon fill="#181818" points="126.5,65.9609,136.5,69.9609,126.5,73.9609,130.5,69.9609" style="stroke:#181818;stroke-width:1.0;"/><line style="stroke:#181818;stroke-width:1.0;" x1="37.5" x2="132.5" y1="69.9609" y2="69.9609"/><text fill="#000000" font-family="sans-serif" font-size="13" lengthAdjust="spacing" textLength="68" x="44.5" y="65.1045">message1()</text><polygon fill="#181818" points="48.5,96.3125,38.5,100.3125,48.5,104.3125,44.5,100.3125" style="stroke:#181818;stroke-width:1.0;"/><line style="stroke:#181818;stroke-width:1.0;" x1="42.5" x2="137.5" y1="100.3125" y2="100.3125"/><text fill="#000000" font-family="sans-serif" font-size="13" lengthAdjust="spacing" textLength="68" x="54.5" y="95.4561">message2()</text><path d="M10,115.3125 L71,115.3125 L71,123.6641 L61,133.6641 L10,133.6641 L10,115.3125 " fill="#EEEEEE" style="stroke:#000000;stroke-width:1.5;"/><rect fill="none" height="94.8906" style="stroke:#000000;stroke-width:1.5;" width="168" x="10" y="115.3125"/><text fill="#000000" font-family="sans-serif" font-size="13" font-weight="bold" lengthAdjust="spacing" textLength="16" x="25" y="129.8076">alt</text><text fill="#000000" font-family="sans-serif" font-size="11" font-weight="bold" lengthAdjust="spacing" textLength="87" x="86" y="128.7314">[P1.attr == True]</text><polygon fill="#181818" points="126.5,152.0156,136.5,156.0156,126.5,160.0156,130.5,156.0156" style="stroke:#181818;stroke-width:1.0;"/><line style="stroke:#181818;stroke-width:1.0;" x1="37.5" x2="132.5" y1="156.0156" y2="156.0156"/><text fill="#000000" font-family="sans-serif" font-size="13" lengthAdjust="spacing" textLength="77" x="44.5" y="151.1592">message3A()</text><line style="stroke:#000000;stroke-width:1.0;stroke-dasharray:2.0,2.0;" x1="10" x2="178" y1="165.0156" y2="165.0156"/><text fill="#000000" font-family="sans-serif" font-size="11" font-weight="bold" lengthAdjust="spacing" textLength="32" x="15" y="176.4346">[else]</text><polygon fill="#181818" points="126.5,198.2031,136.5,202.2031,126.5,206.2031,130.5,202.2031" style="stroke:#181818;stroke-width:1.0;"/><line style="stroke:#181818;stroke-width:1.0;" x1="37.5" x2="132.5" y1="202.2031" y2="202.2031"/><text fill="#000000" font-family="sans-serif" font-size="13" lengthAdjust="spacing" textLength="77" x="44.5" y="197.3467">message3B()</text><!--MD5=[4b1850f9cc68285ebbd22ec96936305c]
@startuml
hide footbox

participant ":P1" as P1
participant ":P2" as P2

P1 -> P2 : message1()
P1 <- P2 : message2()


alt P1.attr == True
  P1 -> P2 : message3A()
else else
  P1 -> P2 : message3B()
end alt

@enduml

PlantUML version 1.2022.7(Mon Aug 22 13:01:30 EDT 2022)
(GPL source distribution)
Java Runtime: Java(TM) SE Runtime Environment
JVM: Java HotSpot(TM) 64-Bit Server VM
Default Encoding: Cp1252
Language: en
Country: US
--></g></svg>