<?xml version="1.0" encoding="UTF-8" standalone="no"?><svg xmlns="http://www.w3.org/2000/svg" xmlns:xlink="http://www.w3.org/1999/xlink" contentStyleType="text/css" height="124px" preserveAspectRatio="none" style="width:172px;height:124px;background:#00000000;" version="1.1" viewBox="0 0 172 124" width="172px" zoomAndPan="magnify"><defs/><g><rect fill="none" height="46.6211" style="stroke:#000000;stroke-width:1.5;" width="156" x="10" y="53.4883"/><line style="stroke:#181818;stroke-width:0.5;stroke-dasharray:5.0,5.0;" x1="37" x2="37" y1="36.4883" y2="117.1094"/><line style="stroke:#181818;stroke-width:0.5;stroke-dasharray:5.0,5.0;" x1="124" x2="124" y1="36.4883" y2="117.1094"/><rect fill="#E2E2F0" height="30.4883" rx="2.5" ry="2.5" style="stroke:#181818;stroke-width:0.5;" width="35" x="20" y="5"/><text fill="#000000" font-family="sans-serif" font-size="14" lengthAdjust="spacing" textLength="21" x="27" y="25.5352">:P1</text><rect fill="#E2E2F0" height="30.4883" rx="2.5" ry="2.5" style="stroke:#181818;stroke-width:0.5;" width="35" x="107" y="5"/><text fill="#000000" font-family="sans-serif" font-size="14" lengthAdjust="spacing" textLength="21" x="114" y="25.5352">:P2</text><path d="M10,53.4883 L84,53.4883 L84,60.7988 L74,70.7988 L10,70.7988 L10,53.4883 " fill="#EEEEEE" style="stroke:#000000;stroke-width:1.5;"/><rect fill="none" height="46.6211" style="stroke:#000000;stroke-width:1.5;" width="156" x="10" y="53.4883"/><text fill="#000000" font-family="sans-serif" font-size="13" font-weight="bold" lengthAdjust="spacing" textLength="29" x="25" y="67.0566">loop</text><text fill="#000000" font-family="sans-serif" font-size="11" font-weight="bold" lengthAdjust="spacing" textLength="62" x="99" y="66.123">[loop(1, 3)]</text><polygon fill="#181818" points="112.5,88.1094,122.5,92.1094,112.5,96.1094,116.5,92.1094" style="stroke:#181818;stroke-width:1.0;"/><line style="stroke:#181818;stroke-width:1.0;" x1="37.5" x2="118.5" y1="92.1094" y2="92.1094"/><text fill="#000000" font-family="sans-serif" font-size="13" lengthAdjust="spacing" textLength="63" x="44.5" y="87.3672">message()</text><!--MD5=[2158adf9f61fac772afc8f55d9a7897d]
@startuml
hide footbox
skinparam backgroundcolor transparent
participant ":P1" as P1
participant ":P2" as P2

loop loop(1, 3)
  P1 -> P2 : message()
end loop

@enduml

PlantUML version 1.2022.7(Mon Aug 22 13:01:30 EDT 2022)
(GPL source distribution)
Java Runtime: OpenJDK Runtime Environment
JVM: OpenJDK 64-Bit Server VM
Default Encoding: UTF-8
Language: en
Country: CA
--></g></svg>