<?xml version="1.0" encoding="UTF-8" standalone="no"?><svg xmlns="http://www.w3.org/2000/svg" xmlns:xlink="http://www.w3.org/1999/xlink" contentStyleType="text/css" height="127px" preserveAspectRatio="none" style="width:167px;height:127px;background:#FFFFFF;" version="1.1" viewBox="0 0 167 127" width="167px" zoomAndPan="magnify"><defs/><g><rect fill="none" height="48.7031" style="stroke:#000000;stroke-width:1.5;" width="151" x="10" y="54.6094"/><line style="stroke:#181818;stroke-width:0.5;stroke-dasharray:5.0,5.0;" x1="37" x2="37" y1="37.6094" y2="120.3125"/><line style="stroke:#181818;stroke-width:0.5;stroke-dasharray:5.0,5.0;" x1="122" x2="122" y1="37.6094" y2="120.3125"/><rect fill="#E2E2F0" height="31.6094" rx="2.5" ry="2.5" style="stroke:#181818;stroke-width:0.5;" width="35" x="20" y="5"/><text fill="#000000" font-family="sans-serif" font-size="14" lengthAdjust="spacing" textLength="21" x="27" y="26.5332">:P1</text><rect fill="#E2E2F0" height="31.6094" rx="2.5" ry="2.5" style="stroke:#181818;stroke-width:0.5;" width="35" x="105" y="5"/><text fill="#000000" font-family="sans-serif" font-size="14" lengthAdjust="spacing" textLength="21" x="112" y="26.5332">:P2</text><path d="M10,54.6094 L83,54.6094 L83,62.9609 L73,72.9609 L10,72.9609 L10,54.6094 " fill="#EEEEEE" style="stroke:#000000;stroke-width:1.5;"/><rect fill="none" height="48.7031" style="stroke:#000000;stroke-width:1.5;" width="151" x="10" y="54.6094"/><text fill="#000000" font-family="sans-serif" font-size="13" font-weight="bold" lengthAdjust="spacing" textLength="28" x="25" y="69.1045">loop</text><text fill="#000000" font-family="sans-serif" font-size="11" font-weight="bold" lengthAdjust="spacing" textLength="58" x="98" y="68.0283">[loop(1, 3)]</text><polygon fill="#181818" points="110.5,91.3125,120.5,95.3125,110.5,99.3125,114.5,95.3125" style="stroke:#181818;stroke-width:1.0;"/><line style="stroke:#181818;stroke-width:1.0;" x1="37.5" x2="116.5" y1="95.3125" y2="95.3125"/><text fill="#000000" font-family="sans-serif" font-size="13" lengthAdjust="spacing" textLength="61" x="44.5" y="90.4561">message()</text><!--MD5=[979dfb9b87c98d362c08debe0a89bbc5]
@startuml
hide footbox

participant ":P1" as P1
participant ":P2" as P2

loop loop(1, 3)
  P1 -> P2 : message()
end loop

@enduml

PlantUML version 1.2022.7(Mon Aug 22 13:01:30 EDT 2022)
(GPL source distribution)
Java Runtime: Java(TM) SE Runtime Environment
JVM: Java HotSpot(TM) 64-Bit Server VM
Default Encoding: Cp1252
Language: en
Country: US
--></g></svg>