<?xml version="1.0" encoding="UTF-8" standalone="no"?><svg xmlns="http://www.w3.org/2000/svg" xmlns:xlink="http://www.w3.org/1999/xlink" contentStyleType="text/css" height="67px" preserveAspectRatio="none" style="width:245px;height:67px;background:#00000000;" version="1.1" viewBox="0 0 245 67" width="245px" zoomAndPan="magnify"><defs/><g><!--MD5=[770389ab9df153645bc6ef28055eb2b5]
entity A--><g id="elem_A"><path d="M8.5,6 L49.5,6 A3.75,3.75 0 0 1 52,8.5 L59,27 L73.5,27 A2.5,2.5 0 0 1 76,29.5 L76,57.9883 A2.5,2.5 0 0 1 73.5,60.4883 L8.5,60.4883 A2.5,2.5 0 0 1 6,57.9883 L6,8.5 A2.5,2.5 0 0 1 8.5,6 " fill="#F1F1F1" style="stroke:#181818;stroke-width:0.5;"/><line style="stroke:#181818;stroke-width:0.5;" x1="6" x2="59" y1="27" y2="27"/><text fill="#000000" font-family="sans-serif" font-size="14" lengthAdjust="spacing" textLength="10" x="16" y="47.5352">A</text></g><!--MD5=[b2d39259b6aeabc16b394deeb0238426]
entity B--><g id="elem_B"><path d="M170.5,6 L211.5,6 A3.75,3.75 0 0 1 214,8.5 L221,27 L235.5,27 A2.5,2.5 0 0 1 238,29.5 L238,57.9883 A2.5,2.5 0 0 1 235.5,60.4883 L170.5,60.4883 A2.5,2.5 0 0 1 168,57.9883 L168,8.5 A2.5,2.5 0 0 1 170.5,6 " fill="#F1F1F1" style="stroke:#181818;stroke-width:0.5;"/><line style="stroke:#181818;stroke-width:0.5;" x1="168" x2="221" y1="27" y2="27"/><text fill="#000000" font-family="sans-serif" font-size="14" lengthAdjust="spacing" textLength="8" x="178" y="47.5352">B</text></g><!--MD5=[5e2eec62a50b26b6b0db6c12e4ee289c]
link A to B--><g id="link_A_B"><path codeLine="9" d="M76.15,33.25 C101.33,33.25 135.31,33.25 161.77,33.25 " fill="none" id="A-to-B" style="stroke:#181818;stroke-width:1.0;stroke-dasharray:1.0,3.0;"/><polygon fill="#181818" points="166.64,33.25,157.64,29.25,161.64,33.25,157.64,37.25,166.64,33.25" style="stroke:#181818;stroke-width:1.0;"/><text fill="#000000" font-family="sans-serif" font-size="13" lengthAdjust="spacing" textLength="56" x="94" y="26.8184">«access»</text></g><!--MD5=[1fe9f39e58bc55d250d3327279690b01]
@startuml
hide circle
allow_mixing
skinparam classAttributeIconSize 0
skinparam backgroundcolor transparent

folder A
folder B

A -r[dotted]-> B : <<access>>
@enduml

PlantUML version 1.2022.7(Mon Aug 22 13:01:30 EDT 2022)
(GPL source distribution)
Java Runtime: OpenJDK Runtime Environment
JVM: OpenJDK 64-Bit Server VM
Default Encoding: UTF-8
Language: en
Country: CA
--></g></svg>