<?xml version="1.0" encoding="UTF-8" standalone="no"?><svg xmlns="http://www.w3.org/2000/svg" xmlns:xlink="http://www.w3.org/1999/xlink" contentStyleType="text/css" height="286px" preserveAspectRatio="none" style="width:1064px;height:286px;background:#FFFFFF;" version="1.1" viewBox="0 0 1064 286" width="1064px" zoomAndPan="magnify"><defs/><g><!--MD5=[3679be828427bdcfee951650b752ebad]
entity mobileapp--><g id="elem_mobileapp"><polygon fill="#F1F1F1" points="471.5,16,481.5,6,581.5,6,581.5,43.6094,571.5,53.6094,471.5,53.6094,471.5,16" style="stroke:#181818;stroke-width:0.5;"/><line style="stroke:#181818;stroke-width:0.5;" x1="571.5" x2="581.5" y1="16" y2="6"/><line style="stroke:#181818;stroke-width:0.5;" x1="471.5" x2="571.5" y1="16" y2="16"/><line style="stroke:#181818;stroke-width:0.5;" x1="571.5" x2="571.5" y1="16" y2="53.6094"/><text fill="#000000" font-family="sans-serif" font-size="14" lengthAdjust="spacing" textLength="70" x="486.5" y="40.5332">Mobile App</text></g><!--MD5=[4e8ecd94af36cce41665c9f079adf9fd]
entity backend--><g id="elem_backend"><polygon fill="#F1F1F1" points="479,124,489,114,574,114,574,151.6094,564,161.6094,479,161.6094,479,124" style="stroke:#181818;stroke-width:0.5;"/><line style="stroke:#181818;stroke-width:0.5;" x1="564" x2="574" y1="124" y2="114"/><line style="stroke:#181818;stroke-width:0.5;" x1="479" x2="564" y1="124" y2="124"/><line style="stroke:#181818;stroke-width:0.5;" x1="564" x2="564" y1="124" y2="161.6094"/><text fill="#000000" font-family="sans-serif" font-size="14" lengthAdjust="spacing" textLength="55" x="494" y="148.5332">Backend</text></g><!--MD5=[f50ff5e4cd64f259303fc83dba1819fc]
entity database--><g id="elem_database"><polygon fill="#F1F1F1" points="16,232,26,222,167,222,167,259.6094,157,269.6094,16,269.6094,16,232" style="stroke:#181818;stroke-width:0.5;"/><line style="stroke:#181818;stroke-width:0.5;" x1="157" x2="167" y1="232" y2="222"/><line style="stroke:#181818;stroke-width:0.5;" x1="16" x2="157" y1="232" y2="232"/><line style="stroke:#181818;stroke-width:0.5;" x1="157" x2="157" y1="232" y2="269.6094"/><text fill="#000000" font-family="sans-serif" font-size="14" lengthAdjust="spacing" textLength="111" x="31" y="256.5332">Base de données</text></g><!--MD5=[920efe2227d987fbfaea4011b106af41]
entity authservice--><g id="elem_authservice"><polygon fill="#F1F1F1" points="202.5,232,212.5,222,400.5,222,400.5,259.6094,390.5,269.6094,202.5,269.6094,202.5,232" style="stroke:#181818;stroke-width:0.5;"/><line style="stroke:#181818;stroke-width:0.5;" x1="390.5" x2="400.5" y1="232" y2="222"/><line style="stroke:#181818;stroke-width:0.5;" x1="202.5" x2="390.5" y1="232" y2="232"/><line style="stroke:#181818;stroke-width:0.5;" x1="390.5" x2="390.5" y1="232" y2="269.6094"/><text fill="#000000" font-family="sans-serif" font-size="14" lengthAdjust="spacing" textLength="158" x="217.5" y="256.5332">Service d'authentification</text></g><!--MD5=[147acedd1d8f0bdad19c16d0ff8ce320]
entity bookingservice--><g id="elem_bookingservice"><polygon fill="#F1F1F1" points="435.5,232,445.5,222,617.5,222,617.5,259.6094,607.5,269.6094,435.5,269.6094,435.5,232" style="stroke:#181818;stroke-width:0.5;"/><line style="stroke:#181818;stroke-width:0.5;" x1="607.5" x2="617.5" y1="232" y2="222"/><line style="stroke:#181818;stroke-width:0.5;" x1="435.5" x2="607.5" y1="232" y2="232"/><line style="stroke:#181818;stroke-width:0.5;" x1="607.5" x2="607.5" y1="232" y2="269.6094"/><text fill="#000000" font-family="sans-serif" font-size="14" lengthAdjust="spacing" textLength="142" x="450.5" y="256.5332">Service de réservation</text></g><!--MD5=[be70c940d8a182c086553d19f9e5e7c4]
entity locationservice--><g id="elem_locationservice"><polygon fill="#F1F1F1" points="653,232,663,222,834,222,834,259.6094,824,269.6094,653,269.6094,653,232" style="stroke:#181818;stroke-width:0.5;"/><line style="stroke:#181818;stroke-width:0.5;" x1="824" x2="834" y1="232" y2="222"/><line style="stroke:#181818;stroke-width:0.5;" x1="653" x2="824" y1="232" y2="232"/><line style="stroke:#181818;stroke-width:0.5;" x1="824" x2="824" y1="232" y2="269.6094"/><text fill="#000000" font-family="sans-serif" font-size="14" lengthAdjust="spacing" textLength="141" x="668" y="256.5332">Service de localisation</text></g><!--MD5=[ae2cb5fce544dc87e84ffe834316f59f]
entity billingservice--><g id="elem_billingservice"><polygon fill="#F1F1F1" points="869.5,232,879.5,222,1047.5,222,1047.5,259.6094,1037.5,269.6094,869.5,269.6094,869.5,232" style="stroke:#181818;stroke-width:0.5;"/><line style="stroke:#181818;stroke-width:0.5;" x1="1037.5" x2="1047.5" y1="232" y2="222"/><line style="stroke:#181818;stroke-width:0.5;" x1="869.5" x2="1037.5" y1="232" y2="232"/><line style="stroke:#181818;stroke-width:0.5;" x1="1037.5" x2="1037.5" y1="232" y2="269.6094"/><text fill="#000000" font-family="sans-serif" font-size="14" lengthAdjust="spacing" textLength="138" x="884.5" y="256.5332">Service de facturation</text></g><!--MD5=[4f44c2e3bbbbcfeccfc1f686cdba59a3]
link mobileapp to backend--><g id="link_mobileapp_backend"><path d="M526.5,54 C526.5,71.66 526.5,95.94 526.5,113.68 " fill="none" id="mobileapp-backend" style="stroke:#181818;stroke-width:1.0;"/></g><!--MD5=[ae8f8d2604f46f9c0f01e6ef0c8773df]
link backend to database--><g id="link_backend_database"><path d="M478.9,150.48 C412.82,166.44 289.54,196.27 184.5,222 C178.85,223.39 173,224.82 167.12,226.27 " fill="none" id="backend-database" style="stroke:#181818;stroke-width:1.0;"/></g><!--MD5=[1b5611154bbfeafc2521b1f7cd4d10e7]
link backend to authservice--><g id="link_backend_authservice"><path d="M478.78,161.48 C441.12,179.23 388.75,203.9 350.7,221.82 " fill="none" id="backend-authservice" style="stroke:#181818;stroke-width:1.0;"/></g><!--MD5=[c11ac3a357f68ada8f906df1a7953b38]
link backend to bookingservice--><g id="link_backend_bookingservice"><path d="M526.5,162 C526.5,179.66 526.5,203.94 526.5,221.68 " fill="none" id="backend-bookingservice" style="stroke:#181818;stroke-width:1.0;"/></g><!--MD5=[f49518ba46ec8331c3e605c9082afc3d]
link backend to locationservice--><g id="link_backend_locationservice"><path d="M573.59,162 C609.86,179.72 659.79,204.11 696.13,221.86 " fill="none" id="backend-locationservice" style="stroke:#181818;stroke-width:1.0;"/></g><!--MD5=[9775bb1e0b90ee928fbf93beeb9f1034]
link backend to billingservice--><g id="link_backend_billingservice"><path d="M574.38,150.75 C645.34,168.16 779.64,201.11 869.12,223.07 " fill="none" id="backend-billingservice" style="stroke:#181818;stroke-width:1.0;"/></g><!--MD5=[3c267b89d1e0d94808f40b4004d1010a]
@startuml

node "Mobile App" as mobileapp
node "Backend" as backend
node "Base de données" as database
node "Service d'authentification" as authservice
node "Service de réservation" as bookingservice
node "Service de localisation" as locationservice
node "Service de facturation" as billingservice

mobileapp - - backend
backend - - database
backend - - authservice
backend - - bookingservice
backend - - locationservice
backend - - billingservice

@enduml

PlantUML version 1.2022.7(Mon Aug 22 13:01:30 EDT 2022)
(GPL source distribution)
Java Runtime: Java(TM) SE Runtime Environment
JVM: Java HotSpot(TM) 64-Bit Server VM
Default Encoding: Cp1252
Language: en
Country: US
--></g></svg>