<?xml version="1.0" encoding="UTF-8" standalone="no"?><svg xmlns="http://www.w3.org/2000/svg" xmlns:xlink="http://www.w3.org/1999/xlink" contentStyleType="text/css" height="604px" preserveAspectRatio="none" style="width:637px;height:604px;background:#00000000;" version="1.1" viewBox="0 0 637 604" width="637px" zoomAndPan="magnify"><defs/><g><!--MD5=[2fdc213143e93898755b74cb12d798b7]
cluster androidDevice--><g id="cluster_androidDevice"><polygon fill="#F5F5F5" points="111.5,16,121.5,6,413.5,6,413.5,219,403.5,229,111.5,229,111.5,16" style="stroke:#181818;stroke-width:1.0;"/><line style="stroke:#181818;stroke-width:1.0;" x1="403.5" x2="413.5" y1="16" y2="6"/><line style="stroke:#181818;stroke-width:1.0;" x1="111.5" x2="403.5" y1="16" y2="16"/><line style="stroke:#181818;stroke-width:1.0;" x1="403.5" x2="403.5" y1="16" y2="229"/><text fill="#000000" font-family="sans-serif" font-size="14" font-style="italic" lengthAdjust="spacing" textLength="56" x="230.5" y="33.5332">«device»</text><text fill="#000000" font-family="sans-serif" font-size="14" font-weight="bold" lengthAdjust="spacing" textLength="168" x="174.5" y="51.1426">Appareil mobile Android</text></g><!--MD5=[b39935e53b20249adab4bbded42f2462]
cluster Android 14--><g id="cluster_Android 14"><polygon fill="#F5F5F5" points="151.5,91,161.5,81,381.5,81,381.5,187,371.5,197,151.5,197,151.5,91" style="stroke:#181818;stroke-width:1.0;"/><line style="stroke:#181818;stroke-width:1.0;" x1="371.5" x2="381.5" y1="91" y2="81"/><line style="stroke:#181818;stroke-width:1.0;" x1="151.5" x2="371.5" y1="91" y2="91"/><line style="stroke:#181818;stroke-width:1.0;" x1="371.5" x2="371.5" y1="91" y2="197"/><text fill="#000000" font-family="sans-serif" font-size="14" font-style="italic" lengthAdjust="spacing" textLength="154" x="185.5" y="108.5332">«executionEnvironment»</text><text fill="#000000" font-family="sans-serif" font-size="14" font-weight="bold" lengthAdjust="spacing" textLength="75" x="225" y="126.1426">Android 14</text></g><!--MD5=[cdfd548b3455e70392372b1f27091970]
cluster Services--><g id="cluster_Services"><polygon fill="#F5F5F5" points="158.5,352,168.5,342,620.5,342,620.5,577,610.5,587,158.5,587,158.5,352" style="stroke:#181818;stroke-width:1.0;"/><line style="stroke:#181818;stroke-width:1.0;" x1="610.5" x2="620.5" y1="352" y2="342"/><line style="stroke:#181818;stroke-width:1.0;" x1="158.5" x2="610.5" y1="352" y2="352"/><line style="stroke:#181818;stroke-width:1.0;" x1="610.5" x2="610.5" y1="352" y2="587"/><text fill="#000000" font-family="sans-serif" font-size="14" font-style="italic" lengthAdjust="spacing" textLength="75" x="348" y="369.5332">«database»</text><text fill="#000000" font-family="sans-serif" font-size="14" font-weight="bold" lengthAdjust="spacing" textLength="62" x="354.5" y="387.1426">Services</text></g><!--MD5=[f8a89d0daea50831fb891c6af5c67d3a]
entity Application Android--><g id="elem_Application Android"><rect fill="#F1F1F1" height="40.6094" rx="2.5" ry="2.5" style="stroke:#181818;stroke-width:0.5;" width="152" x="190.5" y="140"/><polygon fill="#F1F1F1" points="325.5,145,325.5,159,337.5,159,337.5,151,331.5,145,325.5,145" style="stroke:#181818;stroke-width:0.5;"/><line style="stroke:#181818;stroke-width:0.5;" x1="331.5" x2="331.5" y1="145" y2="151"/><line style="stroke:#181818;stroke-width:0.5;" x1="337.5" x2="331.5" y1="151" y2="151"/><text fill="#000000" font-family="sans-serif" font-size="14" lengthAdjust="spacing" textLength="122" x="200.5" y="167.5332">Application Android</text></g><!--MD5=[920efe2227d987fbfaea4011b106af41]
entity authservice--><g id="elem_authservice"><rect fill="#F1F1F1" height="40.6094" rx="2.5" ry="2.5" style="stroke:#181818;stroke-width:0.5;" width="188" x="201.5" y="409"/><polygon fill="#F1F1F1" points="372.5,414,372.5,428,384.5,428,384.5,420,378.5,414,372.5,414" style="stroke:#181818;stroke-width:0.5;"/><line style="stroke:#181818;stroke-width:0.5;" x1="378.5" x2="378.5" y1="414" y2="420"/><line style="stroke:#181818;stroke-width:0.5;" x1="384.5" x2="378.5" y1="420" y2="420"/><text fill="#000000" font-family="sans-serif" font-size="14" lengthAdjust="spacing" textLength="158" x="211.5" y="436.5332">Service d'authentification</text></g><!--MD5=[147acedd1d8f0bdad19c16d0ff8ce320]
entity bookingservice--><g id="elem_bookingservice"><rect fill="#F1F1F1" height="40.6094" rx="2.5" ry="2.5" style="stroke:#181818;stroke-width:0.5;" width="172" x="424.5" y="409"/><polygon fill="#F1F1F1" points="579.5,414,579.5,428,591.5,428,591.5,420,585.5,414,579.5,414" style="stroke:#181818;stroke-width:0.5;"/><line style="stroke:#181818;stroke-width:0.5;" x1="585.5" x2="585.5" y1="414" y2="420"/><line style="stroke:#181818;stroke-width:0.5;" x1="591.5" x2="585.5" y1="420" y2="420"/><text fill="#000000" font-family="sans-serif" font-size="14" lengthAdjust="spacing" textLength="142" x="434.5" y="436.5332">Service de réservation</text></g><!--MD5=[be70c940d8a182c086553d19f9e5e7c4]
entity locationservice--><g id="elem_locationservice"><rect fill="#F1F1F1" height="40.6094" rx="2.5" ry="2.5" style="stroke:#181818;stroke-width:0.5;" width="171" x="210" y="522"/><polygon fill="#F1F1F1" points="364,527,364,541,376,541,376,533,370,527,364,527" style="stroke:#181818;stroke-width:0.5;"/><line style="stroke:#181818;stroke-width:0.5;" x1="370" x2="370" y1="527" y2="533"/><line style="stroke:#181818;stroke-width:0.5;" x1="376" x2="370" y1="533" y2="533"/><text fill="#000000" font-family="sans-serif" font-size="14" lengthAdjust="spacing" textLength="141" x="220" y="549.5332">Service de localisation</text></g><!--MD5=[ae2cb5fce544dc87e84ffe834316f59f]
entity billingservice--><g id="elem_billingservice"><rect fill="#F1F1F1" height="40.6094" rx="2.5" ry="2.5" style="stroke:#181818;stroke-width:0.5;" width="168" x="416.5" y="522"/><polygon fill="#F1F1F1" points="567.5,527,567.5,541,579.5,541,579.5,533,573.5,527,567.5,527" style="stroke:#181818;stroke-width:0.5;"/><line style="stroke:#181818;stroke-width:0.5;" x1="573.5" x2="573.5" y1="527" y2="533"/><line style="stroke:#181818;stroke-width:0.5;" x1="579.5" x2="573.5" y1="533" y2="533"/><text fill="#000000" font-family="sans-serif" font-size="14" lengthAdjust="spacing" textLength="138" x="426.5" y="549.5332">Service de facturation</text></g><!--MD5=[4e8ecd94af36cce41665c9f079adf9fd]
entity backend--><g id="elem_backend"><polygon fill="#F5F5F5" points="33,263,43,253,206,253,206,308.2188,196,318.2188,33,318.2188,33,263" style="stroke:#181818;stroke-width:0.5;"/><line style="stroke:#181818;stroke-width:0.5;" x1="196" x2="206" y1="263" y2="253"/><line style="stroke:#181818;stroke-width:0.5;" x1="33" x2="196" y1="263" y2="263"/><line style="stroke:#181818;stroke-width:0.5;" x1="196" x2="196" y1="263" y2="318.2188"/><text fill="#000000" font-family="sans-serif" font-size="14" font-style="italic" lengthAdjust="spacing" textLength="56" x="86.5" y="287.5332">«device»</text><text fill="#000000" font-family="sans-serif" font-size="14" lengthAdjust="spacing" textLength="133" x="48" y="305.1426">Serveur d'application</text></g><!--MD5=[926629d3e71d37e6079e5a3915ea85a4]
entity Véhicules--><g id="elem_Véhicules"><polygon fill="#F5F5F5" points="16,407,26,397,131,397,131,452.2188,121,462.2188,16,462.2188,16,407" style="stroke:#181818;stroke-width:0.5;"/><line style="stroke:#181818;stroke-width:0.5;" x1="121" x2="131" y1="407" y2="397"/><line style="stroke:#181818;stroke-width:0.5;" x1="16" x2="121" y1="407" y2="407"/><line style="stroke:#181818;stroke-width:0.5;" x1="121" x2="121" y1="407" y2="462.2188"/><text fill="#000000" font-family="sans-serif" font-size="14" font-style="italic" lengthAdjust="spacing" textLength="75" x="31" y="431.5332">«database»</text><text fill="#000000" font-family="sans-serif" font-size="14" lengthAdjust="spacing" textLength="61" x="38" y="449.1426">Véhicules</text></g><!--MD5=[39f25e0f19c4f0b8de22b9b041a43a7c]
link androidDevice to backend--><g id="link_androidDevice_backend"><path d="M119.5,229.0184 C119.5,229.1686 119.5,229.3188 119.5,229.469 C119.5,229.7693 119.5,230.0695 119.5,230.3694 C119.5,230.9691 119.5,231.568 119.5,232.1657 C119.5,234.5566 119.5,236.9292 119.5,239.2691 C119.5,243.9488 119.5,248.4975 119.5,252.8 " fill="none" id="androidDevice-backend" style="stroke:#181818;stroke-width:1.0;"/></g><!--MD5=[6d7b4f05aec4d4326c77643b899c4db5]
link backend to Véhicules--><g id="link_backend_Véhicules"><path d="M82,318.18 C82,341.74 82,373.42 82,396.95 " fill="none" id="backend-Véhicules" style="stroke:#181818;stroke-width:1.0;"/></g><!--MD5=[df483af274fd5fa12607887b717d69cc]
link backend to Services--><g id="link_backend_Services"><path d="M166.5,318.18 C166.5,323.2413 166.5,328.6766 166.5,334.325 C166.5,335.7371 166.5,337.1625 166.5,338.5987 C166.5,339.3169 166.5,340.0377 166.5,340.7609 C166.5,341.1225 166.5,341.4847 166.5,341.8474 " fill="none" id="backend-Services" style="stroke:#181818;stroke-width:1.0;"/></g><!--MD5=[25276c350c32cadd5f3ab2ff1c0efbcf]
@startuml
skinparam backgroundcolor transparent
skinparam NodeBackgroundColor whitesmoke
skinparam linetype ortho
 
node "Appareil mobile Android" as androidDevice <<device>>{
  node "Android 14" <<executionEnvironment>> {
      artifact "Application Android"
  }
}
node "Serveur d'application" as backend <<device>>
node Véhicules <<database>>
node Services <<database>> {
    artifact "Service d'authentification" as authservice
    artifact "Service de réservation" as bookingservice
    artifact "Service de localisation" as locationservice
    artifact "Service de facturation" as billingservice
}


androidDevice - - backend
backend - - Véhicules
backend - - Services

@enduml

PlantUML version 1.2022.7(Mon Aug 22 13:01:30 EDT 2022)
(GPL source distribution)
Java Runtime: Java(TM) SE Runtime Environment
JVM: Java HotSpot(TM) 64-Bit Server VM
Default Encoding: Cp1252
Language: en
Country: US
--></g></svg>