<?xml version="1.0" encoding="UTF-8" standalone="no"?><svg xmlns="http://www.w3.org/2000/svg" xmlns:xlink="http://www.w3.org/1999/xlink" contentStyleType="text/css" height="282px" preserveAspectRatio="none" style="width:1109px;height:282px;background:#00000000;" version="1.1" viewBox="0 0 1109 282" width="1109px" zoomAndPan="magnify"><defs/><g><!--MD5=[3679be828427bdcfee951650b752ebad]
entity mobileapp--><g id="elem_mobileapp"><polygon fill="#F1F1F1" points="488.5,16,498.5,6,606.5,6,606.5,42.4883,596.5,52.4883,488.5,52.4883,488.5,16" style="stroke:#181818;stroke-width:0.5;"/><line style="stroke:#181818;stroke-width:0.5;" x1="596.5" x2="606.5" y1="16" y2="6"/><line style="stroke:#181818;stroke-width:0.5;" x1="488.5" x2="596.5" y1="16" y2="16"/><line style="stroke:#181818;stroke-width:0.5;" x1="596.5" x2="596.5" y1="16" y2="52.4883"/><text fill="#000000" font-family="sans-serif" font-size="14" lengthAdjust="spacing" textLength="78" x="503.5" y="39.5352">Mobile App</text></g><!--MD5=[4e8ecd94af36cce41665c9f079adf9fd]
entity backend--><g id="elem_backend"><polygon fill="#F1F1F1" points="499,122.48,509,112.48,596,112.48,596,148.9683,586,158.9683,499,158.9683,499,122.48" style="stroke:#181818;stroke-width:0.5;"/><line style="stroke:#181818;stroke-width:0.5;" x1="586" x2="596" y1="122.48" y2="112.48"/><line style="stroke:#181818;stroke-width:0.5;" x1="499" x2="586" y1="122.48" y2="122.48"/><line style="stroke:#181818;stroke-width:0.5;" x1="586" x2="586" y1="122.48" y2="158.9683"/><text fill="#000000" font-family="sans-serif" font-size="14" lengthAdjust="spacing" textLength="57" x="514" y="146.0152">Backend</text></g><!--MD5=[f50ff5e4cd64f259303fc83dba1819fc]
entity database--><g id="elem_database"><polygon fill="#F1F1F1" points="16,228.97,26,218.97,171,218.97,171,255.4583,161,265.4583,16,265.4583,16,228.97" style="stroke:#181818;stroke-width:0.5;"/><line style="stroke:#181818;stroke-width:0.5;" x1="161" x2="171" y1="228.97" y2="218.97"/><line style="stroke:#181818;stroke-width:0.5;" x1="16" x2="161" y1="228.97" y2="228.97"/><line style="stroke:#181818;stroke-width:0.5;" x1="161" x2="161" y1="228.97" y2="265.4583"/><text fill="#000000" font-family="sans-serif" font-size="14" lengthAdjust="spacing" textLength="115" x="31" y="252.5052">Base de données</text></g><!--MD5=[920efe2227d987fbfaea4011b106af41]
entity authservice--><g id="elem_authservice"><polygon fill="#F1F1F1" points="205.5,228.97,215.5,218.97,417.5,218.97,417.5,255.4583,407.5,265.4583,205.5,265.4583,205.5,228.97" style="stroke:#181818;stroke-width:0.5;"/><line style="stroke:#181818;stroke-width:0.5;" x1="407.5" x2="417.5" y1="228.97" y2="218.97"/><line style="stroke:#181818;stroke-width:0.5;" x1="205.5" x2="407.5" y1="228.97" y2="228.97"/><line style="stroke:#181818;stroke-width:0.5;" x1="407.5" x2="407.5" y1="228.97" y2="265.4583"/><text fill="#000000" font-family="sans-serif" font-size="14" lengthAdjust="spacing" textLength="172" x="220.5" y="252.5052">Service d'authentification</text></g><!--MD5=[147acedd1d8f0bdad19c16d0ff8ce320]
entity bookingservice--><g id="elem_bookingservice"><polygon fill="#F1F1F1" points="452.5,228.97,462.5,218.97,642.5,218.97,642.5,255.4583,632.5,265.4583,452.5,265.4583,452.5,228.97" style="stroke:#181818;stroke-width:0.5;"/><line style="stroke:#181818;stroke-width:0.5;" x1="632.5" x2="642.5" y1="228.97" y2="218.97"/><line style="stroke:#181818;stroke-width:0.5;" x1="452.5" x2="632.5" y1="228.97" y2="228.97"/><line style="stroke:#181818;stroke-width:0.5;" x1="632.5" x2="632.5" y1="228.97" y2="265.4583"/><text fill="#000000" font-family="sans-serif" font-size="14" lengthAdjust="spacing" textLength="150" x="467.5" y="252.5052">Service de réservation</text></g><!--MD5=[be70c940d8a182c086553d19f9e5e7c4]
entity locationservice--><g id="elem_locationservice"><polygon fill="#F1F1F1" points="678,228.97,688,218.97,869,218.97,869,255.4583,859,265.4583,678,265.4583,678,228.97" style="stroke:#181818;stroke-width:0.5;"/><line style="stroke:#181818;stroke-width:0.5;" x1="859" x2="869" y1="228.97" y2="218.97"/><line style="stroke:#181818;stroke-width:0.5;" x1="678" x2="859" y1="228.97" y2="228.97"/><line style="stroke:#181818;stroke-width:0.5;" x1="859" x2="859" y1="228.97" y2="265.4583"/><text fill="#000000" font-family="sans-serif" font-size="14" lengthAdjust="spacing" textLength="151" x="693" y="252.5052">Service de localisation</text></g><!--MD5=[ae2cb5fce544dc87e84ffe834316f59f]
entity billingservice--><g id="elem_billingservice"><polygon fill="#F1F1F1" points="904.5,228.97,914.5,218.97,1092.5,218.97,1092.5,255.4583,1082.5,265.4583,904.5,265.4583,904.5,228.97" style="stroke:#181818;stroke-width:0.5;"/><line style="stroke:#181818;stroke-width:0.5;" x1="1082.5" x2="1092.5" y1="228.97" y2="218.97"/><line style="stroke:#181818;stroke-width:0.5;" x1="904.5" x2="1082.5" y1="228.97" y2="228.97"/><line style="stroke:#181818;stroke-width:0.5;" x1="1082.5" x2="1082.5" y1="228.97" y2="265.4583"/><text fill="#000000" font-family="sans-serif" font-size="14" lengthAdjust="spacing" textLength="148" x="919.5" y="252.5052">Service de facturation</text></g><!--MD5=[4f44c2e3bbbbcfeccfc1f686cdba59a3]
link mobileapp to backend--><g id="link_mobileapp_backend"><path d="M547.5,52.91 C547.5,70.44 547.5,94.58 547.5,112.1 " fill="none" id="mobileapp-backend" style="stroke:#181818;stroke-width:1.0;"/></g><!--MD5=[ae8f8d2604f46f9c0f01e6ef0c8773df]
link backend to database--><g id="link_backend_database"><path d="M498.71,147.83 C429.63,163.56 299.38,193.29 188.5,218.97 C182.89,220.27 177.09,221.62 171.26,222.98 " fill="none" id="backend-database" style="stroke:#181818;stroke-width:1.0;"/></g><!--MD5=[1b5611154bbfeafc2521b1f7cd4d10e7]
link backend to authservice--><g id="link_backend_authservice"><path d="M498.6,158.38 C458.91,175.95 403.11,200.66 362.79,218.51 " fill="none" id="backend-authservice" style="stroke:#181818;stroke-width:1.0;"/></g><!--MD5=[c11ac3a357f68ada8f906df1a7953b38]
link backend to bookingservice--><g id="link_backend_bookingservice"><path d="M547.5,159.4 C547.5,176.93 547.5,201.07 547.5,218.59 " fill="none" id="backend-bookingservice" style="stroke:#181818;stroke-width:1.0;"/></g><!--MD5=[f49518ba46ec8331c3e605c9082afc3d]
link backend to locationservice--><g id="link_backend_locationservice"><path d="M596.26,159.27 C634.15,176.79 686.47,200.98 724.44,218.53 " fill="none" id="backend-locationservice" style="stroke:#181818;stroke-width:1.0;"/></g><!--MD5=[9775bb1e0b90ee928fbf93beeb9f1034]
link backend to billingservice--><g id="link_backend_billingservice"><path d="M596.19,148.01 C669.65,165.03 810.18,197.59 904.15,219.36 " fill="none" id="backend-billingservice" style="stroke:#181818;stroke-width:1.0;"/></g><!--MD5=[0fffb841f1a82572dad012410959778a]
@startuml
skinparam backgroundcolor transparent
node "Mobile App" as mobileapp
node "Backend" as backend
node "Base de données" as database
node "Service d'authentification" as authservice
node "Service de réservation" as bookingservice
node "Service de localisation" as locationservice
node "Service de facturation" as billingservice

mobileapp - - backend
backend - - database
backend - - authservice
backend - - bookingservice
backend - - locationservice
backend - - billingservice

@enduml

PlantUML version 1.2022.7(Mon Aug 22 13:01:30 EDT 2022)
(GPL source distribution)
Java Runtime: OpenJDK Runtime Environment
JVM: OpenJDK 64-Bit Server VM
Default Encoding: UTF-8
Language: en
Country: CA
--></g></svg>