<?xml version="1.0" encoding="UTF-8" standalone="no"?><svg xmlns="http://www.w3.org/2000/svg" xmlns:xlink="http://www.w3.org/1999/xlink" contentStyleType="text/css" height="812px" preserveAspectRatio="none" style="width:1079px;height:812px;background:#00000000;" version="1.1" viewBox="0 0 1079 812" width="1079px" zoomAndPan="magnify"><defs/><g><!--MD5=[2fdc213143e93898755b74cb12d798b7]
cluster androidDevice--><g id="cluster_androidDevice"><polygon fill="#F5F5F5" points="65.5,16,75.5,6,367.5,6,367.5,219,357.5,229,65.5,229,65.5,16" style="stroke:#181818;stroke-width:1.0;"/><line style="stroke:#181818;stroke-width:1.0;" x1="357.5" x2="367.5" y1="16" y2="6"/><line style="stroke:#181818;stroke-width:1.0;" x1="65.5" x2="357.5" y1="16" y2="16"/><line style="stroke:#181818;stroke-width:1.0;" x1="357.5" x2="357.5" y1="16" y2="229"/><text fill="#000000" font-family="sans-serif" font-size="14" font-style="italic" lengthAdjust="spacing" textLength="56" x="184.5" y="33.5332">«device»</text><text fill="#000000" font-family="sans-serif" font-size="14" font-weight="bold" lengthAdjust="spacing" textLength="168" x="128.5" y="51.1426">Appareil mobile Android</text></g><!--MD5=[b39935e53b20249adab4bbded42f2462]
cluster Android 14--><g id="cluster_Android 14"><polygon fill="#F5F5F5" points="105.5,91,115.5,81,335.5,81,335.5,187,325.5,197,105.5,197,105.5,91" style="stroke:#181818;stroke-width:1.0;"/><line style="stroke:#181818;stroke-width:1.0;" x1="325.5" x2="335.5" y1="91" y2="81"/><line style="stroke:#181818;stroke-width:1.0;" x1="105.5" x2="325.5" y1="91" y2="91"/><line style="stroke:#181818;stroke-width:1.0;" x1="325.5" x2="325.5" y1="91" y2="197"/><text fill="#000000" font-family="sans-serif" font-size="14" font-style="italic" lengthAdjust="spacing" textLength="154" x="139.5" y="108.5332">«executionEnvironment»</text><text fill="#000000" font-family="sans-serif" font-size="14" font-weight="bold" lengthAdjust="spacing" textLength="75" x="179" y="126.1426">Android 14</text></g><!--MD5=[47c14c564e796a575e671c2b0469a7bb]
cluster backend--><g id="cluster_backend"><polygon fill="#F5F5F5" points="65.5,279,75.5,269,1062.5,269,1062.5,557,1052.5,567,65.5,567,65.5,279" style="stroke:#181818;stroke-width:1.0;"/><line style="stroke:#181818;stroke-width:1.0;" x1="1052.5" x2="1062.5" y1="279" y2="269"/><line style="stroke:#181818;stroke-width:1.0;" x1="65.5" x2="1052.5" y1="279" y2="279"/><line style="stroke:#181818;stroke-width:1.0;" x1="1052.5" x2="1052.5" y1="279" y2="567"/><text fill="#000000" font-family="sans-serif" font-size="14" font-style="italic" lengthAdjust="spacing" textLength="56" x="532" y="296.5332">«device»</text><text fill="#000000" font-family="sans-serif" font-size="14" font-weight="bold" lengthAdjust="spacing" textLength="150" x="485" y="314.1426">Serveur d'application</text></g><!--MD5=[cbc0be2e139dd15b0007deace4fc5f27]
cluster  --><g id="cluster_ "><polygon fill="#F5F5F5" points="105.5,354,115.5,344,1030.5,344,1030.5,525,1020.5,535,105.5,535,105.5,354" style="stroke:#181818;stroke-width:1.0;"/><line style="stroke:#181818;stroke-width:1.0;" x1="1020.5" x2="1030.5" y1="354" y2="344"/><line style="stroke:#181818;stroke-width:1.0;" x1="105.5" x2="1020.5" y1="354" y2="354"/><line style="stroke:#181818;stroke-width:1.0;" x1="1020.5" x2="1020.5" y1="354" y2="535"/><text fill="#000000" font-family="sans-serif" font-size="14" font-style="italic" lengthAdjust="spacing" textLength="154" x="487" y="371.5332">«executionEnvironment»</text><text fill="#000000" font-family="sans-serif" font-size="14" font-weight="bold" lengthAdjust="spacing" textLength="4" x="562" y="389.1426"> </text></g><!--MD5=[f8ccee6366cc30ed3544098575e8db8a]
cluster serveur.ts--><g id="cluster_serveur.ts"><rect fill="none" height="100" rx="2.5" ry="2.5" style="stroke:#181818;stroke-width:1.0;" width="877" x="129.5" y="411"/><polygon fill="none" points="989.5,416,989.5,430,1001.5,430,1001.5,422,995.5,416,989.5,416" style="stroke:#181818;stroke-width:1.0;"/><line style="stroke:#181818;stroke-width:1.0;" x1="995.5" x2="995.5" y1="416" y2="422"/><line style="stroke:#181818;stroke-width:1.0;" x1="1001.5" x2="995.5" y1="422" y2="422"/><text fill="#000000" font-family="sans-serif" font-size="14" font-weight="bold" lengthAdjust="spacing" textLength="73" x="531.5" y="427.5332">serveur.ts</text></g><!--MD5=[ad4c83c7dcc2fc6a16796d32a33b4631]
cluster Google--><g id="cluster_Google"><polygon fill="#F5F5F5" points="158.5,682,168.5,672,314.5,672,314.5,785,304.5,795,158.5,795,158.5,682" style="stroke:#181818;stroke-width:1.0;"/><line style="stroke:#181818;stroke-width:1.0;" x1="304.5" x2="314.5" y1="682" y2="672"/><line style="stroke:#181818;stroke-width:1.0;" x1="158.5" x2="304.5" y1="682" y2="682"/><line style="stroke:#181818;stroke-width:1.0;" x1="304.5" x2="304.5" y1="682" y2="795"/><text fill="#000000" font-family="sans-serif" font-size="14" font-style="italic" lengthAdjust="spacing" textLength="56" x="204.5" y="699.5332">«device»</text><text fill="#000000" font-family="sans-serif" font-size="14" font-weight="bold" lengthAdjust="spacing" textLength="51" x="207" y="717.1426">Google</text></g><!--MD5=[1227421aeba4bbe741b7452f03bd54a3]
cluster Bank--><g id="cluster_Bank"><polygon fill="#F5F5F5" points="379.5,682,389.5,672,523.5,672,523.5,785,513.5,795,379.5,795,379.5,682" style="stroke:#181818;stroke-width:1.0;"/><line style="stroke:#181818;stroke-width:1.0;" x1="513.5" x2="523.5" y1="682" y2="672"/><line style="stroke:#181818;stroke-width:1.0;" x1="379.5" x2="513.5" y1="682" y2="682"/><line style="stroke:#181818;stroke-width:1.0;" x1="513.5" x2="513.5" y1="682" y2="795"/><text fill="#000000" font-family="sans-serif" font-size="14" font-style="italic" lengthAdjust="spacing" textLength="56" x="419.5" y="699.5332">«device»</text><text fill="#000000" font-family="sans-serif" font-size="14" font-weight="bold" lengthAdjust="spacing" textLength="35" x="430" y="717.1426">Bank</text></g><!--MD5=[3d317263eae0863d55a97921243a22c7]
entity applicationAndroid.apk--><g id="elem_applicationAndroid.apk"><rect fill="#F1F1F1" height="40.6094" rx="2.5" ry="2.5" style="stroke:#181818;stroke-width:0.5;" width="174" x="133.5" y="140"/><polygon fill="#F1F1F1" points="290.5,145,290.5,159,302.5,159,302.5,151,296.5,145,290.5,145" style="stroke:#181818;stroke-width:0.5;"/><line style="stroke:#181818;stroke-width:0.5;" x1="296.5" x2="296.5" y1="145" y2="151"/><line style="stroke:#181818;stroke-width:0.5;" x1="302.5" x2="296.5" y1="151" y2="151"/><text fill="#000000" font-family="sans-serif" font-size="14" lengthAdjust="spacing" textLength="144" x="143.5" y="167.5332">applicationAndroid.apk</text></g><!--MD5=[920efe2227d987fbfaea4011b106af41]
entity authservice--><g id="elem_authservice"><rect fill="#F1F1F1" height="47.6094" rx="2.5" ry="2.5" style="stroke:#181818;stroke-width:0.5;" width="198" x="792.5" y="447"/><rect fill="#F1F1F1" height="10" style="stroke:#181818;stroke-width:0.5;" width="15" x="970.5" y="452"/><rect fill="#F1F1F1" height="2" style="stroke:#181818;stroke-width:0.5;" width="4" x="968.5" y="454"/><rect fill="#F1F1F1" height="2" style="stroke:#181818;stroke-width:0.5;" width="4" x="968.5" y="458"/><text fill="#000000" font-family="sans-serif" font-size="14" lengthAdjust="spacing" textLength="158" x="807.5" y="481.5332">Service d'authentification</text></g><!--MD5=[147acedd1d8f0bdad19c16d0ff8ce320]
entity bookingservice--><g id="elem_bookingservice"><rect fill="#F1F1F1" height="47.6094" rx="2.5" ry="2.5" style="stroke:#181818;stroke-width:0.5;" width="182" x="575.5" y="447"/><rect fill="#F1F1F1" height="10" style="stroke:#181818;stroke-width:0.5;" width="15" x="737.5" y="452"/><rect fill="#F1F1F1" height="2" style="stroke:#181818;stroke-width:0.5;" width="4" x="735.5" y="454"/><rect fill="#F1F1F1" height="2" style="stroke:#181818;stroke-width:0.5;" width="4" x="735.5" y="458"/><text fill="#000000" font-family="sans-serif" font-size="14" lengthAdjust="spacing" textLength="142" x="590.5" y="481.5332">Service de réservation</text></g><!--MD5=[be70c940d8a182c086553d19f9e5e7c4]
entity locationservice--><g id="elem_locationservice"><rect fill="#F1F1F1" height="47.6094" rx="2.5" ry="2.5" style="stroke:#181818;stroke-width:0.5;" width="181" x="146" y="447"/><rect fill="#F1F1F1" height="10" style="stroke:#181818;stroke-width:0.5;" width="15" x="307" y="452"/><rect fill="#F1F1F1" height="2" style="stroke:#181818;stroke-width:0.5;" width="4" x="305" y="454"/><rect fill="#F1F1F1" height="2" style="stroke:#181818;stroke-width:0.5;" width="4" x="305" y="458"/><text fill="#000000" font-family="sans-serif" font-size="14" lengthAdjust="spacing" textLength="141" x="161" y="481.5332">Service de localisation</text></g><!--MD5=[ae2cb5fce544dc87e84ffe834316f59f]
entity billingservice--><g id="elem_billingservice"><rect fill="#F1F1F1" height="47.6094" rx="2.5" ry="2.5" style="stroke:#181818;stroke-width:0.5;" width="178" x="362.5" y="447"/><rect fill="#F1F1F1" height="10" style="stroke:#181818;stroke-width:0.5;" width="15" x="520.5" y="452"/><rect fill="#F1F1F1" height="2" style="stroke:#181818;stroke-width:0.5;" width="4" x="518.5" y="454"/><rect fill="#F1F1F1" height="2" style="stroke:#181818;stroke-width:0.5;" width="4" x="518.5" y="458"/><text fill="#000000" font-family="sans-serif" font-size="14" lengthAdjust="spacing" textLength="138" x="377.5" y="481.5332">Service de facturation</text></g><!--MD5=[7252e73a4aed61c2e2524a0979d4e6fb]
entity gmaps--><g id="elem_gmaps"><rect fill="#F1F1F1" height="47.6094" rx="2.5" ry="2.5" style="stroke:#181818;stroke-width:0.5;" width="124" x="174.5" y="731"/><rect fill="#F1F1F1" height="10" style="stroke:#181818;stroke-width:0.5;" width="15" x="278.5" y="736"/><rect fill="#F1F1F1" height="2" style="stroke:#181818;stroke-width:0.5;" width="4" x="276.5" y="738"/><rect fill="#F1F1F1" height="2" style="stroke:#181818;stroke-width:0.5;" width="4" x="276.5" y="742"/><text fill="#000000" font-family="sans-serif" font-size="14" lengthAdjust="spacing" textLength="84" x="189.5" y="765.5332">Google Maps</text></g><!--MD5=[7dc201eb534f8af46bd46fbac071b2ec]
entity facturation--><g id="elem_facturation"><rect fill="#F1F1F1" height="47.6094" rx="2.5" ry="2.5" style="stroke:#181818;stroke-width:0.5;" width="112" x="395.5" y="731"/><rect fill="#F1F1F1" height="10" style="stroke:#181818;stroke-width:0.5;" width="15" x="487.5" y="736"/><rect fill="#F1F1F1" height="2" style="stroke:#181818;stroke-width:0.5;" width="4" x="485.5" y="738"/><rect fill="#F1F1F1" height="2" style="stroke:#181818;stroke-width:0.5;" width="4" x="485.5" y="742"/><text fill="#000000" font-family="sans-serif" font-size="14" lengthAdjust="spacing" textLength="72" x="410.5" y="765.5332">Facturation</text></g><!--MD5=[326698f36fd69f93915e09082ae72d75]
entity vehic--><g id="elem_vehic"><polygon fill="#F5F5F5" points="16,601,26,591,131,591,131,646.2188,121,656.2188,16,656.2188,16,601" style="stroke:#181818;stroke-width:0.5;"/><line style="stroke:#181818;stroke-width:0.5;" x1="121" x2="131" y1="601" y2="591"/><line style="stroke:#181818;stroke-width:0.5;" x1="16" x2="121" y1="601" y2="601"/><line style="stroke:#181818;stroke-width:0.5;" x1="121" x2="121" y1="601" y2="656.2188"/><text fill="#000000" font-family="sans-serif" font-size="14" font-style="italic" lengthAdjust="spacing" textLength="75" x="31" y="625.5332">«database»</text><text fill="#000000" font-family="sans-serif" font-size="14" lengthAdjust="spacing" textLength="61" x="38" y="643.1426">Véhicules</text></g><!--MD5=[7b84e41c36af2659687587e5383441ac]
entity api_1--><g id="elem_api_1"><ellipse cx="236.5" cy="623.5" fill="#F1F1F1" rx="8" ry="8" style="stroke:#181818;stroke-width:0.5;"/><text fill="#000000" font-family="sans-serif" font-size="14" lengthAdjust="spacing" textLength="21" x="226" y="655.0332">API</text></g><!--MD5=[a35cc6648f98a85805d3c9510873be88]
entity api_2--><g id="elem_api_2"><ellipse cx="451.5" cy="623.5" fill="#F1F1F1" rx="8" ry="8" style="stroke:#181818;stroke-width:0.5;"/><text fill="#000000" font-family="sans-serif" font-size="14" lengthAdjust="spacing" textLength="21" x="441" y="655.0332">API</text></g><!--MD5=[39f25e0f19c4f0b8de22b9b041a43a7c]
link androidDevice to backend--><g id="link_androidDevice_backend"><path d="M73.5,230.1486 C73.5,232.1157 73.5,234.1095 73.5,236.128 C73.5,244.2017 73.5,252.6694 73.5,261.3994 C73.5,263.5819 73.5,265.7808 73.5,267.9941 C73.5,268.2707 73.5,268.5476 73.5,268.8247 " fill="none" id="androidDevice-backend" style="stroke:#181818;stroke-width:1.0;"/></g><!--MD5=[5bc3ff56008917c489501eaa6f102e56]
link locationservice to api_1--><g id="link_locationservice_api_1"><path d="M236.5,495.16 C236.5,495.16 236.5,604.35 236.5,604.35 " fill="none" id="locationservice-to-api_1" style="stroke:#181818;stroke-width:1.0;"/><path d="M244.9572,611.2718 A9,9 0 0 0 228.0428 611.2718" fill="none" style="stroke:#181818;stroke-width:1.5;"/></g><!--MD5=[ac18bc4b9b67523085e4f0ced929e3e0]
link api_1 to gmaps--><g id="link_api_1_gmaps"><path d="M236.5,632.54 C236.5,652.56 236.5,701.2 236.5,730.8 " fill="none" id="api_1-gmaps" style="stroke:#181818;stroke-width:1.0;"/></g><!--MD5=[3d443f905d01bc72f6303ff294046b97]
link billingservice to api_2--><g id="link_billingservice_api_2"><path d="M451.5,495.16 C451.5,495.16 451.5,604.35 451.5,604.35 " fill="none" id="billingservice-to-api_2" style="stroke:#181818;stroke-width:1.0;"/><path d="M459.9572,611.2718 A9,9 0 0 0 443.0428 611.2718" fill="none" style="stroke:#181818;stroke-width:1.5;"/></g><!--MD5=[777542e1c090692010a287fde3bcc8d9]
link api_2 to facturation--><g id="link_api_2_facturation"><path d="M451.5,632.54 C451.5,652.56 451.5,701.2 451.5,730.8 " fill="none" id="api_2-facturation" style="stroke:#181818;stroke-width:1.0;"/></g><!--MD5=[a02746361ad60531c300392dfadffa49]
link backend to vehic--><g id="link_backend_vehic"><path d="M73.5,567.2929 C73.5,567.4861 73.5,567.6792 73.5,567.872 C73.5,568.2578 73.5,568.6427 73.5,569.0269 C73.5,570.5635 73.5,572.0872 73.5,573.5953 C73.5,579.6275 73.5,585.4088 73.5,590.76 " fill="none" id="backend-vehic" style="stroke:#181818;stroke-width:1.0;"/></g><!--MD5=[0c6d0d59f818108307e6245e5ae7344d]
@startuml
skinparam backgroundcolor transparent
skinparam NodeBackgroundColor whitesmoke
skinparam linetype ortho
 
node "Appareil mobile Android" as androidDevice <<device>>{
  node "Android 14" <<executionEnvironment>> {
      artifact "applicationAndroid.apk"
  }
}

node "Serveur d'application" as backend <<device>> {
  node " " <<executionEnvironment>> {
    artifact serveur.ts {
      component "Service d'authentification" as authservice
      component "Service de réservation" as bookingservice
      component "Service de localisation" as locationservice
      component "Service de facturation" as billingservice
    }
  }
}

node Google <<device>> {
  component "Google Maps" as gmaps
}

node Bank <<device>> {
  component "Facturation" as facturation
}

node "Véhicules" as vehic <<database>>

interface "API" as api_1
interface "API" as api_2

androidDevice - - backend
locationservice - -( api_1
api_1 - - gmaps
billingservice - -( api_2
api_2 - - facturation
backend - - vehic

@enduml

PlantUML version 1.2022.7(Mon Aug 22 13:01:30 EDT 2022)
(GPL source distribution)
Java Runtime: Java(TM) SE Runtime Environment
JVM: Java HotSpot(TM) 64-Bit Server VM
Default Encoding: Cp1252
Language: en
Country: US
--></g></svg>