<?xml version="1.0" encoding="us-ascii" standalone="no"?><svg xmlns="http://www.w3.org/2000/svg" xmlns:xlink="http://www.w3.org/1999/xlink" contentStyleType="text/css" height="888px" preserveAspectRatio="none" style="width:674px;height:888px;" version="1.1" viewBox="0 0 674 888" width="674px" zoomAndPan="magnify"><defs/><g><!--cluster androidDevice--><g id="cluster_androidDevice"><polygon fill="#F5F5F5" points="105,16,115,6,407,6,407,219,397,229,105,229,105,16" style="stroke:#181818;stroke-width:1.0;"/><line style="stroke:#181818;stroke-width:1.0;" x1="397" x2="407" y1="16" y2="6"/><line style="stroke:#181818;stroke-width:1.0;" x1="105" x2="397" y1="16" y2="16"/><line style="stroke:#181818;stroke-width:1.0;" x1="397" x2="397" y1="16" y2="229"/><text fill="#000000" font-family="sans-serif" font-size="14" font-style="italic" lengthAdjust="spacing" textLength="56" x="224" y="33.5332">&#171;device&#187;</text><text fill="#000000" font-family="sans-serif" font-size="14" font-weight="bold" lengthAdjust="spacing" textLength="109" x="197.5" y="51.1426">Appareil mobile</text></g><!--cluster Android 14--><g id="cluster_Android 14"><polygon fill="#F5F5F5" points="145,91,155,81,375,81,375,187,365,197,145,197,145,91" style="stroke:#181818;stroke-width:1.0;"/><line style="stroke:#181818;stroke-width:1.0;" x1="365" x2="375" y1="91" y2="81"/><line style="stroke:#181818;stroke-width:1.0;" x1="145" x2="365" y1="91" y2="91"/><line style="stroke:#181818;stroke-width:1.0;" x1="365" x2="365" y1="91" y2="197"/><text fill="#000000" font-family="sans-serif" font-size="14" font-style="italic" lengthAdjust="spacing" textLength="154" x="179" y="108.5332">&#171;executionEnvironment&#187;</text><text fill="#000000" font-family="sans-serif" font-size="14" font-weight="bold" lengthAdjust="spacing" textLength="75" x="218.5" y="126.1426">Android 14</text></g><!--cluster backend--><g id="cluster_backend"><polygon fill="#F5F5F5" points="140,288,150,278,490,278,490,582,480,592,140,592,140,288" style="stroke:#181818;stroke-width:1.0;"/><line style="stroke:#181818;stroke-width:1.0;" x1="480" x2="490" y1="288" y2="278"/><line style="stroke:#181818;stroke-width:1.0;" x1="140" x2="480" y1="288" y2="288"/><line style="stroke:#181818;stroke-width:1.0;" x1="480" x2="480" y1="288" y2="592"/><text fill="#000000" font-family="sans-serif" font-size="14" font-style="italic" lengthAdjust="spacing" textLength="56" x="283" y="305.5332">&#171;device&#187;</text><text fill="#000000" font-family="sans-serif" font-size="14" font-weight="bold" lengthAdjust="spacing" textLength="252" x="185" y="323.1426">Serveur d'application (VM AWS EC2)</text></g><!--cluster Debian (Linux)--><g id="cluster_Debian (Linux)"><polygon fill="#F5F5F5" points="180,363,190,353,458,353,458,550,448,560,180,560,180,363" style="stroke:#181818;stroke-width:1.0;"/><line style="stroke:#181818;stroke-width:1.0;" x1="448" x2="458" y1="363" y2="353"/><line style="stroke:#181818;stroke-width:1.0;" x1="180" x2="448" y1="363" y2="363"/><line style="stroke:#181818;stroke-width:1.0;" x1="448" x2="448" y1="363" y2="560"/><text fill="#000000" font-family="sans-serif" font-size="14" font-style="italic" lengthAdjust="spacing" textLength="154" x="238" y="380.5332">&#171;executionEnvironment&#187;</text><text fill="#000000" font-family="sans-serif" font-size="14" font-weight="bold" lengthAdjust="spacing" textLength="101" x="264.5" y="398.1426">Debian (Linux)</text></g><!--cluster NodeJS--><g id="cluster_NodeJS"><polygon fill="#F5F5F5" points="204,430,214,420,434,420,434,526,424,536,204,536,204,430" style="stroke:#181818;stroke-width:1.0;"/><line style="stroke:#181818;stroke-width:1.0;" x1="424" x2="434" y1="430" y2="420"/><line style="stroke:#181818;stroke-width:1.0;" x1="204" x2="424" y1="430" y2="430"/><line style="stroke:#181818;stroke-width:1.0;" x1="424" x2="424" y1="430" y2="536"/><text fill="#000000" font-family="sans-serif" font-size="14" font-style="italic" lengthAdjust="spacing" textLength="154" x="238" y="447.5332">&#171;executionEnvironment&#187;</text><text fill="#000000" font-family="sans-serif" font-size="14" font-weight="bold" lengthAdjust="spacing" textLength="54" x="288" y="465.1426">NodeJS</text></g><!--cluster Serveurs de Google--><g id="cluster_Serveurs de Google"><polygon fill="#F5F5F5" points="439,87.5,449,77.5,657,77.5,657,190.5,647,200.5,439,200.5,439,87.5" style="stroke:#181818;stroke-width:1.0;"/><line style="stroke:#181818;stroke-width:1.0;" x1="647" x2="657" y1="87.5" y2="77.5"/><line style="stroke:#181818;stroke-width:1.0;" x1="439" x2="647" y1="87.5" y2="87.5"/><line style="stroke:#181818;stroke-width:1.0;" x1="647" x2="647" y1="87.5" y2="200.5"/><text fill="#000000" font-family="sans-serif" font-size="14" font-style="italic" lengthAdjust="spacing" textLength="56" x="516" y="105.0332">&#171;device&#187;</text><text fill="#000000" font-family="sans-serif" font-size="14" font-weight="bold" lengthAdjust="spacing" textLength="142" x="473" y="122.6426">Serveurs de Google</text></g><!--cluster vehic--><g id="cluster_vehic"><polygon fill="#F5F5F5" points="140,651,150,641,391,641,391,861,381,871,140,871,140,651" style="stroke:#181818;stroke-width:1.0;"/><line style="stroke:#181818;stroke-width:1.0;" x1="381" x2="391" y1="651" y2="641"/><line style="stroke:#181818;stroke-width:1.0;" x1="140" x2="381" y1="651" y2="651"/><line style="stroke:#181818;stroke-width:1.0;" x1="381" x2="381" y1="651" y2="871"/><text fill="#000000" font-family="sans-serif" font-size="14" font-style="italic" lengthAdjust="spacing" textLength="56" x="233.5" y="668.5332">&#171;device&#187;</text><text fill="#000000" font-family="sans-serif" font-size="14" font-weight="bold" lengthAdjust="spacing" textLength="100" x="211.5" y="686.1426">Serveurs AWS</text></g><!--cluster MongoDB - M0--><g id="cluster_MongoDB - M0"><polygon fill="#F5F5F5" points="180,726,190,716,359,716,359,829,349,839,180,839,180,726" style="stroke:#181818;stroke-width:1.0;"/><line style="stroke:#181818;stroke-width:1.0;" x1="349" x2="359" y1="726" y2="716"/><line style="stroke:#181818;stroke-width:1.0;" x1="180" x2="349" y1="726" y2="726"/><line style="stroke:#181818;stroke-width:1.0;" x1="349" x2="349" y1="726" y2="839"/><text fill="#000000" font-family="sans-serif" font-size="14" font-style="italic" lengthAdjust="spacing" textLength="75" x="228" y="743.5332">&#171;database&#187;</text><text fill="#000000" font-family="sans-serif" font-size="14" font-weight="bold" lengthAdjust="spacing" textLength="103" x="214" y="761.1426">MongoDB - M0</text></g><!--entity polyCal.apk--><g id="elem_polyCal.apk"><rect fill="#F1F1F1" height="40.6094" rx="2.5" ry="2.5" style="stroke:#181818;stroke-width:0.5;" width="104" x="208" y="140"/><polygon fill="#F1F1F1" points="295,145,295,159,307,159,307,151,301,145,295,145" style="stroke:#181818;stroke-width:0.5;"/><line style="stroke:#181818;stroke-width:0.5;" x1="301" x2="301" y1="145" y2="151"/><line style="stroke:#181818;stroke-width:0.5;" x1="307" x2="301" y1="151" y2="151"/><text fill="#000000" font-family="sans-serif" font-size="14" lengthAdjust="spacing" textLength="74" x="218" y="167.5332">polyCal.apk</text></g><!--entity server.JS--><g id="elem_server.JS"><rect fill="#F1F1F1" height="40.6094" rx="2.5" ry="2.5" style="stroke:#181818;stroke-width:0.5;" width="89" x="274.5" y="479"/><polygon fill="#F1F1F1" points="346.5,484,346.5,498,358.5,498,358.5,490,352.5,484,346.5,484" style="stroke:#181818;stroke-width:0.5;"/><line style="stroke:#181818;stroke-width:0.5;" x1="352.5" x2="352.5" y1="484" y2="490"/><line style="stroke:#181818;stroke-width:0.5;" x1="358.5" x2="352.5" y1="490" y2="490"/><text fill="#000000" font-family="sans-serif" font-size="14" lengthAdjust="spacing" textLength="59" x="284.5" y="506.5332">server.JS</text></g><!--entity gcal--><g id="elem_gcal"><rect fill="#F1F1F1" height="47.6094" rx="2.5" ry="2.5" style="stroke:#181818;stroke-width:0.5;" width="165" x="455.5" y="136.5"/><rect fill="#F1F1F1" height="10" style="stroke:#181818;stroke-width:0.5;" width="15" x="600.5" y="141.5"/><rect fill="#F1F1F1" height="2" style="stroke:#181818;stroke-width:0.5;" width="4" x="598.5" y="143.5"/><rect fill="#F1F1F1" height="2" style="stroke:#181818;stroke-width:0.5;" width="4" x="598.5" y="147.5"/><text fill="#000000" font-family="sans-serif" font-size="14" lengthAdjust="spacing" textLength="125" x="470.5" y="171.0332">GoogleCalendarAPI</text></g><!--entity PolyCalCluster--><g id="elem_PolyCalCluster"><rect fill="#F1F1F1" height="47.6094" rx="2.5" ry="2.5" style="stroke:#181818;stroke-width:0.5;" width="133" x="202.5" y="775"/><rect fill="#F1F1F1" height="10" style="stroke:#181818;stroke-width:0.5;" width="15" x="315.5" y="780"/><rect fill="#F1F1F1" height="2" style="stroke:#181818;stroke-width:0.5;" width="4" x="313.5" y="782"/><rect fill="#F1F1F1" height="2" style="stroke:#181818;stroke-width:0.5;" width="4" x="313.5" y="786"/><text fill="#000000" font-family="sans-serif" font-size="14" lengthAdjust="spacing" textLength="93" x="217.5" y="809.5332">PolyCalCluster</text></g><!--link backend to vehic--><g id="link_backend_vehic"><path d="M148,592.1179 C148,592.638 148,593.1592 148,593.6814 C148,594.7258 148,595.7744 148,596.827 C148,605.2477 148,613.9215 148,622.7216 C148,627.1216 148,631.5532 148,636.0005 C148,637.1123 148,638.2252 148,639.3387 C148,639.6171 148,639.8955 148,640.174 C148,640.3132 148,640.4525 148,640.5917 C148,640.6614 148,640.731 148,640.8006 " fill="none" id="backend-vehic" style="stroke:#181818;stroke-width:1.0;"/><text fill="#000000" font-family="sans-serif" font-size="13" lengthAdjust="spacing" textLength="140" x="7" y="645.7551">MongoDB Wire Protocol</text></g><!--link androidDevice to backend--><g id="link_androidDevice_backend"><path d="M148,229.8577 C148,231.9843 148,234.1441 148,236.3345 C148,245.0964 148,254.3495 148,263.9401 C148,266.3378 148,268.7565 148,271.1939 C148,272.4127 148,273.636 148,274.8638 C148,275.4777 148,276.0926 148,276.7087 C148,277.0167 148,277.3249 148,277.6335 C148,277.7106 148,277.7878 148,277.8649 " fill="none" id="androidDevice-backend" style="stroke:#181818;stroke-width:1.0;"/><text fill="#000000" font-family="sans-serif" font-size="13" lengthAdjust="spacing" textLength="32" x="115" y="309.0251">HTTP</text></g><!--link gcal to backend--><g id="link_gcal_backend"><path d="M538,184.71 C538,231.98 538,332 538,332 C538,332 519.4531,332 491.6328,332 C491.1981,332 490.7612,332 490.322,332 " fill="none" id="gcal-backend" style="stroke:#181818;stroke-width:1.0;"/><text fill="#000000" font-family="sans-serif" font-size="13" lengthAdjust="spacing" textLength="32" x="299.68" y="346.4951">HTTP</text></g><!--SRC=[XL9DJm8n4BtlhvZiHJb0r7WYX8Ilg4GC2KREGtTS6hgTJTj5YE6_s-x2kg09FRMTDw_llQdTI9sZmGnMA3QfuK8dWXKRS0QrzINIBh8rweqJ6jR8KOdyMaj7DkCDDO1AQdBxd82DMtC4aVQT40_oG2aLPBoIYc902wWJmp8PqrOAWbulAJVz_dS4SEog473_6FiwxKWKJhAUwAqqh3CliT-700yBZPEVA1p4EQlz25K7yqtiYuVe4FbLKIx8RAamaDnWdYifC132xSSC1ii5J4OFhL9RI8Lqqb05lxB6j9BecrwbBdQjgzAgff3WT74LNBkmGQZfJ1UbWzh5kGqB_l34d8P8BxGApdBMdXlY2k4ZyPRG3EOlfSTKe3gI_g7rOPIOBQsbk6G-MPgnJdayX3RCxihdqU4ABJM6qX0nhwOoKeLrPEh1d99kjzl7rxfm8bvAGp0txDZ_pUZylmJygRSBp-_lyoWO-k_-1m00]--></g></svg>