<?xml version="1.0" encoding="us-ascii" standalone="no"?><svg xmlns="http://www.w3.org/2000/svg" xmlns:xlink="http://www.w3.org/1999/xlink" contentStyleType="text/css" height="1010px" preserveAspectRatio="none" style="width:633px;height:1010px;" version="1.1" viewBox="0 0 633 1010" width="633px" zoomAndPan="magnify"><defs/><g><!--cluster androidDevice--><g id="cluster_androidDevice"><polygon fill="#F5F5F5" points="266,16,276,6,568,6,568,219,558,229,266,229,266,16" style="stroke:#181818;stroke-width:1.0;"/><line style="stroke:#181818;stroke-width:1.0;" x1="558" x2="568" y1="16" y2="6"/><line style="stroke:#181818;stroke-width:1.0;" x1="266" x2="558" y1="16" y2="16"/><line style="stroke:#181818;stroke-width:1.0;" x1="558" x2="558" y1="16" y2="229"/><text fill="#000000" font-family="sans-serif" font-size="14" font-style="italic" lengthAdjust="spacing" textLength="56" x="385" y="33.5332">&#171;device&#187;</text><text fill="#000000" font-family="sans-serif" font-size="14" font-weight="bold" lengthAdjust="spacing" textLength="109" x="358.5" y="51.1426">Appareil mobile</text></g><!--cluster Android 14--><g id="cluster_Android 14"><polygon fill="#F5F5F5" points="306,91,316,81,536,81,536,187,526,197,306,197,306,91" style="stroke:#181818;stroke-width:1.0;"/><line style="stroke:#181818;stroke-width:1.0;" x1="526" x2="536" y1="91" y2="81"/><line style="stroke:#181818;stroke-width:1.0;" x1="306" x2="526" y1="91" y2="91"/><line style="stroke:#181818;stroke-width:1.0;" x1="526" x2="526" y1="91" y2="197"/><text fill="#000000" font-family="sans-serif" font-size="14" font-style="italic" lengthAdjust="spacing" textLength="154" x="340" y="108.5332">&#171;executionEnvironment&#187;</text><text fill="#000000" font-family="sans-serif" font-size="14" font-weight="bold" lengthAdjust="spacing" textLength="75" x="379.5" y="126.1426">Android 14</text></g><!--cluster backend--><g id="cluster_backend"><polygon fill="#F5F5F5" points="266,349,276,339,616,339,616,643,606,653,266,653,266,349" style="stroke:#181818;stroke-width:1.0;"/><line style="stroke:#181818;stroke-width:1.0;" x1="606" x2="616" y1="349" y2="339"/><line style="stroke:#181818;stroke-width:1.0;" x1="266" x2="606" y1="349" y2="349"/><line style="stroke:#181818;stroke-width:1.0;" x1="606" x2="606" y1="349" y2="653"/><text fill="#000000" font-family="sans-serif" font-size="14" font-style="italic" lengthAdjust="spacing" textLength="56" x="409" y="366.5332">&#171;device&#187;</text><text fill="#000000" font-family="sans-serif" font-size="14" font-weight="bold" lengthAdjust="spacing" textLength="252" x="311" y="384.1426">Serveur d'application (VM AWS EC2)</text></g><!--cluster Debian (Linux)--><g id="cluster_Debian (Linux)"><polygon fill="#F5F5F5" points="306,424,316,414,584,414,584,611,574,621,306,621,306,424" style="stroke:#181818;stroke-width:1.0;"/><line style="stroke:#181818;stroke-width:1.0;" x1="574" x2="584" y1="424" y2="414"/><line style="stroke:#181818;stroke-width:1.0;" x1="306" x2="574" y1="424" y2="424"/><line style="stroke:#181818;stroke-width:1.0;" x1="574" x2="574" y1="424" y2="621"/><text fill="#000000" font-family="sans-serif" font-size="14" font-style="italic" lengthAdjust="spacing" textLength="154" x="364" y="441.5332">&#171;executionEnvironment&#187;</text><text fill="#000000" font-family="sans-serif" font-size="14" font-weight="bold" lengthAdjust="spacing" textLength="101" x="390.5" y="459.1426">Debian (Linux)</text></g><!--cluster NodeJS--><g id="cluster_NodeJS"><polygon fill="#F5F5F5" points="330,491,340,481,560,481,560,587,550,597,330,597,330,491" style="stroke:#181818;stroke-width:1.0;"/><line style="stroke:#181818;stroke-width:1.0;" x1="550" x2="560" y1="491" y2="481"/><line style="stroke:#181818;stroke-width:1.0;" x1="330" x2="550" y1="491" y2="491"/><line style="stroke:#181818;stroke-width:1.0;" x1="550" x2="550" y1="491" y2="597"/><text fill="#000000" font-family="sans-serif" font-size="14" font-style="italic" lengthAdjust="spacing" textLength="154" x="364" y="508.5332">&#171;executionEnvironment&#187;</text><text fill="#000000" font-family="sans-serif" font-size="14" font-weight="bold" lengthAdjust="spacing" textLength="54" x="414" y="526.1426">NodeJS</text></g><!--cluster Serveurs de Google--><g id="cluster_Serveurs de Google"><polygon fill="#F5F5F5" points="16,487.5,26,477.5,234,477.5,234,590.5,224,600.5,16,600.5,16,487.5" style="stroke:#181818;stroke-width:1.0;"/><line style="stroke:#181818;stroke-width:1.0;" x1="224" x2="234" y1="487.5" y2="477.5"/><line style="stroke:#181818;stroke-width:1.0;" x1="16" x2="224" y1="487.5" y2="487.5"/><line style="stroke:#181818;stroke-width:1.0;" x1="224" x2="224" y1="487.5" y2="600.5"/><text fill="#000000" font-family="sans-serif" font-size="14" font-style="italic" lengthAdjust="spacing" textLength="56" x="93" y="505.0332">&#171;device&#187;</text><text fill="#000000" font-family="sans-serif" font-size="14" font-weight="bold" lengthAdjust="spacing" textLength="142" x="50" y="522.6426">Serveurs de Google</text></g><!--cluster vehic--><g id="cluster_vehic"><polygon fill="#F5F5F5" points="266,773,276,763,517,763,517,983,507,993,266,993,266,773" style="stroke:#181818;stroke-width:1.0;"/><line style="stroke:#181818;stroke-width:1.0;" x1="507" x2="517" y1="773" y2="763"/><line style="stroke:#181818;stroke-width:1.0;" x1="266" x2="507" y1="773" y2="773"/><line style="stroke:#181818;stroke-width:1.0;" x1="507" x2="507" y1="773" y2="993"/><text fill="#000000" font-family="sans-serif" font-size="14" font-style="italic" lengthAdjust="spacing" textLength="56" x="359.5" y="790.5332">&#171;device&#187;</text><text fill="#000000" font-family="sans-serif" font-size="14" font-weight="bold" lengthAdjust="spacing" textLength="100" x="337.5" y="808.1426">Serveurs AWS</text></g><!--cluster MongoDB - M0--><g id="cluster_MongoDB - M0"><polygon fill="#F5F5F5" points="306,848,316,838,485,838,485,951,475,961,306,961,306,848" style="stroke:#181818;stroke-width:1.0;"/><line style="stroke:#181818;stroke-width:1.0;" x1="475" x2="485" y1="848" y2="838"/><line style="stroke:#181818;stroke-width:1.0;" x1="306" x2="475" y1="848" y2="848"/><line style="stroke:#181818;stroke-width:1.0;" x1="475" x2="475" y1="848" y2="961"/><text fill="#000000" font-family="sans-serif" font-size="14" font-style="italic" lengthAdjust="spacing" textLength="75" x="354" y="865.5332">&#171;database&#187;</text><text fill="#000000" font-family="sans-serif" font-size="14" font-weight="bold" lengthAdjust="spacing" textLength="103" x="340" y="883.1426">MongoDB - M0</text></g><!--entity polyCal.apk--><g id="elem_polyCal.apk"><rect fill="#F1F1F1" height="40.6094" rx="2.5" ry="2.5" style="stroke:#181818;stroke-width:0.5;" width="104" x="369" y="140"/><polygon fill="#F1F1F1" points="456,145,456,159,468,159,468,151,462,145,456,145" style="stroke:#181818;stroke-width:0.5;"/><line style="stroke:#181818;stroke-width:0.5;" x1="462" x2="462" y1="145" y2="151"/><line style="stroke:#181818;stroke-width:0.5;" x1="468" x2="462" y1="151" y2="151"/><text fill="#000000" font-family="sans-serif" font-size="14" lengthAdjust="spacing" textLength="74" x="379" y="167.5332">polyCal.apk</text></g><!--entity server.JS--><g id="elem_server.JS"><rect fill="#F1F1F1" height="40.6094" rx="2.5" ry="2.5" style="stroke:#181818;stroke-width:0.5;" width="89" x="400.5" y="540"/><polygon fill="#F1F1F1" points="472.5,545,472.5,559,484.5,559,484.5,551,478.5,545,472.5,545" style="stroke:#181818;stroke-width:0.5;"/><line style="stroke:#181818;stroke-width:0.5;" x1="478.5" x2="478.5" y1="545" y2="551"/><line style="stroke:#181818;stroke-width:0.5;" x1="484.5" x2="478.5" y1="551" y2="551"/><text fill="#000000" font-family="sans-serif" font-size="14" lengthAdjust="spacing" textLength="59" x="410.5" y="567.5332">server.JS</text></g><!--entity gcal--><g id="elem_gcal"><rect fill="#F1F1F1" height="47.6094" rx="2.5" ry="2.5" style="stroke:#181818;stroke-width:0.5;" width="165" x="52.5" y="536.5"/><rect fill="#F1F1F1" height="10" style="stroke:#181818;stroke-width:0.5;" width="15" x="197.5" y="541.5"/><rect fill="#F1F1F1" height="2" style="stroke:#181818;stroke-width:0.5;" width="4" x="195.5" y="543.5"/><rect fill="#F1F1F1" height="2" style="stroke:#181818;stroke-width:0.5;" width="4" x="195.5" y="547.5"/><text fill="#000000" font-family="sans-serif" font-size="14" lengthAdjust="spacing" textLength="125" x="67.5" y="571.0332">GoogleCalendarAPI</text></g><!--entity PolyCalCluster--><g id="elem_PolyCalCluster"><rect fill="#F1F1F1" height="47.6094" rx="2.5" ry="2.5" style="stroke:#181818;stroke-width:0.5;" width="133" x="328.5" y="897"/><rect fill="#F1F1F1" height="10" style="stroke:#181818;stroke-width:0.5;" width="15" x="441.5" y="902"/><rect fill="#F1F1F1" height="2" style="stroke:#181818;stroke-width:0.5;" width="4" x="439.5" y="904"/><rect fill="#F1F1F1" height="2" style="stroke:#181818;stroke-width:0.5;" width="4" x="439.5" y="908"/><text fill="#000000" font-family="sans-serif" font-size="14" lengthAdjust="spacing" textLength="93" x="343.5" y="931.5332">PolyCalCluster</text></g><!--link androidDevice to backend--><g id="link_androidDevice_backend"><path d="M274,230.1544 C274,230.7357 274,231.3196 274,231.9061 C274,233.079 274,234.2621 274,235.4552 C274,237.8413 274,240.2671 274,242.7299 C274,247.6554 274,252.729 274,257.9295 C274,268.3305 274,279.2388 274,290.4853 C274,301.7317 274,313.3162 274,325.0693 C274,328.0075 274,330.9563 274,333.913 C274,335.3914 274,336.8717 274,338.3537 C274,338.5389 274,338.7242 274,338.9095 " fill="none" id="androidDevice-backend" style="stroke:#181818;stroke-width:1.0;"/><text fill="#000000" font-family="sans-serif" font-size="13" lengthAdjust="spacing" textLength="32" x="241" y="357.0051">HTTP</text></g><!--link gcal to backend--><g id="link_gcal_backend"><path d="M217.86,561 C232.28,561 245.9025,561 256.1163,561 C258.6697,561 261.0101,561 263.0966,561 C263.6183,561 264.124,561 264.6133,561 C264.8579,561 265.0984,561 265.3347,561 C265.4529,561 265.57,561 265.686,561 C265.744,561 265.8018,561 265.8593,561 " fill="none" id="gcal-backend" style="stroke:#181818;stroke-width:1.0;"/><text fill="#000000" font-family="sans-serif" font-size="13" lengthAdjust="spacing" textLength="32" x="246.89" y="557.4951">HTTP</text></g><!--link backend to vehic--><g id="link_backend_vehic"><path d="M274,653.6246 C274,654.2208 274,654.8187 274,655.4183 C274,657.8165 274,660.241 274,662.6893 C274,667.5858 274,672.5775 274,677.6455 C274,697.9172 274,719.4075 274,740.895 C274,746.2669 274,751.6386 274,756.991 C274,758.3291 274,759.666 274,761.0014 C274,761.3353 274,761.669 274,762.0027 " fill="none" id="backend-vehic" style="stroke:#181818;stroke-width:1.0;"/><text fill="#000000" font-family="sans-serif" font-size="13" lengthAdjust="spacing" textLength="140" x="133" y="737.2551">MongoDB Wire Protocol</text></g><!--SRC=[XPBBRi8m44Nt_efHDYsBeBRg2Y4a7bKVAXKILLaFpXGi74zaEpnKyU-r4qWfBF0grjovENV6RgLCWHPpcADSBIoN9fEisOAtQ5meaV72DQeFpcZGA8ULShDKdbpEApeHQcN8xme2jdx90eG9dP3qYsYfDEGyLveIG0TeCiig6z5QIO9kDwi-UhqV0N3egXLm_vY4Ecr9bbwnUJ9hPTda0R7NWoYF1wrNtoWz90NhtH1r6ujL4efxiHVXr9PJicigBMGtM1HQIOo6SFirXlvi2a_3XrR55gT29ZkXWZ-i4SqLXgPtPSfjwofQtHGd-3QzAcvIk0Xgss_JAa6JudyC1-7opBo88prZbPmNR88t9BKYZ2H4GjkVl5OP5nBrmVJ2DWoZqgnfgUIvyp7IcCs2HmD8ONnN_Huzpj7HoL9E82RrLeQwT9viivZ_ho1DCzwOD6qMq86Npy-9E5xJLDEt3_K8VrayDDVK7JW2pfGbc5Zs7Dwu4By0]--></g></svg>