<?xml version="1.0" encoding="UTF-8" standalone="no"?><svg xmlns="http://www.w3.org/2000/svg" xmlns:xlink="http://www.w3.org/1999/xlink" contentStyleType="text/css" height="774px" preserveAspectRatio="none" style="width:611px;height:774px;background:#00000000;" version="1.1" viewBox="0 0 611 774" width="611px" zoomAndPan="magnify"><defs/><g><!--MD5=[2fdc213143e93898755b74cb12d798b7]
cluster androidDevice--><g id="cluster_androidDevice"><polygon fill="#F5F5F5" points="262,16,272,6,579,6,579,211.48,569,221.48,262,221.48,262,16" style="stroke:#181818;stroke-width:1.0;"/><line style="stroke:#181818;stroke-width:1.0;" x1="569" x2="579" y1="16" y2="6"/><line style="stroke:#181818;stroke-width:1.0;" x1="262" x2="569" y1="16" y2="16"/><line style="stroke:#181818;stroke-width:1.0;" x1="569" x2="569" y1="16" y2="221.48"/><text fill="#000000" font-family="sans-serif" font-size="14" font-style="italic" lengthAdjust="spacing" textLength="57" x="388" y="32.5352">«device»</text><text fill="#000000" font-family="sans-serif" font-size="14" font-weight="bold" lengthAdjust="spacing" textLength="177" x="328" y="49.0234">Appareil mobile Android</text></g><!--MD5=[b39935e53b20249adab4bbded42f2462]
cluster Android 14--><g id="cluster_Android 14"><polygon fill="#F5F5F5" points="302,88,312,78,547,78,547,179.48,537,189.48,302,189.48,302,88" style="stroke:#181818;stroke-width:1.0;"/><line style="stroke:#181818;stroke-width:1.0;" x1="537" x2="547" y1="88" y2="78"/><line style="stroke:#181818;stroke-width:1.0;" x1="302" x2="537" y1="88" y2="88"/><line style="stroke:#181818;stroke-width:1.0;" x1="537" x2="537" y1="88" y2="189.48"/><text fill="#000000" font-family="sans-serif" font-size="14" font-style="italic" lengthAdjust="spacing" textLength="169" x="336" y="104.5352">«executionEnvironment»</text><text fill="#000000" font-family="sans-serif" font-size="14" font-weight="bold" lengthAdjust="spacing" textLength="80" x="380.5" y="121.0234">Android 14</text></g><!--MD5=[47c14c564e796a575e671c2b0469a7bb]
cluster backend--><g id="cluster_backend"><polygon fill="#F5F5F5" points="262,280.48,272,270.48,594,270.48,594,475.97,584,485.97,262,485.97,262,280.48" style="stroke:#181818;stroke-width:1.0;"/><line style="stroke:#181818;stroke-width:1.0;" x1="584" x2="594" y1="280.48" y2="270.48"/><line style="stroke:#181818;stroke-width:1.0;" x1="262" x2="584" y1="280.48" y2="280.48"/><line style="stroke:#181818;stroke-width:1.0;" x1="584" x2="584" y1="280.48" y2="485.97"/><text fill="#000000" font-family="sans-serif" font-size="14" font-style="italic" lengthAdjust="spacing" textLength="57" x="395.5" y="297.0152">«device»</text><text fill="#000000" font-family="sans-serif" font-size="14" font-weight="bold" lengthAdjust="spacing" textLength="256" x="296" y="313.5034">Serveur d'application (VM AWS EC2)</text></g><!--MD5=[9907c2a95f56d6a3e514bef4421bb1b9]
cluster Debian (Linux)--><g id="cluster_Debian (Linux)"><polygon fill="#F5F5F5" points="309,352.48,319,342.48,554,342.48,554,443.97,544,453.97,309,453.97,309,352.48" style="stroke:#181818;stroke-width:1.0;"/><line style="stroke:#181818;stroke-width:1.0;" x1="544" x2="554" y1="352.48" y2="342.48"/><line style="stroke:#181818;stroke-width:1.0;" x1="309" x2="544" y1="352.48" y2="352.48"/><line style="stroke:#181818;stroke-width:1.0;" x1="544" x2="544" y1="352.48" y2="453.97"/><text fill="#000000" font-family="sans-serif" font-size="14" font-style="italic" lengthAdjust="spacing" textLength="169" x="343" y="369.0152">«executionEnvironment»</text><text fill="#000000" font-family="sans-serif" font-size="14" font-weight="bold" lengthAdjust="spacing" textLength="104" x="375.5" y="385.5034">Debian (Linux)</text></g><!--MD5=[72addd242d3bee156f11756f1953a8fd]
cluster Serveurs de Google--><g id="cluster_Serveurs de Google"><polygon fill="#F5F5F5" points="16,348.98,26,338.98,230,338.98,230,447.47,220,457.47,16,457.47,16,348.98" style="stroke:#181818;stroke-width:1.0;"/><line style="stroke:#181818;stroke-width:1.0;" x1="220" x2="230" y1="348.98" y2="338.98"/><line style="stroke:#181818;stroke-width:1.0;" x1="16" x2="220" y1="348.98" y2="348.98"/><line style="stroke:#181818;stroke-width:1.0;" x1="220" x2="220" y1="348.98" y2="457.47"/><text fill="#000000" font-family="sans-serif" font-size="14" font-style="italic" lengthAdjust="spacing" textLength="57" x="90.5" y="365.5152">«device»</text><text fill="#000000" font-family="sans-serif" font-size="14" font-weight="bold" lengthAdjust="spacing" textLength="138" x="50" y="382.0034">Serveurs de Google</text></g><!--MD5=[ccf2f5873059e83aa2a067c89123fcfb]
cluster vehic--><g id="cluster_vehic"><polygon fill="#F5F5F5" points="262,544.97,272,534.97,520,534.97,520,747.46,510,757.46,262,757.46,262,544.97" style="stroke:#181818;stroke-width:1.0;"/><line style="stroke:#181818;stroke-width:1.0;" x1="510" x2="520" y1="544.97" y2="534.97"/><line style="stroke:#181818;stroke-width:1.0;" x1="262" x2="510" y1="544.97" y2="544.97"/><line style="stroke:#181818;stroke-width:1.0;" x1="510" x2="510" y1="544.97" y2="757.46"/><text fill="#000000" font-family="sans-serif" font-size="14" font-style="italic" lengthAdjust="spacing" textLength="57" x="358.5" y="561.5052">«device»</text><text fill="#000000" font-family="sans-serif" font-size="14" font-weight="bold" lengthAdjust="spacing" textLength="97" x="338.5" y="577.9934">Serveurs AWS</text></g><!--MD5=[48c900b64f2224b5a4939e81a7d50e07]
cluster MongoDB - M0--><g id="cluster_MongoDB - M0"><polygon fill="#F5F5F5" points="302,616.97,312,606.97,488,606.97,488,715.46,478,725.46,302,725.46,302,616.97" style="stroke:#181818;stroke-width:1.0;"/><line style="stroke:#181818;stroke-width:1.0;" x1="478" x2="488" y1="616.97" y2="606.97"/><line style="stroke:#181818;stroke-width:1.0;" x1="302" x2="478" y1="616.97" y2="616.97"/><line style="stroke:#181818;stroke-width:1.0;" x1="478" x2="478" y1="616.97" y2="725.46"/><text fill="#000000" font-family="sans-serif" font-size="14" font-style="italic" lengthAdjust="spacing" textLength="76" x="353" y="633.5052">«database»</text><text fill="#000000" font-family="sans-serif" font-size="14" font-weight="bold" lengthAdjust="spacing" textLength="110" x="336" y="649.9934">MongoDB - M0</text></g><!--MD5=[7ba96c9c41dc57192af145d8887132ab]
entity polyAuto.apk--><g id="elem_polyAuto.apk"><rect fill="#F1F1F1" height="39.4883" rx="2.5" ry="2.5" style="stroke:#181818;stroke-width:0.5;" width="121" x="363.5" y="134"/><polygon fill="#F1F1F1" points="467.5,139,467.5,153,479.5,153,479.5,145,473.5,139,467.5,139" style="stroke:#181818;stroke-width:0.5;"/><line style="stroke:#181818;stroke-width:0.5;" x1="473.5" x2="473.5" y1="139" y2="145"/><line style="stroke:#181818;stroke-width:0.5;" x1="479.5" x2="473.5" y1="145" y2="145"/><text fill="#000000" font-family="sans-serif" font-size="14" lengthAdjust="spacing" textLength="91" x="373.5" y="160.5352">polyAuto.apk</text></g><!--MD5=[a88e605cd03757093de83c5ebe891935]
entity serveur.ts--><g id="elem_serveur.ts"><rect fill="#F1F1F1" height="39.4883" rx="2.5" ry="2.5" style="stroke:#181818;stroke-width:0.5;" width="97" x="382.5" y="398.48"/><polygon fill="#F1F1F1" points="462.5,403.48,462.5,417.48,474.5,417.48,474.5,409.48,468.5,403.48,462.5,403.48" style="stroke:#181818;stroke-width:0.5;"/><line style="stroke:#181818;stroke-width:0.5;" x1="468.5" x2="468.5" y1="403.48" y2="409.48"/><line style="stroke:#181818;stroke-width:0.5;" x1="474.5" x2="468.5" y1="409.48" y2="409.48"/><text fill="#000000" font-family="sans-serif" font-size="14" lengthAdjust="spacing" textLength="67" x="392.5" y="425.0152">serveur.ts</text></g><!--MD5=[7252e73a4aed61c2e2524a0979d4e6fb]
entity gmaps--><g id="elem_gmaps"><rect fill="#F1F1F1" height="46.4883" rx="2.5" ry="2.5" style="stroke:#181818;stroke-width:0.5;" width="147" x="66.5" y="394.98"/><rect fill="#F1F1F1" height="10" style="stroke:#181818;stroke-width:0.5;" width="15" x="193.5" y="399.98"/><rect fill="#F1F1F1" height="2" style="stroke:#181818;stroke-width:0.5;" width="4" x="191.5" y="401.98"/><rect fill="#F1F1F1" height="2" style="stroke:#181818;stroke-width:0.5;" width="4" x="191.5" y="405.98"/><text fill="#000000" font-family="sans-serif" font-size="14" lengthAdjust="spacing" textLength="107" x="81.5" y="428.5152">GoogleMapsAPI</text></g><!--MD5=[90e81f9c3602879aa7662ed894fc35c2]
entity PolyAutoCluster--><g id="elem_PolyAutoCluster"><rect fill="#F1F1F1" height="46.4883" rx="2.5" ry="2.5" style="stroke:#181818;stroke-width:0.5;" width="150" x="320" y="662.97"/><rect fill="#F1F1F1" height="10" style="stroke:#181818;stroke-width:0.5;" width="15" x="450" y="667.97"/><rect fill="#F1F1F1" height="2" style="stroke:#181818;stroke-width:0.5;" width="4" x="448" y="669.97"/><rect fill="#F1F1F1" height="2" style="stroke:#181818;stroke-width:0.5;" width="4" x="448" y="673.97"/><text fill="#000000" font-family="sans-serif" font-size="14" lengthAdjust="spacing" textLength="110" x="335" y="696.5052">PolyAutoCluster</text></g><!--MD5=[a02746361ad60531c300392dfadffa49]
link backend to vehic--><g id="link_backend_vehic"><path d="M270,487.1785 C270,488.0498 270,488.926 270,489.8067 C270,491.5683 270,493.3484 270,495.1454 C270,498.7393 270,502.4006 270,506.1158 C270,513.5461 270,521.1918 270,528.9448 C270,530.8831 270,532.8281 270,534.778 C270,534.839 270,534.8999 270,534.9608 " fill="none" id="backend-vehic" style="stroke:#181818;stroke-width:1.0;"/></g><!--MD5=[39f25e0f19c4f0b8de22b9b041a43a7c]
link androidDevice to backend--><g id="link_androidDevice_backend"><path d="M270,221.7918 C270,222.6517 270,223.5165 270,224.3858 C270,226.1243 270,227.8812 270,229.6547 C270,233.2017 270,236.8152 270,240.4818 C270,247.8151 270,255.361 270,263.0127 C270,264.9256 270,266.8452 270,268.7697 C270,269.2508 270,269.7322 270,270.214 C270,270.2742 270,270.3344 270,270.3946 " fill="none" id="androidDevice-backend" style="stroke:#181818;stroke-width:1.0;"/></g><!--MD5=[15b036f02d175620cf45214708cc9c63]
link gmaps to backend--><g id="link_gmaps_backend"><path d="M213.74,418.46 C227.035,418.46 239.8325,418.46 249.8538,418.46 C252.3591,418.46 254.6909,418.46 256.8135,418.46 C257.8749,418.46 258.8839,418.46 259.8363,418.46 C260.3124,418.46 260.7744,418.46 261.2216,418.46 C261.4453,418.46 261.6652,418.46 261.8814,418.46 " fill="none" id="gmaps-backend" style="stroke:#181818;stroke-width:1.0;"/></g><!--MD5=[ba552b841824fa5f833a3d5336e16b99]
@startuml
skinparam backgroundcolor transparent
skinparam NodeBackgroundColor whitesmoke
skinparam linetype ortho
 
node "Appareil mobile Android" as androidDevice <<device>>{
  node "Android 14" <<executionEnvironment>> {
      artifact "polyAuto.apk"
  }
}



node "Serveur d'application (VM AWS EC2)" as backend <<device>> {
  node "Debian (Linux)" <<executionEnvironment>> {
    artifact serveur.ts
  }
}




node "Serveurs de Google" <<device>> {
  component "GoogleMapsAPI" as gmaps
}






node "Serveurs AWS" as vehic <<device>> {
    node "MongoDB - M0" <<database>> {
      component "PolyAutoCluster"
  }
}

backend - - - vehic
androidDevice - -d- backend
gmaps - backend

@enduml

PlantUML version 1.2022.7(Mon Aug 22 13:01:30 EDT 2022)
(GPL source distribution)
Java Runtime: OpenJDK Runtime Environment
JVM: OpenJDK 64-Bit Server VM
Default Encoding: UTF-8
Language: en
Country: CA
--></g></svg>