<?xml version="1.0" encoding="UTF-8" standalone="no"?><svg xmlns="http://www.w3.org/2000/svg" xmlns:xlink="http://www.w3.org/1999/xlink" contentStyleType="text/css" height="194px" preserveAspectRatio="none" style="width:343px;height:194px;background:#FFFFFF;" version="1.1" viewBox="0 0 343 194" width="343px" zoomAndPan="magnify"><defs/><g><ellipse cx="69.5" cy="20" fill="#222222" rx="10" ry="10" style="stroke:#222222;stroke-width:1.0;"/><rect fill="#F1F1F1" height="34.1328" rx="12.5" ry="12.5" style="stroke:#181818;stroke-width:0.5;" width="117" x="11" y="50"/><text fill="#000000" font-family="sans-serif" font-size="12" lengthAdjust="spacing" textLength="97" x="21" y="71.6016">Aller à l'aéroport</text><path d="M142.5,100.8887 L142.5,117.1992 L122.5,121.1992 L142.5,125.1992 L142.5,141.5098 A0,0 0 0 0 142.5,141.5098 L331.5,141.5098 A0,0 0 0 0 331.5,141.5098 L331.5,110.8887 L321.5,100.8887 L142.5,100.8887 A0,0 0 0 0 142.5,100.8887 " fill="#FEFFDD" style="stroke:#181818;stroke-width:0.5;"/><path d="M321.5,100.8887 L321.5,110.8887 L331.5,110.8887 L321.5,100.8887 " fill="#FEFFDD" style="stroke:#181818;stroke-width:0.5;"/><text fill="#000000" font-family="sans-serif" font-size="13" font-weight="bold" lengthAdjust="spacing" textLength="156" x="152.5" y="118.457">&lt;&lt;localPrecondition&gt;&gt;</text><text fill="#000000" font-family="sans-serif" font-size="13" lengthAdjust="spacing" textLength="4" x="312.5" y="118.457"> </text><text fill="#000000" font-family="sans-serif" font-size="13" lengthAdjust="spacing" textLength="112" x="148.5" y="133.7676">Posséder un billet</text><rect fill="#F1F1F1" height="34.1328" rx="12.5" ry="12.5" style="stroke:#181818;stroke-width:0.5;" width="106" x="16.5" y="104.1328"/><text fill="#000000" font-family="sans-serif" font-size="12" lengthAdjust="spacing" textLength="86" x="26.5" y="125.7344">Prendre l'avion</text><ellipse cx="69.5" cy="172.5098" fill="none" rx="11" ry="11" style="stroke:#222222;stroke-width:1.0;"/><ellipse cx="69.5" cy="172.5098" fill="#222222" rx="6" ry="6" style="stroke:#111111;stroke-width:1.0;"/><line style="stroke:#181818;stroke-width:1.0;" x1="69.5" x2="69.5" y1="30" y2="50"/><polygon fill="#181818" points="65.5,40,69.5,50,73.5,40,69.5,44" style="stroke:#181818;stroke-width:1.0;"/><line style="stroke:#181818;stroke-width:1.0;" x1="69.5" x2="69.5" y1="84.1328" y2="104.1328"/><polygon fill="#181818" points="65.5,94.1328,69.5,104.1328,73.5,94.1328,69.5,98.1328" style="stroke:#181818;stroke-width:1.0;"/><line style="stroke:#181818;stroke-width:1.0;" x1="69.5" x2="69.5" y1="138.2656" y2="161.5098"/><polygon fill="#181818" points="65.5,151.5098,69.5,161.5098,73.5,151.5098,69.5,155.5098" style="stroke:#181818;stroke-width:1.0;"/><!--MD5=[89af16243dd61920bdd7269be906b318]
@startuml
start
:Aller à l'aéroport;
:Prendre l'avion;
note right
  <b> <<localPrecondition>> </b> 
  Posséder un billet
end note
stop
@enduml

PlantUML version 1.2022.7(Mon Aug 22 13:01:30 EDT 2022)
(GPL source distribution)
Java Runtime: OpenJDK Runtime Environment
JVM: OpenJDK 64-Bit Server VM
Default Encoding: UTF-8
Language: en
Country: CA
--></g></svg>