<?xml version="1.0" encoding="UTF-8" standalone="no"?><svg xmlns="http://www.w3.org/2000/svg" xmlns:xlink="http://www.w3.org/1999/xlink" contentStyleType="text/css" height="69px" preserveAspectRatio="none" style="width:277px;height:69px;background:#00000000;" version="1.1" viewBox="0 0 277 69" width="277px" zoomAndPan="magnify"><defs/><g><!--MD5=[ed3747ad05e6730ca3536a40b62ba942]
entity Node--><g id="elem_Node"><polygon fill="#F1F1F1" points="16,16,26,6,92,6,92,42.4883,82,52.4883,16,52.4883,16,16" style="stroke:#181818;stroke-width:0.5;"/><line style="stroke:#181818;stroke-width:0.5;" x1="82" x2="92" y1="16" y2="6"/><line style="stroke:#181818;stroke-width:0.5;" x1="16" x2="82" y1="16" y2="16"/><line style="stroke:#181818;stroke-width:0.5;" x1="82" x2="82" y1="16" y2="52.4883"/><text fill="#000000" font-family="sans-serif" font-size="14" lengthAdjust="spacing" textLength="36" x="31" y="39.5352">Node</text></g><!--MD5=[49acc3392157f5dfec840a3b63caf388]
entity Artifact--><g id="elem_Artifact"><rect fill="#F1F1F1" height="39.4883" rx="2.5" ry="2.5" style="stroke:#181818;stroke-width:0.5;" width="80" x="185" y="9.5"/><polygon fill="#F1F1F1" points="248,14.5,248,28.5,260,28.5,260,20.5,254,14.5,248,14.5" style="stroke:#181818;stroke-width:0.5;"/><line style="stroke:#181818;stroke-width:0.5;" x1="254" x2="254" y1="14.5" y2="20.5"/><line style="stroke:#181818;stroke-width:0.5;" x1="260" x2="254" y1="20.5" y2="20.5"/><text fill="#000000" font-family="sans-serif" font-size="14" lengthAdjust="spacing" textLength="50" x="195" y="36.0352">Artifact</text></g><!--MD5=[29d6e3392d58f7454d92ea35197c86fd]
reverse link Node to Artifact--><g id="link_Node_Artifact"><path d="M98.3,29.25 C125,29.25 158.72,29.25 184.67,29.25 " fill="none" id="Node-backto-Artifact" style="stroke:#181818;stroke-width:1.0;stroke-dasharray:1.0,3.0;"/><polygon fill="#181818" points="93.38,29.25,102.38,33.25,98.38,29.25,102.38,25.25,93.38,29.25" style="stroke:#181818;stroke-width:1.0;"/><text fill="#000000" font-family="sans-serif" font-size="13" lengthAdjust="spacing" textLength="56" x="110.5" y="22.8184">«deploy»</text></g><!--MD5=[c629da308e807b1bc77face6159acc48]
@startuml
skinparam backgroundcolor transparent
node Node
artifact Artifact

Node <-[dotted]r- Artifact: <<deploy>>

@enduml

PlantUML version 1.2022.7(Mon Aug 22 13:01:30 EDT 2022)
(GPL source distribution)
Java Runtime: OpenJDK Runtime Environment
JVM: OpenJDK 64-Bit Server VM
Default Encoding: UTF-8
Language: en
Country: CA
--></g></svg>