<?xml version="1.0" encoding="UTF-8" standalone="no"?><svg xmlns="http://www.w3.org/2000/svg" xmlns:xlink="http://www.w3.org/1999/xlink" contentStyleType="text/css" height="69px" preserveAspectRatio="none" style="width:285px;height:69px;background:#00000000;" version="1.1" viewBox="0 0 285 69" width="285px" zoomAndPan="magnify"><defs/><g><!--MD5=[2c6774ea643af9af9ff06a8fd0d0a41a]
entity Nœud--><g id="elem_Nœud"><polygon fill="#F1F1F1" points="16,16,26,6,97,6,97,42.4883,87,52.4883,16,52.4883,16,16" style="stroke:#181818;stroke-width:0.5;"/><line style="stroke:#181818;stroke-width:0.5;" x1="87" x2="97" y1="16" y2="6"/><line style="stroke:#181818;stroke-width:0.5;" x1="16" x2="87" y1="16" y2="16"/><line style="stroke:#181818;stroke-width:0.5;" x1="87" x2="87" y1="16" y2="52.4883"/><text fill="#000000" font-family="sans-serif" font-size="14" lengthAdjust="spacing" textLength="41" x="31" y="39.5352">Nœud</text></g><!--MD5=[c9b9aff16590ca2b4118c9ad8e42bc07]
entity Artéfact--><g id="elem_Artéfact"><rect fill="#F1F1F1" height="39.4883" rx="2.5" ry="2.5" style="stroke:#181818;stroke-width:0.5;" width="84" x="189.5" y="9.5"/><polygon fill="#F1F1F1" points="256.5,14.5,256.5,28.5,268.5,28.5,268.5,20.5,262.5,14.5,256.5,14.5" style="stroke:#181818;stroke-width:0.5;"/><line style="stroke:#181818;stroke-width:0.5;" x1="262.5" x2="262.5" y1="14.5" y2="20.5"/><line style="stroke:#181818;stroke-width:0.5;" x1="268.5" x2="262.5" y1="20.5" y2="20.5"/><text fill="#000000" font-family="sans-serif" font-size="14" lengthAdjust="spacing" textLength="54" x="199.5" y="36.0352">Artéfact</text></g><!--MD5=[c330ff9bb9db242a2fa71ff4f018d9a5]
reverse link Nœud to Artéfact--><g id="link_Nœud_Artéfact"><path d="M103.05,29.25 C129.85,29.25 163.27,29.25 189.3,29.25 " fill="none" id="Nœud-backto-Artéfact" style="stroke:#181818;stroke-width:1.0;stroke-dasharray:1.0,3.0;"/><polygon fill="#181818" points="98.09,29.25,107.09,33.25,103.09,29.25,107.09,25.25,98.09,29.25" style="stroke:#181818;stroke-width:1.0;"/><text fill="#000000" font-family="sans-serif" font-size="13" lengthAdjust="spacing" textLength="56" x="115.25" y="22.8184">«deploy»</text></g><!--MD5=[92e30c963581e2e7a37472bba3025bb3]
@startuml
skinparam backgroundcolor transparent
node Nœud
artifact Artéfact

Nœud <-[dotted]r- Artéfact: <<deploy>>

@enduml

PlantUML version 1.2022.7(Mon Aug 22 13:01:30 EDT 2022)
(GPL source distribution)
Java Runtime: OpenJDK Runtime Environment
JVM: OpenJDK 64-Bit Server VM
Default Encoding: UTF-8
Language: en
Country: CA
--></g></svg>