<?xml version="1.0" encoding="UTF-8" standalone="no"?><svg xmlns="http://www.w3.org/2000/svg" xmlns:xlink="http://www.w3.org/1999/xlink" contentStyleType="text/css" height="70px" preserveAspectRatio="none" style="width:277px;height:70px;background:#FFFFFF;" version="1.1" viewBox="0 0 277 70" width="277px" zoomAndPan="magnify"><defs/><g><!--MD5=[a438cbafde35ce5a869ced27065200b4]
entity Noeud--><g id="elem_Noeud"><polygon fill="#F1F1F1" points="16,16,26,6,97,6,97,43.6094,87,53.6094,16,53.6094,16,16" style="stroke:#181818;stroke-width:0.5;"/><line style="stroke:#181818;stroke-width:0.5;" x1="87" x2="97" y1="16" y2="6"/><line style="stroke:#181818;stroke-width:0.5;" x1="16" x2="87" y1="16" y2="16"/><line style="stroke:#181818;stroke-width:0.5;" x1="87" x2="87" y1="16" y2="53.6094"/><text fill="#000000" font-family="sans-serif" font-size="14" lengthAdjust="spacing" textLength="41" x="31" y="40.5332">Noeud</text></g><!--MD5=[c9b9aff16590ca2b4118c9ad8e42bc07]
entity Artéfact--><g id="elem_Artéfact"><rect fill="#F1F1F1" height="40.6094" rx="2.5" ry="2.5" style="stroke:#181818;stroke-width:0.5;" width="79" x="186" y="9.5"/><polygon fill="#F1F1F1" points="248,14.5,248,28.5,260,28.5,260,20.5,254,14.5,248,14.5" style="stroke:#181818;stroke-width:0.5;"/><line style="stroke:#181818;stroke-width:0.5;" x1="254" x2="254" y1="14.5" y2="20.5"/><line style="stroke:#181818;stroke-width:0.5;" x1="260" x2="254" y1="20.5" y2="20.5"/><text fill="#000000" font-family="sans-serif" font-size="14" lengthAdjust="spacing" textLength="49" x="196" y="37.0332">Artéfact</text></g><!--MD5=[73ed3a79d743eb4c3659891e82f066a4]
reverse link Noeud to Artéfact--><g id="link_Noeud_Artéfact"><path d="M102.54,30 C128.61,30 160.9,30 185.84,30 " fill="none" id="Noeud-backto-Artéfact" style="stroke:#181818;stroke-width:1.0;stroke-dasharray:1.0,3.0;"/><polygon fill="#181818" points="97.41,30,106.41,34,102.41,30,106.41,26,97.41,30" style="stroke:#181818;stroke-width:1.0;"/><text fill="#000000" font-family="sans-serif" font-size="13" lengthAdjust="spacing" textLength="52" x="115.5" y="23.4951">«deploy»</text></g><!--MD5=[fa60627b9b4a4f338dda540400caea88]
@startuml

node Noeud 
artifact Artéfact

Noeud <-[dotted]r- Artéfact: <<deploy>>

@enduml

PlantUML version 1.2022.7(Mon Aug 22 13:01:30 EDT 2022)
(GPL source distribution)
Java Runtime: Java(TM) SE Runtime Environment
JVM: Java HotSpot(TM) 64-Bit Server VM
Default Encoding: Cp1252
Language: en
Country: US
--></g></svg>