<?xml version="1.0" encoding="UTF-8" standalone="no"?><svg xmlns="http://www.w3.org/2000/svg" xmlns:xlink="http://www.w3.org/1999/xlink" contentStyleType="text/css" height="70px" preserveAspectRatio="none" style="width:263px;height:70px;background:#FFFFFF;" version="1.1" viewBox="0 0 263 70" width="263px" zoomAndPan="magnify"><defs/><g><!--MD5=[ed3747ad05e6730ca3536a40b62ba942]
entity Node--><g id="elem_Node"><polygon fill="#F1F1F1" points="16,16,26,6,89,6,89,43.6094,79,53.6094,16,53.6094,16,16" style="stroke:#181818;stroke-width:0.5;"/><line style="stroke:#181818;stroke-width:0.5;" x1="79" x2="89" y1="16" y2="6"/><line style="stroke:#181818;stroke-width:0.5;" x1="16" x2="79" y1="16" y2="16"/><line style="stroke:#181818;stroke-width:0.5;" x1="79" x2="79" y1="16" y2="53.6094"/><text fill="#000000" font-family="sans-serif" font-size="14" lengthAdjust="spacing" textLength="33" x="31" y="40.5332">Node</text></g><!--MD5=[49acc3392157f5dfec840a3b63caf388]
entity Artifact--><g id="elem_Artifact"><rect fill="#F1F1F1" height="40.6094" rx="2.5" ry="2.5" style="stroke:#181818;stroke-width:0.5;" width="74" x="177.5" y="9.5"/><polygon fill="#F1F1F1" points="234.5,14.5,234.5,28.5,246.5,28.5,246.5,20.5,240.5,14.5,234.5,14.5" style="stroke:#181818;stroke-width:0.5;"/><line style="stroke:#181818;stroke-width:0.5;" x1="240.5" x2="240.5" y1="14.5" y2="20.5"/><line style="stroke:#181818;stroke-width:0.5;" x1="246.5" x2="240.5" y1="20.5" y2="20.5"/><text fill="#000000" font-family="sans-serif" font-size="14" lengthAdjust="spacing" textLength="44" x="187.5" y="37.0332">Artifact</text></g><!--MD5=[29d6e3392d58f7454d92ea35197c86fd]
reverse link Node to Artifact--><g id="link_Node_Artifact"><path d="M94.3,30 C119.97,30 152.56,30 177.32,30 " fill="none" id="Node-backto-Artifact" style="stroke:#181818;stroke-width:1.0;stroke-dasharray:1.0,3.0;"/><polygon fill="#181818" points="89.26,30,98.26,34,94.26,30,98.26,26,89.26,30" style="stroke:#181818;stroke-width:1.0;"/><text fill="#000000" font-family="sans-serif" font-size="13" lengthAdjust="spacing" textLength="52" x="107.25" y="23.4951">«deploy»</text></g><!--MD5=[e8bf47c4a1ab5a015b69a8f2e76b1408]
@startuml

node Node
artifact Artifact

Node <-[dotted]r- Artifact: <<deploy>>

@enduml

PlantUML version 1.2022.7(Mon Aug 22 13:01:30 EDT 2022)
(GPL source distribution)
Java Runtime: Java(TM) SE Runtime Environment
JVM: Java HotSpot(TM) 64-Bit Server VM
Default Encoding: Cp1252
Language: en
Country: US
--></g></svg>