<?xml version="1.0" encoding="UTF-8" standalone="no"?><svg xmlns="http://www.w3.org/2000/svg" xmlns:xlink="http://www.w3.org/1999/xlink" contentStyleType="text/css" height="176px" preserveAspectRatio="none" style="width:430px;height:176px;background:#FFFFFF;" version="1.1" viewBox="0 0 430 176" width="430px" zoomAndPan="magnify"><defs/><g><!--MD5=[6d16c7213d1660779827d29f34a11482]
class Véhicule--><g id="elem_Véhicule"><rect codeLine="3" fill="#F1F1F1" height="58.7031" id="Véhicule" rx="2.5" ry="2.5" style="stroke:#181818;stroke-width:0.5;" width="60" x="170.5" y="7"/><text fill="#000000" font-family="sans-serif" font-size="12" font-style="italic" lengthAdjust="spacing" textLength="58" x="171.5" y="24.457">«abstract»</text><text fill="#000000" font-family="sans-serif" font-size="14" font-style="italic" lengthAdjust="spacing" textLength="54" x="173.5" y="41.627">Véhicule</text><line style="stroke:#181818;stroke-width:0.5;" x1="171.5" x2="229.5" y1="49.7031" y2="49.7031"/><line style="stroke:#181818;stroke-width:0.5;" x1="171.5" x2="229.5" y1="57.7031" y2="57.7031"/></g><!--MD5=[1d3308a050e4b472ad871965582028ae]
class Voiture--><g id="elem_Voiture"><rect codeLine="6" fill="#F1F1F1" height="43.6094" id="Voiture" rx="2.5" ry="2.5" style="stroke:#181818;stroke-width:0.5;" width="51" x="7" y="126"/><text fill="#000000" font-family="sans-serif" font-size="14" lengthAdjust="spacing" textLength="45" x="10" y="145.5332">Voiture</text><line style="stroke:#181818;stroke-width:0.5;" x1="8" x2="57" y1="153.6094" y2="153.6094"/><line style="stroke:#181818;stroke-width:0.5;" x1="8" x2="57" y1="161.6094" y2="161.6094"/></g><!--MD5=[f4402668d5d5bb8485350c0fdb60ac8e]
class Scooter--><g id="elem_Scooter"><rect codeLine="9" fill="#F1F1F1" height="43.6094" id="Scooter" rx="2.5" ry="2.5" style="stroke:#181818;stroke-width:0.5;" width="55" x="93" y="126"/><text fill="#000000" font-family="sans-serif" font-size="14" lengthAdjust="spacing" textLength="49" x="96" y="145.5332">Scooter</text><line style="stroke:#181818;stroke-width:0.5;" x1="94" x2="147" y1="153.6094" y2="153.6094"/><line style="stroke:#181818;stroke-width:0.5;" x1="94" x2="147" y1="161.6094" y2="161.6094"/></g><!--MD5=[4c21d3e7a49cddee53640303865d1189]
class Vélo--><g id="elem_Vélo"><rect codeLine="12" fill="#F1F1F1" height="43.6094" id="Vélo" rx="2.5" ry="2.5" style="stroke:#181818;stroke-width:0.5;" width="34" x="183.5" y="126"/><text fill="#000000" font-family="sans-serif" font-size="14" lengthAdjust="spacing" textLength="28" x="186.5" y="145.5332">Vélo</text><line style="stroke:#181818;stroke-width:0.5;" x1="184.5" x2="216.5" y1="153.6094" y2="153.6094"/><line style="stroke:#181818;stroke-width:0.5;" x1="184.5" x2="216.5" y1="161.6094" y2="161.6094"/></g><!--MD5=[7726155e634e7133b6721e735a08bdea]
class Trottinette--><g id="elem_Trottinette"><rect codeLine="15" fill="#F1F1F1" height="43.6094" id="Trottinette" rx="2.5" ry="2.5" style="stroke:#181818;stroke-width:0.5;" width="71" x="253" y="126"/><text fill="#000000" font-family="sans-serif" font-size="14" lengthAdjust="spacing" textLength="65" x="256" y="145.5332">Trottinette</text><line style="stroke:#181818;stroke-width:0.5;" x1="254" x2="323" y1="153.6094" y2="153.6094"/><line style="stroke:#181818;stroke-width:0.5;" x1="254" x2="323" y1="161.6094" y2="161.6094"/></g><!--MD5=[ffe49301365913940c985a645681e007]
class Usager--><g id="elem_Usager"><rect codeLine="18" fill="#F1F1F1" height="43.6094" id="Usager" rx="2.5" ry="2.5" style="stroke:#181818;stroke-width:0.5;" width="51" x="367" y="14.5"/><text fill="#000000" font-family="sans-serif" font-size="14" lengthAdjust="spacing" textLength="45" x="370" y="34.0332">Usager</text><line style="stroke:#181818;stroke-width:0.5;" x1="368" x2="417" y1="42.1094" y2="42.1094"/><line style="stroke:#181818;stroke-width:0.5;" x1="368" x2="417" y1="50.1094" y2="50.1094"/></g><!--MD5=[65495260c482efb70f1cc6f8ffa1725e]
class Réserver--><g id="elem_Réserver"><rect codeLine="22" fill="#F1F1F1" height="43.6094" id="Réserver" rx="2.5" ry="2.5" style="stroke:#181818;stroke-width:0.5;" width="64" x="359.5" y="126"/><text fill="#000000" font-family="sans-serif" font-size="14" lengthAdjust="spacing" textLength="58" x="362.5" y="145.5332">Réserver</text><line style="stroke:#181818;stroke-width:0.5;" x1="360.5" x2="422.5" y1="153.6094" y2="153.6094"/><line style="stroke:#181818;stroke-width:0.5;" x1="360.5" x2="422.5" y1="161.6094" y2="161.6094"/></g><ellipse cx="329.5" cy="36.5" fill="#000000" rx="2" ry="2" style="stroke:none;stroke-width:1.0;"/><!--MD5=[e5773cfca3f1b754b63df7b759034b60]
reverse link Véhicule to Voiture--><g id="link_Véhicule_Voiture"><path codeLine="24" d="M153.42,68.18 C122.56,88.3 83.4,113.82 58.15,130.28 " fill="none" id="Véhicule-backto-Voiture" style="stroke:#181818;stroke-width:1.0;"/><polygon fill="none" points="149.89,62.13,170.46,57.08,157.53,73.86,149.89,62.13" style="stroke:#181818;stroke-width:1.0;"/></g><!--MD5=[81c2eaa5806c445fd88c53894b8e5957]
reverse link Véhicule to Scooter--><g id="link_Véhicule_Scooter"><path codeLine="25" d="M167.64,82.48 C156.72,97.43 145.06,113.38 136.07,125.69 " fill="none" id="Véhicule-backto-Scooter" style="stroke:#181818;stroke-width:1.0;"/><polygon fill="none" points="162.03,78.29,179.48,66.27,173.33,86.55,162.03,78.29" style="stroke:#181818;stroke-width:1.0;"/></g><!--MD5=[79d1ab60f22ba47b21f3bfa0e7f2c676]
reverse link Véhicule to Vélo--><g id="link_Véhicule_Vélo"><path codeLine="26" d="M200.5,86.35 C200.5,100.15 200.5,114.44 200.5,125.69 " fill="none" id="Véhicule-backto-Vélo" style="stroke:#181818;stroke-width:1.0;"/><polygon fill="none" points="193.5,86.27,200.5,66.27,207.5,86.27,193.5,86.27" style="stroke:#181818;stroke-width:1.0;"/></g><!--MD5=[78a0eda6203e008cab3bfc103ad26992]
reverse link Véhicule to Trottinette--><g id="link_Véhicule_Trottinette"><path codeLine="27" d="M236.26,81.99 C248.38,97.08 261.38,113.25 271.37,125.69 " fill="none" id="Véhicule-backto-Trottinette" style="stroke:#181818;stroke-width:1.0;"/><polygon fill="none" points="230.69,86.24,223.62,66.27,241.61,77.47,230.69,86.24" style="stroke:#181818;stroke-width:1.0;"/></g><!--MD5=[cd7233172b13799d41b06e515a72512c]
link Véhicule to apoint14--><g id="link_Véhicule_apoint14"><path d="M230.73,36.5 C262.88,36.5 295.03,36.5 327.19,36.5 " fill="none" id="Véhicule-apoint14" style="stroke:#181818;stroke-width:1.0;"/><text fill="#000000" font-family="sans-serif" font-size="13" lengthAdjust="spacing" textLength="20" x="238.3988" y="32.5319">0..*</text></g><!--MD5=[70323014e6041d225212bfe3bc4c3c17]
link apoint14 to Usager--><g id="link_apoint14_Usager"><path d="M331.96,36.5 C343.63,36.5 355.29,36.5 366.96,36.5 " fill="none" id="apoint14-Usager" style="stroke:#181818;stroke-width:1.0;"/><text fill="#000000" font-family="sans-serif" font-size="13" lengthAdjust="spacing" textLength="20" x="339.524" y="32.1631">1..*</text></g><!--MD5=[d8f21360f9751ea98af55c2f2498fb79]
link apoint14 to Réserver--><g id="link_apoint14_Réserver"><path d="M330.2,38.73 C334.96,47.14 363.03,96.72 379.49,125.79 " fill="none" id="apoint14-Réserver" style="stroke:#181818;stroke-width:1.0;stroke-dasharray:7.0,7.0;"/></g><!--MD5=[93bb74825cf7eea4d229b8ceb74b76f3]
@startuml
hide circle
skinparam classAttributeIconSize 0
abstract class Véhicule <<abstract>> {
    
}
class Voiture {
    
}
class Scooter {
    
}
class Vélo {
    
}
class Trottinette {
    
}
class Usager {
    
}

class Réserver{}

Véhicule <|- - Voiture
Véhicule <|- - Scooter
Véhicule <|- - Vélo
Véhicule <|- - Trottinette
Véhicule "0..*" - "1..*" Usager 
(Véhicule, Usager) .. Réserver
@enduml

PlantUML version 1.2022.7(Mon Aug 22 13:01:30 EDT 2022)
(GPL source distribution)
Java Runtime: Java(TM) SE Runtime Environment
JVM: Java HotSpot(TM) 64-Bit Server VM
Default Encoding: Cp1252
Language: en
Country: CA
--></g></svg>