<?xml version="1.0" encoding="UTF-8" standalone="no"?><svg xmlns="http://www.w3.org/2000/svg" xmlns:xlink="http://www.w3.org/1999/xlink" contentStyleType="text/css" height="320px" preserveAspectRatio="none" style="width:905px;height:320px;background:#FFFFFF;" version="1.1" viewBox="0 0 905 320" width="905px" zoomAndPan="magnify"><defs/><g><!--MD5=[6d16c7213d1660779827d29f34a11482]
class Véhicule--><g id="elem_Véhicule"><rect codeLine="3" fill="#F1F1F1" height="58.7031" id="Véhicule" rx="2.5" ry="2.5" style="stroke:#181818;stroke-width:0.5;" width="60" x="170.5" y="43.5"/><text fill="#000000" font-family="sans-serif" font-size="12" font-style="italic" lengthAdjust="spacing" textLength="58" x="171.5" y="60.957">«abstract»</text><text fill="#000000" font-family="sans-serif" font-size="14" font-style="italic" lengthAdjust="spacing" textLength="54" x="173.5" y="78.127">Véhicule</text><line style="stroke:#181818;stroke-width:0.5;" x1="171.5" x2="229.5" y1="86.2031" y2="86.2031"/><line style="stroke:#181818;stroke-width:0.5;" x1="171.5" x2="229.5" y1="94.2031" y2="94.2031"/></g><!--MD5=[1d3308a050e4b472ad871965582028ae]
class Voiture--><g id="elem_Voiture"><rect codeLine="6" fill="#F1F1F1" height="43.6094" id="Voiture" rx="2.5" ry="2.5" style="stroke:#181818;stroke-width:0.5;" width="51" x="7" y="234"/><text fill="#000000" font-family="sans-serif" font-size="14" lengthAdjust="spacing" textLength="45" x="10" y="253.5332">Voiture</text><line style="stroke:#181818;stroke-width:0.5;" x1="8" x2="57" y1="261.6094" y2="261.6094"/><line style="stroke:#181818;stroke-width:0.5;" x1="8" x2="57" y1="269.6094" y2="269.6094"/></g><!--MD5=[f4402668d5d5bb8485350c0fdb60ac8e]
class Scooter--><g id="elem_Scooter"><rect codeLine="9" fill="#F1F1F1" height="43.6094" id="Scooter" rx="2.5" ry="2.5" style="stroke:#181818;stroke-width:0.5;" width="55" x="93" y="234"/><text fill="#000000" font-family="sans-serif" font-size="14" lengthAdjust="spacing" textLength="49" x="96" y="253.5332">Scooter</text><line style="stroke:#181818;stroke-width:0.5;" x1="94" x2="147" y1="261.6094" y2="261.6094"/><line style="stroke:#181818;stroke-width:0.5;" x1="94" x2="147" y1="269.6094" y2="269.6094"/></g><!--MD5=[4c21d3e7a49cddee53640303865d1189]
class Vélo--><g id="elem_Vélo"><rect codeLine="12" fill="#F1F1F1" height="43.6094" id="Vélo" rx="2.5" ry="2.5" style="stroke:#181818;stroke-width:0.5;" width="34" x="183.5" y="234"/><text fill="#000000" font-family="sans-serif" font-size="14" lengthAdjust="spacing" textLength="28" x="186.5" y="253.5332">Vélo</text><line style="stroke:#181818;stroke-width:0.5;" x1="184.5" x2="216.5" y1="261.6094" y2="261.6094"/><line style="stroke:#181818;stroke-width:0.5;" x1="184.5" x2="216.5" y1="269.6094" y2="269.6094"/></g><!--MD5=[7726155e634e7133b6721e735a08bdea]
class Trottinette--><g id="elem_Trottinette"><rect codeLine="15" fill="#F1F1F1" height="43.6094" id="Trottinette" rx="2.5" ry="2.5" style="stroke:#181818;stroke-width:0.5;" width="71" x="253" y="234"/><text fill="#000000" font-family="sans-serif" font-size="14" lengthAdjust="spacing" textLength="65" x="256" y="253.5332">Trottinette</text><line style="stroke:#181818;stroke-width:0.5;" x1="254" x2="323" y1="261.6094" y2="261.6094"/><line style="stroke:#181818;stroke-width:0.5;" x1="254" x2="323" y1="269.6094" y2="269.6094"/></g><!--MD5=[ffe49301365913940c985a645681e007]
class Usager--><g id="elem_Usager"><rect codeLine="18" fill="#F1F1F1" height="131.6563" id="Usager" rx="2.5" ry="2.5" style="stroke:#181818;stroke-width:0.5;" width="230" x="491.5" y="7"/><text fill="#000000" font-family="sans-serif" font-size="14" lengthAdjust="spacing" textLength="45" x="584" y="26.5332">Usager</text><line style="stroke:#181818;stroke-width:0.5;" x1="492.5" x2="720.5" y1="34.6094" y2="34.6094"/><text fill="#000000" font-family="sans-serif" font-size="14" lengthAdjust="spacing" textLength="109" x="497.5" y="53.1426">-matricule : string</text><text fill="#000000" font-family="sans-serif" font-size="14" lengthAdjust="spacing" textLength="218" x="497.5" y="70.752">-permisConduire : PermisConduire</text><text fill="#000000" font-family="sans-serif" font-size="14" lengthAdjust="spacing" textLength="150" x="497.5" y="88.3613">-assurance : Assurance</text><line style="stroke:#181818;stroke-width:0.5;" x1="492.5" x2="720.5" y1="95.4375" y2="95.4375"/><text fill="#000000" font-family="sans-serif" font-size="14" lengthAdjust="spacing" textLength="185" x="497.5" y="113.9707">+fournirPreuvePermis() : void</text><text fill="#000000" font-family="sans-serif" font-size="14" lengthAdjust="spacing" textLength="209" x="497.5" y="131.5801">+fournirPreuveAssurance() : void</text></g><!--MD5=[3276cadaa5c32708ad70c43dbdbfc453]
class PermisConduire--><g id="elem_PermisConduire"><rect codeLine="25" fill="#F1F1F1" height="78.8281" id="PermisConduire" rx="2.5" ry="2.5" style="stroke:#181818;stroke-width:0.5;" width="155" x="529" y="216.5"/><text fill="#000000" font-family="sans-serif" font-size="14" lengthAdjust="spacing" textLength="101" x="556" y="236.0332">PermisConduire</text><line style="stroke:#181818;stroke-width:0.5;" x1="530" x2="683" y1="244.1094" y2="244.1094"/><text fill="#000000" font-family="sans-serif" font-size="14" lengthAdjust="spacing" textLength="143" x="535" y="262.6426">-numeroPermis : string</text><text fill="#000000" font-family="sans-serif" font-size="14" lengthAdjust="spacing" textLength="139" x="535" y="280.252">-paysEmetteur : string</text><line style="stroke:#181818;stroke-width:0.5;" x1="530" x2="683" y1="287.3281" y2="287.3281"/></g><!--MD5=[3bf5152cd14a8d215aa23592cb6df4fc]
class Assurance--><g id="elem_Assurance"><rect codeLine="29" fill="#F1F1F1" height="61.2188" id="Assurance" rx="2.5" ry="2.5" style="stroke:#181818;stroke-width:0.5;" width="179" x="719" y="225.5"/><text fill="#000000" font-family="sans-serif" font-size="14" lengthAdjust="spacing" textLength="67" x="775" y="245.0332">Assurance</text><line style="stroke:#181818;stroke-width:0.5;" x1="720" x2="897" y1="253.1094" y2="253.1094"/><text fill="#000000" font-family="sans-serif" font-size="14" lengthAdjust="spacing" textLength="167" x="725" y="271.6426">-numeroAssurance : string</text><line style="stroke:#181818;stroke-width:0.5;" x1="720" x2="897" y1="278.7188" y2="278.7188"/></g><!--MD5=[65495260c482efb70f1cc6f8ffa1725e]
class Réserver--><g id="elem_Réserver"><rect codeLine="33" fill="#F1F1F1" height="114.0469" id="Réserver" rx="2.5" ry="2.5" style="stroke:#181818;stroke-width:0.5;" width="135" x="359" y="199"/><text fill="#000000" font-family="sans-serif" font-size="14" lengthAdjust="spacing" textLength="58" x="397.5" y="218.5332">Réserver</text><line style="stroke:#181818;stroke-width:0.5;" x1="360" x2="493" y1="226.6094" y2="226.6094"/><text fill="#000000" font-family="sans-serif" font-size="14" lengthAdjust="spacing" textLength="123" x="365" y="245.1426">-véhicule : Véhicule</text><text fill="#000000" font-family="sans-serif" font-size="14" lengthAdjust="spacing" textLength="106" x="365" y="262.752">-usager : Usager</text><text fill="#000000" font-family="sans-serif" font-size="14" lengthAdjust="spacing" textLength="113" x="365" y="280.3613">-dateDebut : Date</text><text fill="#000000" font-family="sans-serif" font-size="14" lengthAdjust="spacing" textLength="95" x="365" y="297.9707">-dateFin : Date</text><line style="stroke:#181818;stroke-width:0.5;" x1="360" x2="493" y1="305.0469" y2="305.0469"/></g><ellipse cx="426.5" cy="73" fill="#000000" rx="2" ry="2" style="stroke:none;stroke-width:1.0;"/><!--MD5=[e5773cfca3f1b754b63df7b759034b60]
reverse link Véhicule to Voiture--><g id="link_Véhicule_Voiture"><path codeLine="40" d="M155.6,116.12 C131.13,139.75 100.77,170.19 75.5,199 C65.8,210.06 55.75,223.05 47.8,233.74 " fill="none" id="Véhicule-backto-Voiture" style="stroke:#181818;stroke-width:1.0;"/><polygon fill="none" points="151.06,110.78,170.35,102.01,160.73,120.89,151.06,110.78" style="stroke:#181818;stroke-width:1.0;"/></g><!--MD5=[81c2eaa5806c445fd88c53894b8e5957]
reverse link Véhicule to Scooter--><g id="link_Véhicule_Scooter"><path codeLine="41" d="M179.64,121.2 C163.53,157.64 142.01,206.33 129.87,233.81 " fill="none" id="Véhicule-backto-Scooter" style="stroke:#181818;stroke-width:1.0;"/><polygon fill="none" points="173.34,118.14,187.82,102.68,186.14,123.8,173.34,118.14" style="stroke:#181818;stroke-width:1.0;"/></g><!--MD5=[79d1ab60f22ba47b21f3bfa0e7f2c676]
reverse link Véhicule to Vélo--><g id="link_Véhicule_Vélo"><path codeLine="42" d="M200.5,122.72 C200.5,158.98 200.5,206.72 200.5,233.81 " fill="none" id="Véhicule-backto-Vélo" style="stroke:#181818;stroke-width:1.0;"/><polygon fill="none" points="193.5,122.68,200.5,102.68,207.5,122.68,193.5,122.68" style="stroke:#181818;stroke-width:1.0;"/></g><!--MD5=[78a0eda6203e008cab3bfc103ad26992]
reverse link Véhicule to Trottinette--><g id="link_Véhicule_Trottinette"><path codeLine="43" d="M223.2,120.69 C240.95,157.19 264.78,206.21 278.2,233.81 " fill="none" id="Véhicule-backto-Trottinette" style="stroke:#181818;stroke-width:1.0;"/><polygon fill="none" points="216.89,123.73,214.44,102.68,229.48,117.61,216.89,123.73" style="stroke:#181818;stroke-width:1.0;"/></g><!--MD5=[599ea0ca45fc6f85631704af8d51220e]
link Véhicule to apoint16--><g id="link_Véhicule_apoint16"><path d="M230.52,73 C295.08,73 359.64,73 424.2,73 " fill="none" id="Véhicule-apoint16" style="stroke:#181818;stroke-width:1.0;"/><text fill="#000000" font-family="sans-serif" font-size="13" lengthAdjust="spacing" textLength="20" x="238.3989" y="68.9839">0..*</text></g><!--MD5=[ef1cd24964d6da04da41740318f667e8]
link apoint16 to Usager--><g id="link_apoint16_Usager"><path d="M428.61,73 C449.57,73 470.53,73 491.5,73 " fill="none" id="apoint16-Usager" style="stroke:#181818;stroke-width:1.0;"/><text fill="#000000" font-family="sans-serif" font-size="13" lengthAdjust="spacing" textLength="20" x="463.4922" y="70.0049">1..*</text></g><!--MD5=[3122bc39c1805a394fea5b869d6912bc]
link apoint16 to Réserver--><g id="link_apoint16_Réserver"><path d="M426.5,75.16 C426.5,84.58 426.5,149.69 426.5,198.89 " fill="none" id="apoint16-Réserver" style="stroke:#181818;stroke-width:1.0;stroke-dasharray:7.0,7.0;"/></g><!--MD5=[9df8296432007a05bbc7b055a09e6cd3]
link Usager to PermisConduire--><g id="link_Usager_PermisConduire"><path codeLine="46" d="M606.5,139.09 C606.5,163.02 606.5,189.52 606.5,211.14 " fill="none" id="Usager-to-PermisConduire" style="stroke:#181818;stroke-width:1.0;"/><polygon fill="#181818" points="606.5,216.24,610.5,207.24,606.5,211.24,602.5,207.24,606.5,216.24" style="stroke:#181818;stroke-width:1.0;"/></g><!--MD5=[aaa9a577fcb647de8b932a5168c822be]
link Usager to Assurance--><g id="link_Usager_Assurance"><path codeLine="47" d="M679.14,139.09 C710.51,167.2 745.86,198.87 771.66,221.99 " fill="none" id="Usager-to-Assurance" style="stroke:#181818;stroke-width:1.0;"/><polygon fill="#181818" points="775.4,225.34,771.3499,216.3624,771.6701,222.0102,766.0223,222.3303,775.4,225.34" style="stroke:#181818;stroke-width:1.0;"/></g><!--MD5=[90cc6b3d0c901047383964b1a2839d3f]
@startuml
hide circle
skinparam classAttributeIconSize 0
abstract class Véhicule <<abstract>> {
    
}
class Voiture {
    
}
class Scooter {
    
}
class Vélo {
    
}
class Trottinette {
    
}
class Usager {
    - matricule : string
    - permisConduire : PermisConduire
    - assurance : Assurance
    + fournirPreuvePermis() : void
    + fournirPreuveAssurance() : void
}
class PermisConduire {
    - numeroPermis : string
    - paysEmetteur : string
}
class Assurance {
    - numeroAssurance : string
}

class Réserver {
    - véhicule : Véhicule
    - usager : Usager
    - dateDebut : Date
    - dateFin : Date
}

Véhicule <|- - Voiture
Véhicule <|- - Scooter
Véhicule <|- - Vélo
Véhicule <|- - Trottinette
Véhicule "0..*" - "1..*" Usager 
(Véhicule, Usager) .. Réserver
Usager - -> PermisConduire
Usager - -> Assurance

@enduml

PlantUML version 1.2022.7(Mon Aug 22 13:01:30 EDT 2022)
(GPL source distribution)
Java Runtime: Java(TM) SE Runtime Environment
JVM: Java HotSpot(TM) 64-Bit Server VM
Default Encoding: Cp1252
Language: en
Country: CA
--></g></svg>