<?xml version="1.0" encoding="UTF-8" standalone="no"?><svg xmlns="http://www.w3.org/2000/svg" xmlns:xlink="http://www.w3.org/1999/xlink" contentStyleType="text/css" height="326px" preserveAspectRatio="none" style="width:968px;height:326px;background:#00000000;" version="1.1" viewBox="0 0 968 326" width="968px" zoomAndPan="magnify"><defs/><g><!--MD5=[6d16c7213d1660779827d29f34a11482]
class Véhicule--><g id="elem_Véhicule"><rect codeLine="4" fill="#F1F1F1" height="56.6211" id="Véhicule" rx="2.5" ry="2.5" style="stroke:#181818;stroke-width:0.5;" width="64" x="177" y="41"/><text fill="#000000" font-family="sans-serif" font-size="12" font-style="italic" lengthAdjust="spacing" textLength="59" x="179.5" y="57.6016">«abstract»</text><text fill="#000000" font-family="sans-serif" font-size="14" font-style="italic" lengthAdjust="spacing" textLength="58" x="180" y="73.668">Véhicule</text><line style="stroke:#181818;stroke-width:0.5;" x1="178" x2="240" y1="81.6211" y2="81.6211"/><line style="stroke:#181818;stroke-width:0.5;" x1="178" x2="240" y1="89.6211" y2="89.6211"/></g><!--MD5=[1d3308a050e4b472ad871965582028ae]
class Voiture--><g id="elem_Voiture"><rect codeLine="7" fill="#F1F1F1" height="42.4883" id="Voiture" rx="2.5" ry="2.5" style="stroke:#181818;stroke-width:0.5;" width="56" x="7" y="243.98"/><text fill="#000000" font-family="sans-serif" font-size="14" lengthAdjust="spacing" textLength="50" x="10" y="262.5152">Voiture</text><line style="stroke:#181818;stroke-width:0.5;" x1="8" x2="62" y1="270.4683" y2="270.4683"/><line style="stroke:#181818;stroke-width:0.5;" x1="8" x2="62" y1="278.4683" y2="278.4683"/></g><!--MD5=[f4402668d5d5bb8485350c0fdb60ac8e]
class Scooter--><g id="elem_Scooter"><rect codeLine="10" fill="#F1F1F1" height="42.4883" id="Scooter" rx="2.5" ry="2.5" style="stroke:#181818;stroke-width:0.5;" width="58" x="98" y="243.98"/><text fill="#000000" font-family="sans-serif" font-size="14" lengthAdjust="spacing" textLength="52" x="101" y="262.5152">Scooter</text><line style="stroke:#181818;stroke-width:0.5;" x1="99" x2="155" y1="270.4683" y2="270.4683"/><line style="stroke:#181818;stroke-width:0.5;" x1="99" x2="155" y1="278.4683" y2="278.4683"/></g><!--MD5=[4c21d3e7a49cddee53640303865d1189]
class Vélo--><g id="elem_Vélo"><rect codeLine="13" fill="#F1F1F1" height="42.4883" id="Vélo" rx="2.5" ry="2.5" style="stroke:#181818;stroke-width:0.5;" width="36" x="191" y="243.98"/><text fill="#000000" font-family="sans-serif" font-size="14" lengthAdjust="spacing" textLength="30" x="194" y="262.5152">Vélo</text><line style="stroke:#181818;stroke-width:0.5;" x1="192" x2="226" y1="270.4683" y2="270.4683"/><line style="stroke:#181818;stroke-width:0.5;" x1="192" x2="226" y1="278.4683" y2="278.4683"/></g><!--MD5=[7726155e634e7133b6721e735a08bdea]
class Trottinette--><g id="elem_Trottinette"><rect codeLine="16" fill="#F1F1F1" height="42.4883" id="Trottinette" rx="2.5" ry="2.5" style="stroke:#181818;stroke-width:0.5;" width="79" x="261.5" y="243.98"/><text fill="#000000" font-family="sans-serif" font-size="14" lengthAdjust="spacing" textLength="73" x="264.5" y="262.5152">Trottinette</text><line style="stroke:#181818;stroke-width:0.5;" x1="262.5" x2="339.5" y1="270.4683" y2="270.4683"/><line style="stroke:#181818;stroke-width:0.5;" x1="262.5" x2="339.5" y1="278.4683" y2="278.4683"/></g><!--MD5=[ffe49301365913940c985a645681e007]
class Usager--><g id="elem_Usager"><rect codeLine="19" fill="#F1F1F1" height="124.9297" id="Usager" rx="2.5" ry="2.5" style="stroke:#181818;stroke-width:0.5;" width="253" x="516.5" y="7"/><text fill="#000000" font-family="sans-serif" font-size="14" lengthAdjust="spacing" textLength="48" x="619" y="25.5352">Usager</text><line style="stroke:#181818;stroke-width:0.5;" x1="517.5" x2="768.5" y1="33.4883" y2="33.4883"/><text fill="#000000" font-family="sans-serif" font-size="14" lengthAdjust="spacing" textLength="124" x="522.5" y="51.0234">-matricule : string</text><text fill="#000000" font-family="sans-serif" font-size="14" lengthAdjust="spacing" textLength="241" x="522.5" y="67.5117">-permisConduire : PermisConduire</text><text fill="#000000" font-family="sans-serif" font-size="14" lengthAdjust="spacing" textLength="160" x="522.5" y="84">-assurance : Assurance</text><line style="stroke:#181818;stroke-width:0.5;" x1="517.5" x2="768.5" y1="90.9531" y2="90.9531"/><text fill="#000000" font-family="sans-serif" font-size="14" lengthAdjust="spacing" textLength="202" x="522.5" y="108.4883">+fournirPreuvePermis() : void</text><text fill="#000000" font-family="sans-serif" font-size="14" lengthAdjust="spacing" textLength="227" x="522.5" y="124.9766">+fournirPreuveAssurance() : void</text></g><!--MD5=[3276cadaa5c32708ad70c43dbdbfc453]
class PermisConduire--><g id="elem_PermisConduire"><rect codeLine="26" fill="#F1F1F1" height="75.4648" id="PermisConduire" rx="2.5" ry="2.5" style="stroke:#181818;stroke-width:0.5;" width="172" x="557" y="227.49"/><text fill="#000000" font-family="sans-serif" font-size="14" lengthAdjust="spacing" textLength="110" x="588" y="246.0252">PermisConduire</text><line style="stroke:#181818;stroke-width:0.5;" x1="558" x2="728" y1="253.9783" y2="253.9783"/><text fill="#000000" font-family="sans-serif" font-size="14" lengthAdjust="spacing" textLength="160" x="563" y="271.5134">-numéroPermis : string</text><text fill="#000000" font-family="sans-serif" font-size="14" lengthAdjust="spacing" textLength="153" x="563" y="288.0017">-paysEmetteur : string</text><line style="stroke:#181818;stroke-width:0.5;" x1="558" x2="728" y1="294.9548" y2="294.9548"/></g><!--MD5=[3bf5152cd14a8d215aa23592cb6df4fc]
class Assurance--><g id="elem_Assurance"><rect codeLine="30" fill="#F1F1F1" height="58.9766" id="Assurance" rx="2.5" ry="2.5" style="stroke:#181818;stroke-width:0.5;" width="197" x="764.5" y="235.73"/><text fill="#000000" font-family="sans-serif" font-size="14" lengthAdjust="spacing" textLength="71" x="827.5" y="254.2652">Assurance</text><line style="stroke:#181818;stroke-width:0.5;" x1="765.5" x2="960.5" y1="262.2183" y2="262.2183"/><text fill="#000000" font-family="sans-serif" font-size="14" lengthAdjust="spacing" textLength="185" x="770.5" y="279.7534">-numéroAssurance : string</text><line style="stroke:#181818;stroke-width:0.5;" x1="765.5" x2="960.5" y1="286.7066" y2="286.7066"/></g><!--MD5=[65495260c482efb70f1cc6f8ffa1725e]
class Réserver--><g id="elem_Réserver"><rect codeLine="34" fill="#F1F1F1" height="108.4414" id="Réserver" rx="2.5" ry="2.5" style="stroke:#181818;stroke-width:0.5;" width="146" x="376" y="211"/><text fill="#000000" font-family="sans-serif" font-size="14" lengthAdjust="spacing" textLength="59" x="419.5" y="229.5352">Réserver</text><line style="stroke:#181818;stroke-width:0.5;" x1="377" x2="521" y1="237.4883" y2="237.4883"/><text fill="#000000" font-family="sans-serif" font-size="14" lengthAdjust="spacing" textLength="134" x="382" y="255.0234">-véhicule : Véhicule</text><text fill="#000000" font-family="sans-serif" font-size="14" lengthAdjust="spacing" textLength="115" x="382" y="271.5117">-usager : Usager</text><text fill="#000000" font-family="sans-serif" font-size="14" lengthAdjust="spacing" textLength="122" x="382" y="288">-dateDébut : Date</text><text fill="#000000" font-family="sans-serif" font-size="14" lengthAdjust="spacing" textLength="102" x="382" y="304.4883">-dateFin : Date</text><line style="stroke:#181818;stroke-width:0.5;" x1="377" x2="521" y1="311.4414" y2="311.4414"/></g><ellipse cx="449" cy="69" fill="#000000" rx="2" ry="2" style="stroke:none;stroke-width:1.0;"/><!--MD5=[e5773cfca3f1b754b63df7b759034b60]
reverse link Véhicule to Voiture--><g id="link_Véhicule_Voiture"><path codeLine="41" d="M169.85,111.92 C144.05,139.76 109.68,177.26 80,211 C70.65,221.63 60.45,233.66 52.12,243.59 " fill="none" id="Véhicule-backto-Voiture" style="stroke:#181818;stroke-width:1.0;"/><polygon fill="none" points="164.21,107.63,182.95,97.75,174.47,117.16,164.21,107.63" style="stroke:#181818;stroke-width:1.0;"/></g><!--MD5=[81c2eaa5806c445fd88c53894b8e5957]
reverse link Véhicule to Scooter--><g id="link_Véhicule_Scooter"><path codeLine="42" d="M189.69,115.73 C172.62,156.17 148.49,213.32 135.72,243.57 " fill="none" id="Véhicule-backto-Scooter" style="stroke:#181818;stroke-width:1.0;"/><polygon fill="none" points="183.54,113.3,197.77,97.6,196.44,118.74,183.54,113.3" style="stroke:#181818;stroke-width:1.0;"/></g><!--MD5=[79d1ab60f22ba47b21f3bfa0e7f2c676]
reverse link Véhicule to Vélo--><g id="link_Véhicule_Vélo"><path codeLine="43" d="M209,117.4 C209,157.74 209,213.74 209,243.57 " fill="none" id="Véhicule-backto-Vélo" style="stroke:#181818;stroke-width:1.0;"/><polygon fill="none" points="202,117.6,209,97.6,216,117.6,202,117.6" style="stroke:#181818;stroke-width:1.0;"/></g><!--MD5=[78a0eda6203e008cab3bfc103ad26992]
reverse link Véhicule to Trottinette--><g id="link_Véhicule_Trottinette"><path codeLine="44" d="M230.53,115.45 C249.7,155.91 276.86,213.25 291.22,243.57 " fill="none" id="Véhicule-backto-Trottinette" style="stroke:#181818;stroke-width:1.0;"/><polygon fill="none" points="223.83,118.67,221.6,97.6,236.49,112.67,223.83,118.67" style="stroke:#181818;stroke-width:1.0;"/></g><!--MD5=[599ea0ca45fc6f85631704af8d51220e]
link Véhicule to apoint16--><g id="link_Véhicule_apoint16"><path d="M240.63,77.88 C302.4,84.86 436.94,82.4 447.36,70.5 " fill="none" id="Véhicule-apoint16" style="stroke:#181818;stroke-width:1.0;"/><text fill="#000000" font-family="sans-serif" font-size="13" lengthAdjust="spacing" textLength="22" x="249.0593" y="77.2548">0..*</text></g><!--MD5=[ef1cd24964d6da04da41740318f667e8]
link apoint16 to Usager--><g id="link_apoint16_Usager"><path d="M451.23,69 C457.23,69 484.55,69 516.71,69 " fill="none" id="apoint16-Usager" style="stroke:#181818;stroke-width:1.0;"/><text fill="#000000" font-family="sans-serif" font-size="13" lengthAdjust="spacing" textLength="22" x="486.3439" y="66.0925">1..*</text></g><!--MD5=[3122bc39c1805a394fea5b869d6912bc]
link apoint16 to Réserver--><g id="link_apoint16_Réserver"><path d="M449,71.24 C449,81.8 449,157.59 449,210.98 " fill="none" id="apoint16-Réserver" style="stroke:#181818;stroke-width:1.0;stroke-dasharray:7.0,7.0;"/></g><!--MD5=[9df8296432007a05bbc7b055a09e6cd3]
link Usager to PermisConduire--><g id="link_Usager_PermisConduire"><path codeLine="47" d="M643,130.92 C643,160.29 643,194.82 643,221.37 " fill="none" id="Usager-to-PermisConduire" style="stroke:#181818;stroke-width:1.0;"/><polygon fill="#181818" points="643,226.26,647,217.26,643,221.26,639,217.26,643,226.26" style="stroke:#181818;stroke-width:1.0;"/></g><!--MD5=[aaa9a577fcb647de8b932a5168c822be]
link Usager to Assurance--><g id="link_Usager_Assurance"><path codeLine="48" d="M712.01,130.92 C749.6,164.11 794.65,203.88 825.7,231.29 " fill="none" id="Usager-to-Assurance" style="stroke:#181818;stroke-width:1.0;"/><polygon fill="#181818" points="829.18,234.24,825.0938,225.2788,825.4367,230.9253,819.7902,231.2682,829.18,234.24" style="stroke:#181818;stroke-width:1.0;"/></g><!--MD5=[71cdda862d9194d5473dbc98d952265a]
@startuml
hide circle
skinparam backgroundcolor transparent
skinparam classAttributeIconSize 0
abstract class Véhicule <<abstract>> {
    
}
class Voiture {
    
}
class Scooter {
    
}
class Vélo {
    
}
class Trottinette {
    
}
class Usager {
    - matricule : string
    - permisConduire : PermisConduire
    - assurance : Assurance
    + fournirPreuvePermis() : void
    + fournirPreuveAssurance() : void
}
class PermisConduire {
    - numéroPermis : string
    - paysEmetteur : string
}
class Assurance {
    - numéroAssurance : string
}

class Réserver {
    - véhicule : Véhicule
    - usager : Usager
    - dateDébut : Date
    - dateFin : Date
}

Véhicule <|- - Voiture
Véhicule <|- - Scooter
Véhicule <|- - Vélo
Véhicule <|- - Trottinette
Véhicule "0..*" - "1..*" Usager 
(Véhicule, Usager) .. Réserver
Usager - -> PermisConduire
Usager - -> Assurance

@enduml

PlantUML version 1.2022.7(Mon Aug 22 13:01:30 EDT 2022)
(GPL source distribution)
Java Runtime: OpenJDK Runtime Environment
JVM: OpenJDK 64-Bit Server VM
Default Encoding: UTF-8
Language: en
Country: CA
--></g></svg>