<?xml version="1.0" encoding="UTF-8" standalone="no"?><svg xmlns="http://www.w3.org/2000/svg" xmlns:xlink="http://www.w3.org/1999/xlink" contentStyleType="text/css" height="176px" preserveAspectRatio="none" style="width:331px;height:176px;background:#FFFFFF;" version="1.1" viewBox="0 0 331 176" width="331px" zoomAndPan="magnify"><defs/><g><!--MD5=[6d16c7213d1660779827d29f34a11482]
class Véhicule--><g id="elem_Véhicule"><rect codeLine="3" fill="#F1F1F1" height="58.7031" id="Véhicule" rx="2.5" ry="2.5" style="stroke:#181818;stroke-width:0.5;" width="60" x="130.5" y="7"/><text fill="#000000" font-family="sans-serif" font-size="12" font-style="italic" lengthAdjust="spacing" textLength="58" x="131.5" y="24.457">«abstract»</text><text fill="#000000" font-family="sans-serif" font-size="14" font-style="italic" lengthAdjust="spacing" textLength="54" x="133.5" y="41.627">Véhicule</text><line style="stroke:#181818;stroke-width:0.5;" x1="131.5" x2="189.5" y1="49.7031" y2="49.7031"/><line style="stroke:#181818;stroke-width:0.5;" x1="131.5" x2="189.5" y1="57.7031" y2="57.7031"/></g><!--MD5=[1d3308a050e4b472ad871965582028ae]
class Voiture--><g id="elem_Voiture"><rect codeLine="6" fill="#F1F1F1" height="43.6094" id="Voiture" rx="2.5" ry="2.5" style="stroke:#181818;stroke-width:0.5;" width="51" x="7" y="126"/><text fill="#000000" font-family="sans-serif" font-size="14" lengthAdjust="spacing" textLength="45" x="10" y="145.5332">Voiture</text><line style="stroke:#181818;stroke-width:0.5;" x1="8" x2="57" y1="153.6094" y2="153.6094"/><line style="stroke:#181818;stroke-width:0.5;" x1="8" x2="57" y1="161.6094" y2="161.6094"/></g><!--MD5=[f4402668d5d5bb8485350c0fdb60ac8e]
class Scooter--><g id="elem_Scooter"><rect codeLine="9" fill="#F1F1F1" height="43.6094" id="Scooter" rx="2.5" ry="2.5" style="stroke:#181818;stroke-width:0.5;" width="55" x="93" y="126"/><text fill="#000000" font-family="sans-serif" font-size="14" lengthAdjust="spacing" textLength="49" x="96" y="145.5332">Scooter</text><line style="stroke:#181818;stroke-width:0.5;" x1="94" x2="147" y1="153.6094" y2="153.6094"/><line style="stroke:#181818;stroke-width:0.5;" x1="94" x2="147" y1="161.6094" y2="161.6094"/></g><!--MD5=[4c21d3e7a49cddee53640303865d1189]
class Vélo--><g id="elem_Vélo"><rect codeLine="12" fill="#F1F1F1" height="43.6094" id="Vélo" rx="2.5" ry="2.5" style="stroke:#181818;stroke-width:0.5;" width="34" x="183.5" y="126"/><text fill="#000000" font-family="sans-serif" font-size="14" lengthAdjust="spacing" textLength="28" x="186.5" y="145.5332">Vélo</text><line style="stroke:#181818;stroke-width:0.5;" x1="184.5" x2="216.5" y1="153.6094" y2="153.6094"/><line style="stroke:#181818;stroke-width:0.5;" x1="184.5" x2="216.5" y1="161.6094" y2="161.6094"/></g><!--MD5=[7726155e634e7133b6721e735a08bdea]
class Trottinette--><g id="elem_Trottinette"><rect codeLine="15" fill="#F1F1F1" height="43.6094" id="Trottinette" rx="2.5" ry="2.5" style="stroke:#181818;stroke-width:0.5;" width="71" x="253" y="126"/><text fill="#000000" font-family="sans-serif" font-size="14" lengthAdjust="spacing" textLength="65" x="256" y="145.5332">Trottinette</text><line style="stroke:#181818;stroke-width:0.5;" x1="254" x2="323" y1="153.6094" y2="153.6094"/><line style="stroke:#181818;stroke-width:0.5;" x1="254" x2="323" y1="161.6094" y2="161.6094"/></g><!--MD5=[e5773cfca3f1b754b63df7b759034b60]
reverse link Véhicule to Voiture--><g id="link_Véhicule_Voiture"><path codeLine="19" d="M115.2,76.25 C95.67,92.96 73.6,111.84 57.17,125.9 " fill="none" id="Véhicule-backto-Voiture" style="stroke:#181818;stroke-width:1.0;"/><polygon fill="none" points="110.74,70.85,130.49,63.17,119.84,81.49,110.74,70.85" style="stroke:#181818;stroke-width:1.0;"/></g><!--MD5=[81c2eaa5806c445fd88c53894b8e5957]
reverse link Véhicule to Scooter--><g id="link_Véhicule_Scooter"><path codeLine="20" d="M143.01,85.38 C137.86,99.47 132.49,114.18 128.29,125.69 " fill="none" id="Véhicule-backto-Scooter" style="stroke:#181818;stroke-width:1.0;"/><polygon fill="none" points="136.55,82.65,149.99,66.27,149.7,87.46,136.55,82.65" style="stroke:#181818;stroke-width:1.0;"/></g><!--MD5=[79d1ab60f22ba47b21f3bfa0e7f2c676]
reverse link Véhicule to Vélo--><g id="link_Véhicule_Vélo"><path codeLine="21" d="M177.99,85.38 C183.14,99.47 188.51,114.18 192.71,125.69 " fill="none" id="Véhicule-backto-Vélo" style="stroke:#181818;stroke-width:1.0;"/><polygon fill="none" points="171.3,87.46,171.01,66.27,184.45,82.65,171.3,87.46" style="stroke:#181818;stroke-width:1.0;"/></g><!--MD5=[78a0eda6203e008cab3bfc103ad26992]
reverse link Véhicule to Trottinette--><g id="link_Véhicule_Trottinette"><path codeLine="22" d="M205.8,76.25 C225.33,92.96 247.4,111.84 263.83,125.9 " fill="none" id="Véhicule-backto-Trottinette" style="stroke:#181818;stroke-width:1.0;"/><polygon fill="none" points="201.16,81.49,190.51,63.17,210.26,70.85,201.16,81.49" style="stroke:#181818;stroke-width:1.0;"/></g><!--MD5=[532ab8173f71c2da9c051a0c9e2a58e6]
@startuml
hide circle
skinparam classAttributeIconSize 0
abstract class Véhicule <<abstract>> {
    
}
class Voiture {
    
}
class Scooter {
    
}
class Vélo {
    
}
class Trottinette {
    
}

Véhicule <|- - Voiture
Véhicule <|- - Scooter
Véhicule <|- - Vélo
Véhicule <|- - Trottinette
@enduml

PlantUML version 1.2022.7(Mon Aug 22 13:01:30 EDT 2022)
(GPL source distribution)
Java Runtime: Java(TM) SE Runtime Environment
JVM: Java HotSpot(TM) 64-Bit Server VM
Default Encoding: Cp1252
Language: en
Country: CA
--></g></svg>