<?xml version="1.0" encoding="us-ascii" standalone="no"?><svg xmlns="http://www.w3.org/2000/svg" xmlns:xlink="http://www.w3.org/1999/xlink" contentStyleType="text/css" height="119px" preserveAspectRatio="none" style="width:509px;height:119px;" version="1.1" viewBox="0 0 509 119" width="509px" zoomAndPan="magnify"><defs/><g><!--cluster B--><g id="cluster_B"><path d="M209.5,6 L277.5,6 A3.75,3.75 0 0 1 280,8.5 L287,29.6094 L499.5,29.6094 A2.5,2.5 0 0 1 502,32.1094 L502,109.5 A2.5,2.5 0 0 1 499.5,112 L209.5,112 A2.5,2.5 0 0 1 207,109.5 L207,8.5 A2.5,2.5 0 0 1 209.5,6 " fill="none" style="stroke:#000000;stroke-width:1.5;"/><line style="stroke:#000000;stroke-width:1.5;" x1="207" x2="287" y1="29.6094" y2="29.6094"/><text fill="#000000" font-family="sans-serif" font-size="14" font-weight="bold" lengthAdjust="spacing" textLength="67" x="211" y="22.5332">R&#233;unions</text></g><!--entity + R?union--><g id="elem_+ R&#233;union"><rect fill="#F1F1F1" height="37.6094" rx="2.5" ry="2.5" style="stroke:#181818;stroke-width:0.5;" width="85" x="392.5" y="50"/><text fill="#000000" font-family="sans-serif" font-size="14" lengthAdjust="spacing" textLength="65" x="402.5" y="74.5332">+ R&#233;union</text></g><!--entity - Participants --><g id="elem_- Participants "><rect fill="#F1F1F1" height="37.6094" rx="2.5" ry="2.5" style="stroke:#181818;stroke-width:0.5;" width="107" x="250.5" y="50"/><text fill="#000000" font-family="sans-serif" font-size="14" lengthAdjust="spacing" textLength="83" x="260.5" y="74.5332">- Participants</text></g><!--entity Utilisateurs--><g id="elem_Utilisateurs"><path d="M8.5,48.5 L101.5,48.5 A3.75,3.75 0 0 1 104,51 L111,72.1094 L125.5,72.1094 A2.5,2.5 0 0 1 128,74.6094 L128,86.6094 A2.5,2.5 0 0 1 125.5,89.1094 L8.5,89.1094 A2.5,2.5 0 0 1 6,86.6094 L6,51 A2.5,2.5 0 0 1 8.5,48.5 " fill="#F1F1F1" style="stroke:#181818;stroke-width:0.5;"/><line style="stroke:#181818;stroke-width:0.5;" x1="6" x2="111" y1="72.1094" y2="72.1094"/><text fill="#000000" font-family="sans-serif" font-size="14" font-weight="bold" lengthAdjust="spacing" textLength="80" x="16" y="66.0332">Utilisateurs</text></g><!--link Utilisateurs to B--><g id="link_Utilisateurs_B"><path d="M128.05,69 C147.16,69 167.46,69 183.635,69 C191.7225,69 198.7788,69 204.1394,69 C204.8095,69 205.453,69 206.0688,69 C206.3767,69 200.6777,69 200.9715,69 " fill="none" id="Utilisateurs-to-B" style="stroke:#181818;stroke-width:1.0;stroke-dasharray:1.0,3.0;"/><polygon fill="#181818" points="206.9715,69,197.9715,65,201.9715,69,197.9715,73,206.9715,69" style="stroke:#181818;stroke-width:1.0;"/><text fill="#000000" font-family="sans-serif" font-size="13" lengthAdjust="spacing" textLength="50" x="146.32" y="62.4951">&#171;import&#187;</text></g><!--SRC=[LSsn3S8m44RXtbFySeko08fIP0A4H8Ke3jiAfpXdwtof40Cn1ukH1WJj-uftuvWGM4DEhiqibPGMN2dCavPLOYYvA4n9saP9pDNDQ4eu6MTkP6dLvhxL7r_FLRX8yw26yUu0JS58fhpf3X_t_z3XG6eSk99OWtSFvtuFwFGSYrcAbsx0Y3twdfTQr8RX3G00]--></g></svg>