<?xml version="1.0" encoding="UTF-8" standalone="no"?><svg xmlns="http://www.w3.org/2000/svg" xmlns:xlink="http://www.w3.org/1999/xlink" contentStyleType="text/css" height="100px" preserveAspectRatio="none" style="width:262px;height:100px;background:#00000000;" version="1.1" viewBox="0 0 262 100" width="262px" zoomAndPan="magnify"><defs/><g><!--MD5=[78cacfe5ba4a6d821b9289fdb71c48c1]
cluster Magasinage en ligne--><g id="cluster_Magasinage en ligne"><path d="M8.5,6 L157.5,6 A3.75,3.75 0 0 1 160,8.5 L167,28.4883 L252.5,28.4883 A2.5,2.5 0 0 1 255,30.9883 L255,90.99 A2.5,2.5 0 0 1 252.5,93.49 L8.5,93.49 A2.5,2.5 0 0 1 6,90.99 L6,8.5 A2.5,2.5 0 0 1 8.5,6 " fill="none" style="stroke:#000000;stroke-width:1.5;"/><line style="stroke:#000000;stroke-width:1.5;" x1="6" x2="167" y1="28.4883" y2="28.4883"/><text fill="#000000" font-family="sans-serif" font-size="14" font-weight="bold" lengthAdjust="spacing" textLength="148" x="10" y="21.5352">Magasinage en ligne</text></g><!--MD5=[705fa451497a4fb7b28ae5a9bdcf9c19]
entity + Inventaire--><g id="elem_+ Inventaire"><rect fill="#F1F1F1" height="36.4883" rx="2.5" ry="2.5" style="stroke:#181818;stroke-width:0.5;" width="103" x="135.5" y="41"/><text fill="#000000" font-family="sans-serif" font-size="14" lengthAdjust="spacing" textLength="83" x="145.5" y="64.5352">+ Inventaire</text></g><!--MD5=[b71454db1f95ddf6026b09051c492711]
entity - Panier --><g id="elem_- Panier "><rect fill="#F1F1F1" height="36.4883" rx="2.5" ry="2.5" style="stroke:#181818;stroke-width:0.5;" width="79" x="21.5" y="41"/><text fill="#000000" font-family="sans-serif" font-size="14" lengthAdjust="spacing" textLength="55" x="31.5" y="64.5352">- Panier</text></g><!--MD5=[3ecf25226cfcc6356d0028973e27a8be]
@startuml
hide circle
skinparam backgroundcolor transparent
package "Magasinage en ligne" {
  rectangle "+ Inventaire"
  rectangle "- Panier "
}
@enduml

PlantUML version 1.2022.7(Mon Aug 22 13:01:30 EDT 2022)
(GPL source distribution)
Java Runtime: OpenJDK Runtime Environment
JVM: OpenJDK 64-Bit Server VM
Default Encoding: UTF-8
Language: en
Country: CA
--></g></svg>