<?xml version="1.0" encoding="UTF-8" standalone="no"?><svg xmlns="http://www.w3.org/2000/svg" xmlns:xlink="http://www.w3.org/1999/xlink" contentStyleType="text/css" height="834px" preserveAspectRatio="none" style="width:810px;height:834px;background:#FFFFFF;" version="1.1" viewBox="0 0 810 834" width="810px" zoomAndPan="magnify"><defs/><g><!--MD5=[3880d21fc32e50405c2bba3a3c1e0cfa]
cluster PolyAuto--><g id="cluster_PolyAuto"><path d="M8.5,6 L70.5,6 A3.75,3.75 0 0 1 73,8.5 L80,29.6094 L800.5,29.6094 A2.5,2.5 0 0 1 803,32.1094 L803,824.5 A2.5,2.5 0 0 1 800.5,827 L8.5,827 A2.5,2.5 0 0 1 6,824.5 L6,8.5 A2.5,2.5 0 0 1 8.5,6 " fill="none" style="stroke:#000000;stroke-width:1.5;"/><line style="stroke:#000000;stroke-width:1.5;" x1="6" x2="80" y1="29.6094" y2="29.6094"/><text fill="#000000" font-family="sans-serif" font-size="14" font-weight="bold" lengthAdjust="spacing" textLength="61" x="10" y="22.5332">PolyAuto</text></g><!--MD5=[fa6bce53004cfa21966bda77b3e20fcb]
cluster Utilisateurs--><g id="cluster_Utilisateurs"><path d="M264.5,298 L345.5,298 A3.75,3.75 0 0 1 348,300.5 L355,321.6094 L369.5,321.6094 A2.5,2.5 0 0 1 372,324.1094 L372,395.5 A2.5,2.5 0 0 1 369.5,398 L264.5,398 A2.5,2.5 0 0 1 262,395.5 L262,300.5 A2.5,2.5 0 0 1 264.5,298 " fill="none" style="stroke:#000000;stroke-width:1.5;"/><line style="stroke:#000000;stroke-width:1.5;" x1="262" x2="355" y1="321.6094" y2="321.6094"/><text fill="#000000" font-family="sans-serif" font-size="14" font-weight="bold" lengthAdjust="spacing" textLength="80" x="266" y="314.5332">Utilisateurs</text></g><!--MD5=[a0fa905be51a620876281384c1e1592b]
cluster Véhicules--><g id="cluster_Véhicules"><path d="M40.5,430 L110.5,430 A3.75,3.75 0 0 1 113,432.5 L120,453.6094 L768.5,453.6094 A2.5,2.5 0 0 1 771,456.1094 L771,792.5 A2.5,2.5 0 0 1 768.5,795 L40.5,795 A2.5,2.5 0 0 1 38,792.5 L38,432.5 A2.5,2.5 0 0 1 40.5,430 " fill="none" style="stroke:#000000;stroke-width:1.5;"/><line style="stroke:#000000;stroke-width:1.5;" x1="38" x2="120" y1="453.6094" y2="453.6094"/><text fill="#000000" font-family="sans-serif" font-size="14" font-weight="bold" lengthAdjust="spacing" textLength="69" x="42" y="446.5332">Véhicules</text></g><!--MD5=[30d69fc939637c29eac03588701cb648]
cluster Réservations--><g id="cluster_Réservations"><path d="M333.5,174 L428.5,174 A3.75,3.75 0 0 1 431,176.5 L438,197.6094 L450.5,197.6094 A2.5,2.5 0 0 1 453,200.1094 L453,271.5 A2.5,2.5 0 0 1 450.5,274 L333.5,274 A2.5,2.5 0 0 1 331,271.5 L331,176.5 A2.5,2.5 0 0 1 333.5,174 " fill="none" style="stroke:#000000;stroke-width:1.5;"/><line style="stroke:#000000;stroke-width:1.5;" x1="331" x2="438" y1="197.6094" y2="197.6094"/><text fill="#000000" font-family="sans-serif" font-size="14" font-weight="bold" lengthAdjust="spacing" textLength="94" x="335" y="190.5332">Réservations</text></g><!--MD5=[c71651416f70aa54eac7aac988194129]
cluster Géolocalisation--><g id="cluster_Géolocalisation"><path d="M32.5,298 L142.5,298 A3.75,3.75 0 0 1 145,300.5 L152,321.6094 L235.5,321.6094 A2.5,2.5 0 0 1 238,324.1094 L238,395.5 A2.5,2.5 0 0 1 235.5,398 L32.5,398 A2.5,2.5 0 0 1 30,395.5 L30,300.5 A2.5,2.5 0 0 1 32.5,298 " fill="none" style="stroke:#000000;stroke-width:1.5;"/><line style="stroke:#000000;stroke-width:1.5;" x1="30" x2="152" y1="321.6094" y2="321.6094"/><text fill="#000000" font-family="sans-serif" font-size="14" font-weight="bold" lengthAdjust="spacing" textLength="109" x="34" y="314.5332">Géolocalisation</text></g><!--MD5=[41d2f0445c250550771cda487ea10d9f]
cluster Facturation--><g id="cluster_Facturation"><path d="M262.5,50 L343.5,50 A3.75,3.75 0 0 1 346,52.5 L353,73.6094 L441.5,73.6094 A2.5,2.5 0 0 1 444,76.1094 L444,147.5 A2.5,2.5 0 0 1 441.5,150 L262.5,150 A2.5,2.5 0 0 1 260,147.5 L260,52.5 A2.5,2.5 0 0 1 262.5,50 " fill="none" style="stroke:#000000;stroke-width:1.5;"/><line style="stroke:#000000;stroke-width:1.5;" x1="260" x2="353" y1="73.6094" y2="73.6094"/><text fill="#000000" font-family="sans-serif" font-size="14" font-weight="bold" lengthAdjust="spacing" textLength="80" x="264" y="66.5332">Facturation</text></g><!--MD5=[ffe49301365913940c985a645681e007]
class Usager--><g id="elem_Usager"><rect codeLine="3" fill="#F1F1F1" height="48" id="Usager" rx="2.5" ry="2.5" style="stroke:#181818;stroke-width:0.5;" width="77" x="278.5" y="334"/><ellipse cx="293.5" cy="350" fill="#ADD1B2" rx="11" ry="11" style="stroke:#181818;stroke-width:1.0;"/><path d="M296.2656,345.875 Q296.4219,345.6563 296.6094,345.5469 Q296.7969,345.4375 297.0156,345.4375 Q297.3906,345.4375 297.625,345.6953 Q297.8594,345.9531 297.8594,346.5625 L297.8594,348.0156 Q297.8594,348.625 297.625,348.8906 Q297.3906,349.1563 297.0156,349.1563 Q296.6719,349.1563 296.4688,348.9531 Q296.2656,348.7656 296.1563,348.25 Q296.1094,347.8906 295.9219,347.7031 Q295.5938,347.3281 294.9844,347.1094 Q294.375,346.8906 293.75,346.8906 Q292.9844,346.8906 292.3516,347.2188 Q291.7188,347.5469 291.2266,348.2969 Q290.7344,349.0469 290.7344,350.0781 L290.7344,351.1719 Q290.7344,352.4063 291.625,353.2266 Q292.5156,354.0469 294.1094,354.0469 Q295.0469,354.0469 295.7031,353.7969 Q296.0938,353.6406 296.5156,353.2031 Q296.7813,352.9375 296.9297,352.8594 Q297.0781,352.7813 297.2813,352.7813 Q297.6094,352.7813 297.8672,353.0391 Q298.125,353.2969 298.125,353.6406 Q298.125,353.9844 297.7813,354.3906 Q297.2813,354.9688 296.4844,355.2969 Q295.4063,355.75 294.1094,355.75 Q292.5938,355.75 291.3906,355.125 Q290.4063,354.625 289.7188,353.5547 Q289.0313,352.4844 289.0313,351.2031 L289.0313,350.0469 Q289.0313,348.7188 289.6484,347.5703 Q290.2656,346.4219 291.3594,345.8047 Q292.4531,345.1875 293.6875,345.1875 Q294.4219,345.1875 295.0703,345.3516 Q295.7188,345.5156 296.2656,345.875 Z " fill="#000000"/><text fill="#000000" font-family="sans-serif" font-size="14" lengthAdjust="spacing" textLength="45" x="307.5" y="355.7285">Usager</text><line style="stroke:#181818;stroke-width:0.5;" x1="279.5" x2="354.5" y1="366" y2="366"/><line style="stroke:#181818;stroke-width:0.5;" x1="279.5" x2="354.5" y1="374" y2="374"/></g><!--MD5=[6d16c7213d1660779827d29f34a11482]
class Véhicule--><g id="elem_Véhicule"><rect codeLine="6" fill="#F1F1F1" height="153.6563" id="Véhicule" rx="2.5" ry="2.5" style="stroke:#181818;stroke-width:0.5;" width="303" x="81.5" y="474"/><ellipse cx="201.75" cy="490" fill="#A9DCDF" rx="11" ry="11" style="stroke:#181818;stroke-width:1.0;"/><path d="M203.9375,491.7656 L199.7969,491.7656 L199.375,492.7969 L199.7969,492.7969 Q200.4063,492.7969 200.6719,493.0313 Q200.9375,493.2656 200.9375,493.6563 Q200.9375,494.0313 200.6719,494.2656 Q200.4063,494.5 199.7969,494.5 L197.5,494.5 Q196.8906,494.5 196.6328,494.2656 Q196.375,494.0313 196.375,493.6406 Q196.375,493.2656 196.6484,493.0234 Q196.9219,492.7813 197.5469,492.7969 L200.2188,486.1406 L199.1094,486.1406 Q198.5,486.1406 198.2344,485.9063 Q197.9688,485.6719 197.9688,485.2813 Q197.9688,484.9063 198.2344,484.6719 Q198.5,484.4375 199.1094,484.4375 L202.7813,484.4375 L206.1719,492.7969 Q206.7656,492.7969 206.9531,492.9375 Q207.3438,493.2031 207.3438,493.6563 Q207.3438,494.0313 207.0859,494.2656 Q206.8281,494.5 206.2188,494.5 L203.9219,494.5 Q203.3125,494.5 203.0469,494.2656 Q202.7813,494.0313 202.7813,493.6406 Q202.7813,493.2656 203.0469,493.0313 Q203.3125,492.7969 203.9219,492.7969 L204.3438,492.7969 L203.9375,491.7656 Z M203.2188,490.0625 L201.8594,486.6875 L200.4844,490.0625 L203.2188,490.0625 Z " fill="#000000"/><text fill="#000000" font-family="sans-serif" font-size="14" font-style="italic" lengthAdjust="spacing" textLength="54" x="222.25" y="495.7285">Véhicule</text><line style="stroke:#181818;stroke-width:0.5;" x1="82.5" x2="383.5" y1="506" y2="506"/><line style="stroke:#181818;stroke-width:0.5;" x1="82.5" x2="383.5" y1="514" y2="514"/><ellipse cx="92.5" cy="528.3047" fill="#84BE84" rx="3" ry="3" style="stroke:#038048;stroke-width:1.0;"/><text fill="#000000" font-family="sans-serif" font-size="14" lengthAdjust="spacing" textLength="125" x="101.5" y="532.5332">getMarque() : string</text><ellipse cx="92.5" cy="545.9141" fill="#84BE84" rx="3" ry="3" style="stroke:#038048;stroke-width:1.0;"/><text fill="#000000" font-family="sans-serif" font-size="14" lengthAdjust="spacing" textLength="210" x="101.5" y="550.1426">setMarque(marque : string) : void</text><ellipse cx="92.5" cy="563.5234" fill="#84BE84" rx="3" ry="3" style="stroke:#038048;stroke-width:1.0;"/><text fill="#000000" font-family="sans-serif" font-size="14" lengthAdjust="spacing" textLength="123" x="101.5" y="567.752">getModèle() : string</text><ellipse cx="92.5" cy="581.1328" fill="#84BE84" rx="3" ry="3" style="stroke:#038048;stroke-width:1.0;"/><text fill="#000000" font-family="sans-serif" font-size="14" lengthAdjust="spacing" textLength="206" x="101.5" y="585.3613">setModèle(modèle : string) : void</text><ellipse cx="92.5" cy="598.7422" fill="#84BE84" rx="3" ry="3" style="stroke:#038048;stroke-width:1.0;"/><text fill="#000000" font-family="sans-serif" font-size="14" lengthAdjust="spacing" textLength="159" x="101.5" y="602.9707">getNuméroSérie() : string</text><ellipse cx="92.5" cy="616.3516" fill="#84BE84" rx="3" ry="3" style="stroke:#038048;stroke-width:1.0;"/><text fill="#000000" font-family="sans-serif" font-size="14" lengthAdjust="spacing" textLength="277" x="101.5" y="620.5801">setNuméroSérie(numéroSérie : string) : void</text></g><!--MD5=[1d3308a050e4b472ad871965582028ae]
class Voiture--><g id="elem_Voiture"><rect codeLine="14" fill="#F1F1F1" height="83.2188" id="Voiture" rx="2.5" ry="2.5" style="stroke:#181818;stroke-width:0.5;" width="143" x="419.5" y="509.5"/><ellipse cx="464.25" cy="525.5" fill="#ADD1B2" rx="11" ry="11" style="stroke:#181818;stroke-width:1.0;"/><path d="M467.0156,521.375 Q467.1719,521.1563 467.3594,521.0469 Q467.5469,520.9375 467.7656,520.9375 Q468.1406,520.9375 468.375,521.1953 Q468.6094,521.4531 468.6094,522.0625 L468.6094,523.5156 Q468.6094,524.125 468.375,524.3906 Q468.1406,524.6563 467.7656,524.6563 Q467.4219,524.6563 467.2188,524.4531 Q467.0156,524.2656 466.9063,523.75 Q466.8594,523.3906 466.6719,523.2031 Q466.3438,522.8281 465.7344,522.6094 Q465.125,522.3906 464.5,522.3906 Q463.7344,522.3906 463.1016,522.7188 Q462.4688,523.0469 461.9766,523.7969 Q461.4844,524.5469 461.4844,525.5781 L461.4844,526.6719 Q461.4844,527.9063 462.375,528.7266 Q463.2656,529.5469 464.8594,529.5469 Q465.7969,529.5469 466.4531,529.2969 Q466.8438,529.1406 467.2656,528.7031 Q467.5313,528.4375 467.6797,528.3594 Q467.8281,528.2813 468.0313,528.2813 Q468.3594,528.2813 468.6172,528.5391 Q468.875,528.7969 468.875,529.1406 Q468.875,529.4844 468.5313,529.8906 Q468.0313,530.4688 467.2344,530.7969 Q466.1563,531.25 464.8594,531.25 Q463.3438,531.25 462.1406,530.625 Q461.1563,530.125 460.4688,529.0547 Q459.7813,527.9844 459.7813,526.7031 L459.7813,525.5469 Q459.7813,524.2188 460.3984,523.0703 Q461.0156,521.9219 462.1094,521.3047 Q463.2031,520.6875 464.4375,520.6875 Q465.1719,520.6875 465.8203,520.8516 Q466.4688,521.0156 467.0156,521.375 Z " fill="#000000"/><text fill="#000000" font-family="sans-serif" font-size="14" lengthAdjust="spacing" textLength="45" x="484.75" y="531.2285">Voiture</text><line style="stroke:#181818;stroke-width:0.5;" x1="420.5" x2="561.5" y1="541.5" y2="541.5"/><rect fill="none" height="6" style="stroke:#C82930;stroke-width:1.0;" width="6" x="427.5" y="552.8047"/><text fill="#000000" font-family="sans-serif" font-size="14" lengthAdjust="spacing" textLength="117" x="439.5" y="560.0332">nombrePlaces : int</text><rect fill="none" height="6" style="stroke:#C82930;stroke-width:1.0;" width="6" x="427.5" y="570.4141"/><text fill="#000000" font-family="sans-serif" font-size="14" lengthAdjust="spacing" textLength="94" x="439.5" y="577.6426">couleur : string</text><line style="stroke:#181818;stroke-width:0.5;" x1="420.5" x2="561.5" y1="584.7188" y2="584.7188"/></g><!--MD5=[f4402668d5d5bb8485350c0fdb60ac8e]
class Scooter--><g id="elem_Scooter"><rect codeLine="18" fill="#F1F1F1" height="83.2188" id="Scooter" rx="2.5" ry="2.5" style="stroke:#181818;stroke-width:0.5;" width="149" x="597.5" y="509.5"/><ellipse cx="643.25" cy="525.5" fill="#ADD1B2" rx="11" ry="11" style="stroke:#181818;stroke-width:1.0;"/><path d="M646.0156,521.375 Q646.1719,521.1563 646.3594,521.0469 Q646.5469,520.9375 646.7656,520.9375 Q647.1406,520.9375 647.375,521.1953 Q647.6094,521.4531 647.6094,522.0625 L647.6094,523.5156 Q647.6094,524.125 647.375,524.3906 Q647.1406,524.6563 646.7656,524.6563 Q646.4219,524.6563 646.2188,524.4531 Q646.0156,524.2656 645.9063,523.75 Q645.8594,523.3906 645.6719,523.2031 Q645.3438,522.8281 644.7344,522.6094 Q644.125,522.3906 643.5,522.3906 Q642.7344,522.3906 642.1016,522.7188 Q641.4688,523.0469 640.9766,523.7969 Q640.4844,524.5469 640.4844,525.5781 L640.4844,526.6719 Q640.4844,527.9063 641.375,528.7266 Q642.2656,529.5469 643.8594,529.5469 Q644.7969,529.5469 645.4531,529.2969 Q645.8438,529.1406 646.2656,528.7031 Q646.5313,528.4375 646.6797,528.3594 Q646.8281,528.2813 647.0313,528.2813 Q647.3594,528.2813 647.6172,528.5391 Q647.875,528.7969 647.875,529.1406 Q647.875,529.4844 647.5313,529.8906 Q647.0313,530.4688 646.2344,530.7969 Q645.1563,531.25 643.8594,531.25 Q642.3438,531.25 641.1406,530.625 Q640.1563,530.125 639.4688,529.0547 Q638.7813,527.9844 638.7813,526.7031 L638.7813,525.5469 Q638.7813,524.2188 639.3984,523.0703 Q640.0156,521.9219 641.1094,521.3047 Q642.2031,520.6875 643.4375,520.6875 Q644.1719,520.6875 644.8203,520.8516 Q645.4688,521.0156 646.0156,521.375 Z " fill="#000000"/><text fill="#000000" font-family="sans-serif" font-size="14" lengthAdjust="spacing" textLength="49" x="663.75" y="531.2285">Scooter</text><line style="stroke:#181818;stroke-width:0.5;" x1="598.5" x2="745.5" y1="541.5" y2="541.5"/><rect fill="none" height="6" style="stroke:#C82930;stroke-width:1.0;" width="6" x="605.5" y="552.8047"/><text fill="#000000" font-family="sans-serif" font-size="14" lengthAdjust="spacing" textLength="91" x="617.5" y="560.0332">puissance : int</text><rect fill="none" height="6" style="stroke:#C82930;stroke-width:1.0;" width="6" x="605.5" y="570.4141"/><text fill="#000000" font-family="sans-serif" font-size="14" lengthAdjust="spacing" textLength="123" x="617.5" y="577.6426">typeBatterie : string</text><line style="stroke:#181818;stroke-width:0.5;" x1="598.5" x2="745.5" y1="584.7188" y2="584.7188"/></g><!--MD5=[4c21d3e7a49cddee53640303865d1189]
class Vélo--><g id="elem_Vélo"><rect codeLine="22" fill="#F1F1F1" height="83.2188" id="Vélo" rx="2.5" ry="2.5" style="stroke:#181818;stroke-width:0.5;" width="141" x="162.5" y="688"/><ellipse cx="214.75" cy="704" fill="#ADD1B2" rx="11" ry="11" style="stroke:#181818;stroke-width:1.0;"/><path d="M217.5156,699.875 Q217.6719,699.6563 217.8594,699.5469 Q218.0469,699.4375 218.2656,699.4375 Q218.6406,699.4375 218.875,699.6953 Q219.1094,699.9531 219.1094,700.5625 L219.1094,702.0156 Q219.1094,702.625 218.875,702.8906 Q218.6406,703.1563 218.2656,703.1563 Q217.9219,703.1563 217.7188,702.9531 Q217.5156,702.7656 217.4063,702.25 Q217.3594,701.8906 217.1719,701.7031 Q216.8438,701.3281 216.2344,701.1094 Q215.625,700.8906 215,700.8906 Q214.2344,700.8906 213.6016,701.2188 Q212.9688,701.5469 212.4766,702.2969 Q211.9844,703.0469 211.9844,704.0781 L211.9844,705.1719 Q211.9844,706.4063 212.875,707.2266 Q213.7656,708.0469 215.3594,708.0469 Q216.2969,708.0469 216.9531,707.7969 Q217.3438,707.6406 217.7656,707.2031 Q218.0313,706.9375 218.1797,706.8594 Q218.3281,706.7813 218.5313,706.7813 Q218.8594,706.7813 219.1172,707.0391 Q219.375,707.2969 219.375,707.6406 Q219.375,707.9844 219.0313,708.3906 Q218.5313,708.9688 217.7344,709.2969 Q216.6563,709.75 215.3594,709.75 Q213.8438,709.75 212.6406,709.125 Q211.6563,708.625 210.9688,707.5547 Q210.2813,706.4844 210.2813,705.2031 L210.2813,704.0469 Q210.2813,702.7188 210.8984,701.5703 Q211.5156,700.4219 212.6094,699.8047 Q213.7031,699.1875 214.9375,699.1875 Q215.6719,699.1875 216.3203,699.3516 Q216.9688,699.5156 217.5156,699.875 Z " fill="#000000"/><text fill="#000000" font-family="sans-serif" font-size="14" lengthAdjust="spacing" textLength="28" x="235.25" y="709.7285">Vélo</text><line style="stroke:#181818;stroke-width:0.5;" x1="163.5" x2="302.5" y1="720" y2="720"/><rect fill="none" height="6" style="stroke:#C82930;stroke-width:1.0;" width="6" x="170.5" y="731.3047"/><text fill="#000000" font-family="sans-serif" font-size="14" lengthAdjust="spacing" textLength="74" x="182.5" y="738.5332">type : string</text><rect fill="none" height="6" style="stroke:#C82930;stroke-width:1.0;" width="6" x="170.5" y="748.9141"/><text fill="#000000" font-family="sans-serif" font-size="14" lengthAdjust="spacing" textLength="115" x="182.5" y="756.1426">tailleCadre : string</text><line style="stroke:#181818;stroke-width:0.5;" x1="163.5" x2="302.5" y1="763.2188" y2="763.2188"/></g><!--MD5=[7726155e634e7133b6721e735a08bdea]
class Trottinette--><g id="elem_Trottinette"><rect codeLine="26" fill="#F1F1F1" height="83.2188" id="Trottinette" rx="2.5" ry="2.5" style="stroke:#181818;stroke-width:0.5;" width="170" x="339" y="688"/><ellipse cx="387.25" cy="704" fill="#ADD1B2" rx="11" ry="11" style="stroke:#181818;stroke-width:1.0;"/><path d="M390.0156,699.875 Q390.1719,699.6563 390.3594,699.5469 Q390.5469,699.4375 390.7656,699.4375 Q391.1406,699.4375 391.375,699.6953 Q391.6094,699.9531 391.6094,700.5625 L391.6094,702.0156 Q391.6094,702.625 391.375,702.8906 Q391.1406,703.1563 390.7656,703.1563 Q390.4219,703.1563 390.2188,702.9531 Q390.0156,702.7656 389.9063,702.25 Q389.8594,701.8906 389.6719,701.7031 Q389.3438,701.3281 388.7344,701.1094 Q388.125,700.8906 387.5,700.8906 Q386.7344,700.8906 386.1016,701.2188 Q385.4688,701.5469 384.9766,702.2969 Q384.4844,703.0469 384.4844,704.0781 L384.4844,705.1719 Q384.4844,706.4063 385.375,707.2266 Q386.2656,708.0469 387.8594,708.0469 Q388.7969,708.0469 389.4531,707.7969 Q389.8438,707.6406 390.2656,707.2031 Q390.5313,706.9375 390.6797,706.8594 Q390.8281,706.7813 391.0313,706.7813 Q391.3594,706.7813 391.6172,707.0391 Q391.875,707.2969 391.875,707.6406 Q391.875,707.9844 391.5313,708.3906 Q391.0313,708.9688 390.2344,709.2969 Q389.1563,709.75 387.8594,709.75 Q386.3438,709.75 385.1406,709.125 Q384.1563,708.625 383.4688,707.5547 Q382.7813,706.4844 382.7813,705.2031 L382.7813,704.0469 Q382.7813,702.7188 383.3984,701.5703 Q384.0156,700.4219 385.1094,699.8047 Q386.2031,699.1875 387.4375,699.1875 Q388.1719,699.1875 388.8203,699.3516 Q389.4688,699.5156 390.0156,699.875 Z " fill="#000000"/><text fill="#000000" font-family="sans-serif" font-size="14" lengthAdjust="spacing" textLength="65" x="407.75" y="709.7285">Trottinette</text><line style="stroke:#181818;stroke-width:0.5;" x1="340" x2="508" y1="720" y2="720"/><rect fill="none" height="6" style="stroke:#C82930;stroke-width:1.0;" width="6" x="347" y="731.3047"/><text fill="#000000" font-family="sans-serif" font-size="14" lengthAdjust="spacing" textLength="93" x="359" y="738.5332">autonomie : int</text><rect fill="none" height="6" style="stroke:#C82930;stroke-width:1.0;" width="6" x="347" y="748.9141"/><text fill="#000000" font-family="sans-serif" font-size="14" lengthAdjust="spacing" textLength="144" x="359" y="756.1426">poidsMaxSupporté : int</text><line style="stroke:#181818;stroke-width:0.5;" x1="340" x2="508" y1="763.2188" y2="763.2188"/></g><!--MD5=[65495260c482efb70f1cc6f8ffa1725e]
class Réserver--><g id="elem_Réserver"><rect codeLine="32" fill="#F1F1F1" height="48" id="Réserver" rx="2.5" ry="2.5" style="stroke:#181818;stroke-width:0.5;" width="90" x="347" y="210"/><ellipse cx="362" cy="226" fill="#ADD1B2" rx="11" ry="11" style="stroke:#181818;stroke-width:1.0;"/><path d="M364.7656,221.875 Q364.9219,221.6563 365.1094,221.5469 Q365.2969,221.4375 365.5156,221.4375 Q365.8906,221.4375 366.125,221.6953 Q366.3594,221.9531 366.3594,222.5625 L366.3594,224.0156 Q366.3594,224.625 366.125,224.8906 Q365.8906,225.1563 365.5156,225.1563 Q365.1719,225.1563 364.9688,224.9531 Q364.7656,224.7656 364.6563,224.25 Q364.6094,223.8906 364.4219,223.7031 Q364.0938,223.3281 363.4844,223.1094 Q362.875,222.8906 362.25,222.8906 Q361.4844,222.8906 360.8516,223.2188 Q360.2188,223.5469 359.7266,224.2969 Q359.2344,225.0469 359.2344,226.0781 L359.2344,227.1719 Q359.2344,228.4063 360.125,229.2266 Q361.0156,230.0469 362.6094,230.0469 Q363.5469,230.0469 364.2031,229.7969 Q364.5938,229.6406 365.0156,229.2031 Q365.2813,228.9375 365.4297,228.8594 Q365.5781,228.7813 365.7813,228.7813 Q366.1094,228.7813 366.3672,229.0391 Q366.625,229.2969 366.625,229.6406 Q366.625,229.9844 366.2813,230.3906 Q365.7813,230.9688 364.9844,231.2969 Q363.9063,231.75 362.6094,231.75 Q361.0938,231.75 359.8906,231.125 Q358.9063,230.625 358.2188,229.5547 Q357.5313,228.4844 357.5313,227.2031 L357.5313,226.0469 Q357.5313,224.7188 358.1484,223.5703 Q358.7656,222.4219 359.8594,221.8047 Q360.9531,221.1875 362.1875,221.1875 Q362.9219,221.1875 363.5703,221.3516 Q364.2188,221.5156 364.7656,221.875 Z " fill="#000000"/><text fill="#000000" font-family="sans-serif" font-size="14" lengthAdjust="spacing" textLength="58" x="376" y="231.7285">Réserver</text><line style="stroke:#181818;stroke-width:0.5;" x1="348" x2="436" y1="242" y2="242"/><line style="stroke:#181818;stroke-width:0.5;" x1="348" x2="436" y1="250" y2="250"/></g><!--MD5=[4a7a687f5dbe7c2560fd447760c7bb43]
class GéolocalisationService--><g id="elem_GéolocalisationService"><rect codeLine="35" fill="#F1F1F1" height="48" id="GéolocalisationService" rx="2.5" ry="2.5" style="stroke:#181818;stroke-width:0.5;" width="176" x="46" y="334"/><ellipse cx="61" cy="350" fill="#ADD1B2" rx="11" ry="11" style="stroke:#181818;stroke-width:1.0;"/><path d="M63.7656,345.875 Q63.9219,345.6563 64.1094,345.5469 Q64.2969,345.4375 64.5156,345.4375 Q64.8906,345.4375 65.125,345.6953 Q65.3594,345.9531 65.3594,346.5625 L65.3594,348.0156 Q65.3594,348.625 65.125,348.8906 Q64.8906,349.1563 64.5156,349.1563 Q64.1719,349.1563 63.9688,348.9531 Q63.7656,348.7656 63.6563,348.25 Q63.6094,347.8906 63.4219,347.7031 Q63.0938,347.3281 62.4844,347.1094 Q61.875,346.8906 61.25,346.8906 Q60.4844,346.8906 59.8516,347.2188 Q59.2188,347.5469 58.7266,348.2969 Q58.2344,349.0469 58.2344,350.0781 L58.2344,351.1719 Q58.2344,352.4063 59.125,353.2266 Q60.0156,354.0469 61.6094,354.0469 Q62.5469,354.0469 63.2031,353.7969 Q63.5938,353.6406 64.0156,353.2031 Q64.2813,352.9375 64.4297,352.8594 Q64.5781,352.7813 64.7813,352.7813 Q65.1094,352.7813 65.3672,353.0391 Q65.625,353.2969 65.625,353.6406 Q65.625,353.9844 65.2813,354.3906 Q64.7813,354.9688 63.9844,355.2969 Q62.9063,355.75 61.6094,355.75 Q60.0938,355.75 58.8906,355.125 Q57.9063,354.625 57.2188,353.5547 Q56.5313,352.4844 56.5313,351.2031 L56.5313,350.0469 Q56.5313,348.7188 57.1484,347.5703 Q57.7656,346.4219 58.8594,345.8047 Q59.9531,345.1875 61.1875,345.1875 Q61.9219,345.1875 62.5703,345.3516 Q63.2188,345.5156 63.7656,345.875 Z " fill="#000000"/><text fill="#000000" font-family="sans-serif" font-size="14" lengthAdjust="spacing" textLength="144" x="75" y="355.7285">GéolocalisationService</text><line style="stroke:#181818;stroke-width:0.5;" x1="47" x2="221" y1="366" y2="366"/><line style="stroke:#181818;stroke-width:0.5;" x1="47" x2="221" y1="374" y2="374"/></g><!--MD5=[14d23132e2eb7675f4ba38b38a7f0520]
class FacturationService--><g id="elem_FacturationService"><rect codeLine="38" fill="#F1F1F1" height="48" id="FacturationService" rx="2.5" ry="2.5" style="stroke:#181818;stroke-width:0.5;" width="151" x="276.5" y="86"/><ellipse cx="291.5" cy="102" fill="#ADD1B2" rx="11" ry="11" style="stroke:#181818;stroke-width:1.0;"/><path d="M294.2656,97.875 Q294.4219,97.6563 294.6094,97.5469 Q294.7969,97.4375 295.0156,97.4375 Q295.3906,97.4375 295.625,97.6953 Q295.8594,97.9531 295.8594,98.5625 L295.8594,100.0156 Q295.8594,100.625 295.625,100.8906 Q295.3906,101.1563 295.0156,101.1563 Q294.6719,101.1563 294.4688,100.9531 Q294.2656,100.7656 294.1563,100.25 Q294.1094,99.8906 293.9219,99.7031 Q293.5938,99.3281 292.9844,99.1094 Q292.375,98.8906 291.75,98.8906 Q290.9844,98.8906 290.3516,99.2188 Q289.7188,99.5469 289.2266,100.2969 Q288.7344,101.0469 288.7344,102.0781 L288.7344,103.1719 Q288.7344,104.4063 289.625,105.2266 Q290.5156,106.0469 292.1094,106.0469 Q293.0469,106.0469 293.7031,105.7969 Q294.0938,105.6406 294.5156,105.2031 Q294.7813,104.9375 294.9297,104.8594 Q295.0781,104.7813 295.2813,104.7813 Q295.6094,104.7813 295.8672,105.0391 Q296.125,105.2969 296.125,105.6406 Q296.125,105.9844 295.7813,106.3906 Q295.2813,106.9688 294.4844,107.2969 Q293.4063,107.75 292.1094,107.75 Q290.5938,107.75 289.3906,107.125 Q288.4063,106.625 287.7188,105.5547 Q287.0313,104.4844 287.0313,103.2031 L287.0313,102.0469 Q287.0313,100.7188 287.6484,99.5703 Q288.2656,98.4219 289.3594,97.8047 Q290.4531,97.1875 291.6875,97.1875 Q292.4219,97.1875 293.0703,97.3516 Q293.7188,97.5156 294.2656,97.875 Z " fill="#000000"/><text fill="#000000" font-family="sans-serif" font-size="14" lengthAdjust="spacing" textLength="119" x="305.5" y="107.7285">FacturationService</text><line style="stroke:#181818;stroke-width:0.5;" x1="277.5" x2="426.5" y1="118" y2="118"/><line style="stroke:#181818;stroke-width:0.5;" x1="277.5" x2="426.5" y1="126" y2="126"/></g><!--MD5=[fddb4831a884190bbe61dfb3ce634f75]
link Usager to Véhicules--><g id="link_Usager_Véhicules"><path codeLine="41" d="M286.38,382.01 C272.38,391.23 255.12,400.86 238,406 C219.57,411.53 79.22,401.04 65,414 C62.225,416.5294 59.7195,419.2623 57.4609,422.1642 C56.3316,423.6151 55.2641,425.1083 54.2554,426.6393 C53.751,427.4049 53.2614,428.1799 52.7861,428.9638 C52.6673,429.1598 52.5494,429.3564 52.4324,429.5535 " fill="none" id="Usager-to-Véhicules" style="stroke:#181818;stroke-width:1.0;"/><polygon fill="#181818" points="52.4324,429.5535,60.4666,423.8569,54.985,425.2542,53.5878,419.7726,52.4324,429.5535" style="stroke:#181818;stroke-width:1.0;"/></g><!--MD5=[eb46be30a75b2a8c3f9f5fd7ffcde3a1]
link Réserver to Usager--><g id="link_Réserver_Usager"><path codeLine="42" d="M377.72,258.23 C365.26,278.5 347.16,307.94 333.97,329.4 " fill="none" id="Réserver-to-Usager" style="stroke:#181818;stroke-width:1.0;"/><polygon fill="#181818" points="331.23,333.85,339.3483,328.2739,333.8465,329.5893,332.5311,324.0875,331.23,333.85" style="stroke:#181818;stroke-width:1.0;"/></g><!--MD5=[64bdd2d10267f4f7697a2c79028d9356]
link Réserver to Véhicules--><g id="link_Réserver_Véhicules"><path codeLine="43" d="M397.6,258.25 C405.05,295.62 412.94,368.61 372,406 C346.81,429.01 90.45,391.27 65,414 C62.1994,416.5013 59.6714,419.2095 57.3933,422.0898 C56.2542,423.5299 55.1775,425.0131 54.1604,426.5349 C53.6519,427.2958 53.1582,428.0664 52.6791,428.8461 C52.5593,429.041 52.4404,429.2365 52.3225,429.4325 " fill="none" id="Réserver-to-Véhicules" style="stroke:#181818;stroke-width:1.0;"/><polygon fill="#181818" points="52.3225,429.4325,60.3901,423.7833,54.9004,425.1483,53.5354,419.6586,52.3225,429.4325" style="stroke:#181818;stroke-width:1.0;"/></g><!--MD5=[8cd828701a1fa8e7059e03251c673d07]
link GéolocalisationService to Véhicules--><g id="link_GéolocalisationService_Véhicules"><path codeLine="44" d="M94.65,382.17 C83.33,390.75 72.13,401.49 65,414 C63.14,417.2619 61.437,420.6371 59.8786,424.0995 C59.0994,425.8307 58.3564,427.5837 57.648,429.3551 " fill="none" id="GéolocalisationService-to-Véhicules" style="stroke:#181818;stroke-width:1.0;"/><polygon fill="#181818" points="57.648,429.3551,64.7038,422.4837,59.5045,424.7126,57.2757,419.5133,57.648,429.3551" style="stroke:#181818;stroke-width:1.0;"/></g><!--MD5=[0190abee7d5c4dabfdb151a30163cafc]
link FacturationService to Usager--><g id="link_FacturationService_Usager"><path codeLine="45" d="M341.46,134.09 C337.51,143.75 333.4,155.22 331,166 C318.4,222.61 316.47,290.74 316.52,328.42 " fill="none" id="FacturationService-to-Usager" style="stroke:#181818;stroke-width:1.0;"/><polygon fill="#181818" points="316.54,333.75,320.5143,324.7386,316.5257,328.75,312.5143,324.7615,316.54,333.75" style="stroke:#181818;stroke-width:1.0;"/></g><!--MD5=[2cd31eed5db83d0eaadea97f01aa722d]
link FacturationService to Réserver--><g id="link_FacturationService_Réserver"><path codeLine="46" d="M359.62,134.23 C366.21,154.33 375.75,183.45 382.77,204.86 " fill="none" id="FacturationService-to-Réserver" style="stroke:#181818;stroke-width:1.0;"/><polygon fill="#181818" points="384.41,209.85,385.4118,200.0522,382.8546,205.0981,377.8087,202.5409,384.41,209.85" style="stroke:#181818;stroke-width:1.0;"/></g><!--MD5=[d37523e841e949147d1c6291ba4fc68d]
@startuml
package "PolyAuto" {
    package "Utilisateurs" {
        class Usager
    }
    package "Véhicules" {
        abstract class Véhicule {
            + getMarque() : string
            + setMarque(marque : string) : void
            + getModèle() : string
            + setModèle(modèle : string) : void
            + getNuméroSérie() : string
            + setNuméroSérie(numéroSérie : string) : void
        }
        class Voiture {
            - nombrePlaces : int
            - couleur : string
        }
        class Scooter {
            - puissance : int
            - typeBatterie : string
        }
        class Vélo {
            - type : string
            - tailleCadre : string
        }
        class Trottinette {
            - autonomie : int
            - poidsMaxSupporté : int
        }
    }
    package "Réservations" {
        class Réserver
    }
    package "Géolocalisation" {
        class GéolocalisationService
    }
    package "Facturation" {
        class FacturationService
    }
    
    Usager - -> Véhicules
    Réserver - -> Usager
    Réserver - -> Véhicules
    GéolocalisationService - -> Véhicules
    FacturationService - -> Usager
    FacturationService - -> Réserver
}
@enduml

PlantUML version 1.2022.7(Mon Aug 22 13:01:30 EDT 2022)
(GPL source distribution)
Java Runtime: Java(TM) SE Runtime Environment
JVM: Java HotSpot(TM) 64-Bit Server VM
Default Encoding: Cp1252
Language: en
Country: CA
--></g></svg>