<?xml version="1.0" encoding="UTF-8" standalone="no"?><svg xmlns="http://www.w3.org/2000/svg" xmlns:xlink="http://www.w3.org/1999/xlink" contentStyleType="text/css" height="569px" preserveAspectRatio="none" style="width:691px;height:569px;background:#00000000;" version="1.1" viewBox="0 0 691 569" width="691px" zoomAndPan="magnify"><defs/><g><!--MD5=[3880d21fc32e50405c2bba3a3c1e0cfa]
cluster PolyAuto--><g id="cluster_PolyAuto"><path d="M8.5,6 L70.5,6 A3.75,3.75 0 0 1 73,8.5 L80,29.6094 L681.5,29.6094 A2.5,2.5 0 0 1 684,32.1094 L684,559.5 A2.5,2.5 0 0 1 681.5,562 L8.5,562 A2.5,2.5 0 0 1 6,559.5 L6,8.5 A2.5,2.5 0 0 1 8.5,6 " fill="none" style="stroke:#000000;stroke-width:1.5;"/><line style="stroke:#000000;stroke-width:1.5;" x1="6" x2="80" y1="29.6094" y2="29.6094"/><text fill="#000000" font-family="sans-serif" font-size="14" font-weight="bold" lengthAdjust="spacing" textLength="61" x="10" y="22.5332">PolyAuto</text></g><!--MD5=[fa6bce53004cfa21966bda77b3e20fcb]
cluster Utilisateurs--><g id="cluster_Utilisateurs"><path d="M79.5,174 L160.5,174 A3.75,3.75 0 0 1 163,176.5 L170,197.6094 L538.5,197.6094 A2.5,2.5 0 0 1 541,200.1094 L541,271.5 A2.5,2.5 0 0 1 538.5,274 L79.5,274 A2.5,2.5 0 0 1 77,271.5 L77,176.5 A2.5,2.5 0 0 1 79.5,174 " fill="none" style="stroke:#000000;stroke-width:1.5;"/><line style="stroke:#000000;stroke-width:1.5;" x1="77" x2="170" y1="197.6094" y2="197.6094"/><text fill="#000000" font-family="sans-serif" font-size="14" font-weight="bold" lengthAdjust="spacing" textLength="80" x="81" y="190.5332">Utilisateurs</text></g><!--MD5=[a0fa905be51a620876281384c1e1592b]
cluster Véhicules--><g id="cluster_Véhicules"><path d="M272.5,306 L342.5,306 A3.75,3.75 0 0 1 345,308.5 L352,329.6094 L649.5,329.6094 A2.5,2.5 0 0 1 652,332.1094 L652,527.5 A2.5,2.5 0 0 1 649.5,530 L272.5,530 A2.5,2.5 0 0 1 270,527.5 L270,308.5 A2.5,2.5 0 0 1 272.5,306 " fill="none" style="stroke:#000000;stroke-width:1.5;"/><line style="stroke:#000000;stroke-width:1.5;" x1="270" x2="352" y1="329.6094" y2="329.6094"/><text fill="#000000" font-family="sans-serif" font-size="14" font-weight="bold" lengthAdjust="spacing" textLength="69" x="274" y="322.5332">Véhicules</text></g><!--MD5=[30d69fc939637c29eac03588701cb648]
cluster Réservations--><g id="cluster_Réservations"><path d="M229.5,50 L324.5,50 A3.75,3.75 0 0 1 327,52.5 L334,73.6094 L346.5,73.6094 A2.5,2.5 0 0 1 349,76.1094 L349,147.5 A2.5,2.5 0 0 1 346.5,150 L229.5,150 A2.5,2.5 0 0 1 227,147.5 L227,52.5 A2.5,2.5 0 0 1 229.5,50 " fill="none" style="stroke:#000000;stroke-width:1.5;"/><line style="stroke:#000000;stroke-width:1.5;" x1="227" x2="334" y1="73.6094" y2="73.6094"/><text fill="#000000" font-family="sans-serif" font-size="14" font-weight="bold" lengthAdjust="spacing" textLength="94" x="231" y="66.5332">Réservations</text></g><!--MD5=[c71651416f70aa54eac7aac988194129]
cluster Géolocalisation--><g id="cluster_Géolocalisation"><path d="M32.5,314 L142.5,314 A3.75,3.75 0 0 1 145,316.5 L152,337.6094 L235.5,337.6094 A2.5,2.5 0 0 1 238,340.1094 L238,411.5 A2.5,2.5 0 0 1 235.5,414 L32.5,414 A2.5,2.5 0 0 1 30,411.5 L30,316.5 A2.5,2.5 0 0 1 32.5,314 " fill="none" style="stroke:#000000;stroke-width:1.5;"/><line style="stroke:#000000;stroke-width:1.5;" x1="30" x2="152" y1="337.6094" y2="337.6094"/><text fill="#000000" font-family="sans-serif" font-size="14" font-weight="bold" lengthAdjust="spacing" textLength="109" x="34" y="330.5332">Géolocalisation</text></g><!--MD5=[ffe49301365913940c985a645681e007]
class Usager--><g id="elem_Usager"><rect codeLine="9" fill="#F1F1F1" height="48" id="Usager" rx="2.5" ry="2.5" style="stroke:#181818;stroke-width:0.5;" width="77" x="447.5" y="210"/><ellipse cx="462.5" cy="226" fill="#ADD1B2" rx="11" ry="11" style="stroke:#181818;stroke-width:1.0;"/><path d="M465.2656,221.875 Q465.4219,221.6563 465.6094,221.5469 Q465.7969,221.4375 466.0156,221.4375 Q466.3906,221.4375 466.625,221.6953 Q466.8594,221.9531 466.8594,222.5625 L466.8594,224.0156 Q466.8594,224.625 466.625,224.8906 Q466.3906,225.1563 466.0156,225.1563 Q465.6719,225.1563 465.4688,224.9531 Q465.2656,224.7656 465.1563,224.25 Q465.1094,223.8906 464.9219,223.7031 Q464.5938,223.3281 463.9844,223.1094 Q463.375,222.8906 462.75,222.8906 Q461.9844,222.8906 461.3516,223.2188 Q460.7188,223.5469 460.2266,224.2969 Q459.7344,225.0469 459.7344,226.0781 L459.7344,227.1719 Q459.7344,228.4063 460.625,229.2266 Q461.5156,230.0469 463.1094,230.0469 Q464.0469,230.0469 464.7031,229.7969 Q465.0938,229.6406 465.5156,229.2031 Q465.7813,228.9375 465.9297,228.8594 Q466.0781,228.7813 466.2813,228.7813 Q466.6094,228.7813 466.8672,229.0391 Q467.125,229.2969 467.125,229.6406 Q467.125,229.9844 466.7813,230.3906 Q466.2813,230.9688 465.4844,231.2969 Q464.4063,231.75 463.1094,231.75 Q461.5938,231.75 460.3906,231.125 Q459.4063,230.625 458.7188,229.5547 Q458.0313,228.4844 458.0313,227.2031 L458.0313,226.0469 Q458.0313,224.7188 458.6484,223.5703 Q459.2656,222.4219 460.3594,221.8047 Q461.4531,221.1875 462.6875,221.1875 Q463.4219,221.1875 464.0703,221.3516 Q464.7188,221.5156 465.2656,221.875 Z " fill="#000000"/><text fill="#000000" font-family="sans-serif" font-size="14" lengthAdjust="spacing" textLength="45" x="476.5" y="231.7285">Usager</text><line style="stroke:#181818;stroke-width:0.5;" x1="448.5" x2="523.5" y1="242" y2="242"/><line style="stroke:#181818;stroke-width:0.5;" x1="448.5" x2="523.5" y1="250" y2="250"/></g><!--MD5=[222729d60a1599a1e14b3636264e4d82]
class PermisSAAQ--><g id="elem_PermisSAAQ"><rect codeLine="10" fill="#F1F1F1" height="48" id="PermisSAAQ" rx="2.5" ry="2.5" style="stroke:#181818;stroke-width:0.5;" width="113" x="299.5" y="210"/><ellipse cx="314.5" cy="226" fill="#ADD1B2" rx="11" ry="11" style="stroke:#181818;stroke-width:1.0;"/><path d="M317.2656,221.875 Q317.4219,221.6563 317.6094,221.5469 Q317.7969,221.4375 318.0156,221.4375 Q318.3906,221.4375 318.625,221.6953 Q318.8594,221.9531 318.8594,222.5625 L318.8594,224.0156 Q318.8594,224.625 318.625,224.8906 Q318.3906,225.1563 318.0156,225.1563 Q317.6719,225.1563 317.4688,224.9531 Q317.2656,224.7656 317.1563,224.25 Q317.1094,223.8906 316.9219,223.7031 Q316.5938,223.3281 315.9844,223.1094 Q315.375,222.8906 314.75,222.8906 Q313.9844,222.8906 313.3516,223.2188 Q312.7188,223.5469 312.2266,224.2969 Q311.7344,225.0469 311.7344,226.0781 L311.7344,227.1719 Q311.7344,228.4063 312.625,229.2266 Q313.5156,230.0469 315.1094,230.0469 Q316.0469,230.0469 316.7031,229.7969 Q317.0938,229.6406 317.5156,229.2031 Q317.7813,228.9375 317.9297,228.8594 Q318.0781,228.7813 318.2813,228.7813 Q318.6094,228.7813 318.8672,229.0391 Q319.125,229.2969 319.125,229.6406 Q319.125,229.9844 318.7813,230.3906 Q318.2813,230.9688 317.4844,231.2969 Q316.4063,231.75 315.1094,231.75 Q313.5938,231.75 312.3906,231.125 Q311.4063,230.625 310.7188,229.5547 Q310.0313,228.4844 310.0313,227.2031 L310.0313,226.0469 Q310.0313,224.7188 310.6484,223.5703 Q311.2656,222.4219 312.3594,221.8047 Q313.4531,221.1875 314.6875,221.1875 Q315.4219,221.1875 316.0703,221.3516 Q316.7188,221.5156 317.2656,221.875 Z " fill="#000000"/><text fill="#000000" font-family="sans-serif" font-size="14" lengthAdjust="spacing" textLength="81" x="328.5" y="231.7285">PermisSAAQ</text><line style="stroke:#181818;stroke-width:0.5;" x1="300.5" x2="411.5" y1="242" y2="242"/><line style="stroke:#181818;stroke-width:0.5;" x1="300.5" x2="411.5" y1="250" y2="250"/></g><!--MD5=[8a92dafb730a78ed5169366df7a91f66]
class CompagnieAssurance--><g id="elem_CompagnieAssurance"><rect codeLine="11" fill="#F1F1F1" height="48" id="CompagnieAssurance" rx="2.5" ry="2.5" style="stroke:#181818;stroke-width:0.5;" width="171" x="93.5" y="210"/><ellipse cx="108.5" cy="226" fill="#ADD1B2" rx="11" ry="11" style="stroke:#181818;stroke-width:1.0;"/><path d="M111.2656,221.875 Q111.4219,221.6563 111.6094,221.5469 Q111.7969,221.4375 112.0156,221.4375 Q112.3906,221.4375 112.625,221.6953 Q112.8594,221.9531 112.8594,222.5625 L112.8594,224.0156 Q112.8594,224.625 112.625,224.8906 Q112.3906,225.1563 112.0156,225.1563 Q111.6719,225.1563 111.4688,224.9531 Q111.2656,224.7656 111.1563,224.25 Q111.1094,223.8906 110.9219,223.7031 Q110.5938,223.3281 109.9844,223.1094 Q109.375,222.8906 108.75,222.8906 Q107.9844,222.8906 107.3516,223.2188 Q106.7188,223.5469 106.2266,224.2969 Q105.7344,225.0469 105.7344,226.0781 L105.7344,227.1719 Q105.7344,228.4063 106.625,229.2266 Q107.5156,230.0469 109.1094,230.0469 Q110.0469,230.0469 110.7031,229.7969 Q111.0938,229.6406 111.5156,229.2031 Q111.7813,228.9375 111.9297,228.8594 Q112.0781,228.7813 112.2813,228.7813 Q112.6094,228.7813 112.8672,229.0391 Q113.125,229.2969 113.125,229.6406 Q113.125,229.9844 112.7813,230.3906 Q112.2813,230.9688 111.4844,231.2969 Q110.4063,231.75 109.1094,231.75 Q107.5938,231.75 106.3906,231.125 Q105.4063,230.625 104.7188,229.5547 Q104.0313,228.4844 104.0313,227.2031 L104.0313,226.0469 Q104.0313,224.7188 104.6484,223.5703 Q105.2656,222.4219 106.3594,221.8047 Q107.4531,221.1875 108.6875,221.1875 Q109.4219,221.1875 110.0703,221.3516 Q110.7188,221.5156 111.2656,221.875 Z " fill="#000000"/><text fill="#000000" font-family="sans-serif" font-size="14" lengthAdjust="spacing" textLength="139" x="122.5" y="231.7285">CompagnieAssurance</text><line style="stroke:#181818;stroke-width:0.5;" x1="94.5" x2="263.5" y1="242" y2="242"/><line style="stroke:#181818;stroke-width:0.5;" x1="94.5" x2="263.5" y1="250" y2="250"/></g><!--MD5=[6d16c7213d1660779827d29f34a11482]
class Véhicule--><g id="elem_Véhicule"><rect codeLine="14" fill="#F1F1F1" height="48" id="Véhicule" rx="2.5" ry="2.5" style="stroke:#181818;stroke-width:0.5;" width="86" x="313" y="350"/><ellipse cx="328" cy="366" fill="#A9DCDF" rx="11" ry="11" style="stroke:#181818;stroke-width:1.0;"/><path d="M330.1875,367.7656 L326.0469,367.7656 L325.625,368.7969 L326.0469,368.7969 Q326.6563,368.7969 326.9219,369.0313 Q327.1875,369.2656 327.1875,369.6563 Q327.1875,370.0313 326.9219,370.2656 Q326.6563,370.5 326.0469,370.5 L323.75,370.5 Q323.1406,370.5 322.8828,370.2656 Q322.625,370.0313 322.625,369.6406 Q322.625,369.2656 322.8984,369.0234 Q323.1719,368.7813 323.7969,368.7969 L326.4688,362.1406 L325.3594,362.1406 Q324.75,362.1406 324.4844,361.9063 Q324.2188,361.6719 324.2188,361.2813 Q324.2188,360.9063 324.4844,360.6719 Q324.75,360.4375 325.3594,360.4375 L329.0313,360.4375 L332.4219,368.7969 Q333.0156,368.7969 333.2031,368.9375 Q333.5938,369.2031 333.5938,369.6563 Q333.5938,370.0313 333.3359,370.2656 Q333.0781,370.5 332.4688,370.5 L330.1719,370.5 Q329.5625,370.5 329.2969,370.2656 Q329.0313,370.0313 329.0313,369.6406 Q329.0313,369.2656 329.2969,369.0313 Q329.5625,368.7969 330.1719,368.7969 L330.5938,368.7969 L330.1875,367.7656 Z M329.4688,366.0625 L328.1094,362.6875 L326.7344,366.0625 L329.4688,366.0625 Z " fill="#000000"/><text fill="#000000" font-family="sans-serif" font-size="14" font-style="italic" lengthAdjust="spacing" textLength="54" x="342" y="371.7285">Véhicule</text><line style="stroke:#181818;stroke-width:0.5;" x1="314" x2="398" y1="382" y2="382"/><line style="stroke:#181818;stroke-width:0.5;" x1="314" x2="398" y1="390" y2="390"/></g><!--MD5=[1d3308a050e4b472ad871965582028ae]
class Voiture--><g id="elem_Voiture"><rect codeLine="15" fill="#F1F1F1" height="48" id="Voiture" rx="2.5" ry="2.5" style="stroke:#181818;stroke-width:0.5;" width="77" x="434.5" y="350"/><ellipse cx="449.5" cy="366" fill="#ADD1B2" rx="11" ry="11" style="stroke:#181818;stroke-width:1.0;"/><path d="M452.2656,361.875 Q452.4219,361.6563 452.6094,361.5469 Q452.7969,361.4375 453.0156,361.4375 Q453.3906,361.4375 453.625,361.6953 Q453.8594,361.9531 453.8594,362.5625 L453.8594,364.0156 Q453.8594,364.625 453.625,364.8906 Q453.3906,365.1563 453.0156,365.1563 Q452.6719,365.1563 452.4688,364.9531 Q452.2656,364.7656 452.1563,364.25 Q452.1094,363.8906 451.9219,363.7031 Q451.5938,363.3281 450.9844,363.1094 Q450.375,362.8906 449.75,362.8906 Q448.9844,362.8906 448.3516,363.2188 Q447.7188,363.5469 447.2266,364.2969 Q446.7344,365.0469 446.7344,366.0781 L446.7344,367.1719 Q446.7344,368.4063 447.625,369.2266 Q448.5156,370.0469 450.1094,370.0469 Q451.0469,370.0469 451.7031,369.7969 Q452.0938,369.6406 452.5156,369.2031 Q452.7813,368.9375 452.9297,368.8594 Q453.0781,368.7813 453.2813,368.7813 Q453.6094,368.7813 453.8672,369.0391 Q454.125,369.2969 454.125,369.6406 Q454.125,369.9844 453.7813,370.3906 Q453.2813,370.9688 452.4844,371.2969 Q451.4063,371.75 450.1094,371.75 Q448.5938,371.75 447.3906,371.125 Q446.4063,370.625 445.7188,369.5547 Q445.0313,368.4844 445.0313,367.2031 L445.0313,366.0469 Q445.0313,364.7188 445.6484,363.5703 Q446.2656,362.4219 447.3594,361.8047 Q448.4531,361.1875 449.6875,361.1875 Q450.4219,361.1875 451.0703,361.3516 Q451.7188,361.5156 452.2656,361.875 Z " fill="#000000"/><text fill="#000000" font-family="sans-serif" font-size="14" lengthAdjust="spacing" textLength="45" x="463.5" y="371.7285">Voiture</text><line style="stroke:#181818;stroke-width:0.5;" x1="435.5" x2="510.5" y1="382" y2="382"/><line style="stroke:#181818;stroke-width:0.5;" x1="435.5" x2="510.5" y1="390" y2="390"/></g><!--MD5=[f4402668d5d5bb8485350c0fdb60ac8e]
class Scooter--><g id="elem_Scooter"><rect codeLine="16" fill="#F1F1F1" height="48" id="Scooter" rx="2.5" ry="2.5" style="stroke:#181818;stroke-width:0.5;" width="81" x="546.5" y="350"/><ellipse cx="561.5" cy="366" fill="#ADD1B2" rx="11" ry="11" style="stroke:#181818;stroke-width:1.0;"/><path d="M564.2656,361.875 Q564.4219,361.6563 564.6094,361.5469 Q564.7969,361.4375 565.0156,361.4375 Q565.3906,361.4375 565.625,361.6953 Q565.8594,361.9531 565.8594,362.5625 L565.8594,364.0156 Q565.8594,364.625 565.625,364.8906 Q565.3906,365.1563 565.0156,365.1563 Q564.6719,365.1563 564.4688,364.9531 Q564.2656,364.7656 564.1563,364.25 Q564.1094,363.8906 563.9219,363.7031 Q563.5938,363.3281 562.9844,363.1094 Q562.375,362.8906 561.75,362.8906 Q560.9844,362.8906 560.3516,363.2188 Q559.7188,363.5469 559.2266,364.2969 Q558.7344,365.0469 558.7344,366.0781 L558.7344,367.1719 Q558.7344,368.4063 559.625,369.2266 Q560.5156,370.0469 562.1094,370.0469 Q563.0469,370.0469 563.7031,369.7969 Q564.0938,369.6406 564.5156,369.2031 Q564.7813,368.9375 564.9297,368.8594 Q565.0781,368.7813 565.2813,368.7813 Q565.6094,368.7813 565.8672,369.0391 Q566.125,369.2969 566.125,369.6406 Q566.125,369.9844 565.7813,370.3906 Q565.2813,370.9688 564.4844,371.2969 Q563.4063,371.75 562.1094,371.75 Q560.5938,371.75 559.3906,371.125 Q558.4063,370.625 557.7188,369.5547 Q557.0313,368.4844 557.0313,367.2031 L557.0313,366.0469 Q557.0313,364.7188 557.6484,363.5703 Q558.2656,362.4219 559.3594,361.8047 Q560.4531,361.1875 561.6875,361.1875 Q562.4219,361.1875 563.0703,361.3516 Q563.7188,361.5156 564.2656,361.875 Z " fill="#000000"/><text fill="#000000" font-family="sans-serif" font-size="14" lengthAdjust="spacing" textLength="49" x="575.5" y="371.7285">Scooter</text><line style="stroke:#181818;stroke-width:0.5;" x1="547.5" x2="626.5" y1="382" y2="382"/><line style="stroke:#181818;stroke-width:0.5;" x1="547.5" x2="626.5" y1="390" y2="390"/></g><!--MD5=[4c21d3e7a49cddee53640303865d1189]
class Vélo--><g id="elem_Vélo"><rect codeLine="17" fill="#F1F1F1" height="48" id="Vélo" rx="2.5" ry="2.5" style="stroke:#181818;stroke-width:0.5;" width="60" x="326" y="458"/><ellipse cx="341" cy="474" fill="#ADD1B2" rx="11" ry="11" style="stroke:#181818;stroke-width:1.0;"/><path d="M343.7656,469.875 Q343.9219,469.6563 344.1094,469.5469 Q344.2969,469.4375 344.5156,469.4375 Q344.8906,469.4375 345.125,469.6953 Q345.3594,469.9531 345.3594,470.5625 L345.3594,472.0156 Q345.3594,472.625 345.125,472.8906 Q344.8906,473.1563 344.5156,473.1563 Q344.1719,473.1563 343.9688,472.9531 Q343.7656,472.7656 343.6563,472.25 Q343.6094,471.8906 343.4219,471.7031 Q343.0938,471.3281 342.4844,471.1094 Q341.875,470.8906 341.25,470.8906 Q340.4844,470.8906 339.8516,471.2188 Q339.2188,471.5469 338.7266,472.2969 Q338.2344,473.0469 338.2344,474.0781 L338.2344,475.1719 Q338.2344,476.4063 339.125,477.2266 Q340.0156,478.0469 341.6094,478.0469 Q342.5469,478.0469 343.2031,477.7969 Q343.5938,477.6406 344.0156,477.2031 Q344.2813,476.9375 344.4297,476.8594 Q344.5781,476.7813 344.7813,476.7813 Q345.1094,476.7813 345.3672,477.0391 Q345.625,477.2969 345.625,477.6406 Q345.625,477.9844 345.2813,478.3906 Q344.7813,478.9688 343.9844,479.2969 Q342.9063,479.75 341.6094,479.75 Q340.0938,479.75 338.8906,479.125 Q337.9063,478.625 337.2188,477.5547 Q336.5313,476.4844 336.5313,475.2031 L336.5313,474.0469 Q336.5313,472.7188 337.1484,471.5703 Q337.7656,470.4219 338.8594,469.8047 Q339.9531,469.1875 341.1875,469.1875 Q341.9219,469.1875 342.5703,469.3516 Q343.2188,469.5156 343.7656,469.875 Z " fill="#000000"/><text fill="#000000" font-family="sans-serif" font-size="14" lengthAdjust="spacing" textLength="28" x="355" y="479.7285">Vélo</text><line style="stroke:#181818;stroke-width:0.5;" x1="327" x2="385" y1="490" y2="490"/><line style="stroke:#181818;stroke-width:0.5;" x1="327" x2="385" y1="498" y2="498"/></g><!--MD5=[7726155e634e7133b6721e735a08bdea]
class Trottinette--><g id="elem_Trottinette"><rect codeLine="18" fill="#F1F1F1" height="48" id="Trottinette" rx="2.5" ry="2.5" style="stroke:#181818;stroke-width:0.5;" width="97" x="421.5" y="458"/><ellipse cx="436.5" cy="474" fill="#ADD1B2" rx="11" ry="11" style="stroke:#181818;stroke-width:1.0;"/><path d="M439.2656,469.875 Q439.4219,469.6563 439.6094,469.5469 Q439.7969,469.4375 440.0156,469.4375 Q440.3906,469.4375 440.625,469.6953 Q440.8594,469.9531 440.8594,470.5625 L440.8594,472.0156 Q440.8594,472.625 440.625,472.8906 Q440.3906,473.1563 440.0156,473.1563 Q439.6719,473.1563 439.4688,472.9531 Q439.2656,472.7656 439.1563,472.25 Q439.1094,471.8906 438.9219,471.7031 Q438.5938,471.3281 437.9844,471.1094 Q437.375,470.8906 436.75,470.8906 Q435.9844,470.8906 435.3516,471.2188 Q434.7188,471.5469 434.2266,472.2969 Q433.7344,473.0469 433.7344,474.0781 L433.7344,475.1719 Q433.7344,476.4063 434.625,477.2266 Q435.5156,478.0469 437.1094,478.0469 Q438.0469,478.0469 438.7031,477.7969 Q439.0938,477.6406 439.5156,477.2031 Q439.7813,476.9375 439.9297,476.8594 Q440.0781,476.7813 440.2813,476.7813 Q440.6094,476.7813 440.8672,477.0391 Q441.125,477.2969 441.125,477.6406 Q441.125,477.9844 440.7813,478.3906 Q440.2813,478.9688 439.4844,479.2969 Q438.4063,479.75 437.1094,479.75 Q435.5938,479.75 434.3906,479.125 Q433.4063,478.625 432.7188,477.5547 Q432.0313,476.4844 432.0313,475.2031 L432.0313,474.0469 Q432.0313,472.7188 432.6484,471.5703 Q433.2656,470.4219 434.3594,469.8047 Q435.4531,469.1875 436.6875,469.1875 Q437.4219,469.1875 438.0703,469.3516 Q438.7188,469.5156 439.2656,469.875 Z " fill="#000000"/><text fill="#000000" font-family="sans-serif" font-size="14" lengthAdjust="spacing" textLength="65" x="450.5" y="479.7285">Trottinette</text><line style="stroke:#181818;stroke-width:0.5;" x1="422.5" x2="517.5" y1="490" y2="490"/><line style="stroke:#181818;stroke-width:0.5;" x1="422.5" x2="517.5" y1="498" y2="498"/></g><!--MD5=[65495260c482efb70f1cc6f8ffa1725e]
class Réserver--><g id="elem_Réserver"><rect codeLine="21" fill="#F1F1F1" height="48" id="Réserver" rx="2.5" ry="2.5" style="stroke:#181818;stroke-width:0.5;" width="90" x="243" y="86"/><ellipse cx="258" cy="102" fill="#ADD1B2" rx="11" ry="11" style="stroke:#181818;stroke-width:1.0;"/><path d="M260.7656,97.875 Q260.9219,97.6563 261.1094,97.5469 Q261.2969,97.4375 261.5156,97.4375 Q261.8906,97.4375 262.125,97.6953 Q262.3594,97.9531 262.3594,98.5625 L262.3594,100.0156 Q262.3594,100.625 262.125,100.8906 Q261.8906,101.1563 261.5156,101.1563 Q261.1719,101.1563 260.9688,100.9531 Q260.7656,100.7656 260.6563,100.25 Q260.6094,99.8906 260.4219,99.7031 Q260.0938,99.3281 259.4844,99.1094 Q258.875,98.8906 258.25,98.8906 Q257.4844,98.8906 256.8516,99.2188 Q256.2188,99.5469 255.7266,100.2969 Q255.2344,101.0469 255.2344,102.0781 L255.2344,103.1719 Q255.2344,104.4063 256.125,105.2266 Q257.0156,106.0469 258.6094,106.0469 Q259.5469,106.0469 260.2031,105.7969 Q260.5938,105.6406 261.0156,105.2031 Q261.2813,104.9375 261.4297,104.8594 Q261.5781,104.7813 261.7813,104.7813 Q262.1094,104.7813 262.3672,105.0391 Q262.625,105.2969 262.625,105.6406 Q262.625,105.9844 262.2813,106.3906 Q261.7813,106.9688 260.9844,107.2969 Q259.9063,107.75 258.6094,107.75 Q257.0938,107.75 255.8906,107.125 Q254.9063,106.625 254.2188,105.5547 Q253.5313,104.4844 253.5313,103.2031 L253.5313,102.0469 Q253.5313,100.7188 254.1484,99.5703 Q254.7656,98.4219 255.8594,97.8047 Q256.9531,97.1875 258.1875,97.1875 Q258.9219,97.1875 259.5703,97.3516 Q260.2188,97.5156 260.7656,97.875 Z " fill="#000000"/><text fill="#000000" font-family="sans-serif" font-size="14" lengthAdjust="spacing" textLength="58" x="272" y="107.7285">Réserver</text><line style="stroke:#181818;stroke-width:0.5;" x1="244" x2="332" y1="118" y2="118"/><line style="stroke:#181818;stroke-width:0.5;" x1="244" x2="332" y1="126" y2="126"/></g><!--MD5=[4a7a687f5dbe7c2560fd447760c7bb43]
class GéolocalisationService--><g id="elem_GéolocalisationService"><rect codeLine="24" fill="#F1F1F1" height="48" id="GéolocalisationService" rx="2.5" ry="2.5" style="stroke:#181818;stroke-width:0.5;" width="176" x="46" y="350"/><ellipse cx="61" cy="366" fill="#ADD1B2" rx="11" ry="11" style="stroke:#181818;stroke-width:1.0;"/><path d="M63.7656,361.875 Q63.9219,361.6563 64.1094,361.5469 Q64.2969,361.4375 64.5156,361.4375 Q64.8906,361.4375 65.125,361.6953 Q65.3594,361.9531 65.3594,362.5625 L65.3594,364.0156 Q65.3594,364.625 65.125,364.8906 Q64.8906,365.1563 64.5156,365.1563 Q64.1719,365.1563 63.9688,364.9531 Q63.7656,364.7656 63.6563,364.25 Q63.6094,363.8906 63.4219,363.7031 Q63.0938,363.3281 62.4844,363.1094 Q61.875,362.8906 61.25,362.8906 Q60.4844,362.8906 59.8516,363.2188 Q59.2188,363.5469 58.7266,364.2969 Q58.2344,365.0469 58.2344,366.0781 L58.2344,367.1719 Q58.2344,368.4063 59.125,369.2266 Q60.0156,370.0469 61.6094,370.0469 Q62.5469,370.0469 63.2031,369.7969 Q63.5938,369.6406 64.0156,369.2031 Q64.2813,368.9375 64.4297,368.8594 Q64.5781,368.7813 64.7813,368.7813 Q65.1094,368.7813 65.3672,369.0391 Q65.625,369.2969 65.625,369.6406 Q65.625,369.9844 65.2813,370.3906 Q64.7813,370.9688 63.9844,371.2969 Q62.9063,371.75 61.6094,371.75 Q60.0938,371.75 58.8906,371.125 Q57.9063,370.625 57.2188,369.5547 Q56.5313,368.4844 56.5313,367.2031 L56.5313,366.0469 Q56.5313,364.7188 57.1484,363.5703 Q57.7656,362.4219 58.8594,361.8047 Q59.9531,361.1875 61.1875,361.1875 Q61.9219,361.1875 62.5703,361.3516 Q63.2188,361.5156 63.7656,361.875 Z " fill="#000000"/><text fill="#000000" font-family="sans-serif" font-size="14" lengthAdjust="spacing" textLength="144" x="75" y="371.7285">GéolocalisationService</text><line style="stroke:#181818;stroke-width:0.5;" x1="47" x2="221" y1="382" y2="382"/><line style="stroke:#181818;stroke-width:0.5;" x1="47" x2="221" y1="390" y2="390"/></g><!--MD5=[fddb4831a884190bbe61dfb3ce634f75]
link Usager to Véhicules--><g id="link_Usager_Véhicules"><path codeLine="27" d="M479.5,258.09 C479.5,278.34 479.5,304 479.5,304 C479.5,304 278,304 278,304 C278,304 278,304.2484 278,304.7156 C278,304.9492 278,305.2375 278,305.5768 C278,305.6616 278,305.7496 278,305.8408 C278,305.8864 278,305.9327 278,305.9798 " fill="none" id="Usager-to-Véhicules" style="stroke:#181818;stroke-width:1.0;stroke-dasharray:1.0,3.0;"/><polygon fill="#181818" points="278,305.9798,282,296.9798,278,300.9798,274,296.9798,278,305.9798" style="stroke:#181818;stroke-width:1.0;"/><text fill="#000000" font-family="sans-serif" font-size="13" lengthAdjust="spacing" textLength="56" x="309.93" y="300.4951">«access»</text></g><!--MD5=[eb46be30a75b2a8c3f9f5fd7ffcde3a1]
link Réserver to Usager--><g id="link_Réserver_Usager"><path codeLine="28" d="M333.43,110 C391.88,110 486,110 486,110 C486,110 486,204.8 486,204.8 " fill="none" id="Réserver-to-Usager" style="stroke:#181818;stroke-width:1.0;stroke-dasharray:1.0,3.0;"/><polygon fill="#181818" points="486,209.8,490,200.8,486,204.8,482,200.8,486,209.8" style="stroke:#181818;stroke-width:1.0;"/><text fill="#000000" font-family="sans-serif" font-size="13" lengthAdjust="spacing" textLength="56" x="400.11" y="106.4951">«access»</text></g><!--MD5=[64bdd2d10267f4f7697a2c79028d9356]
link Réserver to Véhicules--><g id="link_Réserver_Véhicules"><path codeLine="29" d="M289.25,134.36 C289.25,167.04 289.25,226.95 289.25,278.69 C289.25,285.1575 289.25,291.4973 289.25,297.6404 C289.25,299.1762 289.25,300.6996 289.25,302.2097 C289.25,302.9647 289.25,303.7164 289.25,304.4646 C289.25,304.8388 289.25,305.212 289.25,305.5843 " fill="none" id="Réserver-to-Véhicules" style="stroke:#181818;stroke-width:1.0;stroke-dasharray:1.0,3.0;"/><polygon fill="#181818" points="289.25,305.5843,293.25,296.5843,289.25,300.5843,285.25,296.5843,289.25,305.5843" style="stroke:#181818;stroke-width:1.0;"/><text fill="#000000" font-family="sans-serif" font-size="13" lengthAdjust="spacing" textLength="56" x="232.25" y="274.0551">«access»</text></g><!--MD5=[8cd828701a1fa8e7059e03251c673d07]
link GéolocalisationService to Véhicules--><g id="link_GéolocalisationService_Véhicules"><path codeLine="30" d="M222.33,374 C235.835,374 248.5325,374 258.3813,374 C260.8434,374 263.1276,374 265.2018,374 C266.2389,374 267.2235,374 268.1516,374 C268.6157,374 269.0657,374 269.501,374 C269.6098,374 269.7177,374 269.8247,374 C269.8782,374 269.9315,374 269.9846,374 " fill="none" id="GéolocalisationService-to-Véhicules" style="stroke:#181818;stroke-width:1.0;stroke-dasharray:1.0,3.0;"/><polygon fill="#181818" points="269.9846,374,260.9846,370,264.9846,374,260.9846,378,269.9846,374" style="stroke:#181818;stroke-width:1.0;"/><text fill="#000000" font-family="sans-serif" font-size="13" lengthAdjust="spacing" textLength="56" x="250.83" y="370.4951">«access»</text></g><!--MD5=[f6d836775dc85d9eea9e068a5318b1d9]
@startuml
skinparam linetype polyline
 skinparam linetype ortho
 skinparam backgroundcolor transparent

package "PolyAuto" {
    skinparam backgroundcolor transparent
    skinparam classAttributeIconSize 0
    package "Utilisateurs" {
        class Usager
        class PermisSAAQ
        class CompagnieAssurance
    }
    package "Véhicules" {
        abstract class Véhicule
        class Voiture
        class Scooter
        class Vélo
        class Trottinette
    }
    package "Réservations" {
        class Réserver
    }
    package "Géolocalisation" {
        class GéolocalisationService
    }
    
    Usager -[dotted]-> Véhicules : <<access>>
    Réserver -[dotted]-> Usager : <<access>>
    Réserver -[dotted]> Véhicules : <<access>>
    GéolocalisationService -[dotted]> Véhicules : <<access>>
}
@enduml

PlantUML version 1.2022.7(Mon Aug 22 13:01:30 EDT 2022)
(GPL source distribution)
Java Runtime: Java(TM) SE Runtime Environment
JVM: Java HotSpot(TM) 64-Bit Server VM
Default Encoding: Cp1252
Language: en
Country: CA
--></g></svg>