<?xml version="1.0" encoding="UTF-8" standalone="no"?><svg xmlns="http://www.w3.org/2000/svg" xmlns:xlink="http://www.w3.org/1999/xlink" contentStyleType="text/css" height="792px" preserveAspectRatio="none" style="width:838px;height:792px;background:#FFFFFF;" version="1.1" viewBox="0 0 838 792" width="838px" zoomAndPan="magnify"><defs/><g><!--MD5=[3880d21fc32e50405c2bba3a3c1e0cfa]
cluster PolyAuto--><g id="cluster_PolyAuto"><path d="M8.5,6 L74.5,6 A3.75,3.75 0 0 1 77,8.5 L84,28.4883 L828.5,28.4883 A2.5,2.5 0 0 1 831,30.9883 L831,782.85 A2.5,2.5 0 0 1 828.5,785.35 L8.5,785.35 A2.5,2.5 0 0 1 6,782.85 L6,8.5 A2.5,2.5 0 0 1 8.5,6 " fill="none" style="stroke:#000000;stroke-width:1.5;"/><line style="stroke:#000000;stroke-width:1.5;" x1="6" x2="84" y1="28.4883" y2="28.4883"/><text fill="#000000" font-family="sans-serif" font-size="14" font-weight="bold" lengthAdjust="spacing" textLength="65" x="10" y="21.5352">PolyAuto</text></g><!--MD5=[fa6bce53004cfa21966bda77b3e20fcb]
cluster Utilisateurs--><g id="cluster_Utilisateurs"><path d="M32.5,283.98 L117.5,283.98 A3.75,3.75 0 0 1 120,286.48 L127,306.4683 L127.5,306.4683 A2.5,2.5 0 0 1 130,308.9683 L130,374.97 A2.5,2.5 0 0 1 127.5,377.47 L32.5,377.47 A2.5,2.5 0 0 1 30,374.97 L30,286.48 A2.5,2.5 0 0 1 32.5,283.98 " fill="none" style="stroke:#000000;stroke-width:1.5;"/><line style="stroke:#000000;stroke-width:1.5;" x1="30" x2="127" y1="306.4683" y2="306.4683"/><text fill="#000000" font-family="sans-serif" font-size="14" font-weight="bold" lengthAdjust="spacing" textLength="84" x="34" y="299.5152">Utilisateurs</text></g><!--MD5=[a0fa905be51a620876281384c1e1592b]
cluster Véhicules--><g id="cluster_Véhicules"><path d="M40.5,409.47 L110.5,409.47 A3.75,3.75 0 0 1 113,411.97 L120,431.9583 L796.5,431.9583 A2.5,2.5 0 0 1 799,434.4583 L799,750.85 A2.5,2.5 0 0 1 796.5,753.35 L40.5,753.35 A2.5,2.5 0 0 1 38,750.85 L38,411.97 A2.5,2.5 0 0 1 40.5,409.47 " fill="none" style="stroke:#000000;stroke-width:1.5;"/><line style="stroke:#000000;stroke-width:1.5;" x1="38" x2="120" y1="431.9583" y2="431.9583"/><text fill="#000000" font-family="sans-serif" font-size="14" font-weight="bold" lengthAdjust="spacing" textLength="69" x="42" y="425.0052">Véhicules</text></g><!--MD5=[30d69fc939637c29eac03588701cb648]
cluster Réservations--><g id="cluster_Réservations"><path d="M96.5,166.49 L190.5,166.49 A3.75,3.75 0 0 1 193,168.99 L200,188.9783 L200.5,188.9783 A2.5,2.5 0 0 1 203,191.4783 L203,257.48 A2.5,2.5 0 0 1 200.5,259.98 L96.5,259.98 A2.5,2.5 0 0 1 94,257.48 L94,168.99 A2.5,2.5 0 0 1 96.5,166.49 " fill="none" style="stroke:#000000;stroke-width:1.5;"/><line style="stroke:#000000;stroke-width:1.5;" x1="94" x2="200" y1="188.9783" y2="188.9783"/><text fill="#000000" font-family="sans-serif" font-size="14" font-weight="bold" lengthAdjust="spacing" textLength="93" x="98" y="182.0252">Réservations</text></g><!--MD5=[c71651416f70aa54eac7aac988194129]
cluster Géolocalisation--><g id="cluster_Géolocalisation"><path d="M169.5,283.98 L281.5,283.98 A3.75,3.75 0 0 1 284,286.48 L291,306.4683 L354.5,306.4683 A2.5,2.5 0 0 1 357,308.9683 L357,374.97 A2.5,2.5 0 0 1 354.5,377.47 L169.5,377.47 A2.5,2.5 0 0 1 167,374.97 L167,286.48 A2.5,2.5 0 0 1 169.5,283.98 " fill="none" style="stroke:#000000;stroke-width:1.5;"/><line style="stroke:#000000;stroke-width:1.5;" x1="167" x2="291" y1="306.4683" y2="306.4683"/><text fill="#000000" font-family="sans-serif" font-size="14" font-weight="bold" lengthAdjust="spacing" textLength="111" x="171" y="299.5152">Géolocalisation</text></g><!--MD5=[41d2f0445c250550771cda487ea10d9f]
cluster Facturation--><g id="cluster_Facturation"><path d="M48.5,49 L130.5,49 A3.75,3.75 0 0 1 133,51.5 L140,71.4883 L207.5,71.4883 A2.5,2.5 0 0 1 210,73.9883 L210,139.99 A2.5,2.5 0 0 1 207.5,142.49 L48.5,142.49 A2.5,2.5 0 0 1 46,139.99 L46,51.5 A2.5,2.5 0 0 1 48.5,49 " fill="none" style="stroke:#000000;stroke-width:1.5;"/><line style="stroke:#000000;stroke-width:1.5;" x1="46" x2="140" y1="71.4883" y2="71.4883"/><text fill="#000000" font-family="sans-serif" font-size="14" font-weight="bold" lengthAdjust="spacing" textLength="81" x="50" y="64.5352">Facturation</text></g><!--MD5=[ffe49301365913940c985a645681e007]
class Usager--><g id="elem_Usager"><rect codeLine="5" fill="#F1F1F1" height="42.4883" id="Usager" rx="2.5" ry="2.5" style="stroke:#181818;stroke-width:0.5;" width="54" x="48" y="318.98"/><text fill="#000000" font-family="sans-serif" font-size="14" lengthAdjust="spacing" textLength="48" x="51" y="337.5152">Usager</text><line style="stroke:#181818;stroke-width:0.5;" x1="49" x2="101" y1="345.4683" y2="345.4683"/><line style="stroke:#181818;stroke-width:0.5;" x1="49" x2="101" y1="353.4683" y2="353.4683"/></g><!--MD5=[6d16c7213d1660779827d29f34a11482]
class Véhicule--><g id="elem_Véhicule"><rect codeLine="8" fill="#F1F1F1" height="141.418" id="Véhicule" rx="2.5" ry="2.5" style="stroke:#181818;stroke-width:0.5;" width="323" x="81.5" y="452.47"/><text fill="#000000" font-family="sans-serif" font-size="14" font-style="italic" lengthAdjust="spacing" textLength="58" x="214" y="471.0052">Véhicule</text><line style="stroke:#181818;stroke-width:0.5;" x1="82.5" x2="403.5" y1="478.9583" y2="478.9583"/><line style="stroke:#181818;stroke-width:0.5;" x1="82.5" x2="403.5" y1="486.9583" y2="486.9583"/><text fill="#000000" font-family="sans-serif" font-size="14" lengthAdjust="spacing" textLength="147" x="87.5" y="504.4934">+getMarque() : string</text><text fill="#000000" font-family="sans-serif" font-size="14" lengthAdjust="spacing" textLength="239" x="87.5" y="520.9817">+setMarque(marque : string) : void</text><text fill="#000000" font-family="sans-serif" font-size="14" lengthAdjust="spacing" textLength="145" x="87.5" y="537.47">+getModèle() : string</text><text fill="#000000" font-family="sans-serif" font-size="14" lengthAdjust="spacing" textLength="235" x="87.5" y="553.9583">+setModèle(modèle : string) : void</text><text fill="#000000" font-family="sans-serif" font-size="14" lengthAdjust="spacing" textLength="184" x="87.5" y="570.4466">+getNuméroSérie() : string</text><text fill="#000000" font-family="sans-serif" font-size="14" lengthAdjust="spacing" textLength="311" x="87.5" y="586.9348">+setNuméroSérie(numéroSérie : string) : void</text></g><!--MD5=[1d3308a050e4b472ad871965582028ae]
class Voiture--><g id="elem_Voiture"><rect codeLine="17" fill="#F1F1F1" height="75.4648" id="Voiture" rx="2.5" ry="2.5" style="stroke:#181818;stroke-width:0.5;" width="146" x="440" y="485.44"/><text fill="#000000" font-family="sans-serif" font-size="14" lengthAdjust="spacing" textLength="50" x="488" y="503.9752">Voiture</text><line style="stroke:#181818;stroke-width:0.5;" x1="441" x2="585" y1="511.9283" y2="511.9283"/><text fill="#000000" font-family="sans-serif" font-size="14" lengthAdjust="spacing" textLength="134" x="446" y="529.4634">-nombrePlaces : int</text><text fill="#000000" font-family="sans-serif" font-size="14" lengthAdjust="spacing" textLength="112" x="446" y="545.9517">-couleur : string</text><line style="stroke:#181818;stroke-width:0.5;" x1="441" x2="585" y1="552.9048" y2="552.9048"/></g><!--MD5=[f4402668d5d5bb8485350c0fdb60ac8e]
class Scooter--><g id="elem_Scooter"><rect codeLine="21" fill="#F1F1F1" height="75.4648" id="Scooter" rx="2.5" ry="2.5" style="stroke:#181818;stroke-width:0.5;" width="153" x="621.5" y="485.44"/><text fill="#000000" font-family="sans-serif" font-size="14" lengthAdjust="spacing" textLength="52" x="672" y="503.9752">Scooter</text><line style="stroke:#181818;stroke-width:0.5;" x1="622.5" x2="773.5" y1="511.9283" y2="511.9283"/><text fill="#000000" font-family="sans-serif" font-size="14" lengthAdjust="spacing" textLength="106" x="627.5" y="529.4634">-puissance : int</text><text fill="#000000" font-family="sans-serif" font-size="14" lengthAdjust="spacing" textLength="141" x="627.5" y="545.9517">-typeBatterie : string</text><line style="stroke:#181818;stroke-width:0.5;" x1="622.5" x2="773.5" y1="552.9048" y2="552.9048"/></g><!--MD5=[4c21d3e7a49cddee53640303865d1189]
class Vélo--><g id="elem_Vélo"><rect codeLine="25" fill="#F1F1F1" height="75.4648" id="Vélo" rx="2.5" ry="2.5" style="stroke:#181818;stroke-width:0.5;" width="146" x="170" y="653.89"/><text fill="#000000" font-family="sans-serif" font-size="14" lengthAdjust="spacing" textLength="30" x="228" y="672.4252">Vélo</text><line style="stroke:#181818;stroke-width:0.5;" x1="171" x2="315" y1="680.3783" y2="680.3783"/><text fill="#000000" font-family="sans-serif" font-size="14" lengthAdjust="spacing" textLength="89" x="176" y="697.9134">-type : string</text><text fill="#000000" font-family="sans-serif" font-size="14" lengthAdjust="spacing" textLength="134" x="176" y="714.4017">-tailleCadre : string</text><line style="stroke:#181818;stroke-width:0.5;" x1="171" x2="315" y1="721.3548" y2="721.3548"/></g><!--MD5=[7726155e634e7133b6721e735a08bdea]
class Trottinette--><g id="elem_Trottinette"><rect codeLine="29" fill="#F1F1F1" height="75.4648" id="Trottinette" rx="2.5" ry="2.5" style="stroke:#181818;stroke-width:0.5;" width="180" x="351" y="653.89"/><text fill="#000000" font-family="sans-serif" font-size="14" lengthAdjust="spacing" textLength="73" x="404.5" y="672.4252">Trottinette</text><line style="stroke:#181818;stroke-width:0.5;" x1="352" x2="530" y1="680.3783" y2="680.3783"/><text fill="#000000" font-family="sans-serif" font-size="14" lengthAdjust="spacing" textLength="112" x="357" y="697.9134">-autonomie : int</text><text fill="#000000" font-family="sans-serif" font-size="14" lengthAdjust="spacing" textLength="168" x="357" y="714.4017">-poidsMaxSupporté : int</text><line style="stroke:#181818;stroke-width:0.5;" x1="352" x2="530" y1="721.3548" y2="721.3548"/></g><!--MD5=[65495260c482efb70f1cc6f8ffa1725e]
class Réserver--><g id="elem_Réserver"><rect codeLine="36" fill="#F1F1F1" height="42.4883" id="Réserver" rx="2.5" ry="2.5" style="stroke:#181818;stroke-width:0.5;" width="65" x="111.5" y="201.49"/><text fill="#000000" font-family="sans-serif" font-size="14" lengthAdjust="spacing" textLength="59" x="114.5" y="220.0252">Réserver</text><line style="stroke:#181818;stroke-width:0.5;" x1="112.5" x2="175.5" y1="227.9783" y2="227.9783"/><line style="stroke:#181818;stroke-width:0.5;" x1="112.5" x2="175.5" y1="235.9783" y2="235.9783"/></g><!--MD5=[4a7a687f5dbe7c2560fd447760c7bb43]
class GéolocalisationService--><g id="elem_GéolocalisationService"><rect codeLine="40" fill="#F1F1F1" height="42.4883" id="GéolocalisationService" rx="2.5" ry="2.5" style="stroke:#181818;stroke-width:0.5;" width="159" x="182.5" y="318.98"/><text fill="#000000" font-family="sans-serif" font-size="14" lengthAdjust="spacing" textLength="153" x="185.5" y="337.5152">GéolocalisationService</text><line style="stroke:#181818;stroke-width:0.5;" x1="183.5" x2="340.5" y1="345.4683" y2="345.4683"/><line style="stroke:#181818;stroke-width:0.5;" x1="183.5" x2="340.5" y1="353.4683" y2="353.4683"/></g><!--MD5=[14d23132e2eb7675f4ba38b38a7f0520]
class FacturationService--><g id="elem_FacturationService"><rect codeLine="44" fill="#F1F1F1" height="42.4883" id="FacturationService" rx="2.5" ry="2.5" style="stroke:#181818;stroke-width:0.5;" width="132" x="62" y="84"/><text fill="#000000" font-family="sans-serif" font-size="14" lengthAdjust="spacing" textLength="126" x="65" y="102.5352">FacturationService</text><line style="stroke:#181818;stroke-width:0.5;" x1="63" x2="193" y1="110.4883" y2="110.4883"/><line style="stroke:#181818;stroke-width:0.5;" x1="63" x2="193" y1="118.4883" y2="118.4883"/></g><!--MD5=[fddb4831a884190bbe61dfb3ce634f75]
link Usager to Véhicules--><g id="link_Usager_Véhicules"><path codeLine="47" d="M71.37,361.81 C69.7,371.42 67.71,383.02 66,393.47 C65.4244,396.9844 64.8439,400.5535 64.2613,404.1573 C64.1156,405.0582 63.9698,405.9613 63.8239,406.8663 C63.751,407.3188 63.6781,407.7717 63.6051,408.2251 C63.5686,408.4518 63.5321,408.6786 63.4956,408.9055 " fill="none" id="Usager-to-Véhicules" style="stroke:#181818;stroke-width:1.0;"/><polygon fill="#181818" points="63.4956,408.9055,68.8741,400.6549,64.2896,403.9689,60.9756,399.3845,63.4956,408.9055" style="stroke:#181818;stroke-width:1.0;"/></g><!--MD5=[eb46be30a75b2a8c3f9f5fd7ffcde3a1]
link Réserver to Usager--><g id="link_Réserver_Usager"><path codeLine="48" d="M131.66,244.38 C120.09,263.76 102.73,292.81 90.28,313.64 " fill="none" id="Réserver-to-Usager" style="stroke:#181818;stroke-width:1.0;"/><polygon fill="#181818" points="87.23,317.75,95.2821,312.0787,89.7962,313.4588,88.4161,307.9728,87.23,317.75" style="stroke:#181818;stroke-width:1.0;"/></g><!--MD5=[64bdd2d10267f4f7697a2c79028d9356]
link Réserver to Véhicules--><g id="link_Réserver_Véhicules"><path codeLine="49" d="M147.54,244.21 C152.19,278.6 155.83,347.89 118,385.47 C101.41,401.95 82.55,376.95 66,393.47 C63.4794,395.9863 61.1932,398.68 59.1222,401.52 C58.0867,402.94 57.1049,404.3965 56.1746,405.8856 C55.7094,406.6302 55.2571,407.3829 54.8173,408.1433 C54.5974,408.5235 54.3806,408.9056 54.167,409.2896 " fill="none" id="Réserver-to-Véhicules" style="stroke:#181818;stroke-width:1.0;"/><polygon fill="#181818" points="54.167,409.2896,62.0385,403.3702,56.5982,404.9205,55.0479,399.4802,54.167,409.2896" style="stroke:#181818;stroke-width:1.0;"/></g><!--MD5=[8cd828701a1fa8e7059e03251c673d07]
link GéolocalisationService to Véhicules--><g id="link_GéolocalisationService_Véhicules"><path codeLine="50" d="M220.71,361.93 C201.5,370.65 178.07,380.02 156,385.47 C136.51,390.28 80.66,379.74 66,393.47 C63.4006,395.9044 61.0454,398.5264 58.9141,401.3037 C57.8484,402.6923 56.8388,404.1198 55.8826,405.5821 C55.4045,406.3132 54.9397,407.0531 54.488,407.8011 C54.2622,408.1751 54.0396,408.5512 53.8203,408.9292 " fill="none" id="GéolocalisationService-to-Véhicules" style="stroke:#181818;stroke-width:1.0;"/><polygon fill="#181818" points="53.8203,408.9292,61.7969,403.1523,56.3296,404.6045,54.8774,399.1373,53.8203,408.9292" style="stroke:#181818;stroke-width:1.0;"/></g><!--MD5=[0190abee7d5c4dabfdb151a30163cafc]
link FacturationService to Usager--><g id="link_FacturationService_Usager"><path codeLine="51" d="M111.85,126.97 C105.54,136.14 98.9,147.35 95,158.49 C76.66,210.88 74.08,276.56 74.26,312.56 " fill="none" id="FacturationService-to-Usager" style="stroke:#181818;stroke-width:1.0;"/><polygon fill="#181818" points="74.32,317.5,78.2427,308.466,74.2771,312.5002,70.243,308.5346,74.32,317.5" style="stroke:#181818;stroke-width:1.0;"/></g><!--MD5=[2cd31eed5db83d0eaadea97f01aa722d]
link FacturationService to Réserver--><g id="link_FacturationService_Réserver"><path codeLine="52" d="M130.86,126.89 C133.51,146.03 137.47,174.58 140.35,195.36 " fill="none" id="FacturationService-to-Réserver" style="stroke:#181818;stroke-width:1.0;"/><polygon fill="#181818" points="141.16,200.27,143.8891,190.8068,140.4749,195.3172,135.9645,191.903,141.16,200.27" style="stroke:#181818;stroke-width:1.0;"/></g><!--MD5=[88181b60ea591ed3c908add229cc69a9]
@startuml
package "PolyAuto" {
    skinparam classAttributeIconSize 0
    package "Utilisateurs" {
        hide circle
        class Usager
    }
    package "Véhicules" {
        abstract class Véhicule {
            + getMarque() : string
            + setMarque(marque : string) : void
            + getModèle() : string
            + setModèle(modèle : string) : void
            + getNuméroSérie() : string
            + setNuméroSérie(numéroSérie : string) : void
        }
        hide circle
        class Voiture {
            - nombrePlaces : int
            - couleur : string
        }
        class Scooter {
            - puissance : int
            - typeBatterie : string
        }
        class Vélo {
            - type : string
            - tailleCadre : string
        }
        class Trottinette {
            - autonomie : int
            - poidsMaxSupporté : int
        }
    }
    package "Réservations" {
        hide circle
        class Réserver
    }
    package "Géolocalisation" {
        hide circle
        class GéolocalisationService
    }
    package "Facturation" {
        hide circle
        class FacturationService
    }
    
    Usager - -> Véhicules
    Réserver - -> Usager
    Réserver - -> Véhicules
    GéolocalisationService - -> Véhicules
    FacturationService - -> Usager
    FacturationService - -> Réserver
}
@enduml

PlantUML version 1.2022.7(Mon Aug 22 13:01:30 EDT 2022)
(GPL source distribution)
Java Runtime: OpenJDK Runtime Environment
JVM: OpenJDK 64-Bit Server VM
Default Encoding: UTF-8
Language: en
Country: CA
--></g></svg>