<?xml version="1.0" encoding="UTF-8" standalone="no"?><svg xmlns="http://www.w3.org/2000/svg" xmlns:xlink="http://www.w3.org/1999/xlink" contentStyleType="text/css" height="191px" preserveAspectRatio="none" style="width:139px;height:191px;background:#FFFFFF;" version="1.1" viewBox="0 0 139 191" width="139px" zoomAndPan="magnify"><defs/><g><ellipse cx="69.5" cy="20" fill="#222222" rx="10" ry="10" style="stroke:#222222;stroke-width:1.0;"/><rect fill="#F1F1F1" height="34.1328" rx="12.5" ry="12.5" style="stroke:#181818;stroke-width:0.5;" width="117" x="11" y="50"/><text fill="#000000" font-family="sans-serif" font-size="12" lengthAdjust="spacing" textLength="97" x="21" y="71.6016">Aller à l'aéroport</text><rect fill="#F1F1F1" height="34.1328" rx="12.5" ry="12.5" style="stroke:#181818;stroke-width:0.5;" width="106" x="16.5" y="104.1328"/><text fill="#000000" font-family="sans-serif" font-size="12" lengthAdjust="spacing" textLength="86" x="26.5" y="125.7344">Prendre l'avion</text><ellipse cx="69.5" cy="169.2656" fill="none" rx="11" ry="11" style="stroke:#222222;stroke-width:1.0;"/><ellipse cx="69.5" cy="169.2656" fill="#222222" rx="6" ry="6" style="stroke:#111111;stroke-width:1.0;"/><line style="stroke:#181818;stroke-width:1.0;" x1="69.5" x2="69.5" y1="30" y2="50"/><polygon fill="#181818" points="65.5,40,69.5,50,73.5,40,69.5,44" style="stroke:#181818;stroke-width:1.0;"/><line style="stroke:#181818;stroke-width:1.0;" x1="69.5" x2="69.5" y1="84.1328" y2="104.1328"/><polygon fill="#181818" points="65.5,94.1328,69.5,104.1328,73.5,94.1328,69.5,98.1328" style="stroke:#181818;stroke-width:1.0;"/><line style="stroke:#181818;stroke-width:1.0;" x1="69.5" x2="69.5" y1="138.2656" y2="158.2656"/><polygon fill="#181818" points="65.5,148.2656,69.5,158.2656,73.5,148.2656,69.5,152.2656" style="stroke:#181818;stroke-width:1.0;"/><!--MD5=[e5a416a54ec3d7e2bf7f7c5c0ffa978f]
@startuml
start
:Aller à l'aéroport;
:Prendre l'avion;
stop
@enduml

PlantUML version 1.2022.7(Mon Aug 22 13:01:30 EDT 2022)
(GPL source distribution)
Java Runtime: OpenJDK Runtime Environment
JVM: OpenJDK 64-Bit Server VM
Default Encoding: UTF-8
Language: en
Country: CA
--></g></svg>