<?xml version="1.0" encoding="UTF-8" standalone="no"?><svg xmlns="http://www.w3.org/2000/svg" xmlns:xlink="http://www.w3.org/1999/xlink" contentStyleType="text/css" height="68px" preserveAspectRatio="none" style="width:341px;height:68px;background:#00000000;" version="1.1" viewBox="0 0 341 68" width="341px" zoomAndPan="magnify"><defs/><g><!--MD5=[95056b5cbad1279cc73d9cc5c17a1af7]
entity mysql--><g id="elem_mysql"><path d="M214.5,16 C214.5,6 269.5,6 269.5,6 C269.5,6 324.5,6 324.5,16 L324.5,41.4883 C324.5,51.4883 269.5,51.4883 269.5,51.4883 C269.5,51.4883 214.5,51.4883 214.5,41.4883 L214.5,16 " fill="#808080" style="stroke:#181818;stroke-width:0.5;"/><path d="M214.5,16 C214.5,26 269.5,26 269.5,26 C269.5,26 324.5,26 324.5,16 " fill="none" style="stroke:#181818;stroke-width:0.5;"/><text fill="#000000" font-family="sans-serif" font-size="14" lengthAdjust="spacing" textLength="90" x="224.5" y="43.5352">Université.db</text></g><!--MD5=[81ee410568382467cd79d3c8b4701a32]
entity oracle--><g id="elem_oracle"><path d="M6,16 C6,6 92.5,6 92.5,6 C92.5,6 179,6 179,16 L179,41.4883 C179,51.4883 92.5,51.4883 92.5,51.4883 C92.5,51.4883 6,51.4883 6,41.4883 L6,16 " fill="#808080" style="stroke:#181818;stroke-width:0.5;"/><path d="M6,16 C6,26 92.5,26 92.5,26 C92.5,26 179,26 179,16 " fill="none" style="stroke:#181818;stroke-width:0.5;"/><text fill="#000000" font-family="sans-serif" font-size="14" lengthAdjust="spacing" textLength="153" x="16" y="43.5352">MinistèreÉducation.db</text></g><!--MD5=[a9254a898ed9fd32747b3ca6dd86eb97]
reverse link oracle to mysql--><g id="link_oracle_mysql"><path d="M185.01,28.75 C198.31,28.75 210.5,28.75 210.5,28.75 C210.5,28.75 211.8,28.75 214.01,28.75 " fill="none" id="oracle-backto-mysql" style="stroke:#181818;stroke-width:1.0;"/><polygon fill="#181818" points="180.27,28.75,189.27,32.75,185.27,28.75,189.27,24.75,180.27,28.75" style="stroke:#181818;stroke-width:1.0;"/></g><!--MD5=[b70a1b25ddf4e3f7a0c30f29e4dc1340]
@startuml
skinparam backgroundcolor transparent
skinparam linetype polyline

database "Université.db" as mysql #grey
database "MinistèreÉducation.db" as oracle #grey

oracle <-right- mysql

@enduml

PlantUML version 1.2022.7(Mon Aug 22 13:01:30 EDT 2022)
(GPL source distribution)
Java Runtime: OpenJDK Runtime Environment
JVM: OpenJDK 64-Bit Server VM
Default Encoding: UTF-8
Language: en
Country: CA
--></g></svg>