<?xml version="1.0" encoding="UTF-8" standalone="no"?><svg xmlns="http://www.w3.org/2000/svg" xmlns:xlink="http://www.w3.org/1999/xlink" contentStyleType="text/css" height="68px" preserveAspectRatio="none" style="width:240px;height:68px;background:#FFFFFF;" version="1.1" viewBox="0 0 240 68" width="240px" zoomAndPan="magnify"><defs/><g><!--MD5=[770389ab9df153645bc6ef28055eb2b5]
entity A--><g id="elem_A"><path d="M8.5,6 L49.5,6 A3.75,3.75 0 0 1 52,8.5 L59,27 L73.5,27 A2.5,2.5 0 0 1 76,29.5 L76,59.1094 A2.5,2.5 0 0 1 73.5,61.6094 L8.5,61.6094 A2.5,2.5 0 0 1 6,59.1094 L6,8.5 A2.5,2.5 0 0 1 8.5,6 " fill="#F1F1F1" style="stroke:#181818;stroke-width:0.5;"/><line style="stroke:#181818;stroke-width:0.5;" x1="6" x2="59" y1="27" y2="27"/><text fill="#000000" font-family="sans-serif" font-size="14" lengthAdjust="spacing" textLength="9" x="16" y="48.5332">A</text></g><!--MD5=[b2d39259b6aeabc16b394deeb0238426]
entity B--><g id="elem_B"><path d="M165.5,6 L206.5,6 A3.75,3.75 0 0 1 209,8.5 L216,27 L230.5,27 A2.5,2.5 0 0 1 233,29.5 L233,59.1094 A2.5,2.5 0 0 1 230.5,61.6094 L165.5,61.6094 A2.5,2.5 0 0 1 163,59.1094 L163,8.5 A2.5,2.5 0 0 1 165.5,6 " fill="#F1F1F1" style="stroke:#181818;stroke-width:0.5;"/><line style="stroke:#181818;stroke-width:0.5;" x1="163" x2="216" y1="27" y2="27"/><text fill="#000000" font-family="sans-serif" font-size="14" lengthAdjust="spacing" textLength="9" x="173" y="48.5332">B</text></g><!--MD5=[5e2eec62a50b26b6b0db6c12e4ee289c]
link A to B--><g id="link_A_B"><path codeLine="8" d="M76.23,34 C100.37,34 132.45,34 157.62,34 " fill="none" id="A-to-B" style="stroke:#181818;stroke-width:1.0;stroke-dasharray:1.0,3.0;"/><polygon fill="#181818" points="162.88,34,153.88,30,157.88,34,153.88,38,162.88,34" style="stroke:#181818;stroke-width:1.0;"/><text fill="#000000" font-family="sans-serif" font-size="13" lengthAdjust="spacing" textLength="50" x="94.5" y="27.4951">«import»</text></g><!--MD5=[9e62532a5ef15d16b2c1191be007046c]
@startuml
hide circle
allow_mixing
skinparam classAttributeIconSize 0

folder A
folder B

A -r[dotted]-> B : <<import>>
@enduml

PlantUML version 1.2022.7(Mon Aug 22 13:01:30 EDT 2022)
(GPL source distribution)
Java Runtime: Java(TM) SE Runtime Environment
JVM: Java HotSpot(TM) 64-Bit Server VM
Default Encoding: Cp1252
Language: en
Country: US
--></g></svg>