<?xml version="1.0" encoding="UTF-8" standalone="no"?><svg xmlns="http://www.w3.org/2000/svg" xmlns:xlink="http://www.w3.org/1999/xlink" contentStyleType="text/css" height="329px" preserveAspectRatio="none" style="width:437px;height:329px;background:#FFFFFF;" version="1.1" viewBox="0 0 437 329" width="437px" zoomAndPan="magnify"><defs/><g><ellipse cx="95" cy="48.4961" fill="#222222" rx="10" ry="10" style="stroke:#222222;stroke-width:1.0;"/><rect fill="#F1F1F1" height="34.1328" rx="12.5" ry="12.5" style="stroke:#181818;stroke-width:0.5;" width="148" x="21" y="78.4961"/><text fill="#000000" font-family="sans-serif" font-size="12" lengthAdjust="spacing" textLength="128" x="31" y="100.0977">Fournir les ingrédients</text><line style="stroke:#000000;stroke-width:1.5;" x1="15" x2="15" y1="12.2969" y2="317.0273"/><rect fill="#F1F1F1" height="34.1328" rx="12.5" ry="12.5" style="stroke:#181818;stroke-width:0.5;" width="115" x="179" y="132.6289"/><text fill="#000000" font-family="sans-serif" font-size="12" lengthAdjust="spacing" textLength="95" x="189" y="154.2305">Préparer un plat</text><line style="stroke:#000000;stroke-width:1.5;" x1="173" x2="173" y1="12.2969" y2="317.0273"/><rect fill="#F1F1F1" height="34.1328" rx="12.5" ry="12.5" style="stroke:#181818;stroke-width:0.5;" width="103" x="307" y="186.7617"/><text fill="#000000" font-family="sans-serif" font-size="12" lengthAdjust="spacing" textLength="83" x="317" y="208.3633">Manger le plat</text><rect fill="#F1F1F1" height="34.1328" rx="12.5" ry="12.5" style="stroke:#181818;stroke-width:0.5;" width="109" x="304" y="240.8945"/><text fill="#000000" font-family="sans-serif" font-size="12" lengthAdjust="spacing" textLength="89" x="314" y="262.4961">Payer l'addition</text><ellipse cx="358.5" cy="306.0273" fill="none" rx="11" ry="11" style="stroke:#222222;stroke-width:1.0;"/><ellipse cx="358.5" cy="306.0273" fill="#222222" rx="6" ry="6" style="stroke:#111111;stroke-width:1.0;"/><line style="stroke:#000000;stroke-width:1.5;" x1="298" x2="298" y1="12.2969" y2="317.0273"/><line style="stroke:#000000;stroke-width:1.5;" x1="417" x2="417" y1="12.2969" y2="317.0273"/><line style="stroke:#181818;stroke-width:1.0;" x1="95" x2="95" y1="58.4961" y2="78.4961"/><polygon fill="#181818" points="91,68.4961,95,78.4961,99,68.4961,95,72.4961" style="stroke:#181818;stroke-width:1.0;"/><line style="stroke:#181818;stroke-width:1.0;" x1="358.5" x2="358.5" y1="220.8945" y2="240.8945"/><polygon fill="#181818" points="354.5,230.8945,358.5,240.8945,362.5,230.8945,358.5,234.8945" style="stroke:#181818;stroke-width:1.0;"/><line style="stroke:#181818;stroke-width:1.0;" x1="358.5" x2="358.5" y1="275.0273" y2="295.0273"/><polygon fill="#181818" points="354.5,285.0273,358.5,295.0273,362.5,285.0273,358.5,289.0273" style="stroke:#181818;stroke-width:1.0;"/><line style="stroke:#181818;stroke-width:1.0;" x1="95" x2="95" y1="112.6289" y2="117.6289"/><line style="stroke:#181818;stroke-width:1.0;" x1="95" x2="236.5" y1="117.6289" y2="117.6289"/><line style="stroke:#181818;stroke-width:1.0;" x1="236.5" x2="236.5" y1="117.6289" y2="132.6289"/><polygon fill="#181818" points="232.5,122.6289,236.5,132.6289,240.5,122.6289,236.5,126.6289" style="stroke:#181818;stroke-width:1.0;"/><line style="stroke:#181818;stroke-width:1.0;" x1="236.5" x2="236.5" y1="166.7617" y2="171.7617"/><line style="stroke:#181818;stroke-width:1.0;" x1="236.5" x2="358.5" y1="171.7617" y2="171.7617"/><line style="stroke:#181818;stroke-width:1.0;" x1="358.5" x2="358.5" y1="171.7617" y2="186.7617"/><polygon fill="#181818" points="354.5,176.7617,358.5,186.7617,362.5,176.7617,358.5,180.7617" style="stroke:#181818;stroke-width:1.0;"/><text fill="#000000" font-family="sans-serif" font-size="18" lengthAdjust="spacing" textLength="101" x="46.5" y="29.6992">Fournisseur</text><text fill="#000000" font-family="sans-serif" font-size="18" lengthAdjust="spacing" textLength="75" x="201" y="29.6992">Cuisinier</text><text fill="#000000" font-family="sans-serif" font-size="18" lengthAdjust="spacing" textLength="50" x="335.5" y="29.6992">Client</text><!--MD5=[361cfbf0c6f6168c9bea1b9dd0e627f3]
@startuml
|f| Fournisseur
|c| Cuisinier
|e| Client
|f|
start
:Fournir les ingrédients;
|c|
:Préparer un plat;
|e|
:Manger le plat;
:Payer l'addition;

stop
@enduml

PlantUML version 1.2022.7(Mon Aug 22 13:01:30 EDT 2022)
(GPL source distribution)
Java Runtime: OpenJDK Runtime Environment
JVM: OpenJDK 64-Bit Server VM
Default Encoding: UTF-8
Language: en
Country: CA
--></g></svg>