<?xml version="1.0" encoding="UTF-8" standalone="no"?><svg xmlns="http://www.w3.org/2000/svg" xmlns:xlink="http://www.w3.org/1999/xlink" contentStyleType="text/css" height="60px" preserveAspectRatio="none" style="width:305px;height:60px;background:#FFFFFF;" version="1.1" viewBox="0 0 305 60" width="305px" zoomAndPan="magnify"><defs/><g><!--MD5=[894d2f26cb19306f1ef26206c2501e81]
entity Artefact--><g id="elem_Artefact"><rect fill="#F1F1F1" height="40.6094" rx="2.5" ry="2.5" style="stroke:#181818;stroke-width:0.5;" width="79" x="7" y="10.5"/><polygon fill="#F1F1F1" points="69,15.5,69,29.5,81,29.5,81,21.5,75,15.5,69,15.5" style="stroke:#181818;stroke-width:0.5;"/><line style="stroke:#181818;stroke-width:0.5;" x1="75" x2="75" y1="15.5" y2="21.5"/><line style="stroke:#181818;stroke-width:0.5;" x1="81" x2="75" y1="21.5" y2="21.5"/><text fill="#000000" font-family="sans-serif" font-size="14" lengthAdjust="spacing" textLength="49" x="17" y="38.0332">Artefact</text></g><!--MD5=[245d2f63106c9e261e62f339c1a83039]
entity Component--><g id="elem_Component"><rect fill="#F1F1F1" height="47.6094" rx="2.5" ry="2.5" style="stroke:#181818;stroke-width:0.5;" width="113" x="186" y="7"/><rect fill="#F1F1F1" height="10" style="stroke:#181818;stroke-width:0.5;" width="15" x="279" y="12"/><rect fill="#F1F1F1" height="2" style="stroke:#181818;stroke-width:0.5;" width="4" x="277" y="14"/><rect fill="#F1F1F1" height="2" style="stroke:#181818;stroke-width:0.5;" width="4" x="277" y="18"/><text fill="#000000" font-family="sans-serif" font-size="14" lengthAdjust="spacing" textLength="73" x="201" y="41.5332">Component</text></g><!--MD5=[15c525d8fb22cabc06551d95866fc551]
link Artefact to Component--><g id="link_Artefact_Component"><path d="M86.16,31 C113.23,31 149.64,31 180.51,31 " fill="none" id="Artefact-to-Component" style="stroke:#181818;stroke-width:1.0;stroke-dasharray:1.0,3.0;"/><polygon fill="#181818" points="185.81,31,176.81,27,180.81,31,176.81,35,185.81,31" style="stroke:#181818;stroke-width:1.0;"/><text fill="#000000" font-family="sans-serif" font-size="13" lengthAdjust="spacing" textLength="63" x="104.5" y="24.4951">«manifest»</text></g><!--MD5=[4b0289d666f4af4dc15ee359d82c0194]
@startuml

artifact Artefact
component Component

Artefact -[dotted]r-> Component : <<manifest>>

@enduml

PlantUML version 1.2022.7(Mon Aug 22 13:01:30 EDT 2022)
(GPL source distribution)
Java Runtime: Java(TM) SE Runtime Environment
JVM: Java HotSpot(TM) 64-Bit Server VM
Default Encoding: Cp1252
Language: en
Country: US
--></g></svg>