<?xml version="1.0" encoding="UTF-8" standalone="no"?><svg xmlns="http://www.w3.org/2000/svg" xmlns:xlink="http://www.w3.org/1999/xlink" contentStyleType="text/css" height="60px" preserveAspectRatio="none" style="width:299px;height:60px;background:#FFFFFF;" version="1.1" viewBox="0 0 299 60" width="299px" zoomAndPan="magnify"><defs/><g><!--MD5=[49acc3392157f5dfec840a3b63caf388]
entity Artifact--><g id="elem_Artifact"><rect fill="#F1F1F1" height="40.6094" rx="2.5" ry="2.5" style="stroke:#181818;stroke-width:0.5;" width="74" x="7" y="10.5"/><polygon fill="#F1F1F1" points="64,15.5,64,29.5,76,29.5,76,21.5,70,15.5,64,15.5" style="stroke:#181818;stroke-width:0.5;"/><line style="stroke:#181818;stroke-width:0.5;" x1="70" x2="70" y1="15.5" y2="21.5"/><line style="stroke:#181818;stroke-width:0.5;" x1="76" x2="70" y1="21.5" y2="21.5"/><text fill="#000000" font-family="sans-serif" font-size="14" lengthAdjust="spacing" textLength="44" x="17" y="38.0332">Artifact</text></g><!--MD5=[245d2f63106c9e261e62f339c1a83039]
entity Component--><g id="elem_Component"><rect fill="#F1F1F1" height="47.6094" rx="2.5" ry="2.5" style="stroke:#181818;stroke-width:0.5;" width="113" x="180.5" y="7"/><rect fill="#F1F1F1" height="10" style="stroke:#181818;stroke-width:0.5;" width="15" x="273.5" y="12"/><rect fill="#F1F1F1" height="2" style="stroke:#181818;stroke-width:0.5;" width="4" x="271.5" y="14"/><rect fill="#F1F1F1" height="2" style="stroke:#181818;stroke-width:0.5;" width="4" x="271.5" y="18"/><text fill="#000000" font-family="sans-serif" font-size="14" lengthAdjust="spacing" textLength="73" x="195.5" y="41.5332">Component</text></g><!--MD5=[7ed1e6a5d9d22ede181f7b40100edd48]
link Artifact to Component--><g id="link_Artifact_Component"><path d="M81.21,31 C107.72,31 143.97,31 174.84,31 " fill="none" id="Artifact-to-Component" style="stroke:#181818;stroke-width:1.0;stroke-dasharray:1.0,3.0;"/><polygon fill="#181818" points="180.14,31,171.14,27,175.14,31,171.14,35,180.14,31" style="stroke:#181818;stroke-width:1.0;"/><text fill="#000000" font-family="sans-serif" font-size="13" lengthAdjust="spacing" textLength="63" x="99.25" y="24.4951">«manifest»</text></g><!--MD5=[18597ff0f162ce1678f3ce44263a3f3e]
@startuml

artifact Artifact
component Component

Artifact -[dotted]r-> Component : <<manifest>>

@enduml

PlantUML version 1.2022.7(Mon Aug 22 13:01:30 EDT 2022)
(GPL source distribution)
Java Runtime: Java(TM) SE Runtime Environment
JVM: Java HotSpot(TM) 64-Bit Server VM
Default Encoding: Cp1252
Language: en
Country: US
--></g></svg>