<?xml version="1.0" encoding="UTF-8" standalone="no"?><svg xmlns="http://www.w3.org/2000/svg" xmlns:xlink="http://www.w3.org/1999/xlink" contentStyleType="text/css" height="59px" preserveAspectRatio="none" style="width:319px;height:59px;background:#00000000;" version="1.1" viewBox="0 0 319 59" width="319px" zoomAndPan="magnify"><defs/><g><!--MD5=[49acc3392157f5dfec840a3b63caf388]
entity Artifact--><g id="elem_Artifact"><rect fill="#F1F1F1" height="39.4883" rx="2.5" ry="2.5" style="stroke:#181818;stroke-width:0.5;" width="80" x="7" y="10.5"/><polygon fill="#F1F1F1" points="70,15.5,70,29.5,82,29.5,82,21.5,76,15.5,70,15.5" style="stroke:#181818;stroke-width:0.5;"/><line style="stroke:#181818;stroke-width:0.5;" x1="76" x2="76" y1="15.5" y2="21.5"/><line style="stroke:#181818;stroke-width:0.5;" x1="82" x2="76" y1="21.5" y2="21.5"/><text fill="#000000" font-family="sans-serif" font-size="14" lengthAdjust="spacing" textLength="50" x="17" y="37.0352">Artifact</text></g><!--MD5=[245d2f63106c9e261e62f339c1a83039]
entity Component--><g id="elem_Component"><rect fill="#F1F1F1" height="46.4883" rx="2.5" ry="2.5" style="stroke:#181818;stroke-width:0.5;" width="121" x="192.5" y="7"/><rect fill="#F1F1F1" height="10" style="stroke:#181818;stroke-width:0.5;" width="15" x="293.5" y="12"/><rect fill="#F1F1F1" height="2" style="stroke:#181818;stroke-width:0.5;" width="4" x="291.5" y="14"/><rect fill="#F1F1F1" height="2" style="stroke:#181818;stroke-width:0.5;" width="4" x="291.5" y="18"/><text fill="#000000" font-family="sans-serif" font-size="14" lengthAdjust="spacing" textLength="81" x="207.5" y="40.5352">Component</text></g><!--MD5=[7ed1e6a5d9d22ede181f7b40100edd48]
link Artifact to Component--><g id="link_Artifact_Component"><path d="M87.21,30.25 C115.43,30.25 153.83,30.25 186.57,30.25 " fill="none" id="Artifact-to-Component" style="stroke:#181818;stroke-width:1.0;stroke-dasharray:1.0,3.0;"/><polygon fill="#181818" points="191.19,30.25,182.19,26.25,186.19,30.25,182.19,34.25,191.19,30.25" style="stroke:#181818;stroke-width:1.0;"/><text fill="#000000" font-family="sans-serif" font-size="13" lengthAdjust="spacing" textLength="69" x="105.25" y="23.8184">«manifest»</text></g><!--MD5=[c920cf3431fa0751ece3b7db28f860e8]
@startuml
skinparam backgroundcolor transparent
artifact Artifact
component Component

Artifact -[dotted]r-> Component : <<manifest>>

@enduml

PlantUML version 1.2022.7(Mon Aug 22 13:01:30 EDT 2022)
(GPL source distribution)
Java Runtime: OpenJDK Runtime Environment
JVM: OpenJDK 64-Bit Server VM
Default Encoding: UTF-8
Language: en
Country: CA
--></g></svg>