<?xml version="1.0" encoding="UTF-8" standalone="no"?><svg xmlns="http://www.w3.org/2000/svg" xmlns:xlink="http://www.w3.org/1999/xlink" contentStyleType="text/css" height="59px" preserveAspectRatio="none" style="width:321px;height:59px;background:#00000000;" version="1.1" viewBox="0 0 321 59" width="321px" zoomAndPan="magnify"><defs/><g><!--MD5=[c9b9aff16590ca2b4118c9ad8e42bc07]
entity Artéfact--><g id="elem_Artéfact"><rect fill="#F1F1F1" height="39.4883" rx="2.5" ry="2.5" style="stroke:#181818;stroke-width:0.5;" width="84" x="7" y="10.5"/><polygon fill="#F1F1F1" points="74,15.5,74,29.5,86,29.5,86,21.5,80,15.5,74,15.5" style="stroke:#181818;stroke-width:0.5;"/><line style="stroke:#181818;stroke-width:0.5;" x1="80" x2="80" y1="15.5" y2="21.5"/><line style="stroke:#181818;stroke-width:0.5;" x1="86" x2="80" y1="21.5" y2="21.5"/><text fill="#000000" font-family="sans-serif" font-size="14" lengthAdjust="spacing" textLength="54" x="17" y="37.0352">Artéfact</text></g><!--MD5=[694df1530ad39ff06ae1a4bc29125753]
entity Composant--><g id="elem_Composant"><rect fill="#F1F1F1" height="46.4883" rx="2.5" ry="2.5" style="stroke:#181818;stroke-width:0.5;" width="119" x="196.5" y="7"/><rect fill="#F1F1F1" height="10" style="stroke:#181818;stroke-width:0.5;" width="15" x="295.5" y="12"/><rect fill="#F1F1F1" height="2" style="stroke:#181818;stroke-width:0.5;" width="4" x="293.5" y="14"/><rect fill="#F1F1F1" height="2" style="stroke:#181818;stroke-width:0.5;" width="4" x="293.5" y="18"/><text fill="#000000" font-family="sans-serif" font-size="14" lengthAdjust="spacing" textLength="79" x="211.5" y="40.5352">Composant</text></g><!--MD5=[83033359c31be64411f22fa310b7f3fd]
link Artéfact to Composant--><g id="link_Artéfact_Composant"><path d="M91.39,30.25 C119.78,30.25 157.74,30.25 190.05,30.25 " fill="none" id="Artéfact-to-Composant" style="stroke:#181818;stroke-width:1.0;stroke-dasharray:1.0,3.0;"/><polygon fill="#181818" points="195.01,30.25,186.01,26.25,190.01,30.25,186.01,34.25,195.01,30.25" style="stroke:#181818;stroke-width:1.0;"/><text fill="#000000" font-family="sans-serif" font-size="13" lengthAdjust="spacing" textLength="69" x="109.25" y="23.8184">«manifest»</text></g><!--MD5=[d164e578e06e75e8457f45d48d5eeb44]
@startuml
skinparam backgroundcolor transparent
artifact Artéfact
component Composant

Artéfact -[dotted]r-> Composant : <<manifest>>

@enduml

PlantUML version 1.2022.7(Mon Aug 22 13:01:30 EDT 2022)
(GPL source distribution)
Java Runtime: OpenJDK Runtime Environment
JVM: OpenJDK 64-Bit Server VM
Default Encoding: UTF-8
Language: en
Country: CA
--></g></svg>