<svg width="556" height="127" viewBox="0 0 556 127" fill="none" xmlns="http://www.w3.org/2000/svg">
<rect x="0.5" y="0.5" width="555" height="126" rx="24.5" stroke="black"/>
<path d="M28.1637 20.8555H26.1417C26.1048 20.5939 26.0294 20.3615 25.9155 20.1584C25.8016 19.9522 25.6554 19.7768 25.4769 19.6321C25.2984 19.4875 25.0922 19.3767 24.8583 19.2997C24.6275 19.2228 24.3767 19.1843 24.1058 19.1843C23.6165 19.1843 23.1902 19.3059 22.8271 19.549C22.4639 19.7891 22.1823 20.1399 21.9822 20.6016C21.7822 21.0601 21.6822 21.6172 21.6822 22.2727C21.6822 22.9467 21.7822 23.513 21.9822 23.9716C22.1854 24.4302 22.4685 24.7764 22.8317 25.0103C23.1948 25.2442 23.6149 25.3612 24.092 25.3612C24.3597 25.3612 24.6075 25.3258 24.8352 25.255C25.0661 25.1842 25.2707 25.0811 25.4492 24.9457C25.6277 24.8072 25.7755 24.6394 25.8924 24.4425C26.0124 24.2455 26.0955 24.0208 26.1417 23.7685L28.1637 23.7777C28.1114 24.2116 27.9806 24.6302 27.7713 25.0334C27.5651 25.4335 27.2866 25.792 26.9357 26.109C26.5879 26.4229 26.1725 26.6722 25.6893 26.8569C25.2092 27.0385 24.666 27.1293 24.0597 27.1293C23.2164 27.1293 22.4624 26.9384 21.7976 26.5568C21.1359 26.1752 20.6127 25.6228 20.228 24.8995C19.8464 24.1763 19.6555 23.3007 19.6555 22.2727C19.6555 21.2417 19.8494 20.3646 20.2372 19.6413C20.625 18.9181 21.1513 18.3672 21.8161 17.9886C22.4808 17.607 23.2287 17.4162 24.0597 17.4162C24.6075 17.4162 25.1153 17.4931 25.5831 17.647C26.054 17.8009 26.471 18.0256 26.8342 18.321C27.1973 18.6134 27.4928 18.9719 27.7205 19.3967C27.9513 19.8214 28.0991 20.3076 28.1637 20.8555ZM31.5268 17.5455V27H29.5602V17.5455H31.5268ZM35.1242 27.1339C34.6718 27.1339 34.2686 27.0554 33.9147 26.8984C33.5608 26.7384 33.2807 26.503 33.0745 26.1921C32.8714 25.8782 32.7698 25.4873 32.7698 25.0195C32.7698 24.6256 32.8421 24.2947 32.9868 24.027C33.1314 23.7592 33.3284 23.5438 33.5777 23.3807C33.827 23.2176 34.1101 23.0945 34.4271 23.0114C34.7472 22.9283 35.0827 22.8698 35.4335 22.8359C35.8459 22.7929 36.1783 22.7528 36.4307 22.7159C36.683 22.6759 36.8662 22.6174 36.98 22.5405C37.0939 22.4635 37.1508 22.3497 37.1508 22.1989V22.1712C37.1508 21.8788 37.0585 21.6526 36.8738 21.4925C36.6923 21.3325 36.4337 21.2525 36.0983 21.2525C35.7443 21.2525 35.4627 21.331 35.2535 21.4879C35.0442 21.6418 34.9057 21.8357 34.838 22.0696L33.0191 21.9219C33.1114 21.491 33.293 21.1186 33.5638 20.8047C33.8347 20.4877 34.184 20.2446 34.6118 20.0753C35.0426 19.9029 35.5412 19.8168 36.1075 19.8168C36.5015 19.8168 36.8785 19.8629 37.2385 19.9553C37.6017 20.0476 37.9233 20.1907 38.2034 20.3846C38.4865 20.5785 38.7097 20.8278 38.8728 21.1325C39.0359 21.4341 39.1175 21.7957 39.1175 22.2173V27H37.2524V26.0167H37.197C37.0831 26.2383 36.9308 26.4337 36.74 26.603C36.5492 26.7692 36.3199 26.9 36.0521 26.9954C35.7844 27.0877 35.4751 27.1339 35.1242 27.1339ZM35.6874 25.7766C35.9767 25.7766 36.2322 25.7197 36.4537 25.6058C36.6753 25.4889 36.8492 25.3319 36.9754 25.1349C37.1016 24.938 37.1647 24.7148 37.1647 24.4656V23.7131C37.1031 23.7531 37.0185 23.79 36.9108 23.8239C36.8061 23.8546 36.6876 23.8839 36.5553 23.9116C36.423 23.9362 36.2906 23.9593 36.1583 23.9808C36.026 23.9993 35.9059 24.0162 35.7982 24.0316C35.5674 24.0655 35.3658 24.1193 35.1934 24.1932C35.0211 24.267 34.8872 24.3671 34.7918 24.4933C34.6964 24.6164 34.6487 24.7702 34.6487 24.9549C34.6487 25.2227 34.7456 25.4273 34.9395 25.5689C35.1365 25.7074 35.3858 25.7766 35.6874 25.7766ZM47.0001 19.9091L44.521 27H42.3051L39.8261 19.9091H41.9035L43.3762 24.9826H43.45L44.9181 19.9091H47.0001ZM49.8381 27.1339C49.3857 27.1339 48.9825 27.0554 48.6286 26.8984C48.2746 26.7384 47.9946 26.503 47.7884 26.1921C47.5852 25.8782 47.4837 25.4873 47.4837 25.0195C47.4837 24.6256 47.556 24.2947 47.7006 24.027C47.8453 23.7592 48.0423 23.5438 48.2915 23.3807C48.5408 23.2176 48.824 23.0945 49.141 23.0114C49.4611 22.9283 49.7965 22.8698 50.1474 22.8359C50.5598 22.7929 50.8922 22.7528 51.1445 22.7159C51.3969 22.6759 51.58 22.6174 51.6939 22.5405C51.8078 22.4635 51.8647 22.3497 51.8647 22.1989V22.1712C51.8647 21.8788 51.7724 21.6526 51.5877 21.4925C51.4061 21.3325 51.1476 21.2525 50.8121 21.2525C50.4582 21.2525 50.1766 21.331 49.9673 21.4879C49.758 21.6418 49.6196 21.8357 49.5518 22.0696L47.733 21.9219C47.8253 21.491 48.0069 21.1186 48.2777 20.8047C48.5485 20.4877 48.8978 20.2446 49.3256 20.0753C49.7565 19.9029 50.2551 19.8168 50.8214 19.8168C51.2153 19.8168 51.5923 19.8629 51.9524 19.9553C52.3156 20.0476 52.6372 20.1907 52.9173 20.3846C53.2004 20.5785 53.4235 20.8278 53.5866 21.1325C53.7498 21.4341 53.8313 21.7957 53.8313 22.2173V27H51.9663V26.0167H51.9109C51.797 26.2383 51.6446 26.4337 51.4538 26.603C51.263 26.7692 51.0337 26.9 50.766 26.9954C50.4982 27.0877 50.1889 27.1339 49.8381 27.1339ZM50.4013 25.7766C50.6906 25.7766 50.946 25.7197 51.1676 25.6058C51.3892 25.4889 51.5631 25.3319 51.6893 25.1349C51.8155 24.938 51.8786 24.7148 51.8786 24.4656V23.7131C51.817 23.7531 51.7324 23.79 51.6246 23.8239C51.52 23.8546 51.4015 23.8839 51.2692 23.9116C51.1368 23.9362 51.0045 23.9593 50.8722 23.9808C50.7398 23.9993 50.6198 24.0162 50.5121 24.0316C50.2813 24.0655 50.0797 24.1193 49.9073 24.1932C49.735 24.267 49.6011 24.3671 49.5057 24.4933C49.4103 24.6164 49.3626 24.7702 49.3626 24.9549C49.3626 25.2227 49.4595 25.4273 49.6534 25.5689C49.8504 25.7074 50.0997 25.7766 50.4013 25.7766ZM55.3571 27V19.9091H57.2637V21.1463H57.3375C57.4668 20.7062 57.6838 20.3738 57.9885 20.1491C58.2931 19.9214 58.644 19.8075 59.041 19.8075C59.1395 19.8075 59.2457 19.8137 59.3596 19.826C59.4734 19.8383 59.5734 19.8552 59.6596 19.8768V21.6218C59.5673 21.5941 59.4396 21.5695 59.2765 21.5479C59.1133 21.5264 58.9641 21.5156 58.8287 21.5156C58.5394 21.5156 58.2808 21.5787 58.0531 21.7049C57.8284 21.828 57.6499 22.0004 57.5176 22.2219C57.3883 22.4435 57.3237 22.699 57.3237 22.9883V27H55.3571ZM62.9593 27.1154C62.4207 27.1154 61.9329 26.9769 61.4958 26.6999C61.0619 26.4199 60.7172 26.009 60.4617 25.4673C60.2094 24.9226 60.0832 24.2547 60.0832 23.4638C60.0832 22.6513 60.214 21.9757 60.4756 21.4371C60.7372 20.8955 61.085 20.4908 61.5189 20.223C61.9559 19.9522 62.4345 19.8168 62.9546 19.8168C63.3517 19.8168 63.6825 19.8845 63.9472 20.0199C64.2149 20.1522 64.4304 20.3184 64.5935 20.5185C64.7597 20.7154 64.8859 20.9093 64.972 21.1001H65.032V17.5455H66.9941V27H65.0551V25.8643H64.972C64.8797 26.0613 64.7489 26.2567 64.5796 26.4506C64.4134 26.6415 64.1965 26.8 63.9287 26.9261C63.664 27.0523 63.3409 27.1154 62.9593 27.1154ZM63.5825 25.5504C63.8995 25.5504 64.1672 25.4643 64.3857 25.2919C64.6073 25.1165 64.7766 24.8718 64.8936 24.5579C65.0136 24.244 65.0736 23.8762 65.0736 23.4545C65.0736 23.0329 65.0151 22.6667 64.8982 22.3558C64.7812 22.045 64.6119 21.8049 64.3904 21.6357C64.1688 21.4664 63.8995 21.3817 63.5825 21.3817C63.2593 21.3817 62.9869 21.4695 62.7654 21.6449C62.5438 21.8203 62.376 22.0634 62.2622 22.3743C62.1483 22.6851 62.0914 23.0452 62.0914 23.4545C62.0914 23.867 62.1483 24.2317 62.2622 24.5487C62.3791 24.8626 62.5468 25.1088 62.7654 25.2873C62.9869 25.4627 63.2593 25.5504 63.5825 25.5504ZM71.8425 27.1385C71.1131 27.1385 70.4853 26.9908 69.959 26.6953C69.4358 26.3968 69.0326 25.9751 68.7495 25.4304C68.4663 24.8826 68.3248 24.2347 68.3248 23.4869C68.3248 22.7575 68.4663 22.1173 68.7495 21.5664C69.0326 21.0155 69.4312 20.5862 69.9451 20.2784C70.4622 19.9706 71.0685 19.8168 71.764 19.8168C72.2318 19.8168 72.6673 19.8922 73.0705 20.043C73.4767 20.1907 73.8307 20.4138 74.1323 20.7124C74.437 21.0109 74.6739 21.3864 74.8432 21.8388C75.0125 22.2881 75.0971 22.8144 75.0971 23.4176V23.9577H69.1096V22.739H73.2459C73.2459 22.4558 73.1844 22.205 73.0613 21.9865C72.9382 21.768 72.7673 21.5972 72.5488 21.4741C72.3334 21.3479 72.0826 21.2848 71.7963 21.2848C71.4978 21.2848 71.2331 21.354 71.0023 21.4925C70.7746 21.628 70.5961 21.8111 70.4668 22.0419C70.3375 22.2696 70.2714 22.5236 70.2683 22.8036V23.9624C70.2683 24.3132 70.3329 24.6164 70.4622 24.8718C70.5945 25.1272 70.7807 25.3242 71.0208 25.4627C71.2608 25.6012 71.5455 25.6705 71.8748 25.6705C72.0933 25.6705 72.2934 25.6397 72.475 25.5781C72.6565 25.5166 72.812 25.4242 72.9412 25.3011C73.0705 25.178 73.169 25.0272 73.2367 24.8487L75.0556 24.9688C74.9632 25.4058 74.774 25.7874 74.4877 26.1136C74.2046 26.4368 73.8384 26.6892 73.389 26.8707C72.9428 27.0492 72.4273 27.1385 71.8425 27.1385ZM76.3805 27V19.9091H78.2871V21.1463H78.361C78.4902 20.7062 78.7072 20.3738 79.0119 20.1491C79.3166 19.9214 79.6674 19.8075 80.0645 19.8075C80.1629 19.8075 80.2691 19.8137 80.383 19.826C80.4969 19.8383 80.5969 19.8552 80.6831 19.8768V21.6218C80.5907 21.5941 80.463 21.5695 80.2999 21.5479C80.1368 21.5264 79.9875 21.5156 79.8521 21.5156C79.5628 21.5156 79.3043 21.5787 79.0765 21.7049C78.8519 21.828 78.6734 22.0004 78.541 22.2219C78.4118 22.4435 78.3471 22.699 78.3471 22.9883V27H76.3805Z" fill="black"/>
<path d="M41 77C46.5228 77 51 72.5228 51 67C51 61.4772 46.5228 57 41 57C35.4772 57 31 61.4772 31 67C31 72.5228 35.4772 77 41 77Z" fill="#222222" stroke="#222222"/>
<path d="M183.645 50H85.3547C77.9791 50 72 55.5747 72 62.4514V71.5486C72 78.4253 77.9791 84 85.3547 84H183.645C191.021 84 197 78.4253 197 71.5486V62.4514C197 55.5747 191.021 50 183.645 50Z" fill="#F1F1F1" stroke="#181818" stroke-width="0.5"/>
<path d="M84.0568 71V62.2727H89.3239V63.2102H85.1136V66.1591H89.0511V67.0966H85.1136V70.0625H89.392V71H84.0568ZM86.2216 61.3864L87.2614 59.4091H88.4375L87.108 61.3864H86.2216ZM93.7514 71.1364C93.1378 71.1364 92.6094 70.9915 92.1662 70.7017C91.723 70.4119 91.3821 70.0128 91.1435 69.5043C90.9048 68.9957 90.7855 68.4148 90.7855 67.7614C90.7855 67.0966 90.9077 66.5099 91.152 66.0014C91.3991 65.4901 91.7429 65.0909 92.1832 64.804C92.6264 64.5142 93.1435 64.3693 93.7344 64.3693C94.1946 64.3693 94.6094 64.4545 94.9787 64.625C95.348 64.7955 95.6506 65.0341 95.8864 65.3409C96.1222 65.6477 96.2685 66.0057 96.3253 66.4148H95.3196C95.2429 66.1165 95.0724 65.8523 94.8082 65.6222C94.5469 65.3892 94.1946 65.2727 93.7514 65.2727C93.3594 65.2727 93.0156 65.375 92.7202 65.5795C92.4276 65.7812 92.1989 66.0668 92.0341 66.4361C91.8722 66.8026 91.7912 67.233 91.7912 67.7273C91.7912 68.233 91.8707 68.6733 92.0298 69.0483C92.1918 69.4233 92.419 69.7145 92.7116 69.9219C93.0071 70.1293 93.3537 70.233 93.7514 70.233C94.0128 70.233 94.25 70.1875 94.4631 70.0966C94.6761 70.0057 94.8565 69.875 95.0043 69.7045C95.152 69.5341 95.2571 69.3295 95.3196 69.0909H96.3253C96.2685 69.4773 96.1278 69.8253 95.9034 70.1349C95.6818 70.4418 95.3878 70.6861 95.0213 70.8679C94.6577 71.0469 94.2344 71.1364 93.7514 71.1364ZM97.7955 71V64.4545H98.767V65.4432H98.8352C98.9545 65.1193 99.1705 64.8565 99.483 64.6548C99.7955 64.4531 100.148 64.3523 100.54 64.3523C100.614 64.3523 100.706 64.3537 100.817 64.3565C100.928 64.3594 101.011 64.3636 101.068 64.3693V65.392C101.034 65.3835 100.956 65.3707 100.834 65.3537C100.714 65.3338 100.588 65.3239 100.455 65.3239C100.136 65.3239 99.8523 65.3906 99.6023 65.5241C99.3551 65.6548 99.1591 65.8366 99.0142 66.0696C98.8722 66.2997 98.8011 66.5625 98.8011 66.858V71H97.7955ZM102.26 71V64.4545H103.266V71H102.26ZM102.772 63.3636C102.576 63.3636 102.407 63.2969 102.265 63.1634C102.125 63.0298 102.056 62.8693 102.056 62.6818C102.056 62.4943 102.125 62.3338 102.265 62.2003C102.407 62.0668 102.576 62 102.772 62C102.968 62 103.135 62.0668 103.275 62.2003C103.417 62.3338 103.488 62.4943 103.488 62.6818C103.488 62.8693 103.417 63.0298 103.275 63.1634C103.135 63.2969 102.968 63.3636 102.772 63.3636ZM105.108 71V64.4545H106.08V65.4432H106.148C106.267 65.1193 106.483 64.8565 106.795 64.6548C107.108 64.4531 107.46 64.3523 107.852 64.3523C107.926 64.3523 108.018 64.3537 108.129 64.3565C108.24 64.3594 108.324 64.3636 108.381 64.3693V65.392C108.347 65.3835 108.268 65.3707 108.146 65.3537C108.027 65.3338 107.901 65.3239 107.767 65.3239C107.449 65.3239 107.165 65.3906 106.915 65.5241C106.668 65.6548 106.472 65.8366 106.327 66.0696C106.185 66.2997 106.114 66.5625 106.114 66.858V71H105.108ZM112.118 71.1364C111.487 71.1364 110.943 70.9972 110.486 70.7188C110.031 70.4375 109.68 70.0455 109.433 69.5426C109.189 69.0369 109.067 68.4489 109.067 67.7784C109.067 67.108 109.189 66.517 109.433 66.0057C109.68 65.4915 110.024 65.0909 110.464 64.804C110.908 64.5142 111.425 64.3693 112.016 64.3693C112.357 64.3693 112.693 64.4261 113.026 64.5398C113.358 64.6534 113.661 64.8381 113.933 65.0938C114.206 65.3466 114.423 65.6818 114.585 66.0994C114.747 66.517 114.828 67.0312 114.828 67.642V68.0682H109.783V67.1989H113.805C113.805 66.8295 113.732 66.5 113.584 66.2102C113.439 65.9205 113.232 65.6918 112.962 65.5241C112.695 65.3565 112.379 65.2727 112.016 65.2727C111.615 65.2727 111.268 65.3722 110.976 65.571C110.686 65.767 110.463 66.0227 110.307 66.3381C110.151 66.6534 110.072 66.9915 110.072 67.3523V67.9318C110.072 68.4261 110.158 68.8452 110.328 69.1889C110.501 69.5298 110.741 69.7898 111.048 69.9688C111.355 70.1449 111.712 70.233 112.118 70.233C112.382 70.233 112.621 70.196 112.834 70.1222C113.05 70.0455 113.236 69.9318 113.392 69.7812C113.548 69.6278 113.669 69.4375 113.754 69.2102L114.726 69.483C114.624 69.8125 114.452 70.1023 114.21 70.3523C113.969 70.5994 113.67 70.7926 113.315 70.9318C112.96 71.0682 112.561 71.1364 112.118 71.1364ZM123.858 68.3239V64.4545H124.864V71H123.858V69.892H123.79C123.636 70.2244 123.398 70.5071 123.074 70.7401C122.75 70.9702 122.341 71.0852 121.847 71.0852C121.438 71.0852 121.074 70.9957 120.756 70.8168C120.438 70.6349 120.188 70.3622 120.006 69.9986C119.824 69.6321 119.733 69.1705 119.733 68.6136V64.4545H120.739V68.5455C120.739 69.0227 120.872 69.4034 121.139 69.6875C121.409 69.9716 121.753 70.1136 122.17 70.1136C122.42 70.1136 122.675 70.0497 122.933 69.9219C123.195 69.794 123.413 69.598 123.589 69.3338C123.768 69.0696 123.858 68.733 123.858 68.3239ZM127.711 67.0625V71H126.706V64.4545H127.677V65.4773H127.762C127.916 65.1449 128.149 64.8778 128.461 64.6761C128.774 64.4716 129.177 64.3693 129.672 64.3693C130.115 64.3693 130.502 64.4602 130.835 64.642C131.167 64.821 131.426 65.0938 131.61 65.4602C131.795 65.8239 131.887 66.2841 131.887 66.8409V71H130.882V66.9091C130.882 66.3949 130.748 65.9943 130.481 65.7074C130.214 65.4176 129.848 65.2727 129.382 65.2727C129.061 65.2727 128.774 65.3423 128.521 65.4815C128.271 65.6207 128.074 65.8239 127.929 66.0909C127.784 66.358 127.711 66.6818 127.711 67.0625ZM137.1 71V64.4545H138.072V65.4773H138.157C138.293 65.1278 138.513 64.8565 138.817 64.6634C139.121 64.4673 139.487 64.3693 139.913 64.3693C140.344 64.3693 140.704 64.4673 140.991 64.6634C141.281 64.8565 141.506 65.1278 141.668 65.4773H141.737C141.904 65.1392 142.156 64.8707 142.491 64.6719C142.826 64.4702 143.228 64.3693 143.697 64.3693C144.282 64.3693 144.761 64.5526 145.133 64.919C145.505 65.2827 145.691 65.8494 145.691 66.6193V71H144.685V66.6193C144.685 66.1364 144.553 65.7912 144.289 65.5838C144.025 65.3764 143.714 65.2727 143.356 65.2727C142.896 65.2727 142.539 65.4119 142.286 65.6903C142.033 65.9659 141.907 66.3153 141.907 66.7386V71H140.884V66.517C140.884 66.1449 140.763 65.8452 140.522 65.6179C140.281 65.3878 139.969 65.2727 139.589 65.2727C139.327 65.2727 139.083 65.3423 138.856 65.4815C138.631 65.6207 138.45 65.8139 138.31 66.0611C138.174 66.3054 138.106 66.5881 138.106 66.9091V71H137.1ZM150.274 71.1364C149.643 71.1364 149.099 70.9972 148.642 70.7188C148.188 70.4375 147.837 70.0455 147.589 69.5426C147.345 69.0369 147.223 68.4489 147.223 67.7784C147.223 67.108 147.345 66.517 147.589 66.0057C147.837 65.4915 148.18 65.0909 148.621 64.804C149.064 64.5142 149.581 64.3693 150.172 64.3693C150.513 64.3693 150.849 64.4261 151.182 64.5398C151.514 64.6534 151.817 64.8381 152.089 65.0938C152.362 65.3466 152.58 65.6818 152.741 66.0994C152.903 66.517 152.984 67.0312 152.984 67.642V68.0682H147.939V67.1989H151.962C151.962 66.8295 151.888 66.5 151.74 66.2102C151.595 65.9205 151.388 65.6918 151.118 65.5241C150.851 65.3565 150.536 65.2727 150.172 65.2727C149.771 65.2727 149.425 65.3722 149.132 65.571C148.842 65.767 148.619 66.0227 148.463 66.3381C148.307 66.6534 148.229 66.9915 148.229 67.3523V67.9318C148.229 68.4261 148.314 68.8452 148.484 69.1889C148.658 69.5298 148.898 69.7898 149.205 69.9688C149.511 70.1449 149.868 70.233 150.274 70.233C150.538 70.233 150.777 70.196 150.99 70.1222C151.206 70.0455 151.392 69.9318 151.548 69.7812C151.705 69.6278 151.825 69.4375 151.911 69.2102L152.882 69.483C152.78 69.8125 152.608 70.1023 152.366 70.3523C152.125 70.5994 151.827 70.7926 151.472 70.9318C151.116 71.0682 150.717 71.1364 150.274 71.1364ZM159.151 65.9205L158.247 66.1761C158.19 66.0256 158.107 65.8793 157.996 65.7372C157.888 65.5923 157.74 65.473 157.553 65.3793C157.365 65.2855 157.125 65.2386 156.832 65.2386C156.432 65.2386 156.098 65.331 155.831 65.5156C155.567 65.6974 155.435 65.929 155.435 66.2102C155.435 66.4602 155.526 66.6577 155.707 66.8026C155.889 66.9474 156.173 67.0682 156.56 67.1648L157.531 67.4034C158.116 67.5455 158.553 67.7628 158.839 68.0554C159.126 68.3452 159.27 68.7187 159.27 69.1761C159.27 69.5511 159.162 69.8864 158.946 70.1818C158.733 70.4773 158.435 70.7102 158.051 70.8807C157.668 71.0511 157.222 71.1364 156.713 71.1364C156.045 71.1364 155.493 70.9915 155.055 70.7017C154.618 70.4119 154.341 69.9886 154.224 69.4318L155.179 69.1932C155.27 69.5455 155.442 69.8097 155.695 69.9858C155.95 70.1619 156.284 70.25 156.696 70.25C157.165 70.25 157.537 70.1506 157.812 69.9517C158.091 69.75 158.23 69.5085 158.23 69.2273C158.23 69 158.151 68.8097 157.991 68.6562C157.832 68.5 157.588 68.3835 157.259 68.3068L156.168 68.0511C155.568 67.9091 155.128 67.6889 154.847 67.3906C154.568 67.0895 154.429 66.7131 154.429 66.2614C154.429 65.892 154.533 65.5653 154.74 65.2812C154.95 64.9972 155.236 64.7741 155.597 64.6122C155.96 64.4503 156.372 64.3693 156.832 64.3693C157.48 64.3693 157.989 64.5114 158.358 64.7955C158.73 65.0795 158.994 65.4545 159.151 65.9205ZM165.42 65.9205L164.517 66.1761C164.46 66.0256 164.376 65.8793 164.265 65.7372C164.157 65.5923 164.01 65.473 163.822 65.3793C163.635 65.2855 163.395 65.2386 163.102 65.2386C162.701 65.2386 162.368 65.331 162.1 65.5156C161.836 65.6974 161.704 65.929 161.704 66.2102C161.704 66.4602 161.795 66.6577 161.977 66.8026C162.159 66.9474 162.443 67.0682 162.829 67.1648L163.801 67.4034C164.386 67.5455 164.822 67.7628 165.109 68.0554C165.396 68.3452 165.539 68.7187 165.539 69.1761C165.539 69.5511 165.431 69.8864 165.216 70.1818C165.002 70.4773 164.704 70.7102 164.321 70.8807C163.937 71.0511 163.491 71.1364 162.983 71.1364C162.315 71.1364 161.762 70.9915 161.325 70.7017C160.887 70.4119 160.61 69.9886 160.494 69.4318L161.449 69.1932C161.539 69.5455 161.711 69.8097 161.964 69.9858C162.22 70.1619 162.554 70.25 162.966 70.25C163.434 70.25 163.806 70.1506 164.082 69.9517C164.36 69.75 164.5 69.5085 164.5 69.2273C164.5 69 164.42 68.8097 164.261 68.6562C164.102 68.5 163.858 68.3835 163.528 68.3068L162.437 68.0511C161.838 67.9091 161.397 67.6889 161.116 67.3906C160.838 67.0895 160.699 66.7131 160.699 66.2614C160.699 65.892 160.802 65.5653 161.01 65.2812C161.22 64.9972 161.505 64.7741 161.866 64.6122C162.23 64.4503 162.642 64.3693 163.102 64.3693C163.75 64.3693 164.258 64.5114 164.627 64.7955C165 65.0795 165.264 65.4545 165.42 65.9205ZM168.979 71.1534C168.565 71.1534 168.188 71.0753 167.85 70.919C167.512 70.7599 167.244 70.5312 167.045 70.233C166.846 69.9318 166.746 69.5682 166.746 69.142C166.746 68.767 166.82 68.4631 166.968 68.2301C167.116 67.9943 167.313 67.8097 167.56 67.6761C167.808 67.5426 168.08 67.4432 168.379 67.3778C168.68 67.3097 168.982 67.2557 169.286 67.2159C169.684 67.1648 170.006 67.1264 170.254 67.1009C170.504 67.0724 170.685 67.0256 170.799 66.9602C170.915 66.8949 170.974 66.7812 170.974 66.6193V66.5852C170.974 66.1648 170.859 65.8381 170.629 65.6051C170.401 65.3722 170.056 65.2557 169.593 65.2557C169.113 65.2557 168.737 65.3608 168.464 65.571C168.191 65.7812 167.999 66.0057 167.888 66.2443L166.934 65.9034C167.104 65.5057 167.332 65.196 167.616 64.9744C167.903 64.75 168.215 64.5937 168.553 64.5057C168.894 64.4148 169.229 64.3693 169.559 64.3693C169.769 64.3693 170.011 64.3949 170.283 64.446C170.559 64.4943 170.825 64.5952 171.08 64.7486C171.339 64.902 171.553 65.1335 171.724 65.4432C171.894 65.7528 171.979 66.1676 171.979 66.6875V71H170.974V70.1136H170.923C170.854 70.2557 170.741 70.4077 170.582 70.5696C170.423 70.7315 170.211 70.8693 169.947 70.983C169.683 71.0966 169.36 71.1534 168.979 71.1534ZM169.133 70.25C169.531 70.25 169.866 70.1719 170.138 70.0156C170.414 69.8594 170.621 69.6577 170.761 69.4105C170.903 69.1634 170.974 68.9034 170.974 68.6307V67.7102C170.931 67.7614 170.837 67.8082 170.692 67.8509C170.55 67.8906 170.386 67.9261 170.198 67.9574C170.013 67.9858 169.833 68.0114 169.657 68.0341C169.484 68.054 169.343 68.071 169.235 68.0852C168.974 68.1193 168.729 68.1747 168.502 68.2514C168.278 68.3253 168.096 68.4375 167.957 68.5881C167.82 68.7358 167.752 68.9375 167.752 69.1932C167.752 69.5426 167.881 69.8068 168.14 69.9858C168.401 70.1619 168.732 70.25 169.133 70.25ZM176.457 73.5909C175.971 73.5909 175.554 73.5284 175.204 73.4034C174.855 73.2812 174.564 73.1193 174.331 72.9176C174.1 72.7188 173.917 72.5057 173.781 72.2784L174.582 71.7159C174.673 71.8352 174.788 71.9716 174.927 72.125C175.066 72.2812 175.257 72.4162 175.498 72.5298C175.743 72.6463 176.062 72.7045 176.457 72.7045C176.985 72.7045 177.422 72.5767 177.765 72.321C178.109 72.0653 178.281 71.6648 178.281 71.1193V69.7898H178.196C178.122 69.9091 178.017 70.0568 177.88 70.233C177.747 70.4062 177.554 70.5611 177.301 70.6974C177.051 70.831 176.713 70.8977 176.287 70.8977C175.758 70.8977 175.284 70.7727 174.863 70.5227C174.446 70.2727 174.115 69.9091 173.87 69.4318C173.629 68.9545 173.508 68.375 173.508 67.6932C173.508 67.0227 173.626 66.4389 173.862 65.9418C174.098 65.4418 174.426 65.0554 174.846 64.7827C175.267 64.5071 175.752 64.3693 176.304 64.3693C176.73 64.3693 177.068 64.4403 177.318 64.5824C177.571 64.7216 177.764 64.8807 177.897 65.0597C178.034 65.2358 178.139 65.3807 178.213 65.4943H178.315V64.4545H179.287V71.1875C179.287 71.75 179.159 72.2074 178.903 72.5597C178.65 72.9148 178.309 73.1747 177.88 73.3395C177.454 73.5071 176.98 73.5909 176.457 73.5909ZM176.423 69.9943C176.826 69.9943 177.167 69.902 177.446 69.7173C177.724 69.5327 177.936 69.267 178.081 68.9205C178.225 68.5739 178.298 68.1591 178.298 67.6761C178.298 67.2045 178.227 66.7884 178.085 66.4276C177.943 66.0668 177.733 65.7841 177.454 65.5795C177.176 65.375 176.832 65.2727 176.423 65.2727C175.997 65.2727 175.642 65.3807 175.358 65.5966C175.076 65.8125 174.865 66.1023 174.723 66.4659C174.583 66.8295 174.514 67.233 174.514 67.6761C174.514 68.1307 174.585 68.5327 174.727 68.8821C174.872 69.2287 175.085 69.5014 175.366 69.7003C175.65 69.8963 176.002 69.9943 176.423 69.9943ZM183.872 71.1364C183.241 71.1364 182.697 70.9972 182.24 70.7188C181.785 70.4375 181.434 70.0455 181.187 69.5426C180.943 69.0369 180.821 68.4489 180.821 67.7784C180.821 67.108 180.943 66.517 181.187 66.0057C181.434 65.4915 181.778 65.0909 182.218 64.804C182.662 64.5142 183.179 64.3693 183.77 64.3693C184.11 64.3693 184.447 64.4261 184.779 64.5398C185.112 64.6534 185.414 64.8381 185.687 65.0938C185.96 65.3466 186.177 65.6818 186.339 66.0994C186.501 66.517 186.582 67.0312 186.582 67.642V68.0682H181.537V67.1989H185.559C185.559 66.8295 185.485 66.5 185.338 66.2102C185.193 65.9205 184.985 65.6918 184.716 65.5241C184.449 65.3565 184.133 65.2727 183.77 65.2727C183.369 65.2727 183.022 65.3722 182.73 65.571C182.44 65.767 182.217 66.0227 182.061 66.3381C181.904 66.6534 181.826 66.9915 181.826 67.3523V67.9318C181.826 68.4261 181.912 68.8452 182.082 69.1889C182.255 69.5298 182.495 69.7898 182.802 69.9688C183.109 70.1449 183.466 70.233 183.872 70.233C184.136 70.233 184.375 70.196 184.588 70.1222C184.804 70.0455 184.99 69.9318 185.146 69.7812C185.302 69.6278 185.423 69.4375 185.508 69.2102L186.48 69.483C186.377 69.8125 186.206 70.1023 185.964 70.3523C185.723 70.5994 185.424 70.7926 185.069 70.9318C184.714 71.0682 184.315 71.1364 183.872 71.1364Z" fill="black"/>
<path d="M245.057 63.2727H246.318L249.284 70.517H249.386L252.352 63.2727H253.614V72H252.625V65.3693H252.54L249.812 72H248.858L246.131 65.3693H246.045V72H245.057V63.2727ZM258.341 72.1364C257.71 72.1364 257.166 71.9972 256.708 71.7188C256.254 71.4375 255.903 71.0455 255.656 70.5426C255.412 70.0369 255.289 69.4489 255.289 68.7784C255.289 68.108 255.412 67.517 255.656 67.0057C255.903 66.4915 256.247 66.0909 256.687 65.804C257.13 65.5142 257.647 65.3693 258.238 65.3693C258.579 65.3693 258.916 65.4261 259.248 65.5398C259.581 65.6534 259.883 65.8381 260.156 66.0938C260.429 66.3466 260.646 66.6818 260.808 67.0994C260.97 67.517 261.051 68.0312 261.051 68.642V69.0682H256.005V68.1989H260.028C260.028 67.8295 259.954 67.5 259.806 67.2102C259.662 66.9205 259.454 66.6918 259.184 66.5241C258.917 66.3565 258.602 66.2727 258.238 66.2727C257.838 66.2727 257.491 66.3722 257.199 66.571C256.909 66.767 256.686 67.0227 256.529 67.3381C256.373 67.6534 256.295 67.9915 256.295 68.3523V68.9318C256.295 69.4261 256.38 69.8452 256.551 70.1889C256.724 70.5298 256.964 70.7898 257.271 70.9688C257.578 71.1449 257.934 71.233 258.341 71.233C258.605 71.233 258.843 71.196 259.056 71.1222C259.272 71.0455 259.458 70.9318 259.615 70.7812C259.771 70.6278 259.892 70.4375 259.977 70.2102L260.949 70.483C260.846 70.8125 260.674 71.1023 260.433 71.3523C260.191 71.5994 259.893 71.7926 259.538 71.9318C259.183 72.0682 258.784 72.1364 258.341 72.1364ZM267.217 66.9205L266.314 67.1761C266.257 67.0256 266.173 66.8793 266.062 66.7372C265.954 66.5923 265.806 66.473 265.619 66.3793C265.431 66.2855 265.191 66.2386 264.899 66.2386C264.498 66.2386 264.164 66.331 263.897 66.5156C263.633 66.6974 263.501 66.929 263.501 67.2102C263.501 67.4602 263.592 67.6577 263.774 67.8026C263.956 67.9474 264.24 68.0682 264.626 68.1648L265.598 68.4034C266.183 68.5455 266.619 68.7628 266.906 69.0554C267.193 69.3452 267.336 69.7187 267.336 70.1761C267.336 70.5511 267.228 70.8864 267.012 71.1818C266.799 71.4773 266.501 71.7102 266.118 71.8807C265.734 72.0511 265.288 72.1364 264.779 72.1364C264.112 72.1364 263.559 71.9915 263.122 71.7017C262.684 71.4119 262.407 70.9886 262.291 70.4318L263.245 70.1932C263.336 70.5455 263.508 70.8097 263.761 70.9858C264.017 71.1619 264.35 71.25 264.762 71.25C265.231 71.25 265.603 71.1506 265.879 70.9517C266.157 70.75 266.297 70.5085 266.297 70.2273C266.297 70 266.217 69.8097 266.058 69.6562C265.899 69.5 265.654 69.3835 265.325 69.3068L264.234 69.0511C263.635 68.9091 263.194 68.6889 262.913 68.3906C262.635 68.0895 262.495 67.7131 262.495 67.2614C262.495 66.892 262.599 66.5653 262.806 66.2812C263.017 65.9972 263.302 65.7741 263.663 65.6122C264.027 65.4503 264.439 65.3693 264.899 65.3693C265.547 65.3693 266.055 65.5114 266.424 65.7955C266.797 66.0795 267.061 66.4545 267.217 66.9205ZM273.487 66.9205L272.583 67.1761C272.526 67.0256 272.442 66.8793 272.332 66.7372C272.224 66.5923 272.076 66.473 271.888 66.3793C271.701 66.2855 271.461 66.2386 271.168 66.2386C270.768 66.2386 270.434 66.331 270.167 66.5156C269.903 66.6974 269.771 66.929 269.771 67.2102C269.771 67.4602 269.862 67.6577 270.043 67.8026C270.225 67.9474 270.509 68.0682 270.896 68.1648L271.867 68.4034C272.452 68.5455 272.888 68.7628 273.175 69.0554C273.462 69.3452 273.606 69.7187 273.606 70.1761C273.606 70.5511 273.498 70.8864 273.282 71.1818C273.069 71.4773 272.771 71.7102 272.387 71.8807C272.004 72.0511 271.558 72.1364 271.049 72.1364C270.381 72.1364 269.829 71.9915 269.391 71.7017C268.954 71.4119 268.677 70.9886 268.56 70.4318L269.515 70.1932C269.606 70.5455 269.778 70.8097 270.031 70.9858C270.286 71.1619 270.62 71.25 271.032 71.25C271.501 71.25 271.873 71.1506 272.148 70.9517C272.427 70.75 272.566 70.5085 272.566 70.2273C272.566 70 272.487 69.8097 272.327 69.6562C272.168 69.5 271.924 69.3835 271.594 69.3068L270.504 69.0511C269.904 68.9091 269.464 68.6889 269.183 68.3906C268.904 68.0895 268.765 67.7131 268.765 67.2614C268.765 66.892 268.869 66.5653 269.076 66.2812C269.286 65.9972 269.572 65.7741 269.933 65.6122C270.296 65.4503 270.708 65.3693 271.168 65.3693C271.816 65.3693 272.325 65.5114 272.694 65.7955C273.066 66.0795 273.33 66.4545 273.487 66.9205ZM277.046 72.1534C276.631 72.1534 276.255 72.0753 275.917 71.919C275.578 71.7599 275.31 71.5312 275.111 71.233C274.912 70.9318 274.813 70.5682 274.813 70.142C274.813 69.767 274.887 69.4631 275.034 69.2301C275.182 68.9943 275.38 68.8097 275.627 68.6761C275.874 68.5426 276.147 68.4432 276.445 68.3778C276.746 68.3097 277.049 68.2557 277.353 68.2159C277.75 68.1648 278.073 68.1264 278.32 68.1009C278.57 68.0724 278.752 68.0256 278.865 67.9602C278.982 67.8949 279.04 67.7812 279.04 67.6193V67.5852C279.04 67.1648 278.925 66.8381 278.695 66.6051C278.468 66.3722 278.123 66.2557 277.659 66.2557C277.179 66.2557 276.803 66.3608 276.53 66.571C276.257 66.7812 276.066 67.0057 275.955 67.2443L275 66.9034C275.171 66.5057 275.398 66.196 275.682 65.9744C275.969 65.75 276.282 65.5937 276.62 65.5057C276.961 65.4148 277.296 65.3693 277.625 65.3693C277.836 65.3693 278.077 65.3949 278.35 65.446C278.625 65.4943 278.891 65.5952 279.147 65.7486C279.405 65.902 279.62 66.1335 279.79 66.4432C279.961 66.7528 280.046 67.1676 280.046 67.6875V72H279.04V71.1136H278.989C278.921 71.2557 278.807 71.4077 278.648 71.5696C278.489 71.7315 278.277 71.8693 278.013 71.983C277.749 72.0966 277.426 72.1534 277.046 72.1534ZM277.199 71.25C277.597 71.25 277.932 71.1719 278.205 71.0156C278.48 70.8594 278.688 70.6577 278.827 70.4105C278.969 70.1634 279.04 69.9034 279.04 69.6307V68.7102C278.998 68.7614 278.904 68.8082 278.759 68.8509C278.617 68.8906 278.452 68.9261 278.265 68.9574C278.08 68.9858 277.9 69.0114 277.723 69.0341C277.55 69.054 277.409 69.071 277.301 69.0852C277.04 69.1193 276.796 69.1747 276.569 69.2514C276.344 69.3253 276.162 69.4375 276.023 69.5881C275.887 69.7358 275.819 69.9375 275.819 70.1932C275.819 70.5426 275.948 70.8068 276.206 70.9858C276.468 71.1619 276.799 71.25 277.199 71.25ZM284.523 74.5909C284.038 74.5909 283.62 74.5284 283.271 74.4034C282.921 74.2812 282.63 74.1193 282.397 73.9176C282.167 73.7188 281.984 73.5057 281.847 73.2784L282.648 72.7159C282.739 72.8352 282.854 72.9716 282.994 73.125C283.133 73.2812 283.323 73.4162 283.565 73.5298C283.809 73.6463 284.129 73.7045 284.523 73.7045C285.052 73.7045 285.488 73.5767 285.832 73.321C286.175 73.0653 286.347 72.6648 286.347 72.1193V70.7898H286.262C286.188 70.9091 286.083 71.0568 285.947 71.233C285.813 71.4062 285.62 71.5611 285.367 71.6974C285.117 71.831 284.779 71.8977 284.353 71.8977C283.825 71.8977 283.35 71.7727 282.93 71.5227C282.512 71.2727 282.181 70.9091 281.937 70.4318C281.695 69.9545 281.575 69.375 281.575 68.6932C281.575 68.0227 281.692 67.4389 281.928 66.9418C282.164 66.4418 282.492 66.0554 282.913 65.7827C283.333 65.5071 283.819 65.3693 284.37 65.3693C284.796 65.3693 285.134 65.4403 285.384 65.5824C285.637 65.7216 285.83 65.8807 285.964 66.0597C286.1 66.2358 286.205 66.3807 286.279 66.4943H286.381V65.4545H287.353V72.1875C287.353 72.75 287.225 73.2074 286.969 73.5597C286.717 73.9148 286.376 74.1747 285.947 74.3395C285.521 74.5071 285.046 74.5909 284.523 74.5909ZM284.489 70.9943C284.893 70.9943 285.234 70.902 285.512 70.7173C285.79 70.5327 286.002 70.267 286.147 69.9205C286.292 69.5739 286.364 69.1591 286.364 68.6761C286.364 68.2045 286.293 67.7884 286.151 67.4276C286.009 67.0668 285.799 66.7841 285.521 66.5795C285.242 66.375 284.898 66.2727 284.489 66.2727C284.063 66.2727 283.708 66.3807 283.424 66.5966C283.143 66.8125 282.931 67.1023 282.789 67.4659C282.65 67.8295 282.58 68.233 282.58 68.6761C282.58 69.1307 282.651 69.5327 282.793 69.8821C282.938 70.2287 283.151 70.5014 283.433 70.7003C283.717 70.8963 284.069 70.9943 284.489 70.9943ZM291.938 72.1364C291.308 72.1364 290.763 71.9972 290.306 71.7188C289.852 71.4375 289.501 71.0455 289.254 70.5426C289.009 70.0369 288.887 69.4489 288.887 68.7784C288.887 68.108 289.009 67.517 289.254 67.0057C289.501 66.4915 289.844 66.0909 290.285 65.804C290.728 65.5142 291.245 65.3693 291.836 65.3693C292.177 65.3693 292.513 65.4261 292.846 65.5398C293.178 65.6534 293.481 65.8381 293.754 66.0938C294.026 66.3466 294.244 66.6818 294.406 67.0994C294.567 67.517 294.648 68.0312 294.648 68.642V69.0682H289.603V68.1989H293.626C293.626 67.8295 293.552 67.5 293.404 67.2102C293.259 66.9205 293.052 66.6918 292.782 66.5241C292.515 66.3565 292.2 66.2727 291.836 66.2727C291.435 66.2727 291.089 66.3722 290.796 66.571C290.506 66.767 290.283 67.0227 290.127 67.3381C289.971 67.6534 289.893 67.9915 289.893 68.3523V68.9318C289.893 69.4261 289.978 69.8452 290.148 70.1889C290.322 70.5298 290.562 70.7898 290.869 70.9688C291.175 71.1449 291.532 71.233 291.938 71.233C292.202 71.233 292.441 71.196 292.654 71.1222C292.87 71.0455 293.056 70.9318 293.212 70.7812C293.369 70.6278 293.489 70.4375 293.575 70.2102L294.546 70.483C294.444 70.8125 294.272 71.1023 294.031 71.3523C293.789 71.5994 293.491 71.7926 293.136 71.9318C292.781 72.0682 292.381 72.1364 291.938 72.1364Z" fill="black"/>
<path d="M515.5 79C521.575 79 526.5 74.0751 526.5 68C526.5 61.9249 521.575 57 515.5 57C509.425 57 504.5 61.9249 504.5 68C504.5 74.0751 509.425 79 515.5 79Z" stroke="#222222"/>
<path d="M515.5 74C518.814 74 521.5 71.3137 521.5 68C521.5 64.6863 518.814 62 515.5 62C512.186 62 509.5 64.6863 509.5 68C509.5 71.3137 512.186 74 515.5 74Z" fill="#222222" stroke="#111111"/>
<path d="M51.5 67H71.5" stroke="#181818"/>
<path d="M61.5 71L71.5 67L61.5 63L65.5 67L61.5 71Z" fill="#181818" stroke="#181818"/>
<path d="M468.15 51H358.85C350.649 51 344 56.5747 344 63.4514V72.5486C344 79.4253 350.649 85 358.85 85H468.15C476.351 85 483 79.4253 483 72.5486V63.4514C483 56.5747 476.351 51 468.15 51Z" fill="#F1F1F1" stroke="#181818" stroke-width="0.5"/>
<path d="M356.057 72V63.2727H361.324V64.2102H357.114V67.1591H361.051V68.0966H357.114V71.0625H361.392V72H356.057ZM364.098 68.0625V72H363.092V65.4545H364.064V66.4773H364.149C364.303 66.1449 364.536 65.8778 364.848 65.6761C365.161 65.4716 365.564 65.3693 366.058 65.3693C366.501 65.3693 366.889 65.4602 367.222 65.642C367.554 65.821 367.813 66.0938 367.997 66.4602C368.182 66.8239 368.274 67.2841 368.274 67.8409V72H367.268V67.9091C367.268 67.3949 367.135 66.9943 366.868 66.7074C366.601 66.4176 366.234 66.2727 365.768 66.2727C365.447 66.2727 365.161 66.3423 364.908 66.4815C364.658 66.6207 364.46 66.8239 364.315 67.0909C364.17 67.358 364.098 67.6818 364.098 68.0625ZM375.23 65.4545L372.809 72H371.787L369.366 65.4545H370.457L372.264 70.6705H372.332L374.139 65.4545H375.23ZM378.982 72.1364C378.391 72.1364 377.873 71.9957 377.426 71.7145C376.983 71.4332 376.637 71.0398 376.387 70.5341C376.14 70.0284 376.016 69.4375 376.016 68.7614C376.016 68.0795 376.14 67.4844 376.387 66.9759C376.637 66.4673 376.983 66.0724 377.426 65.7912C377.873 65.5099 378.391 65.3693 378.982 65.3693C379.573 65.3693 380.09 65.5099 380.533 65.7912C380.979 66.0724 381.326 66.4673 381.573 66.9759C381.823 67.4844 381.948 68.0795 381.948 68.7614C381.948 69.4375 381.823 70.0284 381.573 70.5341C381.326 71.0398 380.979 71.4332 380.533 71.7145C380.09 71.9957 379.573 72.1364 378.982 72.1364ZM378.982 71.233C379.431 71.233 379.8 71.1179 380.09 70.8878C380.38 70.6577 380.594 70.3551 380.733 69.9801C380.873 69.6051 380.942 69.1989 380.942 68.7614C380.942 68.3239 380.873 67.9162 380.733 67.5384C380.594 67.1605 380.38 66.8551 380.09 66.6222C379.8 66.3892 379.431 66.2727 378.982 66.2727C378.533 66.2727 378.164 66.3892 377.874 66.6222C377.584 66.8551 377.37 67.1605 377.23 67.5384C377.091 67.9162 377.022 68.3239 377.022 68.7614C377.022 69.1989 377.091 69.6051 377.23 69.9801C377.37 70.3551 377.584 70.6577 377.874 70.8878C378.164 71.1179 378.533 71.233 378.982 71.233ZM383.896 74.4545C383.726 74.4545 383.574 74.4403 383.44 74.4119C383.307 74.3864 383.214 74.3608 383.163 74.3352L383.419 73.4489C383.663 73.5114 383.879 73.5341 384.067 73.517C384.254 73.5 384.42 73.4162 384.565 73.2656C384.713 73.1179 384.848 72.8778 384.97 72.5455L385.158 72.0341L382.737 65.4545H383.828L385.635 70.6705H385.703L387.51 65.4545H388.601L385.822 72.9545C385.697 73.2926 385.543 73.5724 385.358 73.794C385.173 74.0185 384.959 74.1847 384.714 74.2926C384.473 74.4006 384.2 74.4545 383.896 74.4545ZM392.438 72.1364C391.808 72.1364 391.263 71.9972 390.806 71.7188C390.352 71.4375 390.001 71.0455 389.754 70.5426C389.509 70.0369 389.387 69.4489 389.387 68.7784C389.387 68.108 389.509 67.517 389.754 67.0057C390.001 66.4915 390.344 66.0909 390.785 65.804C391.228 65.5142 391.745 65.3693 392.336 65.3693C392.677 65.3693 393.013 65.4261 393.346 65.5398C393.678 65.6534 393.981 65.8381 394.254 66.0938C394.526 66.3466 394.744 66.6818 394.906 67.0994C395.067 67.517 395.148 68.0312 395.148 68.642V69.0682H390.103V68.1989H394.126C394.126 67.8295 394.052 67.5 393.904 67.2102C393.759 66.9205 393.552 66.6918 393.282 66.5241C393.015 66.3565 392.7 66.2727 392.336 66.2727C391.935 66.2727 391.589 66.3722 391.296 66.571C391.006 66.767 390.783 67.0227 390.627 67.3381C390.471 67.6534 390.393 67.9915 390.393 68.3523V68.9318C390.393 69.4261 390.478 69.8452 390.648 70.1889C390.822 70.5298 391.062 70.7898 391.369 70.9688C391.675 71.1449 392.032 71.233 392.438 71.233C392.702 71.233 392.941 71.196 393.154 71.1222C393.37 71.0455 393.556 70.9318 393.712 70.7812C393.869 70.6278 393.989 70.4375 394.075 70.2102L395.046 70.483C394.944 70.8125 394.772 71.1023 394.531 71.3523C394.289 71.5994 393.991 71.7926 393.636 71.9318C393.281 72.0682 392.881 72.1364 392.438 72.1364ZM396.678 72V65.4545H397.65V66.4432H397.718C397.837 66.1193 398.053 65.8565 398.366 65.6548C398.678 65.4531 399.031 65.3523 399.423 65.3523C399.496 65.3523 399.589 65.3537 399.7 65.3565C399.81 65.3594 399.894 65.3636 399.951 65.3693V66.392C399.917 66.3835 399.839 66.3707 399.717 66.3537C399.597 66.3338 399.471 66.3239 399.337 66.3239C399.019 66.3239 398.735 66.3906 398.485 66.5241C398.238 66.6548 398.042 66.8366 397.897 67.0696C397.755 67.2997 397.684 67.5625 397.684 67.858V72H396.678ZM408.643 69.3239V65.4545H409.649V72H408.643V70.892H408.575C408.422 71.2244 408.183 71.5071 407.859 71.7401C407.535 71.9702 407.126 72.0852 406.632 72.0852C406.223 72.0852 405.859 71.9957 405.541 71.8168C405.223 71.6349 404.973 71.3622 404.791 70.9986C404.609 70.6321 404.518 70.1705 404.518 69.6136V65.4545H405.524V69.5455C405.524 70.0227 405.657 70.4034 405.924 70.6875C406.194 70.9716 406.538 71.1136 406.956 71.1136C407.206 71.1136 407.46 71.0497 407.718 70.9219C407.98 70.794 408.199 70.598 408.375 70.3338C408.554 70.0696 408.643 69.733 408.643 69.3239ZM412.496 68.0625V72H411.491V65.4545H412.462V66.4773H412.548C412.701 66.1449 412.934 65.8778 413.246 65.6761C413.559 65.4716 413.962 65.3693 414.457 65.3693C414.9 65.3693 415.288 65.4602 415.62 65.642C415.952 65.821 416.211 66.0938 416.396 66.4602C416.58 66.8239 416.673 67.2841 416.673 67.8409V72H415.667V67.9091C415.667 67.3949 415.533 66.9943 415.266 66.7074C414.999 66.4176 414.633 66.2727 414.167 66.2727C413.846 66.2727 413.559 66.3423 413.306 66.4815C413.056 66.6207 412.859 66.8239 412.714 67.0909C412.569 67.358 412.496 67.6818 412.496 68.0625ZM421.885 72V65.4545H422.857V66.4773H422.942C423.078 66.1278 423.299 65.8565 423.603 65.6634C423.907 65.4673 424.272 65.3693 424.698 65.3693C425.13 65.3693 425.489 65.4673 425.776 65.6634C426.066 65.8565 426.292 66.1278 426.453 66.4773H426.522C426.689 66.1392 426.941 65.8707 427.276 65.6719C427.611 65.4702 428.013 65.3693 428.482 65.3693C429.067 65.3693 429.546 65.5526 429.918 65.919C430.29 66.2827 430.476 66.8494 430.476 67.6193V72H429.471V67.6193C429.471 67.1364 429.338 66.7912 429.074 66.5838C428.81 66.3764 428.499 66.2727 428.141 66.2727C427.681 66.2727 427.324 66.4119 427.071 66.6903C426.819 66.9659 426.692 67.3153 426.692 67.7386V72H425.669V67.517C425.669 67.1449 425.549 66.8452 425.307 66.6179C425.066 66.3878 424.755 66.2727 424.374 66.2727C424.113 66.2727 423.868 66.3423 423.641 66.4815C423.417 66.6207 423.235 66.8139 423.096 67.0611C422.959 67.3054 422.891 67.5881 422.891 67.9091V72H421.885ZM435.059 72.1364C434.429 72.1364 433.885 71.9972 433.427 71.7188C432.973 71.4375 432.622 71.0455 432.375 70.5426C432.13 70.0369 432.008 69.4489 432.008 68.7784C432.008 68.108 432.13 67.517 432.375 67.0057C432.622 66.4915 432.966 66.0909 433.406 65.804C433.849 65.5142 434.366 65.3693 434.957 65.3693C435.298 65.3693 435.635 65.4261 435.967 65.5398C436.299 65.6534 436.602 65.8381 436.875 66.0938C437.147 66.3466 437.365 66.6818 437.527 67.0994C437.689 67.517 437.77 68.0312 437.77 68.642V69.0682H432.724V68.1989H436.747C436.747 67.8295 436.673 67.5 436.525 67.2102C436.38 66.9205 436.173 66.6918 435.903 66.5241C435.636 66.3565 435.321 66.2727 434.957 66.2727C434.556 66.2727 434.21 66.3722 433.917 66.571C433.627 66.767 433.404 67.0227 433.248 67.3381C433.092 67.6534 433.014 67.9915 433.014 68.3523V68.9318C433.014 69.4261 433.099 69.8452 433.27 70.1889C433.443 70.5298 433.683 70.7898 433.99 70.9688C434.297 71.1449 434.653 71.233 435.059 71.233C435.324 71.233 435.562 71.196 435.775 71.1222C435.991 71.0455 436.177 70.9318 436.333 70.7812C436.49 70.6278 436.61 70.4375 436.696 70.2102L437.667 70.483C437.565 70.8125 437.393 71.1023 437.152 71.3523C436.91 71.5994 436.612 71.7926 436.257 71.9318C435.902 72.0682 435.502 72.1364 435.059 72.1364ZM443.936 66.9205L443.032 67.1761C442.975 67.0256 442.892 66.8793 442.781 66.7372C442.673 66.5923 442.525 66.473 442.338 66.3793C442.15 66.2855 441.91 66.2386 441.618 66.2386C441.217 66.2386 440.883 66.331 440.616 66.5156C440.352 66.6974 440.22 66.929 440.22 67.2102C440.22 67.4602 440.311 67.6577 440.493 67.8026C440.674 67.9474 440.958 68.0682 441.345 68.1648L442.316 68.4034C442.902 68.5455 443.338 68.7628 443.625 69.0554C443.912 69.3452 444.055 69.7187 444.055 70.1761C444.055 70.5511 443.947 70.8864 443.731 71.1818C443.518 71.4773 443.22 71.7102 442.836 71.8807C442.453 72.0511 442.007 72.1364 441.498 72.1364C440.831 72.1364 440.278 71.9915 439.841 71.7017C439.403 71.4119 439.126 70.9886 439.01 70.4318L439.964 70.1932C440.055 70.5455 440.227 70.8097 440.48 70.9858C440.735 71.1619 441.069 71.25 441.481 71.25C441.95 71.25 442.322 71.1506 442.598 70.9517C442.876 70.75 443.015 70.5085 443.015 70.2273C443.015 70 442.936 69.8097 442.777 69.6562C442.618 69.5 442.373 69.3835 442.044 69.3068L440.953 69.0511C440.353 68.9091 439.913 68.6889 439.632 68.3906C439.353 68.0895 439.214 67.7131 439.214 67.2614C439.214 66.892 439.318 66.5653 439.525 66.2812C439.735 65.9972 440.021 65.7741 440.382 65.6122C440.745 65.4503 441.157 65.3693 441.618 65.3693C442.265 65.3693 442.774 65.5114 443.143 65.7955C443.515 66.0795 443.779 66.4545 443.936 66.9205ZM450.205 66.9205L449.302 67.1761C449.245 67.0256 449.161 66.8793 449.05 66.7372C448.942 66.5923 448.795 66.473 448.607 66.3793C448.42 66.2855 448.18 66.2386 447.887 66.2386C447.487 66.2386 447.153 66.331 446.886 66.5156C446.621 66.6974 446.489 66.929 446.489 67.2102C446.489 67.4602 446.58 67.6577 446.762 67.8026C446.944 67.9474 447.228 68.0682 447.614 68.1648L448.586 68.4034C449.171 68.5455 449.607 68.7628 449.894 69.0554C450.181 69.3452 450.325 69.7187 450.325 70.1761C450.325 70.5511 450.217 70.8864 450.001 71.1818C449.788 71.4773 449.489 71.7102 449.106 71.8807C448.722 72.0511 448.276 72.1364 447.768 72.1364C447.1 72.1364 446.548 71.9915 446.11 71.7017C445.673 71.4119 445.396 70.9886 445.279 70.4318L446.234 70.1932C446.325 70.5455 446.496 70.8097 446.749 70.9858C447.005 71.1619 447.339 71.25 447.751 71.25C448.219 71.25 448.592 71.1506 448.867 70.9517C449.146 70.75 449.285 70.5085 449.285 70.2273C449.285 70 449.205 69.8097 449.046 69.6562C448.887 69.5 448.643 69.3835 448.313 69.3068L447.222 69.0511C446.623 68.9091 446.183 68.6889 445.901 68.3906C445.623 68.0895 445.484 67.7131 445.484 67.2614C445.484 66.892 445.587 66.5653 445.795 66.2812C446.005 65.9972 446.29 65.7741 446.651 65.6122C447.015 65.4503 447.427 65.3693 447.887 65.3693C448.535 65.3693 449.043 65.5114 449.413 65.7955C449.785 66.0795 450.049 66.4545 450.205 66.9205ZM453.765 72.1534C453.35 72.1534 452.973 72.0753 452.635 71.919C452.297 71.7599 452.029 71.5312 451.83 71.233C451.631 70.9318 451.532 70.5682 451.532 70.142C451.532 69.767 451.605 69.4631 451.753 69.2301C451.901 68.9943 452.098 68.8097 452.346 68.6761C452.593 68.5426 452.865 68.4432 453.164 68.3778C453.465 68.3097 453.767 68.2557 454.071 68.2159C454.469 68.1648 454.792 68.1264 455.039 68.1009C455.289 68.0724 455.471 68.0256 455.584 67.9602C455.701 67.8949 455.759 67.7812 455.759 67.6193V67.5852C455.759 67.1648 455.644 66.8381 455.414 66.6051C455.186 66.3722 454.841 66.2557 454.378 66.2557C453.898 66.2557 453.522 66.3608 453.249 66.571C452.976 66.7812 452.784 67.0057 452.674 67.2443L451.719 66.9034C451.89 66.5057 452.117 66.196 452.401 65.9744C452.688 65.75 453 65.5937 453.338 65.5057C453.679 65.4148 454.015 65.3693 454.344 65.3693C454.554 65.3693 454.796 65.3949 455.069 65.446C455.344 65.4943 455.61 65.5952 455.865 65.7486C456.124 65.902 456.338 66.1335 456.509 66.4432C456.679 66.7528 456.765 67.1676 456.765 67.6875V72H455.759V71.1136H455.708C455.64 71.2557 455.526 71.4077 455.367 71.5696C455.208 71.7315 454.996 71.8693 454.732 71.983C454.468 72.0966 454.145 72.1534 453.765 72.1534ZM453.918 71.25C454.316 71.25 454.651 71.1719 454.924 71.0156C455.199 70.8594 455.407 70.6577 455.546 70.4105C455.688 70.1634 455.759 69.9034 455.759 69.6307V68.7102C455.716 68.7614 455.623 68.8082 455.478 68.8509C455.336 68.8906 455.171 68.9261 454.983 68.9574C454.799 68.9858 454.618 69.0114 454.442 69.0341C454.269 69.054 454.128 69.071 454.02 69.0852C453.759 69.1193 453.515 69.1747 453.287 69.2514C453.063 69.3253 452.881 69.4375 452.742 69.5881C452.605 69.7358 452.537 69.9375 452.537 70.1932C452.537 70.5426 452.667 70.8068 452.925 70.9858C453.186 71.1619 453.517 71.25 453.918 71.25ZM461.242 74.5909C460.756 74.5909 460.339 74.5284 459.989 74.4034C459.64 74.2812 459.349 74.1193 459.116 73.9176C458.886 73.7188 458.702 73.5057 458.566 73.2784L459.367 72.7159C459.458 72.8352 459.573 72.9716 459.712 73.125C459.852 73.2812 460.042 73.4162 460.283 73.5298C460.528 73.6463 460.847 73.7045 461.242 73.7045C461.771 73.7045 462.207 73.5767 462.55 73.321C462.894 73.0653 463.066 72.6648 463.066 72.1193V70.7898H462.981C462.907 70.9091 462.802 71.0568 462.665 71.233C462.532 71.4062 462.339 71.5611 462.086 71.6974C461.836 71.831 461.498 71.8977 461.072 71.8977C460.543 71.8977 460.069 71.7727 459.648 71.5227C459.231 71.2727 458.9 70.9091 458.656 70.4318C458.414 69.9545 458.293 69.375 458.293 68.6932C458.293 68.0227 458.411 67.4389 458.647 66.9418C458.883 66.4418 459.211 66.0554 459.631 65.7827C460.052 65.5071 460.538 65.3693 461.089 65.3693C461.515 65.3693 461.853 65.4403 462.103 65.5824C462.356 65.7216 462.549 65.8807 462.683 66.0597C462.819 66.2358 462.924 66.3807 462.998 66.4943H463.1V65.4545H464.072V72.1875C464.072 72.75 463.944 73.2074 463.688 73.5597C463.435 73.9148 463.094 74.1747 462.665 74.3395C462.239 74.5071 461.765 74.5909 461.242 74.5909ZM461.208 70.9943C461.612 70.9943 461.952 70.902 462.231 70.7173C462.509 70.5327 462.721 70.267 462.866 69.9205C463.011 69.5739 463.083 69.1591 463.083 68.6761C463.083 68.2045 463.012 67.7884 462.87 67.4276C462.728 67.0668 462.518 66.7841 462.239 66.5795C461.961 66.375 461.617 66.2727 461.208 66.2727C460.782 66.2727 460.427 66.3807 460.143 66.5966C459.862 66.8125 459.65 67.1023 459.508 67.4659C459.369 67.8295 459.299 68.233 459.299 68.6761C459.299 69.1307 459.37 69.5327 459.512 69.8821C459.657 70.2287 459.87 70.5014 460.151 70.7003C460.435 70.8963 460.788 70.9943 461.208 70.9943ZM468.657 72.1364C468.026 72.1364 467.482 71.9972 467.025 71.7188C466.57 71.4375 466.219 71.0455 465.972 70.5426C465.728 70.0369 465.606 69.4489 465.606 68.7784C465.606 68.108 465.728 67.517 465.972 67.0057C466.219 66.4915 466.563 66.0909 467.004 65.804C467.447 65.5142 467.964 65.3693 468.555 65.3693C468.896 65.3693 469.232 65.4261 469.565 65.5398C469.897 65.6534 470.2 65.8381 470.472 66.0938C470.745 66.3466 470.962 66.6818 471.124 67.0994C471.286 67.517 471.367 68.0312 471.367 68.642V69.0682H466.322V68.1989H470.344C470.344 67.8295 470.271 67.5 470.123 67.2102C469.978 66.9205 469.771 66.6918 469.501 66.5241C469.234 66.3565 468.918 66.2727 468.555 66.2727C468.154 66.2727 467.808 66.3722 467.515 66.571C467.225 66.767 467.002 67.0227 466.846 67.3381C466.69 67.6534 466.612 67.9915 466.612 68.3523V68.9318C466.612 69.4261 466.697 69.8452 466.867 70.1889C467.04 70.5298 467.281 70.7898 467.587 70.9688C467.894 71.1449 468.251 71.233 468.657 71.233C468.921 71.233 469.16 71.196 469.373 71.1222C469.589 71.0455 469.775 70.9318 469.931 70.7812C470.087 70.6278 470.208 70.4375 470.293 70.2102L471.265 70.483C471.163 70.8125 470.991 71.1023 470.749 71.3523C470.508 71.5994 470.21 71.7926 469.854 71.9318C469.499 72.0682 469.1 72.1364 468.657 72.1364Z" fill="black"/>
<path d="M323 68H343" stroke="#181818"/>
<path d="M333 72L343 68L333 64L337 68L333 72Z" fill="#181818" stroke="#181818"/>
<path d="M196.5 67H216.5" stroke="#181818"/>
<path d="M206.5 71L216.5 67L206.5 63L210.5 67L206.5 71Z" fill="#181818" stroke="#181818"/>
<path d="M483 68H503.5" stroke="#181818"/>
<path d="M493.25 72L503.5 68L493.25 64L497.35 68L493.25 72Z" fill="#181818" stroke="#181818"/>
<rect x="218.25" y="50.25" width="104.5" height="33.5" stroke="black" stroke-width="0.5"/>
</svg>
