<svg width="412" height="131" viewBox="0 0 412 131" fill="none" xmlns="http://www.w3.org/2000/svg">
<rect x="0.5" y="0.5" width="411" height="130" rx="24.5" stroke="black"/>
<path d="M21.5298 18.5455L23.815 25.7287H23.9027L26.1925 18.5455H28.4084L25.1491 28H22.5732L19.3093 18.5455H21.5298ZM31.9134 28.1385C31.1963 28.1385 30.5762 27.9862 30.053 27.6815C29.5329 27.3737 29.1312 26.9459 28.8481 26.3981C28.565 25.8472 28.4234 25.2086 28.4234 24.4822C28.4234 23.7498 28.565 23.1096 28.8481 22.5618C29.1312 22.0109 29.5329 21.5831 30.053 21.2784C30.5762 20.9706 31.1963 20.8168 31.9134 20.8168C32.6305 20.8168 33.2491 20.9706 33.7693 21.2784C34.2925 21.5831 34.6956 22.0109 34.9788 22.5618C35.2619 23.1096 35.4035 23.7498 35.4035 24.4822C35.4035 25.2086 35.2619 25.8472 34.9788 26.3981C34.6956 26.9459 34.2925 27.3737 33.7693 27.6815C33.2491 27.9862 32.6305 28.1385 31.9134 28.1385ZM31.9227 26.6151C32.2489 26.6151 32.5213 26.5227 32.7398 26.3381C32.9583 26.1503 33.123 25.8949 33.2338 25.5717C33.3476 25.2486 33.4046 24.8808 33.4046 24.4684C33.4046 24.056 33.3476 23.6882 33.2338 23.3651C33.123 23.0419 32.9583 22.7865 32.7398 22.5987C32.5213 22.411 32.2489 22.3171 31.9227 22.3171C31.5934 22.3171 31.3164 22.411 31.0917 22.5987C30.8701 22.7865 30.7024 23.0419 30.5885 23.3651C30.4777 23.6882 30.4223 24.056 30.4223 24.4684C30.4223 24.8808 30.4777 25.2486 30.5885 25.5717C30.7024 25.8949 30.8701 26.1503 31.0917 26.3381C31.3164 26.5227 31.5934 26.6151 31.9227 26.6151ZM37.6679 30.6591C37.4186 30.6591 37.1847 30.6391 36.9662 30.5991C36.7507 30.5621 36.5722 30.5144 36.4307 30.456L36.8738 28.9879C37.1047 29.0587 37.3124 29.0972 37.4971 29.1033C37.6848 29.1095 37.8464 29.0664 37.9818 28.9741C38.1203 28.8817 38.2326 28.7248 38.3188 28.5032L38.4342 28.2031L35.8905 20.9091H37.9587L39.4268 26.1165H39.5006L40.9825 20.9091H43.0645L40.3085 28.7663C40.1762 29.148 39.9961 29.4804 39.7684 29.7635C39.5437 30.0497 39.259 30.2698 38.9143 30.4237C38.5696 30.5806 38.1541 30.6591 37.6679 30.6591ZM45.9025 28.1339C45.4501 28.1339 45.0469 28.0554 44.693 27.8984C44.3391 27.7384 44.059 27.503 43.8528 27.1921C43.6497 26.8782 43.5481 26.4873 43.5481 26.0195C43.5481 25.6256 43.6204 25.2947 43.7651 25.027C43.9097 24.7592 44.1067 24.5438 44.356 24.3807C44.6053 24.2176 44.8884 24.0945 45.2054 24.0114C45.5255 23.9283 45.861 23.8698 46.2118 23.8359C46.6242 23.7929 46.9566 23.7528 47.209 23.7159C47.4614 23.6759 47.6445 23.6174 47.7583 23.5405C47.8722 23.4635 47.9292 23.3497 47.9292 23.1989V23.1712C47.9292 22.8788 47.8368 22.6526 47.6522 22.4925C47.4706 22.3325 47.2121 22.2525 46.8766 22.2525C46.5227 22.2525 46.2411 22.331 46.0318 22.4879C45.8225 22.6418 45.684 22.8357 45.6163 23.0696L43.7974 22.9219C43.8897 22.491 44.0713 22.1186 44.3422 21.8047C44.613 21.4877 44.9623 21.2446 45.3901 21.0753C45.821 20.9029 46.3195 20.8168 46.8858 20.8168C47.2798 20.8168 47.6568 20.8629 48.0169 20.9553C48.38 21.0476 48.7016 21.1907 48.9817 21.3846C49.2649 21.5785 49.488 21.8278 49.6511 22.1325C49.8142 22.4341 49.8958 22.7957 49.8958 23.2173V28H48.0307V27.0167H47.9753C47.8614 27.2383 47.7091 27.4337 47.5183 27.603C47.3275 27.7692 47.0982 27.9 46.8304 27.9954C46.5627 28.0877 46.2534 28.1339 45.9025 28.1339ZM46.4657 26.7766C46.755 26.7766 47.0105 26.7197 47.2321 26.6058C47.4537 26.4889 47.6275 26.3319 47.7537 26.1349C47.8799 25.938 47.943 25.7148 47.943 25.4656V24.7131C47.8815 24.7531 47.7968 24.79 47.6891 24.8239C47.5845 24.8546 47.466 24.8839 47.3336 24.9116C47.2013 24.9362 47.069 24.9593 46.9366 24.9808C46.8043 24.9993 46.6842 25.0162 46.5765 25.0316C46.3457 25.0655 46.1441 25.1193 45.9718 25.1932C45.7994 25.267 45.6655 25.3671 45.5701 25.4933C45.4747 25.6164 45.427 25.7702 45.427 25.9549C45.427 26.2227 45.524 26.4273 45.7179 26.5689C45.9148 26.7074 46.1641 26.7766 46.4657 26.7766ZM54.6161 30.8068C53.979 30.8068 53.4328 30.7191 52.9773 30.5437C52.5249 30.3713 52.1648 30.1359 51.897 29.8374C51.6293 29.5388 51.4554 29.2034 51.3754 28.831L53.1942 28.5863C53.2496 28.7279 53.3374 28.8602 53.4574 28.9833C53.5774 29.1064 53.7359 29.2049 53.9329 29.2788C54.1329 29.3557 54.3761 29.3942 54.6623 29.3942C55.0901 29.3942 55.4425 29.2895 55.7195 29.0803C55.9995 28.8741 56.1396 28.5278 56.1396 28.0415V26.7443H56.0565C55.9703 26.9413 55.841 27.1275 55.6687 27.3029C55.4963 27.4783 55.2747 27.6214 55.0039 27.7322C54.7331 27.843 54.4099 27.8984 54.0344 27.8984C53.502 27.8984 53.0173 27.7753 52.5803 27.5291C52.1463 27.2798 51.8001 26.8997 51.5415 26.3888C51.2861 25.8749 51.1584 25.2255 51.1584 24.4407C51.1584 23.6374 51.2892 22.9665 51.5508 22.4279C51.8124 21.8893 52.1602 21.4862 52.5941 21.2184C53.0311 20.9506 53.5097 20.8168 54.0298 20.8168C54.4268 20.8168 54.7592 20.8845 55.027 21.0199C55.2947 21.1522 55.5102 21.3184 55.6733 21.5185C55.8395 21.7154 55.9672 21.9093 56.0565 22.1001H56.1303V20.9091H58.0831V28.0692C58.0831 28.6725 57.9354 29.1772 57.6399 29.5835C57.3445 29.9897 56.9351 30.2944 56.4119 30.4975C55.8918 30.7037 55.2932 30.8068 54.6161 30.8068ZM54.6577 26.4212C54.9747 26.4212 55.2424 26.3427 55.4609 26.1857C55.6825 26.0257 55.8518 25.7979 55.9688 25.5025C56.0888 25.204 56.1488 24.8469 56.1488 24.4315C56.1488 24.016 56.0903 23.6559 55.9734 23.3512C55.8564 23.0434 55.6871 22.8049 55.4656 22.6357C55.244 22.4664 54.9747 22.3817 54.6577 22.3817C54.3345 22.3817 54.0621 22.4695 53.8406 22.6449C53.619 22.8172 53.4512 23.0573 53.3374 23.3651C53.2235 23.6728 53.1665 24.0283 53.1665 24.4315C53.1665 24.8408 53.2235 25.1947 53.3374 25.4933C53.4543 25.7887 53.622 26.018 53.8406 26.1811C54.0621 26.3411 54.3345 26.4212 54.6577 26.4212ZM62.8796 28.1385C62.1502 28.1385 61.5224 27.9908 60.9961 27.6953C60.4729 27.3968 60.0697 26.9751 59.7866 26.4304C59.5034 25.8826 59.3619 25.2347 59.3619 24.4869C59.3619 23.7575 59.5034 23.1173 59.7866 22.5664C60.0697 22.0155 60.4683 21.5862 60.9822 21.2784C61.4993 20.9706 62.1056 20.8168 62.8011 20.8168C63.2689 20.8168 63.7044 20.8922 64.1076 21.043C64.5138 21.1907 64.8678 21.4138 65.1694 21.7124C65.4741 22.0109 65.7111 22.3864 65.8803 22.8388C66.0496 23.2881 66.1342 23.8144 66.1342 24.4176V24.9577H60.1467V23.739H64.283C64.283 23.4558 64.2215 23.205 64.0984 22.9865C63.9753 22.768 63.8045 22.5972 63.5859 22.4741C63.3705 22.3479 63.1197 22.2848 62.8335 22.2848C62.5349 22.2848 62.2702 22.354 62.0394 22.4925C61.8117 22.628 61.6332 22.8111 61.5039 23.0419C61.3746 23.2696 61.3085 23.5236 61.3054 23.8036V24.9624C61.3054 25.3132 61.37 25.6164 61.4993 25.8718C61.6316 26.1272 61.8178 26.3242 62.0579 26.4627C62.2979 26.6012 62.5826 26.6705 62.9119 26.6705C63.1304 26.6705 63.3305 26.6397 63.5121 26.5781C63.6937 26.5166 63.8491 26.4242 63.9783 26.3011C64.1076 26.178 64.2061 26.0272 64.2738 25.8487L66.0927 25.9688C66.0004 26.4058 65.8111 26.7874 65.5249 27.1136C65.2417 27.4368 64.8755 27.6892 64.4261 27.8707C63.9799 28.0492 63.4644 28.1385 62.8796 28.1385ZM67.4176 28V20.9091H69.3242V22.1463H69.3981C69.5273 21.7062 69.7443 21.3738 70.049 21.1491C70.3537 20.9214 70.7045 20.8075 71.1016 20.8075C71.2 20.8075 71.3062 20.8137 71.4201 20.826C71.534 20.8383 71.634 20.8552 71.7202 20.8768V22.6218C71.6278 22.5941 71.5001 22.5695 71.337 22.5479C71.1739 22.5264 71.0246 22.5156 70.8892 22.5156C70.5999 22.5156 70.3414 22.5787 70.1136 22.7049C69.889 22.828 69.7105 23.0004 69.5781 23.2219C69.4489 23.4435 69.3842 23.699 69.3842 23.9883V28H67.4176Z" fill="black"/>
<path d="M165.168 25.0316V23.4066L171.668 20.5444V22.4141L167.218 24.2006L167.278 24.1037V24.3345L167.218 24.2376L171.668 26.0241V27.8938L165.168 25.0316ZM174.004 25.0316V23.4066L180.504 20.5444V22.4141L176.054 24.2006L176.114 24.1037V24.3345L176.054 24.2376L180.504 26.0241V27.8938L174.004 25.0316ZM182.457 30.6591V20.9091H184.396V22.1001H184.483C184.569 21.9093 184.694 21.7154 184.857 21.5185C185.023 21.3184 185.239 21.1522 185.504 21.0199C185.771 20.8845 186.104 20.8168 186.501 20.8168C187.018 20.8168 187.495 20.9522 187.932 21.223C188.369 21.4908 188.718 21.8955 188.98 22.4371C189.241 22.9757 189.372 23.6513 189.372 24.4638C189.372 25.2547 189.244 25.9226 188.989 26.4673C188.737 27.009 188.392 27.4199 187.955 27.6999C187.521 27.9769 187.035 28.1154 186.496 28.1154C186.114 28.1154 185.79 28.0523 185.522 27.9261C185.257 27.8 185.04 27.6415 184.871 27.4506C184.702 27.2567 184.573 27.0613 184.483 26.8643H184.423V30.6591H182.457ZM184.382 24.4545C184.382 24.8762 184.44 25.244 184.557 25.5579C184.674 25.8718 184.843 26.1165 185.065 26.2919C185.287 26.4643 185.556 26.5504 185.873 26.5504C186.193 26.5504 186.464 26.4627 186.685 26.2873C186.907 26.1088 187.075 25.8626 187.189 25.5487C187.306 25.2317 187.364 24.867 187.364 24.4545C187.364 24.0452 187.307 23.6851 187.193 23.3743C187.079 23.0634 186.912 22.8203 186.69 22.6449C186.468 22.4695 186.196 22.3817 185.873 22.3817C185.553 22.3817 185.282 22.4664 185.06 22.6357C184.842 22.8049 184.674 23.045 184.557 23.3558C184.44 23.6667 184.382 24.0329 184.382 24.4545ZM190.683 28V20.9091H192.59V22.1463H192.664C192.793 21.7062 193.01 21.3738 193.315 21.1491C193.619 20.9214 193.97 20.8075 194.367 20.8075C194.466 20.8075 194.572 20.8137 194.686 20.826C194.8 20.8383 194.9 20.8552 194.986 20.8768V22.6218C194.893 22.5941 194.766 22.5695 194.603 22.5479C194.44 22.5264 194.29 22.5156 194.155 22.5156C193.866 22.5156 193.607 22.5787 193.379 22.7049C193.155 22.828 192.976 23.0004 192.844 23.2219C192.714 23.4435 192.65 23.699 192.65 23.9883V28H190.683ZM198.904 28.1385C198.175 28.1385 197.547 27.9908 197.021 27.6953C196.497 27.3968 196.094 26.9751 195.811 26.4304C195.528 25.8826 195.386 25.2347 195.386 24.4869C195.386 23.7575 195.528 23.1173 195.811 22.5664C196.094 22.0155 196.493 21.5862 197.007 21.2784C197.524 20.9706 198.13 20.8168 198.826 20.8168C199.293 20.8168 199.729 20.8922 200.132 21.043C200.538 21.1907 200.892 21.4138 201.194 21.7124C201.498 22.0109 201.735 22.3864 201.905 22.8388C202.074 23.2881 202.159 23.8144 202.159 24.4176V24.9577H196.171V23.739H200.307C200.307 23.4558 200.246 23.205 200.123 22.9865C200 22.768 199.829 22.5972 199.61 22.4741C199.395 22.3479 199.144 22.2848 198.858 22.2848C198.559 22.2848 198.295 22.354 198.064 22.4925C197.836 22.628 197.658 22.8111 197.528 23.0419C197.399 23.2696 197.333 23.5236 197.33 23.8036V24.9624C197.33 25.3132 197.394 25.6164 197.524 25.8718C197.656 26.1272 197.842 26.3242 198.082 26.4627C198.322 26.6012 198.607 26.6705 198.936 26.6705C199.155 26.6705 199.355 26.6397 199.536 26.5781C199.718 26.5166 199.873 26.4242 200.003 26.3011C200.132 26.178 200.23 26.0272 200.298 25.8487L202.117 25.9688C202.025 26.4058 201.835 26.7874 201.549 27.1136C201.266 27.4368 200.9 27.6892 200.451 27.8707C200.004 28.0492 199.489 28.1385 198.904 28.1385ZM206.646 28.1385C205.92 28.1385 205.295 27.9846 204.772 27.6768C204.251 27.366 203.851 26.9351 203.571 26.3842C203.294 25.8333 203.156 25.1993 203.156 24.4822C203.156 23.7559 203.296 23.1188 203.576 22.571C203.859 22.0201 204.261 21.5908 204.781 21.283C205.301 20.9722 205.92 20.8168 206.637 20.8168C207.255 20.8168 207.797 20.9291 208.262 21.1538C208.726 21.3784 209.094 21.6939 209.365 22.1001C209.636 22.5064 209.785 22.9834 209.813 23.5312H207.957C207.905 23.1773 207.766 22.8926 207.541 22.6772C207.32 22.4587 207.029 22.3494 206.669 22.3494C206.364 22.3494 206.098 22.4325 205.87 22.5987C205.646 22.7618 205.47 23.0004 205.344 23.3143C205.218 23.6282 205.155 24.0083 205.155 24.4545C205.155 24.907 205.216 25.2917 205.339 25.6087C205.466 25.9257 205.643 26.1673 205.87 26.3335C206.098 26.4996 206.364 26.5827 206.669 26.5827C206.894 26.5827 207.095 26.5366 207.274 26.4442C207.455 26.3519 207.605 26.218 207.722 26.0426C207.842 25.8641 207.92 25.6502 207.957 25.4009H209.813C209.782 25.9426 209.634 26.4196 209.37 26.832C209.108 27.2414 208.746 27.5614 208.285 27.7923C207.823 28.0231 207.277 28.1385 206.646 28.1385ZM214.276 28.1385C213.559 28.1385 212.939 27.9862 212.415 27.6815C211.895 27.3737 211.494 26.9459 211.21 26.3981C210.927 25.8472 210.786 25.2086 210.786 24.4822C210.786 23.7498 210.927 23.1096 211.21 22.5618C211.494 22.0109 211.895 21.5831 212.415 21.2784C212.939 20.9706 213.559 20.8168 214.276 20.8168C214.993 20.8168 215.611 20.9706 216.132 21.2784C216.655 21.5831 217.058 22.0109 217.341 22.5618C217.624 23.1096 217.766 23.7498 217.766 24.4822C217.766 25.2086 217.624 25.8472 217.341 26.3981C217.058 26.9459 216.655 27.3737 216.132 27.6815C215.611 27.9862 214.993 28.1385 214.276 28.1385ZM214.285 26.6151C214.611 26.6151 214.884 26.5227 215.102 26.3381C215.321 26.1503 215.485 25.8949 215.596 25.5717C215.71 25.2486 215.767 24.8808 215.767 24.4684C215.767 24.056 215.71 23.6882 215.596 23.3651C215.485 23.0419 215.321 22.7865 215.102 22.5987C214.884 22.411 214.611 22.3171 214.285 22.3171C213.956 22.3171 213.679 22.411 213.454 22.5987C213.232 22.7865 213.065 23.0419 212.951 23.3651C212.84 23.6882 212.785 24.056 212.785 24.4684C212.785 24.8808 212.84 25.2486 212.951 25.5717C213.065 25.8949 213.232 26.1503 213.454 26.3381C213.679 26.5227 213.956 26.6151 214.285 26.6151ZM221.011 23.9006V28H219.045V20.9091H220.919V22.1602H221.002C221.159 21.7478 221.422 21.4215 221.791 21.1815C222.161 20.9383 222.608 20.8168 223.135 20.8168C223.627 20.8168 224.057 20.9245 224.423 21.1399C224.789 21.3554 225.074 21.6631 225.277 22.0632C225.48 22.4602 225.581 22.9342 225.581 23.4851V28H223.615V23.8359C223.618 23.402 223.507 23.0634 223.282 22.8203C223.058 22.5741 222.749 22.451 222.355 22.451C222.09 22.451 221.856 22.5079 221.653 22.6218C221.453 22.7357 221.296 22.9019 221.182 23.1204C221.071 23.3358 221.014 23.5959 221.011 23.9006ZM229.744 28.1154C229.206 28.1154 228.718 27.9769 228.281 27.6999C227.847 27.4199 227.502 27.009 227.247 26.4673C226.995 25.9226 226.868 25.2547 226.868 24.4638C226.868 23.6513 226.999 22.9757 227.261 22.4371C227.522 21.8955 227.87 21.4908 228.304 21.223C228.741 20.9522 229.22 20.8168 229.74 20.8168C230.137 20.8168 230.468 20.8845 230.732 21.0199C231 21.1522 231.216 21.3184 231.379 21.5185C231.545 21.7154 231.671 21.9093 231.757 22.1001H231.817V18.5455H233.779V28H231.84V26.8643H231.757C231.665 27.0613 231.534 27.2567 231.365 27.4506C231.199 27.6415 230.982 27.8 230.714 27.9261C230.449 28.0523 230.126 28.1154 229.744 28.1154ZM230.368 26.5504C230.685 26.5504 230.952 26.4643 231.171 26.2919C231.392 26.1165 231.562 25.8718 231.679 25.5579C231.799 25.244 231.859 24.8762 231.859 24.4545C231.859 24.0329 231.8 23.6667 231.683 23.3558C231.566 23.045 231.397 22.8049 231.176 22.6357C230.954 22.4664 230.685 22.3817 230.368 22.3817C230.044 22.3817 229.772 22.4695 229.551 22.6449C229.329 22.8203 229.161 23.0634 229.047 23.3743C228.933 23.6851 228.877 24.0452 228.877 24.4545C228.877 24.867 228.933 25.2317 229.047 25.5487C229.164 25.8626 229.332 26.1088 229.551 26.2873C229.772 26.4627 230.044 26.5504 230.368 26.5504ZM235.396 28V20.9091H237.363V28H235.396ZM236.384 19.995C236.092 19.995 235.841 19.8981 235.632 19.7042C235.425 19.5072 235.322 19.2718 235.322 18.9979C235.322 18.727 235.425 18.4947 235.632 18.3008C235.841 18.1038 236.092 18.0053 236.384 18.0053C236.676 18.0053 236.926 18.1038 237.132 18.3008C237.341 18.4947 237.446 18.727 237.446 18.9979C237.446 19.2718 237.341 19.5072 237.132 19.7042C236.926 19.8981 236.676 19.995 236.384 19.995ZM242.71 20.9091V22.3864H238.44V20.9091H242.71ZM239.409 19.2102H241.376V25.821C241.376 26.0026 241.403 26.1442 241.459 26.2457C241.514 26.3442 241.591 26.4135 241.69 26.4535C241.791 26.4935 241.908 26.5135 242.04 26.5135C242.133 26.5135 242.225 26.5058 242.317 26.4904C242.41 26.4719 242.48 26.4581 242.53 26.4489L242.839 27.9123C242.741 27.9431 242.602 27.9785 242.424 28.0185C242.245 28.0616 242.028 28.0877 241.773 28.0969C241.299 28.1154 240.883 28.0523 240.526 27.9077C240.172 27.763 239.897 27.5384 239.7 27.2337C239.503 26.929 239.406 26.5443 239.409 26.0795V19.2102ZM243.991 28V20.9091H245.957V28H243.991ZM244.979 19.995C244.686 19.995 244.436 19.8981 244.226 19.7042C244.02 19.5072 243.917 19.2718 243.917 18.9979C243.917 18.727 244.02 18.4947 244.226 18.3008C244.436 18.1038 244.686 18.0053 244.979 18.0053C245.271 18.0053 245.52 18.1038 245.727 18.3008C245.936 18.4947 246.041 18.727 246.041 18.9979C246.041 19.2718 245.936 19.5072 245.727 19.7042C245.52 19.8981 245.271 19.995 244.979 19.995ZM250.737 28.1385C250.02 28.1385 249.399 27.9862 248.876 27.6815C248.356 27.3737 247.954 26.9459 247.671 26.3981C247.388 25.8472 247.247 25.2086 247.247 24.4822C247.247 23.7498 247.388 23.1096 247.671 22.5618C247.954 22.0109 248.356 21.5831 248.876 21.2784C249.399 20.9706 250.02 20.8168 250.737 20.8168C251.454 20.8168 252.072 20.9706 252.593 21.2784C253.116 21.5831 253.519 22.0109 253.802 22.5618C254.085 23.1096 254.227 23.7498 254.227 24.4822C254.227 25.2086 254.085 25.8472 253.802 26.3981C253.519 26.9459 253.116 27.3737 252.593 27.6815C252.072 27.9862 251.454 28.1385 250.737 28.1385ZM250.746 26.6151C251.072 26.6151 251.345 26.5227 251.563 26.3381C251.782 26.1503 251.946 25.8949 252.057 25.5717C252.171 25.2486 252.228 24.8808 252.228 24.4684C252.228 24.056 252.171 23.6882 252.057 23.3651C251.946 23.0419 251.782 22.7865 251.563 22.5987C251.345 22.411 251.072 22.3171 250.746 22.3171C250.417 22.3171 250.14 22.411 249.915 22.5987C249.693 22.7865 249.526 23.0419 249.412 23.3651C249.301 23.6882 249.246 24.056 249.246 24.4684C249.246 24.8808 249.301 25.2486 249.412 25.5717C249.526 25.8949 249.693 26.1503 249.915 26.3381C250.14 26.5227 250.417 26.6151 250.746 26.6151ZM257.472 23.9006V28H255.506V20.9091H257.38V22.1602H257.463C257.62 21.7478 257.883 21.4215 258.252 21.1815C258.622 20.9383 259.069 20.8168 259.596 20.8168C260.088 20.8168 260.517 20.9245 260.884 21.1399C261.25 21.3554 261.535 21.6631 261.738 22.0632C261.941 22.4602 262.042 22.9342 262.042 23.4851V28H260.076V23.8359C260.079 23.402 259.968 23.0634 259.743 22.8203C259.519 22.5741 259.209 22.451 258.816 22.451C258.551 22.451 258.317 22.5079 258.114 22.6218C257.914 22.7357 257.757 22.9019 257.643 23.1204C257.532 23.3358 257.475 23.5959 257.472 23.9006ZM270.476 25.0316L263.976 27.8938V26.0241L268.426 24.2376L268.366 24.3345V24.1037L268.426 24.2006L263.976 22.4141V20.5444L270.476 23.4066V25.0316ZM279.312 25.0316L272.812 27.8938V26.0241L277.262 24.2376L277.202 24.3345V24.1037L277.262 24.2006L272.812 22.4141V20.5444L279.312 23.4066V25.0316ZM285.021 28H283.821L287.292 18.5455H288.474L291.946 28H290.745L287.92 20.0412H287.846L285.021 28ZM285.464 24.3068H290.302V25.3224H285.464V24.3068ZM298.18 20.9091L295.558 28H294.45L291.828 20.9091H293.01L294.967 26.5597H295.041L296.998 20.9091H298.18ZM302.245 28.1477C301.605 28.1477 301.043 27.9954 300.56 27.6907C300.08 27.386 299.704 26.9598 299.434 26.4119C299.166 25.8641 299.032 25.224 299.032 24.4915C299.032 23.7528 299.166 23.1081 299.434 22.5572C299.704 22.0063 300.08 21.5785 300.56 21.2738C301.043 20.9691 301.605 20.8168 302.245 20.8168C302.885 20.8168 303.445 20.9691 303.925 21.2738C304.409 21.5785 304.784 22.0063 305.052 22.5572C305.323 23.1081 305.458 23.7528 305.458 24.4915C305.458 25.224 305.323 25.8641 305.052 26.4119C304.784 26.9598 304.409 27.386 303.925 27.6907C303.445 27.9954 302.885 28.1477 302.245 28.1477ZM302.245 27.169C302.731 27.169 303.131 27.0444 303.445 26.7951C303.759 26.5458 303.992 26.218 304.142 25.8118C304.293 25.4055 304.369 24.9654 304.369 24.4915C304.369 24.0175 304.293 23.5759 304.142 23.1665C303.992 22.7572 303.759 22.4264 303.445 22.174C303.131 21.9216 302.731 21.7955 302.245 21.7955C301.759 21.7955 301.359 21.9216 301.045 22.174C300.731 22.4264 300.498 22.7572 300.348 23.1665C300.197 23.5759 300.121 24.0175 300.121 24.4915C300.121 24.9654 300.197 25.4055 300.348 25.8118C300.498 26.218 300.731 26.5458 301.045 26.7951C301.359 27.0444 301.759 27.169 302.245 27.169ZM307.121 28V20.9091H308.211V28H307.121ZM307.675 19.7273C307.463 19.7273 307.28 19.6549 307.126 19.5103C306.975 19.3656 306.9 19.1918 306.9 18.9886C306.9 18.7855 306.975 18.6116 307.126 18.467C307.28 18.3223 307.463 18.25 307.675 18.25C307.888 18.25 308.069 18.3223 308.22 18.467C308.374 18.6116 308.451 18.7855 308.451 18.9886C308.451 19.1918 308.374 19.3656 308.22 19.5103C308.069 19.6549 307.888 19.7273 307.675 19.7273ZM310.206 28V20.9091H311.259V21.9801H311.333C311.462 21.6293 311.696 21.3446 312.034 21.1261C312.373 20.9076 312.754 20.7983 313.179 20.7983C313.259 20.7983 313.359 20.7998 313.479 20.8029C313.599 20.806 313.69 20.8106 313.752 20.8168V21.9247C313.715 21.9155 313.63 21.9016 313.498 21.8832C313.368 21.8616 313.231 21.8509 313.087 21.8509C312.742 21.8509 312.434 21.9232 312.164 22.0678C311.896 22.2094 311.683 22.4064 311.526 22.6587C311.373 22.908 311.296 23.1927 311.296 23.5128V28H310.206ZM323.168 25.1009V20.9091H324.258V28H323.168V26.7997H323.094C322.928 27.1598 322.669 27.466 322.319 27.7184C321.968 27.9677 321.525 28.0923 320.989 28.0923C320.546 28.0923 320.152 27.9954 319.807 27.8015C319.463 27.6045 319.192 27.3091 318.995 26.9151C318.798 26.5181 318.699 26.018 318.699 25.4148V20.9091H319.789V25.3409C319.789 25.858 319.933 26.2704 320.223 26.5781C320.515 26.8859 320.888 27.0398 321.34 27.0398C321.611 27.0398 321.886 26.9705 322.166 26.832C322.449 26.6935 322.686 26.4812 322.877 26.195C323.071 25.9087 323.168 25.544 323.168 25.1009ZM327.343 23.7344V28H326.253V20.9091H327.306V22.017H327.398C327.564 21.657 327.816 21.3677 328.155 21.1491C328.494 20.9276 328.931 20.8168 329.466 20.8168C329.946 20.8168 330.366 20.9152 330.726 21.1122C331.086 21.3061 331.367 21.6016 331.567 21.9986C331.767 22.3925 331.867 22.8911 331.867 23.4943V28H330.777V23.5682C330.777 23.0111 330.633 22.5772 330.343 22.2663C330.054 21.9524 329.657 21.7955 329.152 21.7955C328.804 21.7955 328.494 21.8709 328.22 22.0217C327.949 22.1725 327.735 22.3925 327.578 22.6818C327.421 22.9711 327.343 23.322 327.343 23.7344ZM337.514 30.6591V20.9091H338.566V22.0355H338.696C338.776 21.9124 338.886 21.7554 339.028 21.5646C339.173 21.3707 339.379 21.1984 339.647 21.0476C339.917 20.8937 340.284 20.8168 340.745 20.8168C341.342 20.8168 341.869 20.966 342.324 21.2646C342.78 21.5631 343.135 21.9863 343.391 22.5341C343.646 23.0819 343.774 23.7282 343.774 24.473C343.774 25.224 343.646 25.8749 343.391 26.4258C343.135 26.9736 342.781 27.3983 342.329 27.6999C341.876 27.9985 341.355 28.1477 340.764 28.1477C340.308 28.1477 339.944 28.0723 339.67 27.9215C339.396 27.7676 339.185 27.5937 339.037 27.3999C338.889 27.2029 338.776 27.0398 338.696 26.9105H338.603V30.6591H337.514ZM338.585 24.4545C338.585 24.9901 338.663 25.4625 338.82 25.8718C338.977 26.2781 339.206 26.5966 339.508 26.8274C339.81 27.0552 340.179 27.169 340.616 27.169C341.072 27.169 341.452 27.049 341.756 26.8089C342.064 26.5658 342.295 26.2396 342.449 25.8303C342.606 25.4179 342.684 24.9593 342.684 24.4545C342.684 23.956 342.607 23.5066 342.453 23.1065C342.303 22.7034 342.073 22.3848 341.766 22.1509C341.461 21.9139 341.078 21.7955 340.616 21.7955C340.173 21.7955 339.8 21.9078 339.499 22.1325C339.197 22.354 338.969 22.6649 338.816 23.065C338.662 23.462 338.585 23.9252 338.585 24.4545ZM347.522 28.1662C347.073 28.1662 346.665 28.0816 346.299 27.9123C345.933 27.7399 345.642 27.4922 345.426 27.169C345.211 26.8428 345.103 26.4489 345.103 25.9872C345.103 25.581 345.183 25.2517 345.343 24.9993C345.503 24.7438 345.717 24.5438 345.985 24.3991C346.253 24.2545 346.548 24.1468 346.871 24.076C347.198 24.0021 347.525 23.9437 347.855 23.9006C348.286 23.8452 348.635 23.8036 348.903 23.7759C349.173 23.7451 349.37 23.6944 349.494 23.6236C349.62 23.5528 349.683 23.4297 349.683 23.2543V23.2173C349.683 22.7618 349.558 22.4079 349.309 22.1555C349.063 21.9032 348.689 21.777 348.187 21.777C347.667 21.777 347.259 21.8909 346.964 22.1186C346.668 22.3464 346.46 22.5895 346.34 22.848L345.306 22.4787C345.491 22.0478 345.737 21.7124 346.045 21.4723C346.356 21.2292 346.694 21.0599 347.061 20.9645C347.43 20.866 347.793 20.8168 348.15 20.8168C348.378 20.8168 348.639 20.8445 348.935 20.8999C349.233 20.9522 349.521 21.0614 349.798 21.2276C350.078 21.3938 350.311 21.6446 350.495 21.9801C350.68 22.3156 350.772 22.7649 350.772 23.3281V28H349.683V27.0398H349.627C349.554 27.1937 349.43 27.3583 349.258 27.5337C349.086 27.7092 348.856 27.8584 348.57 27.9815C348.284 28.1046 347.935 28.1662 347.522 28.1662ZM347.688 27.1875C348.119 27.1875 348.483 27.1029 348.778 26.9336C349.076 26.7643 349.301 26.5458 349.452 26.2781C349.606 26.0103 349.683 25.7287 349.683 25.4332V24.4361C349.637 24.4915 349.535 24.5423 349.378 24.5884C349.224 24.6315 349.046 24.67 348.843 24.7038C348.643 24.7346 348.447 24.7623 348.256 24.7869C348.069 24.8085 347.916 24.8269 347.799 24.8423C347.516 24.8793 347.251 24.9393 347.005 25.0224C346.762 25.1024 346.565 25.224 346.414 25.3871C346.267 25.5471 346.193 25.7656 346.193 26.0426C346.193 26.4212 346.333 26.7074 346.613 26.9013C346.896 27.0921 347.255 27.1875 347.688 27.1875ZM357.784 22.4972L356.805 22.7741C356.743 22.611 356.653 22.4525 356.532 22.2987C356.416 22.1417 356.256 22.0124 356.052 21.9109C355.849 21.8093 355.589 21.7585 355.272 21.7585C354.838 21.7585 354.477 21.8585 354.187 22.0586C353.901 22.2556 353.758 22.5064 353.758 22.8111C353.758 23.0819 353.856 23.2958 354.053 23.4528C354.25 23.6097 354.558 23.7405 354.977 23.8452L356.029 24.1037C356.663 24.2576 357.136 24.493 357.447 24.81C357.757 25.1239 357.913 25.5286 357.913 26.0241C357.913 26.4304 357.796 26.7936 357.562 27.1136C357.331 27.4337 357.008 27.6861 356.593 27.8707C356.177 28.0554 355.694 28.1477 355.143 28.1477C354.42 28.1477 353.821 27.9908 353.347 27.6768C352.873 27.3629 352.573 26.9044 352.447 26.3011L353.481 26.0426C353.579 26.4242 353.766 26.7105 354.04 26.9013C354.317 27.0921 354.678 27.1875 355.124 27.1875C355.632 27.1875 356.035 27.0798 356.334 26.8643C356.636 26.6458 356.786 26.3842 356.786 26.0795C356.786 25.8333 356.7 25.6271 356.528 25.4609C356.356 25.2917 356.091 25.1655 355.734 25.0824L354.552 24.8054C353.903 24.6515 353.426 24.413 353.121 24.0898C352.819 23.7636 352.669 23.3558 352.669 22.8665C352.669 22.4664 352.781 22.1125 353.006 21.8047C353.233 21.4969 353.543 21.2553 353.933 21.0799C354.327 20.9045 354.774 20.8168 355.272 20.8168C355.974 20.8168 356.525 20.9706 356.925 21.2784C357.328 21.5862 357.614 21.9924 357.784 22.4972ZM364.576 22.4972L363.597 22.7741C363.535 22.611 363.445 22.4525 363.324 22.2987C363.208 22.1417 363.047 22.0124 362.844 21.9109C362.641 21.8093 362.381 21.7585 362.064 21.7585C361.63 21.7585 361.269 21.8585 360.979 22.0586C360.693 22.2556 360.55 22.5064 360.55 22.8111C360.55 23.0819 360.648 23.2958 360.845 23.4528C361.042 23.6097 361.35 23.7405 361.769 23.8452L362.821 24.1037C363.455 24.2576 363.928 24.493 364.239 24.81C364.549 25.1239 364.705 25.5286 364.705 26.0241C364.705 26.4304 364.588 26.7936 364.354 27.1136C364.123 27.4337 363.8 27.6861 363.384 27.8707C362.969 28.0554 362.486 28.1477 361.935 28.1477C361.212 28.1477 360.613 27.9908 360.139 27.6768C359.665 27.3629 359.365 26.9044 359.239 26.3011L360.273 26.0426C360.371 26.4242 360.558 26.7105 360.832 26.9013C361.109 27.0921 361.47 27.1875 361.916 27.1875C362.424 27.1875 362.827 27.0798 363.126 26.8643C363.428 26.6458 363.578 26.3842 363.578 26.0795C363.578 25.8333 363.492 25.6271 363.32 25.4609C363.148 25.2917 362.883 25.1655 362.526 25.0824L361.344 24.8054C360.695 24.6515 360.218 24.413 359.913 24.0898C359.611 23.7636 359.46 23.3558 359.46 22.8665C359.46 22.4664 359.573 22.1125 359.797 21.8047C360.025 21.4969 360.335 21.2553 360.725 21.0799C361.119 20.9045 361.566 20.8168 362.064 20.8168C362.766 20.8168 363.317 20.9706 363.717 21.2784C364.12 21.5862 364.406 21.9924 364.576 22.4972ZM369.318 28.1477C368.635 28.1477 368.045 27.9969 367.55 27.6953C367.057 27.3906 366.677 26.9659 366.409 26.4212C366.145 25.8733 366.012 25.2363 366.012 24.5099C366.012 23.7836 366.145 23.1435 366.409 22.5895C366.677 22.0324 367.05 21.5985 367.527 21.2876C368.007 20.9737 368.567 20.8168 369.207 20.8168C369.576 20.8168 369.941 20.8783 370.301 21.0014C370.661 21.1245 370.989 21.3246 371.284 21.6016C371.58 21.8755 371.815 22.2386 371.991 22.6911C372.166 23.1435 372.254 23.7005 372.254 24.3622V24.8239H366.788V23.8821H371.146C371.146 23.482 371.066 23.125 370.906 22.8111C370.749 22.4972 370.524 22.2494 370.232 22.0678C369.943 21.8862 369.601 21.7955 369.207 21.7955C368.773 21.7955 368.398 21.9032 368.081 22.1186C367.767 22.331 367.525 22.608 367.356 22.9496C367.187 23.2912 367.102 23.6574 367.102 24.0483V24.6761C367.102 25.2116 367.194 25.6656 367.379 26.038C367.567 26.4073 367.827 26.6889 368.159 26.8828C368.491 27.0736 368.878 27.169 369.318 27.169C369.604 27.169 369.863 27.129 370.093 27.049C370.327 26.9659 370.529 26.8428 370.698 26.6797C370.867 26.5135 370.998 26.3073 371.091 26.0611L372.143 26.3565C372.032 26.7135 371.846 27.0275 371.585 27.2983C371.323 27.5661 371 27.7753 370.615 27.9261C370.23 28.0739 369.798 28.1477 369.318 28.1477ZM373.911 30.6591V20.9091H374.964V22.0355H375.093C375.173 21.9124 375.284 21.7554 375.425 21.5646C375.57 21.3707 375.776 21.1984 376.044 21.0476C376.315 20.8937 376.681 20.8168 377.143 20.8168C377.74 20.8168 378.266 20.966 378.722 21.2646C379.177 21.5631 379.533 21.9863 379.788 22.5341C380.043 23.0819 380.171 23.7282 380.171 24.473C380.171 25.224 380.043 25.8749 379.788 26.4258C379.533 26.9736 379.179 27.3983 378.726 27.6999C378.274 27.9985 377.752 28.1477 377.161 28.1477C376.706 28.1477 376.341 28.0723 376.067 27.9215C375.793 27.7676 375.582 27.5937 375.435 27.3999C375.287 27.2029 375.173 27.0398 375.093 26.9105H375.001V30.6591H373.911ZM374.982 24.4545C374.982 24.9901 375.061 25.4625 375.218 25.8718C375.375 26.2781 375.604 26.5966 375.906 26.8274C376.207 27.0552 376.576 27.169 377.013 27.169C377.469 27.169 377.849 27.049 378.154 26.8089C378.462 26.5658 378.692 26.2396 378.846 25.8303C379.003 25.4179 379.082 24.9593 379.082 24.4545C379.082 23.956 379.005 23.5066 378.851 23.1065C378.7 22.7034 378.471 22.3848 378.163 22.1509C377.858 21.9139 377.475 21.7955 377.013 21.7955C376.57 21.7955 376.198 21.9078 375.896 22.1325C375.595 22.354 375.367 22.6649 375.213 23.065C375.059 23.462 374.982 23.9252 374.982 24.4545ZM384.714 28.1477C384.074 28.1477 383.512 27.9954 383.029 27.6907C382.549 27.386 382.173 26.9598 381.902 26.4119C381.635 25.8641 381.501 25.224 381.501 24.4915C381.501 23.7528 381.635 23.1081 381.902 22.5572C382.173 22.0063 382.549 21.5785 383.029 21.2738C383.512 20.9691 384.074 20.8168 384.714 20.8168C385.354 20.8168 385.914 20.9691 386.394 21.2738C386.877 21.5785 387.253 22.0063 387.521 22.5572C387.791 23.1081 387.927 23.7528 387.927 24.4915C387.927 25.224 387.791 25.8641 387.521 26.4119C387.253 26.9598 386.877 27.386 386.394 27.6907C385.914 27.9954 385.354 28.1477 384.714 28.1477ZM384.714 27.169C385.2 27.169 385.6 27.0444 385.914 26.7951C386.228 26.5458 386.46 26.218 386.611 25.8118C386.762 25.4055 386.837 24.9654 386.837 24.4915C386.837 24.0175 386.762 23.5759 386.611 23.1665C386.46 22.7572 386.228 22.4264 385.914 22.174C385.6 21.9216 385.2 21.7955 384.714 21.7955C384.228 21.7955 383.827 21.9216 383.513 22.174C383.2 22.4264 382.967 22.7572 382.816 23.1665C382.666 23.5759 382.59 24.0175 382.59 24.4915C382.59 24.9654 382.666 25.4055 382.816 25.8118C382.967 26.218 383.2 26.5458 383.513 26.7951C383.827 27.0444 384.228 27.169 384.714 27.169ZM389.59 28V20.9091H390.642V21.9801H390.716C390.846 21.6293 391.08 21.3446 391.418 21.1261C391.757 20.9076 392.138 20.7983 392.563 20.7983C392.643 20.7983 392.743 20.7998 392.863 20.8029C392.983 20.806 393.074 20.8106 393.135 20.8168V21.9247C393.098 21.9155 393.014 21.9016 392.881 21.8832C392.752 21.8616 392.615 21.8509 392.471 21.8509C392.126 21.8509 391.818 21.9232 391.547 22.0678C391.28 22.2094 391.067 22.4064 390.91 22.6587C390.756 22.908 390.679 23.1927 390.679 23.5128V28H389.59ZM397.955 20.9091V21.8324H394.28V20.9091H397.955ZM395.351 19.2102H396.441V25.9688C396.441 26.2765 396.485 26.5073 396.575 26.6612C396.667 26.812 396.784 26.9136 396.926 26.9659C397.07 27.0152 397.223 27.0398 397.383 27.0398C397.503 27.0398 397.601 27.0336 397.678 27.0213C397.755 27.0059 397.816 26.9936 397.863 26.9844L398.084 27.9631C398.01 27.9908 397.907 28.0185 397.775 28.0462C397.643 28.0769 397.475 28.0923 397.272 28.0923C396.964 28.0923 396.662 28.0262 396.367 27.8938C396.075 27.7615 395.831 27.5599 395.638 27.2891C395.447 27.0182 395.351 26.6766 395.351 26.2642V19.2102Z" fill="black"/>
<path d="M165.168 41.0316V39.4066L171.668 36.5444V38.4141L167.218 40.2006L167.278 40.1037V40.3345L167.218 40.2376L171.668 42.0241V43.8938L165.168 41.0316ZM174.004 41.0316V39.4066L180.504 36.5444V38.4141L176.054 40.2006L176.114 40.1037V40.3345L176.054 40.2376L180.504 42.0241V43.8938L174.004 41.0316ZM182.457 46.6591V36.9091H184.396V38.1001H184.483C184.569 37.9093 184.694 37.7154 184.857 37.5185C185.023 37.3184 185.239 37.1522 185.504 37.0199C185.771 36.8845 186.104 36.8168 186.501 36.8168C187.018 36.8168 187.495 36.9522 187.932 37.223C188.369 37.4908 188.718 37.8955 188.98 38.4371C189.241 38.9757 189.372 39.6513 189.372 40.4638C189.372 41.2547 189.244 41.9226 188.989 42.4673C188.737 43.009 188.392 43.4199 187.955 43.6999C187.521 43.9769 187.035 44.1154 186.496 44.1154C186.114 44.1154 185.79 44.0523 185.522 43.9261C185.257 43.8 185.04 43.6415 184.871 43.4506C184.702 43.2567 184.573 43.0613 184.483 42.8643H184.423V46.6591H182.457ZM184.382 40.4545C184.382 40.8762 184.44 41.244 184.557 41.5579C184.674 41.8718 184.843 42.1165 185.065 42.2919C185.287 42.4643 185.556 42.5504 185.873 42.5504C186.193 42.5504 186.464 42.4627 186.685 42.2873C186.907 42.1088 187.075 41.8626 187.189 41.5487C187.306 41.2317 187.364 40.867 187.364 40.4545C187.364 40.0452 187.307 39.6851 187.193 39.3743C187.079 39.0634 186.912 38.8203 186.69 38.6449C186.468 38.4695 186.196 38.3817 185.873 38.3817C185.553 38.3817 185.282 38.4664 185.06 38.6357C184.842 38.8049 184.674 39.045 184.557 39.3558C184.44 39.6667 184.382 40.0329 184.382 40.4545ZM193.887 44.1385C193.17 44.1385 192.55 43.9862 192.027 43.6815C191.507 43.3737 191.105 42.9459 190.822 42.3981C190.539 41.8472 190.397 41.2086 190.397 40.4822C190.397 39.7498 190.539 39.1096 190.822 38.5618C191.105 38.0109 191.507 37.5831 192.027 37.2784C192.55 36.9706 193.17 36.8168 193.887 36.8168C194.604 36.8168 195.223 36.9706 195.743 37.2784C196.266 37.5831 196.669 38.0109 196.952 38.5618C197.236 39.1096 197.377 39.7498 197.377 40.4822C197.377 41.2086 197.236 41.8472 196.952 42.3981C196.669 42.9459 196.266 43.3737 195.743 43.6815C195.223 43.9862 194.604 44.1385 193.887 44.1385ZM193.896 42.6151C194.223 42.6151 194.495 42.5227 194.713 42.3381C194.932 42.1503 195.097 41.8949 195.207 41.5717C195.321 41.2486 195.378 40.8808 195.378 40.4684C195.378 40.056 195.321 39.6882 195.207 39.3651C195.097 39.0419 194.932 38.7865 194.713 38.5987C194.495 38.411 194.223 38.3171 193.896 38.3171C193.567 38.3171 193.29 38.411 193.065 38.5987C192.844 38.7865 192.676 39.0419 192.562 39.3651C192.451 39.6882 192.396 40.056 192.396 40.4684C192.396 40.8808 192.451 41.2486 192.562 41.5717C192.676 41.8949 192.844 42.1503 193.065 42.3381C193.29 42.5227 193.567 42.6151 193.896 42.6151ZM204.556 38.9311L202.755 39.0419C202.725 38.888 202.658 38.7495 202.557 38.6264C202.455 38.5002 202.321 38.4002 202.155 38.3263C201.992 38.2494 201.797 38.2109 201.569 38.2109C201.264 38.2109 201.007 38.2756 200.798 38.4048C200.589 38.531 200.484 38.7003 200.484 38.9126C200.484 39.0819 200.552 39.225 200.687 39.342C200.823 39.4589 201.055 39.5528 201.384 39.6236L202.668 39.8821C203.357 40.0237 203.871 40.2514 204.21 40.5653C204.548 40.8793 204.717 41.2917 204.717 41.8026C204.717 42.2673 204.58 42.6751 204.306 43.0259C204.036 43.3768 203.663 43.6507 203.189 43.8477C202.718 44.0415 202.175 44.1385 201.56 44.1385C200.621 44.1385 199.873 43.9431 199.316 43.5522C198.762 43.1583 198.437 42.6228 198.342 41.9457L200.276 41.8441C200.335 42.1303 200.476 42.3488 200.701 42.4996C200.926 42.6474 201.213 42.7212 201.564 42.7212C201.909 42.7212 202.186 42.6551 202.395 42.5227C202.608 42.3873 202.715 42.2134 202.718 42.0011C202.715 41.8226 202.64 41.6764 202.492 41.5625C202.344 41.4455 202.117 41.3563 201.809 41.2947L200.581 41.0501C199.888 40.9116 199.373 40.6715 199.034 40.3299C198.699 39.9883 198.531 39.5528 198.531 39.0234C198.531 38.5679 198.654 38.1755 198.901 37.8462C199.15 37.5169 199.499 37.263 199.949 37.0845C200.401 36.906 200.93 36.8168 201.537 36.8168C202.432 36.8168 203.137 37.006 203.651 37.3846C204.168 37.7631 204.47 38.2786 204.556 38.9311ZM209.727 36.9091V38.3864H205.457V36.9091H209.727ZM206.427 35.2102H208.393V41.821C208.393 42.0026 208.421 42.1442 208.476 42.2457C208.532 42.3442 208.609 42.4135 208.707 42.4535C208.809 42.4935 208.926 42.5135 209.058 42.5135C209.15 42.5135 209.243 42.5058 209.335 42.4904C209.427 42.4719 209.498 42.4581 209.547 42.4489L209.857 43.9123C209.758 43.9431 209.62 43.9785 209.441 44.0185C209.263 44.0616 209.046 44.0877 208.79 44.0969C208.316 44.1154 207.901 44.0523 207.544 43.9077C207.19 43.763 206.914 43.5384 206.717 43.2337C206.52 42.929 206.424 42.5443 206.427 42.0795V35.2102ZM214.136 44.1385C213.41 44.1385 212.785 43.9846 212.262 43.6768C211.742 43.366 211.342 42.9351 211.062 42.3842C210.785 41.8333 210.646 41.1993 210.646 40.4822C210.646 39.7559 210.786 39.1188 211.066 38.571C211.349 38.0201 211.751 37.5908 212.271 37.283C212.791 36.9722 213.41 36.8168 214.127 36.8168C214.745 36.8168 215.287 36.9291 215.752 37.1538C216.217 37.3784 216.584 37.6939 216.855 38.1001C217.126 38.5064 217.275 38.9834 217.303 39.5312H215.447C215.395 39.1773 215.256 38.8926 215.032 38.6772C214.81 38.4587 214.519 38.3494 214.159 38.3494C213.854 38.3494 213.588 38.4325 213.361 38.5987C213.136 38.7618 212.96 39.0004 212.834 39.3143C212.708 39.6282 212.645 40.0083 212.645 40.4545C212.645 40.907 212.707 41.2917 212.83 41.6087C212.956 41.9257 213.133 42.1673 213.361 42.3335C213.588 42.4996 213.854 42.5827 214.159 42.5827C214.384 42.5827 214.585 42.5366 214.764 42.4442C214.946 42.3519 215.095 42.218 215.212 42.0426C215.332 41.8641 215.41 41.6502 215.447 41.4009H217.303C217.272 41.9426 217.124 42.4196 216.86 42.832C216.598 43.2414 216.237 43.5614 215.775 43.7923C215.313 44.0231 214.767 44.1385 214.136 44.1385ZM221.766 44.1385C221.049 44.1385 220.429 43.9862 219.906 43.6815C219.385 43.3737 218.984 42.9459 218.701 42.3981C218.417 41.8472 218.276 41.2086 218.276 40.4822C218.276 39.7498 218.417 39.1096 218.701 38.5618C218.984 38.0109 219.385 37.5831 219.906 37.2784C220.429 36.9706 221.049 36.8168 221.766 36.8168C222.483 36.8168 223.102 36.9706 223.622 37.2784C224.145 37.5831 224.548 38.0109 224.831 38.5618C225.114 39.1096 225.256 39.7498 225.256 40.4822C225.256 41.2086 225.114 41.8472 224.831 42.3981C224.548 42.9459 224.145 43.3737 223.622 43.6815C223.102 43.9862 222.483 44.1385 221.766 44.1385ZM221.775 42.6151C222.101 42.6151 222.374 42.5227 222.592 42.3381C222.811 42.1503 222.975 41.8949 223.086 41.5717C223.2 41.2486 223.257 40.8808 223.257 40.4684C223.257 40.056 223.2 39.6882 223.086 39.3651C222.975 39.0419 222.811 38.7865 222.592 38.5987C222.374 38.411 222.101 38.3171 221.775 38.3171C221.446 38.3171 221.169 38.411 220.944 38.5987C220.723 38.7865 220.555 39.0419 220.441 39.3651C220.33 39.6882 220.275 40.056 220.275 40.4684C220.275 40.8808 220.33 41.2486 220.441 41.5717C220.555 41.8949 220.723 42.1503 220.944 42.3381C221.169 42.5227 221.446 42.6151 221.775 42.6151ZM228.501 39.9006V44H226.535V36.9091H228.409V38.1602H228.492C228.649 37.7478 228.912 37.4215 229.282 37.1815C229.651 36.9383 230.099 36.8168 230.625 36.8168C231.117 36.8168 231.547 36.9245 231.913 37.1399C232.279 37.3554 232.564 37.6631 232.767 38.0632C232.97 38.4602 233.072 38.9342 233.072 39.4851V44H231.105V39.8359C231.108 39.402 230.997 39.0634 230.773 38.8203C230.548 38.5741 230.239 38.451 229.845 38.451C229.58 38.451 229.346 38.5079 229.143 38.6218C228.943 38.7357 228.786 38.9019 228.672 39.1204C228.561 39.3358 228.504 39.5959 228.501 39.9006ZM237.235 44.1154C236.696 44.1154 236.208 43.9769 235.771 43.6999C235.337 43.4199 234.993 43.009 234.737 42.4673C234.485 41.9226 234.359 41.2547 234.359 40.4638C234.359 39.6513 234.489 38.9757 234.751 38.4371C235.013 37.8955 235.36 37.4908 235.794 37.223C236.231 36.9522 236.71 36.8168 237.23 36.8168C237.627 36.8168 237.958 36.8845 238.223 37.0199C238.49 37.1522 238.706 37.3184 238.869 37.5185C239.035 37.7154 239.161 37.9093 239.247 38.1001H239.307V34.5455H241.269V44H239.331V42.8643H239.247C239.155 43.0613 239.024 43.2567 238.855 43.4506C238.689 43.6415 238.472 43.8 238.204 43.9261C237.939 44.0523 237.616 44.1154 237.235 44.1154ZM237.858 42.5504C238.175 42.5504 238.443 42.4643 238.661 42.2919C238.883 42.1165 239.052 41.8718 239.169 41.5579C239.289 41.244 239.349 40.8762 239.349 40.4545C239.349 40.0329 239.291 39.6667 239.174 39.3558C239.057 39.045 238.887 38.8049 238.666 38.6357C238.444 38.4664 238.175 38.3817 237.858 38.3817C237.535 38.3817 237.262 38.4695 237.041 38.6449C236.819 38.8203 236.651 39.0634 236.538 39.3743C236.424 39.6851 236.367 40.0452 236.367 40.4545C236.367 40.867 236.424 41.2317 236.538 41.5487C236.655 41.8626 236.822 42.1088 237.041 42.2873C237.262 42.4627 237.535 42.5504 237.858 42.5504ZM242.886 44V36.9091H244.853V44H242.886ZM243.874 35.995C243.582 35.995 243.331 35.8981 243.122 35.7042C242.916 35.5072 242.812 35.2718 242.812 34.9979C242.812 34.727 242.916 34.4947 243.122 34.3008C243.331 34.1038 243.582 34.0053 243.874 34.0053C244.167 34.0053 244.416 34.1038 244.622 34.3008C244.831 34.4947 244.936 34.727 244.936 34.9979C244.936 35.2718 244.831 35.5072 244.622 35.7042C244.416 35.8981 244.167 35.995 243.874 35.995ZM250.2 36.9091V38.3864H245.93V36.9091H250.2ZM246.899 35.2102H248.866V41.821C248.866 42.0026 248.894 42.1442 248.949 42.2457C249.004 42.3442 249.081 42.4135 249.18 42.4535C249.281 42.4935 249.398 42.5135 249.531 42.5135C249.623 42.5135 249.715 42.5058 249.808 42.4904C249.9 42.4719 249.971 42.4581 250.02 42.4489L250.329 43.9123C250.231 43.9431 250.092 43.9785 249.914 44.0185C249.735 44.0616 249.518 44.0877 249.263 44.0969C248.789 44.1154 248.373 44.0523 248.016 43.9077C247.662 43.763 247.387 43.5384 247.19 43.2337C246.993 42.929 246.896 42.5443 246.899 42.0795V35.2102ZM251.481 44V36.9091H253.448V44H251.481ZM252.469 35.995C252.177 35.995 251.926 35.8981 251.717 35.7042C251.51 35.5072 251.407 35.2718 251.407 34.9979C251.407 34.727 251.51 34.4947 251.717 34.3008C251.926 34.1038 252.177 34.0053 252.469 34.0053C252.761 34.0053 253.011 34.1038 253.217 34.3008C253.426 34.4947 253.531 34.727 253.531 34.9979C253.531 35.2718 253.426 35.5072 253.217 35.7042C253.011 35.8981 252.761 35.995 252.469 35.995ZM258.227 44.1385C257.51 44.1385 256.89 43.9862 256.366 43.6815C255.846 43.3737 255.445 42.9459 255.162 42.3981C254.878 41.8472 254.737 41.2086 254.737 40.4822C254.737 39.7498 254.878 39.1096 255.162 38.5618C255.445 38.0109 255.846 37.5831 256.366 37.2784C256.89 36.9706 257.51 36.8168 258.227 36.8168C258.944 36.8168 259.563 36.9706 260.083 37.2784C260.606 37.5831 261.009 38.0109 261.292 38.5618C261.575 39.1096 261.717 39.7498 261.717 40.4822C261.717 41.2086 261.575 41.8472 261.292 42.3981C261.009 42.9459 260.606 43.3737 260.083 43.6815C259.563 43.9862 258.944 44.1385 258.227 44.1385ZM258.236 42.6151C258.562 42.6151 258.835 42.5227 259.053 42.3381C259.272 42.1503 259.436 41.8949 259.547 41.5717C259.661 41.2486 259.718 40.8808 259.718 40.4684C259.718 40.056 259.661 39.6882 259.547 39.3651C259.436 39.0419 259.272 38.7865 259.053 38.5987C258.835 38.411 258.562 38.3171 258.236 38.3171C257.907 38.3171 257.63 38.411 257.405 38.5987C257.184 38.7865 257.016 39.0419 256.902 39.3651C256.791 39.6882 256.736 40.056 256.736 40.4684C256.736 40.8808 256.791 41.2486 256.902 41.5717C257.016 41.8949 257.184 42.1503 257.405 42.3381C257.63 42.5227 257.907 42.6151 258.236 42.6151ZM264.962 39.9006V44H262.996V36.9091H264.87V38.1602H264.953C265.11 37.7478 265.373 37.4215 265.743 37.1815C266.112 36.9383 266.56 36.8168 267.086 36.8168C267.578 36.8168 268.008 36.9245 268.374 37.1399C268.74 37.3554 269.025 37.6631 269.228 38.0632C269.431 38.4602 269.533 38.9342 269.533 39.4851V44H267.566V39.8359C267.569 39.402 267.458 39.0634 267.234 38.8203C267.009 38.5741 266.7 38.451 266.306 38.451C266.041 38.451 265.807 38.5079 265.604 38.6218C265.404 38.7357 265.247 38.9019 265.133 39.1204C265.022 39.3358 264.965 39.5959 264.962 39.9006ZM277.966 41.0316L271.466 43.8938V42.0241L275.916 40.2376L275.856 40.3345V40.1037L275.916 40.2006L271.466 38.4141V36.5444L277.966 39.4066V41.0316ZM286.802 41.0316L280.302 43.8938V42.0241L284.752 40.2376L284.692 40.3345V40.1037L284.752 40.2006L280.302 38.4141V36.5444L286.802 39.4066V41.0316ZM292.123 44V34.5455H297.829V35.5611H293.268V38.7557H297.534V39.7713H293.268V42.9844H297.903V44H292.123ZM295.927 33.696L294.967 32.4034L294.007 33.696H292.973V33.6222L294.469 31.7017H295.466L296.961 33.6222V33.696H295.927ZM302.829 36.9091V37.8324H299.154V36.9091H302.829ZM300.225 35.2102H301.315V41.9688C301.315 42.2765 301.359 42.5073 301.449 42.6612C301.541 42.812 301.658 42.9136 301.8 42.9659C301.944 43.0152 302.097 43.0398 302.257 43.0398C302.377 43.0398 302.475 43.0336 302.552 43.0213C302.629 43.0059 302.691 42.9936 302.737 42.9844L302.958 43.9631C302.884 43.9908 302.781 44.0185 302.649 44.0462C302.517 44.0769 302.349 44.0923 302.146 44.0923C301.838 44.0923 301.536 44.0262 301.241 43.8938C300.949 43.7615 300.705 43.5599 300.512 43.2891C300.321 43.0182 300.225 42.6766 300.225 42.2642V35.2102ZM304.468 44V36.9091H305.52V37.9801H305.594C305.724 37.6293 305.957 37.3446 306.296 37.1261C306.635 36.9076 307.016 36.7983 307.441 36.7983C307.521 36.7983 307.621 36.7998 307.741 36.8029C307.861 36.806 307.952 36.8106 308.013 36.8168V37.9247C307.976 37.9155 307.892 37.9016 307.759 37.8832C307.63 37.8616 307.493 37.8509 307.349 37.8509C307.004 37.8509 306.696 37.9232 306.425 38.0678C306.157 38.2094 305.945 38.4064 305.788 38.6587C305.634 38.908 305.557 39.1927 305.557 39.5128V44H304.468ZM312.062 44.1477C311.379 44.1477 310.789 43.9969 310.294 43.6953C309.801 43.3906 309.421 42.9659 309.154 42.4212C308.889 41.8733 308.757 41.2363 308.757 40.5099C308.757 39.7836 308.889 39.1435 309.154 38.5895C309.421 38.0324 309.794 37.5985 310.271 37.2876C310.751 36.9737 311.311 36.8168 311.951 36.8168C312.32 36.8168 312.685 36.8783 313.045 37.0014C313.405 37.1245 313.733 37.3246 314.029 37.6016C314.324 37.8755 314.559 38.2386 314.735 38.6911C314.91 39.1435 314.998 39.7005 314.998 40.3622V40.8239H309.532V39.8821H313.89C313.89 39.482 313.81 39.125 313.65 38.8111C313.493 38.4972 313.268 38.2494 312.976 38.0678C312.687 37.8862 312.345 37.7955 311.951 37.7955C311.517 37.7955 311.142 37.9032 310.825 38.1186C310.511 38.331 310.269 38.608 310.1 38.9496C309.931 39.2912 309.846 39.6574 309.846 40.0483V40.6761C309.846 41.2116 309.938 41.6656 310.123 42.038C310.311 42.4073 310.571 42.6889 310.903 42.8828C311.236 43.0736 311.622 43.169 312.062 43.169C312.348 43.169 312.607 43.129 312.838 43.049C313.071 42.9659 313.273 42.8428 313.442 42.6797C313.612 42.5135 313.742 42.3073 313.835 42.0611L314.887 42.3565C314.776 42.7135 314.59 43.0275 314.329 43.2983C314.067 43.5661 313.744 43.7753 313.359 43.9261C312.974 44.0739 312.542 44.1477 312.062 44.1477ZM322.398 44.1662C321.949 44.1662 321.541 44.0816 321.175 43.9123C320.809 43.7399 320.518 43.4922 320.302 43.169C320.087 42.8428 319.979 42.4489 319.979 41.9872C319.979 41.581 320.059 41.2517 320.219 40.9993C320.379 40.7438 320.593 40.5438 320.861 40.3991C321.129 40.2545 321.424 40.1468 321.747 40.076C322.074 40.0021 322.401 39.9437 322.731 39.9006C323.162 39.8452 323.511 39.8036 323.779 39.7759C324.049 39.7451 324.246 39.6944 324.369 39.6236C324.496 39.5528 324.559 39.4297 324.559 39.2543V39.2173C324.559 38.7618 324.434 38.4079 324.185 38.1555C323.939 37.9032 323.565 37.777 323.063 37.777C322.543 37.777 322.135 37.8909 321.84 38.1186C321.544 38.3464 321.336 38.5895 321.216 38.848L320.182 38.4787C320.367 38.0478 320.613 37.7124 320.921 37.4723C321.232 37.2292 321.57 37.0599 321.937 36.9645C322.306 36.866 322.669 36.8168 323.026 36.8168C323.254 36.8168 323.515 36.8445 323.811 36.8999C324.109 36.9522 324.397 37.0614 324.674 37.2276C324.954 37.3938 325.187 37.6446 325.371 37.9801C325.556 38.3156 325.648 38.7649 325.648 39.3281V44H324.559V43.0398H324.503C324.43 43.1937 324.306 43.3583 324.134 43.5337C323.962 43.7092 323.732 43.8584 323.446 43.9815C323.16 44.1046 322.811 44.1662 322.398 44.1662ZM322.564 43.1875C322.995 43.1875 323.358 43.1029 323.654 42.9336C323.952 42.7643 324.177 42.5458 324.328 42.2781C324.482 42.0103 324.559 41.7287 324.559 41.4332V40.4361C324.513 40.4915 324.411 40.5423 324.254 40.5884C324.1 40.6315 323.922 40.67 323.719 40.7038C323.519 40.7346 323.323 40.7623 323.132 40.7869C322.945 40.8085 322.792 40.8269 322.675 40.8423C322.392 40.8793 322.127 40.9393 321.881 41.0224C321.638 41.1024 321.441 41.224 321.29 41.3871C321.143 41.5471 321.069 41.7656 321.069 42.0426C321.069 42.4212 321.209 42.7074 321.489 42.9013C321.772 43.0921 322.131 43.1875 322.564 43.1875ZM327.637 44V36.9091H328.689V37.9801H328.763C328.892 37.6293 329.126 37.3446 329.465 37.1261C329.803 36.9076 330.185 36.7983 330.61 36.7983C330.69 36.7983 330.79 36.7998 330.91 36.8029C331.03 36.806 331.121 36.8106 331.182 36.8168V37.9247C331.145 37.9155 331.061 37.9016 330.928 37.8832C330.799 37.8616 330.662 37.8509 330.517 37.8509C330.173 37.8509 329.865 37.9232 329.594 38.0678C329.326 38.2094 329.114 38.4064 328.957 38.6587C328.803 38.908 328.726 39.1927 328.726 39.5128V44H327.637ZM332.474 44V36.9091H333.526V37.9801H333.6C333.729 37.6293 333.963 37.3446 334.302 37.1261C334.64 36.9076 335.022 36.7983 335.447 36.7983C335.527 36.7983 335.627 36.7998 335.747 36.8029C335.867 36.806 335.958 36.8106 336.019 36.8168V37.9247C335.982 37.9155 335.898 37.9016 335.765 37.8832C335.636 37.8616 335.499 37.8509 335.354 37.8509C335.01 37.8509 334.702 37.9232 334.431 38.0678C334.163 38.2094 333.951 38.4064 333.794 38.6587C333.64 38.908 333.563 39.1927 333.563 39.5128V44H332.474ZM337.311 44V36.9091H338.4V44H337.311ZM337.865 35.7273C337.652 35.7273 337.469 35.6549 337.315 35.5103C337.164 35.3656 337.089 35.1918 337.089 34.9886C337.089 34.7855 337.164 34.6116 337.315 34.467C337.469 34.3223 337.652 34.25 337.865 34.25C338.077 34.25 338.259 34.3223 338.409 34.467C338.563 34.6116 338.64 34.7855 338.64 34.9886C338.64 35.1918 338.563 35.3656 338.409 35.5103C338.259 35.6549 338.077 35.7273 337.865 35.7273ZM346.194 36.9091L343.572 44H342.464L339.842 36.9091H341.023L342.981 42.5597H343.055L345.012 36.9091H346.194ZM350.351 44.1477C349.668 44.1477 349.078 43.9969 348.583 43.6953C348.09 43.3906 347.71 42.9659 347.443 42.4212C347.178 41.8733 347.046 41.2363 347.046 40.5099C347.046 39.7836 347.178 39.1435 347.443 38.5895C347.71 38.0324 348.083 37.5985 348.56 37.2876C349.04 36.9737 349.6 36.8168 350.24 36.8168C350.61 36.8168 350.974 36.8783 351.334 37.0014C351.694 37.1245 352.022 37.3246 352.318 37.6016C352.613 37.8755 352.849 38.2386 353.024 38.6911C353.199 39.1435 353.287 39.7005 353.287 40.3622V40.8239H347.821V39.8821H352.179C352.179 39.482 352.099 39.125 351.939 38.8111C351.782 38.4972 351.557 38.2494 351.265 38.0678C350.976 37.8862 350.634 37.7955 350.24 37.7955C349.806 37.7955 349.431 37.9032 349.114 38.1186C348.8 38.331 348.558 38.608 348.389 38.9496C348.22 39.2912 348.135 39.6574 348.135 40.0483V40.6761C348.135 41.2116 348.227 41.6656 348.412 42.038C348.6 42.4073 348.86 42.6889 349.192 42.8828C349.525 43.0736 349.911 43.169 350.351 43.169C350.637 43.169 350.896 43.129 351.127 43.049C351.36 42.9659 351.562 42.8428 351.731 42.6797C351.901 42.5135 352.031 42.3073 352.124 42.0611L353.176 42.3565C353.066 42.7135 352.879 43.0275 352.618 43.2983C352.356 43.5661 352.033 43.7753 351.648 43.9261C351.264 44.0739 350.831 44.1477 350.351 44.1477ZM349.686 35.9489L350.813 33.8068H352.087L350.646 35.9489H349.686ZM361.574 44.1477C360.89 44.1477 360.301 43.9969 359.806 43.6953C359.313 43.3906 358.933 42.9659 358.665 42.4212C358.401 41.8733 358.268 41.2363 358.268 40.5099C358.268 39.7836 358.401 39.1435 358.665 38.5895C358.933 38.0324 359.305 37.5985 359.782 37.2876C360.263 36.9737 360.823 36.8168 361.463 36.8168C361.832 36.8168 362.197 36.8783 362.557 37.0014C362.917 37.1245 363.245 37.3246 363.54 37.6016C363.836 37.8755 364.071 38.2386 364.247 38.6911C364.422 39.1435 364.51 39.7005 364.51 40.3622V40.8239H359.044V39.8821H363.402C363.402 39.482 363.322 39.125 363.162 38.8111C363.005 38.4972 362.78 38.2494 362.488 38.0678C362.198 37.8862 361.857 37.7955 361.463 37.7955C361.029 37.7955 360.653 37.9032 360.336 38.1186C360.023 38.331 359.781 38.608 359.612 38.9496C359.442 39.2912 359.358 39.6574 359.358 40.0483V40.6761C359.358 41.2116 359.45 41.6656 359.635 42.038C359.823 42.4073 360.083 42.6889 360.415 42.8828C360.747 43.0736 361.134 43.169 361.574 43.169C361.86 43.169 362.118 43.129 362.349 43.049C362.583 42.9659 362.785 42.8428 362.954 42.6797C363.123 42.5135 363.254 42.3073 363.346 42.0611L364.399 42.3565C364.288 42.7135 364.102 43.0275 363.84 43.2983C363.579 43.5661 363.256 43.7753 362.871 43.9261C362.486 44.0739 362.054 44.1477 361.574 44.1477ZM367.257 39.7344V44H366.167V36.9091H367.22V38.017H367.312C367.478 37.657 367.731 37.3677 368.069 37.1491C368.408 36.9276 368.845 36.8168 369.38 36.8168C369.86 36.8168 370.28 36.9152 370.64 37.1122C371.001 37.3061 371.281 37.6016 371.481 37.9986C371.681 38.3925 371.781 38.8911 371.781 39.4943V44H370.691V39.5682C370.691 39.0111 370.547 38.5772 370.257 38.2663C369.968 37.9524 369.571 37.7955 369.066 37.7955C368.718 37.7955 368.408 37.8709 368.134 38.0217C367.863 38.1725 367.649 38.3925 367.492 38.6818C367.335 38.9711 367.257 39.322 367.257 39.7344ZM383.226 36.9091L380.604 44H379.496L376.874 36.9091H378.056L380.013 42.5597H380.087L382.044 36.9091H383.226ZM384.664 44V36.9091H385.754V44H384.664ZM385.218 35.7273C385.006 35.7273 384.823 35.6549 384.669 35.5103C384.518 35.3656 384.443 35.1918 384.443 34.9886C384.443 34.7855 384.518 34.6116 384.669 34.467C384.823 34.3223 385.006 34.25 385.218 34.25C385.43 34.25 385.612 34.3223 385.763 34.467C385.917 34.6116 385.994 34.7855 385.994 34.9886C385.994 35.1918 385.917 35.3656 385.763 35.5103C385.612 35.6549 385.43 35.7273 385.218 35.7273ZM390.722 44.1477C390.039 44.1477 389.45 43.9969 388.954 43.6953C388.462 43.3906 388.081 42.9659 387.814 42.4212C387.549 41.8733 387.417 41.2363 387.417 40.5099C387.417 39.7836 387.549 39.1435 387.814 38.5895C388.081 38.0324 388.454 37.5985 388.931 37.2876C389.411 36.9737 389.971 36.8168 390.611 36.8168C390.981 36.8168 391.345 36.8783 391.705 37.0014C392.066 37.1245 392.393 37.3246 392.689 37.6016C392.984 37.8755 393.22 38.2386 393.395 38.6911C393.57 39.1435 393.658 39.7005 393.658 40.3622V40.8239H388.192V39.8821H392.55C392.55 39.482 392.47 39.125 392.31 38.8111C392.153 38.4972 391.929 38.2494 391.636 38.0678C391.347 37.8862 391.005 37.7955 390.611 37.7955C390.177 37.7955 389.802 37.9032 389.485 38.1186C389.171 38.331 388.929 38.608 388.76 38.9496C388.591 39.2912 388.506 39.6574 388.506 40.0483V40.6761C388.506 41.2116 388.599 41.6656 388.783 42.038C388.971 42.4073 389.231 42.6889 389.563 42.8828C389.896 43.0736 390.282 43.169 390.722 43.169C391.008 43.169 391.267 43.129 391.498 43.049C391.732 42.9659 391.933 42.8428 392.102 42.6797C392.272 42.5135 392.403 42.3073 392.495 42.0611L393.547 42.3565C393.437 42.7135 393.25 43.0275 392.989 43.2983C392.727 43.5661 392.404 43.7753 392.019 43.9261C391.635 44.0739 391.202 44.1477 390.722 44.1477Z" fill="black"/>
<path d="M47 100C52.5228 100 57 95.5228 57 90C57 84.4772 52.5228 80 47 80C41.4772 80 37 84.4772 37 90C37 95.5228 41.4772 100 47 100Z" fill="#222222" stroke="#222222"/>
<path d="M183 73H91C84.0964 73 78.5 78.5964 78.5 85.5V94.6328C78.5 101.536 84.0964 107.133 91 107.133H183C189.904 107.133 195.5 101.536 195.5 94.6328V85.5C195.5 78.5964 189.904 73 183 73Z" fill="#F1F1F1" stroke="#181818" stroke-width="0.5"/>
<path d="M89.9148 94.6016H88.8068L92.0114 85.8743H93.1023L96.3068 94.6016H95.1989L92.5909 87.255H92.5227L89.9148 94.6016ZM90.3239 91.1925H94.7898V92.13H90.3239V91.1925ZM98.5355 85.8743V94.6016H97.5298V85.8743H98.5355ZM101.383 85.8743V94.6016H100.377V85.8743H101.383ZM105.969 94.738C105.339 94.738 104.795 94.5988 104.337 94.3203C103.883 94.0391 103.532 93.647 103.285 93.1442C103.04 92.6385 102.918 92.0505 102.918 91.38C102.918 90.7095 103.04 90.1186 103.285 89.6073C103.532 89.0931 103.876 88.6925 104.316 88.4056C104.759 88.1158 105.276 87.9709 105.867 87.9709C106.208 87.9709 106.545 88.0277 106.877 88.1414C107.21 88.255 107.512 88.4397 107.785 88.6953C108.058 88.9482 108.275 89.2834 108.437 89.701C108.599 90.1186 108.68 90.6328 108.68 91.2436V91.6698H103.634V90.8005H107.657C107.657 90.4311 107.583 90.1016 107.435 89.8118C107.29 89.522 107.083 89.2934 106.813 89.1257C106.546 88.9581 106.231 88.8743 105.867 88.8743C105.467 88.8743 105.12 88.9738 104.827 89.1726C104.538 89.3686 104.315 89.6243 104.158 89.9397C104.002 90.255 103.924 90.5931 103.924 90.9539V91.5334C103.924 92.0277 104.009 92.4468 104.18 92.7905C104.353 93.1314 104.593 93.3914 104.9 93.5703C105.207 93.7465 105.563 93.8345 105.969 93.8345C106.234 93.8345 106.472 93.7976 106.685 93.7238C106.901 93.647 107.087 93.5334 107.244 93.3828C107.4 93.2294 107.521 93.0391 107.606 92.8118L108.577 93.0845C108.475 93.4141 108.303 93.7039 108.062 93.9539C107.82 94.201 107.522 94.3942 107.167 94.5334C106.812 94.6698 106.413 94.738 105.969 94.738ZM110.21 94.6016V88.0561H111.181V89.0448H111.249C111.369 88.7209 111.585 88.4581 111.897 88.2564C112.21 88.0547 112.562 87.9539 112.954 87.9539C113.028 87.9539 113.12 87.9553 113.231 87.9581C113.342 87.961 113.425 87.9652 113.482 87.9709V88.9936C113.448 88.9851 113.37 88.9723 113.248 88.9553C113.129 88.9354 113.002 88.9255 112.869 88.9255C112.55 88.9255 112.266 88.9922 112.016 89.1257C111.769 89.2564 111.573 89.4382 111.428 89.6712C111.286 89.9013 111.215 90.1641 111.215 90.4595V94.6016H110.21ZM119.975 94.755C119.561 94.755 119.184 94.6769 118.846 94.5206C118.508 94.3615 118.24 94.1328 118.041 93.8345C117.842 93.5334 117.743 93.1698 117.743 92.7436C117.743 92.3686 117.816 92.0647 117.964 91.8317C118.112 91.5959 118.309 91.4113 118.556 91.2777C118.804 91.1442 119.076 91.0448 119.375 90.9794C119.676 90.9113 119.978 90.8573 120.282 90.8175C120.68 90.7664 121.002 90.728 121.25 90.7024C121.5 90.674 121.681 90.6272 121.795 90.5618C121.912 90.4965 121.97 90.3828 121.97 90.2209V90.1868C121.97 89.7664 121.855 89.4397 121.625 89.2067C121.397 88.9738 121.052 88.8573 120.589 88.8573C120.109 88.8573 119.733 88.9624 119.46 89.1726C119.187 89.3828 118.995 89.6073 118.885 89.8459L117.93 89.505C118.1 89.1073 118.328 88.7976 118.612 88.576C118.899 88.3516 119.211 88.1953 119.549 88.1073C119.89 88.0164 120.225 87.9709 120.555 87.9709C120.765 87.9709 121.007 87.9965 121.279 88.0476C121.555 88.0959 121.821 88.1968 122.076 88.3502C122.335 88.5036 122.549 88.7351 122.72 89.0448C122.89 89.3544 122.975 89.7692 122.975 90.2891V94.6016H121.97V93.7152H121.919C121.85 93.8573 121.737 94.0093 121.578 94.1712C121.419 94.3331 121.207 94.4709 120.943 94.5845C120.679 94.6982 120.356 94.755 119.975 94.755ZM120.129 93.8516C120.527 93.8516 120.862 93.7735 121.135 93.6172C121.41 93.461 121.618 93.2593 121.757 93.0121C121.899 92.7649 121.97 92.505 121.97 92.2323V91.3118C121.927 91.363 121.833 91.4098 121.689 91.4524C121.547 91.4922 121.382 91.5277 121.194 91.559C121.01 91.5874 120.829 91.613 120.653 91.6357C120.48 91.6556 120.339 91.6726 120.231 91.6868C119.97 91.7209 119.725 91.7763 119.498 91.853C119.274 91.9269 119.092 92.0391 118.953 92.1897C118.816 92.3374 118.748 92.5391 118.748 92.7948C118.748 93.1442 118.877 93.4084 119.136 93.5874C119.397 93.7635 119.728 93.8516 120.129 93.8516ZM120.197 87.1698L118.868 85.1925H120.044L121.083 87.1698H120.197ZM129.192 85.8743V94.6016H128.186V85.8743H129.192ZM131.903 85.8743V88.8743H130.966V85.8743H131.903ZM135.62 94.755C135.205 94.755 134.829 94.6769 134.491 94.5206C134.153 94.3615 133.884 94.1328 133.685 93.8345C133.487 93.5334 133.387 93.1698 133.387 92.7436C133.387 92.3686 133.461 92.0647 133.609 91.8317C133.756 91.5959 133.954 91.4113 134.201 91.2777C134.448 91.1442 134.721 91.0448 135.019 90.9794C135.32 90.9113 135.623 90.8573 135.927 90.8175C136.325 90.7664 136.647 90.728 136.894 90.7024C137.144 90.674 137.326 90.6272 137.44 90.5618C137.556 90.4965 137.614 90.3828 137.614 90.2209V90.1868C137.614 89.7664 137.499 89.4397 137.269 89.2067C137.042 88.9738 136.697 88.8573 136.234 88.8573C135.754 88.8573 135.377 88.9624 135.104 89.1726C134.832 89.3828 134.64 89.6073 134.529 89.8459L133.575 89.505C133.745 89.1073 133.972 88.7976 134.256 88.576C134.543 88.3516 134.856 88.1953 135.194 88.1073C135.535 88.0164 135.87 87.9709 136.2 87.9709C136.41 87.9709 136.651 87.9965 136.924 88.0476C137.2 88.0959 137.465 88.1968 137.721 88.3502C137.979 88.5036 138.194 88.7351 138.364 89.0448C138.535 89.3544 138.62 89.7692 138.62 90.2891V94.6016H137.614V93.7152H137.563C137.495 93.8573 137.381 94.0093 137.222 94.1712C137.063 94.3331 136.852 94.4709 136.587 94.5845C136.323 94.6982 136.001 94.755 135.62 94.755ZM135.773 93.8516C136.171 93.8516 136.506 93.7735 136.779 93.6172C137.055 93.461 137.262 93.2593 137.401 93.0121C137.543 92.7649 137.614 92.505 137.614 92.2323V91.3118C137.572 91.363 137.478 91.4098 137.333 91.4524C137.191 91.4922 137.026 91.5277 136.839 91.559C136.654 91.5874 136.474 91.613 136.298 91.6357C136.124 91.6556 135.984 91.6726 135.876 91.6868C135.614 91.7209 135.37 91.7763 135.143 91.853C134.918 91.9269 134.737 92.0391 134.597 92.1897C134.461 92.3374 134.393 92.5391 134.393 92.7948C134.393 93.1442 134.522 93.4084 134.781 93.5874C135.042 93.7635 135.373 93.8516 135.773 93.8516ZM143.2 94.738C142.569 94.738 142.025 94.5988 141.568 94.3203C141.113 94.0391 140.762 93.647 140.515 93.1442C140.271 92.6385 140.149 92.0505 140.149 91.38C140.149 90.7095 140.271 90.1186 140.515 89.6073C140.762 89.0931 141.106 88.6925 141.547 88.4056C141.99 88.1158 142.507 87.9709 143.098 87.9709C143.439 87.9709 143.775 88.0277 144.108 88.1414C144.44 88.255 144.743 88.4397 145.015 88.6953C145.288 88.9482 145.505 89.2834 145.667 89.701C145.829 90.1186 145.91 90.6328 145.91 91.2436V91.6698H140.865V90.8005H144.887C144.887 90.4311 144.814 90.1016 144.666 89.8118C144.521 89.522 144.314 89.2934 144.044 89.1257C143.777 88.9581 143.461 88.8743 143.098 88.8743C142.697 88.8743 142.35 88.9738 142.058 89.1726C141.768 89.3686 141.545 89.6243 141.389 89.9397C141.233 90.255 141.154 90.5931 141.154 90.9539V91.5334C141.154 92.0277 141.24 92.4468 141.41 92.7905C141.583 93.1314 141.824 93.3914 142.13 93.5703C142.437 93.7465 142.794 93.8345 143.2 93.8345C143.464 93.8345 143.703 93.7976 143.916 93.7238C144.132 93.647 144.318 93.5334 144.474 93.3828C144.63 93.2294 144.751 93.0391 144.836 92.8118L145.808 93.0845C145.706 93.4141 145.534 93.7039 145.292 93.9539C145.051 94.201 144.752 94.3942 144.397 94.5334C144.042 94.6698 143.643 94.738 143.2 94.738ZM142.586 87.1698L143.626 85.1925H144.802L143.473 87.1698H142.586ZM147.44 94.6016V88.0561H148.412V89.0448H148.48C148.599 88.7209 148.815 88.4581 149.127 88.2564C149.44 88.0547 149.792 87.9539 150.184 87.9539C150.258 87.9539 150.35 87.9553 150.461 87.9581C150.572 87.961 150.656 87.9652 150.713 87.9709V88.9936C150.679 88.9851 150.6 88.9723 150.478 88.9553C150.359 88.9354 150.233 88.9255 150.099 88.9255C149.781 88.9255 149.497 88.9922 149.247 89.1257C149 89.2564 148.804 89.4382 148.659 89.6712C148.517 89.9013 148.446 90.1641 148.446 90.4595V94.6016H147.44ZM154.365 94.738C153.774 94.738 153.255 94.5973 152.809 94.3161C152.366 94.0348 152.02 93.6414 151.77 93.1357C151.522 92.63 151.399 92.0391 151.399 91.363C151.399 90.6811 151.522 90.086 151.77 89.5774C152.02 89.0689 152.366 88.674 152.809 88.3928C153.255 88.1115 153.774 87.9709 154.365 87.9709C154.956 87.9709 155.473 88.1115 155.916 88.3928C156.362 88.674 156.708 89.0689 156.956 89.5774C157.206 90.086 157.331 90.6811 157.331 91.363C157.331 92.0391 157.206 92.63 156.956 93.1357C156.708 93.6414 156.362 94.0348 155.916 94.3161C155.473 94.5973 154.956 94.738 154.365 94.738ZM154.365 93.8345C154.814 93.8345 155.183 93.7195 155.473 93.4894C155.762 93.2593 155.977 92.9567 156.116 92.5817C156.255 92.2067 156.325 91.8005 156.325 91.363C156.325 90.9255 156.255 90.5178 156.116 90.1399C155.977 89.7621 155.762 89.4567 155.473 89.2238C155.183 88.9908 154.814 88.8743 154.365 88.8743C153.916 88.8743 153.547 88.9908 153.257 89.2238C152.967 89.4567 152.752 89.7621 152.613 90.1399C152.474 90.5178 152.404 90.9255 152.404 91.363C152.404 91.8005 152.474 92.2067 152.613 92.5817C152.752 92.9567 152.967 93.2593 153.257 93.4894C153.547 93.7195 153.916 93.8345 154.365 93.8345ZM158.866 97.0561V88.0561H159.837V89.0959H159.957C160.031 88.9823 160.133 88.8374 160.263 88.6613C160.397 88.4823 160.587 88.3232 160.835 88.184C161.085 88.0419 161.423 87.9709 161.849 87.9709C162.4 87.9709 162.886 88.1087 163.306 88.3843C163.727 88.6598 164.055 89.0505 164.29 89.5561C164.526 90.0618 164.644 90.6584 164.644 91.3459C164.644 92.0391 164.526 92.6399 164.29 93.1485C164.055 93.6541 163.728 94.0462 163.31 94.3246C162.893 94.6002 162.411 94.738 161.866 94.738C161.445 94.738 161.109 94.6684 160.856 94.5291C160.603 94.3871 160.408 94.2266 160.272 94.0476C160.136 93.8658 160.031 93.7152 159.957 93.5959H159.871V97.0561H158.866ZM159.854 91.3289C159.854 91.8232 159.927 92.2593 160.072 92.6371C160.217 93.0121 160.428 93.3061 160.707 93.5192C160.985 93.7294 161.326 93.8345 161.729 93.8345C162.15 93.8345 162.501 93.7238 162.782 93.5022C163.066 93.2777 163.279 92.9766 163.421 92.5988C163.566 92.2181 163.638 91.7948 163.638 91.3289C163.638 90.8686 163.567 90.4539 163.425 90.0845C163.286 89.7124 163.075 89.4184 162.79 89.2024C162.509 88.9837 162.156 88.8743 161.729 88.8743C161.32 88.8743 160.977 88.978 160.698 89.1854C160.42 89.3899 160.21 89.6769 160.067 90.0462C159.925 90.4127 159.854 90.8402 159.854 91.3289ZM168.837 94.738C168.246 94.738 167.728 94.5973 167.282 94.3161C166.839 94.0348 166.492 93.6414 166.242 93.1357C165.995 92.63 165.871 92.0391 165.871 91.363C165.871 90.6811 165.995 90.086 166.242 89.5774C166.492 89.0689 166.839 88.674 167.282 88.3928C167.728 88.1115 168.246 87.9709 168.837 87.9709C169.428 87.9709 169.945 88.1115 170.388 88.3928C170.835 88.674 171.181 89.0689 171.428 89.5774C171.678 90.086 171.803 90.6811 171.803 91.363C171.803 92.0391 171.678 92.63 171.428 93.1357C171.181 93.6414 170.835 94.0348 170.388 94.3161C169.945 94.5973 169.428 94.738 168.837 94.738ZM168.837 93.8345C169.286 93.8345 169.656 93.7195 169.945 93.4894C170.235 93.2593 170.45 92.9567 170.589 92.5817C170.728 92.2067 170.798 91.8005 170.798 91.363C170.798 90.9255 170.728 90.5178 170.589 90.1399C170.45 89.7621 170.235 89.4567 169.945 89.2238C169.656 88.9908 169.286 88.8743 168.837 88.8743C168.388 88.8743 168.019 88.9908 167.729 89.2238C167.44 89.4567 167.225 89.7621 167.086 90.1399C166.947 90.5178 166.877 90.9255 166.877 91.363C166.877 91.8005 166.947 92.2067 167.086 92.5817C167.225 92.9567 167.44 93.2593 167.729 93.4894C168.019 93.7195 168.388 93.8345 168.837 93.8345ZM173.338 94.6016V88.0561H174.31V89.0448H174.378C174.498 88.7209 174.713 88.4581 175.026 88.2564C175.338 88.0547 175.691 87.9539 176.083 87.9539C176.157 87.9539 176.249 87.9553 176.36 87.9581C176.471 87.961 176.554 87.9652 176.611 87.9709V88.9936C176.577 88.9851 176.499 88.9723 176.377 88.9553C176.257 88.9354 176.131 88.9255 175.998 88.9255C175.679 88.9255 175.395 88.9922 175.145 89.1257C174.898 89.2564 174.702 89.4382 174.557 89.6712C174.415 89.9013 174.344 90.1641 174.344 90.4595V94.6016H173.338ZM181.06 88.0561V88.9084H177.668V88.0561H181.06ZM178.657 86.488H179.662V92.7266C179.662 93.0107 179.703 93.2238 179.786 93.3658C179.871 93.505 179.979 93.5988 180.11 93.647C180.243 93.6925 180.384 93.7152 180.532 93.7152C180.642 93.7152 180.733 93.7095 180.804 93.6982C180.875 93.684 180.932 93.6726 180.975 93.6641L181.179 94.5675C181.111 94.5931 181.016 94.6186 180.894 94.6442C180.772 94.6726 180.617 94.6868 180.429 94.6868C180.145 94.6868 179.867 94.6257 179.594 94.5036C179.324 94.3814 179.1 94.1953 178.921 93.9453C178.745 93.6953 178.657 93.38 178.657 92.9993V86.488Z" fill="black"/>
<path d="M310 73H229C222.096 73 216.5 78.5964 216.5 85.5V94.6328C216.5 101.536 222.096 107.133 229 107.133H310C316.904 107.133 322.5 101.536 322.5 94.6328V85.5C322.5 78.5964 316.904 73 310 73Z" fill="#F1F1F1" stroke="#181818" stroke-width="0.5"/>
<path d="M227.557 94.6016V85.8743H230.506C231.19 85.8743 231.75 85.9979 232.185 86.2451C232.622 86.4894 232.946 86.8204 233.156 87.238C233.366 87.6556 233.472 88.1215 233.472 88.6357C233.472 89.1499 233.366 89.6172 233.156 90.0377C232.949 90.4581 232.628 90.7934 232.193 91.0434C231.759 91.2905 231.202 91.4141 230.523 91.4141H228.409V90.4766H230.489C230.957 90.4766 231.334 90.3956 231.618 90.2337C231.902 90.0718 232.108 89.853 232.236 89.5775C232.366 89.2991 232.432 88.9851 232.432 88.6357C232.432 88.2863 232.366 87.9738 232.236 87.6982C232.108 87.4226 231.901 87.2067 231.614 87.0505C231.327 86.8914 230.946 86.8118 230.472 86.8118H228.614V94.6016H227.557ZM235.038 94.6016V88.0562H236.009V89.0448H236.077C236.197 88.7209 236.413 88.4581 236.725 88.2564C237.038 88.0547 237.39 87.9539 237.782 87.9539C237.856 87.9539 237.948 87.9553 238.059 87.9581C238.17 87.961 238.254 87.9652 238.31 87.9709V88.9937C238.276 88.9851 238.198 88.9723 238.076 88.9553C237.957 88.9354 237.83 88.9255 237.697 88.9255C237.379 88.9255 237.094 88.9922 236.844 89.1258C236.597 89.2564 236.401 89.4383 236.256 89.6712C236.114 89.9013 236.043 90.1641 236.043 90.4596V94.6016H235.038ZM242.048 94.738C241.417 94.738 240.873 94.5988 240.415 94.3204C239.961 94.0391 239.61 93.6471 239.363 93.1442C239.119 92.6385 238.996 92.0505 238.996 91.38C238.996 90.7096 239.119 90.1187 239.363 89.6073C239.61 89.0931 239.954 88.6925 240.394 88.4056C240.837 88.1158 241.354 87.9709 241.945 87.9709C242.286 87.9709 242.623 88.0277 242.955 88.1414C243.288 88.255 243.59 88.4397 243.863 88.6954C244.136 88.9482 244.353 89.2834 244.515 89.701C244.677 90.1187 244.758 90.6329 244.758 91.2437V91.6698H239.712V90.8005H243.735C243.735 90.4312 243.661 90.1016 243.513 89.8118C243.369 89.5221 243.161 89.2934 242.891 89.1258C242.624 88.9581 242.309 88.8743 241.945 88.8743C241.545 88.8743 241.198 88.9738 240.906 89.1726C240.616 89.3687 240.393 89.6243 240.237 89.9397C240.08 90.255 240.002 90.5931 240.002 90.9539V91.5334C240.002 92.0277 240.087 92.4468 240.258 92.7905C240.431 93.1314 240.671 93.3914 240.978 93.5704C241.285 93.7465 241.641 93.8346 242.048 93.8346C242.312 93.8346 242.55 93.7976 242.763 93.7238C242.979 93.6471 243.165 93.5334 243.322 93.3829C243.478 93.2294 243.599 93.0391 243.684 92.8118L244.656 93.0846C244.553 93.4141 244.381 93.7039 244.14 93.9539C243.898 94.201 243.6 94.3942 243.245 94.5334C242.89 94.6698 242.491 94.738 242.048 94.738ZM247.293 90.6641V94.6016H246.288V88.0562H247.259V89.0789H247.344C247.498 88.7465 247.731 88.4794 248.043 88.2777C248.356 88.0732 248.759 87.9709 249.254 87.9709C249.697 87.9709 250.085 88.0618 250.417 88.2437C250.749 88.4226 251.008 88.6954 251.192 89.0618C251.377 89.4255 251.469 89.8857 251.469 90.4425V94.6016H250.464V90.5107C250.464 89.9965 250.33 89.5959 250.063 89.309C249.796 89.0192 249.43 88.8743 248.964 88.8743C248.643 88.8743 248.356 88.9439 248.103 89.0831C247.853 89.2223 247.656 89.4255 247.511 89.6925C247.366 89.9596 247.293 90.2834 247.293 90.6641ZM255.779 94.738C255.233 94.738 254.752 94.6002 254.334 94.3246C253.917 94.0462 253.59 93.6542 253.354 93.1485C253.118 92.64 253 92.0391 253 91.3459C253 90.6584 253.118 90.0618 253.354 89.5562C253.59 89.0505 253.918 88.6598 254.338 88.3843C254.759 88.1087 255.245 87.9709 255.796 87.9709C256.222 87.9709 256.559 88.0419 256.806 88.184C257.056 88.3232 257.246 88.4823 257.377 88.6613C257.51 88.8374 257.614 88.9823 257.688 89.0959H257.773V85.8743H258.779V94.6016H257.807V93.5959H257.688C257.614 93.7152 257.509 93.8658 257.373 94.0476C257.236 94.2266 257.042 94.3871 256.789 94.5292C256.536 94.6684 256.199 94.738 255.779 94.738ZM255.915 93.8346C256.319 93.8346 256.659 93.7294 256.938 93.5192C257.216 93.3062 257.428 93.0121 257.573 92.6371C257.718 92.2593 257.79 91.8232 257.79 91.3289C257.79 90.8402 257.719 90.4127 257.577 90.0462C257.435 89.6769 257.225 89.39 256.946 89.1854C256.668 88.978 256.324 88.8743 255.915 88.8743C255.489 88.8743 255.134 88.9837 254.85 89.2025C254.569 89.4184 254.357 89.7124 254.215 90.0846C254.076 90.4539 254.006 90.8687 254.006 91.3289C254.006 91.7948 254.077 92.2181 254.219 92.5988C254.364 92.9766 254.577 93.2777 254.858 93.5022C255.142 93.7238 255.495 93.8346 255.915 93.8346ZM260.76 94.6016V88.0562H261.732V89.0448H261.8C261.919 88.7209 262.135 88.4581 262.448 88.2564C262.76 88.0547 263.113 87.9539 263.505 87.9539C263.578 87.9539 263.671 87.9553 263.782 87.9581C263.892 87.961 263.976 87.9652 264.033 87.9709V88.9937C263.999 88.9851 263.921 88.9723 263.799 88.9553C263.679 88.9354 263.553 88.9255 263.419 88.9255C263.101 88.9255 262.817 88.9922 262.567 89.1258C262.32 89.2564 262.124 89.4383 261.979 89.6712C261.837 89.9013 261.766 90.1641 261.766 90.4596V94.6016H260.76ZM267.77 94.738C267.14 94.738 266.596 94.5988 266.138 94.3204C265.684 94.0391 265.333 93.6471 265.086 93.1442C264.841 92.6385 264.719 92.0505 264.719 91.38C264.719 90.7096 264.841 90.1187 265.086 89.6073C265.333 89.0931 265.676 88.6925 266.117 88.4056C266.56 88.1158 267.077 87.9709 267.668 87.9709C268.009 87.9709 268.346 88.0277 268.678 88.1414C269.01 88.255 269.313 88.4397 269.586 88.6954C269.858 88.9482 270.076 89.2834 270.238 89.701C270.4 90.1187 270.48 90.6329 270.48 91.2437V91.6698H265.435V90.8005H269.458C269.458 90.4312 269.384 90.1016 269.236 89.8118C269.091 89.5221 268.884 89.2934 268.614 89.1258C268.347 88.9581 268.032 88.8743 267.668 88.8743C267.267 88.8743 266.921 88.9738 266.628 89.1726C266.338 89.3687 266.115 89.6243 265.959 89.9397C265.803 90.255 265.725 90.5931 265.725 90.9539V91.5334C265.725 92.0277 265.81 92.4468 265.98 92.7905C266.154 93.1314 266.394 93.3914 266.701 93.5704C267.007 93.7465 267.364 93.8346 267.77 93.8346C268.034 93.8346 268.273 93.7976 268.486 93.7238C268.702 93.6471 268.888 93.5334 269.044 93.3829C269.201 93.2294 269.321 93.0391 269.407 92.8118L270.378 93.0846C270.276 93.4141 270.104 93.7039 269.863 93.9539C269.621 94.201 269.323 94.3942 268.968 94.5334C268.613 94.6698 268.213 94.738 267.77 94.738ZM276.391 85.8743V94.6016H275.385V85.8743H276.391ZM279.102 85.8743V88.8743H278.165V85.8743H279.102ZM282.819 94.755C282.404 94.755 282.028 94.6769 281.69 94.5206C281.352 94.3616 281.083 94.1329 280.885 93.8346C280.686 93.5334 280.586 93.1698 280.586 92.7437C280.586 92.3687 280.66 92.0647 280.808 91.8317C280.956 91.5959 281.153 91.4113 281.4 91.2777C281.647 91.1442 281.92 91.0448 282.218 90.9794C282.52 90.9113 282.822 90.8573 283.126 90.8175C283.524 90.7664 283.846 90.728 284.093 90.7025C284.343 90.6741 284.525 90.6272 284.639 90.5618C284.755 90.4965 284.814 90.3829 284.814 90.2209V90.1868C284.814 89.7664 284.699 89.4397 284.468 89.2067C284.241 88.9738 283.896 88.8573 283.433 88.8573C282.953 88.8573 282.576 88.9624 282.304 89.1726C282.031 89.3829 281.839 89.6073 281.728 89.8459L280.774 89.505C280.944 89.1073 281.172 88.7976 281.456 88.576C281.743 88.3516 282.055 88.1954 282.393 88.1073C282.734 88.0164 283.069 87.9709 283.399 87.9709C283.609 87.9709 283.85 87.9965 284.123 88.0476C284.399 88.0959 284.664 88.1968 284.92 88.3502C285.179 88.5036 285.393 88.7351 285.564 89.0448C285.734 89.3544 285.819 89.7692 285.819 90.2891V94.6016H284.814V93.7152H284.762C284.694 93.8573 284.581 94.0093 284.422 94.1712C284.262 94.3331 284.051 94.4709 283.787 94.5846C283.522 94.6982 283.2 94.755 282.819 94.755ZM282.973 93.8516C283.37 93.8516 283.706 93.7735 283.978 93.6172C284.254 93.461 284.461 93.2593 284.6 93.0121C284.743 92.765 284.814 92.505 284.814 92.2323V91.3118C284.771 91.363 284.677 91.4098 284.532 91.4525C284.39 91.4922 284.225 91.5277 284.038 91.559C283.853 91.5874 283.673 91.613 283.497 91.6357C283.324 91.6556 283.183 91.6726 283.075 91.6868C282.814 91.7209 282.569 91.7763 282.342 91.853C282.118 91.9269 281.936 92.0391 281.797 92.1897C281.66 92.3374 281.592 92.5391 281.592 92.7948C281.592 93.1442 281.721 93.4084 281.98 93.5874C282.241 93.7635 282.572 93.8516 282.973 93.8516ZM292.773 88.0562L290.352 94.6016H289.33L286.909 88.0562H288L289.807 93.2721H289.875L291.682 88.0562H292.773ZM294.1 94.6016V88.0562H295.106V94.6016H294.1ZM294.612 86.9652C294.415 86.9652 294.246 86.8985 294.104 86.765C293.965 86.6314 293.896 86.4709 293.896 86.2834C293.896 86.0959 293.965 85.9354 294.104 85.8019C294.246 85.6684 294.415 85.6016 294.612 85.6016C294.808 85.6016 294.975 85.6684 295.114 85.8019C295.256 85.9354 295.327 86.0959 295.327 86.2834C295.327 86.4709 295.256 86.6314 295.114 86.765C294.975 86.8985 294.808 86.9652 294.612 86.9652ZM299.607 94.738C299.016 94.738 298.498 94.5973 298.051 94.3161C297.608 94.0348 297.262 93.6414 297.012 93.1357C296.765 92.63 296.641 92.0391 296.641 91.363C296.641 90.6812 296.765 90.086 297.012 89.5775C297.262 89.0689 297.608 88.6741 298.051 88.3928C298.498 88.1116 299.016 87.9709 299.607 87.9709C300.198 87.9709 300.715 88.1116 301.158 88.3928C301.604 88.6741 301.951 89.0689 302.198 89.5775C302.448 90.086 302.573 90.6812 302.573 91.363C302.573 92.0391 302.448 92.63 302.198 93.1357C301.951 93.6414 301.604 94.0348 301.158 94.3161C300.715 94.5973 300.198 94.738 299.607 94.738ZM299.607 93.8346C300.056 93.8346 300.425 93.7195 300.715 93.4894C301.005 93.2593 301.219 92.9567 301.358 92.5817C301.498 92.2067 301.567 91.8005 301.567 91.363C301.567 90.9255 301.498 90.5178 301.358 90.14C301.219 89.7621 301.005 89.4567 300.715 89.2238C300.425 88.9908 300.056 88.8743 299.607 88.8743C299.158 88.8743 298.789 88.9908 298.499 89.2238C298.209 89.4567 297.995 89.7621 297.855 90.14C297.716 90.5178 297.647 90.9255 297.647 91.363C297.647 91.8005 297.716 92.2067 297.855 92.5817C297.995 92.9567 298.209 93.2593 298.499 93.4894C298.789 93.7195 299.158 93.8346 299.607 93.8346ZM305.114 90.6641V94.6016H304.108V88.0562H305.08V89.0789H305.165C305.318 88.7465 305.551 88.4794 305.864 88.2777C306.176 88.0732 306.58 87.9709 307.074 87.9709C307.517 87.9709 307.905 88.0618 308.237 88.2437C308.57 88.4226 308.828 88.6954 309.013 89.0618C309.197 89.4255 309.29 89.8857 309.29 90.4425V94.6016H308.284V90.5107C308.284 89.9965 308.151 89.5959 307.884 89.309C307.616 89.0192 307.25 88.8743 306.784 88.8743C306.463 88.8743 306.176 88.9439 305.923 89.0831C305.673 89.2223 305.476 89.4255 305.331 89.6925C305.186 89.9596 305.114 90.2834 305.114 90.6641Z" fill="black"/>
<path d="M354.5 103C360.575 103 365.5 98.0751 365.5 92C365.5 85.9249 360.575 81 354.5 81C348.425 81 343.5 85.9249 343.5 92C343.5 98.0751 348.425 103 354.5 103Z" stroke="#222222"/>
<path d="M354.5 98C357.814 98 360.5 95.3137 360.5 92C360.5 88.6863 357.814 86 354.5 86C351.186 86 348.5 88.6863 348.5 92C348.5 95.3137 351.186 98 354.5 98Z" fill="#222222" stroke="#111111"/>
<path d="M57.5 90H77.5" stroke="#181818"/>
<path d="M67.5 94L77.5 90L67.5 86L71.5 90L67.5 94Z" fill="#181818" stroke="#181818"/>
<path d="M195.5 90H215.5" stroke="#181818"/>
<path d="M205.5 94L215.5 90L205.5 86L209.5 90L205.5 94Z" fill="#181818" stroke="#181818"/>
<path d="M322.5 92H342.5" stroke="#181818"/>
<path d="M332.5 96L342.5 92L332.5 88L336.5 92L332.5 96Z" fill="#181818" stroke="#181818"/>
</svg>
