<svg width="498" height="386" viewBox="0 0 498 386" fill="none" xmlns="http://www.w3.org/2000/svg">
<path d="M125 106.496C130.523 106.496 135 102.019 135 96.4961C135 90.9732 130.523 86.4961 125 86.4961C119.477 86.4961 115 90.9732 115 96.4961C115 102.019 119.477 106.496 125 106.496Z" fill="#222222" stroke="#222222"/>
<path d="M186.5 126.496H63.5C56.5964 126.496 51 132.093 51 138.996V148.129C51 155.032 56.5964 160.629 63.5 160.629H186.5C193.404 160.629 199 155.032 199 148.129V138.996C199 132.093 193.404 126.496 186.5 126.496Z" fill="#F1F1F1" stroke="#181818" stroke-width="0.5"/>
<path d="M64.0568 148V139.273H67.0057C67.6903 139.273 68.25 139.396 68.6847 139.643C69.1222 139.888 69.446 140.219 69.6562 140.636C69.8665 141.054 69.9716 141.52 69.9716 142.034C69.9716 142.548 69.8665 143.016 69.6562 143.436C69.4489 143.857 69.1278 144.192 68.6932 144.442C68.2585 144.689 67.7017 144.812 67.0227 144.812H64.9091V143.875H66.9886C67.4574 143.875 67.8338 143.794 68.1179 143.632C68.402 143.47 68.608 143.251 68.7358 142.976C68.8665 142.697 68.9318 142.384 68.9318 142.034C68.9318 141.685 68.8665 141.372 68.7358 141.097C68.608 140.821 68.4006 140.605 68.1136 140.449C67.8267 140.29 67.446 140.21 66.9716 140.21H65.1136V148H64.0568ZM71.5376 148V141.455H72.5092V142.443H72.5774C72.6967 142.119 72.9126 141.857 73.2251 141.655C73.5376 141.453 73.8899 141.352 74.282 141.352C74.3558 141.352 74.4482 141.354 74.5589 141.357C74.6697 141.359 74.7536 141.364 74.8104 141.369V142.392C74.7763 142.384 74.6982 142.371 74.576 142.354C74.4567 142.334 74.3303 142.324 74.1967 142.324C73.8786 142.324 73.5945 142.391 73.3445 142.524C73.0973 142.655 72.9013 142.837 72.7564 143.07C72.6143 143.3 72.5433 143.562 72.5433 143.858V148H71.5376ZM78.5476 148.136C77.9169 148.136 77.3729 147.997 76.9155 147.719C76.4609 147.438 76.1101 147.045 75.8629 146.543C75.6186 146.037 75.4964 145.449 75.4964 144.778C75.4964 144.108 75.6186 143.517 75.8629 143.006C76.1101 142.491 76.4538 142.091 76.8942 141.804C77.3374 141.514 77.8544 141.369 78.4453 141.369C78.7862 141.369 79.1229 141.426 79.4553 141.54C79.7876 141.653 80.0902 141.838 80.3629 142.094C80.6357 142.347 80.853 142.682 81.0149 143.099C81.1768 143.517 81.2578 144.031 81.2578 144.642V145.068H76.2124V144.199H80.2351C80.2351 143.83 80.1612 143.5 80.0135 143.21C79.8686 142.92 79.6612 142.692 79.3913 142.524C79.1243 142.357 78.8089 142.273 78.4453 142.273C78.0447 142.273 77.6982 142.372 77.4055 142.571C77.1158 142.767 76.8928 143.023 76.7365 143.338C76.5803 143.653 76.5021 143.991 76.5021 144.352V144.932C76.5021 145.426 76.5874 145.845 76.7578 146.189C76.9311 146.53 77.1712 146.79 77.478 146.969C77.7848 147.145 78.1413 147.233 78.5476 147.233C78.8118 147.233 79.0504 147.196 79.2635 147.122C79.4794 147.045 79.6655 146.932 79.8217 146.781C79.978 146.628 80.0987 146.437 80.1839 146.21L81.1555 146.483C81.0533 146.812 80.8814 147.102 80.6399 147.352C80.3984 147.599 80.1001 147.793 79.745 147.932C79.3899 148.068 78.9908 148.136 78.5476 148.136ZM83.7933 144.062V148H82.7876V141.455H83.7592V142.477H83.8445C83.9979 142.145 84.2308 141.878 84.5433 141.676C84.8558 141.472 85.2592 141.369 85.7536 141.369C86.1967 141.369 86.5845 141.46 86.9169 141.642C87.2493 141.821 87.5078 142.094 87.6925 142.46C87.8771 142.824 87.9695 143.284 87.9695 143.841V148H86.9638V143.909C86.9638 143.395 86.8303 142.994 86.5632 142.707C86.2962 142.418 85.9297 142.273 85.4638 142.273C85.1428 142.273 84.8558 142.342 84.603 142.482C84.353 142.621 84.1555 142.824 84.0107 143.091C83.8658 143.358 83.7933 143.682 83.7933 144.062ZM92.2788 148.136C91.7333 148.136 91.2518 147.999 90.8342 147.723C90.4165 147.445 90.0898 147.053 89.854 146.547C89.6183 146.038 89.5004 145.438 89.5004 144.744C89.5004 144.057 89.6183 143.46 89.854 142.955C90.0898 142.449 90.418 142.058 90.8384 141.783C91.2589 141.507 91.7447 141.369 92.2958 141.369C92.7219 141.369 93.0586 141.44 93.3058 141.582C93.5558 141.722 93.7461 141.881 93.8768 142.06C94.0103 142.236 94.114 142.381 94.1879 142.494H94.2731V139.273H95.2788V148H94.3072V146.994H94.1879C94.114 147.114 94.0089 147.264 93.8725 147.446C93.7362 147.625 93.5415 147.786 93.2887 147.928C93.0359 148.067 92.6992 148.136 92.2788 148.136ZM92.4151 147.233C92.8185 147.233 93.1594 147.128 93.4379 146.918C93.7163 146.705 93.9279 146.411 94.0728 146.036C94.2177 145.658 94.2901 145.222 94.2901 144.727C94.2901 144.239 94.2191 143.811 94.0771 143.445C93.935 143.075 93.7248 142.788 93.4464 142.584C93.168 142.376 92.8242 142.273 92.4151 142.273C91.989 142.273 91.6339 142.382 91.3498 142.601C91.0685 142.817 90.8569 143.111 90.7148 143.483C90.5756 143.852 90.506 144.267 90.506 144.727C90.506 145.193 90.5771 145.616 90.7191 145.997C90.864 146.375 91.0771 146.676 91.3583 146.901C91.6424 147.122 91.9947 147.233 92.4151 147.233ZM97.2603 148V141.455H98.2319V142.443H98.3001C98.4194 142.119 98.6353 141.857 98.9478 141.655C99.2603 141.453 99.6126 141.352 100.005 141.352C100.078 141.352 100.171 141.354 100.282 141.357C100.392 141.359 100.476 141.364 100.533 141.369V142.392C100.499 142.384 100.421 142.371 100.299 142.354C100.179 142.334 100.053 142.324 99.9194 142.324C99.6012 142.324 99.3171 142.391 99.0671 142.524C98.82 142.655 98.6239 142.837 98.479 143.07C98.337 143.3 98.266 143.562 98.266 143.858V148H97.2603ZM104.27 148.136C103.64 148.136 103.096 147.997 102.638 147.719C102.184 147.438 101.833 147.045 101.586 146.543C101.341 146.037 101.219 145.449 101.219 144.778C101.219 144.108 101.341 143.517 101.586 143.006C101.833 142.491 102.176 142.091 102.617 141.804C103.06 141.514 103.577 141.369 104.168 141.369C104.509 141.369 104.846 141.426 105.178 141.54C105.51 141.653 105.813 141.838 106.086 142.094C106.358 142.347 106.576 142.682 106.738 143.099C106.9 143.517 106.98 144.031 106.98 144.642V145.068H101.935V144.199H105.958C105.958 143.83 105.884 143.5 105.736 143.21C105.591 142.92 105.384 142.692 105.114 142.524C104.847 142.357 104.532 142.273 104.168 142.273C103.767 142.273 103.421 142.372 103.128 142.571C102.838 142.767 102.615 143.023 102.459 143.338C102.303 143.653 102.225 143.991 102.225 144.352V144.932C102.225 145.426 102.31 145.845 102.48 146.189C102.654 146.53 102.894 146.79 103.201 146.969C103.507 147.145 103.864 147.233 104.27 147.233C104.534 147.233 104.773 147.196 104.986 147.122C105.202 147.045 105.388 146.932 105.544 146.781C105.701 146.628 105.821 146.437 105.907 146.21L106.878 146.483C106.776 146.812 106.604 147.102 106.363 147.352C106.121 147.599 105.823 147.793 105.468 147.932C105.113 148.068 104.713 148.136 104.27 148.136ZM112.891 139.273V148H111.885V139.273H112.891ZM116.659 148.153C116.244 148.153 115.868 148.075 115.53 147.919C115.192 147.76 114.923 147.531 114.724 147.233C114.526 146.932 114.426 146.568 114.426 146.142C114.426 145.767 114.5 145.463 114.648 145.23C114.795 144.994 114.993 144.81 115.24 144.676C115.487 144.543 115.76 144.443 116.058 144.378C116.359 144.31 116.662 144.256 116.966 144.216C117.364 144.165 117.686 144.126 117.933 144.101C118.183 144.072 118.365 144.026 118.479 143.96C118.595 143.895 118.653 143.781 118.653 143.619V143.585C118.653 143.165 118.538 142.838 118.308 142.605C118.081 142.372 117.736 142.256 117.273 142.256C116.793 142.256 116.416 142.361 116.143 142.571C115.871 142.781 115.679 143.006 115.568 143.244L114.614 142.903C114.784 142.506 115.011 142.196 115.295 141.974C115.582 141.75 115.895 141.594 116.233 141.506C116.574 141.415 116.909 141.369 117.239 141.369C117.449 141.369 117.69 141.395 117.963 141.446C118.239 141.494 118.504 141.595 118.76 141.749C119.018 141.902 119.233 142.134 119.403 142.443C119.574 142.753 119.659 143.168 119.659 143.688V148H118.653V147.114H118.602C118.534 147.256 118.42 147.408 118.261 147.57C118.102 147.732 117.891 147.869 117.626 147.983C117.362 148.097 117.04 148.153 116.659 148.153ZM116.812 147.25C117.21 147.25 117.545 147.172 117.818 147.016C118.094 146.859 118.301 146.658 118.44 146.411C118.582 146.163 118.653 145.903 118.653 145.631V144.71C118.611 144.761 118.517 144.808 118.372 144.851C118.23 144.891 118.065 144.926 117.878 144.957C117.693 144.986 117.513 145.011 117.337 145.034C117.163 145.054 117.023 145.071 116.915 145.085C116.653 145.119 116.409 145.175 116.182 145.251C115.957 145.325 115.776 145.437 115.636 145.588C115.5 145.736 115.432 145.937 115.432 146.193C115.432 146.543 115.561 146.807 115.82 146.986C116.081 147.162 116.412 147.25 116.812 147.25ZM127.529 148.136C126.915 148.136 126.387 147.991 125.944 147.702C125.5 147.412 125.159 147.013 124.921 146.504C124.682 145.996 124.563 145.415 124.563 144.761C124.563 144.097 124.685 143.51 124.929 143.001C125.176 142.49 125.52 142.091 125.961 141.804C126.404 141.514 126.921 141.369 127.512 141.369C127.972 141.369 128.387 141.455 128.756 141.625C129.125 141.795 129.428 142.034 129.664 142.341C129.9 142.648 130.046 143.006 130.103 143.415H129.097C129.02 143.116 128.85 142.852 128.586 142.622C128.324 142.389 127.972 142.273 127.529 142.273C127.137 142.273 126.793 142.375 126.498 142.58C126.205 142.781 125.976 143.067 125.811 143.436C125.65 143.803 125.569 144.233 125.569 144.727C125.569 145.233 125.648 145.673 125.807 146.048C125.969 146.423 126.196 146.714 126.489 146.922C126.784 147.129 127.131 147.233 127.529 147.233C127.79 147.233 128.027 147.188 128.24 147.097C128.453 147.006 128.634 146.875 128.782 146.705C128.929 146.534 129.034 146.33 129.097 146.091H130.103C130.046 146.477 129.905 146.825 129.681 147.135C129.459 147.442 129.165 147.686 128.799 147.868C128.435 148.047 128.012 148.136 127.529 148.136ZM134.232 148.136C133.641 148.136 133.123 147.996 132.676 147.714C132.233 147.433 131.887 147.04 131.637 146.534C131.39 146.028 131.266 145.437 131.266 144.761C131.266 144.08 131.39 143.484 131.637 142.976C131.887 142.467 132.233 142.072 132.676 141.791C133.123 141.51 133.641 141.369 134.232 141.369C134.823 141.369 135.34 141.51 135.783 141.791C136.229 142.072 136.576 142.467 136.823 142.976C137.073 143.484 137.198 144.08 137.198 144.761C137.198 145.437 137.073 146.028 136.823 146.534C136.576 147.04 136.229 147.433 135.783 147.714C135.34 147.996 134.823 148.136 134.232 148.136ZM134.232 147.233C134.681 147.233 135.05 147.118 135.34 146.888C135.63 146.658 135.844 146.355 135.983 145.98C136.123 145.605 136.192 145.199 136.192 144.761C136.192 144.324 136.123 143.916 135.983 143.538C135.844 143.161 135.63 142.855 135.34 142.622C135.05 142.389 134.681 142.273 134.232 142.273C133.783 142.273 133.414 142.389 133.124 142.622C132.834 142.855 132.62 143.161 132.48 143.538C132.341 143.916 132.272 144.324 132.272 144.761C132.272 145.199 132.341 145.605 132.48 145.98C132.62 146.355 132.834 146.658 133.124 146.888C133.414 147.118 133.783 147.233 134.232 147.233ZM138.733 148V141.455H139.705V142.477H139.79C139.926 142.128 140.146 141.857 140.45 141.663C140.754 141.467 141.119 141.369 141.545 141.369C141.977 141.369 142.337 141.467 142.624 141.663C142.913 141.857 143.139 142.128 143.301 142.477H143.369C143.537 142.139 143.788 141.871 144.124 141.672C144.459 141.47 144.861 141.369 145.33 141.369C145.915 141.369 146.393 141.553 146.766 141.919C147.138 142.283 147.324 142.849 147.324 143.619V148H146.318V143.619C146.318 143.136 146.186 142.791 145.922 142.584C145.658 142.376 145.347 142.273 144.989 142.273C144.528 142.273 144.172 142.412 143.919 142.69C143.666 142.966 143.54 143.315 143.54 143.739V148H142.517V143.517C142.517 143.145 142.396 142.845 142.155 142.618C141.913 142.388 141.602 142.273 141.222 142.273C140.96 142.273 140.716 142.342 140.489 142.482C140.264 142.621 140.082 142.814 139.943 143.061C139.807 143.305 139.739 143.588 139.739 143.909V148H138.733ZM149.163 148V141.455H150.134V142.477H150.219C150.356 142.128 150.576 141.857 150.88 141.663C151.184 141.467 151.549 141.369 151.975 141.369C152.407 141.369 152.766 141.467 153.053 141.663C153.343 141.857 153.569 142.128 153.731 142.477H153.799C153.967 142.139 154.218 141.871 154.553 141.672C154.888 141.47 155.29 141.369 155.759 141.369C156.344 141.369 156.823 141.553 157.195 141.919C157.567 142.283 157.754 142.849 157.754 143.619V148H156.748V143.619C156.748 143.136 156.616 142.791 156.352 142.584C156.087 142.376 155.776 142.273 155.418 142.273C154.958 142.273 154.602 142.412 154.349 142.69C154.096 142.966 153.969 143.315 153.969 143.739V148H152.947V143.517C152.947 143.145 152.826 142.845 152.585 142.618C152.343 142.388 152.032 142.273 151.651 142.273C151.39 142.273 151.146 142.342 150.918 142.482C150.694 142.621 150.512 142.814 150.373 143.061C150.237 143.305 150.168 143.588 150.168 143.909V148H149.163ZM161.518 148.153C161.104 148.153 160.727 148.075 160.389 147.919C160.051 147.76 159.783 147.531 159.584 147.233C159.385 146.932 159.286 146.568 159.286 146.142C159.286 145.767 159.359 145.463 159.507 145.23C159.655 144.994 159.852 144.81 160.099 144.676C160.347 144.543 160.619 144.443 160.918 144.378C161.219 144.31 161.521 144.256 161.825 144.216C162.223 144.165 162.545 144.126 162.793 144.101C163.043 144.072 163.224 144.026 163.338 143.96C163.455 143.895 163.513 143.781 163.513 143.619V143.585C163.513 143.165 163.398 142.838 163.168 142.605C162.94 142.372 162.595 142.256 162.132 142.256C161.652 142.256 161.276 142.361 161.003 142.571C160.73 142.781 160.538 143.006 160.428 143.244L159.473 142.903C159.643 142.506 159.871 142.196 160.155 141.974C160.442 141.75 160.754 141.594 161.092 141.506C161.433 141.415 161.768 141.369 162.098 141.369C162.308 141.369 162.55 141.395 162.822 141.446C163.098 141.494 163.364 141.595 163.619 141.749C163.878 141.902 164.092 142.134 164.263 142.443C164.433 142.753 164.518 143.168 164.518 143.688V148H163.513V147.114H163.462C163.393 147.256 163.28 147.408 163.121 147.57C162.962 147.732 162.75 147.869 162.486 147.983C162.222 148.097 161.899 148.153 161.518 148.153ZM161.672 147.25C162.07 147.25 162.405 147.172 162.678 147.016C162.953 146.859 163.161 146.658 163.3 146.411C163.442 146.163 163.513 145.903 163.513 145.631V144.71C163.47 144.761 163.376 144.808 163.232 144.851C163.089 144.891 162.925 144.926 162.737 144.957C162.553 144.986 162.372 145.011 162.196 145.034C162.023 145.054 161.882 145.071 161.774 145.085C161.513 145.119 161.268 145.175 161.041 145.251C160.817 145.325 160.635 145.437 160.496 145.588C160.359 145.736 160.291 145.937 160.291 146.193C160.291 146.543 160.42 146.807 160.679 146.986C160.94 147.162 161.271 147.25 161.672 147.25ZM167.36 144.062V148H166.354V141.455H167.326V142.477H167.411C167.564 142.145 167.797 141.878 168.11 141.676C168.422 141.472 168.826 141.369 169.32 141.369C169.763 141.369 170.151 141.46 170.483 141.642C170.816 141.821 171.074 142.094 171.259 142.46C171.444 142.824 171.536 143.284 171.536 143.841V148H170.53V143.909C170.53 143.395 170.397 142.994 170.13 142.707C169.863 142.418 169.496 142.273 169.03 142.273C168.709 142.273 168.422 142.342 168.169 142.482C167.919 142.621 167.722 142.824 167.577 143.091C167.432 143.358 167.36 143.682 167.36 144.062ZM175.845 148.136C175.3 148.136 174.818 147.999 174.401 147.723C173.983 147.445 173.656 147.053 173.42 146.547C173.185 146.038 173.067 145.438 173.067 144.744C173.067 144.057 173.185 143.46 173.42 142.955C173.656 142.449 173.984 142.058 174.405 141.783C174.825 141.507 175.311 141.369 175.862 141.369C176.288 141.369 176.625 141.44 176.872 141.582C177.122 141.722 177.313 141.881 177.443 142.06C177.577 142.236 177.68 142.381 177.754 142.494H177.839V139.273H178.845V148H177.874V146.994H177.754C177.68 147.114 177.575 147.264 177.439 147.446C177.303 147.625 177.108 147.786 176.855 147.928C176.602 148.067 176.266 148.136 175.845 148.136ZM175.982 147.233C176.385 147.233 176.726 147.128 177.004 146.918C177.283 146.705 177.494 146.411 177.639 146.036C177.784 145.658 177.857 145.222 177.857 144.727C177.857 144.239 177.786 143.811 177.643 143.445C177.501 143.075 177.291 142.788 177.013 142.584C176.734 142.376 176.391 142.273 175.982 142.273C175.555 142.273 175.2 142.382 174.916 142.601C174.635 142.817 174.423 143.111 174.281 143.483C174.142 143.852 174.072 144.267 174.072 144.727C174.072 145.193 174.143 145.616 174.286 145.997C174.43 146.375 174.643 146.676 174.925 146.901C175.209 147.122 175.561 147.233 175.982 147.233ZM183.571 148.136C182.94 148.136 182.396 147.997 181.939 147.719C181.484 147.438 181.134 147.045 180.886 146.543C180.642 146.037 180.52 145.449 180.52 144.778C180.52 144.108 180.642 143.517 180.886 143.006C181.134 142.491 181.477 142.091 181.918 141.804C182.361 141.514 182.878 141.369 183.469 141.369C183.81 141.369 184.146 141.426 184.479 141.54C184.811 141.653 185.114 141.838 185.386 142.094C185.659 142.347 185.876 142.682 186.038 143.099C186.2 143.517 186.281 144.031 186.281 144.642V145.068H181.236V144.199H185.259C185.259 143.83 185.185 143.5 185.037 143.21C184.892 142.92 184.685 142.692 184.415 142.524C184.148 142.357 183.832 142.273 183.469 142.273C183.068 142.273 182.722 142.372 182.429 142.571C182.139 142.767 181.916 143.023 181.76 143.338C181.604 143.653 181.526 143.991 181.526 144.352V144.932C181.526 145.426 181.611 145.845 181.781 146.189C181.955 146.53 182.195 146.79 182.501 146.969C182.808 147.145 183.165 147.233 183.571 147.233C183.835 147.233 184.074 147.196 184.287 147.122C184.503 147.045 184.689 146.932 184.845 146.781C185.001 146.628 185.122 146.437 185.207 146.21L186.179 146.483C186.077 146.812 185.905 147.102 185.663 147.352C185.422 147.599 185.124 147.793 184.768 147.932C184.413 148.068 184.014 148.136 183.571 148.136Z" fill="black"/>
<path d="M45 60.2969V365.027" stroke="black" stroke-width="1.5"/>
<path d="M311.5 180.629H221.5C214.596 180.629 209 186.225 209 193.129V202.262C209 209.165 214.596 214.762 221.5 214.762H311.5C318.404 214.762 324 209.165 324 202.262V193.129C324 186.225 318.404 180.629 311.5 180.629Z" fill="#F1F1F1" stroke="#181818" stroke-width="0.5"/>
<path d="M220.057 202.23V193.503H223.006C223.69 193.503 224.25 193.627 224.685 193.874C225.122 194.118 225.446 194.449 225.656 194.867C225.866 195.284 225.972 195.75 225.972 196.265C225.972 196.779 225.866 197.246 225.656 197.667C225.449 198.087 225.128 198.422 224.693 198.672C224.259 198.919 223.702 199.043 223.023 199.043H220.909V198.105H222.989C223.457 198.105 223.834 198.025 224.118 197.863C224.402 197.701 224.608 197.482 224.736 197.206C224.866 196.928 224.932 196.614 224.932 196.265C224.932 195.915 224.866 195.603 224.736 195.327C224.608 195.051 224.401 194.836 224.114 194.679C223.827 194.52 223.446 194.441 222.972 194.441H221.114V202.23H220.057ZM227.538 202.23V195.685H228.509V196.674H228.577C228.697 196.35 228.913 196.087 229.225 195.885C229.538 195.684 229.89 195.583 230.282 195.583C230.356 195.583 230.448 195.584 230.559 195.587C230.67 195.59 230.754 195.594 230.81 195.6V196.623C230.776 196.614 230.698 196.601 230.576 196.584C230.457 196.564 230.33 196.554 230.197 196.554C229.879 196.554 229.594 196.621 229.344 196.755C229.097 196.885 228.901 197.067 228.756 197.3C228.614 197.53 228.543 197.793 228.543 198.088V202.23H227.538ZM234.548 202.367C233.917 202.367 233.373 202.228 232.915 201.949C232.461 201.668 232.11 201.276 231.863 200.773C231.619 200.267 231.496 199.679 231.496 199.009C231.496 198.338 231.619 197.748 231.863 197.236C232.11 196.722 232.454 196.321 232.894 196.034C233.337 195.745 233.854 195.6 234.445 195.6C234.786 195.6 235.123 195.657 235.455 195.77C235.788 195.884 236.09 196.069 236.363 196.324C236.636 196.577 236.853 196.912 237.015 197.33C237.177 197.748 237.258 198.262 237.258 198.873V199.299H232.212V198.429H236.235C236.235 198.06 236.161 197.73 236.013 197.441C235.869 197.151 235.661 196.922 235.391 196.755C235.124 196.587 234.809 196.503 234.445 196.503C234.045 196.503 233.698 196.603 233.406 196.801C233.116 196.998 232.893 197.253 232.737 197.569C232.58 197.884 232.502 198.222 232.502 198.583V199.162C232.502 199.657 232.587 200.076 232.758 200.419C232.931 200.76 233.171 201.02 233.478 201.199C233.785 201.375 234.141 201.463 234.548 201.463C234.812 201.463 235.05 201.426 235.263 201.353C235.479 201.276 235.665 201.162 235.822 201.012C235.978 200.858 236.099 200.668 236.184 200.441L237.156 200.713C237.053 201.043 236.881 201.333 236.64 201.583C236.398 201.83 236.1 202.023 235.745 202.162C235.39 202.299 234.991 202.367 234.548 202.367ZM233.934 194.799L234.974 192.821H236.15L234.82 194.799H233.934ZM238.788 204.685V195.685H239.759V196.725H239.879C239.952 196.611 240.055 196.466 240.185 196.29C240.319 196.111 240.509 195.952 240.756 195.813C241.006 195.671 241.344 195.6 241.771 195.6C242.322 195.6 242.808 195.738 243.228 196.013C243.648 196.289 243.977 196.679 244.212 197.185C244.448 197.691 244.566 198.287 244.566 198.975C244.566 199.668 244.448 200.269 244.212 200.777C243.977 201.283 243.65 201.675 243.232 201.953C242.815 202.229 242.333 202.367 241.788 202.367C241.367 202.367 241.031 202.297 240.778 202.158C240.525 202.016 240.33 201.855 240.194 201.676C240.058 201.495 239.952 201.344 239.879 201.225H239.793V204.685H238.788ZM239.776 198.958C239.776 199.452 239.849 199.888 239.994 200.266C240.138 200.641 240.35 200.935 240.629 201.148C240.907 201.358 241.248 201.463 241.651 201.463C242.072 201.463 242.423 201.353 242.704 201.131C242.988 200.907 243.201 200.605 243.343 200.228C243.488 199.847 243.56 199.424 243.56 198.958C243.56 198.498 243.489 198.083 243.347 197.713C243.208 197.341 242.996 197.047 242.712 196.831C242.431 196.613 242.077 196.503 241.651 196.503C241.242 196.503 240.898 196.607 240.62 196.814C240.342 197.019 240.131 197.306 239.989 197.675C239.847 198.042 239.776 198.469 239.776 198.958ZM248.026 202.384C247.612 202.384 247.235 202.306 246.897 202.15C246.559 201.99 246.29 201.762 246.092 201.463C245.893 201.162 245.793 200.799 245.793 200.373C245.793 199.998 245.867 199.694 246.015 199.461C246.163 199.225 246.36 199.04 246.607 198.907C246.854 198.773 247.127 198.674 247.425 198.608C247.727 198.54 248.029 198.486 248.333 198.446C248.731 198.395 249.053 198.357 249.3 198.331C249.55 198.303 249.732 198.256 249.846 198.191C249.962 198.125 250.021 198.012 250.021 197.85V197.816C250.021 197.395 249.906 197.069 249.675 196.836C249.448 196.603 249.103 196.486 248.64 196.486C248.16 196.486 247.783 196.591 247.511 196.801C247.238 197.012 247.046 197.236 246.935 197.475L245.981 197.134C246.151 196.736 246.379 196.426 246.663 196.205C246.95 195.98 247.262 195.824 247.6 195.736C247.941 195.645 248.276 195.6 248.606 195.6C248.816 195.6 249.058 195.625 249.33 195.676C249.606 195.725 249.871 195.826 250.127 195.979C250.386 196.132 250.6 196.364 250.771 196.674C250.941 196.983 251.026 197.398 251.026 197.918V202.23H250.021V201.344H249.969C249.901 201.486 249.788 201.638 249.629 201.8C249.469 201.962 249.258 202.1 248.994 202.213C248.729 202.327 248.407 202.384 248.026 202.384ZM248.18 201.48C248.577 201.48 248.913 201.402 249.185 201.246C249.461 201.09 249.668 200.888 249.808 200.641C249.95 200.394 250.021 200.134 250.021 199.861V198.941C249.978 198.992 249.884 199.039 249.739 199.081C249.597 199.121 249.433 199.157 249.245 199.188C249.06 199.216 248.88 199.242 248.704 199.265C248.531 199.284 248.39 199.301 248.282 199.316C248.021 199.35 247.776 199.405 247.549 199.482C247.325 199.556 247.143 199.668 247.004 199.819C246.867 199.966 246.799 200.168 246.799 200.424C246.799 200.773 246.928 201.037 247.187 201.216C247.448 201.392 247.779 201.48 248.18 201.48ZM252.862 202.23V195.685H253.833V196.674H253.902C254.021 196.35 254.237 196.087 254.549 195.885C254.862 195.684 255.214 195.583 255.606 195.583C255.68 195.583 255.772 195.584 255.883 195.587C255.994 195.59 256.078 195.594 256.135 195.6V196.623C256.1 196.614 256.022 196.601 255.9 196.584C255.781 196.564 255.654 196.554 255.521 196.554C255.203 196.554 254.919 196.621 254.669 196.755C254.422 196.885 254.225 197.067 254.081 197.3C253.939 197.53 253.868 197.793 253.868 198.088V202.23H252.862ZM259.872 202.367C259.241 202.367 258.697 202.228 258.24 201.949C257.785 201.668 257.434 201.276 257.187 200.773C256.943 200.267 256.821 199.679 256.821 199.009C256.821 198.338 256.943 197.748 257.187 197.236C257.434 196.722 257.778 196.321 258.218 196.034C258.662 195.745 259.179 195.6 259.77 195.6C260.11 195.6 260.447 195.657 260.779 195.77C261.112 195.884 261.414 196.069 261.687 196.324C261.96 196.577 262.177 196.912 262.339 197.33C262.501 197.748 262.582 198.262 262.582 198.873V199.299H257.537V198.429H261.559C261.559 198.06 261.485 197.73 261.338 197.441C261.193 197.151 260.985 196.922 260.716 196.755C260.449 196.587 260.133 196.503 259.77 196.503C259.369 196.503 259.022 196.603 258.73 196.801C258.44 196.998 258.217 197.253 258.061 197.569C257.904 197.884 257.826 198.222 257.826 198.583V199.162C257.826 199.657 257.912 200.076 258.082 200.419C258.255 200.76 258.495 201.02 258.802 201.199C259.109 201.375 259.466 201.463 259.872 201.463C260.136 201.463 260.375 201.426 260.588 201.353C260.804 201.276 260.99 201.162 261.146 201.012C261.302 200.858 261.423 200.668 261.508 200.441L262.48 200.713C262.377 201.043 262.206 201.333 261.964 201.583C261.723 201.83 261.424 202.023 261.069 202.162C260.714 202.299 260.315 202.367 259.872 202.367ZM264.112 202.23V195.685H265.083V196.674H265.152C265.271 196.35 265.487 196.087 265.799 195.885C266.112 195.684 266.464 195.583 266.856 195.583C266.93 195.583 267.022 195.584 267.133 195.587C267.244 195.59 267.328 195.594 267.385 195.6V196.623C267.35 196.614 267.272 196.601 267.15 196.584C267.031 196.564 266.904 196.554 266.771 196.554C266.453 196.554 266.169 196.621 265.919 196.755C265.672 196.885 265.475 197.067 265.331 197.3C265.189 197.53 265.118 197.793 265.118 198.088V202.23H264.112ZM276.077 199.554V195.685H277.082V202.23H276.077V201.123H276.009C275.855 201.455 275.616 201.738 275.293 201.971C274.969 202.201 274.56 202.316 274.065 202.316C273.656 202.316 273.293 202.226 272.974 202.047C272.656 201.865 272.406 201.593 272.224 201.229C272.043 200.863 271.952 200.401 271.952 199.844V195.685H272.957V199.776C272.957 200.253 273.091 200.634 273.358 200.918C273.628 201.202 273.972 201.344 274.389 201.344C274.639 201.344 274.893 201.28 275.152 201.152C275.413 201.025 275.632 200.828 275.808 200.564C275.987 200.3 276.077 199.963 276.077 199.554ZM279.93 198.293V202.23H278.924V195.685H279.896V196.708H279.981C280.135 196.375 280.368 196.108 280.68 195.907C280.993 195.702 281.396 195.6 281.89 195.6C282.333 195.6 282.721 195.691 283.054 195.873C283.386 196.051 283.645 196.324 283.829 196.691C284.014 197.054 284.106 197.515 284.106 198.071V202.23H283.1V198.14C283.1 197.625 282.967 197.225 282.7 196.938C282.433 196.648 282.066 196.503 281.6 196.503C281.279 196.503 280.993 196.573 280.74 196.712C280.49 196.851 280.292 197.054 280.147 197.321C280.002 197.588 279.93 197.912 279.93 198.293ZM289.319 204.685V195.685H290.29V196.725H290.41C290.484 196.611 290.586 196.466 290.717 196.29C290.85 196.111 291.04 195.952 291.288 195.813C291.538 195.671 291.876 195.6 292.302 195.6C292.853 195.6 293.339 195.738 293.759 196.013C294.18 196.289 294.508 196.679 294.744 197.185C294.979 197.691 295.097 198.287 295.097 198.975C295.097 199.668 294.979 200.269 294.744 200.777C294.508 201.283 294.181 201.675 293.763 201.953C293.346 202.229 292.864 202.367 292.319 202.367C291.898 202.367 291.562 202.297 291.309 202.158C291.056 202.016 290.862 201.855 290.725 201.676C290.589 201.495 290.484 201.344 290.41 201.225H290.325V204.685H289.319ZM290.308 198.958C290.308 199.452 290.38 199.888 290.525 200.266C290.67 200.641 290.881 200.935 291.16 201.148C291.438 201.358 291.779 201.463 292.183 201.463C292.603 201.463 292.954 201.353 293.235 201.131C293.519 200.907 293.732 200.605 293.874 200.228C294.019 199.847 294.092 199.424 294.092 198.958C294.092 198.498 294.021 198.083 293.879 197.713C293.739 197.341 293.528 197.047 293.244 196.831C292.962 196.613 292.609 196.503 292.183 196.503C291.773 196.503 291.43 196.607 291.151 196.814C290.873 197.019 290.663 197.306 290.521 197.675C290.379 198.042 290.308 198.469 290.308 198.958ZM297.637 193.503V202.23H296.631V193.503H297.637ZM301.405 202.384C300.99 202.384 300.614 202.306 300.276 202.15C299.938 201.99 299.669 201.762 299.471 201.463C299.272 201.162 299.172 200.799 299.172 200.373C299.172 199.998 299.246 199.694 299.394 199.461C299.542 199.225 299.739 199.04 299.986 198.907C300.233 198.773 300.506 198.674 300.804 198.608C301.105 198.54 301.408 198.486 301.712 198.446C302.11 198.395 302.432 198.357 302.679 198.331C302.929 198.303 303.111 198.256 303.225 198.191C303.341 198.125 303.4 198.012 303.4 197.85V197.816C303.4 197.395 303.284 197.069 303.054 196.836C302.827 196.603 302.482 196.486 302.019 196.486C301.539 196.486 301.162 196.591 300.89 196.801C300.617 197.012 300.425 197.236 300.314 197.475L299.36 197.134C299.53 196.736 299.757 196.426 300.042 196.205C300.328 195.98 300.641 195.824 300.979 195.736C301.32 195.645 301.655 195.6 301.985 195.6C302.195 195.6 302.436 195.625 302.709 195.676C302.985 195.725 303.25 195.826 303.506 195.979C303.765 196.132 303.979 196.364 304.15 196.674C304.32 196.983 304.405 197.398 304.405 197.918V202.23H303.4V201.344H303.348C303.28 201.486 303.167 201.638 303.007 201.8C302.848 201.962 302.637 202.1 302.373 202.213C302.108 202.327 301.786 202.384 301.405 202.384ZM301.559 201.48C301.956 201.48 302.292 201.402 302.564 201.246C302.84 201.09 303.047 200.888 303.186 200.641C303.328 200.394 303.4 200.134 303.4 199.861V198.941C303.357 198.992 303.263 199.039 303.118 199.081C302.976 199.121 302.811 199.157 302.624 199.188C302.439 199.216 302.259 199.242 302.083 199.265C301.909 199.284 301.769 199.301 301.661 199.316C301.4 199.35 301.155 199.405 300.928 199.482C300.703 199.556 300.522 199.668 300.382 199.819C300.246 199.966 300.178 200.168 300.178 200.424C300.178 200.773 300.307 201.037 300.566 201.216C300.827 201.392 301.158 201.48 301.559 201.48ZM309.087 195.685V196.537H305.695V195.685H309.087ZM306.684 194.117H307.69V200.355C307.69 200.64 307.731 200.853 307.813 200.995C307.898 201.134 308.006 201.228 308.137 201.276C308.271 201.321 308.411 201.344 308.559 201.344C308.67 201.344 308.761 201.338 308.832 201.327C308.903 201.313 308.96 201.301 309.002 201.293L309.207 202.196C309.138 202.222 309.043 202.248 308.921 202.273C308.799 202.301 308.644 202.316 308.457 202.316C308.173 202.316 307.894 202.255 307.621 202.132C307.352 202.01 307.127 201.824 306.948 201.574C306.772 201.324 306.684 201.009 306.684 200.628V194.117Z" fill="black"/>
<path d="M203 60.2969V365.027" stroke="black" stroke-width="1.5"/>
<path d="M427.5 234.762H349.5C342.596 234.762 337 240.358 337 247.262V256.395C337 263.298 342.596 268.895 349.5 268.895H427.5C434.404 268.895 440 263.298 440 256.395V247.262C440 240.358 434.404 234.762 427.5 234.762Z" fill="#F1F1F1" stroke="#181818" stroke-width="0.5"/>
<path d="M348.057 247.636H349.318L352.284 254.88H352.386L355.352 247.636H356.614V256.363H355.625V249.733H355.54L352.812 256.363H351.858L349.131 249.733H349.045V256.363H348.057V247.636ZM360.522 256.517C360.108 256.517 359.731 256.439 359.393 256.282C359.055 256.123 358.787 255.895 358.588 255.596C358.389 255.295 358.289 254.931 358.289 254.505C358.289 254.13 358.363 253.826 358.511 253.593C358.659 253.358 358.856 253.173 359.103 253.039C359.35 252.906 359.623 252.806 359.922 252.741C360.223 252.673 360.525 252.619 360.829 252.579C361.227 252.528 361.549 252.49 361.797 252.464C362.047 252.436 362.228 252.389 362.342 252.324C362.458 252.258 362.517 252.145 362.517 251.983V251.949C362.517 251.528 362.402 251.201 362.172 250.968C361.944 250.735 361.599 250.619 361.136 250.619C360.656 250.619 360.279 250.724 360.007 250.934C359.734 251.145 359.542 251.369 359.431 251.608L358.477 251.267C358.647 250.869 358.875 250.559 359.159 250.338C359.446 250.113 359.758 249.957 360.096 249.869C360.437 249.778 360.772 249.733 361.102 249.733C361.312 249.733 361.554 249.758 361.826 249.809C362.102 249.858 362.368 249.958 362.623 250.112C362.882 250.265 363.096 250.497 363.267 250.806C363.437 251.116 363.522 251.531 363.522 252.051V256.363H362.517V255.477H362.466C362.397 255.619 362.284 255.771 362.125 255.933C361.966 256.095 361.754 256.233 361.49 256.346C361.225 256.46 360.903 256.517 360.522 256.517ZM360.676 255.613C361.074 255.613 361.409 255.535 361.681 255.379C361.957 255.223 362.164 255.021 362.304 254.774C362.446 254.527 362.517 254.267 362.517 253.994V253.074C362.474 253.125 362.38 253.172 362.235 253.214C362.093 253.254 361.929 253.289 361.741 253.321C361.556 253.349 361.376 253.375 361.2 253.397C361.027 253.417 360.886 253.434 360.778 253.449C360.517 253.483 360.272 253.538 360.045 253.615C359.821 253.689 359.639 253.801 359.5 253.951C359.363 254.099 359.295 254.301 359.295 254.556C359.295 254.906 359.424 255.17 359.683 255.349C359.944 255.525 360.275 255.613 360.676 255.613ZM366.364 252.426V256.363H365.358V249.818H366.33V250.841H366.415C366.568 250.508 366.801 250.241 367.114 250.039C367.426 249.835 367.83 249.733 368.324 249.733C368.767 249.733 369.155 249.824 369.487 250.005C369.82 250.184 370.078 250.457 370.263 250.824C370.447 251.187 370.54 251.647 370.54 252.204V256.363H369.534V252.272C369.534 251.758 369.401 251.358 369.134 251.071C368.866 250.781 368.5 250.636 368.034 250.636C367.713 250.636 367.426 250.706 367.173 250.845C366.923 250.984 366.726 251.187 366.581 251.454C366.436 251.721 366.364 252.045 366.364 252.426ZM375.02 258.954C374.534 258.954 374.116 258.892 373.767 258.767C373.417 258.645 373.126 258.483 372.893 258.281C372.663 258.082 372.48 257.869 372.343 257.642L373.145 257.079C373.235 257.199 373.35 257.335 373.49 257.488C373.629 257.645 373.819 257.779 374.061 257.893C374.305 258.01 374.625 258.068 375.02 258.068C375.548 258.068 375.984 257.94 376.328 257.684C376.672 257.429 376.843 257.028 376.843 256.483V255.153H376.758C376.684 255.272 376.579 255.42 376.443 255.596C376.309 255.77 376.116 255.924 375.863 256.061C375.613 256.194 375.275 256.261 374.849 256.261C374.321 256.261 373.846 256.136 373.426 255.886C373.008 255.636 372.677 255.272 372.433 254.795C372.191 254.318 372.071 253.738 372.071 253.056C372.071 252.386 372.189 251.802 372.424 251.305C372.66 250.805 372.988 250.419 373.409 250.146C373.829 249.87 374.315 249.733 374.866 249.733C375.292 249.733 375.63 249.804 375.88 249.946C376.133 250.085 376.326 250.244 376.46 250.423C376.596 250.599 376.701 250.744 376.775 250.858H376.877V249.818H377.849V256.551C377.849 257.113 377.721 257.571 377.466 257.923C377.213 258.278 376.872 258.538 376.443 258.703C376.017 258.87 375.542 258.954 375.02 258.954ZM374.985 255.358C375.389 255.358 375.73 255.265 376.008 255.081C376.287 254.896 376.498 254.63 376.643 254.284C376.788 253.937 376.86 253.522 376.86 253.039C376.86 252.568 376.789 252.152 376.647 251.791C376.505 251.43 376.295 251.147 376.017 250.943C375.738 250.738 375.395 250.636 374.985 250.636C374.559 250.636 374.204 250.744 373.92 250.96C373.639 251.176 373.427 251.466 373.285 251.829C373.146 252.193 373.076 252.596 373.076 253.039C373.076 253.494 373.147 253.896 373.289 254.245C373.434 254.592 373.647 254.865 373.929 255.064C374.213 255.26 374.565 255.358 374.985 255.358ZM382.434 256.5C381.804 256.5 381.26 256.36 380.802 256.082C380.348 255.801 379.997 255.409 379.75 254.906C379.505 254.4 379.383 253.812 379.383 253.142C379.383 252.471 379.505 251.88 379.75 251.369C379.997 250.855 380.341 250.454 380.781 250.167C381.224 249.877 381.741 249.733 382.332 249.733C382.673 249.733 383.01 249.789 383.342 249.903C383.674 250.017 383.977 250.201 384.25 250.457C384.522 250.71 384.74 251.045 384.902 251.463C385.064 251.88 385.145 252.395 385.145 253.005V253.431H380.099V252.562H384.122C384.122 252.193 384.048 251.863 383.9 251.574C383.755 251.284 383.548 251.055 383.278 250.887C383.011 250.72 382.696 250.636 382.332 250.636C381.931 250.636 381.585 250.735 381.292 250.934C381.002 251.13 380.779 251.386 380.623 251.701C380.467 252.017 380.389 252.355 380.389 252.716V253.295C380.389 253.789 380.474 254.208 380.645 254.552C380.818 254.893 381.058 255.153 381.365 255.332C381.672 255.508 382.028 255.596 382.434 255.596C382.699 255.596 382.937 255.559 383.15 255.485C383.366 255.409 383.552 255.295 383.708 255.145C383.865 254.991 383.985 254.801 384.071 254.574L385.042 254.846C384.94 255.176 384.768 255.466 384.527 255.716C384.285 255.963 383.987 256.156 383.632 256.295C383.277 256.431 382.877 256.5 382.434 256.5ZM386.674 256.363V249.818H387.646V250.806H387.714C387.833 250.483 388.049 250.22 388.362 250.018C388.674 249.816 389.027 249.716 389.419 249.716C389.493 249.716 389.585 249.717 389.696 249.72C389.806 249.723 389.89 249.727 389.947 249.733V250.755C389.913 250.747 389.835 250.734 389.713 250.717C389.593 250.697 389.467 250.687 389.333 250.687C389.015 250.687 388.731 250.754 388.481 250.887C388.234 251.018 388.038 251.2 387.893 251.433C387.751 251.663 387.68 251.926 387.68 252.221V256.363H386.674ZM395.52 247.636V256.363H394.514V247.636H395.52ZM400.106 256.5C399.475 256.5 398.931 256.36 398.474 256.082C398.02 255.801 397.669 255.409 397.422 254.906C397.177 254.4 397.055 253.812 397.055 253.142C397.055 252.471 397.177 251.88 397.422 251.369C397.669 250.855 398.012 250.454 398.453 250.167C398.896 249.877 399.413 249.733 400.004 249.733C400.345 249.733 400.681 249.789 401.014 249.903C401.346 250.017 401.649 250.201 401.922 250.457C402.194 250.71 402.412 251.045 402.574 251.463C402.735 251.88 402.816 252.395 402.816 253.005V253.431H397.771V252.562H401.794C401.794 252.193 401.72 251.863 401.572 251.574C401.427 251.284 401.22 251.055 400.95 250.887C400.683 250.72 400.368 250.636 400.004 250.636C399.603 250.636 399.257 250.735 398.964 250.934C398.674 251.13 398.451 251.386 398.295 251.701C398.139 252.017 398.061 252.355 398.061 252.716V253.295C398.061 253.789 398.146 254.208 398.316 254.552C398.49 254.893 398.73 255.153 399.037 255.332C399.343 255.508 399.7 255.596 400.106 255.596C400.37 255.596 400.609 255.559 400.822 255.485C401.038 255.409 401.224 255.295 401.38 255.145C401.537 254.991 401.657 254.801 401.743 254.574L402.714 254.846C402.612 255.176 402.44 255.466 402.199 255.716C401.957 255.963 401.659 256.156 401.304 256.295C400.949 256.431 400.549 256.5 400.106 256.5ZM407.721 258.818V249.818H408.693V250.858H408.812C408.886 250.744 408.988 250.599 409.119 250.423C409.252 250.244 409.443 250.085 409.69 249.946C409.94 249.804 410.278 249.733 410.704 249.733C411.255 249.733 411.741 249.87 412.162 250.146C412.582 250.422 412.91 250.812 413.146 251.318C413.382 251.824 413.5 252.42 413.5 253.108C413.5 253.801 413.382 254.402 413.146 254.91C412.91 255.416 412.583 255.808 412.166 256.086C411.748 256.362 411.267 256.5 410.721 256.5C410.301 256.5 409.964 256.43 409.711 256.291C409.458 256.149 409.264 255.988 409.127 255.809C408.991 255.627 408.886 255.477 408.812 255.358H408.727V258.818H407.721ZM408.71 253.091C408.71 253.585 408.782 254.021 408.927 254.399C409.072 254.774 409.284 255.068 409.562 255.281C409.841 255.491 410.181 255.596 410.585 255.596C411.005 255.596 411.356 255.485 411.637 255.264C411.922 255.039 412.135 254.738 412.277 254.36C412.422 253.98 412.494 253.556 412.494 253.091C412.494 252.63 412.423 252.216 412.281 251.846C412.142 251.474 411.93 251.18 411.646 250.964C411.365 250.745 411.011 250.636 410.585 250.636C410.176 250.636 409.832 250.74 409.554 250.947C409.275 251.152 409.065 251.439 408.923 251.808C408.781 252.174 408.71 252.602 408.71 253.091ZM416.039 247.636V256.363H415.034V247.636H416.039ZM419.808 256.517C419.393 256.517 419.016 256.439 418.678 256.282C418.34 256.123 418.072 255.895 417.873 255.596C417.674 255.295 417.575 254.931 417.575 254.505C417.575 254.13 417.648 253.826 417.796 253.593C417.944 253.358 418.141 253.173 418.388 253.039C418.636 252.906 418.908 252.806 419.207 252.741C419.508 252.673 419.81 252.619 420.114 252.579C420.512 252.528 420.835 252.49 421.082 252.464C421.332 252.436 421.513 252.389 421.627 252.324C421.744 252.258 421.802 252.145 421.802 251.983V251.949C421.802 251.528 421.687 251.201 421.457 250.968C421.229 250.735 420.884 250.619 420.421 250.619C419.941 250.619 419.565 250.724 419.292 250.934C419.019 251.145 418.827 251.369 418.717 251.608L417.762 251.267C417.933 250.869 418.16 250.559 418.444 250.338C418.731 250.113 419.043 249.957 419.381 249.869C419.722 249.778 420.058 249.733 420.387 249.733C420.597 249.733 420.839 249.758 421.112 249.809C421.387 249.858 421.653 249.958 421.908 250.112C422.167 250.265 422.381 250.497 422.552 250.806C422.722 251.116 422.808 251.531 422.808 252.051V256.363H421.802V255.477H421.751C421.683 255.619 421.569 255.771 421.41 255.933C421.251 256.095 421.039 256.233 420.775 256.346C420.511 256.46 420.188 256.517 419.808 256.517ZM419.961 255.613C420.359 255.613 420.694 255.535 420.967 255.379C421.242 255.223 421.45 255.021 421.589 254.774C421.731 254.527 421.802 254.267 421.802 253.994V253.074C421.759 253.125 421.665 253.172 421.521 253.214C421.379 253.254 421.214 253.289 421.026 253.321C420.842 253.349 420.661 253.375 420.485 253.397C420.312 253.417 420.171 253.434 420.063 253.449C419.802 253.483 419.558 253.538 419.33 253.615C419.106 253.689 418.924 253.801 418.785 253.951C418.648 254.099 418.58 254.301 418.58 254.556C418.58 254.906 418.71 255.17 418.968 255.349C419.229 255.525 419.56 255.613 419.961 255.613ZM427.49 249.818V250.67H424.098V249.818H427.49ZM425.086 248.25H426.092V254.488C426.092 254.772 426.133 254.985 426.216 255.127C426.301 255.267 426.409 255.36 426.539 255.409C426.673 255.454 426.814 255.477 426.961 255.477C427.072 255.477 427.163 255.471 427.234 255.46C427.305 255.446 427.362 255.434 427.404 255.426L427.609 256.329C427.541 256.355 427.446 256.38 427.324 256.406C427.201 256.434 427.047 256.449 426.859 256.449C426.575 256.449 426.297 256.387 426.024 256.265C425.754 256.143 425.529 255.957 425.35 255.707C425.174 255.457 425.086 255.142 425.086 254.761V248.25Z" fill="black"/>
<path d="M430.5 288.895H346.5C339.596 288.895 334 294.491 334 301.395V310.527C334 317.431 339.596 323.027 346.5 323.027H430.5C437.404 323.027 443 317.431 443 310.527V301.395C443 294.491 437.404 288.895 430.5 288.895Z" fill="#F1F1F1" stroke="#181818" stroke-width="0.5"/>
<path d="M345.057 310.496V301.769H348.006C348.69 301.769 349.25 301.892 349.685 302.14C350.122 302.384 350.446 302.715 350.656 303.132C350.866 303.55 350.972 304.016 350.972 304.53C350.972 305.044 350.866 305.512 350.656 305.932C350.449 306.353 350.128 306.688 349.693 306.938C349.259 307.185 348.702 307.309 348.023 307.309H345.909V306.371H347.989C348.457 306.371 348.834 306.29 349.118 306.128C349.402 305.966 349.608 305.748 349.736 305.472C349.866 305.194 349.932 304.88 349.932 304.53C349.932 304.181 349.866 303.868 349.736 303.593C349.608 303.317 349.401 303.101 349.114 302.945C348.827 302.786 348.446 302.706 347.972 302.706H346.114V310.496H345.057ZM354.464 310.65C354.049 310.65 353.673 310.571 353.335 310.415C352.996 310.256 352.728 310.027 352.529 309.729C352.33 309.428 352.231 309.064 352.231 308.638C352.231 308.263 352.305 307.959 352.452 307.726C352.6 307.49 352.798 307.306 353.045 307.172C353.292 307.039 353.565 306.939 353.863 306.874C354.164 306.806 354.467 306.752 354.771 306.712C355.168 306.661 355.491 306.623 355.738 306.597C355.988 306.569 356.17 306.522 356.283 306.456C356.4 306.391 356.458 306.277 356.458 306.115V306.081C356.458 305.661 356.343 305.334 356.113 305.101C355.886 304.868 355.54 304.752 355.077 304.752C354.597 304.752 354.221 304.857 353.948 305.067C353.675 305.277 353.484 305.502 353.373 305.74L352.418 305.4C352.589 305.002 352.816 304.692 353.1 304.471C353.387 304.246 353.7 304.09 354.038 304.002C354.379 303.911 354.714 303.865 355.043 303.865C355.254 303.865 355.495 303.891 355.768 303.942C356.043 303.99 356.309 304.091 356.565 304.245C356.823 304.398 357.038 304.63 357.208 304.939C357.379 305.249 357.464 305.664 357.464 306.184V310.496H356.458V309.61H356.407C356.339 309.752 356.225 309.904 356.066 310.066C355.907 310.228 355.695 310.365 355.431 310.479C355.167 310.593 354.844 310.65 354.464 310.65ZM354.617 309.746C355.015 309.746 355.35 309.668 355.623 309.512C355.898 309.355 356.106 309.154 356.245 308.907C356.387 308.659 356.458 308.4 356.458 308.127V307.206C356.415 307.257 356.322 307.304 356.177 307.347C356.035 307.387 355.87 307.422 355.683 307.453C355.498 307.482 355.317 307.507 355.141 307.53C354.968 307.55 354.827 307.567 354.719 307.581C354.458 307.615 354.214 307.671 353.987 307.748C353.762 307.821 353.58 307.934 353.441 308.084C353.305 308.232 353.237 308.434 353.237 308.689C353.237 309.039 353.366 309.303 353.624 309.482C353.886 309.658 354.217 309.746 354.617 309.746ZM359.713 312.951C359.542 312.951 359.39 312.936 359.257 312.908C359.123 312.882 359.031 312.857 358.98 312.831L359.235 311.945C359.48 312.007 359.696 312.03 359.883 312.013C360.071 311.996 360.237 311.912 360.382 311.762C360.529 311.614 360.664 311.374 360.787 311.042L360.974 310.53L358.554 303.951H359.645L361.451 309.167H361.52L363.326 303.951H364.417L361.639 311.451C361.514 311.789 361.359 312.069 361.174 312.29C360.99 312.515 360.775 312.681 360.531 312.789C360.289 312.897 360.017 312.951 359.713 312.951ZM368.255 310.632C367.624 310.632 367.08 310.493 366.623 310.215C366.168 309.934 365.817 309.542 365.57 309.039C365.326 308.533 365.203 307.945 365.203 307.275C365.203 306.604 365.326 306.013 365.57 305.502C365.817 304.988 366.161 304.587 366.601 304.3C367.044 304.01 367.561 303.865 368.152 303.865C368.493 303.865 368.83 303.922 369.162 304.036C369.495 304.15 369.797 304.334 370.07 304.59C370.343 304.843 370.56 305.178 370.722 305.596C370.884 306.013 370.965 306.527 370.965 307.138V307.564H365.919V306.695H369.942C369.942 306.326 369.868 305.996 369.721 305.706C369.576 305.417 369.368 305.188 369.098 305.02C368.831 304.853 368.516 304.769 368.152 304.769C367.752 304.769 367.405 304.868 367.113 305.067C366.823 305.263 366.6 305.519 366.444 305.834C366.287 306.15 366.209 306.488 366.209 306.848V307.428C366.209 307.922 366.294 308.341 366.465 308.685C366.638 309.026 366.878 309.286 367.185 309.465C367.492 309.641 367.848 309.729 368.255 309.729C368.519 309.729 368.757 309.692 368.971 309.618C369.186 309.542 369.373 309.428 369.529 309.277C369.685 309.124 369.806 308.934 369.891 308.706L370.863 308.979C370.76 309.309 370.588 309.598 370.347 309.848C370.105 310.096 369.807 310.289 369.452 310.428C369.097 310.564 368.698 310.632 368.255 310.632ZM372.495 310.496V303.951H373.466V304.939H373.534C373.654 304.615 373.87 304.353 374.182 304.151C374.495 303.949 374.847 303.848 375.239 303.848C375.313 303.848 375.405 303.85 375.516 303.853C375.627 303.855 375.711 303.86 375.767 303.865V304.888C375.733 304.88 375.655 304.867 375.533 304.85C375.414 304.83 375.287 304.82 375.154 304.82C374.836 304.82 374.551 304.887 374.301 305.02C374.054 305.151 373.858 305.333 373.713 305.566C373.571 305.796 373.5 306.059 373.5 306.354V310.496H372.495ZM381.34 301.769V310.496H380.335V301.769H381.34ZM384.051 301.769V304.769H383.114V301.769H384.051ZM387.768 310.65C387.354 310.65 386.977 310.571 386.639 310.415C386.301 310.256 386.033 310.027 385.834 309.729C385.635 309.428 385.536 309.064 385.536 308.638C385.536 308.263 385.609 307.959 385.757 307.726C385.905 307.49 386.102 307.306 386.349 307.172C386.597 307.039 386.869 306.939 387.168 306.874C387.469 306.806 387.771 306.752 388.075 306.712C388.473 306.661 388.795 306.623 389.043 306.597C389.293 306.569 389.474 306.522 389.588 306.456C389.705 306.391 389.763 306.277 389.763 306.115V306.081C389.763 305.661 389.648 305.334 389.418 305.101C389.19 304.868 388.845 304.752 388.382 304.752C387.902 304.752 387.526 304.857 387.253 305.067C386.98 305.277 386.788 305.502 386.678 305.74L385.723 305.4C385.893 305.002 386.121 304.692 386.405 304.471C386.692 304.246 387.004 304.09 387.342 304.002C387.683 303.911 388.018 303.865 388.348 303.865C388.558 303.865 388.8 303.891 389.072 303.942C389.348 303.99 389.614 304.091 389.869 304.245C390.128 304.398 390.342 304.63 390.513 304.939C390.683 305.249 390.768 305.664 390.768 306.184V310.496H389.763V309.61H389.712C389.643 309.752 389.53 309.904 389.371 310.066C389.212 310.228 389 310.365 388.736 310.479C388.472 310.593 388.149 310.65 387.768 310.65ZM387.922 309.746C388.32 309.746 388.655 309.668 388.928 309.512C389.203 309.355 389.411 309.154 389.55 308.907C389.692 308.659 389.763 308.4 389.763 308.127V307.206C389.72 307.257 389.626 307.304 389.482 307.347C389.339 307.387 389.175 307.422 388.987 307.453C388.803 307.482 388.622 307.507 388.446 307.53C388.273 307.55 388.132 307.567 388.024 307.581C387.763 307.615 387.518 307.671 387.291 307.748C387.067 307.821 386.885 307.934 386.746 308.084C386.609 308.232 386.541 308.434 386.541 308.689C386.541 309.039 386.67 309.303 386.929 309.482C387.19 309.658 387.521 309.746 387.922 309.746ZM395.076 310.632C394.53 310.632 394.049 310.495 393.631 310.219C393.213 309.941 392.887 309.549 392.651 309.043C392.415 308.534 392.297 307.934 392.297 307.24C392.297 306.553 392.415 305.956 392.651 305.451C392.887 304.945 393.215 304.554 393.635 304.279C394.056 304.003 394.542 303.865 395.093 303.865C395.519 303.865 395.855 303.936 396.103 304.078C396.353 304.218 396.543 304.377 396.674 304.556C396.807 304.732 396.911 304.877 396.985 304.99H397.07V301.769H398.076V310.496H397.104V309.49H396.985C396.911 309.61 396.806 309.76 396.669 309.942C396.533 310.121 396.338 310.282 396.086 310.424C395.833 310.563 395.496 310.632 395.076 310.632ZM395.212 309.729C395.615 309.729 395.956 309.624 396.235 309.414C396.513 309.201 396.725 308.907 396.87 308.532C397.015 308.154 397.087 307.718 397.087 307.223C397.087 306.735 397.016 306.307 396.874 305.941C396.732 305.571 396.522 305.284 396.243 305.08C395.965 304.873 395.621 304.769 395.212 304.769C394.786 304.769 394.431 304.878 394.147 305.097C393.865 305.313 393.654 305.607 393.512 305.979C393.373 306.348 393.303 306.763 393.303 307.223C393.303 307.689 393.374 308.113 393.516 308.493C393.661 308.871 393.874 309.172 394.155 309.397C394.439 309.618 394.792 309.729 395.212 309.729ZM402.529 310.632C401.983 310.632 401.502 310.495 401.084 310.219C400.667 309.941 400.34 309.549 400.104 309.043C399.868 308.534 399.75 307.934 399.75 307.24C399.75 306.553 399.868 305.956 400.104 305.451C400.34 304.945 400.668 304.554 401.088 304.279C401.509 304.003 401.995 303.865 402.546 303.865C402.972 303.865 403.309 303.936 403.556 304.078C403.806 304.218 403.996 304.377 404.127 304.556C404.26 304.732 404.364 304.877 404.438 304.99H404.523V301.769H405.529V310.496H404.557V309.49H404.438C404.364 309.61 404.259 309.76 404.123 309.942C403.986 310.121 403.792 310.282 403.539 310.424C403.286 310.563 402.949 310.632 402.529 310.632ZM402.665 309.729C403.069 309.729 403.409 309.624 403.688 309.414C403.966 309.201 404.178 308.907 404.323 308.532C404.468 308.154 404.54 307.718 404.54 307.223C404.54 306.735 404.469 306.307 404.327 305.941C404.185 305.571 403.975 305.284 403.696 305.08C403.418 304.873 403.074 304.769 402.665 304.769C402.239 304.769 401.884 304.878 401.6 305.097C401.319 305.313 401.107 305.607 400.965 305.979C400.826 306.348 400.756 306.763 400.756 307.223C400.756 307.689 400.827 308.113 400.969 308.493C401.114 308.871 401.327 309.172 401.608 309.397C401.892 309.618 402.245 309.729 402.665 309.729ZM407.51 310.496V303.951H408.516V310.496H407.51ZM408.022 302.86C407.826 302.86 407.657 302.793 407.515 302.659C407.375 302.526 407.306 302.365 407.306 302.178C407.306 301.99 407.375 301.83 407.515 301.696C407.657 301.563 407.826 301.496 408.022 301.496C408.218 301.496 408.385 301.563 408.525 301.696C408.667 301.83 408.738 301.99 408.738 302.178C408.738 302.365 408.667 302.526 408.525 302.659C408.385 302.793 408.218 302.86 408.022 302.86ZM413.205 303.951V304.803H409.812V303.951H413.205ZM410.801 302.382H411.807V308.621C411.807 308.905 411.848 309.118 411.93 309.26C412.016 309.4 412.124 309.493 412.254 309.542C412.388 309.587 412.528 309.61 412.676 309.61C412.787 309.61 412.878 309.604 412.949 309.593C413.02 309.578 413.077 309.567 413.119 309.559L413.324 310.462C413.256 310.488 413.161 310.513 413.038 310.539C412.916 310.567 412.761 310.581 412.574 310.581C412.29 310.581 412.011 310.52 411.739 310.398C411.469 310.276 411.244 310.09 411.065 309.84C410.889 309.59 410.801 309.275 410.801 308.894V302.382ZM414.717 310.496V303.951H415.723V310.496H414.717ZM415.229 302.86C415.033 302.86 414.864 302.793 414.722 302.659C414.582 302.526 414.513 302.365 414.513 302.178C414.513 301.99 414.582 301.83 414.722 301.696C414.864 301.563 415.033 301.496 415.229 301.496C415.425 301.496 415.592 301.563 415.732 301.696C415.874 301.83 415.945 301.99 415.945 302.178C415.945 302.365 415.874 302.526 415.732 302.659C415.592 302.793 415.425 302.86 415.229 302.86ZM420.224 310.632C419.633 310.632 419.115 310.492 418.669 310.211C418.225 309.929 417.879 309.536 417.629 309.03C417.382 308.525 417.258 307.934 417.258 307.257C417.258 306.576 417.382 305.98 417.629 305.472C417.879 304.963 418.225 304.569 418.669 304.287C419.115 304.006 419.633 303.865 420.224 303.865C420.815 303.865 421.332 304.006 421.775 304.287C422.221 304.569 422.568 304.963 422.815 305.472C423.065 305.98 423.19 306.576 423.19 307.257C423.19 307.934 423.065 308.525 422.815 309.03C422.568 309.536 422.221 309.929 421.775 310.211C421.332 310.492 420.815 310.632 420.224 310.632ZM420.224 309.729C420.673 309.729 421.042 309.614 421.332 309.384C421.622 309.154 421.836 308.851 421.975 308.476C422.115 308.101 422.184 307.695 422.184 307.257C422.184 306.82 422.115 306.412 421.975 306.034C421.836 305.657 421.622 305.351 421.332 305.118C421.042 304.885 420.673 304.769 420.224 304.769C419.775 304.769 419.406 304.885 419.116 305.118C418.826 305.351 418.612 305.657 418.473 306.034C418.333 306.412 418.264 306.82 418.264 307.257C418.264 307.695 418.333 308.101 418.473 308.476C418.612 308.851 418.826 309.154 419.116 309.384C419.406 309.614 419.775 309.729 420.224 309.729ZM425.731 306.559V310.496H424.725V303.951H425.697V304.973H425.782C425.935 304.641 426.168 304.374 426.481 304.172C426.793 303.968 427.197 303.865 427.691 303.865C428.134 303.865 428.522 303.956 428.854 304.138C429.187 304.317 429.445 304.59 429.63 304.956C429.815 305.32 429.907 305.78 429.907 306.337V310.496H428.901V306.405C428.901 305.891 428.768 305.49 428.501 305.203C428.234 304.914 427.867 304.769 427.401 304.769C427.08 304.769 426.793 304.838 426.54 304.978C426.29 305.117 426.093 305.32 425.948 305.587C425.803 305.854 425.731 306.178 425.731 306.559Z" fill="black"/>
<path d="M388.5 365.027C394.575 365.027 399.5 360.102 399.5 354.027C399.5 347.952 394.575 343.027 388.5 343.027C382.425 343.027 377.5 347.952 377.5 354.027C377.5 360.102 382.425 365.027 388.5 365.027Z" stroke="#222222"/>
<path d="M388.5 360.027C391.814 360.027 394.5 357.341 394.5 354.027C394.5 350.714 391.814 348.027 388.5 348.027C385.186 348.027 382.5 350.714 382.5 354.027C382.5 357.341 385.186 360.027 388.5 360.027Z" fill="#222222" stroke="#111111"/>
<path d="M328 60.2969V365.027" stroke="black" stroke-width="1.5"/>
<path d="M447 60.2969V365.027" stroke="black" stroke-width="1.5"/>
<path d="M125 106.496V126.496" stroke="#181818"/>
<path d="M121 116.496L125 126.496L129 116.496L125 120.496L121 116.496Z" fill="#181818" stroke="#181818"/>
<path d="M388.5 268.895V288.895" stroke="#181818"/>
<path d="M384.5 278.895L388.5 288.895L392.5 278.895L388.5 282.895L384.5 278.895Z" fill="#181818" stroke="#181818"/>
<path d="M388.5 323.027V343.027" stroke="#181818"/>
<path d="M384.5 333.027L388.5 343.027L392.5 333.027L388.5 337.027L384.5 333.027Z" fill="#181818" stroke="#181818"/>
<path d="M125 160.629V165.629" stroke="#181818"/>
<path d="M125 165.629H266.5" stroke="#181818"/>
<path d="M266.5 165.629V180.629" stroke="#181818"/>
<path d="M262.5 170.629L266.5 180.629L270.5 170.629L266.5 174.629L262.5 170.629Z" fill="#181818" stroke="#181818"/>
<path d="M266.5 214.762V219.762" stroke="#181818"/>
<path d="M266.5 219.762H388.5" stroke="#181818"/>
<path d="M388.5 219.762V234.762" stroke="#181818"/>
<path d="M384.5 224.762L388.5 234.762L392.5 224.762L388.5 228.762L384.5 224.762Z" fill="#181818" stroke="#181818"/>
<path d="M100.744 68.1818C100.668 67.5341 100.357 67.0312 99.8111 66.6733C99.2656 66.3153 98.5966 66.1364 97.804 66.1364C97.2244 66.1364 96.7173 66.2301 96.2827 66.4176C95.8523 66.6051 95.5156 66.8629 95.2727 67.1911C95.0341 67.5192 94.9148 67.892 94.9148 68.3097C94.9148 68.6591 94.9979 68.9595 95.1641 69.2109C95.3345 69.4581 95.5518 69.6648 95.8161 69.831C96.0803 69.9929 96.3572 70.1271 96.647 70.2337C96.9368 70.3359 97.2031 70.419 97.446 70.483L98.7756 70.8409C99.1165 70.9304 99.4957 71.054 99.9134 71.2116C100.335 71.3693 100.738 71.5845 101.121 71.8572C101.509 72.1257 101.829 72.4709 102.08 72.8928C102.332 73.3146 102.457 73.8324 102.457 74.446C102.457 75.1534 102.272 75.7926 101.901 76.3636C101.535 76.9347 100.998 77.3885 100.29 77.7251C99.5874 78.0618 98.733 78.2301 97.7273 78.2301C96.7898 78.2301 95.978 78.0788 95.2919 77.7763C94.6101 77.4737 94.0732 77.0518 93.6811 76.5107C93.2933 75.9695 93.0739 75.3409 93.0227 74.625H94.6591C94.7017 75.1193 94.8679 75.5284 95.1577 75.8523C95.4517 76.1719 95.8224 76.4105 96.2699 76.5682C96.7216 76.7216 97.2074 76.7983 97.7273 76.7983C98.3324 76.7983 98.8757 76.7003 99.3572 76.5043C99.8388 76.304 100.22 76.027 100.501 75.6733C100.783 75.3153 100.923 74.8977 100.923 74.4205C100.923 73.9858 100.802 73.6321 100.559 73.3594C100.316 73.0866 99.9964 72.8651 99.6001 72.6946C99.2038 72.5241 98.7756 72.375 98.3153 72.2472L96.7045 71.7869C95.6818 71.4929 94.8722 71.0732 94.2756 70.5277C93.679 69.9822 93.3807 69.2685 93.3807 68.3864C93.3807 67.6534 93.5788 67.0142 93.9751 66.4688C94.3757 65.919 94.9126 65.4929 95.5859 65.1903C96.2635 64.8835 97.0199 64.7301 97.8551 64.7301C98.6989 64.7301 99.4489 64.8814 100.105 65.1839C100.761 65.4822 101.281 65.8913 101.665 66.4112C102.053 66.9311 102.257 67.5213 102.278 68.1818H100.744ZM108.976 78.2045C108.03 78.2045 107.214 77.9957 106.528 77.5781C105.846 77.1562 105.319 76.5682 104.949 75.8139C104.582 75.0554 104.399 74.1733 104.399 73.1676C104.399 72.1619 104.582 71.2756 104.949 70.5085C105.319 69.7372 105.835 69.1364 106.496 68.706C107.16 68.2713 107.936 68.054 108.822 68.054C109.334 68.054 109.839 68.1392 110.337 68.3097C110.836 68.4801 111.29 68.7571 111.699 69.1406C112.108 69.5199 112.434 70.0227 112.677 70.6491C112.92 71.2756 113.041 72.0469 113.041 72.9631V73.6023H105.473V72.2983H111.507C111.507 71.7443 111.396 71.25 111.175 70.8153C110.957 70.3807 110.646 70.0376 110.241 69.7862C109.841 69.5348 109.368 69.4091 108.822 69.4091C108.221 69.4091 107.702 69.5582 107.263 69.8565C106.828 70.1506 106.493 70.5341 106.259 71.0071C106.025 71.4801 105.907 71.9872 105.907 72.5284V73.3977C105.907 74.1392 106.035 74.7678 106.291 75.2834C106.551 75.7947 106.911 76.1847 107.371 76.4531C107.831 76.7173 108.366 76.8494 108.976 76.8494C109.372 76.8494 109.73 76.794 110.05 76.6832C110.373 76.5682 110.653 76.3977 110.887 76.1719C111.121 75.9418 111.302 75.6562 111.43 75.3153L112.888 75.7244C112.734 76.2188 112.476 76.6534 112.114 77.0284C111.752 77.3991 111.305 77.6889 110.772 77.8977C110.239 78.1023 109.64 78.2045 108.976 78.2045ZM115.336 78V68.1818H116.793V69.6648H116.895C117.074 69.179 117.398 68.7848 117.867 68.4822C118.336 68.1797 118.864 68.0284 119.452 68.0284C119.563 68.0284 119.702 68.0305 119.868 68.0348C120.034 68.0391 120.16 68.0455 120.245 68.054V69.5881C120.194 69.5753 120.077 69.5561 119.893 69.5305C119.714 69.5007 119.525 69.4858 119.324 69.4858C118.847 69.4858 118.421 69.5859 118.046 69.7862C117.675 69.9822 117.381 70.255 117.164 70.6044C116.951 70.9496 116.844 71.3437 116.844 71.7869V78H115.336ZM130.36 68.1818L126.73 78H125.195L121.565 68.1818H123.201L125.911 76.0057H126.014L128.724 68.1818H130.36ZM136.116 78.2045C135.17 78.2045 134.354 77.9957 133.668 77.5781C132.986 77.1562 132.46 76.5682 132.089 75.8139C131.723 75.0554 131.54 74.1733 131.54 73.1676C131.54 72.1619 131.723 71.2756 132.089 70.5085C132.46 69.7372 132.976 69.1364 133.636 68.706C134.301 68.2713 135.077 68.054 135.963 68.054C136.474 68.054 136.979 68.1392 137.478 68.3097C137.976 68.4801 138.43 68.7571 138.839 69.1406C139.248 69.5199 139.574 70.0227 139.817 70.6491C140.06 71.2756 140.182 72.0469 140.182 72.9631V73.6023H132.613V72.2983H138.648C138.648 71.7443 138.537 71.25 138.315 70.8153C138.098 70.3807 137.787 70.0376 137.382 69.7862C136.981 69.5348 136.508 69.4091 135.963 69.4091C135.362 69.4091 134.842 69.5582 134.403 69.8565C133.969 70.1506 133.634 70.5341 133.4 71.0071C133.165 71.4801 133.048 71.9872 133.048 72.5284V73.3977C133.048 74.1392 133.176 74.7678 133.432 75.2834C133.692 75.7947 134.052 76.1847 134.512 76.4531C134.972 76.7173 135.507 76.8494 136.116 76.8494C136.513 76.8494 136.871 76.794 137.19 76.6832C137.514 76.5682 137.793 76.3977 138.028 76.1719C138.262 75.9418 138.443 75.6562 138.571 75.3153L140.028 75.7244C139.875 76.2188 139.617 76.6534 139.255 77.0284C138.893 77.3991 138.445 77.6889 137.912 77.8977C137.38 78.1023 136.781 78.2045 136.116 78.2045ZM148.664 73.9858V68.1818H150.172V78H148.664V76.3381H148.562C148.331 76.8366 147.974 77.2607 147.488 77.6101C147.002 77.9553 146.388 78.1278 145.647 78.1278C145.033 78.1278 144.488 77.9936 144.01 77.7251C143.533 77.4524 143.158 77.0433 142.885 76.4979C142.613 75.9482 142.476 75.2557 142.476 74.4205V68.1818H143.985V74.3182C143.985 75.0341 144.185 75.6051 144.586 76.0312C144.991 76.4574 145.506 76.6705 146.133 76.6705C146.508 76.6705 146.889 76.5746 147.277 76.3828C147.669 76.1911 147.997 75.897 148.261 75.5007C148.53 75.1044 148.664 74.5994 148.664 73.9858ZM152.935 78V68.1818H154.393V69.6648H154.495C154.674 69.179 154.998 68.7848 155.467 68.4822C155.935 68.1797 156.464 68.0284 157.052 68.0284C157.163 68.0284 157.301 68.0305 157.467 68.0348C157.634 68.0391 157.759 68.0455 157.844 68.054V69.5881C157.793 69.5753 157.676 69.5561 157.493 69.5305C157.314 69.5007 157.124 69.4858 156.924 69.4858C156.447 69.4858 156.021 69.5859 155.646 69.7862C155.275 69.9822 154.981 70.255 154.763 70.6044C154.55 70.9496 154.444 71.3437 154.444 71.7869V78H152.935Z" fill="black"/>
<path d="M243.119 68.6992H241.534C241.44 68.2433 241.276 67.8427 241.042 67.4975C240.812 67.1523 240.531 66.8626 240.198 66.6282C239.87 66.3896 239.506 66.2106 239.105 66.0913C238.705 65.9719 238.287 65.9123 237.852 65.9123C237.06 65.9123 236.342 66.1126 235.698 66.5131C235.059 66.9137 234.55 67.5039 234.17 68.2837C233.795 69.0636 233.608 70.0202 233.608 71.1538C233.608 72.2873 233.795 73.244 234.17 74.0238C234.55 74.8036 235.059 75.3938 235.698 75.7944C236.342 76.195 237.06 76.3952 237.852 76.3952C238.287 76.3952 238.705 76.3356 239.105 76.2163C239.506 76.0969 239.87 75.9201 240.198 75.6857C240.531 75.4471 240.812 75.1552 241.042 74.81C241.276 74.4606 241.44 74.06 241.534 73.6083H243.119C243 74.2773 242.783 74.8761 242.467 75.4045C242.152 75.9329 241.76 76.3825 241.291 76.7532C240.822 77.1197 240.296 77.3988 239.712 77.5906C239.133 77.7823 238.513 77.8782 237.852 77.8782C236.736 77.8782 235.743 77.6055 234.874 77.06C234.004 76.5146 233.32 75.739 232.822 74.7333C232.323 73.7276 232.074 72.5344 232.074 71.1538C232.074 69.7731 232.323 68.5799 232.822 67.5742C233.32 66.5685 234.004 65.793 234.874 65.2475C235.743 64.7021 236.736 64.4293 237.852 64.4293C238.513 64.4293 239.133 64.5252 239.712 64.717C240.296 64.9087 240.822 65.19 241.291 65.5607C241.76 65.9272 242.152 66.3746 242.467 66.9031C242.783 67.4272 243 68.0259 243.119 68.6992ZM251.664 73.685V67.881H253.172V77.6992H251.664V76.0373H251.562C251.331 76.5359 250.974 76.9599 250.488 77.3093C250.002 77.6545 249.388 77.8271 248.647 77.8271C248.033 77.8271 247.488 77.6928 247.01 77.4244C246.533 77.1516 246.158 76.7425 245.885 76.1971C245.613 75.6474 245.476 74.9549 245.476 74.1197V67.881H246.985V74.0174C246.985 74.7333 247.185 75.3043 247.586 75.7305C247.991 76.1566 248.506 76.3697 249.133 76.3697C249.508 76.3697 249.889 76.2738 250.277 76.082C250.669 75.8903 250.997 75.5962 251.261 75.1999C251.53 74.8036 251.664 74.2987 251.664 73.685ZM255.935 77.6992V67.881H257.444V77.6992H255.935ZM256.702 66.2447C256.408 66.2447 256.155 66.1445 255.942 65.9442C255.733 65.744 255.629 65.5032 255.629 65.2219C255.629 64.9407 255.733 64.6999 255.942 64.4996C256.155 64.2994 256.408 64.1992 256.702 64.1992C256.996 64.1992 257.248 64.2994 257.457 64.4996C257.67 64.6999 257.776 64.9407 257.776 65.2219C257.776 65.5032 257.67 65.744 257.457 65.9442C257.248 66.1445 256.996 66.2447 256.702 66.2447ZM267.161 70.0799L265.806 70.4634C265.721 70.2376 265.595 70.0181 265.429 69.805C265.267 69.5877 265.046 69.4087 264.764 69.2681C264.483 69.1275 264.123 69.0572 263.684 69.0572C263.083 69.0572 262.583 69.1957 262.182 69.4727C261.786 69.7454 261.588 70.0927 261.588 70.5146C261.588 70.8896 261.724 71.1857 261.997 71.4031C262.269 71.6204 262.695 71.8015 263.275 71.9464L264.732 72.3043C265.61 72.5174 266.264 72.8434 266.695 73.2823C267.125 73.717 267.34 74.2773 267.34 74.9634C267.34 75.5259 267.178 76.0288 266.855 76.4719C266.535 76.9151 266.088 77.2646 265.512 77.5202C264.937 77.7759 264.268 77.9038 263.505 77.9038C262.504 77.9038 261.675 77.6864 261.019 77.2518C260.362 76.8171 259.947 76.1822 259.772 75.3469L261.204 74.989C261.34 75.5174 261.598 75.9137 261.977 76.1779C262.361 76.4421 262.862 76.5742 263.48 76.5742C264.183 76.5742 264.741 76.4251 265.154 76.1268C265.572 75.8242 265.781 75.462 265.781 75.0401C265.781 74.6992 265.661 74.4137 265.423 74.1836C265.184 73.9492 264.818 73.7745 264.323 73.6594L262.687 73.2759C261.788 73.0629 261.127 72.7326 260.705 72.2852C260.288 71.8335 260.079 71.2688 260.079 70.5913C260.079 70.0373 260.235 69.5472 260.546 69.1211C260.861 68.695 261.289 68.3604 261.83 68.1175C262.376 67.8746 262.994 67.7532 263.684 67.7532C264.656 67.7532 265.419 67.9663 265.972 68.3924C266.531 68.8185 266.927 69.381 267.161 70.0799ZM269.611 77.6992V67.881H271.12V77.6992H269.611ZM270.378 66.2447C270.084 66.2447 269.831 66.1445 269.618 65.9442C269.409 65.744 269.304 65.5032 269.304 65.2219C269.304 64.9407 269.409 64.6999 269.618 64.4996C269.831 64.2994 270.084 64.1992 270.378 64.1992C270.672 64.1992 270.924 64.2994 271.132 64.4996C271.346 64.6999 271.452 64.9407 271.452 65.2219C271.452 65.5032 271.346 65.744 271.132 65.9442C270.924 66.1445 270.672 66.2447 270.378 66.2447ZM275.391 71.793V77.6992H273.883V67.881H275.34V69.4151H275.468C275.698 68.9165 276.047 68.516 276.516 68.2134C276.985 67.9066 277.59 67.7532 278.331 67.7532C278.996 67.7532 279.578 67.8896 280.077 68.1623C280.575 68.4308 280.963 68.8398 281.24 69.3896C281.517 69.935 281.655 70.6254 281.655 71.4606V77.6992H280.147V71.5629C280.147 70.7915 279.947 70.1907 279.546 69.7603C279.145 69.3256 278.596 69.1083 277.897 69.1083C277.415 69.1083 276.985 69.2127 276.606 69.4215C276.231 69.6303 275.934 69.935 275.717 70.3356C275.5 70.7362 275.391 71.2219 275.391 71.793ZM284.412 77.6992V67.881H285.92V77.6992H284.412ZM285.179 66.2447C284.885 66.2447 284.631 66.1445 284.418 65.9442C284.21 65.744 284.105 65.5032 284.105 65.2219C284.105 64.9407 284.21 64.6999 284.418 64.4996C284.631 64.2994 284.885 64.1992 285.179 64.1992C285.473 64.1992 285.724 64.2994 285.933 64.4996C286.146 64.6999 286.253 64.9407 286.253 65.2219C286.253 65.5032 286.146 65.744 285.933 65.9442C285.724 66.1445 285.473 66.2447 285.179 66.2447ZM292.8 77.9038C291.854 77.9038 291.038 77.695 290.352 77.2773C289.67 76.8555 289.144 76.2674 288.773 75.5131C288.406 74.7546 288.223 73.8725 288.223 72.8668C288.223 71.8612 288.406 70.9748 288.773 70.2077C289.144 69.4364 289.659 68.8356 290.32 68.4052C290.985 67.9705 291.76 67.7532 292.646 67.7532C293.158 67.7532 293.663 67.8384 294.161 68.0089C294.66 68.1793 295.114 68.4563 295.523 68.8398C295.932 69.2191 296.258 69.7219 296.501 70.3484C296.744 70.9748 296.865 71.7461 296.865 72.6623V73.3015H289.297V71.9975H295.331C295.331 71.4435 295.22 70.9492 294.999 70.5146C294.781 70.0799 294.47 69.7369 294.066 69.4854C293.665 69.234 293.192 69.1083 292.646 69.1083C292.046 69.1083 291.526 69.2575 291.087 69.5558C290.652 69.8498 290.318 70.2333 290.083 70.7063C289.849 71.1793 289.732 71.6864 289.732 72.2276V73.0969C289.732 73.8384 289.86 74.467 290.115 74.9826C290.375 75.494 290.735 75.8839 291.195 76.1523C291.656 76.4165 292.191 76.5487 292.8 76.5487C293.196 76.5487 293.554 76.4933 293.874 76.3825C294.198 76.2674 294.477 76.0969 294.711 75.8711C294.945 75.641 295.127 75.3555 295.254 75.0146L296.712 75.4237C296.558 75.918 296.301 76.3526 295.938 76.7276C295.576 77.0984 295.129 77.3881 294.596 77.5969C294.063 77.8015 293.465 77.9038 292.8 77.9038ZM299.16 77.6992V67.881H300.617V69.364H300.72C300.899 68.8782 301.222 68.484 301.691 68.1815C302.16 67.8789 302.688 67.7276 303.276 67.7276C303.387 67.7276 303.526 67.7298 303.692 67.734C303.858 67.7383 303.984 67.7447 304.069 67.7532V69.2873C304.018 69.2745 303.901 69.2553 303.718 69.2298C303.539 69.1999 303.349 69.185 303.149 69.185C302.671 69.185 302.245 69.2852 301.87 69.4854C301.499 69.6815 301.205 69.9542 300.988 70.3036C300.775 70.6488 300.669 71.043 300.669 71.4862V77.6992H299.16Z" fill="black"/>
<path d="M377.619 68.6992H376.034C375.94 68.2433 375.776 67.8427 375.542 67.4975C375.312 67.1523 375.031 66.8626 374.698 66.6282C374.37 66.3896 374.006 66.2106 373.605 66.0913C373.205 65.9719 372.787 65.9123 372.352 65.9123C371.56 65.9123 370.842 66.1126 370.198 66.5131C369.559 66.9137 369.05 67.5039 368.67 68.2837C368.295 69.0636 368.108 70.0202 368.108 71.1538C368.108 72.2873 368.295 73.244 368.67 74.0238C369.05 74.8036 369.559 75.3938 370.198 75.7944C370.842 76.195 371.56 76.3952 372.352 76.3952C372.787 76.3952 373.205 76.3356 373.605 76.2163C374.006 76.0969 374.37 75.9201 374.698 75.6857C375.031 75.4471 375.312 75.1552 375.542 74.81C375.776 74.4606 375.94 74.06 376.034 73.6083H377.619C377.5 74.2773 377.283 74.8761 376.967 75.4045C376.652 75.9329 376.26 76.3825 375.791 76.7532C375.322 77.1197 374.796 77.3988 374.212 77.5906C373.633 77.7823 373.013 77.8782 372.352 77.8782C371.236 77.8782 370.243 77.6055 369.374 77.06C368.504 76.5146 367.82 75.739 367.322 74.7333C366.823 73.7276 366.574 72.5344 366.574 71.1538C366.574 69.7731 366.823 68.5799 367.322 67.5742C367.82 66.5685 368.504 65.793 369.374 65.2475C370.243 64.7021 371.236 64.4293 372.352 64.4293C373.013 64.4293 373.633 64.5252 374.212 64.717C374.796 64.9087 375.322 65.19 375.791 65.5607C376.26 65.9272 376.652 66.3746 376.967 66.9031C377.283 67.4272 377.5 68.0259 377.619 68.6992ZM381.485 64.6083V77.6992H379.976V64.6083H381.485ZM384.248 77.6992V67.881H385.756V77.6992H384.248ZM385.015 66.2447C384.721 66.2447 384.467 66.1445 384.254 65.9442C384.045 65.744 383.941 65.5032 383.941 65.2219C383.941 64.9407 384.045 64.6999 384.254 64.4996C384.467 64.2994 384.721 64.1992 385.015 64.1992C385.309 64.1992 385.56 64.2994 385.769 64.4996C385.982 64.6999 386.089 64.9407 386.089 65.2219C386.089 65.5032 385.982 65.744 385.769 65.9442C385.56 66.1445 385.309 66.2447 385.015 66.2447ZM392.636 77.9038C391.69 77.9038 390.874 77.695 390.188 77.2773C389.506 76.8555 388.98 76.2674 388.609 75.5131C388.242 74.7546 388.059 73.8725 388.059 72.8668C388.059 71.8612 388.242 70.9748 388.609 70.2077C388.98 69.4364 389.495 68.8356 390.156 68.4052C390.82 67.9705 391.596 67.7532 392.482 67.7532C392.994 67.7532 393.499 67.8384 393.997 68.0089C394.496 68.1793 394.95 68.4563 395.359 68.8398C395.768 69.2191 396.094 69.7219 396.337 70.3484C396.58 70.9748 396.701 71.7461 396.701 72.6623V73.3015H389.133V71.9975H395.167C395.167 71.4435 395.056 70.9492 394.835 70.5146C394.617 70.0799 394.306 69.7369 393.901 69.4854C393.501 69.234 393.028 69.1083 392.482 69.1083C391.882 69.1083 391.362 69.2575 390.923 69.5558C390.488 69.8498 390.154 70.2333 389.919 70.7063C389.685 71.1793 389.568 71.6864 389.568 72.2276V73.0969C389.568 73.8384 389.695 74.467 389.951 74.9826C390.211 75.494 390.571 75.8839 391.031 76.1523C391.492 76.4165 392.026 76.5487 392.636 76.5487C393.032 76.5487 393.39 76.4933 393.71 76.3825C394.034 76.2674 394.313 76.0969 394.547 75.8711C394.781 75.641 394.963 75.3555 395.09 75.0146L396.548 75.4237C396.394 75.918 396.137 76.3526 395.774 76.7276C395.412 77.0984 394.965 77.3881 394.432 77.5969C393.899 77.8015 393.301 77.9038 392.636 77.9038ZM400.504 71.793V77.6992H398.996V67.881H400.453V69.4151H400.581C400.811 68.9165 401.161 68.516 401.629 68.2134C402.098 67.9066 402.703 67.7532 403.445 67.7532C404.11 67.7532 404.691 67.8896 405.19 68.1623C405.688 68.4308 406.076 68.8398 406.353 69.3896C406.63 69.935 406.769 70.6254 406.769 71.4606V77.6992H405.26V71.5629C405.26 70.7915 405.06 70.1907 404.659 69.7603C404.259 69.3256 403.709 69.1083 403.01 69.1083C402.529 69.1083 402.098 69.2127 401.719 69.4215C401.344 69.6303 401.048 69.935 400.83 70.3356C400.613 70.7362 400.504 71.2219 400.504 71.793ZM413.795 67.881V69.1594H408.707V67.881H413.795ZM410.19 65.5288H411.699V74.8867C411.699 75.3129 411.76 75.6325 411.884 75.8455C412.012 76.0543 412.174 76.195 412.37 76.2674C412.57 76.3356 412.781 76.3697 413.002 76.3697C413.169 76.3697 413.305 76.3612 413.412 76.3441C413.518 76.3228 413.603 76.3058 413.667 76.293L413.974 77.6481C413.872 77.6864 413.729 77.7248 413.546 77.7631C413.363 77.8058 413.13 77.8271 412.849 77.8271C412.423 77.8271 412.005 77.7354 411.596 77.5522C411.191 77.369 410.855 77.0898 410.586 76.7148C410.322 76.3398 410.19 75.8668 410.19 75.2958V65.5288Z" fill="black"/>
<rect x="0.5" y="0.5" width="497" height="385" rx="24.5" stroke="black"/>
<path d="M37.1637 30.8555H35.1417C35.1048 30.5939 35.0294 30.3615 34.9155 30.1584C34.8016 29.9522 34.6554 29.7768 34.4769 29.6321C34.2984 29.4875 34.0922 29.3767 33.8583 29.2997C33.6275 29.2228 33.3767 29.1843 33.1058 29.1843C32.6165 29.1843 32.1902 29.3059 31.8271 29.549C31.4639 29.7891 31.1823 30.1399 30.9822 30.6016C30.7822 31.0601 30.6822 31.6172 30.6822 32.2727C30.6822 32.9467 30.7822 33.513 30.9822 33.9716C31.1854 34.4302 31.4685 34.7764 31.8317 35.0103C32.1948 35.2442 32.6149 35.3612 33.092 35.3612C33.3597 35.3612 33.6075 35.3258 33.8352 35.255C34.0661 35.1842 34.2707 35.0811 34.4492 34.9457C34.6277 34.8072 34.7755 34.6394 34.8924 34.4425C35.0124 34.2455 35.0955 34.0208 35.1417 33.7685L37.1637 33.7777C37.1114 34.2116 36.9806 34.6302 36.7713 35.0334C36.5651 35.4335 36.2866 35.792 35.9357 36.109C35.5879 36.4229 35.1725 36.6722 34.6893 36.8569C34.2092 37.0385 33.666 37.1293 33.0597 37.1293C32.2164 37.1293 31.4624 36.9384 30.7976 36.5568C30.1359 36.1752 29.6127 35.6228 29.228 34.8995C28.8464 34.1763 28.6555 33.3007 28.6555 32.2727C28.6555 31.2417 28.8494 30.3646 29.2372 29.6413C29.625 28.9181 30.1513 28.3672 30.8161 27.9886C31.4808 27.607 32.2287 27.4162 33.0597 27.4162C33.6075 27.4162 34.1153 27.4931 34.5831 27.647C35.054 27.8009 35.471 28.0256 35.8342 28.321C36.1973 28.6134 36.4928 28.9719 36.7205 29.3967C36.9513 29.8214 37.0991 30.3076 37.1637 30.8555ZM41.764 37.1385C41.0469 37.1385 40.4268 36.9862 39.9036 36.6815C39.3835 36.3737 38.9818 35.9459 38.6987 35.3981C38.4155 34.8472 38.274 34.2086 38.274 33.4822C38.274 32.7498 38.4155 32.1096 38.6987 31.5618C38.9818 31.0109 39.3835 30.5831 39.9036 30.2784C40.4268 29.9706 41.0469 29.8168 41.764 29.8168C42.4811 29.8168 43.0997 29.9706 43.6199 30.2784C44.1431 30.5831 44.5462 31.0109 44.8294 31.5618C45.1125 32.1096 45.2541 32.7498 45.2541 33.4822C45.2541 34.2086 45.1125 34.8472 44.8294 35.3981C44.5462 35.9459 44.1431 36.3737 43.6199 36.6815C43.0997 36.9862 42.4811 37.1385 41.764 37.1385ZM41.7733 35.6151C42.0995 35.6151 42.3719 35.5227 42.5904 35.3381C42.8089 35.1503 42.9735 34.8949 43.0843 34.5717C43.1982 34.2486 43.2551 33.8808 43.2551 33.4684C43.2551 33.056 43.1982 32.6882 43.0843 32.3651C42.9735 32.0419 42.8089 31.7865 42.5904 31.5987C42.3719 31.411 42.0995 31.3171 41.7733 31.3171C41.444 31.3171 41.167 31.411 40.9423 31.5987C40.7207 31.7865 40.553 32.0419 40.4391 32.3651C40.3283 32.6882 40.2729 33.056 40.2729 33.4684C40.2729 33.8808 40.3283 34.2486 40.4391 34.5717C40.553 34.8949 40.7207 35.1503 40.9423 35.3381C41.167 35.5227 41.444 35.6151 41.7733 35.6151ZM46.5328 37V29.9091H48.4071V31.1602H48.4902C48.638 30.7447 48.8842 30.4169 49.2289 30.1768C49.5736 29.9368 49.986 29.8168 50.4661 29.8168C50.9524 29.8168 51.3663 29.9383 51.7079 30.1815C52.0495 30.4215 52.2773 30.7478 52.3912 31.1602H52.465C52.6097 30.7539 52.8713 30.4292 53.2498 30.1861C53.6315 29.9399 54.0823 29.8168 54.6025 29.8168C55.2641 29.8168 55.8012 30.0276 56.2136 30.4492C56.6291 30.8678 56.8368 31.4618 56.8368 32.2312V37H54.8748V32.619C54.8748 32.225 54.7702 31.9296 54.5609 31.7326C54.3516 31.5356 54.09 31.4371 53.7761 31.4371C53.4191 31.4371 53.1406 31.551 52.9405 31.7788C52.7405 32.0034 52.6404 32.3004 52.6404 32.6697V37H50.7338V32.5774C50.7338 32.2296 50.6338 31.9527 50.4338 31.7464C50.2368 31.5402 49.9767 31.4371 49.6536 31.4371C49.4351 31.4371 49.2381 31.4925 49.0627 31.6033C48.8903 31.7111 48.7534 31.8634 48.6518 32.0604C48.5502 32.2543 48.4995 32.482 48.4995 32.7436V37H46.5328ZM58.3903 37V29.9091H60.2646V31.1602H60.3477C60.4954 30.7447 60.7416 30.4169 61.0863 30.1768C61.431 29.9368 61.8434 29.8168 62.3235 29.8168C62.8098 29.8168 63.2237 29.9383 63.5653 30.1815C63.907 30.4215 64.1347 30.7478 64.2486 31.1602H64.3224C64.4671 30.7539 64.7287 30.4292 65.1072 30.1861C65.4889 29.9399 65.9397 29.8168 66.4599 29.8168C67.1216 29.8168 67.6586 30.0276 68.071 30.4492C68.4865 30.8678 68.6942 31.4618 68.6942 32.2312V37H66.7322V32.619C66.7322 32.225 66.6276 31.9296 66.4183 31.7326C66.209 31.5356 65.9474 31.4371 65.6335 31.4371C65.2765 31.4371 64.998 31.551 64.7979 31.7788C64.5979 32.0034 64.4979 32.3004 64.4979 32.6697V37H62.5913V32.5774C62.5913 32.2296 62.4912 31.9527 62.2912 31.7464C62.0942 31.5402 61.8342 31.4371 61.511 31.4371C61.2925 31.4371 61.0955 31.4925 60.9201 31.6033C60.7478 31.7111 60.6108 31.8634 60.5092 32.0604C60.4077 32.2543 60.3569 32.482 60.3569 32.7436V37H58.3903ZM72.2697 37.1339C71.8173 37.1339 71.4141 37.0554 71.0602 36.8984C70.7063 36.7384 70.4262 36.503 70.22 36.1921C70.0169 35.8782 69.9153 35.4873 69.9153 35.0195C69.9153 34.6256 69.9876 34.2947 70.1323 34.027C70.2769 33.7592 70.4739 33.5438 70.7232 33.3807C70.9725 33.2176 71.2556 33.0945 71.5726 33.0114C71.8927 32.9283 72.2282 32.8698 72.579 32.8359C72.9914 32.7929 73.3238 32.7528 73.5762 32.7159C73.8285 32.6759 74.0117 32.6174 74.1255 32.5405C74.2394 32.4635 74.2963 32.3497 74.2963 32.1989V32.1712C74.2963 31.8788 74.204 31.6526 74.0194 31.4925C73.8378 31.3325 73.5792 31.2525 73.2438 31.2525C72.8899 31.2525 72.6083 31.331 72.399 31.4879C72.1897 31.6418 72.0512 31.8357 71.9835 32.0696L70.1646 31.9219C70.2569 31.491 70.4385 31.1186 70.7093 30.8047C70.9802 30.4877 71.3295 30.2446 71.7573 30.0753C72.1882 29.9029 72.6867 29.8168 73.253 29.8168C73.647 29.8168 74.024 29.8629 74.3841 29.9553C74.7472 30.0476 75.0688 30.1907 75.3489 30.3846C75.632 30.5785 75.8552 30.8278 76.0183 31.1325C76.1814 31.4341 76.263 31.7957 76.263 32.2173V37H74.3979V36.0167H74.3425C74.2286 36.2383 74.0763 36.4337 73.8855 36.603C73.6947 36.7692 73.4654 36.9 73.1976 36.9954C72.9299 37.0877 72.6206 37.1339 72.2697 37.1339ZM72.8329 35.7766C73.1222 35.7766 73.3777 35.7197 73.5993 35.6058C73.8208 35.4889 73.9947 35.3319 74.1209 35.1349C74.2471 34.938 74.3102 34.7148 74.3102 34.4656V33.7131C74.2486 33.7531 74.164 33.79 74.0563 33.8239C73.9516 33.8546 73.8332 33.8839 73.7008 33.9116C73.5685 33.9362 73.4361 33.9593 73.3038 33.9808C73.1715 33.9993 73.0514 34.0162 72.9437 34.0316C72.7129 34.0655 72.5113 34.1193 72.339 34.1932C72.1666 34.267 72.0327 34.3671 71.9373 34.4933C71.8419 34.6164 71.7942 34.7702 71.7942 34.9549C71.7942 35.2227 71.8912 35.4273 72.085 35.5689C72.282 35.7074 72.5313 35.7766 72.8329 35.7766ZM79.7553 32.9006V37H77.7887V29.9091H79.663V31.1602H79.7461C79.9031 30.7478 80.1662 30.4215 80.5355 30.1815C80.9048 29.9383 81.3526 29.8168 81.8789 29.8168C82.3713 29.8168 82.8007 29.9245 83.1669 30.1399C83.5331 30.3554 83.8178 30.6631 84.021 31.0632C84.2241 31.4602 84.3256 31.9342 84.3256 32.4851V37H82.359V32.8359C82.3621 32.402 82.2513 32.0634 82.0266 31.8203C81.802 31.5741 81.4927 31.451 81.0987 31.451C80.834 31.451 80.6001 31.5079 80.397 31.6218C80.197 31.7357 80.04 31.9019 79.9261 32.1204C79.8153 32.3358 79.7584 32.5959 79.7553 32.9006ZM88.4885 37.1154C87.95 37.1154 87.4622 36.9769 87.0251 36.6999C86.5912 36.4199 86.2465 36.009 85.991 35.4673C85.7387 34.9226 85.6125 34.2547 85.6125 33.4638C85.6125 32.6513 85.7433 31.9757 86.0049 31.4371C86.2665 30.8955 86.6143 30.4908 87.0482 30.223C87.4852 29.9522 87.9638 29.8168 88.4839 29.8168C88.8809 29.8168 89.2118 29.8845 89.4765 30.0199C89.7442 30.1522 89.9597 30.3184 90.1228 30.5185C90.289 30.7154 90.4152 30.9093 90.5013 31.1001H90.5613V27.5455H92.5233V37H90.5844V35.8643H90.5013C90.409 36.0613 90.2782 36.2567 90.1089 36.4506C89.9427 36.6415 89.7258 36.8 89.458 36.9261C89.1933 37.0523 88.8702 37.1154 88.4885 37.1154ZM89.1118 35.5504C89.4288 35.5504 89.6965 35.4643 89.915 35.2919C90.1366 35.1165 90.3059 34.8718 90.4229 34.5579C90.5429 34.244 90.6029 33.8762 90.6029 33.4545C90.6029 33.0329 90.5444 32.6667 90.4275 32.3558C90.3105 32.045 90.1412 31.8049 89.9197 31.6357C89.6981 31.4664 89.4288 31.3817 89.1118 31.3817C88.7886 31.3817 88.5162 31.4695 88.2947 31.6449C88.0731 31.8203 87.9053 32.0634 87.7915 32.3743C87.6776 32.6851 87.6206 33.0452 87.6206 33.4545C87.6206 33.867 87.6776 34.2317 87.7915 34.5487C87.9084 34.8626 88.0761 35.1088 88.2947 35.2873C88.5162 35.4627 88.7886 35.5504 89.1118 35.5504ZM97.3718 37.1385C96.6424 37.1385 96.0146 36.9908 95.4883 36.6953C94.9651 36.3968 94.5619 35.9751 94.2788 35.4304C93.9956 34.8826 93.854 34.2347 93.854 33.4869C93.854 32.7575 93.9956 32.1173 94.2788 31.5664C94.5619 31.0155 94.9605 30.5862 95.4744 30.2784C95.9915 29.9706 96.5978 29.8168 97.2933 29.8168C97.7611 29.8168 98.1966 29.8922 98.5998 30.043C99.006 30.1907 99.36 30.4138 99.6616 30.7124C99.9663 31.0109 100.203 31.3864 100.373 31.8388C100.542 32.2881 100.626 32.8144 100.626 33.4176V33.9577H94.6388V32.739H98.7752C98.7752 32.4558 98.7137 32.205 98.5906 31.9865C98.4674 31.768 98.2966 31.5972 98.0781 31.4741C97.8627 31.3479 97.6119 31.2848 97.3256 31.2848C97.0271 31.2848 96.7624 31.354 96.5316 31.4925C96.3039 31.628 96.1254 31.8111 95.9961 32.0419C95.8668 32.2696 95.8007 32.5236 95.7976 32.8036V33.9624C95.7976 34.3132 95.8622 34.6164 95.9915 34.8718C96.1238 35.1272 96.31 35.3242 96.5501 35.4627C96.7901 35.6012 97.0748 35.6705 97.4041 35.6705C97.6226 35.6705 97.8227 35.6397 98.0043 35.5781C98.1858 35.5166 98.3413 35.4242 98.4705 35.3011C98.5998 35.178 98.6983 35.0272 98.766 34.8487L100.585 34.9688C100.493 35.4058 100.303 35.7874 100.017 36.1136C99.7339 36.4368 99.3677 36.6892 98.9183 36.8707C98.4721 37.0492 97.9566 37.1385 97.3718 37.1385ZM101.91 37V29.9091H103.816V31.1463H103.89C104.02 30.7062 104.237 30.3738 104.541 30.1491C104.846 29.9214 105.197 29.8075 105.594 29.8075C105.692 29.8075 105.798 29.8137 105.912 29.826C106.026 29.8383 106.126 29.8552 106.212 29.8768V31.6218C106.12 31.5941 105.992 31.5695 105.829 31.5479C105.666 31.5264 105.517 31.5156 105.381 31.5156C105.092 31.5156 104.834 31.5787 104.606 31.7049C104.381 31.828 104.203 32.0004 104.07 32.2219C103.941 32.4435 103.876 32.699 103.876 32.9883V37H101.91ZM112.26 37.1339C111.808 37.1339 111.404 37.0554 111.05 36.8984C110.696 36.7384 110.416 36.503 110.21 36.1921C110.007 35.8782 109.906 35.4873 109.906 35.0195C109.906 34.6256 109.978 34.2947 110.123 34.027C110.267 33.7592 110.464 33.5438 110.713 33.3807C110.963 33.2176 111.246 33.0945 111.563 33.0114C111.883 32.9283 112.218 32.8698 112.569 32.8359C112.982 32.7929 113.314 32.7528 113.566 32.7159C113.819 32.6759 114.002 32.6174 114.116 32.5405C114.23 32.4635 114.287 32.3497 114.287 32.1989V32.1712C114.287 31.8788 114.194 31.6526 114.01 31.4925C113.828 31.3325 113.569 31.2525 113.234 31.2525C112.88 31.2525 112.598 31.331 112.389 31.4879C112.18 31.6418 112.041 31.8357 111.974 32.0696L110.155 31.9219C110.247 31.491 110.429 31.1186 110.7 30.8047C110.97 30.4877 111.32 30.2446 111.748 30.0753C112.178 29.9029 112.677 29.8168 113.243 29.8168C113.637 29.8168 114.014 29.8629 114.374 29.9553C114.737 30.0476 115.059 30.1907 115.339 30.3846C115.622 30.5785 115.845 30.8278 116.009 31.1325C116.172 31.4341 116.253 31.7957 116.253 32.2173V37H114.388V36.0167H114.333C114.219 36.2383 114.067 36.4337 113.876 36.603C113.685 36.7692 113.456 36.9 113.188 36.9954C112.92 37.0877 112.611 37.1339 112.26 37.1339ZM112.823 35.7766C113.112 35.7766 113.368 35.7197 113.589 35.6058C113.811 35.4889 113.985 35.3319 114.111 35.1349C114.237 34.938 114.3 34.7148 114.3 34.4656V33.7131C114.239 33.7531 114.154 33.79 114.047 33.8239C113.942 33.8546 113.823 33.8839 113.691 33.9116C113.559 33.9362 113.426 33.9593 113.294 33.9808C113.162 33.9993 113.042 34.0162 112.934 34.0316C112.703 34.0655 112.502 34.1193 112.329 34.1932C112.157 34.267 112.023 34.3671 111.928 34.4933C111.832 34.6164 111.784 34.7702 111.784 34.9549C111.784 35.2227 111.881 35.4273 112.075 35.5689C112.272 35.7074 112.522 35.7766 112.823 35.7766ZM122.326 33.9808V29.9091H124.293V37H122.405V35.712H122.331C122.171 36.1275 121.905 36.4614 121.532 36.7138C121.163 36.9661 120.712 37.0923 120.18 37.0923C119.706 37.0923 119.289 36.9846 118.928 36.7692C118.568 36.5537 118.287 36.2475 118.084 35.8505C117.884 35.4535 117.782 34.978 117.779 34.424V29.9091H119.746V34.0732C119.749 34.4917 119.861 34.8226 120.083 35.0657C120.304 35.3088 120.601 35.4304 120.974 35.4304C121.211 35.4304 121.432 35.3765 121.638 35.2688C121.845 35.158 122.011 34.9949 122.137 34.7795C122.266 34.564 122.329 34.2978 122.326 33.9808ZM128.875 37V29.9091H130.781V31.1463H130.855C130.984 30.7062 131.201 30.3738 131.506 30.1491C131.811 29.9214 132.162 29.8075 132.559 29.8075C132.657 29.8075 132.763 29.8137 132.877 29.826C132.991 29.8383 133.091 29.8552 133.177 29.8768V31.6218C133.085 31.5941 132.957 31.5695 132.794 31.5479C132.631 31.5264 132.482 31.5156 132.346 31.5156C132.057 31.5156 131.798 31.5787 131.571 31.7049C131.346 31.828 131.167 32.0004 131.035 32.2219C130.906 32.4435 130.841 32.699 130.841 32.9883V37H128.875ZM137.095 37.1385C136.366 37.1385 135.738 36.9908 135.212 36.6953C134.689 36.3968 134.286 35.9751 134.002 35.4304C133.719 34.8826 133.578 34.2347 133.578 33.4869C133.578 32.7575 133.719 32.1173 134.002 31.5664C134.286 31.0155 134.684 30.5862 135.198 30.2784C135.715 29.9706 136.321 29.8168 137.017 29.8168C137.485 29.8168 137.92 29.8922 138.323 30.043C138.73 30.1907 139.084 30.4138 139.385 30.7124C139.69 31.0109 139.927 31.3864 140.096 31.8388C140.265 32.2881 140.35 32.8144 140.35 33.4176V33.9577H134.362V32.739H138.499C138.499 32.4558 138.437 32.205 138.314 31.9865C138.191 31.768 138.02 31.5972 137.802 31.4741C137.586 31.3479 137.335 31.2848 137.049 31.2848C136.751 31.2848 136.486 31.354 136.255 31.4925C136.027 31.628 135.849 31.8111 135.72 32.0419C135.59 32.2696 135.524 32.5236 135.521 32.8036V33.9624C135.521 34.3132 135.586 34.6164 135.715 34.8718C135.847 35.1272 136.034 35.3242 136.274 35.4627C136.514 35.6012 136.798 35.6705 137.128 35.6705C137.346 35.6705 137.546 35.6397 137.728 35.5781C137.909 35.5166 138.065 35.4242 138.194 35.3011C138.323 35.178 138.422 35.0272 138.49 34.8487L140.309 34.9688C140.216 35.4058 140.027 35.7874 139.741 36.1136C139.458 36.4368 139.091 36.6892 138.642 36.8707C138.196 37.0492 137.68 37.1385 137.095 37.1385ZM147.533 31.9311L145.733 32.0419C145.702 31.888 145.636 31.7495 145.534 31.6264C145.433 31.5002 145.299 31.4002 145.133 31.3263C144.97 31.2494 144.774 31.2109 144.546 31.2109C144.242 31.2109 143.985 31.2756 143.775 31.4048C143.566 31.531 143.462 31.7003 143.462 31.9126C143.462 32.0819 143.529 32.225 143.665 32.342C143.8 32.4589 144.032 32.5528 144.362 32.6236L145.645 32.8821C146.335 33.0237 146.849 33.2514 147.187 33.5653C147.526 33.8793 147.695 34.2917 147.695 34.8026C147.695 35.2673 147.558 35.6751 147.284 36.0259C147.013 36.3768 146.641 36.6507 146.167 36.8477C145.696 37.0415 145.153 37.1385 144.537 37.1385C143.599 37.1385 142.851 36.9431 142.294 36.5522C141.74 36.1583 141.415 35.6228 141.32 34.9457L143.254 34.8441C143.312 35.1303 143.454 35.3488 143.679 35.4996C143.903 35.6474 144.191 35.7212 144.542 35.7212C144.887 35.7212 145.164 35.6551 145.373 35.5227C145.585 35.3873 145.693 35.2134 145.696 35.0011C145.693 34.8226 145.617 34.6764 145.47 34.5625C145.322 34.4455 145.094 34.3563 144.786 34.2947L143.559 34.0501C142.866 33.9116 142.351 33.6715 142.012 33.3299C141.677 32.9883 141.509 32.5528 141.509 32.0234C141.509 31.5679 141.632 31.1755 141.878 30.8462C142.127 30.5169 142.477 30.263 142.926 30.0845C143.378 29.906 143.908 29.8168 144.514 29.8168C145.41 29.8168 146.114 30.006 146.628 30.3846C147.146 30.7631 147.447 31.2786 147.533 31.9311ZM152.705 29.9091V31.3864H148.435V29.9091H152.705ZM149.404 28.2102H151.371V34.821C151.371 35.0026 151.398 35.1442 151.454 35.2457C151.509 35.3442 151.586 35.4135 151.685 35.4535C151.786 35.4935 151.903 35.5135 152.036 35.5135C152.128 35.5135 152.22 35.5058 152.312 35.4904C152.405 35.4719 152.476 35.4581 152.525 35.4489L152.834 36.9123C152.736 36.9431 152.597 36.9785 152.419 37.0185C152.24 37.0616 152.023 37.0877 151.768 37.0969C151.294 37.1154 150.878 37.0523 150.521 36.9077C150.167 36.763 149.892 36.5384 149.695 36.2337C149.498 35.929 149.401 35.5443 149.404 35.0795V28.2102ZM156.008 37.1339C155.556 37.1339 155.152 37.0554 154.798 36.8984C154.445 36.7384 154.164 36.503 153.958 36.1921C153.755 35.8782 153.654 35.4873 153.654 35.0195C153.654 34.6256 153.726 34.2947 153.871 34.027C154.015 33.7592 154.212 33.5438 154.461 33.3807C154.711 33.2176 154.994 33.0945 155.311 33.0114C155.631 32.9283 155.966 32.8698 156.317 32.8359C156.73 32.7929 157.062 32.7528 157.314 32.7159C157.567 32.6759 157.75 32.6174 157.864 32.5405C157.978 32.4635 158.035 32.3497 158.035 32.1989V32.1712C158.035 31.8788 157.942 31.6526 157.758 31.4925C157.576 31.3325 157.318 31.2525 156.982 31.2525C156.628 31.2525 156.347 31.331 156.137 31.4879C155.928 31.6418 155.789 31.8357 155.722 32.0696L153.903 31.9219C153.995 31.491 154.177 31.1186 154.448 30.8047C154.718 30.4877 155.068 30.2446 155.496 30.0753C155.926 29.9029 156.425 29.8168 156.991 29.8168C157.385 29.8168 157.762 29.8629 158.122 29.9553C158.485 30.0476 158.807 30.1907 159.087 30.3846C159.37 30.5785 159.593 30.8278 159.757 31.1325C159.92 31.4341 160.001 31.7957 160.001 32.2173V37H158.136V36.0167H158.081C157.967 36.2383 157.815 36.4337 157.624 36.603C157.433 36.7692 157.204 36.9 156.936 36.9954C156.668 37.0877 156.359 37.1339 156.008 37.1339ZM156.571 35.7766C156.86 35.7766 157.116 35.7197 157.338 35.6058C157.559 35.4889 157.733 35.3319 157.859 35.1349C157.985 34.938 158.048 34.7148 158.048 34.4656V33.7131C157.987 33.7531 157.902 33.79 157.795 33.8239C157.69 33.8546 157.571 33.8839 157.439 33.9116C157.307 33.9362 157.174 33.9593 157.042 33.9808C156.91 33.9993 156.79 34.0162 156.682 34.0316C156.451 34.0655 156.25 34.1193 156.077 34.1932C155.905 34.267 155.771 34.3671 155.676 34.4933C155.58 34.6164 155.532 34.7702 155.532 34.9549C155.532 35.2227 155.629 35.4273 155.823 35.5689C156.02 35.7074 156.27 35.7766 156.571 35.7766ZM166.074 33.9808V29.9091H168.041V37H166.153V35.712H166.079C165.919 36.1275 165.653 36.4614 165.28 36.7138C164.911 36.9661 164.46 37.0923 163.928 37.0923C163.454 37.0923 163.037 36.9846 162.676 36.7692C162.316 36.5537 162.035 36.2475 161.832 35.8505C161.632 35.4535 161.53 34.978 161.527 34.424V29.9091H163.494V34.0732C163.497 34.4917 163.609 34.8226 163.831 35.0657C164.052 35.3088 164.349 35.4304 164.722 35.4304C164.959 35.4304 165.18 35.3765 165.386 35.2688C165.593 35.158 165.759 34.9949 165.885 34.7795C166.014 34.564 166.077 34.2978 166.074 33.9808ZM169.614 37V29.9091H171.521V31.1463H171.594C171.724 30.7062 171.941 30.3738 172.245 30.1491C172.55 29.9214 172.901 29.8075 173.298 29.8075C173.396 29.8075 173.503 29.8137 173.616 29.826C173.73 29.8383 173.83 29.8552 173.916 29.8768V31.6218C173.824 31.5941 173.696 31.5695 173.533 31.5479C173.37 31.5264 173.221 31.5156 173.085 31.5156C172.796 31.5156 172.538 31.5787 172.31 31.7049C172.085 31.828 171.907 32.0004 171.774 32.2219C171.645 32.4435 171.581 32.699 171.581 32.9883V37H169.614ZM176.752 37.1339C176.3 37.1339 175.897 37.0554 175.543 36.8984C175.189 36.7384 174.909 36.503 174.702 36.1921C174.499 35.8782 174.398 35.4873 174.398 35.0195C174.398 34.6256 174.47 34.2947 174.615 34.027C174.759 33.7592 174.956 33.5438 175.206 33.3807C175.455 33.2176 175.738 33.0945 176.055 33.0114C176.375 32.9283 176.711 32.8698 177.061 32.8359C177.474 32.7929 177.806 32.7528 178.059 32.7159C178.311 32.6759 178.494 32.6174 178.608 32.5405C178.722 32.4635 178.779 32.3497 178.779 32.1989V32.1712C178.779 31.8788 178.686 31.6526 178.502 31.4925C178.32 31.3325 178.062 31.2525 177.726 31.2525C177.372 31.2525 177.091 31.331 176.881 31.4879C176.672 31.6418 176.534 31.8357 176.466 32.0696L174.647 31.9219C174.739 31.491 174.921 31.1186 175.192 30.8047C175.463 30.4877 175.812 30.2446 176.24 30.0753C176.671 29.9029 177.169 29.8168 177.735 29.8168C178.129 29.8168 178.506 29.8629 178.866 29.9553C179.23 30.0476 179.551 30.1907 179.831 30.3846C180.114 30.5785 180.338 30.8278 180.501 31.1325C180.664 31.4341 180.745 31.7957 180.745 32.2173V37H178.88V36.0167H178.825C178.711 36.2383 178.559 36.4337 178.368 36.603C178.177 36.7692 177.948 36.9 177.68 36.9954C177.412 37.0877 177.103 37.1339 176.752 37.1339ZM177.315 35.7766C177.605 35.7766 177.86 35.7197 178.082 35.6058C178.303 35.4889 178.477 35.3319 178.603 35.1349C178.73 34.938 178.793 34.7148 178.793 34.4656V33.7131C178.731 33.7531 178.646 33.79 178.539 33.8239C178.434 33.8546 178.316 33.8839 178.183 33.9116C178.051 33.9362 177.919 33.9593 177.786 33.9808C177.654 33.9993 177.534 34.0162 177.426 34.0316C177.195 34.0655 176.994 34.1193 176.821 34.1932C176.649 34.267 176.515 34.3671 176.42 34.4933C176.324 34.6164 176.277 34.7702 176.277 34.9549C176.277 35.2227 176.374 35.4273 176.567 35.5689C176.764 35.7074 177.014 35.7766 177.315 35.7766ZM184.238 32.9006V37H182.271V29.9091H184.145V31.1602H184.229C184.385 30.7478 184.649 30.4215 185.018 30.1815C185.387 29.9383 185.835 29.8168 186.361 29.8168C186.854 29.8168 187.283 29.9245 187.649 30.1399C188.016 30.3554 188.3 30.6631 188.503 31.0632C188.706 31.4602 188.808 31.9342 188.808 32.4851V37H186.841V32.8359C186.845 32.402 186.734 32.0634 186.509 31.8203C186.284 31.5741 185.975 31.451 185.581 31.451C185.316 31.451 185.083 31.5079 184.879 31.6218C184.679 31.7357 184.522 31.9019 184.409 32.1204C184.298 32.3358 184.241 32.5959 184.238 32.9006ZM194.13 29.9091V31.3864H189.859V29.9091H194.13ZM190.829 28.2102H192.796V34.821C192.796 35.0026 192.823 35.1442 192.879 35.2457C192.934 35.3442 193.011 35.4135 193.109 35.4535C193.211 35.4935 193.328 35.5135 193.46 35.5135C193.553 35.5135 193.645 35.5058 193.737 35.4904C193.83 35.4719 193.9 35.4581 193.95 35.4489L194.259 36.9123C194.16 36.9431 194.022 36.9785 193.843 37.0185C193.665 37.0616 193.448 37.0877 193.193 37.0969C192.719 37.1154 192.303 37.0523 191.946 36.9077C191.592 36.763 191.317 36.5384 191.12 36.2337C190.923 35.929 190.826 35.5443 190.829 35.0795V28.2102Z" fill="black"/>
</svg>
