<svg width="349" height="250" viewBox="0 0 349 250" fill="none" xmlns="http://www.w3.org/2000/svg">
<rect x="0.5" y="0.5" width="348" height="249" rx="24.5" stroke="black"/>
<path d="M21.5298 18.5455L23.815 25.7287H23.9027L26.1925 18.5455H28.4084L25.1491 28H22.5732L19.3093 18.5455H21.5298ZM31.9134 28.1385C31.1963 28.1385 30.5762 27.9862 30.053 27.6815C29.5329 27.3737 29.1312 26.9459 28.8481 26.3981C28.565 25.8472 28.4234 25.2086 28.4234 24.4822C28.4234 23.7498 28.565 23.1096 28.8481 22.5618C29.1312 22.0109 29.5329 21.5831 30.053 21.2784C30.5762 20.9706 31.1963 20.8168 31.9134 20.8168C32.6305 20.8168 33.2491 20.9706 33.7693 21.2784C34.2925 21.5831 34.6956 22.0109 34.9788 22.5618C35.2619 23.1096 35.4035 23.7498 35.4035 24.4822C35.4035 25.2086 35.2619 25.8472 34.9788 26.3981C34.6956 26.9459 34.2925 27.3737 33.7693 27.6815C33.2491 27.9862 32.6305 28.1385 31.9134 28.1385ZM31.9227 26.6151C32.2489 26.6151 32.5213 26.5227 32.7398 26.3381C32.9583 26.1503 33.123 25.8949 33.2338 25.5717C33.3476 25.2486 33.4046 24.8808 33.4046 24.4684C33.4046 24.056 33.3476 23.6882 33.2338 23.3651C33.123 23.0419 32.9583 22.7865 32.7398 22.5987C32.5213 22.411 32.2489 22.3171 31.9227 22.3171C31.5934 22.3171 31.3164 22.411 31.0917 22.5987C30.8701 22.7865 30.7024 23.0419 30.5885 23.3651C30.4777 23.6882 30.4223 24.056 30.4223 24.4684C30.4223 24.8808 30.4777 25.2486 30.5885 25.5717C30.7024 25.8949 30.8701 26.1503 31.0917 26.3381C31.3164 26.5227 31.5934 26.6151 31.9227 26.6151ZM37.6679 30.6591C37.4186 30.6591 37.1847 30.6391 36.9662 30.5991C36.7507 30.5621 36.5722 30.5144 36.4307 30.456L36.8738 28.9879C37.1047 29.0587 37.3124 29.0972 37.4971 29.1033C37.6848 29.1095 37.8464 29.0664 37.9818 28.9741C38.1203 28.8817 38.2326 28.7248 38.3188 28.5032L38.4342 28.2031L35.8905 20.9091H37.9587L39.4268 26.1165H39.5006L40.9825 20.9091H43.0645L40.3085 28.7663C40.1762 29.148 39.9961 29.4804 39.7684 29.7635C39.5437 30.0497 39.259 30.2698 38.9143 30.4237C38.5696 30.5806 38.1541 30.6591 37.6679 30.6591ZM45.9025 28.1339C45.4501 28.1339 45.0469 28.0554 44.693 27.8984C44.3391 27.7384 44.059 27.503 43.8528 27.1921C43.6497 26.8782 43.5481 26.4873 43.5481 26.0195C43.5481 25.6256 43.6204 25.2947 43.7651 25.027C43.9097 24.7592 44.1067 24.5438 44.356 24.3807C44.6053 24.2176 44.8884 24.0945 45.2054 24.0114C45.5255 23.9283 45.861 23.8698 46.2118 23.8359C46.6242 23.7929 46.9566 23.7528 47.209 23.7159C47.4614 23.6759 47.6445 23.6174 47.7583 23.5405C47.8722 23.4635 47.9292 23.3497 47.9292 23.1989V23.1712C47.9292 22.8788 47.8368 22.6526 47.6522 22.4925C47.4706 22.3325 47.2121 22.2525 46.8766 22.2525C46.5227 22.2525 46.2411 22.331 46.0318 22.4879C45.8225 22.6418 45.684 22.8357 45.6163 23.0696L43.7974 22.9219C43.8897 22.491 44.0713 22.1186 44.3422 21.8047C44.613 21.4877 44.9623 21.2446 45.3901 21.0753C45.821 20.9029 46.3195 20.8168 46.8858 20.8168C47.2798 20.8168 47.6568 20.8629 48.0169 20.9553C48.38 21.0476 48.7016 21.1907 48.9817 21.3846C49.2649 21.5785 49.488 21.8278 49.6511 22.1325C49.8142 22.4341 49.8958 22.7957 49.8958 23.2173V28H48.0307V27.0167H47.9753C47.8614 27.2383 47.7091 27.4337 47.5183 27.603C47.3275 27.7692 47.0982 27.9 46.8304 27.9954C46.5627 28.0877 46.2534 28.1339 45.9025 28.1339ZM46.4657 26.7766C46.755 26.7766 47.0105 26.7197 47.2321 26.6058C47.4537 26.4889 47.6275 26.3319 47.7537 26.1349C47.8799 25.938 47.943 25.7148 47.943 25.4656V24.7131C47.8815 24.7531 47.7968 24.79 47.6891 24.8239C47.5845 24.8546 47.466 24.8839 47.3336 24.9116C47.2013 24.9362 47.069 24.9593 46.9366 24.9808C46.8043 24.9993 46.6842 25.0162 46.5765 25.0316C46.3457 25.0655 46.1441 25.1193 45.9718 25.1932C45.7994 25.267 45.6655 25.3671 45.5701 25.4933C45.4747 25.6164 45.427 25.7702 45.427 25.9549C45.427 26.2227 45.524 26.4273 45.7179 26.5689C45.9148 26.7074 46.1641 26.7766 46.4657 26.7766ZM54.6161 30.8068C53.979 30.8068 53.4328 30.7191 52.9773 30.5437C52.5249 30.3713 52.1648 30.1359 51.897 29.8374C51.6293 29.5388 51.4554 29.2034 51.3754 28.831L53.1942 28.5863C53.2496 28.7279 53.3374 28.8602 53.4574 28.9833C53.5774 29.1064 53.7359 29.2049 53.9329 29.2788C54.1329 29.3557 54.3761 29.3942 54.6623 29.3942C55.0901 29.3942 55.4425 29.2895 55.7195 29.0803C55.9995 28.8741 56.1396 28.5278 56.1396 28.0415V26.7443H56.0565C55.9703 26.9413 55.841 27.1275 55.6687 27.3029C55.4963 27.4783 55.2747 27.6214 55.0039 27.7322C54.7331 27.843 54.4099 27.8984 54.0344 27.8984C53.502 27.8984 53.0173 27.7753 52.5803 27.5291C52.1463 27.2798 51.8001 26.8997 51.5415 26.3888C51.2861 25.8749 51.1584 25.2255 51.1584 24.4407C51.1584 23.6374 51.2892 22.9665 51.5508 22.4279C51.8124 21.8893 52.1602 21.4862 52.5941 21.2184C53.0311 20.9506 53.5097 20.8168 54.0298 20.8168C54.4268 20.8168 54.7592 20.8845 55.027 21.0199C55.2947 21.1522 55.5102 21.3184 55.6733 21.5185C55.8395 21.7154 55.9672 21.9093 56.0565 22.1001H56.1303V20.9091H58.0831V28.0692C58.0831 28.6725 57.9354 29.1772 57.6399 29.5835C57.3445 29.9897 56.9351 30.2944 56.4119 30.4975C55.8918 30.7037 55.2932 30.8068 54.6161 30.8068ZM54.6577 26.4212C54.9747 26.4212 55.2424 26.3427 55.4609 26.1857C55.6825 26.0257 55.8518 25.7979 55.9688 25.5025C56.0888 25.204 56.1488 24.8469 56.1488 24.4315C56.1488 24.016 56.0903 23.6559 55.9734 23.3512C55.8564 23.0434 55.6871 22.8049 55.4656 22.6357C55.244 22.4664 54.9747 22.3817 54.6577 22.3817C54.3345 22.3817 54.0621 22.4695 53.8406 22.6449C53.619 22.8172 53.4512 23.0573 53.3374 23.3651C53.2235 23.6728 53.1665 24.0283 53.1665 24.4315C53.1665 24.8408 53.2235 25.1947 53.3374 25.4933C53.4543 25.7887 53.622 26.018 53.8406 26.1811C54.0621 26.3411 54.3345 26.4212 54.6577 26.4212ZM62.8796 28.1385C62.1502 28.1385 61.5224 27.9908 60.9961 27.6953C60.4729 27.3968 60.0697 26.9751 59.7866 26.4304C59.5034 25.8826 59.3619 25.2347 59.3619 24.4869C59.3619 23.7575 59.5034 23.1173 59.7866 22.5664C60.0697 22.0155 60.4683 21.5862 60.9822 21.2784C61.4993 20.9706 62.1056 20.8168 62.8011 20.8168C63.2689 20.8168 63.7044 20.8922 64.1076 21.043C64.5138 21.1907 64.8678 21.4138 65.1694 21.7124C65.4741 22.0109 65.7111 22.3864 65.8803 22.8388C66.0496 23.2881 66.1342 23.8144 66.1342 24.4176V24.9577H60.1467V23.739H64.283C64.283 23.4558 64.2215 23.205 64.0984 22.9865C63.9753 22.768 63.8045 22.5972 63.5859 22.4741C63.3705 22.3479 63.1197 22.2848 62.8335 22.2848C62.5349 22.2848 62.2702 22.354 62.0394 22.4925C61.8117 22.628 61.6332 22.8111 61.5039 23.0419C61.3746 23.2696 61.3085 23.5236 61.3054 23.8036V24.9624C61.3054 25.3132 61.37 25.6164 61.4993 25.8718C61.6316 26.1272 61.8178 26.3242 62.0579 26.4627C62.2979 26.6012 62.5826 26.6705 62.9119 26.6705C63.1304 26.6705 63.3305 26.6397 63.5121 26.5781C63.6937 26.5166 63.8491 26.4242 63.9783 26.3011C64.1076 26.178 64.2061 26.0272 64.2738 25.8487L66.0927 25.9688C66.0004 26.4058 65.8111 26.7874 65.5249 27.1136C65.2417 27.4368 64.8755 27.6892 64.4261 27.8707C63.9799 28.0492 63.4644 28.1385 62.8796 28.1385ZM67.4176 28V20.9091H69.3242V22.1463H69.3981C69.5273 21.7062 69.7443 21.3738 70.049 21.1491C70.3537 20.9214 70.7045 20.8075 71.1016 20.8075C71.2 20.8075 71.3062 20.8137 71.4201 20.826C71.534 20.8383 71.634 20.8552 71.7202 20.8768V22.6218C71.6278 22.5941 71.5001 22.5695 71.337 22.5479C71.1739 22.5264 71.0246 22.5156 70.8892 22.5156C70.5999 22.5156 70.3414 22.5787 70.1136 22.7049C69.889 22.828 69.7105 23.0004 69.5781 23.2219C69.4489 23.4435 69.3842 23.699 69.3842 23.9883V28H67.4176Z" fill="black"/>
<path d="M72.5 67C78.0228 67 82.5 62.5228 82.5 57C82.5 51.4772 78.0228 47 72.5 47C66.9772 47 62.5 51.4772 62.5 57C62.5 62.5228 66.9772 67 72.5 67Z" fill="#222222" stroke="#222222"/>
<path d="M118.5 87H26.5C19.5964 87 14 92.5964 14 99.5V108.633C14 115.536 19.5964 121.133 26.5 121.133H118.5C125.404 121.133 131 115.536 131 108.633V99.5C131 92.5964 125.404 87 118.5 87Z" fill="#F1F1F1" stroke="#181818" stroke-width="0.5"/>
<path d="M25.4148 108.602H24.3068L27.5114 99.8744H28.6023L31.8068 108.602H30.6989L28.0909 101.255H28.0227L25.4148 108.602ZM25.8239 105.193H30.2898V106.13H25.8239V105.193ZM34.0355 99.8744V108.602H33.0298V99.8744H34.0355ZM36.8832 99.8744V108.602H35.8775V99.8744H36.8832ZM41.4695 108.738C40.8388 108.738 40.2947 108.599 39.8374 108.32C39.3828 108.039 39.032 107.647 38.7848 107.144C38.5405 106.639 38.4183 106.05 38.4183 105.38C38.4183 104.71 38.5405 104.119 38.7848 103.607C39.032 103.093 39.3757 102.693 39.8161 102.406C40.2592 102.116 40.7763 101.971 41.3672 101.971C41.7081 101.971 42.0447 102.028 42.3771 102.141C42.7095 102.255 43.0121 102.44 43.2848 102.695C43.5575 102.948 43.7749 103.283 43.9368 103.701C44.0987 104.119 44.1797 104.633 44.1797 105.244V105.67H39.1342V104.8H43.157C43.157 104.431 43.0831 104.102 42.9354 103.812C42.7905 103.522 42.5831 103.293 42.3132 103.126C42.0462 102.958 41.7308 102.874 41.3672 102.874C40.9666 102.874 40.62 102.974 40.3274 103.173C40.0376 103.369 39.8146 103.624 39.6584 103.94C39.5021 104.255 39.424 104.593 39.424 104.954V105.533C39.424 106.028 39.5092 106.447 39.6797 106.791C39.853 107.131 40.093 107.391 40.3999 107.57C40.7067 107.747 41.0632 107.835 41.4695 107.835C41.7337 107.835 41.9723 107.798 42.1854 107.724C42.4013 107.647 42.5874 107.533 42.7436 107.383C42.8999 107.229 43.0206 107.039 43.1058 106.812L44.0774 107.085C43.9751 107.414 43.8033 107.704 43.5618 107.954C43.3203 108.201 43.022 108.394 42.6669 108.533C42.3118 108.67 41.9126 108.738 41.4695 108.738ZM45.7095 108.602V102.056H46.6811V103.045H46.7493C46.8686 102.721 47.0845 102.458 47.397 102.256C47.7095 102.055 48.0618 101.954 48.4538 101.954C48.5277 101.954 48.62 101.955 48.7308 101.958C48.8416 101.961 48.9254 101.965 48.9822 101.971V102.994C48.9482 102.985 48.87 102.972 48.7479 102.955C48.6286 102.935 48.5021 102.925 48.3686 102.925C48.0504 102.925 47.7663 102.992 47.5163 103.126C47.2692 103.256 47.0732 103.438 46.9283 103.671C46.7862 103.901 46.7152 104.164 46.7152 104.46V108.602H45.7095ZM55.4755 108.755C55.0607 108.755 54.6843 108.677 54.3462 108.521C54.0082 108.362 53.7397 108.133 53.5408 107.835C53.342 107.533 53.2425 107.17 53.2425 106.744C53.2425 106.369 53.3164 106.065 53.4641 105.832C53.6119 105.596 53.8093 105.411 54.0565 105.278C54.3036 105.144 54.5763 105.045 54.8746 104.979C55.1758 104.911 55.4783 104.857 55.7823 104.818C56.18 104.766 56.5025 104.728 56.7496 104.702C56.9996 104.674 57.1815 104.627 57.2951 104.562C57.4116 104.497 57.4698 104.383 57.4698 104.221V104.187C57.4698 103.766 57.3548 103.44 57.1246 103.207C56.8974 102.974 56.5522 102.857 56.0891 102.857C55.609 102.857 55.2326 102.962 54.9599 103.173C54.6871 103.383 54.4954 103.607 54.3846 103.846L53.43 103.505C53.6005 103.107 53.8278 102.798 54.1119 102.576C54.3988 102.352 54.7113 102.195 55.0494 102.107C55.3903 102.016 55.7255 101.971 56.055 101.971C56.2653 101.971 56.5067 101.997 56.7795 102.048C57.055 102.096 57.3207 102.197 57.5763 102.35C57.8349 102.504 58.0494 102.735 58.2198 103.045C58.3903 103.354 58.4755 103.769 58.4755 104.289V108.602H57.4698V107.715H57.4187C57.3505 107.857 57.2369 108.009 57.0778 108.171C56.9187 108.333 56.707 108.471 56.4428 108.585C56.1786 108.698 55.8562 108.755 55.4755 108.755ZM55.6289 107.852C56.0266 107.852 56.3619 107.773 56.6346 107.617C56.9102 107.461 57.1175 107.259 57.2567 107.012C57.3988 106.765 57.4698 106.505 57.4698 106.232V105.312C57.4272 105.363 57.3335 105.41 57.1886 105.452C57.0465 105.492 56.8817 105.528 56.6942 105.559C56.5096 105.587 56.3292 105.613 56.1531 105.636C55.9798 105.656 55.8391 105.673 55.7312 105.687C55.4698 105.721 55.2255 105.776 54.9982 105.853C54.7738 105.927 54.592 106.039 54.4528 106.19C54.3164 106.337 54.2482 106.539 54.2482 106.795C54.2482 107.144 54.3775 107.408 54.636 107.587C54.8974 107.764 55.2283 107.852 55.6289 107.852ZM55.6971 101.17L54.3675 99.1925H55.5437L56.5835 101.17H55.6971ZM64.6918 99.8744V108.602H63.6861V99.8744H64.6918ZM67.4031 99.8744V102.874H66.4656V99.8744H67.4031ZM71.12 108.755C70.7053 108.755 70.3288 108.677 69.9908 108.521C69.6527 108.362 69.3842 108.133 69.1854 107.835C68.9865 107.533 68.8871 107.17 68.8871 106.744C68.8871 106.369 68.9609 106.065 69.1087 105.832C69.2564 105.596 69.4538 105.411 69.701 105.278C69.9482 105.144 70.2209 105.045 70.5192 104.979C70.8203 104.911 71.1229 104.857 71.4268 104.818C71.8246 104.766 72.147 104.728 72.3942 104.702C72.6442 104.674 72.826 104.627 72.9396 104.562C73.0561 104.497 73.1143 104.383 73.1143 104.221V104.187C73.1143 103.766 72.9993 103.44 72.7692 103.207C72.5419 102.974 72.1967 102.857 71.7337 102.857C71.2536 102.857 70.8771 102.962 70.6044 103.173C70.3317 103.383 70.1399 103.607 70.0291 103.846L69.0746 103.505C69.245 103.107 69.4723 102.798 69.7564 102.576C70.0433 102.352 70.3558 102.195 70.6939 102.107C71.0348 102.016 71.37 101.971 71.6996 101.971C71.9098 101.971 72.1513 101.997 72.424 102.048C72.6996 102.096 72.9652 102.197 73.2209 102.35C73.4794 102.504 73.6939 102.735 73.8643 103.045C74.0348 103.354 74.12 103.769 74.12 104.289V108.602H73.1143V107.715H73.0632C72.995 107.857 72.8814 108.009 72.7223 108.171C72.5632 108.333 72.3516 108.471 72.0874 108.585C71.8232 108.698 71.5007 108.755 71.12 108.755ZM71.2734 107.852C71.6712 107.852 72.0064 107.773 72.2791 107.617C72.5547 107.461 72.7621 107.259 72.9013 107.012C73.0433 106.765 73.1143 106.505 73.1143 106.232V105.312C73.0717 105.363 72.978 105.41 72.8331 105.452C72.6911 105.492 72.5263 105.528 72.3388 105.559C72.1541 105.587 71.9737 105.613 71.7976 105.636C71.6243 105.656 71.4837 105.673 71.3757 105.687C71.1143 105.721 70.87 105.776 70.6428 105.853C70.4183 105.927 70.2365 106.039 70.0973 106.19C69.9609 106.337 69.8928 106.539 69.8928 106.795C69.8928 107.144 70.022 107.408 70.2805 107.587C70.5419 107.764 70.8729 107.852 71.2734 107.852ZM78.6999 108.738C78.0692 108.738 77.5252 108.599 77.0678 108.32C76.6133 108.039 76.2624 107.647 76.0153 107.144C75.771 106.639 75.6488 106.05 75.6488 105.38C75.6488 104.71 75.771 104.119 76.0153 103.607C76.2624 103.093 76.6062 102.693 77.0465 102.406C77.4897 102.116 78.0067 101.971 78.5977 101.971C78.9386 101.971 79.2752 102.028 79.6076 102.141C79.94 102.255 80.2425 102.44 80.5153 102.695C80.788 102.948 81.0053 103.283 81.1673 103.701C81.3292 104.119 81.4102 104.633 81.4102 105.244V105.67H76.3647V104.8H80.3874C80.3874 104.431 80.3136 104.102 80.1658 103.812C80.021 103.522 79.8136 103.293 79.5437 103.126C79.2766 102.958 78.9613 102.874 78.5977 102.874C78.1971 102.874 77.8505 102.974 77.5579 103.173C77.2681 103.369 77.0451 103.624 76.8888 103.94C76.7326 104.255 76.6545 104.593 76.6545 104.954V105.533C76.6545 106.028 76.7397 106.447 76.9102 106.791C77.0835 107.131 77.3235 107.391 77.6303 107.57C77.9371 107.747 78.2937 107.835 78.6999 107.835C78.9641 107.835 79.2028 107.798 79.4158 107.724C79.6317 107.647 79.8178 107.533 79.9741 107.383C80.1303 107.229 80.2511 107.039 80.3363 106.812L81.3079 107.085C81.2056 107.414 81.0337 107.704 80.7923 107.954C80.5508 108.201 80.2525 108.394 79.8974 108.533C79.5423 108.67 79.1431 108.738 78.6999 108.738ZM78.0863 101.17L79.1261 99.1925H80.3022L78.9727 101.17H78.0863ZM82.94 108.602V102.056H83.9116V103.045H83.9798C84.0991 102.721 84.315 102.458 84.6275 102.256C84.94 102.055 85.2923 101.954 85.6843 101.954C85.7582 101.954 85.8505 101.955 85.9613 101.958C86.0721 101.961 86.1559 101.965 86.2127 101.971V102.994C86.1786 102.985 86.1005 102.972 85.9783 102.955C85.859 102.935 85.7326 102.925 85.5991 102.925C85.2809 102.925 84.9968 102.992 84.7468 103.126C84.4996 103.256 84.3036 103.438 84.1587 103.671C84.0167 103.901 83.9457 104.164 83.9457 104.46V108.602H82.94ZM89.8647 108.738C89.2738 108.738 88.7553 108.597 88.3093 108.316C87.8661 108.035 87.5195 107.641 87.2695 107.136C87.0224 106.63 86.8988 106.039 86.8988 105.363C86.8988 104.681 87.0224 104.086 87.2695 103.577C87.5195 103.069 87.8661 102.674 88.3093 102.393C88.7553 102.112 89.2738 101.971 89.8647 101.971C90.4556 101.971 90.9727 102.112 91.4158 102.393C91.8619 102.674 92.2085 103.069 92.4556 103.577C92.7056 104.086 92.8306 104.681 92.8306 105.363C92.8306 106.039 92.7056 106.63 92.4556 107.136C92.2085 107.641 91.8619 108.035 91.4158 108.316C90.9727 108.597 90.4556 108.738 89.8647 108.738ZM89.8647 107.835C90.3136 107.835 90.6829 107.72 90.9727 107.489C91.2624 107.259 91.4769 106.957 91.6161 106.582C91.7553 106.207 91.8249 105.8 91.8249 105.363C91.8249 104.925 91.7553 104.518 91.6161 104.14C91.4769 103.762 91.2624 103.457 90.9727 103.224C90.6829 102.991 90.3136 102.874 89.8647 102.874C89.4158 102.874 89.0465 102.991 88.7567 103.224C88.467 103.457 88.2525 103.762 88.1133 104.14C87.9741 104.518 87.9045 104.925 87.9045 105.363C87.9045 105.8 87.9741 106.207 88.1133 106.582C88.2525 106.957 88.467 107.259 88.7567 107.489C89.0465 107.72 89.4158 107.835 89.8647 107.835ZM94.3658 111.056V102.056H95.3374V103.096H95.4567C95.5305 102.982 95.6328 102.837 95.7635 102.661C95.897 102.482 96.0874 102.323 96.3345 102.184C96.5845 102.042 96.9226 101.971 97.3487 101.971C97.8999 101.971 98.3857 102.109 98.8061 102.384C99.2266 102.66 99.5547 103.05 99.7905 103.556C100.026 104.062 100.144 104.658 100.144 105.346C100.144 106.039 100.026 106.64 99.7905 107.148C99.5547 107.654 99.228 108.046 98.8104 108.325C98.3928 108.6 97.9112 108.738 97.3658 108.738C96.9453 108.738 96.6087 108.668 96.3558 108.529C96.103 108.387 95.9084 108.227 95.772 108.048C95.6357 107.866 95.5305 107.715 95.4567 107.596H95.3714V111.056H94.3658ZM95.3544 105.329C95.3544 105.823 95.4268 106.259 95.5717 106.637C95.7166 107.012 95.9283 107.306 96.2067 107.519C96.4851 107.729 96.826 107.835 97.2294 107.835C97.6499 107.835 98.0007 107.724 98.282 107.502C98.5661 107.278 98.7791 106.977 98.9212 106.599C99.0661 106.218 99.1385 105.795 99.1385 105.329C99.1385 104.869 99.0675 104.454 98.9254 104.085C98.7862 103.712 98.5746 103.418 98.2905 103.202C98.0092 102.984 97.6555 102.874 97.2294 102.874C96.8203 102.874 96.4766 102.978 96.1982 103.185C95.9197 103.39 95.7095 103.677 95.5675 104.046C95.4254 104.413 95.3544 104.84 95.3544 105.329ZM104.337 108.738C103.746 108.738 103.228 108.597 102.782 108.316C102.339 108.035 101.992 107.641 101.742 107.136C101.495 106.63 101.371 106.039 101.371 105.363C101.371 104.681 101.495 104.086 101.742 103.577C101.992 103.069 102.339 102.674 102.782 102.393C103.228 102.112 103.746 101.971 104.337 101.971C104.928 101.971 105.445 102.112 105.888 102.393C106.335 102.674 106.681 103.069 106.928 103.577C107.178 104.086 107.303 104.681 107.303 105.363C107.303 106.039 107.178 106.63 106.928 107.136C106.681 107.641 106.335 108.035 105.888 108.316C105.445 108.597 104.928 108.738 104.337 108.738ZM104.337 107.835C104.786 107.835 105.156 107.72 105.445 107.489C105.735 107.259 105.95 106.957 106.089 106.582C106.228 106.207 106.298 105.8 106.298 105.363C106.298 104.925 106.228 104.518 106.089 104.14C105.95 103.762 105.735 103.457 105.445 103.224C105.156 102.991 104.786 102.874 104.337 102.874C103.888 102.874 103.519 102.991 103.229 103.224C102.94 103.457 102.725 103.762 102.586 104.14C102.447 104.518 102.377 104.925 102.377 105.363C102.377 105.8 102.447 106.207 102.586 106.582C102.725 106.957 102.94 107.259 103.229 107.489C103.519 107.72 103.888 107.835 104.337 107.835ZM108.838 108.602V102.056H109.81V103.045H109.878C109.998 102.721 110.213 102.458 110.526 102.256C110.838 102.055 111.191 101.954 111.583 101.954C111.657 101.954 111.749 101.955 111.86 101.958C111.971 101.961 112.054 101.965 112.111 101.971V102.994C112.077 102.985 111.999 102.972 111.877 102.955C111.757 102.935 111.631 102.925 111.498 102.925C111.179 102.925 110.895 102.992 110.645 103.126C110.398 103.256 110.202 103.438 110.057 103.671C109.915 103.901 109.844 104.164 109.844 104.46V108.602H108.838ZM116.56 102.056V102.908H113.168V102.056H116.56ZM114.157 100.488H115.162V106.727C115.162 107.011 115.203 107.224 115.286 107.366C115.371 107.505 115.479 107.599 115.61 107.647C115.743 107.693 115.884 107.715 116.032 107.715C116.142 107.715 116.233 107.71 116.304 107.698C116.375 107.684 116.432 107.673 116.475 107.664L116.679 108.568C116.611 108.593 116.516 108.619 116.394 108.644C116.272 108.673 116.117 108.687 115.929 108.687C115.645 108.687 115.367 108.626 115.094 108.504C114.824 108.381 114.6 108.195 114.421 107.945C114.245 107.695 114.157 107.38 114.157 106.999V100.488Z" fill="black"/>
<path d="M145.5 137.889V154.199L125.5 158.199L145.5 162.199V178.51H334.5V147.889L324.5 137.889H145.5Z" fill="#FEFFDD" stroke="#181818" stroke-width="0.5"/>
<path d="M324.5 137.889V147.889H334.5L324.5 137.889Z" fill="#FEFFDD" stroke="#181818" stroke-width="0.5"/>
<path d="M156.668 152.489V150.864L163.168 148.001V149.871L158.718 151.658L158.778 151.561V151.792L158.718 151.695L163.168 153.481V155.351L156.668 152.489ZM165.504 152.489V150.864L172.004 148.001V149.871L167.554 151.658L167.614 151.561V151.792L167.554 151.695L172.004 153.481V155.351L165.504 152.489ZM175.923 146.002V155.457H173.957V146.002H175.923ZM180.703 155.595C179.985 155.595 179.365 155.443 178.842 155.138C178.322 154.831 177.92 154.403 177.637 153.855C177.354 153.304 177.212 152.666 177.212 151.939C177.212 151.207 177.354 150.567 177.637 150.019C177.92 149.468 178.322 149.04 178.842 148.735C179.365 148.428 179.985 148.274 180.703 148.274C181.42 148.274 182.038 148.428 182.558 148.735C183.082 149.04 183.485 149.468 183.768 150.019C184.051 150.567 184.193 151.207 184.193 151.939C184.193 152.666 184.051 153.304 183.768 153.855C183.485 154.403 183.082 154.831 182.558 155.138C182.038 155.443 181.42 155.595 180.703 155.595ZM180.712 154.072C181.038 154.072 181.31 153.98 181.529 153.795C181.747 153.607 181.912 153.352 182.023 153.029C182.137 152.706 182.194 152.338 182.194 151.925C182.194 151.513 182.137 151.145 182.023 150.822C181.912 150.499 181.747 150.243 181.529 150.056C181.31 149.868 181.038 149.774 180.712 149.774C180.382 149.774 180.105 149.868 179.881 150.056C179.659 150.243 179.491 150.499 179.378 150.822C179.267 151.145 179.211 151.513 179.211 151.925C179.211 152.338 179.267 152.706 179.378 153.029C179.491 153.352 179.659 153.607 179.881 153.795C180.105 153.98 180.382 154.072 180.712 154.072ZM188.675 155.595C187.949 155.595 187.324 155.442 186.801 155.134C186.281 154.823 185.881 154.392 185.601 153.841C185.324 153.29 185.185 152.656 185.185 151.939C185.185 151.213 185.325 150.576 185.605 150.028C185.888 149.477 186.29 149.048 186.81 148.74C187.33 148.429 187.949 148.274 188.666 148.274C189.285 148.274 189.826 148.386 190.291 148.611C190.756 148.835 191.123 149.151 191.394 149.557C191.665 149.963 191.814 150.44 191.842 150.988H189.986C189.934 150.634 189.795 150.35 189.571 150.134C189.349 149.916 189.058 149.806 188.698 149.806C188.394 149.806 188.127 149.89 187.9 150.056C187.675 150.219 187.499 150.457 187.373 150.771C187.247 151.085 187.184 151.465 187.184 151.912C187.184 152.364 187.246 152.749 187.369 153.066C187.495 153.383 187.672 153.624 187.9 153.79C188.127 153.957 188.394 154.04 188.698 154.04C188.923 154.04 189.124 153.994 189.303 153.901C189.485 153.809 189.634 153.675 189.751 153.5C189.871 153.321 189.949 153.107 189.986 152.858H191.842C191.811 153.4 191.664 153.877 191.399 154.289C191.137 154.698 190.776 155.018 190.314 155.249C189.852 155.48 189.306 155.595 188.675 155.595ZM195.123 155.591C194.671 155.591 194.268 155.512 193.914 155.355C193.56 155.195 193.28 154.96 193.074 154.649C192.87 154.335 192.769 153.944 192.769 153.477C192.769 153.083 192.841 152.752 192.986 152.484C193.13 152.216 193.327 152.001 193.577 151.838C193.826 151.675 194.109 151.551 194.426 151.468C194.746 151.385 195.082 151.327 195.433 151.293C195.845 151.25 196.177 151.21 196.43 151.173C196.682 151.133 196.865 151.074 196.979 150.997C197.093 150.921 197.15 150.807 197.15 150.656V150.628C197.15 150.336 197.058 150.11 196.873 149.95C196.691 149.79 196.433 149.709 196.097 149.709C195.743 149.709 195.462 149.788 195.252 149.945C195.043 150.099 194.905 150.293 194.837 150.527L193.018 150.379C193.11 149.948 193.292 149.576 193.563 149.262C193.834 148.945 194.183 148.702 194.611 148.532C195.042 148.36 195.54 148.274 196.107 148.274C196.5 148.274 196.877 148.32 197.238 148.412C197.601 148.505 197.922 148.648 198.202 148.842C198.486 149.035 198.709 149.285 198.872 149.589C199.035 149.891 199.116 150.253 199.116 150.674V155.457H197.251V154.474H197.196C197.082 154.695 196.93 154.891 196.739 155.06C196.548 155.226 196.319 155.357 196.051 155.452C195.783 155.545 195.474 155.591 195.123 155.591ZM195.686 154.234C195.976 154.234 196.231 154.177 196.453 154.063C196.674 153.946 196.848 153.789 196.974 153.592C197.101 153.395 197.164 153.172 197.164 152.923V152.17C197.102 152.21 197.018 152.247 196.91 152.281C196.805 152.312 196.687 152.341 196.554 152.369C196.422 152.393 196.29 152.416 196.157 152.438C196.025 152.456 195.905 152.473 195.797 152.489C195.566 152.522 195.365 152.576 195.192 152.65C195.02 152.724 194.886 152.824 194.791 152.95C194.695 153.073 194.648 153.227 194.648 153.412C194.648 153.68 194.745 153.884 194.939 154.026C195.136 154.164 195.385 154.234 195.686 154.234ZM202.609 146.002V155.457H200.642V146.002H202.609ZM204.221 155.457V146.002H207.951C208.668 146.002 209.279 146.139 209.784 146.413C210.289 146.684 210.673 147.061 210.938 147.544C211.206 148.024 211.34 148.578 211.34 149.206C211.34 149.834 211.204 150.388 210.934 150.868C210.663 151.348 210.27 151.722 209.756 151.99C209.245 152.258 208.627 152.392 207.9 152.392H205.523V150.79H207.577C207.962 150.79 208.279 150.724 208.528 150.591C208.781 150.456 208.968 150.27 209.092 150.033C209.218 149.793 209.281 149.517 209.281 149.206C209.281 148.892 209.218 148.618 209.092 148.385C208.968 148.148 208.781 147.964 208.528 147.835C208.276 147.703 207.956 147.637 207.568 147.637H206.22V155.457H204.221ZM212.601 155.457V148.366H214.508V149.603H214.582C214.711 149.163 214.928 148.831 215.233 148.606C215.537 148.378 215.888 148.265 216.285 148.265C216.384 148.265 216.49 148.271 216.604 148.283C216.718 148.295 216.818 148.312 216.904 148.334V150.079C216.811 150.051 216.684 150.026 216.521 150.005C216.357 149.983 216.208 149.973 216.073 149.973C215.783 149.973 215.525 150.036 215.297 150.162C215.073 150.285 214.894 150.457 214.762 150.679C214.632 150.901 214.568 151.156 214.568 151.445V155.457H212.601ZM220.822 155.595C220.093 155.595 219.465 155.448 218.938 155.152C218.415 154.854 218.012 154.432 217.729 153.887C217.446 153.34 217.304 152.692 217.304 151.944C217.304 151.214 217.446 150.574 217.729 150.023C218.012 149.473 218.411 149.043 218.925 148.735C219.442 148.428 220.048 148.274 220.744 148.274C221.211 148.274 221.647 148.349 222.05 148.5C222.456 148.648 222.81 148.871 223.112 149.169C223.416 149.468 223.653 149.843 223.823 150.296C223.992 150.745 224.077 151.271 224.077 151.875V152.415H218.089V151.196H222.225C222.225 150.913 222.164 150.662 222.041 150.444C221.918 150.225 221.747 150.054 221.528 149.931C221.313 149.805 221.062 149.742 220.776 149.742C220.477 149.742 220.213 149.811 219.982 149.95C219.754 150.085 219.576 150.268 219.446 150.499C219.317 150.727 219.251 150.981 219.248 151.261V152.419C219.248 152.77 219.312 153.073 219.442 153.329C219.574 153.584 219.76 153.781 220 153.92C220.24 154.058 220.525 154.127 220.854 154.127C221.073 154.127 221.273 154.097 221.454 154.035C221.636 153.974 221.791 153.881 221.921 153.758C222.05 153.635 222.148 153.484 222.216 153.306L224.035 153.426C223.943 153.863 223.753 154.244 223.467 154.571C223.184 154.894 222.818 155.146 222.369 155.328C221.922 155.506 221.407 155.595 220.822 155.595ZM228.564 155.595C227.838 155.595 227.213 155.442 226.69 155.134C226.169 154.823 225.769 154.392 225.489 153.841C225.212 153.29 225.074 152.656 225.074 151.939C225.074 151.213 225.214 150.576 225.494 150.028C225.777 149.477 226.179 149.048 226.699 148.74C227.219 148.429 227.838 148.274 228.555 148.274C229.173 148.274 229.715 148.386 230.18 148.611C230.644 148.835 231.012 149.151 231.283 149.557C231.554 149.963 231.703 150.44 231.731 150.988H229.875C229.823 150.634 229.684 150.35 229.459 150.134C229.238 149.916 228.947 149.806 228.587 149.806C228.282 149.806 228.016 149.89 227.788 150.056C227.564 150.219 227.388 150.457 227.262 150.771C227.136 151.085 227.073 151.465 227.073 151.912C227.073 152.364 227.134 152.749 227.257 153.066C227.384 153.383 227.561 153.624 227.788 153.79C228.016 153.957 228.282 154.04 228.587 154.04C228.812 154.04 229.013 153.994 229.192 153.901C229.373 153.809 229.523 153.675 229.639 153.5C229.759 153.321 229.838 153.107 229.875 152.858H231.731C231.7 153.4 231.552 153.877 231.288 154.289C231.026 154.698 230.664 155.018 230.203 155.249C229.741 155.48 229.195 155.595 228.564 155.595ZM236.194 155.595C235.477 155.595 234.856 155.443 234.333 155.138C233.813 154.831 233.412 154.403 233.128 153.855C232.845 153.304 232.704 152.666 232.704 151.939C232.704 151.207 232.845 150.567 233.128 150.019C233.412 149.468 233.813 149.04 234.333 148.735C234.856 148.428 235.477 148.274 236.194 148.274C236.911 148.274 237.529 148.428 238.05 148.735C238.573 149.04 238.976 149.468 239.259 150.019C239.542 150.567 239.684 151.207 239.684 151.939C239.684 152.666 239.542 153.304 239.259 153.855C238.976 154.403 238.573 154.831 238.05 155.138C237.529 155.443 236.911 155.595 236.194 155.595ZM236.203 154.072C236.529 154.072 236.802 153.98 237.02 153.795C237.239 153.607 237.403 153.352 237.514 153.029C237.628 152.706 237.685 152.338 237.685 151.925C237.685 151.513 237.628 151.145 237.514 150.822C237.403 150.499 237.239 150.243 237.02 150.056C236.802 149.868 236.529 149.774 236.203 149.774C235.874 149.774 235.597 149.868 235.372 150.056C235.15 150.243 234.983 150.499 234.869 150.822C234.758 151.145 234.703 151.513 234.703 151.925C234.703 152.338 234.758 152.706 234.869 153.029C234.983 153.352 235.15 153.607 235.372 153.795C235.597 153.98 235.874 154.072 236.203 154.072ZM242.929 151.358V155.457H240.963V148.366H242.837V149.617H242.92C243.077 149.205 243.34 148.879 243.709 148.638C244.079 148.395 244.526 148.274 245.053 148.274C245.545 148.274 245.974 148.381 246.341 148.597C246.707 148.812 246.992 149.12 247.195 149.52C247.398 149.917 247.499 150.391 247.499 150.942V155.457H245.533V151.293C245.536 150.859 245.425 150.52 245.2 150.277C244.976 150.031 244.666 149.908 244.273 149.908C244.008 149.908 243.774 149.965 243.571 150.079C243.371 150.193 243.214 150.359 243.1 150.577C242.989 150.793 242.932 151.053 242.929 151.358ZM251.662 155.572C251.124 155.572 250.636 155.434 250.199 155.157C249.765 154.877 249.42 154.466 249.165 153.924C248.912 153.38 248.786 152.712 248.786 151.921C248.786 151.108 248.917 150.433 249.179 149.894C249.44 149.352 249.788 148.948 250.222 148.68C250.659 148.409 251.138 148.274 251.658 148.274C252.055 148.274 252.386 148.341 252.65 148.477C252.918 148.609 253.133 148.775 253.297 148.975C253.463 149.172 253.589 149.366 253.675 149.557H253.735V146.002H255.697V155.457H253.758V154.321H253.675C253.583 154.518 253.452 154.714 253.283 154.908C253.117 155.098 252.9 155.257 252.632 155.383C252.367 155.509 252.044 155.572 251.662 155.572ZM252.286 154.007C252.603 154.007 252.87 153.921 253.089 153.749C253.31 153.573 253.48 153.329 253.597 153.015C253.717 152.701 253.777 152.333 253.777 151.912C253.777 151.49 253.718 151.124 253.601 150.813C253.484 150.502 253.315 150.262 253.093 150.093C252.872 149.923 252.603 149.839 252.286 149.839C251.962 149.839 251.69 149.926 251.468 150.102C251.247 150.277 251.079 150.52 250.965 150.831C250.851 151.142 250.794 151.502 250.794 151.912C250.794 152.324 250.851 152.689 250.965 153.006C251.082 153.32 251.25 153.566 251.468 153.744C251.69 153.92 251.962 154.007 252.286 154.007ZM257.314 155.457V148.366H259.281V155.457H257.314ZM258.302 147.452C258.01 147.452 257.759 147.355 257.55 147.161C257.343 146.964 257.24 146.729 257.24 146.455C257.24 146.184 257.343 145.952 257.55 145.758C257.759 145.561 258.01 145.462 258.302 145.462C258.594 145.462 258.844 145.561 259.05 145.758C259.259 145.952 259.364 146.184 259.364 146.455C259.364 146.729 259.259 146.964 259.05 147.161C258.844 147.355 258.594 147.452 258.302 147.452ZM264.628 148.366V149.843H260.358V148.366H264.628ZM261.327 146.667H263.294V153.278C263.294 153.46 263.321 153.601 263.377 153.703C263.432 153.801 263.509 153.87 263.608 153.91C263.709 153.95 263.826 153.97 263.958 153.97C264.051 153.97 264.143 153.963 264.235 153.947C264.328 153.929 264.398 153.915 264.448 153.906L264.757 155.369C264.659 155.4 264.52 155.435 264.342 155.475C264.163 155.519 263.946 155.545 263.691 155.554C263.217 155.572 262.801 155.509 262.444 155.365C262.09 155.22 261.815 154.995 261.618 154.691C261.421 154.386 261.324 154.001 261.327 153.537V146.667ZM265.909 155.457V148.366H267.875V155.457H265.909ZM266.897 147.452C266.604 147.452 266.354 147.355 266.144 147.161C265.938 146.964 265.835 146.729 265.835 146.455C265.835 146.184 265.938 145.952 266.144 145.758C266.354 145.561 266.604 145.462 266.897 145.462C267.189 145.462 267.438 145.561 267.645 145.758C267.854 145.952 267.959 146.184 267.959 146.455C267.959 146.729 267.854 146.964 267.645 147.161C267.438 147.355 267.189 147.452 266.897 147.452ZM272.655 155.595C271.938 155.595 271.317 155.443 270.794 155.138C270.274 154.831 269.872 154.403 269.589 153.855C269.306 153.304 269.165 152.666 269.165 151.939C269.165 151.207 269.306 150.567 269.589 150.019C269.872 149.468 270.274 149.04 270.794 148.735C271.317 148.428 271.938 148.274 272.655 148.274C273.372 148.274 273.99 148.428 274.51 148.735C275.034 149.04 275.437 149.468 275.72 150.019C276.003 150.567 276.145 151.207 276.145 151.939C276.145 152.666 276.003 153.304 275.72 153.855C275.437 154.403 275.034 154.831 274.51 155.138C273.99 155.443 273.372 155.595 272.655 155.595ZM272.664 154.072C272.99 154.072 273.262 153.98 273.481 153.795C273.7 153.607 273.864 153.352 273.975 153.029C274.089 152.706 274.146 152.338 274.146 151.925C274.146 151.513 274.089 151.145 273.975 150.822C273.864 150.499 273.7 150.243 273.481 150.056C273.262 149.868 272.99 149.774 272.664 149.774C272.335 149.774 272.058 149.868 271.833 150.056C271.611 150.243 271.444 150.499 271.33 150.822C271.219 151.145 271.164 151.513 271.164 151.925C271.164 152.338 271.219 152.706 271.33 153.029C271.444 153.352 271.611 153.607 271.833 153.795C272.058 153.98 272.335 154.072 272.664 154.072ZM279.39 151.358V155.457H277.423V148.366H279.298V149.617H279.381C279.538 149.205 279.801 148.879 280.17 148.638C280.54 148.395 280.987 148.274 281.514 148.274C282.006 148.274 282.435 148.381 282.802 148.597C283.168 148.812 283.453 149.12 283.656 149.52C283.859 149.917 283.96 150.391 283.96 150.942V155.457H281.994V151.293C281.997 150.859 281.886 150.52 281.661 150.277C281.437 150.031 281.127 149.908 280.733 149.908C280.469 149.908 280.235 149.965 280.032 150.079C279.832 150.193 279.675 150.359 279.561 150.577C279.45 150.793 279.393 151.053 279.39 151.358ZM292.394 152.489L285.894 155.351V153.481L290.344 151.695L290.284 151.792V151.561L290.344 151.658L285.894 149.871V148.001L292.394 150.864V152.489ZM301.229 152.489L294.729 155.351V153.481L299.18 151.695L299.12 151.792V151.561L299.18 151.658L294.729 149.871V148.001L301.229 150.864V152.489Z" fill="black"/>
<path d="M152.645 170.768V161.313H155.839C156.581 161.313 157.188 161.447 157.658 161.715C158.132 161.979 158.483 162.338 158.711 162.79C158.939 163.243 159.053 163.747 159.053 164.305C159.053 164.862 158.939 165.368 158.711 165.823C158.486 166.279 158.138 166.642 157.668 166.913C157.197 167.181 156.594 167.314 155.858 167.314H153.568V166.299H155.821C156.329 166.299 156.737 166.211 157.044 166.036C157.352 165.86 157.575 165.623 157.714 165.325C157.855 165.023 157.926 164.683 157.926 164.305C157.926 163.926 157.855 163.587 157.714 163.289C157.575 162.99 157.351 162.756 157.04 162.587C156.729 162.415 156.317 162.329 155.803 162.329H153.79V170.768H152.645ZM163.554 170.915C162.913 170.915 162.352 170.763 161.869 170.458C161.388 170.154 161.013 169.727 160.742 169.18C160.474 168.632 160.341 167.992 160.341 167.259C160.341 166.52 160.474 165.876 160.742 165.325C161.013 164.774 161.388 164.346 161.869 164.041C162.352 163.737 162.913 163.584 163.554 163.584C164.194 163.584 164.754 163.737 165.234 164.041C165.717 164.346 166.093 164.774 166.36 165.325C166.631 165.876 166.767 166.52 166.767 167.259C166.767 167.992 166.631 168.632 166.36 169.18C166.093 169.727 165.717 170.154 165.234 170.458C164.754 170.763 164.194 170.915 163.554 170.915ZM163.554 169.937C164.04 169.937 164.44 169.812 164.754 169.563C165.068 169.313 165.3 168.986 165.451 168.579C165.602 168.173 165.677 167.733 165.677 167.259C165.677 166.785 165.602 166.343 165.451 165.934C165.3 165.525 165.068 165.194 164.754 164.942C164.44 164.689 164.04 164.563 163.554 164.563C163.067 164.563 162.667 164.689 162.353 164.942C162.039 165.194 161.807 165.525 161.656 165.934C161.505 166.343 161.43 166.785 161.43 167.259C161.43 167.733 161.505 168.173 161.656 168.579C161.807 168.986 162.039 169.313 162.353 169.563C162.667 169.812 163.067 169.937 163.554 169.937ZM173.453 165.265L172.474 165.542C172.412 165.379 172.321 165.22 172.201 165.066C172.084 164.909 171.924 164.78 171.721 164.678C171.518 164.577 171.258 164.526 170.941 164.526C170.507 164.526 170.146 164.626 169.856 164.826C169.57 165.023 169.427 165.274 169.427 165.579C169.427 165.85 169.525 166.063 169.722 166.22C169.919 166.377 170.227 166.508 170.646 166.613L171.698 166.871C172.332 167.025 172.805 167.261 173.116 167.578C173.426 167.892 173.582 168.296 173.582 168.792C173.582 169.198 173.465 169.561 173.231 169.881C173 170.201 172.677 170.454 172.261 170.638C171.846 170.823 171.363 170.915 170.812 170.915C170.089 170.915 169.49 170.758 169.016 170.444C168.542 170.131 168.242 169.672 168.116 169.069L169.15 168.81C169.248 169.192 169.435 169.478 169.709 169.669C169.986 169.86 170.347 169.955 170.793 169.955C171.301 169.955 171.704 169.847 172.003 169.632C172.305 169.413 172.455 169.152 172.455 168.847C172.455 168.601 172.369 168.395 172.197 168.229C172.024 168.059 171.76 167.933 171.403 167.85L170.221 167.573C169.572 167.419 169.095 167.181 168.79 166.857C168.488 166.531 168.337 166.123 168.337 165.634C168.337 165.234 168.45 164.88 168.674 164.572C168.902 164.265 169.211 164.023 169.602 163.848C169.996 163.672 170.443 163.584 170.941 163.584C171.643 163.584 172.194 163.738 172.594 164.046C172.997 164.354 173.283 164.76 173.453 165.265ZM180.244 165.265L179.266 165.542C179.204 165.379 179.113 165.22 178.993 165.066C178.876 164.909 178.716 164.78 178.513 164.678C178.31 164.577 178.05 164.526 177.733 164.526C177.299 164.526 176.938 164.626 176.648 164.826C176.362 165.023 176.219 165.274 176.219 165.579C176.219 165.85 176.317 166.063 176.514 166.22C176.711 166.377 177.019 166.508 177.438 166.613L178.49 166.871C179.124 167.025 179.597 167.261 179.907 167.578C180.218 167.892 180.374 168.296 180.374 168.792C180.374 169.198 180.257 169.561 180.023 169.881C179.792 170.201 179.469 170.454 179.053 170.638C178.638 170.823 178.155 170.915 177.604 170.915C176.881 170.915 176.282 170.758 175.808 170.444C175.334 170.131 175.034 169.672 174.908 169.069L175.942 168.81C176.04 169.192 176.227 169.478 176.501 169.669C176.778 169.86 177.139 169.955 177.585 169.955C178.093 169.955 178.496 169.847 178.795 169.632C179.097 169.413 179.247 169.152 179.247 168.847C179.247 168.601 179.161 168.395 178.989 168.229C178.816 168.059 178.552 167.933 178.195 167.85L177.013 167.573C176.364 167.419 175.887 167.181 175.582 166.857C175.28 166.531 175.129 166.123 175.129 165.634C175.129 165.234 175.242 164.88 175.466 164.572C175.694 164.265 176.003 164.023 176.394 163.848C176.788 163.672 177.235 163.584 177.733 163.584C178.435 163.584 178.986 163.738 179.386 164.046C179.789 164.354 180.075 164.76 180.244 165.265ZM184.987 170.915C184.304 170.915 183.714 170.765 183.219 170.463C182.726 170.158 182.346 169.734 182.078 169.189C181.814 168.641 181.681 168.004 181.681 167.278C181.681 166.551 181.814 165.911 182.078 165.357C182.346 164.8 182.719 164.366 183.196 164.055C183.676 163.741 184.236 163.584 184.876 163.584C185.245 163.584 185.61 163.646 185.97 163.769C186.33 163.892 186.658 164.092 186.953 164.369C187.249 164.643 187.484 165.006 187.66 165.459C187.835 165.911 187.923 166.468 187.923 167.13V167.591H182.457V166.65H186.815C186.815 166.25 186.735 165.893 186.575 165.579C186.418 165.265 186.193 165.017 185.901 164.835C185.612 164.654 185.27 164.563 184.876 164.563C184.442 164.563 184.067 164.671 183.75 164.886C183.436 165.099 183.194 165.376 183.025 165.717C182.855 166.059 182.771 166.425 182.771 166.816V167.444C182.771 167.979 182.863 168.433 183.048 168.806C183.236 169.175 183.496 169.457 183.828 169.65C184.16 169.841 184.547 169.937 184.987 169.937C185.273 169.937 185.532 169.897 185.762 169.817C185.996 169.734 186.198 169.61 186.367 169.447C186.536 169.281 186.667 169.075 186.759 168.829L187.812 169.124C187.701 169.481 187.515 169.795 187.253 170.066C186.992 170.334 186.669 170.543 186.284 170.694C185.899 170.841 185.467 170.915 184.987 170.915ZM184.322 162.716L185.448 160.574H186.723L185.282 162.716H184.322ZM192.258 170.915C191.667 170.915 191.145 170.766 190.693 170.468C190.24 170.166 189.886 169.741 189.631 169.193C189.376 168.642 189.248 167.992 189.248 167.241C189.248 166.496 189.376 165.85 189.631 165.302C189.886 164.754 190.242 164.331 190.697 164.032C191.153 163.734 191.679 163.584 192.276 163.584C192.738 163.584 193.103 163.661 193.37 163.815C193.641 163.966 193.847 164.138 193.989 164.332C194.134 164.523 194.246 164.68 194.326 164.803H194.418V161.313H195.508V170.768H194.455V169.678H194.326C194.246 169.807 194.132 169.97 193.984 170.167C193.837 170.361 193.626 170.535 193.352 170.689C193.078 170.84 192.713 170.915 192.258 170.915ZM192.405 169.937C192.842 169.937 193.212 169.823 193.513 169.595C193.815 169.364 194.044 169.046 194.201 168.639C194.358 168.23 194.437 167.758 194.437 167.222C194.437 166.693 194.36 166.23 194.206 165.833C194.052 165.432 193.824 165.122 193.523 164.9C193.221 164.675 192.849 164.563 192.405 164.563C191.944 164.563 191.559 164.682 191.251 164.919C190.947 165.152 190.717 165.471 190.563 165.874C190.413 166.274 190.337 166.724 190.337 167.222C190.337 167.727 190.414 168.185 190.568 168.598C190.725 169.007 190.956 169.333 191.261 169.577C191.568 169.817 191.95 169.937 192.405 169.937ZM200.627 170.915C199.944 170.915 199.355 170.765 198.859 170.463C198.367 170.158 197.987 169.734 197.719 169.189C197.454 168.641 197.322 168.004 197.322 167.278C197.322 166.551 197.454 165.911 197.719 165.357C197.987 164.8 198.359 164.366 198.836 164.055C199.316 163.741 199.876 163.584 200.517 163.584C200.886 163.584 201.251 163.646 201.611 163.769C201.971 163.892 202.299 164.092 202.594 164.369C202.889 164.643 203.125 165.006 203.3 165.459C203.476 165.911 203.563 166.468 203.563 167.13V167.591H198.098V166.65H202.456C202.456 166.25 202.376 165.893 202.215 165.579C202.059 165.265 201.834 165.017 201.541 164.835C201.252 164.654 200.911 164.563 200.517 164.563C200.083 164.563 199.707 164.671 199.39 164.886C199.076 165.099 198.835 165.376 198.665 165.717C198.496 166.059 198.411 166.425 198.411 166.816V167.444C198.411 167.979 198.504 168.433 198.688 168.806C198.876 169.175 199.136 169.457 199.469 169.65C199.801 169.841 200.187 169.937 200.627 169.937C200.914 169.937 201.172 169.897 201.403 169.817C201.637 169.734 201.838 169.61 202.008 169.447C202.177 169.281 202.308 169.075 202.4 168.829L203.453 169.124C203.342 169.481 203.156 169.795 202.894 170.066C202.632 170.334 202.309 170.543 201.925 170.694C201.54 170.841 201.108 170.915 200.627 170.915ZM205.221 170.768V163.677H206.273V164.748H206.347C206.476 164.397 206.71 164.112 207.049 163.894C207.387 163.675 207.769 163.566 208.194 163.566C208.274 163.566 208.374 163.567 208.494 163.571C208.614 163.574 208.705 163.578 208.766 163.584V164.692C208.729 164.683 208.645 164.669 208.512 164.651C208.383 164.629 208.246 164.618 208.101 164.618C207.757 164.618 207.449 164.691 207.178 164.835C206.91 164.977 206.698 165.174 206.541 165.426C206.387 165.676 206.31 165.96 206.31 166.28V170.768H205.221ZM218.183 167.868V163.677H219.272V170.768H218.183V169.567H218.109C217.943 169.927 217.684 170.234 217.333 170.486C216.982 170.735 216.539 170.86 216.004 170.86C215.561 170.86 215.167 170.763 214.822 170.569C214.477 170.372 214.206 170.077 214.009 169.683C213.812 169.286 213.714 168.786 213.714 168.182V163.677H214.803V168.109C214.803 168.626 214.948 169.038 215.237 169.346C215.53 169.653 215.902 169.807 216.355 169.807C216.625 169.807 216.901 169.738 217.181 169.6C217.464 169.461 217.701 169.249 217.892 168.963C218.086 168.676 218.183 168.312 218.183 167.868ZM222.357 166.502V170.768H221.268V163.677H222.32V164.785H222.413C222.579 164.425 222.831 164.135 223.17 163.917C223.508 163.695 223.945 163.584 224.481 163.584C224.961 163.584 225.381 163.683 225.741 163.88C226.101 164.074 226.381 164.369 226.581 164.766C226.781 165.16 226.881 165.659 226.881 166.262V170.768H225.792V166.336C225.792 165.779 225.647 165.345 225.358 165.034C225.069 164.72 224.672 164.563 224.167 164.563C223.819 164.563 223.508 164.638 223.234 164.789C222.963 164.94 222.75 165.16 222.593 165.449C222.436 165.739 222.357 166.09 222.357 166.502ZM232.676 170.768V161.313H233.766V164.803H233.858C233.938 164.68 234.049 164.523 234.19 164.332C234.335 164.138 234.541 163.966 234.809 163.815C235.08 163.661 235.446 163.584 235.908 163.584C236.505 163.584 237.031 163.734 237.487 164.032C237.942 164.331 238.297 164.754 238.553 165.302C238.808 165.85 238.936 166.496 238.936 167.241C238.936 167.992 238.808 168.642 238.553 169.193C238.297 169.741 237.944 170.166 237.491 170.468C237.039 170.766 236.517 170.915 235.926 170.915C235.471 170.915 235.106 170.84 234.832 170.689C234.558 170.535 234.347 170.361 234.2 170.167C234.052 169.97 233.938 169.807 233.858 169.678H233.729V170.768H232.676ZM233.747 167.222C233.747 167.758 233.826 168.23 233.983 168.639C234.14 169.046 234.369 169.364 234.67 169.595C234.972 169.823 235.341 169.937 235.778 169.937C236.234 169.937 236.614 169.817 236.919 169.577C237.226 169.333 237.457 169.007 237.611 168.598C237.768 168.185 237.847 167.727 237.847 167.222C237.847 166.724 237.77 166.274 237.616 165.874C237.465 165.471 237.236 165.152 236.928 164.919C236.623 164.682 236.24 164.563 235.778 164.563C235.335 164.563 234.963 164.675 234.661 164.9C234.36 165.122 234.132 165.432 233.978 165.833C233.824 166.23 233.747 166.693 233.747 167.222ZM240.603 170.768V163.677H241.692V170.768H240.603ZM241.157 162.495C240.944 162.495 240.761 162.423 240.607 162.278C240.456 162.133 240.381 161.959 240.381 161.756C240.381 161.553 240.456 161.379 240.607 161.235C240.761 161.09 240.944 161.018 241.157 161.018C241.369 161.018 241.551 161.09 241.701 161.235C241.855 161.379 241.932 161.553 241.932 161.756C241.932 161.959 241.855 162.133 241.701 162.278C241.551 162.423 241.369 162.495 241.157 162.495ZM244.777 161.313V170.768H243.688V161.313H244.777ZM247.862 161.313V170.768H246.773V161.313H247.862ZM252.831 170.915C252.147 170.915 251.558 170.765 251.062 170.463C250.57 170.158 250.19 169.734 249.922 169.189C249.657 168.641 249.525 168.004 249.525 167.278C249.525 166.551 249.657 165.911 249.922 165.357C250.19 164.8 250.562 164.366 251.039 164.055C251.519 163.741 252.08 163.584 252.72 163.584C253.089 163.584 253.454 163.646 253.814 163.769C254.174 163.892 254.502 164.092 254.797 164.369C255.093 164.643 255.328 165.006 255.503 165.459C255.679 165.911 255.767 166.468 255.767 167.13V167.591H250.301V166.65H254.659C254.659 166.25 254.579 165.893 254.419 165.579C254.262 165.265 254.037 165.017 253.745 164.835C253.455 164.654 253.114 164.563 252.72 164.563C252.286 164.563 251.91 164.671 251.593 164.886C251.279 165.099 251.038 165.376 250.869 165.717C250.699 166.059 250.615 166.425 250.615 166.816V167.444C250.615 167.979 250.707 168.433 250.892 168.806C251.079 169.175 251.339 169.457 251.672 169.65C252.004 169.841 252.39 169.937 252.831 169.937C253.117 169.937 253.375 169.897 253.606 169.817C253.84 169.734 254.042 169.61 254.211 169.447C254.38 169.281 254.511 169.075 254.603 168.829L255.656 169.124C255.545 169.481 255.359 169.795 255.097 170.066C254.836 170.334 254.512 170.543 254.128 170.694C253.743 170.841 253.311 170.915 252.831 170.915ZM260.508 163.677V164.6H256.833V163.677H260.508ZM257.904 161.978H258.994V168.736C258.994 169.044 259.038 169.275 259.127 169.429C259.22 169.58 259.337 169.681 259.478 169.734C259.623 169.783 259.775 169.807 259.935 169.807C260.055 169.807 260.154 169.801 260.231 169.789C260.308 169.774 260.369 169.761 260.415 169.752L260.637 170.731C260.563 170.758 260.46 170.786 260.328 170.814C260.195 170.845 260.028 170.86 259.824 170.86C259.517 170.86 259.215 170.794 258.92 170.661C258.627 170.529 258.384 170.328 258.19 170.057C257.999 169.786 257.904 169.444 257.904 169.032V161.978Z" fill="black"/>
<path d="M113 141.133H32C25.0964 141.133 19.5 146.729 19.5 153.633V162.766C19.5 169.669 25.0964 175.266 32 175.266H113C119.904 175.266 125.5 169.669 125.5 162.766V153.633C125.5 146.729 119.904 141.133 113 141.133Z" fill="#F1F1F1" stroke="#181818" stroke-width="0.5"/>
<path d="M30.5568 162.734V154.007H33.5057C34.1903 154.007 34.75 154.131 35.1847 154.378C35.6222 154.622 35.946 154.953 36.1562 155.371C36.3665 155.788 36.4716 156.254 36.4716 156.768C36.4716 157.283 36.3665 157.75 36.1562 158.17C35.9489 158.591 35.6278 158.926 35.1932 159.176C34.7585 159.423 34.2017 159.547 33.5227 159.547H31.4091V158.609H33.4886C33.9574 158.609 34.3338 158.528 34.6179 158.367C34.902 158.205 35.108 157.986 35.2358 157.71C35.3665 157.432 35.4318 157.118 35.4318 156.768C35.4318 156.419 35.3665 156.107 35.2358 155.831C35.108 155.555 34.9006 155.34 34.6136 155.183C34.3267 155.024 33.946 154.945 33.4716 154.945H31.6136V162.734H30.5568ZM38.0376 162.734V156.189H39.0092V157.178H39.0774C39.1967 156.854 39.4126 156.591 39.7251 156.389C40.0376 156.188 40.3899 156.087 40.782 156.087C40.8558 156.087 40.9482 156.088 41.0589 156.091C41.1697 156.094 41.2536 156.098 41.3104 156.104V157.126C41.2763 157.118 41.1982 157.105 41.076 157.088C40.9567 157.068 40.8303 157.058 40.6967 157.058C40.3786 157.058 40.0945 157.125 39.8445 157.259C39.5973 157.389 39.4013 157.571 39.2564 157.804C39.1143 158.034 39.0433 158.297 39.0433 158.592V162.734H38.0376ZM45.0476 162.871C44.4169 162.871 43.8729 162.732 43.4155 162.453C42.9609 162.172 42.6101 161.78 42.3629 161.277C42.1186 160.771 41.9964 160.183 41.9964 159.513C41.9964 158.842 42.1186 158.251 42.3629 157.74C42.6101 157.226 42.9538 156.825 43.3942 156.538C43.8374 156.249 44.3544 156.104 44.9453 156.104C45.2862 156.104 45.6229 156.161 45.9553 156.274C46.2876 156.388 46.5902 156.572 46.8629 156.828C47.1357 157.081 47.353 157.416 47.5149 157.834C47.6768 158.251 47.7578 158.766 47.7578 159.376V159.803H42.7124V158.933H46.7351C46.7351 158.564 46.6612 158.234 46.5135 157.945C46.3686 157.655 46.1612 157.426 45.8913 157.259C45.6243 157.091 45.3089 157.007 44.9453 157.007C44.5447 157.007 44.1982 157.107 43.9055 157.305C43.6158 157.501 43.3928 157.757 43.2365 158.072C43.0803 158.388 43.0021 158.726 43.0021 159.087V159.666C43.0021 160.161 43.0874 160.58 43.2578 160.923C43.4311 161.264 43.6712 161.524 43.978 161.703C44.2848 161.879 44.6413 161.967 45.0476 161.967C45.3118 161.967 45.5504 161.93 45.7635 161.857C45.9794 161.78 46.1655 161.666 46.3217 161.516C46.478 161.362 46.5987 161.172 46.6839 160.945L47.6555 161.217C47.5533 161.547 47.3814 161.837 47.1399 162.087C46.8984 162.334 46.6001 162.527 46.245 162.666C45.8899 162.803 45.4908 162.871 45.0476 162.871ZM50.2933 158.797V162.734H49.2876V156.189H50.2592V157.212H50.3445C50.4979 156.879 50.7308 156.612 51.0433 156.411C51.3558 156.206 51.7592 156.104 52.2536 156.104C52.6967 156.104 53.0845 156.195 53.4169 156.376C53.7493 156.555 54.0078 156.828 54.1925 157.195C54.3771 157.558 54.4695 158.018 54.4695 158.575V162.734H53.4638V158.643C53.4638 158.129 53.3303 157.729 53.0632 157.442C52.7962 157.152 52.4297 157.007 51.9638 157.007C51.6428 157.007 51.3558 157.077 51.103 157.216C50.853 157.355 50.6555 157.558 50.5107 157.825C50.3658 158.092 50.2933 158.416 50.2933 158.797ZM58.7788 162.871C58.2333 162.871 57.7518 162.733 57.3342 162.457C56.9165 162.179 56.5898 161.787 56.354 161.281C56.1183 160.773 56.0004 160.172 56.0004 159.479C56.0004 158.791 56.1183 158.195 56.354 157.689C56.5898 157.183 56.918 156.793 57.3384 156.517C57.7589 156.242 58.2447 156.104 58.7958 156.104C59.2219 156.104 59.5586 156.175 59.8058 156.317C60.0558 156.456 60.2461 156.615 60.3768 156.794C60.5103 156.97 60.614 157.115 60.6879 157.229H60.7731V154.007H61.7788V162.734H60.8072V161.729H60.6879C60.614 161.848 60.5089 161.999 60.3725 162.18C60.2362 162.359 60.0415 162.52 59.7887 162.662C59.5359 162.801 59.1992 162.871 58.7788 162.871ZM58.9151 161.967C59.3185 161.967 59.6594 161.862 59.9379 161.652C60.2163 161.439 60.4279 161.145 60.5728 160.77C60.7177 160.392 60.7901 159.956 60.7901 159.462C60.7901 158.973 60.7191 158.545 60.5771 158.179C60.435 157.81 60.2248 157.523 59.9464 157.318C59.668 157.111 59.3242 157.007 58.9151 157.007C58.489 157.007 58.1339 157.117 57.8498 157.335C57.5685 157.551 57.3569 157.845 57.2148 158.217C57.0756 158.587 57.006 159.001 57.006 159.462C57.006 159.928 57.0771 160.351 57.2191 160.732C57.364 161.109 57.5771 161.411 57.8583 161.635C58.1424 161.857 58.4947 161.967 58.9151 161.967ZM63.7603 162.734V156.189H64.7319V157.178H64.8001C64.9194 156.854 65.1353 156.591 65.4478 156.389C65.7603 156.188 66.1126 156.087 66.5046 156.087C66.5785 156.087 66.6708 156.088 66.7816 156.091C66.8924 156.094 66.9762 156.098 67.033 156.104V157.126C66.9989 157.118 66.9208 157.105 66.7987 157.088C66.6793 157.068 66.5529 157.058 66.4194 157.058C66.1012 157.058 65.8171 157.125 65.5671 157.259C65.32 157.389 65.1239 157.571 64.979 157.804C64.837 158.034 64.766 158.297 64.766 158.592V162.734H63.7603ZM70.7702 162.871C70.1396 162.871 69.5955 162.732 69.1381 162.453C68.6836 162.172 68.3327 161.78 68.0856 161.277C67.8413 160.771 67.7191 160.183 67.7191 159.513C67.7191 158.842 67.8413 158.251 68.0856 157.74C68.3327 157.226 68.6765 156.825 69.1168 156.538C69.56 156.249 70.0771 156.104 70.668 156.104C71.0089 156.104 71.3455 156.161 71.6779 156.274C72.0103 156.388 72.3129 156.572 72.5856 156.828C72.8583 157.081 73.0756 157.416 73.2376 157.834C73.3995 158.251 73.4805 158.766 73.4805 159.376V159.803H68.435V158.933H72.4577C72.4577 158.564 72.3839 158.234 72.2362 157.945C72.0913 157.655 71.8839 157.426 71.614 157.259C71.3469 157.091 71.0316 157.007 70.668 157.007C70.2674 157.007 69.9208 157.107 69.6282 157.305C69.3384 157.501 69.1154 157.757 68.9592 158.072C68.8029 158.388 68.7248 158.726 68.7248 159.087V159.666C68.7248 160.161 68.81 160.58 68.9805 160.923C69.1538 161.264 69.3938 161.524 69.7006 161.703C70.0075 161.879 70.364 161.967 70.7702 161.967C71.0344 161.967 71.2731 161.93 71.4862 161.857C71.7021 161.78 71.8881 161.666 72.0444 161.516C72.2006 161.362 72.3214 161.172 72.4066 160.945L73.3782 161.217C73.2759 161.547 73.104 161.837 72.8626 162.087C72.6211 162.334 72.3228 162.527 71.9677 162.666C71.6126 162.803 71.2134 162.871 70.7702 162.871ZM79.391 154.007V162.734H78.3853V154.007H79.391ZM82.1023 154.007V157.007H81.1648V154.007H82.1023ZM85.8192 162.888C85.4045 162.888 85.0281 162.81 84.69 162.653C84.3519 162.494 84.0835 162.266 83.8846 161.967C83.6857 161.666 83.5863 161.303 83.5863 160.876C83.5863 160.501 83.6602 160.197 83.8079 159.965C83.9556 159.729 84.1531 159.544 84.4002 159.411C84.6474 159.277 84.9201 159.178 85.2184 159.112C85.5195 159.044 85.8221 158.99 86.1261 158.95C86.5238 158.899 86.8462 158.861 87.0934 158.835C87.3434 158.807 87.5252 158.76 87.6388 158.695C87.7553 158.629 87.8136 158.516 87.8136 158.354V158.32C87.8136 157.899 87.6985 157.572 87.4684 157.34C87.2411 157.107 86.896 156.99 86.4329 156.99C85.9528 156.99 85.5763 157.095 85.3036 157.305C85.0309 157.516 84.8391 157.74 84.7283 157.979L83.7738 157.638C83.9442 157.24 84.1715 156.93 84.4556 156.709C84.7425 156.484 85.055 156.328 85.3931 156.24C85.734 156.149 86.0692 156.104 86.3988 156.104C86.609 156.104 86.8505 156.129 87.1232 156.18C87.3988 156.229 87.6644 156.33 87.9201 156.483C88.1786 156.636 88.3931 156.868 88.5636 157.178C88.734 157.487 88.8192 157.902 88.8192 158.422V162.734H87.8136V161.848H87.7624C87.6942 161.99 87.5806 162.142 87.4215 162.304C87.2624 162.466 87.0508 162.604 86.7866 162.717C86.5224 162.831 86.1999 162.888 85.8192 162.888ZM85.9727 161.984C86.3704 161.984 86.7056 161.906 86.9783 161.75C87.2539 161.594 87.4613 161.392 87.6005 161.145C87.7425 160.898 87.8136 160.638 87.8136 160.365V159.445C87.771 159.496 87.6772 159.543 87.5323 159.585C87.3903 159.625 87.2255 159.661 87.038 159.692C86.8533 159.72 86.6729 159.746 86.4968 159.768C86.3235 159.788 86.1829 159.805 86.0749 159.82C85.8136 159.854 85.5692 159.909 85.342 159.986C85.1175 160.06 84.9357 160.172 84.7965 160.322C84.6602 160.47 84.592 160.672 84.592 160.928C84.592 161.277 84.7212 161.541 84.9798 161.72C85.2411 161.896 85.5721 161.984 85.9727 161.984ZM95.7727 156.189L93.3523 162.734H92.3295L89.9091 156.189H91L92.8068 161.405H92.875L94.6818 156.189H95.7727ZM97.1001 162.734V156.189H98.1058V162.734H97.1001ZM97.6115 155.098C97.4155 155.098 97.2464 155.031 97.1044 154.898C96.9652 154.764 96.8956 154.604 96.8956 154.416C96.8956 154.229 96.9652 154.068 97.1044 153.935C97.2464 153.801 97.4155 153.734 97.6115 153.734C97.8075 153.734 97.9751 153.801 98.1143 153.935C98.2564 154.068 98.3274 154.229 98.3274 154.416C98.3274 154.604 98.2564 154.764 98.1143 154.898C97.9751 155.031 97.8075 155.098 97.6115 155.098ZM102.607 162.871C102.016 162.871 101.498 162.73 101.051 162.449C100.608 162.168 100.262 161.774 100.012 161.268C99.7646 160.763 99.641 160.172 99.641 159.496C99.641 158.814 99.7646 158.219 100.012 157.71C100.262 157.202 100.608 156.807 101.051 156.526C101.498 156.244 102.016 156.104 102.607 156.104C103.198 156.104 103.715 156.244 104.158 156.526C104.604 156.807 104.951 157.202 105.198 157.71C105.448 158.219 105.573 158.814 105.573 159.496C105.573 160.172 105.448 160.763 105.198 161.268C104.951 161.774 104.604 162.168 104.158 162.449C103.715 162.73 103.198 162.871 102.607 162.871ZM102.607 161.967C103.056 161.967 103.425 161.852 103.715 161.622C104.005 161.392 104.219 161.09 104.358 160.715C104.498 160.34 104.567 159.933 104.567 159.496C104.567 159.058 104.498 158.651 104.358 158.273C104.219 157.895 104.005 157.59 103.715 157.357C103.425 157.124 103.056 157.007 102.607 157.007C102.158 157.007 101.789 157.124 101.499 157.357C101.209 157.59 100.995 157.895 100.855 158.273C100.716 158.651 100.647 159.058 100.647 159.496C100.647 159.933 100.716 160.34 100.855 160.715C100.995 161.09 101.209 161.392 101.499 161.622C101.789 161.852 102.158 161.967 102.607 161.967ZM108.114 158.797V162.734H107.108V156.189H108.08V157.212H108.165C108.318 156.879 108.551 156.612 108.864 156.411C109.176 156.206 109.58 156.104 110.074 156.104C110.517 156.104 110.905 156.195 111.237 156.376C111.57 156.555 111.828 156.828 112.013 157.195C112.197 157.558 112.29 158.018 112.29 158.575V162.734H111.284V158.643C111.284 158.129 111.151 157.729 110.884 157.442C110.616 157.152 110.25 157.007 109.784 157.007C109.463 157.007 109.176 157.077 108.923 157.216C108.673 157.355 108.476 157.558 108.331 157.825C108.186 158.092 108.114 158.416 108.114 158.797Z" fill="black"/>
<path d="M72.5 220.51C78.5751 220.51 83.5 215.585 83.5 209.51C83.5 203.435 78.5751 198.51 72.5 198.51C66.4249 198.51 61.5 203.435 61.5 209.51C61.5 215.585 66.4249 220.51 72.5 220.51Z" stroke="#222222"/>
<path d="M72.5 215.51C75.8137 215.51 78.5 212.824 78.5 209.51C78.5 206.196 75.8137 203.51 72.5 203.51C69.1863 203.51 66.5 206.196 66.5 209.51C66.5 212.824 69.1863 215.51 72.5 215.51Z" fill="#222222" stroke="#111111"/>
<path d="M72.5 67V87" stroke="#181818"/>
<path d="M68.5 77L72.5 87L76.5 77L72.5 81L68.5 77Z" fill="#181818" stroke="#181818"/>
<path d="M72.5 121.133V141.133" stroke="#181818"/>
<path d="M68.5 131.133L72.5 141.133L76.5 131.133L72.5 135.133L68.5 131.133Z" fill="#181818" stroke="#181818"/>
<path d="M72.5 175.266V198.51" stroke="#181818"/>
<path d="M68.5 188.51L72.5 198.51L76.5 188.51L72.5 192.51L68.5 188.51Z" fill="#181818" stroke="#181818"/>
</svg>
