<svg width="376" height="112" viewBox="0 0 376 112" fill="none" xmlns="http://www.w3.org/2000/svg">
<rect x="0.5" y="0.5" width="375" height="111" rx="24.5" stroke="black"/>
<path d="M21.5298 18.5455L23.815 25.7287H23.9027L26.1925 18.5455H28.4084L25.1491 28H22.5732L19.3093 18.5455H21.5298ZM31.9134 28.1385C31.1963 28.1385 30.5762 27.9862 30.053 27.6815C29.5329 27.3737 29.1312 26.9459 28.8481 26.3981C28.565 25.8472 28.4234 25.2086 28.4234 24.4822C28.4234 23.7498 28.565 23.1096 28.8481 22.5618C29.1312 22.0109 29.5329 21.5831 30.053 21.2784C30.5762 20.9706 31.1963 20.8168 31.9134 20.8168C32.6305 20.8168 33.2491 20.9706 33.7693 21.2784C34.2925 21.5831 34.6956 22.0109 34.9788 22.5618C35.2619 23.1096 35.4035 23.7498 35.4035 24.4822C35.4035 25.2086 35.2619 25.8472 34.9788 26.3981C34.6956 26.9459 34.2925 27.3737 33.7693 27.6815C33.2491 27.9862 32.6305 28.1385 31.9134 28.1385ZM31.9227 26.6151C32.2489 26.6151 32.5213 26.5227 32.7398 26.3381C32.9583 26.1503 33.123 25.8949 33.2338 25.5717C33.3476 25.2486 33.4046 24.8808 33.4046 24.4684C33.4046 24.056 33.3476 23.6882 33.2338 23.3651C33.123 23.0419 32.9583 22.7865 32.7398 22.5987C32.5213 22.411 32.2489 22.3171 31.9227 22.3171C31.5934 22.3171 31.3164 22.411 31.0917 22.5987C30.8701 22.7865 30.7024 23.0419 30.5885 23.3651C30.4777 23.6882 30.4223 24.056 30.4223 24.4684C30.4223 24.8808 30.4777 25.2486 30.5885 25.5717C30.7024 25.8949 30.8701 26.1503 31.0917 26.3381C31.3164 26.5227 31.5934 26.6151 31.9227 26.6151ZM37.6679 30.6591C37.4186 30.6591 37.1847 30.6391 36.9662 30.5991C36.7507 30.5621 36.5722 30.5144 36.4307 30.456L36.8738 28.9879C37.1047 29.0587 37.3124 29.0972 37.4971 29.1033C37.6848 29.1095 37.8464 29.0664 37.9818 28.9741C38.1203 28.8817 38.2326 28.7248 38.3188 28.5032L38.4342 28.2031L35.8905 20.9091H37.9587L39.4268 26.1165H39.5006L40.9825 20.9091H43.0645L40.3085 28.7663C40.1762 29.148 39.9961 29.4804 39.7684 29.7635C39.5437 30.0497 39.259 30.2698 38.9143 30.4237C38.5696 30.5806 38.1541 30.6591 37.6679 30.6591ZM45.9025 28.1339C45.4501 28.1339 45.0469 28.0554 44.693 27.8984C44.3391 27.7384 44.059 27.503 43.8528 27.1921C43.6497 26.8782 43.5481 26.4873 43.5481 26.0195C43.5481 25.6256 43.6204 25.2947 43.7651 25.027C43.9097 24.7592 44.1067 24.5438 44.356 24.3807C44.6053 24.2176 44.8884 24.0945 45.2054 24.0114C45.5255 23.9283 45.861 23.8698 46.2118 23.8359C46.6242 23.7929 46.9566 23.7528 47.209 23.7159C47.4614 23.6759 47.6445 23.6174 47.7583 23.5405C47.8722 23.4635 47.9292 23.3497 47.9292 23.1989V23.1712C47.9292 22.8788 47.8368 22.6526 47.6522 22.4925C47.4706 22.3325 47.2121 22.2525 46.8766 22.2525C46.5227 22.2525 46.2411 22.331 46.0318 22.4879C45.8225 22.6418 45.684 22.8357 45.6163 23.0696L43.7974 22.9219C43.8897 22.491 44.0713 22.1186 44.3422 21.8047C44.613 21.4877 44.9623 21.2446 45.3901 21.0753C45.821 20.9029 46.3195 20.8168 46.8858 20.8168C47.2798 20.8168 47.6568 20.8629 48.0169 20.9553C48.38 21.0476 48.7016 21.1907 48.9817 21.3846C49.2649 21.5785 49.488 21.8278 49.6511 22.1325C49.8142 22.4341 49.8958 22.7957 49.8958 23.2173V28H48.0307V27.0167H47.9753C47.8614 27.2383 47.7091 27.4337 47.5183 27.603C47.3275 27.7692 47.0982 27.9 46.8304 27.9954C46.5627 28.0877 46.2534 28.1339 45.9025 28.1339ZM46.4657 26.7766C46.755 26.7766 47.0105 26.7197 47.2321 26.6058C47.4537 26.4889 47.6275 26.3319 47.7537 26.1349C47.8799 25.938 47.943 25.7148 47.943 25.4656V24.7131C47.8815 24.7531 47.7968 24.79 47.6891 24.8239C47.5845 24.8546 47.466 24.8839 47.3336 24.9116C47.2013 24.9362 47.069 24.9593 46.9366 24.9808C46.8043 24.9993 46.6842 25.0162 46.5765 25.0316C46.3457 25.0655 46.1441 25.1193 45.9718 25.1932C45.7994 25.267 45.6655 25.3671 45.5701 25.4933C45.4747 25.6164 45.427 25.7702 45.427 25.9549C45.427 26.2227 45.524 26.4273 45.7179 26.5689C45.9148 26.7074 46.1641 26.7766 46.4657 26.7766ZM54.6161 30.8068C53.979 30.8068 53.4328 30.7191 52.9773 30.5437C52.5249 30.3713 52.1648 30.1359 51.897 29.8374C51.6293 29.5388 51.4554 29.2034 51.3754 28.831L53.1942 28.5863C53.2496 28.7279 53.3374 28.8602 53.4574 28.9833C53.5774 29.1064 53.7359 29.2049 53.9329 29.2788C54.1329 29.3557 54.3761 29.3942 54.6623 29.3942C55.0901 29.3942 55.4425 29.2895 55.7195 29.0803C55.9995 28.8741 56.1396 28.5278 56.1396 28.0415V26.7443H56.0565C55.9703 26.9413 55.841 27.1275 55.6687 27.3029C55.4963 27.4783 55.2747 27.6214 55.0039 27.7322C54.7331 27.843 54.4099 27.8984 54.0344 27.8984C53.502 27.8984 53.0173 27.7753 52.5803 27.5291C52.1463 27.2798 51.8001 26.8997 51.5415 26.3888C51.2861 25.8749 51.1584 25.2255 51.1584 24.4407C51.1584 23.6374 51.2892 22.9665 51.5508 22.4279C51.8124 21.8893 52.1602 21.4862 52.5941 21.2184C53.0311 20.9506 53.5097 20.8168 54.0298 20.8168C54.4268 20.8168 54.7592 20.8845 55.027 21.0199C55.2947 21.1522 55.5102 21.3184 55.6733 21.5185C55.8395 21.7154 55.9672 21.9093 56.0565 22.1001H56.1303V20.9091H58.0831V28.0692C58.0831 28.6725 57.9354 29.1772 57.6399 29.5835C57.3445 29.9897 56.9351 30.2944 56.4119 30.4975C55.8918 30.7037 55.2932 30.8068 54.6161 30.8068ZM54.6577 26.4212C54.9747 26.4212 55.2424 26.3427 55.4609 26.1857C55.6825 26.0257 55.8518 25.7979 55.9688 25.5025C56.0888 25.204 56.1488 24.8469 56.1488 24.4315C56.1488 24.016 56.0903 23.6559 55.9734 23.3512C55.8564 23.0434 55.6871 22.8049 55.4656 22.6357C55.244 22.4664 54.9747 22.3817 54.6577 22.3817C54.3345 22.3817 54.0621 22.4695 53.8406 22.6449C53.619 22.8172 53.4512 23.0573 53.3374 23.3651C53.2235 23.6728 53.1665 24.0283 53.1665 24.4315C53.1665 24.8408 53.2235 25.1947 53.3374 25.4933C53.4543 25.7887 53.622 26.018 53.8406 26.1811C54.0621 26.3411 54.3345 26.4212 54.6577 26.4212ZM62.8796 28.1385C62.1502 28.1385 61.5224 27.9908 60.9961 27.6953C60.4729 27.3968 60.0697 26.9751 59.7866 26.4304C59.5034 25.8826 59.3619 25.2347 59.3619 24.4869C59.3619 23.7575 59.5034 23.1173 59.7866 22.5664C60.0697 22.0155 60.4683 21.5862 60.9822 21.2784C61.4993 20.9706 62.1056 20.8168 62.8011 20.8168C63.2689 20.8168 63.7044 20.8922 64.1076 21.043C64.5138 21.1907 64.8678 21.4138 65.1694 21.7124C65.4741 22.0109 65.7111 22.3864 65.8803 22.8388C66.0496 23.2881 66.1342 23.8144 66.1342 24.4176V24.9577H60.1467V23.739H64.283C64.283 23.4558 64.2215 23.205 64.0984 22.9865C63.9753 22.768 63.8045 22.5972 63.5859 22.4741C63.3705 22.3479 63.1197 22.2848 62.8335 22.2848C62.5349 22.2848 62.2702 22.354 62.0394 22.4925C61.8117 22.628 61.6332 22.8111 61.5039 23.0419C61.3746 23.2696 61.3085 23.5236 61.3054 23.8036V24.9624C61.3054 25.3132 61.37 25.6164 61.4993 25.8718C61.6316 26.1272 61.8178 26.3242 62.0579 26.4627C62.2979 26.6012 62.5826 26.6705 62.9119 26.6705C63.1304 26.6705 63.3305 26.6397 63.5121 26.5781C63.6937 26.5166 63.8491 26.4242 63.9783 26.3011C64.1076 26.178 64.2061 26.0272 64.2738 25.8487L66.0927 25.9688C66.0004 26.4058 65.8111 26.7874 65.5249 27.1136C65.2417 27.4368 64.8755 27.6892 64.4261 27.8707C63.9799 28.0492 63.4644 28.1385 62.8796 28.1385ZM67.4176 28V20.9091H69.3242V22.1463H69.3981C69.5273 21.7062 69.7443 21.3738 70.049 21.1491C70.3537 20.9214 70.7045 20.8075 71.1016 20.8075C71.2 20.8075 71.3062 20.8137 71.4201 20.826C71.534 20.8383 71.634 20.8552 71.7202 20.8768V22.6218C71.6278 22.5941 71.5001 22.5695 71.337 22.5479C71.1739 22.5264 71.0246 22.5156 70.8892 22.5156C70.5999 22.5156 70.3414 22.5787 70.1136 22.7049C69.889 22.828 69.7105 23.0004 69.5781 23.2219C69.4489 23.4435 69.3842 23.699 69.3842 23.9883V28H67.4176Z" fill="black"/>
<path d="M34 77C39.5228 77 44 72.5228 44 67C44 61.4772 39.5228 57 34 57C28.4772 57 24 61.4772 24 67C24 72.5228 28.4772 77 34 77Z" fill="#222222" stroke="#222222"/>
<path d="M170 50H78C71.0964 50 65.5 55.5964 65.5 62.5V71.6328C65.5 78.5364 71.0964 84.1328 78 84.1328H170C176.904 84.1328 182.5 78.5364 182.5 71.6328V62.5C182.5 55.5964 176.904 50 170 50Z" fill="#F1F1F1" stroke="#181818" stroke-width="0.5"/>
<path d="M76.9148 71.6016H75.8068L79.0114 62.8743H80.1023L83.3068 71.6016H82.1989L79.5909 64.255H79.5227L76.9148 71.6016ZM77.3239 68.1925H81.7898V69.13H77.3239V68.1925ZM85.5355 62.8743V71.6016H84.5298V62.8743H85.5355ZM88.3832 62.8743V71.6016H87.3775V62.8743H88.3832ZM92.9695 71.738C92.3388 71.738 91.7947 71.5988 91.3374 71.3203C90.8828 71.0391 90.532 70.647 90.2848 70.1442C90.0405 69.6385 89.9183 69.0505 89.9183 68.38C89.9183 67.7095 90.0405 67.1186 90.2848 66.6073C90.532 66.0931 90.8757 65.6925 91.3161 65.4056C91.7592 65.1158 92.2763 64.9709 92.8672 64.9709C93.2081 64.9709 93.5447 65.0277 93.8771 65.1414C94.2095 65.255 94.5121 65.4397 94.7848 65.6953C95.0575 65.9482 95.2749 66.2834 95.4368 66.701C95.5987 67.1186 95.6797 67.6328 95.6797 68.2436V68.6698H90.6342V67.8005H94.657C94.657 67.4311 94.5831 67.1016 94.4354 66.8118C94.2905 66.522 94.0831 66.2934 93.8132 66.1257C93.5462 65.9581 93.2308 65.8743 92.8672 65.8743C92.4666 65.8743 92.12 65.9738 91.8274 66.1726C91.5376 66.3686 91.3146 66.6243 91.1584 66.9397C91.0021 67.255 90.924 67.5931 90.924 67.9539V68.5334C90.924 69.0277 91.0092 69.4468 91.1797 69.7905C91.353 70.1314 91.593 70.3914 91.8999 70.5703C92.2067 70.7465 92.5632 70.8345 92.9695 70.8345C93.2337 70.8345 93.4723 70.7976 93.6854 70.7238C93.9013 70.647 94.0874 70.5334 94.2436 70.3828C94.3999 70.2294 94.5206 70.0391 94.6058 69.8118L95.5774 70.0845C95.4751 70.4141 95.3033 70.7039 95.0618 70.9539C94.8203 71.201 94.522 71.3942 94.1669 71.5334C93.8118 71.6698 93.4126 71.738 92.9695 71.738ZM97.2095 71.6016V65.0561H98.1811V66.0448H98.2493C98.3686 65.7209 98.5845 65.4581 98.897 65.2564C99.2095 65.0547 99.5618 64.9539 99.9538 64.9539C100.028 64.9539 100.12 64.9553 100.231 64.9581C100.342 64.961 100.425 64.9652 100.482 64.9709V65.9936C100.448 65.9851 100.37 65.9723 100.248 65.9553C100.129 65.9354 100.002 65.9255 99.8686 65.9255C99.5504 65.9255 99.2663 65.9922 99.0163 66.1257C98.7692 66.2564 98.5732 66.4382 98.4283 66.6712C98.2862 66.9013 98.2152 67.1641 98.2152 67.4595V71.6016H97.2095ZM106.975 71.755C106.561 71.755 106.184 71.6769 105.846 71.5206C105.508 71.3615 105.24 71.1328 105.041 70.8345C104.842 70.5334 104.743 70.1698 104.743 69.7436C104.743 69.3686 104.816 69.0647 104.964 68.8317C105.112 68.5959 105.309 68.4113 105.556 68.2777C105.804 68.1442 106.076 68.0448 106.375 67.9794C106.676 67.9113 106.978 67.8573 107.282 67.8175C107.68 67.7664 108.002 67.728 108.25 67.7024C108.5 67.674 108.681 67.6272 108.795 67.5618C108.912 67.4965 108.97 67.3828 108.97 67.2209V67.1868C108.97 66.7664 108.855 66.4397 108.625 66.2067C108.397 65.9738 108.052 65.8573 107.589 65.8573C107.109 65.8573 106.733 65.9624 106.46 66.1726C106.187 66.3828 105.995 66.6073 105.885 66.8459L104.93 66.505C105.1 66.1073 105.328 65.7976 105.612 65.576C105.899 65.3516 106.211 65.1953 106.549 65.1073C106.89 65.0164 107.225 64.9709 107.555 64.9709C107.765 64.9709 108.007 64.9965 108.279 65.0476C108.555 65.0959 108.821 65.1968 109.076 65.3502C109.335 65.5036 109.549 65.7351 109.72 66.0448C109.89 66.3544 109.975 66.7692 109.975 67.2891V71.6016H108.97V70.7152H108.919C108.85 70.8573 108.737 71.0093 108.578 71.1712C108.419 71.3331 108.207 71.4709 107.943 71.5845C107.679 71.6982 107.356 71.755 106.975 71.755ZM107.129 70.8516C107.527 70.8516 107.862 70.7735 108.135 70.6172C108.41 70.461 108.618 70.2593 108.757 70.0121C108.899 69.7649 108.97 69.505 108.97 69.2323V68.3118C108.927 68.363 108.833 68.4098 108.689 68.4524C108.547 68.4922 108.382 68.5277 108.194 68.559C108.01 68.5874 107.829 68.613 107.653 68.6357C107.48 68.6556 107.339 68.6726 107.231 68.6868C106.97 68.7209 106.725 68.7763 106.498 68.853C106.274 68.9269 106.092 69.0391 105.953 69.1897C105.816 69.3374 105.748 69.5391 105.748 69.7948C105.748 70.1442 105.877 70.4084 106.136 70.5874C106.397 70.7635 106.728 70.8516 107.129 70.8516ZM107.197 64.1698L105.868 62.1925H107.044L108.083 64.1698H107.197ZM116.192 62.8743V71.6016H115.186V62.8743H116.192ZM118.903 62.8743V65.8743H117.966V62.8743H118.903ZM122.62 71.755C122.205 71.755 121.829 71.6769 121.491 71.5206C121.153 71.3615 120.884 71.1328 120.685 70.8345C120.487 70.5334 120.387 70.1698 120.387 69.7436C120.387 69.3686 120.461 69.0647 120.609 68.8317C120.756 68.5959 120.954 68.4113 121.201 68.2777C121.448 68.1442 121.721 68.0448 122.019 67.9794C122.32 67.9113 122.623 67.8573 122.927 67.8175C123.325 67.7664 123.647 67.728 123.894 67.7024C124.144 67.674 124.326 67.6272 124.44 67.5618C124.556 67.4965 124.614 67.3828 124.614 67.2209V67.1868C124.614 66.7664 124.499 66.4397 124.269 66.2067C124.042 65.9738 123.697 65.8573 123.234 65.8573C122.754 65.8573 122.377 65.9624 122.104 66.1726C121.832 66.3828 121.64 66.6073 121.529 66.8459L120.575 66.505C120.745 66.1073 120.972 65.7976 121.256 65.576C121.543 65.3516 121.856 65.1953 122.194 65.1073C122.535 65.0164 122.87 64.9709 123.2 64.9709C123.41 64.9709 123.651 64.9965 123.924 65.0476C124.2 65.0959 124.465 65.1968 124.721 65.3502C124.979 65.5036 125.194 65.7351 125.364 66.0448C125.535 66.3544 125.62 66.7692 125.62 67.2891V71.6016H124.614V70.7152H124.563C124.495 70.8573 124.381 71.0093 124.222 71.1712C124.063 71.3331 123.852 71.4709 123.587 71.5845C123.323 71.6982 123.001 71.755 122.62 71.755ZM122.773 70.8516C123.171 70.8516 123.506 70.7735 123.779 70.6172C124.055 70.461 124.262 70.2593 124.401 70.0121C124.543 69.7649 124.614 69.505 124.614 69.2323V68.3118C124.572 68.363 124.478 68.4098 124.333 68.4524C124.191 68.4922 124.026 68.5277 123.839 68.559C123.654 68.5874 123.474 68.613 123.298 68.6357C123.124 68.6556 122.984 68.6726 122.876 68.6868C122.614 68.7209 122.37 68.7763 122.143 68.853C121.918 68.9269 121.737 69.0391 121.597 69.1897C121.461 69.3374 121.393 69.5391 121.393 69.7948C121.393 70.1442 121.522 70.4084 121.781 70.5874C122.042 70.7635 122.373 70.8516 122.773 70.8516ZM130.2 71.738C129.569 71.738 129.025 71.5988 128.568 71.3203C128.113 71.0391 127.762 70.647 127.515 70.1442C127.271 69.6385 127.149 69.0505 127.149 68.38C127.149 67.7095 127.271 67.1186 127.515 66.6073C127.762 66.0931 128.106 65.6925 128.547 65.4056C128.99 65.1158 129.507 64.9709 130.098 64.9709C130.439 64.9709 130.775 65.0277 131.108 65.1414C131.44 65.255 131.743 65.4397 132.015 65.6953C132.288 65.9482 132.505 66.2834 132.667 66.701C132.829 67.1186 132.91 67.6328 132.91 68.2436V68.6698H127.865V67.8005H131.887C131.887 67.4311 131.814 67.1016 131.666 66.8118C131.521 66.522 131.314 66.2934 131.044 66.1257C130.777 65.9581 130.461 65.8743 130.098 65.8743C129.697 65.8743 129.35 65.9738 129.058 66.1726C128.768 66.3686 128.545 66.6243 128.389 66.9397C128.233 67.255 128.154 67.5931 128.154 67.9539V68.5334C128.154 69.0277 128.24 69.4468 128.41 69.7905C128.583 70.1314 128.824 70.3914 129.13 70.5703C129.437 70.7465 129.794 70.8345 130.2 70.8345C130.464 70.8345 130.703 70.7976 130.916 70.7238C131.132 70.647 131.318 70.5334 131.474 70.3828C131.63 70.2294 131.751 70.0391 131.836 69.8118L132.808 70.0845C132.706 70.4141 132.534 70.7039 132.292 70.9539C132.051 71.201 131.752 71.3942 131.397 71.5334C131.042 71.6698 130.643 71.738 130.2 71.738ZM129.586 64.1698L130.626 62.1925H131.802L130.473 64.1698H129.586ZM134.44 71.6016V65.0561H135.412V66.0448H135.48C135.599 65.7209 135.815 65.4581 136.127 65.2564C136.44 65.0547 136.792 64.9539 137.184 64.9539C137.258 64.9539 137.35 64.9553 137.461 64.9581C137.572 64.961 137.656 64.9652 137.713 64.9709V65.9936C137.679 65.9851 137.6 65.9723 137.478 65.9553C137.359 65.9354 137.233 65.9255 137.099 65.9255C136.781 65.9255 136.497 65.9922 136.247 66.1257C136 66.2564 135.804 66.4382 135.659 66.6712C135.517 66.9013 135.446 67.1641 135.446 67.4595V71.6016H134.44ZM141.365 71.738C140.774 71.738 140.255 71.5973 139.809 71.3161C139.366 71.0348 139.02 70.6414 138.77 70.1357C138.522 69.63 138.399 69.0391 138.399 68.363C138.399 67.6811 138.522 67.086 138.77 66.5774C139.02 66.0689 139.366 65.674 139.809 65.3928C140.255 65.1115 140.774 64.9709 141.365 64.9709C141.956 64.9709 142.473 65.1115 142.916 65.3928C143.362 65.674 143.708 66.0689 143.956 66.5774C144.206 67.086 144.331 67.6811 144.331 68.363C144.331 69.0391 144.206 69.63 143.956 70.1357C143.708 70.6414 143.362 71.0348 142.916 71.3161C142.473 71.5973 141.956 71.738 141.365 71.738ZM141.365 70.8345C141.814 70.8345 142.183 70.7195 142.473 70.4894C142.762 70.2593 142.977 69.9567 143.116 69.5817C143.255 69.2067 143.325 68.8005 143.325 68.363C143.325 67.9255 143.255 67.5178 143.116 67.1399C142.977 66.7621 142.762 66.4567 142.473 66.2238C142.183 65.9908 141.814 65.8743 141.365 65.8743C140.916 65.8743 140.547 65.9908 140.257 66.2238C139.967 66.4567 139.752 66.7621 139.613 67.1399C139.474 67.5178 139.404 67.9255 139.404 68.363C139.404 68.8005 139.474 69.2067 139.613 69.5817C139.752 69.9567 139.967 70.2593 140.257 70.4894C140.547 70.7195 140.916 70.8345 141.365 70.8345ZM145.866 74.0561V65.0561H146.837V66.0959H146.957C147.031 65.9823 147.133 65.8374 147.263 65.6613C147.397 65.4823 147.587 65.3232 147.835 65.184C148.085 65.0419 148.423 64.9709 148.849 64.9709C149.4 64.9709 149.886 65.1087 150.306 65.3843C150.727 65.6598 151.055 66.0505 151.29 66.5561C151.526 67.0618 151.644 67.6584 151.644 68.3459C151.644 69.0391 151.526 69.6399 151.29 70.1485C151.055 70.6541 150.728 71.0462 150.31 71.3246C149.893 71.6002 149.411 71.738 148.866 71.738C148.445 71.738 148.109 71.6684 147.856 71.5291C147.603 71.3871 147.408 71.2266 147.272 71.0476C147.136 70.8658 147.031 70.7152 146.957 70.5959H146.871V74.0561H145.866ZM146.854 68.3289C146.854 68.8232 146.927 69.2593 147.072 69.6371C147.217 70.0121 147.428 70.3061 147.707 70.5192C147.985 70.7294 148.326 70.8345 148.729 70.8345C149.15 70.8345 149.501 70.7238 149.782 70.5022C150.066 70.2777 150.279 69.9766 150.421 69.5988C150.566 69.2181 150.638 68.7948 150.638 68.3289C150.638 67.8686 150.567 67.4539 150.425 67.0845C150.286 66.7124 150.075 66.4184 149.79 66.2024C149.509 65.9837 149.156 65.8743 148.729 65.8743C148.32 65.8743 147.977 65.978 147.698 66.1854C147.42 66.3899 147.21 66.6769 147.067 67.0462C146.925 67.4127 146.854 67.8402 146.854 68.3289ZM155.837 71.738C155.246 71.738 154.728 71.5973 154.282 71.3161C153.839 71.0348 153.492 70.6414 153.242 70.1357C152.995 69.63 152.871 69.0391 152.871 68.363C152.871 67.6811 152.995 67.086 153.242 66.5774C153.492 66.0689 153.839 65.674 154.282 65.3928C154.728 65.1115 155.246 64.9709 155.837 64.9709C156.428 64.9709 156.945 65.1115 157.388 65.3928C157.835 65.674 158.181 66.0689 158.428 66.5774C158.678 67.086 158.803 67.6811 158.803 68.363C158.803 69.0391 158.678 69.63 158.428 70.1357C158.181 70.6414 157.835 71.0348 157.388 71.3161C156.945 71.5973 156.428 71.738 155.837 71.738ZM155.837 70.8345C156.286 70.8345 156.656 70.7195 156.945 70.4894C157.235 70.2593 157.45 69.9567 157.589 69.5817C157.728 69.2067 157.798 68.8005 157.798 68.363C157.798 67.9255 157.728 67.5178 157.589 67.1399C157.45 66.7621 157.235 66.4567 156.945 66.2238C156.656 65.9908 156.286 65.8743 155.837 65.8743C155.388 65.8743 155.019 65.9908 154.729 66.2238C154.44 66.4567 154.225 66.7621 154.086 67.1399C153.947 67.5178 153.877 67.9255 153.877 68.363C153.877 68.8005 153.947 69.2067 154.086 69.5817C154.225 69.9567 154.44 70.2593 154.729 70.4894C155.019 70.7195 155.388 70.8345 155.837 70.8345ZM160.338 71.6016V65.0561H161.31V66.0448H161.378C161.498 65.7209 161.713 65.4581 162.026 65.2564C162.338 65.0547 162.691 64.9539 163.083 64.9539C163.157 64.9539 163.249 64.9553 163.36 64.9581C163.471 64.961 163.554 64.9652 163.611 64.9709V65.9936C163.577 65.9851 163.499 65.9723 163.377 65.9553C163.257 65.9354 163.131 65.9255 162.998 65.9255C162.679 65.9255 162.395 65.9922 162.145 66.1257C161.898 66.2564 161.702 66.4382 161.557 66.6712C161.415 66.9013 161.344 67.1641 161.344 67.4595V71.6016H160.338ZM168.06 65.0561V65.9084H164.668V65.0561H168.06ZM165.657 63.488H166.662V69.7266C166.662 70.0107 166.703 70.2238 166.786 70.3658C166.871 70.505 166.979 70.5988 167.11 70.647C167.243 70.6925 167.384 70.7152 167.532 70.7152C167.642 70.7152 167.733 70.7095 167.804 70.6982C167.875 70.684 167.932 70.6726 167.975 70.6641L168.179 71.5675C168.111 71.5931 168.016 71.6186 167.894 71.6442C167.772 71.6726 167.617 71.6868 167.429 71.6868C167.145 71.6868 166.867 71.6257 166.594 71.5036C166.324 71.3814 166.1 71.1953 165.921 70.9453C165.745 70.6953 165.657 70.38 165.657 69.9993V63.488Z" fill="black"/>
<path d="M297 50H216C209.096 50 203.5 55.5964 203.5 62.5V71.6328C203.5 78.5364 209.096 84.1328 216 84.1328H297C303.904 84.1328 309.5 78.5364 309.5 71.6328V62.5C309.5 55.5964 303.904 50 297 50Z" fill="#F1F1F1" stroke="#181818" stroke-width="0.5"/>
<path d="M214.557 71.6016V62.8744H217.506C218.19 62.8744 218.75 62.9979 219.185 63.2451C219.622 63.4894 219.946 63.8204 220.156 64.238C220.366 64.6556 220.472 65.1215 220.472 65.6357C220.472 66.1499 220.366 66.6172 220.156 67.0377C219.949 67.4582 219.628 67.7934 219.193 68.0434C218.759 68.2905 218.202 68.4141 217.523 68.4141H215.409V67.4766H217.489C217.957 67.4766 218.334 67.3957 218.618 67.2337C218.902 67.0718 219.108 66.853 219.236 66.5775C219.366 66.2991 219.432 65.9851 219.432 65.6357C219.432 65.2863 219.366 64.9738 219.236 64.6982C219.108 64.4226 218.901 64.2067 218.614 64.0505C218.327 63.8914 217.946 63.8119 217.472 63.8119H215.614V71.6016H214.557ZM222.038 71.6016V65.0562H223.009V66.0448H223.077C223.197 65.7209 223.413 65.4582 223.725 65.2565C224.038 65.0547 224.39 64.9539 224.782 64.9539C224.856 64.9539 224.948 64.9553 225.059 64.9582C225.17 64.961 225.254 64.9653 225.31 64.9709V65.9937C225.276 65.9851 225.198 65.9724 225.076 65.9553C224.957 65.9354 224.83 65.9255 224.697 65.9255C224.379 65.9255 224.094 65.9922 223.844 66.1258C223.597 66.2565 223.401 66.4383 223.256 66.6712C223.114 66.9013 223.043 67.1641 223.043 67.4596V71.6016H222.038ZM229.048 71.738C228.417 71.738 227.873 71.5988 227.415 71.3204C226.961 71.0391 226.61 70.6471 226.363 70.1442C226.119 69.6386 225.996 69.0505 225.996 68.38C225.996 67.7096 226.119 67.1187 226.363 66.6073C226.61 66.0931 226.954 65.6925 227.394 65.4056C227.837 65.1158 228.354 64.9709 228.945 64.9709C229.286 64.9709 229.623 65.0278 229.955 65.1414C230.288 65.255 230.59 65.4397 230.863 65.6954C231.136 65.9482 231.353 66.2834 231.515 66.7011C231.677 67.1187 231.758 67.6329 231.758 68.2437V68.6698H226.712V67.8005H230.735C230.735 67.4312 230.661 67.1016 230.513 66.8119C230.369 66.5221 230.161 66.2934 229.891 66.1258C229.624 65.9582 229.309 65.8744 228.945 65.8744C228.545 65.8744 228.198 65.9738 227.906 66.1726C227.616 66.3687 227.393 66.6244 227.237 66.9397C227.08 67.255 227.002 67.5931 227.002 67.9539V68.5334C227.002 69.0278 227.087 69.4468 227.258 69.7905C227.431 70.1315 227.671 70.3914 227.978 70.5704C228.285 70.7465 228.641 70.8346 229.048 70.8346C229.312 70.8346 229.55 70.7976 229.763 70.7238C229.979 70.6471 230.165 70.5334 230.322 70.3829C230.478 70.2295 230.599 70.0391 230.684 69.8119L231.656 70.0846C231.553 70.4141 231.381 70.7039 231.14 70.9539C230.898 71.2011 230.6 71.3942 230.245 71.5334C229.89 71.6698 229.491 71.738 229.048 71.738ZM234.293 67.6641V71.6016H233.288V65.0562H234.259V66.0789H234.344C234.498 65.7465 234.731 65.4795 235.043 65.2778C235.356 65.0732 235.759 64.9709 236.254 64.9709C236.697 64.9709 237.085 65.0619 237.417 65.2437C237.749 65.4226 238.008 65.6954 238.192 66.0619C238.377 66.4255 238.469 66.8857 238.469 67.4425V71.6016H237.464V67.5107C237.464 66.9965 237.33 66.5959 237.063 66.309C236.796 66.0192 236.43 65.8744 235.964 65.8744C235.643 65.8744 235.356 65.944 235.103 66.0832C234.853 66.2224 234.656 66.4255 234.511 66.6925C234.366 66.9596 234.293 67.2834 234.293 67.6641ZM242.779 71.738C242.233 71.738 241.752 71.6002 241.334 71.3246C240.917 71.0462 240.59 70.6542 240.354 70.1485C240.118 69.64 240 69.0391 240 68.3459C240 67.6584 240.118 67.0619 240.354 66.5562C240.59 66.0505 240.918 65.6599 241.338 65.3843C241.759 65.1087 242.245 64.9709 242.796 64.9709C243.222 64.9709 243.559 65.042 243.806 65.184C244.056 65.3232 244.246 65.4823 244.377 65.6613C244.51 65.8374 244.614 65.9823 244.688 66.0959H244.773V62.8744H245.779V71.6016H244.807V70.5959H244.688C244.614 70.7153 244.509 70.8658 244.373 71.0476C244.236 71.2266 244.042 71.3871 243.789 71.5292C243.536 71.6684 243.199 71.738 242.779 71.738ZM242.915 70.8346C243.319 70.8346 243.659 70.7295 243.938 70.5192C244.216 70.3062 244.428 70.0121 244.573 69.6371C244.718 69.2593 244.79 68.8232 244.79 68.3289C244.79 67.8403 244.719 67.4127 244.577 67.0462C244.435 66.6769 244.225 66.39 243.946 66.1854C243.668 65.978 243.324 65.8744 242.915 65.8744C242.489 65.8744 242.134 65.9837 241.85 66.2025C241.569 66.4184 241.357 66.7124 241.215 67.0846C241.076 67.4539 241.006 67.8687 241.006 68.3289C241.006 68.7948 241.077 69.2181 241.219 69.5988C241.364 69.9766 241.577 70.2778 241.858 70.5022C242.142 70.7238 242.495 70.8346 242.915 70.8346ZM247.76 71.6016V65.0562H248.732V66.0448H248.8C248.919 65.7209 249.135 65.4582 249.448 65.2565C249.76 65.0547 250.113 64.9539 250.505 64.9539C250.578 64.9539 250.671 64.9553 250.782 64.9582C250.892 64.961 250.976 64.9653 251.033 64.9709V65.9937C250.999 65.9851 250.921 65.9724 250.799 65.9553C250.679 65.9354 250.553 65.9255 250.419 65.9255C250.101 65.9255 249.817 65.9922 249.567 66.1258C249.32 66.2565 249.124 66.4383 248.979 66.6712C248.837 66.9013 248.766 67.1641 248.766 67.4596V71.6016H247.76ZM254.77 71.738C254.14 71.738 253.596 71.5988 253.138 71.3204C252.684 71.0391 252.333 70.6471 252.086 70.1442C251.841 69.6386 251.719 69.0505 251.719 68.38C251.719 67.7096 251.841 67.1187 252.086 66.6073C252.333 66.0931 252.676 65.6925 253.117 65.4056C253.56 65.1158 254.077 64.9709 254.668 64.9709C255.009 64.9709 255.346 65.0278 255.678 65.1414C256.01 65.255 256.313 65.4397 256.586 65.6954C256.858 65.9482 257.076 66.2834 257.238 66.7011C257.4 67.1187 257.48 67.6329 257.48 68.2437V68.6698H252.435V67.8005H256.458C256.458 67.4312 256.384 67.1016 256.236 66.8119C256.091 66.5221 255.884 66.2934 255.614 66.1258C255.347 65.9582 255.032 65.8744 254.668 65.8744C254.267 65.8744 253.921 65.9738 253.628 66.1726C253.338 66.3687 253.115 66.6244 252.959 66.9397C252.803 67.255 252.725 67.5931 252.725 67.9539V68.5334C252.725 69.0278 252.81 69.4468 252.98 69.7905C253.154 70.1315 253.394 70.3914 253.701 70.5704C254.007 70.7465 254.364 70.8346 254.77 70.8346C255.034 70.8346 255.273 70.7976 255.486 70.7238C255.702 70.6471 255.888 70.5334 256.044 70.3829C256.201 70.2295 256.321 70.0391 256.407 69.8119L257.378 70.0846C257.276 70.4141 257.104 70.7039 256.863 70.9539C256.621 71.2011 256.323 71.3942 255.968 71.5334C255.613 71.6698 255.213 71.738 254.77 71.738ZM263.391 62.8744V71.6016H262.385V62.8744H263.391ZM266.102 62.8744V65.8744H265.165V62.8744H266.102ZM269.819 71.755C269.404 71.755 269.028 71.6769 268.69 71.5207C268.352 71.3616 268.083 71.1329 267.885 70.8346C267.686 70.5334 267.586 70.1698 267.586 69.7437C267.586 69.3687 267.66 69.0647 267.808 68.8317C267.956 68.5959 268.153 68.4113 268.4 68.2778C268.647 68.1442 268.92 68.0448 269.218 67.9795C269.52 67.9113 269.822 67.8573 270.126 67.8175C270.524 67.7664 270.846 67.728 271.093 67.7025C271.343 67.6741 271.525 67.6272 271.639 67.5619C271.755 67.4965 271.814 67.3829 271.814 67.2209V67.1869C271.814 66.7664 271.699 66.4397 271.468 66.2067C271.241 65.9738 270.896 65.8573 270.433 65.8573C269.953 65.8573 269.576 65.9624 269.304 66.1726C269.031 66.3829 268.839 66.6073 268.728 66.8459L267.774 66.505C267.944 66.1073 268.172 65.7976 268.456 65.5761C268.743 65.3516 269.055 65.1954 269.393 65.1073C269.734 65.0164 270.069 64.9709 270.399 64.9709C270.609 64.9709 270.85 64.9965 271.123 65.0476C271.399 65.0959 271.664 65.1968 271.92 65.3502C272.179 65.5036 272.393 65.7351 272.564 66.0448C272.734 66.3545 272.819 66.7692 272.819 67.2891V71.6016H271.814V70.7153H271.762C271.694 70.8573 271.581 71.0093 271.422 71.1712C271.262 71.3332 271.051 71.4709 270.787 71.5846C270.522 71.6982 270.2 71.755 269.819 71.755ZM269.973 70.8516C270.37 70.8516 270.706 70.7735 270.978 70.6172C271.254 70.461 271.461 70.2593 271.6 70.0121C271.743 69.765 271.814 69.505 271.814 69.2323V68.3119C271.771 68.363 271.677 68.4099 271.532 68.4525C271.39 68.4922 271.225 68.5278 271.038 68.559C270.853 68.5874 270.673 68.613 270.497 68.6357C270.324 68.6556 270.183 68.6726 270.075 68.6869C269.814 68.7209 269.569 68.7763 269.342 68.853C269.118 68.9269 268.936 69.0391 268.797 69.1897C268.66 69.3374 268.592 69.5391 268.592 69.7948C268.592 70.1442 268.721 70.4084 268.98 70.5874C269.241 70.7636 269.572 70.8516 269.973 70.8516ZM279.773 65.0562L277.352 71.6016H276.33L273.909 65.0562H275L276.807 70.2721H276.875L278.682 65.0562H279.773ZM281.1 71.6016V65.0562H282.106V71.6016H281.1ZM281.612 63.9653C281.415 63.9653 281.246 63.8985 281.104 63.765C280.965 63.6315 280.896 63.4709 280.896 63.2834C280.896 63.0959 280.965 62.9354 281.104 62.8019C281.246 62.6684 281.415 62.6016 281.612 62.6016C281.808 62.6016 281.975 62.6684 282.114 62.8019C282.256 62.9354 282.327 63.0959 282.327 63.2834C282.327 63.4709 282.256 63.6315 282.114 63.765C281.975 63.8985 281.808 63.9653 281.612 63.9653ZM286.607 71.738C286.016 71.738 285.498 71.5974 285.051 71.3161C284.608 71.0349 284.262 70.6414 284.012 70.1357C283.765 69.63 283.641 69.0391 283.641 68.363C283.641 67.6812 283.765 67.086 284.012 66.5775C284.262 66.069 284.608 65.6741 285.051 65.3928C285.498 65.1116 286.016 64.9709 286.607 64.9709C287.198 64.9709 287.715 65.1116 288.158 65.3928C288.604 65.6741 288.951 66.069 289.198 66.5775C289.448 67.086 289.573 67.6812 289.573 68.363C289.573 69.0391 289.448 69.63 289.198 70.1357C288.951 70.6414 288.604 71.0349 288.158 71.3161C287.715 71.5974 287.198 71.738 286.607 71.738ZM286.607 70.8346C287.056 70.8346 287.425 70.7195 287.715 70.4894C288.005 70.2593 288.219 69.9567 288.358 69.5817C288.498 69.2067 288.567 68.8005 288.567 68.363C288.567 67.9255 288.498 67.5178 288.358 67.14C288.219 66.7621 288.005 66.4567 287.715 66.2238C287.425 65.9908 287.056 65.8744 286.607 65.8744C286.158 65.8744 285.789 65.9908 285.499 66.2238C285.209 66.4567 284.995 66.7621 284.855 67.14C284.716 67.5178 284.647 67.9255 284.647 68.363C284.647 68.8005 284.716 69.2067 284.855 69.5817C284.995 69.9567 285.209 70.2593 285.499 70.4894C285.789 70.7195 286.158 70.8346 286.607 70.8346ZM292.114 67.6641V71.6016H291.108V65.0562H292.08V66.0789H292.165C292.318 65.7465 292.551 65.4795 292.864 65.2778C293.176 65.0732 293.58 64.9709 294.074 64.9709C294.517 64.9709 294.905 65.0619 295.237 65.2437C295.57 65.4226 295.828 65.6954 296.013 66.0619C296.197 66.4255 296.29 66.8857 296.29 67.4425V71.6016H295.284V67.5107C295.284 66.9965 295.151 66.5959 294.884 66.309C294.616 66.0192 294.25 65.8744 293.784 65.8744C293.463 65.8744 293.176 65.944 292.923 66.0832C292.673 66.2224 292.476 66.4255 292.331 66.6925C292.186 66.9596 292.114 67.2834 292.114 67.6641Z" fill="black"/>
<path d="M341.5 80C347.575 80 352.5 75.0751 352.5 69C352.5 62.9249 347.575 58 341.5 58C335.425 58 330.5 62.9249 330.5 69C330.5 75.0751 335.425 80 341.5 80Z" stroke="#222222"/>
<path d="M341.5 75C344.814 75 347.5 72.3137 347.5 69C347.5 65.6863 344.814 63 341.5 63C338.186 63 335.5 65.6863 335.5 69C335.5 72.3137 338.186 75 341.5 75Z" fill="#222222" stroke="#111111"/>
<path d="M44.5 67H64.5" stroke="#181818"/>
<path d="M54.5 71L64.5 67L54.5 63L58.5 67L54.5 71Z" fill="#181818" stroke="#181818"/>
<path d="M182.5 67H202.5" stroke="#181818"/>
<path d="M192.5 71L202.5 67L192.5 63L196.5 67L192.5 71Z" fill="#181818" stroke="#181818"/>
<path d="M309.5 69H329.5" stroke="#181818"/>
<path d="M319.5 73L329.5 69L319.5 65L323.5 69L319.5 73Z" fill="#181818" stroke="#181818"/>
</svg>
