<svg width="324" height="177" viewBox="0 0 324 177" fill="none" xmlns="http://www.w3.org/2000/svg">
<rect x="0.5" y="0.5" width="323" height="176" rx="24.5" stroke="black"/>
<path d="M21.5298 18.5455L23.815 25.7287H23.9027L26.1925 18.5455H28.4084L25.1491 28H22.5732L19.3093 18.5455H21.5298ZM31.9134 28.1385C31.1963 28.1385 30.5762 27.9862 30.053 27.6815C29.5329 27.3737 29.1312 26.9459 28.8481 26.3981C28.565 25.8472 28.4234 25.2086 28.4234 24.4822C28.4234 23.7498 28.565 23.1096 28.8481 22.5618C29.1312 22.0109 29.5329 21.5831 30.053 21.2784C30.5762 20.9706 31.1963 20.8168 31.9134 20.8168C32.6305 20.8168 33.2491 20.9706 33.7693 21.2784C34.2925 21.5831 34.6956 22.0109 34.9788 22.5618C35.2619 23.1096 35.4035 23.7498 35.4035 24.4822C35.4035 25.2086 35.2619 25.8472 34.9788 26.3981C34.6956 26.9459 34.2925 27.3737 33.7693 27.6815C33.2491 27.9862 32.6305 28.1385 31.9134 28.1385ZM31.9227 26.6151C32.2489 26.6151 32.5213 26.5227 32.7398 26.3381C32.9583 26.1503 33.123 25.8949 33.2338 25.5717C33.3476 25.2486 33.4046 24.8808 33.4046 24.4684C33.4046 24.056 33.3476 23.6882 33.2338 23.3651C33.123 23.0419 32.9583 22.7865 32.7398 22.5987C32.5213 22.411 32.2489 22.3171 31.9227 22.3171C31.5934 22.3171 31.3164 22.411 31.0917 22.5987C30.8701 22.7865 30.7024 23.0419 30.5885 23.3651C30.4777 23.6882 30.4223 24.056 30.4223 24.4684C30.4223 24.8808 30.4777 25.2486 30.5885 25.5717C30.7024 25.8949 30.8701 26.1503 31.0917 26.3381C31.3164 26.5227 31.5934 26.6151 31.9227 26.6151ZM37.6679 30.6591C37.4186 30.6591 37.1847 30.6391 36.9662 30.5991C36.7507 30.5621 36.5722 30.5144 36.4307 30.456L36.8738 28.9879C37.1047 29.0587 37.3124 29.0972 37.4971 29.1033C37.6848 29.1095 37.8464 29.0664 37.9818 28.9741C38.1203 28.8817 38.2326 28.7248 38.3188 28.5032L38.4342 28.2031L35.8905 20.9091H37.9587L39.4268 26.1165H39.5006L40.9825 20.9091H43.0645L40.3085 28.7663C40.1762 29.148 39.9961 29.4804 39.7684 29.7635C39.5437 30.0497 39.259 30.2698 38.9143 30.4237C38.5696 30.5806 38.1541 30.6591 37.6679 30.6591ZM45.9025 28.1339C45.4501 28.1339 45.0469 28.0554 44.693 27.8984C44.3391 27.7384 44.059 27.503 43.8528 27.1921C43.6497 26.8782 43.5481 26.4873 43.5481 26.0195C43.5481 25.6256 43.6204 25.2947 43.7651 25.027C43.9097 24.7592 44.1067 24.5438 44.356 24.3807C44.6053 24.2176 44.8884 24.0945 45.2054 24.0114C45.5255 23.9283 45.861 23.8698 46.2118 23.8359C46.6242 23.7929 46.9566 23.7528 47.209 23.7159C47.4614 23.6759 47.6445 23.6174 47.7583 23.5405C47.8722 23.4635 47.9292 23.3497 47.9292 23.1989V23.1712C47.9292 22.8788 47.8368 22.6526 47.6522 22.4925C47.4706 22.3325 47.2121 22.2525 46.8766 22.2525C46.5227 22.2525 46.2411 22.331 46.0318 22.4879C45.8225 22.6418 45.684 22.8357 45.6163 23.0696L43.7974 22.9219C43.8897 22.491 44.0713 22.1186 44.3422 21.8047C44.613 21.4877 44.9623 21.2446 45.3901 21.0753C45.821 20.9029 46.3195 20.8168 46.8858 20.8168C47.2798 20.8168 47.6568 20.8629 48.0169 20.9553C48.38 21.0476 48.7016 21.1907 48.9817 21.3846C49.2649 21.5785 49.488 21.8278 49.6511 22.1325C49.8142 22.4341 49.8958 22.7957 49.8958 23.2173V28H48.0307V27.0167H47.9753C47.8614 27.2383 47.7091 27.4337 47.5183 27.603C47.3275 27.7692 47.0982 27.9 46.8304 27.9954C46.5627 28.0877 46.2534 28.1339 45.9025 28.1339ZM46.4657 26.7766C46.755 26.7766 47.0105 26.7197 47.2321 26.6058C47.4537 26.4889 47.6275 26.3319 47.7537 26.1349C47.8799 25.938 47.943 25.7148 47.943 25.4656V24.7131C47.8815 24.7531 47.7968 24.79 47.6891 24.8239C47.5845 24.8546 47.466 24.8839 47.3336 24.9116C47.2013 24.9362 47.069 24.9593 46.9366 24.9808C46.8043 24.9993 46.6842 25.0162 46.5765 25.0316C46.3457 25.0655 46.1441 25.1193 45.9718 25.1932C45.7994 25.267 45.6655 25.3671 45.5701 25.4933C45.4747 25.6164 45.427 25.7702 45.427 25.9549C45.427 26.2227 45.524 26.4273 45.7179 26.5689C45.9148 26.7074 46.1641 26.7766 46.4657 26.7766ZM54.6161 30.8068C53.979 30.8068 53.4328 30.7191 52.9773 30.5437C52.5249 30.3713 52.1648 30.1359 51.897 29.8374C51.6293 29.5388 51.4554 29.2034 51.3754 28.831L53.1942 28.5863C53.2496 28.7279 53.3374 28.8602 53.4574 28.9833C53.5774 29.1064 53.7359 29.2049 53.9329 29.2788C54.1329 29.3557 54.3761 29.3942 54.6623 29.3942C55.0901 29.3942 55.4425 29.2895 55.7195 29.0803C55.9995 28.8741 56.1396 28.5278 56.1396 28.0415V26.7443H56.0565C55.9703 26.9413 55.841 27.1275 55.6687 27.3029C55.4963 27.4783 55.2747 27.6214 55.0039 27.7322C54.7331 27.843 54.4099 27.8984 54.0344 27.8984C53.502 27.8984 53.0173 27.7753 52.5803 27.5291C52.1463 27.2798 51.8001 26.8997 51.5415 26.3888C51.2861 25.8749 51.1584 25.2255 51.1584 24.4407C51.1584 23.6374 51.2892 22.9665 51.5508 22.4279C51.8124 21.8893 52.1602 21.4862 52.5941 21.2184C53.0311 20.9506 53.5097 20.8168 54.0298 20.8168C54.4268 20.8168 54.7592 20.8845 55.027 21.0199C55.2947 21.1522 55.5102 21.3184 55.6733 21.5185C55.8395 21.7154 55.9672 21.9093 56.0565 22.1001H56.1303V20.9091H58.0831V28.0692C58.0831 28.6725 57.9354 29.1772 57.6399 29.5835C57.3445 29.9897 56.9351 30.2944 56.4119 30.4975C55.8918 30.7037 55.2932 30.8068 54.6161 30.8068ZM54.6577 26.4212C54.9747 26.4212 55.2424 26.3427 55.4609 26.1857C55.6825 26.0257 55.8518 25.7979 55.9688 25.5025C56.0888 25.204 56.1488 24.8469 56.1488 24.4315C56.1488 24.016 56.0903 23.6559 55.9734 23.3512C55.8564 23.0434 55.6871 22.8049 55.4656 22.6357C55.244 22.4664 54.9747 22.3817 54.6577 22.3817C54.3345 22.3817 54.0621 22.4695 53.8406 22.6449C53.619 22.8172 53.4512 23.0573 53.3374 23.3651C53.2235 23.6728 53.1665 24.0283 53.1665 24.4315C53.1665 24.8408 53.2235 25.1947 53.3374 25.4933C53.4543 25.7887 53.622 26.018 53.8406 26.1811C54.0621 26.3411 54.3345 26.4212 54.6577 26.4212ZM62.8796 28.1385C62.1502 28.1385 61.5224 27.9908 60.9961 27.6953C60.4729 27.3968 60.0697 26.9751 59.7866 26.4304C59.5034 25.8826 59.3619 25.2347 59.3619 24.4869C59.3619 23.7575 59.5034 23.1173 59.7866 22.5664C60.0697 22.0155 60.4683 21.5862 60.9822 21.2784C61.4993 20.9706 62.1056 20.8168 62.8011 20.8168C63.2689 20.8168 63.7044 20.8922 64.1076 21.043C64.5138 21.1907 64.8678 21.4138 65.1694 21.7124C65.4741 22.0109 65.7111 22.3864 65.8803 22.8388C66.0496 23.2881 66.1342 23.8144 66.1342 24.4176V24.9577H60.1467V23.739H64.283C64.283 23.4558 64.2215 23.205 64.0984 22.9865C63.9753 22.768 63.8045 22.5972 63.5859 22.4741C63.3705 22.3479 63.1197 22.2848 62.8335 22.2848C62.5349 22.2848 62.2702 22.354 62.0394 22.4925C61.8117 22.628 61.6332 22.8111 61.5039 23.0419C61.3746 23.2696 61.3085 23.5236 61.3054 23.8036V24.9624C61.3054 25.3132 61.37 25.6164 61.4993 25.8718C61.6316 26.1272 61.8178 26.3242 62.0579 26.4627C62.2979 26.6012 62.5826 26.6705 62.9119 26.6705C63.1304 26.6705 63.3305 26.6397 63.5121 26.5781C63.6937 26.5166 63.8491 26.4242 63.9783 26.3011C64.1076 26.178 64.2061 26.0272 64.2738 25.8487L66.0927 25.9688C66.0004 26.4058 65.8111 26.7874 65.5249 27.1136C65.2417 27.4368 64.8755 27.6892 64.4261 27.8707C63.9799 28.0492 63.4644 28.1385 62.8796 28.1385ZM67.4176 28V20.9091H69.3242V22.1463H69.3981C69.5273 21.7062 69.7443 21.3738 70.049 21.1491C70.3537 20.9214 70.7045 20.8075 71.1016 20.8075C71.2 20.8075 71.3062 20.8137 71.4201 20.826C71.534 20.8383 71.634 20.8552 71.7202 20.8768V22.6218C71.6278 22.5941 71.5001 22.5695 71.337 22.5479C71.1739 22.5264 71.0246 22.5156 70.8892 22.5156C70.5999 22.5156 70.3414 22.5787 70.1136 22.7049C69.889 22.828 69.7105 23.0004 69.5781 23.2219C69.4489 23.4435 69.3842 23.699 69.3842 23.9883V28H67.4176Z" fill="black"/>
<path d="M44 75C49.5228 75 54 70.5228 54 65C54 59.4772 49.5228 55 44 55C38.4772 55 34 59.4772 34 65C34 70.5228 38.4772 75 44 75Z" fill="#222222" stroke="#222222"/>
<path d="M180 48H88C81.0964 48 75.5 53.5964 75.5 60.5V69.6328C75.5 76.5364 81.0964 82.1328 88 82.1328H180C186.904 82.1328 192.5 76.5364 192.5 69.6328V60.5C192.5 53.5964 186.904 48 180 48Z" fill="#F1F1F1" stroke="#181818" stroke-width="0.5"/>
<path d="M86.9148 69.6016H85.8068L89.0114 60.8743H90.1023L93.3068 69.6016H92.1989L89.5909 62.255H89.5227L86.9148 69.6016ZM87.3239 66.1925H91.7898V67.13H87.3239V66.1925ZM95.5355 60.8743V69.6016H94.5298V60.8743H95.5355ZM98.3832 60.8743V69.6016H97.3775V60.8743H98.3832ZM102.969 69.738C102.339 69.738 101.795 69.5988 101.337 69.3203C100.883 69.0391 100.532 68.647 100.285 68.1442C100.04 67.6385 99.9183 67.0505 99.9183 66.38C99.9183 65.7095 100.04 65.1186 100.285 64.6073C100.532 64.0931 100.876 63.6925 101.316 63.4056C101.759 63.1158 102.276 62.9709 102.867 62.9709C103.208 62.9709 103.545 63.0277 103.877 63.1414C104.21 63.255 104.512 63.4397 104.785 63.6953C105.058 63.9482 105.275 64.2834 105.437 64.701C105.599 65.1186 105.68 65.6328 105.68 66.2436V66.6698H100.634V65.8005H104.657C104.657 65.4311 104.583 65.1016 104.435 64.8118C104.29 64.522 104.083 64.2934 103.813 64.1257C103.546 63.9581 103.231 63.8743 102.867 63.8743C102.467 63.8743 102.12 63.9738 101.827 64.1726C101.538 64.3686 101.315 64.6243 101.158 64.9397C101.002 65.255 100.924 65.5931 100.924 65.9539V66.5334C100.924 67.0277 101.009 67.4468 101.18 67.7905C101.353 68.1314 101.593 68.3914 101.9 68.5703C102.207 68.7465 102.563 68.8345 102.969 68.8345C103.234 68.8345 103.472 68.7976 103.685 68.7238C103.901 68.647 104.087 68.5334 104.244 68.3828C104.4 68.2294 104.521 68.0391 104.606 67.8118L105.577 68.0845C105.475 68.4141 105.303 68.7039 105.062 68.9539C104.82 69.201 104.522 69.3942 104.167 69.5334C103.812 69.6698 103.413 69.738 102.969 69.738ZM107.21 69.6016V63.0561H108.181V64.0448H108.249C108.369 63.7209 108.585 63.4581 108.897 63.2564C109.21 63.0547 109.562 62.9539 109.954 62.9539C110.028 62.9539 110.12 62.9553 110.231 62.9581C110.342 62.961 110.425 62.9652 110.482 62.9709V63.9936C110.448 63.9851 110.37 63.9723 110.248 63.9553C110.129 63.9354 110.002 63.9255 109.869 63.9255C109.55 63.9255 109.266 63.9922 109.016 64.1257C108.769 64.2564 108.573 64.4382 108.428 64.6712C108.286 64.9013 108.215 65.1641 108.215 65.4595V69.6016H107.21ZM116.975 69.755C116.561 69.755 116.184 69.6769 115.846 69.5206C115.508 69.3615 115.24 69.1328 115.041 68.8345C114.842 68.5334 114.743 68.1698 114.743 67.7436C114.743 67.3686 114.816 67.0647 114.964 66.8317C115.112 66.5959 115.309 66.4113 115.556 66.2777C115.804 66.1442 116.076 66.0448 116.375 65.9794C116.676 65.9113 116.978 65.8573 117.282 65.8175C117.68 65.7664 118.002 65.728 118.25 65.7024C118.5 65.674 118.681 65.6272 118.795 65.5618C118.912 65.4965 118.97 65.3828 118.97 65.2209V65.1868C118.97 64.7664 118.855 64.4397 118.625 64.2067C118.397 63.9738 118.052 63.8573 117.589 63.8573C117.109 63.8573 116.733 63.9624 116.46 64.1726C116.187 64.3828 115.995 64.6073 115.885 64.8459L114.93 64.505C115.1 64.1073 115.328 63.7976 115.612 63.576C115.899 63.3516 116.211 63.1953 116.549 63.1073C116.89 63.0164 117.225 62.9709 117.555 62.9709C117.765 62.9709 118.007 62.9965 118.279 63.0476C118.555 63.0959 118.821 63.1968 119.076 63.3502C119.335 63.5036 119.549 63.7351 119.72 64.0448C119.89 64.3544 119.975 64.7692 119.975 65.2891V69.6016H118.97V68.7152H118.919C118.85 68.8573 118.737 69.0093 118.578 69.1712C118.419 69.3331 118.207 69.4709 117.943 69.5845C117.679 69.6982 117.356 69.755 116.975 69.755ZM117.129 68.8516C117.527 68.8516 117.862 68.7735 118.135 68.6172C118.41 68.461 118.618 68.2593 118.757 68.0121C118.899 67.7649 118.97 67.505 118.97 67.2323V66.3118C118.927 66.363 118.833 66.4098 118.689 66.4524C118.547 66.4922 118.382 66.5277 118.194 66.559C118.01 66.5874 117.829 66.613 117.653 66.6357C117.48 66.6556 117.339 66.6726 117.231 66.6868C116.97 66.7209 116.725 66.7763 116.498 66.853C116.274 66.9269 116.092 67.0391 115.953 67.1897C115.816 67.3374 115.748 67.5391 115.748 67.7948C115.748 68.1442 115.877 68.4084 116.136 68.5874C116.397 68.7635 116.728 68.8516 117.129 68.8516ZM117.197 62.1698L115.868 60.1925H117.044L118.083 62.1698H117.197ZM126.192 60.8743V69.6016H125.186V60.8743H126.192ZM128.903 60.8743V63.8743H127.966V60.8743H128.903ZM132.62 69.755C132.205 69.755 131.829 69.6769 131.491 69.5206C131.153 69.3615 130.884 69.1328 130.685 68.8345C130.487 68.5334 130.387 68.1698 130.387 67.7436C130.387 67.3686 130.461 67.0647 130.609 66.8317C130.756 66.5959 130.954 66.4113 131.201 66.2777C131.448 66.1442 131.721 66.0448 132.019 65.9794C132.32 65.9113 132.623 65.8573 132.927 65.8175C133.325 65.7664 133.647 65.728 133.894 65.7024C134.144 65.674 134.326 65.6272 134.44 65.5618C134.556 65.4965 134.614 65.3828 134.614 65.2209V65.1868C134.614 64.7664 134.499 64.4397 134.269 64.2067C134.042 63.9738 133.697 63.8573 133.234 63.8573C132.754 63.8573 132.377 63.9624 132.104 64.1726C131.832 64.3828 131.64 64.6073 131.529 64.8459L130.575 64.505C130.745 64.1073 130.972 63.7976 131.256 63.576C131.543 63.3516 131.856 63.1953 132.194 63.1073C132.535 63.0164 132.87 62.9709 133.2 62.9709C133.41 62.9709 133.651 62.9965 133.924 63.0476C134.2 63.0959 134.465 63.1968 134.721 63.3502C134.979 63.5036 135.194 63.7351 135.364 64.0448C135.535 64.3544 135.62 64.7692 135.62 65.2891V69.6016H134.614V68.7152H134.563C134.495 68.8573 134.381 69.0093 134.222 69.1712C134.063 69.3331 133.852 69.4709 133.587 69.5845C133.323 69.6982 133.001 69.755 132.62 69.755ZM132.773 68.8516C133.171 68.8516 133.506 68.7735 133.779 68.6172C134.055 68.461 134.262 68.2593 134.401 68.0121C134.543 67.7649 134.614 67.505 134.614 67.2323V66.3118C134.572 66.363 134.478 66.4098 134.333 66.4524C134.191 66.4922 134.026 66.5277 133.839 66.559C133.654 66.5874 133.474 66.613 133.298 66.6357C133.124 66.6556 132.984 66.6726 132.876 66.6868C132.614 66.7209 132.37 66.7763 132.143 66.853C131.918 66.9269 131.737 67.0391 131.597 67.1897C131.461 67.3374 131.393 67.5391 131.393 67.7948C131.393 68.1442 131.522 68.4084 131.781 68.5874C132.042 68.7635 132.373 68.8516 132.773 68.8516ZM140.2 69.738C139.569 69.738 139.025 69.5988 138.568 69.3203C138.113 69.0391 137.762 68.647 137.515 68.1442C137.271 67.6385 137.149 67.0505 137.149 66.38C137.149 65.7095 137.271 65.1186 137.515 64.6073C137.762 64.0931 138.106 63.6925 138.547 63.4056C138.99 63.1158 139.507 62.9709 140.098 62.9709C140.439 62.9709 140.775 63.0277 141.108 63.1414C141.44 63.255 141.743 63.4397 142.015 63.6953C142.288 63.9482 142.505 64.2834 142.667 64.701C142.829 65.1186 142.91 65.6328 142.91 66.2436V66.6698H137.865V65.8005H141.887C141.887 65.4311 141.814 65.1016 141.666 64.8118C141.521 64.522 141.314 64.2934 141.044 64.1257C140.777 63.9581 140.461 63.8743 140.098 63.8743C139.697 63.8743 139.35 63.9738 139.058 64.1726C138.768 64.3686 138.545 64.6243 138.389 64.9397C138.233 65.255 138.154 65.5931 138.154 65.9539V66.5334C138.154 67.0277 138.24 67.4468 138.41 67.7905C138.583 68.1314 138.824 68.3914 139.13 68.5703C139.437 68.7465 139.794 68.8345 140.2 68.8345C140.464 68.8345 140.703 68.7976 140.916 68.7238C141.132 68.647 141.318 68.5334 141.474 68.3828C141.63 68.2294 141.751 68.0391 141.836 67.8118L142.808 68.0845C142.706 68.4141 142.534 68.7039 142.292 68.9539C142.051 69.201 141.752 69.3942 141.397 69.5334C141.042 69.6698 140.643 69.738 140.2 69.738ZM139.586 62.1698L140.626 60.1925H141.802L140.473 62.1698H139.586ZM144.44 69.6016V63.0561H145.412V64.0448H145.48C145.599 63.7209 145.815 63.4581 146.127 63.2564C146.44 63.0547 146.792 62.9539 147.184 62.9539C147.258 62.9539 147.35 62.9553 147.461 62.9581C147.572 62.961 147.656 62.9652 147.713 62.9709V63.9936C147.679 63.9851 147.6 63.9723 147.478 63.9553C147.359 63.9354 147.233 63.9255 147.099 63.9255C146.781 63.9255 146.497 63.9922 146.247 64.1257C146 64.2564 145.804 64.4382 145.659 64.6712C145.517 64.9013 145.446 65.1641 145.446 65.4595V69.6016H144.44ZM151.365 69.738C150.774 69.738 150.255 69.5973 149.809 69.3161C149.366 69.0348 149.02 68.6414 148.77 68.1357C148.522 67.63 148.399 67.0391 148.399 66.363C148.399 65.6811 148.522 65.086 148.77 64.5774C149.02 64.0689 149.366 63.674 149.809 63.3928C150.255 63.1115 150.774 62.9709 151.365 62.9709C151.956 62.9709 152.473 63.1115 152.916 63.3928C153.362 63.674 153.708 64.0689 153.956 64.5774C154.206 65.086 154.331 65.6811 154.331 66.363C154.331 67.0391 154.206 67.63 153.956 68.1357C153.708 68.6414 153.362 69.0348 152.916 69.3161C152.473 69.5973 151.956 69.738 151.365 69.738ZM151.365 68.8345C151.814 68.8345 152.183 68.7195 152.473 68.4894C152.762 68.2593 152.977 67.9567 153.116 67.5817C153.255 67.2067 153.325 66.8005 153.325 66.363C153.325 65.9255 153.255 65.5178 153.116 65.1399C152.977 64.7621 152.762 64.4567 152.473 64.2238C152.183 63.9908 151.814 63.8743 151.365 63.8743C150.916 63.8743 150.547 63.9908 150.257 64.2238C149.967 64.4567 149.752 64.7621 149.613 65.1399C149.474 65.5178 149.404 65.9255 149.404 66.363C149.404 66.8005 149.474 67.2067 149.613 67.5817C149.752 67.9567 149.967 68.2593 150.257 68.4894C150.547 68.7195 150.916 68.8345 151.365 68.8345ZM155.866 72.0561V63.0561H156.837V64.0959H156.957C157.031 63.9823 157.133 63.8374 157.263 63.6613C157.397 63.4823 157.587 63.3232 157.835 63.184C158.085 63.0419 158.423 62.9709 158.849 62.9709C159.4 62.9709 159.886 63.1087 160.306 63.3843C160.727 63.6598 161.055 64.0505 161.29 64.5561C161.526 65.0618 161.644 65.6584 161.644 66.3459C161.644 67.0391 161.526 67.6399 161.29 68.1485C161.055 68.6541 160.728 69.0462 160.31 69.3246C159.893 69.6002 159.411 69.738 158.866 69.738C158.445 69.738 158.109 69.6684 157.856 69.5291C157.603 69.3871 157.408 69.2266 157.272 69.0476C157.136 68.8658 157.031 68.7152 156.957 68.5959H156.871V72.0561H155.866ZM156.854 66.3289C156.854 66.8232 156.927 67.2593 157.072 67.6371C157.217 68.0121 157.428 68.3061 157.707 68.5192C157.985 68.7294 158.326 68.8345 158.729 68.8345C159.15 68.8345 159.501 68.7238 159.782 68.5022C160.066 68.2777 160.279 67.9766 160.421 67.5988C160.566 67.2181 160.638 66.7948 160.638 66.3289C160.638 65.8686 160.567 65.4539 160.425 65.0845C160.286 64.7124 160.075 64.4184 159.79 64.2024C159.509 63.9837 159.156 63.8743 158.729 63.8743C158.32 63.8743 157.977 63.978 157.698 64.1854C157.42 64.3899 157.21 64.6769 157.067 65.0462C156.925 65.4127 156.854 65.8402 156.854 66.3289ZM165.837 69.738C165.246 69.738 164.728 69.5973 164.282 69.3161C163.839 69.0348 163.492 68.6414 163.242 68.1357C162.995 67.63 162.871 67.0391 162.871 66.363C162.871 65.6811 162.995 65.086 163.242 64.5774C163.492 64.0689 163.839 63.674 164.282 63.3928C164.728 63.1115 165.246 62.9709 165.837 62.9709C166.428 62.9709 166.945 63.1115 167.388 63.3928C167.835 63.674 168.181 64.0689 168.428 64.5774C168.678 65.086 168.803 65.6811 168.803 66.363C168.803 67.0391 168.678 67.63 168.428 68.1357C168.181 68.6414 167.835 69.0348 167.388 69.3161C166.945 69.5973 166.428 69.738 165.837 69.738ZM165.837 68.8345C166.286 68.8345 166.656 68.7195 166.945 68.4894C167.235 68.2593 167.45 67.9567 167.589 67.5817C167.728 67.2067 167.798 66.8005 167.798 66.363C167.798 65.9255 167.728 65.5178 167.589 65.1399C167.45 64.7621 167.235 64.4567 166.945 64.2238C166.656 63.9908 166.286 63.8743 165.837 63.8743C165.388 63.8743 165.019 63.9908 164.729 64.2238C164.44 64.4567 164.225 64.7621 164.086 65.1399C163.947 65.5178 163.877 65.9255 163.877 66.363C163.877 66.8005 163.947 67.2067 164.086 67.5817C164.225 67.9567 164.44 68.2593 164.729 68.4894C165.019 68.7195 165.388 68.8345 165.837 68.8345ZM170.338 69.6016V63.0561H171.31V64.0448H171.378C171.498 63.7209 171.713 63.4581 172.026 63.2564C172.338 63.0547 172.691 62.9539 173.083 62.9539C173.157 62.9539 173.249 62.9553 173.36 62.9581C173.471 62.961 173.554 62.9652 173.611 62.9709V63.9936C173.577 63.9851 173.499 63.9723 173.377 63.9553C173.257 63.9354 173.131 63.9255 172.998 63.9255C172.679 63.9255 172.395 63.9922 172.145 64.1257C171.898 64.2564 171.702 64.4382 171.557 64.6712C171.415 64.9013 171.344 65.1641 171.344 65.4595V69.6016H170.338ZM178.06 63.0561V63.9084H174.668V63.0561H178.06ZM175.657 61.488H176.662V67.7266C176.662 68.0107 176.703 68.2238 176.786 68.3658C176.871 68.505 176.979 68.5988 177.11 68.647C177.243 68.6925 177.384 68.7152 177.532 68.7152C177.642 68.7152 177.733 68.7095 177.804 68.6982C177.875 68.684 177.932 68.6726 177.975 68.6641L178.179 69.5675C178.111 69.5931 178.016 69.6186 177.894 69.6442C177.772 69.6726 177.617 69.6868 177.429 69.6868C177.145 69.6868 176.867 69.6257 176.594 69.5036C176.324 69.3814 176.1 69.1953 175.921 68.9453C175.745 68.6953 175.657 68.38 175.657 67.9993V61.488Z" fill="black"/>
<path d="M232.5 110H151.5C144.596 110 139 115.596 139 122.5V131.633C139 138.536 144.596 144.133 151.5 144.133H232.5C239.404 144.133 245 138.536 245 131.633V122.5C245 115.596 239.404 110 232.5 110Z" fill="#F1F1F1" stroke="#181818" stroke-width="0.5"/>
<path d="M150.057 131.602V122.874H153.006C153.69 122.874 154.25 122.998 154.685 123.245C155.122 123.489 155.446 123.82 155.656 124.238C155.866 124.656 155.972 125.121 155.972 125.636C155.972 126.15 155.866 126.617 155.656 127.038C155.449 127.458 155.128 127.793 154.693 128.043C154.259 128.291 153.702 128.414 153.023 128.414H150.909V127.477H152.989C153.457 127.477 153.834 127.396 154.118 127.234C154.402 127.072 154.608 126.853 154.736 126.577C154.866 126.299 154.932 125.985 154.932 125.636C154.932 125.286 154.866 124.974 154.736 124.698C154.608 124.423 154.401 124.207 154.114 124.05C153.827 123.891 153.446 123.812 152.972 123.812H151.114V131.602H150.057ZM157.538 131.602V125.056H158.509V126.045H158.577C158.697 125.721 158.913 125.458 159.225 125.256C159.538 125.055 159.89 124.954 160.282 124.954C160.356 124.954 160.448 124.955 160.559 124.958C160.67 124.961 160.754 124.965 160.81 124.971V125.994C160.776 125.985 160.698 125.972 160.576 125.955C160.457 125.935 160.33 125.925 160.197 125.925C159.879 125.925 159.594 125.992 159.344 126.126C159.097 126.256 158.901 126.438 158.756 126.671C158.614 126.901 158.543 127.164 158.543 127.46V131.602H157.538ZM164.548 131.738C163.917 131.738 163.373 131.599 162.915 131.32C162.461 131.039 162.11 130.647 161.863 130.144C161.619 129.639 161.496 129.05 161.496 128.38C161.496 127.71 161.619 127.119 161.863 126.607C162.11 126.093 162.454 125.693 162.894 125.406C163.337 125.116 163.854 124.971 164.445 124.971C164.786 124.971 165.123 125.028 165.455 125.141C165.788 125.255 166.09 125.44 166.363 125.695C166.636 125.948 166.853 126.283 167.015 126.701C167.177 127.119 167.258 127.633 167.258 128.244V128.67H162.212V127.8H166.235C166.235 127.431 166.161 127.102 166.013 126.812C165.869 126.522 165.661 126.293 165.391 126.126C165.124 125.958 164.809 125.874 164.445 125.874C164.045 125.874 163.698 125.974 163.406 126.173C163.116 126.369 162.893 126.624 162.737 126.94C162.58 127.255 162.502 127.593 162.502 127.954V128.533C162.502 129.028 162.587 129.447 162.758 129.791C162.931 130.131 163.171 130.391 163.478 130.57C163.785 130.746 164.141 130.835 164.548 130.835C164.812 130.835 165.05 130.798 165.263 130.724C165.479 130.647 165.665 130.533 165.822 130.383C165.978 130.229 166.099 130.039 166.184 129.812L167.156 130.085C167.053 130.414 166.881 130.704 166.64 130.954C166.398 131.201 166.1 131.394 165.745 131.533C165.39 131.67 164.991 131.738 164.548 131.738ZM169.793 127.664V131.602H168.788V125.056H169.759V126.079H169.844C169.998 125.746 170.231 125.479 170.543 125.278C170.856 125.073 171.259 124.971 171.754 124.971C172.197 124.971 172.585 125.062 172.917 125.244C173.249 125.423 173.508 125.695 173.692 126.062C173.877 126.425 173.969 126.886 173.969 127.443V131.602H172.964V127.511C172.964 126.996 172.83 126.596 172.563 126.309C172.296 126.019 171.93 125.874 171.464 125.874C171.143 125.874 170.856 125.944 170.603 126.083C170.353 126.222 170.156 126.425 170.011 126.693C169.866 126.96 169.793 127.283 169.793 127.664ZM178.279 131.738C177.733 131.738 177.252 131.6 176.834 131.325C176.417 131.046 176.09 130.654 175.854 130.148C175.618 129.64 175.5 129.039 175.5 128.346C175.5 127.658 175.618 127.062 175.854 126.556C176.09 126.05 176.418 125.66 176.838 125.384C177.259 125.109 177.745 124.971 178.296 124.971C178.722 124.971 179.059 125.042 179.306 125.184C179.556 125.323 179.746 125.482 179.877 125.661C180.01 125.837 180.114 125.982 180.188 126.096H180.273V122.874H181.279V131.602H180.307V130.596H180.188C180.114 130.715 180.009 130.866 179.873 131.048C179.736 131.227 179.542 131.387 179.289 131.529C179.036 131.668 178.699 131.738 178.279 131.738ZM178.415 130.835C178.819 130.835 179.159 130.729 179.438 130.519C179.716 130.306 179.928 130.012 180.073 129.637C180.218 129.259 180.29 128.823 180.29 128.329C180.29 127.84 180.219 127.413 180.077 127.046C179.935 126.677 179.725 126.39 179.446 126.185C179.168 125.978 178.824 125.874 178.415 125.874C177.989 125.874 177.634 125.984 177.35 126.202C177.069 126.418 176.857 126.712 176.715 127.085C176.576 127.454 176.506 127.869 176.506 128.329C176.506 128.795 176.577 129.218 176.719 129.599C176.864 129.977 177.077 130.278 177.358 130.502C177.642 130.724 177.995 130.835 178.415 130.835ZM183.26 131.602V125.056H184.232V126.045H184.3C184.419 125.721 184.635 125.458 184.948 125.256C185.26 125.055 185.613 124.954 186.005 124.954C186.078 124.954 186.171 124.955 186.282 124.958C186.392 124.961 186.476 124.965 186.533 124.971V125.994C186.499 125.985 186.421 125.972 186.299 125.955C186.179 125.935 186.053 125.925 185.919 125.925C185.601 125.925 185.317 125.992 185.067 126.126C184.82 126.256 184.624 126.438 184.479 126.671C184.337 126.901 184.266 127.164 184.266 127.46V131.602H183.26ZM190.27 131.738C189.64 131.738 189.096 131.599 188.638 131.32C188.184 131.039 187.833 130.647 187.586 130.144C187.341 129.639 187.219 129.05 187.219 128.38C187.219 127.71 187.341 127.119 187.586 126.607C187.833 126.093 188.176 125.693 188.617 125.406C189.06 125.116 189.577 124.971 190.168 124.971C190.509 124.971 190.846 125.028 191.178 125.141C191.51 125.255 191.813 125.44 192.086 125.695C192.358 125.948 192.576 126.283 192.738 126.701C192.9 127.119 192.98 127.633 192.98 128.244V128.67H187.935V127.8H191.958C191.958 127.431 191.884 127.102 191.736 126.812C191.591 126.522 191.384 126.293 191.114 126.126C190.847 125.958 190.532 125.874 190.168 125.874C189.767 125.874 189.421 125.974 189.128 126.173C188.838 126.369 188.615 126.624 188.459 126.94C188.303 127.255 188.225 127.593 188.225 127.954V128.533C188.225 129.028 188.31 129.447 188.48 129.791C188.654 130.131 188.894 130.391 189.201 130.57C189.507 130.746 189.864 130.835 190.27 130.835C190.534 130.835 190.773 130.798 190.986 130.724C191.202 130.647 191.388 130.533 191.544 130.383C191.701 130.229 191.821 130.039 191.907 129.812L192.878 130.085C192.776 130.414 192.604 130.704 192.363 130.954C192.121 131.201 191.823 131.394 191.468 131.533C191.113 131.67 190.713 131.738 190.27 131.738ZM198.891 122.874V131.602H197.885V122.874H198.891ZM201.602 122.874V125.874H200.665V122.874H201.602ZM205.319 131.755C204.904 131.755 204.528 131.677 204.19 131.521C203.852 131.362 203.583 131.133 203.385 130.835C203.186 130.533 203.086 130.17 203.086 129.744C203.086 129.369 203.16 129.065 203.308 128.832C203.456 128.596 203.653 128.411 203.9 128.278C204.147 128.144 204.42 128.045 204.718 127.979C205.02 127.911 205.322 127.857 205.626 127.818C206.024 127.766 206.346 127.728 206.593 127.702C206.843 127.674 207.025 127.627 207.139 127.562C207.255 127.496 207.314 127.383 207.314 127.221V127.187C207.314 126.766 207.199 126.44 206.968 126.207C206.741 125.974 206.396 125.857 205.933 125.857C205.453 125.857 205.076 125.962 204.804 126.173C204.531 126.383 204.339 126.607 204.228 126.846L203.274 126.505C203.444 126.107 203.672 125.798 203.956 125.576C204.243 125.352 204.555 125.195 204.893 125.107C205.234 125.016 205.569 124.971 205.899 124.971C206.109 124.971 206.35 124.996 206.623 125.048C206.899 125.096 207.164 125.197 207.42 125.35C207.679 125.504 207.893 125.735 208.064 126.045C208.234 126.354 208.319 126.769 208.319 127.289V131.602H207.314V130.715H207.262C207.194 130.857 207.081 131.009 206.922 131.171C206.762 131.333 206.551 131.471 206.287 131.585C206.022 131.698 205.7 131.755 205.319 131.755ZM205.473 130.852C205.87 130.852 206.206 130.773 206.478 130.617C206.754 130.461 206.961 130.259 207.1 130.012C207.243 129.765 207.314 129.505 207.314 129.232V128.312C207.271 128.363 207.177 128.41 207.032 128.452C206.89 128.492 206.725 128.528 206.538 128.559C206.353 128.587 206.173 128.613 205.997 128.636C205.824 128.656 205.683 128.673 205.575 128.687C205.314 128.721 205.069 128.776 204.842 128.853C204.618 128.927 204.436 129.039 204.297 129.19C204.16 129.337 204.092 129.539 204.092 129.795C204.092 130.144 204.221 130.408 204.48 130.587C204.741 130.764 205.072 130.852 205.473 130.852ZM215.273 125.056L212.852 131.602H211.83L209.409 125.056H210.5L212.307 130.272H212.375L214.182 125.056H215.273ZM216.6 131.602V125.056H217.606V131.602H216.6ZM217.112 123.965C216.915 123.965 216.746 123.898 216.604 123.765C216.465 123.631 216.396 123.471 216.396 123.283C216.396 123.096 216.465 122.935 216.604 122.802C216.746 122.668 216.915 122.602 217.112 122.602C217.308 122.602 217.475 122.668 217.614 122.802C217.756 122.935 217.827 123.096 217.827 123.283C217.827 123.471 217.756 123.631 217.614 123.765C217.475 123.898 217.308 123.965 217.112 123.965ZM222.107 131.738C221.516 131.738 220.998 131.597 220.551 131.316C220.108 131.035 219.762 130.641 219.512 130.136C219.265 129.63 219.141 129.039 219.141 128.363C219.141 127.681 219.265 127.086 219.512 126.577C219.762 126.069 220.108 125.674 220.551 125.393C220.998 125.112 221.516 124.971 222.107 124.971C222.698 124.971 223.215 125.112 223.658 125.393C224.104 125.674 224.451 126.069 224.698 126.577C224.948 127.086 225.073 127.681 225.073 128.363C225.073 129.039 224.948 129.63 224.698 130.136C224.451 130.641 224.104 131.035 223.658 131.316C223.215 131.597 222.698 131.738 222.107 131.738ZM222.107 130.835C222.556 130.835 222.925 130.72 223.215 130.489C223.505 130.259 223.719 129.957 223.858 129.582C223.998 129.207 224.067 128.8 224.067 128.363C224.067 127.925 223.998 127.518 223.858 127.14C223.719 126.762 223.505 126.457 223.215 126.224C222.925 125.991 222.556 125.874 222.107 125.874C221.658 125.874 221.289 125.991 220.999 126.224C220.709 126.457 220.495 126.762 220.355 127.14C220.216 127.518 220.147 127.925 220.147 128.363C220.147 128.8 220.216 129.207 220.355 129.582C220.495 129.957 220.709 130.259 220.999 130.489C221.289 130.72 221.658 130.835 222.107 130.835ZM227.614 127.664V131.602H226.608V125.056H227.58V126.079H227.665C227.818 125.746 228.051 125.479 228.364 125.278C228.676 125.073 229.08 124.971 229.574 124.971C230.017 124.971 230.405 125.062 230.737 125.244C231.07 125.423 231.328 125.695 231.513 126.062C231.697 126.425 231.79 126.886 231.79 127.443V131.602H230.784V127.511C230.784 126.996 230.651 126.596 230.384 126.309C230.116 126.019 229.75 125.874 229.284 125.874C228.963 125.874 228.676 125.944 228.423 126.083C228.173 126.222 227.976 126.425 227.831 126.693C227.686 126.96 227.614 127.283 227.614 127.664Z" fill="black"/>
<path d="M104.415 133H103.307L106.511 124.273H107.602L110.807 133H109.699L107.091 125.653H107.023L104.415 133ZM104.824 129.591H109.29V130.528H104.824V129.591Z" fill="black"/>
<path d="M222.415 69H221.307L224.511 60.2727H225.602L228.807 69H227.699L225.091 61.6534H225.023L222.415 69ZM222.824 65.5909H227.29V66.5284H222.824V65.5909Z" fill="black"/>
<path d="M277 140C283.075 140 288 135.075 288 129C288 122.925 283.075 118 277 118C270.925 118 266 122.925 266 129C266 135.075 270.925 140 277 140Z" stroke="#222222"/>
<path d="M225 76C231.075 76 236 71.0751 236 65C236 58.9249 231.075 54 225 54C218.925 54 214 58.9249 214 65C214 71.0751 218.925 76 225 76Z" stroke="#222222"/>
<path d="M107 140C113.075 140 118 135.075 118 129C118 122.925 113.075 118 107 118C100.925 118 96 122.925 96 129C96 135.075 100.925 140 107 140Z" stroke="#222222"/>
<path d="M277 135C280.314 135 283 132.314 283 129C283 125.686 280.314 123 277 123C273.686 123 271 125.686 271 129C271 132.314 273.686 135 277 135Z" fill="#222222" stroke="#111111"/>
<path d="M54.5 65H74.5" stroke="#181818"/>
<path d="M64.5 69L74.5 65L64.5 61L68.5 65L64.5 69Z" fill="#181818" stroke="#181818"/>
<path d="M192.5 65H212.5" stroke="#181818"/>
<path d="M202.5 69L212.5 65L202.5 61L206.5 65L202.5 69Z" fill="#181818" stroke="#181818"/>
<path d="M118 129H138" stroke="#181818"/>
<path d="M128 133L138 129L128 125L132 129L128 133Z" fill="#181818" stroke="#181818"/>
<path d="M245 129H265" stroke="#181818"/>
<path d="M255 133L265 129L255 125L259 129L255 133Z" fill="#181818" stroke="#181818"/>
</svg>
