<svg width="353" height="155" viewBox="0 0 353 155" fill="none" xmlns="http://www.w3.org/2000/svg">
<rect x="0.5" y="0.5" width="352" height="154" rx="24.5" stroke="black"/>
<rect x="19.25" y="84.25" width="104.5" height="33.5" stroke="black" stroke-width="0.5"/>
<path d="M124 101H166" stroke="#181818"/>
<path d="M161 105L171 101L161 97L165 101L161 105Z" fill="#181818" stroke="#181818"/>
<path d="M45.0568 105V96.2727H50.3239V97.2102H46.1136V100.159H50.0511V101.097H46.1136V104.062H50.392V105H45.0568ZM47.2216 95.3864L48.2614 93.4091H49.4375L48.108 95.3864H47.2216ZM54.9389 98.4545V99.3068H51.5469V98.4545H54.9389ZM52.5355 96.8864H53.5412V103.125C53.5412 103.409 53.5824 103.622 53.6648 103.764C53.75 103.903 53.858 103.997 53.9886 104.045C54.1222 104.091 54.2628 104.114 54.4105 104.114C54.5213 104.114 54.6122 104.108 54.6832 104.097C54.7543 104.082 54.8111 104.071 54.8537 104.062L55.0582 104.966C54.9901 104.991 54.8949 105.017 54.7727 105.043C54.6506 105.071 54.4957 105.085 54.3082 105.085C54.0241 105.085 53.7457 105.024 53.473 104.902C53.2031 104.78 52.9787 104.594 52.7997 104.344C52.6236 104.094 52.5355 103.778 52.5355 103.398V96.8864ZM60.5767 102.324V98.4545H61.5824V105H60.5767V103.892H60.5085C60.3551 104.224 60.1165 104.507 59.7926 104.74C59.4688 104.97 59.0597 105.085 58.5653 105.085C58.1562 105.085 57.7926 104.996 57.4744 104.817C57.1563 104.635 56.9063 104.362 56.7244 103.999C56.5426 103.632 56.4517 103.17 56.4517 102.614V98.4545H57.4574V102.545C57.4574 103.023 57.5909 103.403 57.858 103.688C58.1278 103.972 58.4716 104.114 58.8892 104.114C59.1392 104.114 59.3935 104.05 59.652 103.922C59.9134 103.794 60.1321 103.598 60.3082 103.334C60.4872 103.07 60.5767 102.733 60.5767 102.324ZM65.896 105.136C65.3505 105.136 64.869 104.999 64.4513 104.723C64.0337 104.445 63.707 104.053 63.4712 103.547C63.2354 103.038 63.1175 102.438 63.1175 101.744C63.1175 101.057 63.2354 100.46 63.4712 99.9545C63.707 99.4489 64.0352 99.0582 64.4556 98.7827C64.8761 98.5071 65.3619 98.3693 65.913 98.3693C66.3391 98.3693 66.6758 98.4403 66.9229 98.5824C67.1729 98.7216 67.3633 98.8807 67.494 99.0597C67.6275 99.2358 67.7312 99.3807 67.805 99.4943H67.8903V96.2727H68.896V105H67.9244V103.994H67.805C67.7312 104.114 67.6261 104.264 67.4897 104.446C67.3533 104.625 67.1587 104.786 66.9059 104.928C66.6531 105.067 66.3164 105.136 65.896 105.136ZM66.0323 104.233C66.4357 104.233 66.7766 104.128 67.055 103.918C67.3335 103.705 67.5451 103.411 67.69 103.036C67.8349 102.658 67.9073 102.222 67.9073 101.727C67.9073 101.239 67.8363 100.811 67.6942 100.445C67.5522 100.075 67.342 99.7884 67.0636 99.5838C66.7852 99.3764 66.4414 99.2727 66.0323 99.2727C65.6062 99.2727 65.2511 99.3821 64.967 99.6009C64.6857 99.8168 64.4741 100.111 64.332 100.483C64.1928 100.852 64.1232 101.267 64.1232 101.727C64.1232 102.193 64.1942 102.616 64.3363 102.997C64.4812 103.375 64.6942 103.676 64.9755 103.901C65.2596 104.122 65.6119 104.233 66.0323 104.233ZM70.8775 105V98.4545H71.8832V105H70.8775ZM71.3888 97.3636C71.1928 97.3636 71.0238 97.2969 70.8817 97.1634C70.7425 97.0298 70.6729 96.8693 70.6729 96.6818C70.6729 96.4943 70.7425 96.3338 70.8817 96.2003C71.0238 96.0668 71.1928 96 71.3888 96C71.5849 96 71.7525 96.0668 71.8917 96.2003C72.0337 96.3338 72.1048 96.4943 72.1048 96.6818C72.1048 96.8693 72.0337 97.0298 71.8917 97.1634C71.7525 97.2969 71.5849 97.3636 71.3888 97.3636ZM75.6513 105.153C75.2365 105.153 74.8601 105.075 74.522 104.919C74.1839 104.76 73.9155 104.531 73.7166 104.233C73.5178 103.932 73.4183 103.568 73.4183 103.142C73.4183 102.767 73.4922 102.463 73.6399 102.23C73.7876 101.994 73.9851 101.81 74.2322 101.676C74.4794 101.543 74.7521 101.443 75.0504 101.378C75.3516 101.31 75.6541 101.256 75.9581 101.216C76.3558 101.165 76.6783 101.126 76.9254 101.101C77.1754 101.072 77.3572 101.026 77.4709 100.96C77.5874 100.895 77.6456 100.781 77.6456 100.619V100.585C77.6456 100.165 77.5305 99.8381 77.3004 99.6051C77.0732 99.3722 76.728 99.2557 76.2649 99.2557C75.7848 99.2557 75.4084 99.3608 75.1357 99.571C74.8629 99.7812 74.6712 100.006 74.5604 100.244L73.6058 99.9034C73.7763 99.5057 74.0036 99.196 74.2876 98.9744C74.5746 98.75 74.8871 98.5937 75.2251 98.5057C75.5661 98.4148 75.9013 98.3693 76.2308 98.3693C76.4411 98.3693 76.6825 98.3949 76.9553 98.446C77.2308 98.4943 77.4964 98.5952 77.7521 98.7486C78.0107 98.902 78.2251 99.1335 78.3956 99.4432C78.5661 99.7528 78.6513 100.168 78.6513 100.688V105H77.6456V104.114H77.5945C77.5263 104.256 77.4126 104.408 77.2536 104.57C77.0945 104.732 76.8828 104.869 76.6186 104.983C76.3544 105.097 76.032 105.153 75.6513 105.153ZM75.8047 104.25C76.2024 104.25 76.5376 104.172 76.8104 104.016C77.0859 103.859 77.2933 103.658 77.4325 103.411C77.5746 103.163 77.6456 102.903 77.6456 102.631V101.71C77.603 101.761 77.5092 101.808 77.3643 101.851C77.2223 101.891 77.0575 101.926 76.87 101.957C76.6854 101.986 76.505 102.011 76.3288 102.034C76.1555 102.054 76.0149 102.071 75.907 102.085C75.6456 102.119 75.4013 102.175 75.174 102.251C74.9496 102.325 74.7678 102.437 74.6286 102.588C74.4922 102.736 74.424 102.937 74.424 103.193C74.424 103.543 74.5533 103.807 74.8118 103.986C75.0732 104.162 75.4041 104.25 75.8047 104.25ZM81.4925 101.062V105H80.4869V98.4545H81.4585V99.4773H81.5437C81.6971 99.1449 81.93 98.8778 82.2425 98.6761C82.555 98.4716 82.9585 98.3693 83.4528 98.3693C83.896 98.3693 84.2837 98.4602 84.6161 98.642C84.9485 98.821 85.207 99.0938 85.3917 99.4602C85.5763 99.8239 85.6687 100.284 85.6687 100.841V105H84.663V100.909C84.663 100.395 84.5295 99.9943 84.2624 99.7074C83.9954 99.4176 83.6289 99.2727 83.163 99.2727C82.842 99.2727 82.555 99.3423 82.3022 99.4815C82.0522 99.6207 81.8548 99.8239 81.7099 100.091C81.565 100.358 81.4925 100.682 81.4925 101.062ZM90.353 98.4545V99.3068H86.9609V98.4545H90.353ZM87.9496 96.8864H88.9553V103.125C88.9553 103.409 88.9964 103.622 89.0788 103.764C89.1641 103.903 89.272 103.997 89.4027 104.045C89.5362 104.091 89.6768 104.114 89.8246 104.114C89.9354 104.114 90.0263 104.108 90.0973 104.097C90.1683 104.082 90.2251 104.071 90.2678 104.062L90.4723 104.966C90.4041 104.991 90.3089 105.017 90.1868 105.043C90.0646 105.071 89.9098 105.085 89.7223 105.085C89.4382 105.085 89.1598 105.024 88.8871 104.902C88.6172 104.78 88.3928 104.594 88.2138 104.344C88.0376 104.094 87.9496 103.778 87.9496 103.398V96.8864ZM96.3849 99.9205L95.4815 100.176C95.4247 100.026 95.3409 99.8793 95.2301 99.7372C95.1222 99.5923 94.9744 99.473 94.7869 99.3793C94.5994 99.2855 94.3594 99.2386 94.0668 99.2386C93.6662 99.2386 93.3324 99.331 93.0653 99.5156C92.8011 99.6974 92.669 99.929 92.669 100.21C92.669 100.46 92.7599 100.658 92.9418 100.803C93.1236 100.947 93.4077 101.068 93.794 101.165L94.7656 101.403C95.3509 101.545 95.7869 101.763 96.0739 102.055C96.3608 102.345 96.5043 102.719 96.5043 103.176C96.5043 103.551 96.3963 103.886 96.1804 104.182C95.9673 104.477 95.669 104.71 95.2855 104.881C94.902 105.051 94.456 105.136 93.9474 105.136C93.2798 105.136 92.7273 104.991 92.2898 104.702C91.8523 104.412 91.5753 103.989 91.4588 103.432L92.4134 103.193C92.5043 103.545 92.6761 103.81 92.929 103.986C93.1847 104.162 93.5185 104.25 93.9304 104.25C94.3991 104.25 94.7713 104.151 95.0469 103.952C95.3253 103.75 95.4645 103.509 95.4645 103.227C95.4645 103 95.3849 102.81 95.2259 102.656C95.0668 102.5 94.8224 102.384 94.4929 102.307L93.402 102.051C92.8026 101.909 92.3622 101.689 92.081 101.391C91.8026 101.089 91.6634 100.713 91.6634 100.261C91.6634 99.892 91.767 99.5653 91.9744 99.2812C92.1847 98.9972 92.4702 98.7741 92.831 98.6122C93.1946 98.4503 93.6065 98.3693 94.0668 98.3693C94.7145 98.3693 95.223 98.5114 95.5923 98.7955C95.9645 99.0795 96.2287 99.4545 96.3849 99.9205Z" fill="black"/>
<path d="M28.1637 21.8555H26.1417C26.1048 21.5939 26.0294 21.3615 25.9155 21.1584C25.8016 20.9522 25.6554 20.7768 25.4769 20.6321C25.2984 20.4875 25.0922 20.3767 24.8583 20.2997C24.6275 20.2228 24.3767 20.1843 24.1058 20.1843C23.6165 20.1843 23.1902 20.3059 22.8271 20.549C22.4639 20.7891 22.1823 21.1399 21.9822 21.6016C21.7822 22.0601 21.6822 22.6172 21.6822 23.2727C21.6822 23.9467 21.7822 24.513 21.9822 24.9716C22.1854 25.4302 22.4685 25.7764 22.8317 26.0103C23.1948 26.2442 23.6149 26.3612 24.092 26.3612C24.3597 26.3612 24.6075 26.3258 24.8352 26.255C25.0661 26.1842 25.2707 26.0811 25.4492 25.9457C25.6277 25.8072 25.7755 25.6394 25.8924 25.4425C26.0124 25.2455 26.0955 25.0208 26.1417 24.7685L28.1637 24.7777C28.1114 25.2116 27.9806 25.6302 27.7713 26.0334C27.5651 26.4335 27.2866 26.792 26.9357 27.109C26.5879 27.4229 26.1725 27.6722 25.6893 27.8569C25.2092 28.0385 24.666 28.1293 24.0597 28.1293C23.2164 28.1293 22.4624 27.9384 21.7976 27.5568C21.1359 27.1752 20.6127 26.6228 20.228 25.8995C19.8464 25.1763 19.6555 24.3007 19.6555 23.2727C19.6555 22.2417 19.8494 21.3646 20.2372 20.6413C20.625 19.9181 21.1513 19.3672 21.8161 18.9886C22.4808 18.607 23.2287 18.4162 24.0597 18.4162C24.6075 18.4162 25.1153 18.4931 25.5831 18.647C26.054 18.8009 26.471 19.0256 26.8342 19.321C27.1973 19.6134 27.4928 19.9719 27.7205 20.3967C27.9513 20.8214 28.0991 21.3076 28.1637 21.8555ZM31.5268 23.9006V28H29.5602V18.5455H31.4714V22.1602H31.5545C31.7145 21.7416 31.9731 21.4138 32.3301 21.1768C32.6871 20.9368 33.1349 20.8168 33.6735 20.8168C34.1659 20.8168 34.5952 20.9245 34.9615 21.1399C35.3308 21.3523 35.617 21.6585 35.8201 22.0586C36.0263 22.4556 36.1279 22.9311 36.1248 23.4851V28H34.1582V23.8359C34.1613 23.3989 34.0505 23.0588 33.8258 22.8157C33.6042 22.5726 33.2934 22.451 32.8933 22.451C32.6255 22.451 32.3886 22.5079 32.1824 22.6218C31.9792 22.7357 31.8192 22.9019 31.7022 23.1204C31.5884 23.3358 31.5299 23.5959 31.5268 23.9006ZM40.904 28.1385C40.1746 28.1385 39.5468 27.9908 39.0205 27.6953C38.4973 27.3968 38.0941 26.9751 37.811 26.4304C37.5278 25.8826 37.3863 25.2347 37.3863 24.4869C37.3863 23.7575 37.5278 23.1173 37.811 22.5664C38.0941 22.0155 38.4927 21.5862 39.0067 21.2784C39.5237 20.9706 40.13 20.8168 40.8256 20.8168C41.2934 20.8168 41.7288 20.8922 42.132 21.043C42.5383 21.1907 42.8922 21.4138 43.1938 21.7124C43.4985 22.0109 43.7355 22.3864 43.9047 22.8388C44.074 23.2881 44.1586 23.8144 44.1586 24.4176V24.9577H38.1711V23.739H42.3074C42.3074 23.4558 42.2459 23.205 42.1228 22.9865C41.9997 22.768 41.8289 22.5972 41.6104 22.4741C41.3949 22.3479 41.1441 22.2848 40.8579 22.2848C40.5593 22.2848 40.2947 22.354 40.0638 22.4925C39.8361 22.628 39.6576 22.8111 39.5283 23.0419C39.3991 23.2696 39.3329 23.5236 39.3298 23.8036V24.9624C39.3298 25.3132 39.3944 25.6164 39.5237 25.8718C39.656 26.1272 39.8422 26.3242 40.0823 26.4627C40.3224 26.6012 40.607 26.6705 40.9363 26.6705C41.1549 26.6705 41.3549 26.6397 41.5365 26.5781C41.7181 26.5166 41.8735 26.4242 42.0028 26.3011C42.132 26.178 42.2305 26.0272 42.2982 25.8487L44.1171 25.9688C44.0248 26.4058 43.8355 26.7874 43.5493 27.1136C43.2661 27.4368 42.8999 27.6892 42.4506 27.8707C42.0043 28.0492 41.4888 28.1385 40.904 28.1385ZM45.442 28V20.9091H47.3486V22.1463H47.4225C47.5518 21.7062 47.7687 21.3738 48.0734 21.1491C48.3781 20.9214 48.729 20.8075 49.126 20.8075C49.2245 20.8075 49.3306 20.8137 49.4445 20.826C49.5584 20.8383 49.6584 20.8552 49.7446 20.8768V22.6218C49.6523 22.5941 49.5245 22.5695 49.3614 22.5479C49.1983 22.5264 49.049 22.5156 48.9136 22.5156C48.6243 22.5156 48.3658 22.5787 48.1381 22.7049C47.9134 22.828 47.7349 23.0004 47.6025 23.2219C47.4733 23.4435 47.4086 23.699 47.4086 23.9883V28H45.442ZM53.6351 28.1385C52.9088 28.1385 52.284 27.9846 51.7608 27.6768C51.2407 27.366 50.8406 26.9351 50.5605 26.3842C50.2836 25.8333 50.1451 25.1993 50.1451 24.4822C50.1451 23.7559 50.2851 23.1188 50.5652 22.571C50.8483 22.0201 51.2499 21.5908 51.7701 21.283C52.2902 20.9722 52.9088 20.8168 53.6259 20.8168C54.2445 20.8168 54.7862 20.9291 55.2509 21.1538C55.7156 21.3784 56.0834 21.6939 56.3542 22.1001C56.6251 22.5064 56.7743 22.9834 56.802 23.5312H54.9462C54.8939 23.1773 54.7554 22.8926 54.5307 22.6772C54.3091 22.4587 54.0183 22.3494 53.6582 22.3494C53.3535 22.3494 53.0873 22.4325 52.8596 22.5987C52.6349 22.7618 52.4595 23.0004 52.3333 23.3143C52.2071 23.6282 52.144 24.0083 52.144 24.4545C52.144 24.907 52.2056 25.2917 52.3287 25.6087C52.4548 25.9257 52.6318 26.1673 52.8596 26.3335C53.0873 26.4996 53.3535 26.5827 53.6582 26.5827C53.8829 26.5827 54.0845 26.5366 54.263 26.4442C54.4445 26.3519 54.5938 26.218 54.7108 26.0426C54.8308 25.8641 54.9093 25.6502 54.9462 25.4009H56.802C56.7712 25.9426 56.6235 26.4196 56.3588 26.832C56.0972 27.2414 55.7356 27.5614 55.274 27.7923C54.8123 28.0231 54.266 28.1385 53.6351 28.1385ZM60.0278 23.9006V28H58.0612V18.5455H59.9724V22.1602H60.0555C60.2155 21.7416 60.474 21.4138 60.8311 21.1768C61.1881 20.9368 61.6359 20.8168 62.1744 20.8168C62.6669 20.8168 63.0962 20.9245 63.4624 21.1399C63.8318 21.3523 64.118 21.6585 64.3211 22.0586C64.5273 22.4556 64.6289 22.9311 64.6258 23.4851V28H62.6592V23.8359C62.6623 23.3989 62.5515 23.0588 62.3268 22.8157C62.1052 22.5726 61.7944 22.451 61.3943 22.451C61.1265 22.451 60.8895 22.5079 60.6833 22.6218C60.4802 22.7357 60.3202 22.9019 60.2032 23.1204C60.0893 23.3358 60.0309 23.5959 60.0278 23.9006ZM69.405 28.1385C68.6756 28.1385 68.0478 27.9908 67.5215 27.6953C66.9983 27.3968 66.5951 26.9751 66.312 26.4304C66.0288 25.8826 65.8873 25.2347 65.8873 24.4869C65.8873 23.7575 66.0288 23.1173 66.312 22.5664C66.5951 22.0155 66.9937 21.5862 67.5076 21.2784C68.0247 20.9706 68.631 20.8168 69.3265 20.8168C69.7943 20.8168 70.2298 20.8922 70.633 21.043C71.0392 21.1907 71.3932 21.4138 71.6948 21.7124C71.9995 22.0109 72.2364 22.3864 72.4057 22.8388C72.575 23.2881 72.6596 23.8144 72.6596 24.4176V24.9577H66.6721V23.739H70.8084C70.8084 23.4558 70.7469 23.205 70.6238 22.9865C70.5007 22.768 70.3298 22.5972 70.1113 22.4741C69.8959 22.3479 69.6451 22.2848 69.3588 22.2848C69.0603 22.2848 68.7956 22.354 68.5648 22.4925C68.3371 22.628 68.1586 22.8111 68.0293 23.0419C67.9 23.2696 67.8339 23.5236 67.8308 23.8036V24.9624C67.8308 25.3132 67.8954 25.6164 68.0247 25.8718C68.157 26.1272 68.3432 26.3242 68.5833 26.4627C68.8233 26.6012 69.108 26.6705 69.4373 26.6705C69.6558 26.6705 69.8559 26.6397 70.0375 26.5781C70.219 26.5166 70.3745 26.4242 70.5037 26.3011C70.633 26.178 70.7315 26.0272 70.7992 25.8487L72.6181 25.9688C72.5257 26.4058 72.3365 26.7874 72.0502 27.1136C71.7671 27.4368 71.4009 27.6892 70.9515 27.8707C70.5053 28.0492 69.9898 28.1385 69.405 28.1385ZM73.943 28V20.9091H75.8496V22.1463H75.9235C76.0527 21.7062 76.2697 21.3738 76.5744 21.1491C76.8791 20.9214 77.2299 20.8075 77.627 20.8075C77.7254 20.8075 77.8316 20.8137 77.9455 20.826C78.0594 20.8383 78.1594 20.8552 78.2456 20.8768V22.6218C78.1532 22.5941 78.0255 22.5695 77.8624 22.5479C77.6993 22.5264 77.55 22.5156 77.4146 22.5156C77.1253 22.5156 76.8668 22.5787 76.639 22.7049C76.4144 22.828 76.2359 23.0004 76.1035 23.2219C75.9743 23.4435 75.9096 23.699 75.9096 23.9883V28H73.943ZM86.8184 24.9808V20.9091H88.785V28H86.8968V26.712H86.823C86.6629 27.1275 86.3967 27.4614 86.0243 27.7138C85.655 27.9661 85.2041 28.0923 84.6717 28.0923C84.1977 28.0923 83.7807 27.9846 83.4206 27.7692C83.0605 27.5537 82.7789 27.2475 82.5758 26.8505C82.3758 26.4535 82.2742 25.978 82.2711 25.424V20.9091H84.2377V25.0732C84.2408 25.4917 84.3532 25.8226 84.5748 26.0657C84.7963 26.3088 85.0933 26.4304 85.4657 26.4304C85.7027 26.4304 85.9243 26.3765 86.1305 26.2688C86.3367 26.158 86.5029 25.9949 86.6291 25.7795C86.7583 25.564 86.8214 25.2978 86.8184 24.9808ZM92.3247 23.9006V28H90.358V20.9091H92.2323V22.1602H92.3154C92.4724 21.7478 92.7355 21.4215 93.1048 21.1815C93.4742 20.9383 93.922 20.8168 94.4482 20.8168C94.9407 20.8168 95.37 20.9245 95.7362 21.1399C96.1025 21.3554 96.3872 21.6631 96.5903 22.0632C96.7934 22.4602 96.895 22.9342 96.895 23.4851V28H94.9284V23.8359C94.9314 23.402 94.8206 23.0634 94.596 22.8203C94.3713 22.5741 94.062 22.451 93.6681 22.451C93.4034 22.451 93.1695 22.5079 92.9664 22.6218C92.7663 22.7357 92.6093 22.9019 92.4955 23.1204C92.3847 23.3358 92.3277 23.5959 92.3247 23.9006ZM107.354 22.9311L105.553 23.0419C105.522 22.888 105.456 22.7495 105.355 22.6264C105.253 22.5002 105.119 22.4002 104.953 22.3263C104.79 22.2494 104.594 22.2109 104.367 22.2109C104.062 22.2109 103.805 22.2756 103.596 22.4048C103.387 22.531 103.282 22.7003 103.282 22.9126C103.282 23.0819 103.35 23.225 103.485 23.342C103.62 23.4589 103.853 23.5528 104.182 23.6236L105.465 23.8821C106.155 24.0237 106.669 24.2514 107.007 24.5653C107.346 24.8793 107.515 25.2917 107.515 25.8026C107.515 26.2673 107.378 26.6751 107.104 27.0259C106.833 27.3768 106.461 27.6507 105.987 27.8477C105.516 28.0415 104.973 28.1385 104.358 28.1385C103.419 28.1385 102.671 27.9431 102.114 27.5522C101.56 27.1583 101.235 26.6228 101.14 25.9457L103.074 25.8441C103.133 26.1303 103.274 26.3488 103.499 26.4996C103.724 26.6474 104.011 26.7212 104.362 26.7212C104.707 26.7212 104.984 26.6551 105.193 26.5227C105.405 26.3873 105.513 26.2134 105.516 26.0011C105.513 25.8226 105.438 25.6764 105.29 25.5625C105.142 25.4455 104.915 25.3563 104.607 25.2947L103.379 25.0501C102.686 24.9116 102.171 24.6715 101.832 24.3299C101.497 23.9883 101.329 23.5528 101.329 23.0234C101.329 22.5679 101.452 22.1755 101.698 21.8462C101.948 21.5169 102.297 21.263 102.746 21.0845C103.199 20.906 103.728 20.8168 104.334 20.8168C105.23 20.8168 105.935 21.006 106.449 21.3846C106.966 21.7631 107.267 22.2786 107.354 22.9311ZM112.525 20.9091V22.3864H108.255V20.9091H112.525ZM109.224 19.2102H111.191V25.821C111.191 26.0026 111.219 26.1442 111.274 26.2457C111.33 26.3442 111.406 26.4135 111.505 26.4535C111.607 26.4935 111.723 26.5135 111.856 26.5135C111.948 26.5135 112.04 26.5058 112.133 26.4904C112.225 26.4719 112.296 26.4581 112.345 26.4489L112.654 27.9123C112.556 27.9431 112.417 27.9785 112.239 28.0185C112.06 28.0616 111.844 28.0877 111.588 28.0969C111.114 28.1154 110.699 28.0523 110.342 27.9077C109.988 27.763 109.712 27.5384 109.515 27.2337C109.318 26.929 109.221 26.5443 109.224 26.0795V19.2102ZM115.828 28.1339C115.376 28.1339 114.973 28.0554 114.619 27.8984C114.265 27.7384 113.985 27.503 113.779 27.1921C113.575 26.8782 113.474 26.4873 113.474 26.0195C113.474 25.6256 113.546 25.2947 113.691 25.027C113.836 24.7592 114.032 24.5438 114.282 24.3807C114.531 24.2176 114.814 24.0945 115.131 24.0114C115.451 23.9283 115.787 23.8698 116.138 23.8359C116.55 23.7929 116.882 23.7528 117.135 23.7159C117.387 23.6759 117.57 23.6174 117.684 23.5405C117.798 23.4635 117.855 23.3497 117.855 23.1989V23.1712C117.855 22.8788 117.763 22.6526 117.578 22.4925C117.396 22.3325 117.138 22.2525 116.802 22.2525C116.448 22.2525 116.167 22.331 115.958 22.4879C115.748 22.6418 115.61 22.8357 115.542 23.0696L113.723 22.9219C113.816 22.491 113.997 22.1186 114.268 21.8047C114.539 21.4877 114.888 21.2446 115.316 21.0753C115.747 20.9029 116.245 20.8168 116.812 20.8168C117.206 20.8168 117.583 20.8629 117.943 20.9553C118.306 21.0476 118.627 21.1907 118.907 21.3846C119.191 21.5785 119.414 21.8278 119.577 22.1325C119.74 22.4341 119.822 22.7957 119.822 23.2173V28H117.956V27.0167H117.901C117.787 27.2383 117.635 27.4337 117.444 27.603C117.253 27.7692 117.024 27.9 116.756 27.9954C116.488 28.0877 116.179 28.1339 115.828 28.1339ZM116.392 26.7766C116.681 26.7766 116.936 26.7197 117.158 26.6058C117.379 26.4889 117.553 26.3319 117.68 26.1349C117.806 25.938 117.869 25.7148 117.869 25.4656V24.7131C117.807 24.7531 117.723 24.79 117.615 24.8239C117.51 24.8546 117.392 24.8839 117.259 24.9116C117.127 24.9362 116.995 24.9593 116.862 24.9808C116.73 24.9993 116.61 25.0162 116.502 25.0316C116.271 25.0655 116.07 25.1193 115.898 25.1932C115.725 25.267 115.591 25.3671 115.496 25.4933C115.401 25.6164 115.353 25.7702 115.353 25.9549C115.353 26.2227 115.45 26.4273 115.644 26.5689C115.841 26.7074 116.09 26.7766 116.392 26.7766ZM124.542 30.8068C123.905 30.8068 123.359 30.7191 122.903 30.5437C122.451 30.3713 122.091 30.1359 121.823 29.8374C121.555 29.5388 121.381 29.2034 121.301 28.831L123.12 28.5863C123.175 28.7279 123.263 28.8602 123.383 28.9833C123.503 29.1064 123.662 29.2049 123.859 29.2788C124.059 29.3557 124.302 29.3942 124.588 29.3942C125.016 29.3942 125.368 29.2895 125.645 29.0803C125.925 28.8741 126.065 28.5278 126.065 28.0415V26.7443H125.982C125.896 26.9413 125.767 27.1275 125.594 27.3029C125.422 27.4783 125.201 27.6214 124.93 27.7322C124.659 27.843 124.336 27.8984 123.96 27.8984C123.428 27.8984 122.943 27.7753 122.506 27.5291C122.072 27.2798 121.726 26.8997 121.467 26.3888C121.212 25.8749 121.084 25.2255 121.084 24.4407C121.084 23.6374 121.215 22.9665 121.477 22.4279C121.738 21.8893 122.086 21.4862 122.52 21.2184C122.957 20.9506 123.435 20.8168 123.956 20.8168C124.353 20.8168 124.685 20.8845 124.953 21.0199C125.221 21.1522 125.436 21.3184 125.599 21.5185C125.765 21.7154 125.893 21.9093 125.982 22.1001H126.056V20.9091H128.009V28.0692C128.009 28.6725 127.861 29.1772 127.566 29.5835C127.27 29.9897 126.861 30.2944 126.338 30.4975C125.818 30.7037 125.219 30.8068 124.542 30.8068ZM124.583 26.4212C124.9 26.4212 125.168 26.3427 125.387 26.1857C125.608 26.0257 125.778 25.7979 125.895 25.5025C126.015 25.204 126.075 24.8469 126.075 24.4315C126.075 24.016 126.016 23.6559 125.899 23.3512C125.782 23.0434 125.613 22.8049 125.391 22.6357C125.17 22.4664 124.9 22.3817 124.583 22.3817C124.26 22.3817 123.988 22.4695 123.766 22.6449C123.545 22.8172 123.377 23.0573 123.263 23.3651C123.149 23.6728 123.092 24.0283 123.092 24.4315C123.092 24.8408 123.149 25.1947 123.263 25.4933C123.38 25.7887 123.548 26.018 123.766 26.1811C123.988 26.3411 124.26 26.4212 124.583 26.4212ZM129.574 28V20.9091H131.54V28H129.574ZM130.562 19.995C130.269 19.995 130.019 19.8981 129.809 19.7042C129.603 19.5072 129.5 19.2718 129.5 18.9979C129.5 18.727 129.603 18.4947 129.809 18.3008C130.019 18.1038 130.269 18.0053 130.562 18.0053C130.854 18.0053 131.103 18.1038 131.31 18.3008C131.519 18.4947 131.624 18.727 131.624 18.9979C131.624 19.2718 131.519 19.5072 131.31 19.7042C131.103 19.8981 130.854 19.995 130.562 19.995ZM135.138 28.1339C134.685 28.1339 134.282 28.0554 133.928 27.8984C133.574 27.7384 133.294 27.503 133.088 27.1921C132.885 26.8782 132.783 26.4873 132.783 26.0195C132.783 25.6256 132.856 25.2947 133 25.027C133.145 24.7592 133.342 24.5438 133.591 24.3807C133.841 24.2176 134.124 24.0945 134.441 24.0114C134.761 23.9283 135.096 23.8698 135.447 23.8359C135.86 23.7929 136.192 23.7528 136.444 23.7159C136.697 23.6759 136.88 23.6174 136.994 23.5405C137.108 23.4635 137.165 23.3497 137.165 23.1989V23.1712C137.165 22.8788 137.072 22.6526 136.888 22.4925C136.706 22.3325 136.447 22.2525 136.112 22.2525C135.758 22.2525 135.476 22.331 135.267 22.4879C135.058 22.6418 134.919 22.8357 134.852 23.0696L133.033 22.9219C133.125 22.491 133.307 22.1186 133.578 21.8047C133.848 21.4877 134.198 21.2446 134.625 21.0753C135.056 20.9029 135.555 20.8168 136.121 20.8168C136.515 20.8168 136.892 20.8629 137.252 20.9553C137.615 21.0476 137.937 21.1907 138.217 21.3846C138.5 21.5785 138.723 21.8278 138.886 22.1325C139.05 22.4341 139.131 22.7957 139.131 23.2173V28H137.266V27.0167H137.211C137.097 27.2383 136.944 27.4337 136.754 27.603C136.563 27.7692 136.334 27.9 136.066 27.9954C135.798 28.0877 135.489 28.1339 135.138 28.1339ZM135.701 26.7766C135.99 26.7766 136.246 26.7197 136.467 26.6058C136.689 26.4889 136.863 26.3319 136.989 26.1349C137.115 25.938 137.178 25.7148 137.178 25.4656V24.7131C137.117 24.7531 137.032 24.79 136.924 24.8239C136.82 24.8546 136.701 24.8839 136.569 24.9116C136.437 24.9362 136.304 24.9593 136.172 24.9808C136.04 24.9993 135.92 25.0162 135.812 25.0316C135.581 25.0655 135.379 25.1193 135.207 25.1932C135.035 25.267 134.901 25.3671 134.805 25.4933C134.71 25.6164 134.662 25.7702 134.662 25.9549C134.662 26.2227 134.759 26.4273 134.953 26.5689C135.15 26.7074 135.399 26.7766 135.701 26.7766ZM140.657 28V20.9091H142.623V28H140.657ZM141.645 19.995C141.352 19.995 141.102 19.8981 140.892 19.7042C140.686 19.5072 140.583 19.2718 140.583 18.9979C140.583 18.727 140.686 18.4947 140.892 18.3008C141.102 18.1038 141.352 18.0053 141.645 18.0053C141.937 18.0053 142.186 18.1038 142.393 18.3008C142.602 18.4947 142.707 18.727 142.707 18.9979C142.707 19.2718 142.602 19.5072 142.393 19.7042C142.186 19.8981 141.937 19.995 141.645 19.995ZM144.199 28V20.9091H146.105V22.1463H146.179C146.309 21.7062 146.526 21.3738 146.83 21.1491C147.135 20.9214 147.486 20.8075 147.883 20.8075C147.981 20.8075 148.087 20.8137 148.201 20.826C148.315 20.8383 148.415 20.8552 148.501 20.8768V22.6218C148.409 22.5941 148.281 22.5695 148.118 22.5479C147.955 22.5264 147.806 22.5156 147.67 22.5156C147.381 22.5156 147.123 22.5787 146.895 22.7049C146.67 22.828 146.492 23.0004 146.359 23.2219C146.23 23.4435 146.165 23.699 146.165 23.9883V28H144.199ZM152.42 28.1385C151.69 28.1385 151.062 27.9908 150.536 27.6953C150.013 27.3968 149.61 26.9751 149.327 26.4304C149.043 25.8826 148.902 25.2347 148.902 24.4869C148.902 23.7575 149.043 23.1173 149.327 22.5664C149.61 22.0155 150.008 21.5862 150.522 21.2784C151.039 20.9706 151.646 20.8168 152.341 20.8168C152.809 20.8168 153.244 20.8922 153.648 21.043C154.054 21.1907 154.408 21.4138 154.709 21.7124C155.014 22.0109 155.251 22.3864 155.42 22.8388C155.59 23.2881 155.674 23.8144 155.674 24.4176V24.9577H149.687V23.739H153.823C153.823 23.4558 153.762 23.205 153.638 22.9865C153.515 22.768 153.344 22.5972 153.126 22.4741C152.911 22.3479 152.66 22.2848 152.373 22.2848C152.075 22.2848 151.81 22.354 151.579 22.4925C151.352 22.628 151.173 22.8111 151.044 23.0419C150.915 23.2696 150.849 23.5236 150.845 23.8036V24.9624C150.845 25.3132 150.91 25.6164 151.039 25.8718C151.172 26.1272 151.358 26.3242 151.598 26.4627C151.838 26.6012 152.123 26.6705 152.452 26.6705C152.67 26.6705 152.871 26.6397 153.052 26.5781C153.234 26.5166 153.389 26.4242 153.518 26.3011C153.648 26.178 153.746 26.0272 153.814 25.8487L155.633 25.9688C155.54 26.4058 155.351 26.7874 155.065 27.1136C154.782 27.4368 154.416 27.6892 153.966 27.8707C153.52 28.0492 153.004 28.1385 152.42 28.1385Z" fill="black"/>
<path d="M287.111 84H184.889C177.218 84 171 89.5747 171 96.4514V105.549C171 112.425 177.218 118 184.889 118H287.111C294.782 118 301 112.425 301 105.549V96.4514C301 89.5747 294.782 84 287.111 84Z" fill="#F1F1F1" stroke="#181818" stroke-width="0.5"/>
<path d="M189.08 99H188.023C187.96 98.696 187.851 98.429 187.695 98.1989C187.541 97.9688 187.354 97.7756 187.132 97.6193C186.913 97.4602 186.67 97.3409 186.403 97.2614C186.136 97.1818 185.858 97.142 185.568 97.142C185.04 97.142 184.561 97.2756 184.132 97.5426C183.706 97.8097 183.366 98.2031 183.114 98.723C182.864 99.2429 182.739 99.8807 182.739 100.636C182.739 101.392 182.864 102.03 183.114 102.55C183.366 103.07 183.706 103.463 184.132 103.73C184.561 103.997 185.04 104.131 185.568 104.131C185.858 104.131 186.136 104.091 186.403 104.011C186.67 103.932 186.913 103.814 187.132 103.658C187.354 103.499 187.541 103.304 187.695 103.074C187.851 102.841 187.96 102.574 188.023 102.273H189.08C189 102.719 188.855 103.118 188.645 103.47C188.435 103.822 188.173 104.122 187.861 104.369C187.548 104.614 187.197 104.8 186.808 104.928C186.422 105.055 186.009 105.119 185.568 105.119C184.824 105.119 184.162 104.938 183.582 104.574C183.003 104.21 182.547 103.693 182.214 103.023C181.882 102.352 181.716 101.557 181.716 100.636C181.716 99.7159 181.882 98.9205 182.214 98.25C182.547 97.5795 183.003 97.0625 183.582 96.6989C184.162 96.3352 184.824 96.1534 185.568 96.1534C186.009 96.1534 186.422 96.2173 186.808 96.3452C187.197 96.473 187.548 96.6605 187.861 96.9077C188.173 97.152 188.435 97.4503 188.645 97.8026C188.855 98.152 189 98.5511 189.08 99ZM193.31 105.136C192.719 105.136 192.201 104.996 191.755 104.714C191.311 104.433 190.965 104.04 190.715 103.534C190.468 103.028 190.344 102.437 190.344 101.761C190.344 101.08 190.468 100.484 190.715 99.9759C190.965 99.4673 191.311 99.0724 191.755 98.7912C192.201 98.5099 192.719 98.3693 193.31 98.3693C193.901 98.3693 194.418 98.5099 194.861 98.7912C195.307 99.0724 195.654 99.4673 195.901 99.9759C196.151 100.484 196.276 101.08 196.276 101.761C196.276 102.437 196.151 103.028 195.901 103.534C195.654 104.04 195.307 104.433 194.861 104.714C194.418 104.996 193.901 105.136 193.31 105.136ZM193.31 104.233C193.759 104.233 194.128 104.118 194.418 103.888C194.708 103.658 194.922 103.355 195.061 102.98C195.201 102.605 195.27 102.199 195.27 101.761C195.27 101.324 195.201 100.916 195.061 100.538C194.922 100.161 194.708 99.8551 194.418 99.6222C194.128 99.3892 193.759 99.2727 193.31 99.2727C192.861 99.2727 192.492 99.3892 192.202 99.6222C191.912 99.8551 191.698 100.161 191.559 100.538C191.419 100.916 191.35 101.324 191.35 101.761C191.35 102.199 191.419 102.605 191.559 102.98C191.698 103.355 191.912 103.658 192.202 103.888C192.492 104.118 192.861 104.233 193.31 104.233ZM198.817 101.062V105H197.811V98.4545H198.783V99.4773H198.868C199.021 99.1449 199.254 98.8778 199.567 98.6761C199.879 98.4716 200.283 98.3693 200.777 98.3693C201.22 98.3693 201.608 98.4602 201.94 98.642C202.273 98.821 202.531 99.0938 202.716 99.4602C202.901 99.8239 202.993 100.284 202.993 100.841V105H201.987V100.909C201.987 100.395 201.854 99.9943 201.587 99.7074C201.32 99.4176 200.953 99.2727 200.487 99.2727C200.166 99.2727 199.879 99.3423 199.626 99.4815C199.376 99.6207 199.179 99.8239 199.034 100.091C198.889 100.358 198.817 100.682 198.817 101.062ZM207.677 98.4545V99.3068H204.285V98.4545H207.677ZM205.274 96.8864H206.279V103.125C206.279 103.409 206.321 103.622 206.403 103.764C206.488 103.903 206.596 103.997 206.727 104.045C206.86 104.091 207.001 104.114 207.149 104.114C207.26 104.114 207.35 104.108 207.422 104.097C207.493 104.082 207.549 104.071 207.592 104.062L207.797 104.966C207.728 104.991 207.633 105.017 207.511 105.043C207.389 105.071 207.234 105.085 207.047 105.085C206.762 105.085 206.484 105.024 206.211 104.902C205.941 104.78 205.717 104.594 205.538 104.344C205.362 104.094 205.274 103.778 205.274 103.398V96.8864ZM211.116 105.153C210.701 105.153 210.325 105.075 209.987 104.919C209.649 104.76 209.38 104.531 209.181 104.233C208.983 103.932 208.883 103.568 208.883 103.142C208.883 102.767 208.957 102.463 209.105 102.23C209.252 101.994 209.45 101.81 209.697 101.676C209.944 101.543 210.217 101.443 210.515 101.378C210.816 101.31 211.119 101.256 211.423 101.216C211.821 101.165 212.143 101.126 212.39 101.101C212.64 101.072 212.822 101.026 212.936 100.96C213.052 100.895 213.11 100.781 213.11 100.619V100.585C213.11 100.165 212.995 99.8381 212.765 99.6051C212.538 99.3722 212.193 99.2557 211.73 99.2557C211.25 99.2557 210.873 99.3608 210.6 99.571C210.328 99.7812 210.136 100.006 210.025 100.244L209.071 99.9034C209.241 99.5057 209.468 99.196 209.752 98.9744C210.039 98.75 210.352 98.5937 210.69 98.5057C211.031 98.4148 211.366 98.3693 211.696 98.3693C211.906 98.3693 212.147 98.3949 212.42 98.446C212.696 98.4943 212.961 98.5952 213.217 98.7486C213.475 98.902 213.69 99.1335 213.86 99.4432C214.031 99.7528 214.116 100.168 214.116 100.688V105H213.11V104.114H213.059C212.991 104.256 212.877 104.408 212.718 104.57C212.559 104.732 212.348 104.869 212.083 104.983C211.819 105.097 211.497 105.153 211.116 105.153ZM211.27 104.25C211.667 104.25 212.002 104.172 212.275 104.016C212.551 103.859 212.758 103.658 212.897 103.411C213.039 103.163 213.11 102.903 213.11 102.631V101.71C213.068 101.761 212.974 101.808 212.829 101.851C212.687 101.891 212.522 101.926 212.335 101.957C212.15 101.986 211.97 102.011 211.794 102.034C211.62 102.054 211.48 102.071 211.372 102.085C211.11 102.119 210.866 102.175 210.639 102.251C210.414 102.325 210.233 102.437 210.093 102.588C209.957 102.736 209.889 102.937 209.889 103.193C209.889 103.543 210.018 103.807 210.277 103.986C210.538 104.162 210.869 104.25 211.27 104.25ZM218.611 105.136C217.997 105.136 217.469 104.991 217.026 104.702C216.582 104.412 216.241 104.013 216.003 103.504C215.764 102.996 215.645 102.415 215.645 101.761C215.645 101.097 215.767 100.51 216.011 100.001C216.259 99.4901 216.602 99.0909 217.043 98.804C217.486 98.5142 218.003 98.3693 218.594 98.3693C219.054 98.3693 219.469 98.4545 219.838 98.625C220.207 98.7955 220.51 99.0341 220.746 99.3409C220.982 99.6477 221.128 100.006 221.185 100.415H220.179C220.102 100.116 219.932 99.8523 219.668 99.6222C219.406 99.3892 219.054 99.2727 218.611 99.2727C218.219 99.2727 217.875 99.375 217.58 99.5795C217.287 99.7812 217.058 100.067 216.893 100.436C216.732 100.803 216.651 101.233 216.651 101.727C216.651 102.233 216.73 102.673 216.889 103.048C217.051 103.423 217.278 103.714 217.571 103.922C217.866 104.129 218.213 104.233 218.611 104.233C218.872 104.233 219.109 104.188 219.322 104.097C219.536 104.006 219.716 103.875 219.864 103.705C220.011 103.534 220.116 103.33 220.179 103.091H221.185C221.128 103.477 220.987 103.825 220.763 104.135C220.541 104.442 220.247 104.686 219.881 104.868C219.517 105.047 219.094 105.136 218.611 105.136ZM225.501 98.4545V99.3068H222.109V98.4545H225.501ZM223.098 96.8864H224.104V103.125C224.104 103.409 224.145 103.622 224.227 103.764C224.313 103.903 224.42 103.997 224.551 104.045C224.685 104.091 224.825 104.114 224.973 104.114C225.084 104.114 225.175 104.108 225.246 104.097C225.317 104.082 225.374 104.071 225.416 104.062L225.621 104.966C225.553 104.991 225.457 105.017 225.335 105.043C225.213 105.071 225.058 105.085 224.871 105.085C224.587 105.085 224.308 105.024 224.036 104.902C223.766 104.78 223.541 104.594 223.362 104.344C223.186 104.094 223.098 103.778 223.098 103.398V96.8864ZM229.688 105.136C229.058 105.136 228.513 104.997 228.056 104.719C227.602 104.438 227.251 104.045 227.004 103.543C226.759 103.037 226.637 102.449 226.637 101.778C226.637 101.108 226.759 100.517 227.004 100.006C227.251 99.4915 227.594 99.0909 228.035 98.804C228.478 98.5142 228.995 98.3693 229.586 98.3693C229.927 98.3693 230.263 98.4261 230.596 98.5398C230.928 98.6534 231.231 98.8381 231.504 99.0938C231.776 99.3466 231.994 99.6818 232.156 100.099C232.317 100.517 232.398 101.031 232.398 101.642V102.068H227.353V101.199H231.376C231.376 100.83 231.302 100.5 231.154 100.21C231.009 99.9205 230.802 99.6918 230.532 99.5241C230.265 99.3565 229.95 99.2727 229.586 99.2727C229.185 99.2727 228.839 99.3722 228.546 99.571C228.256 99.767 228.033 100.023 227.877 100.338C227.721 100.653 227.643 100.991 227.643 101.352V101.932C227.643 102.426 227.728 102.845 227.898 103.189C228.072 103.53 228.312 103.79 228.619 103.969C228.925 104.145 229.282 104.233 229.688 104.233C229.952 104.233 230.191 104.196 230.404 104.122C230.62 104.045 230.806 103.932 230.962 103.781C231.119 103.628 231.239 103.437 231.325 103.21L232.296 103.483C232.194 103.812 232.022 104.102 231.781 104.352C231.539 104.599 231.241 104.793 230.886 104.932C230.531 105.068 230.131 105.136 229.688 105.136ZM233.928 105V98.4545H234.9V99.4432H234.968C235.087 99.1193 235.303 98.8565 235.616 98.6548C235.928 98.4531 236.281 98.3523 236.673 98.3523C236.746 98.3523 236.839 98.3537 236.95 98.3565C237.06 98.3594 237.144 98.3636 237.201 98.3693V99.392C237.167 99.3835 237.089 99.3707 236.967 99.3537C236.847 99.3338 236.721 99.3239 236.587 99.3239C236.269 99.3239 235.985 99.3906 235.735 99.5241C235.488 99.6548 235.292 99.8366 235.147 100.07C235.005 100.3 234.934 100.562 234.934 100.858V105H233.928ZM242.774 96.2727V105H241.768V96.2727H242.774ZM245.502 96.2727V97.0398C245.502 97.2727 245.46 97.5213 245.374 97.7855C245.292 98.0469 245.17 98.3011 245.008 98.5483C244.849 98.7926 244.656 99.0057 244.428 99.1875L243.883 98.7443C244.062 98.4886 244.217 98.223 244.347 97.9474C244.481 97.669 244.548 97.3722 244.548 97.0568V96.2727H245.502ZM248.825 105.136C248.194 105.136 247.65 104.997 247.193 104.719C246.738 104.438 246.387 104.045 246.14 103.543C245.896 103.037 245.774 102.449 245.774 101.778C245.774 101.108 245.896 100.517 246.14 100.006C246.387 99.4915 246.731 99.0909 247.172 98.804C247.615 98.5142 248.132 98.3693 248.723 98.3693C249.064 98.3693 249.4 98.4261 249.733 98.5398C250.065 98.6534 250.368 98.8381 250.64 99.0938C250.913 99.3466 251.13 99.6818 251.292 100.099C251.454 100.517 251.535 101.031 251.535 101.642V102.068H246.49V101.199H250.512C250.512 100.83 250.439 100.5 250.291 100.21C250.146 99.9205 249.939 99.6918 249.669 99.5241C249.402 99.3565 249.086 99.2727 248.723 99.2727C248.322 99.2727 247.975 99.3722 247.683 99.571C247.393 99.767 247.17 100.023 247.014 100.338C246.858 100.653 246.779 100.991 246.779 101.352V101.932C246.779 102.426 246.865 102.845 247.035 103.189C247.208 103.53 247.449 103.79 247.755 103.969C248.062 104.145 248.419 104.233 248.825 104.233C249.089 104.233 249.328 104.196 249.541 104.122C249.757 104.045 249.943 103.932 250.099 103.781C250.255 103.628 250.376 103.437 250.461 103.21L251.433 103.483C251.331 103.812 251.159 104.102 250.917 104.352C250.676 104.599 250.377 104.793 250.022 104.932C249.667 105.068 249.268 105.136 248.825 105.136ZM248.211 97.5682L249.251 95.5909H250.427L249.098 97.5682H248.211ZM255.912 98.4545V99.3068H252.52V98.4545H255.912ZM253.508 96.8864H254.514V103.125C254.514 103.409 254.555 103.622 254.637 103.764C254.723 103.903 254.831 103.997 254.961 104.045C255.095 104.091 255.235 104.114 255.383 104.114C255.494 104.114 255.585 104.108 255.656 104.097C255.727 104.082 255.784 104.071 255.826 104.062L256.031 104.966C255.963 104.991 255.868 105.017 255.745 105.043C255.623 105.071 255.468 105.085 255.281 105.085C254.997 105.085 254.718 105.024 254.446 104.902C254.176 104.78 253.951 104.594 253.772 104.344C253.596 104.094 253.508 103.778 253.508 103.398V96.8864ZM261.549 102.324V98.4545H262.555V105H261.549V103.892H261.481C261.328 104.224 261.089 104.507 260.765 104.74C260.441 104.97 260.032 105.085 259.538 105.085C259.129 105.085 258.765 104.996 258.447 104.817C258.129 104.635 257.879 104.362 257.697 103.999C257.515 103.632 257.424 103.17 257.424 102.614V98.4545H258.43V102.545C258.43 103.023 258.564 103.403 258.831 103.688C259.1 103.972 259.444 104.114 259.862 104.114C260.112 104.114 260.366 104.05 260.625 103.922C260.886 103.794 261.105 103.598 261.281 103.334C261.46 103.07 261.549 102.733 261.549 102.324ZM266.869 105.136C266.323 105.136 265.842 104.999 265.424 104.723C265.006 104.445 264.68 104.053 264.444 103.547C264.208 103.038 264.09 102.438 264.09 101.744C264.09 101.057 264.208 100.46 264.444 99.9545C264.68 99.4489 265.008 99.0582 265.428 98.7827C265.849 98.5071 266.335 98.3693 266.886 98.3693C267.312 98.3693 267.648 98.4403 267.896 98.5824C268.146 98.7216 268.336 98.8807 268.467 99.0597C268.6 99.2358 268.704 99.3807 268.778 99.4943H268.863V96.2727H269.869V105H268.897V103.994H268.778C268.704 104.114 268.599 104.264 268.462 104.446C268.326 104.625 268.131 104.786 267.879 104.928C267.626 105.067 267.289 105.136 266.869 105.136ZM267.005 104.233C267.408 104.233 267.749 104.128 268.028 103.918C268.306 103.705 268.518 103.411 268.663 103.036C268.808 102.658 268.88 102.222 268.88 101.727C268.88 101.239 268.809 100.811 268.667 100.445C268.525 100.075 268.315 99.7884 268.036 99.5838C267.758 99.3764 267.414 99.2727 267.005 99.2727C266.579 99.2727 266.224 99.3821 265.94 99.6009C265.658 99.8168 265.447 100.111 265.305 100.483C265.165 100.852 265.096 101.267 265.096 101.727C265.096 102.193 265.167 102.616 265.309 102.997C265.454 103.375 265.667 103.676 265.948 103.901C266.232 104.122 266.585 104.233 267.005 104.233ZM271.85 105V98.4545H272.856V105H271.85ZM272.362 97.3636C272.165 97.3636 271.996 97.2969 271.854 97.1634C271.715 97.0298 271.646 96.8693 271.646 96.6818C271.646 96.4943 271.715 96.3338 271.854 96.2003C271.996 96.0668 272.165 96 272.362 96C272.558 96 272.725 96.0668 272.864 96.2003C273.006 96.3338 273.077 96.4943 273.077 96.6818C273.077 96.8693 273.006 97.0298 272.864 97.1634C272.725 97.2969 272.558 97.3636 272.362 97.3636ZM276.624 105.153C276.209 105.153 275.833 105.075 275.495 104.919C275.157 104.76 274.888 104.531 274.689 104.233C274.49 103.932 274.391 103.568 274.391 103.142C274.391 102.767 274.465 102.463 274.613 102.23C274.76 101.994 274.958 101.81 275.205 101.676C275.452 101.543 275.725 101.443 276.023 101.378C276.324 101.31 276.627 101.256 276.931 101.216C277.328 101.165 277.651 101.126 277.898 101.101C278.148 101.072 278.33 101.026 278.444 100.96C278.56 100.895 278.618 100.781 278.618 100.619V100.585C278.618 100.165 278.503 99.8381 278.273 99.6051C278.046 99.3722 277.701 99.2557 277.238 99.2557C276.757 99.2557 276.381 99.3608 276.108 99.571C275.836 99.7812 275.644 100.006 275.533 100.244L274.578 99.9034C274.749 99.5057 274.976 99.196 275.26 98.9744C275.547 98.75 275.86 98.5937 276.198 98.5057C276.539 98.4148 276.874 98.3693 277.203 98.3693C277.414 98.3693 277.655 98.3949 277.928 98.446C278.203 98.4943 278.469 98.5952 278.725 98.7486C278.983 98.902 279.198 99.1335 279.368 99.4432C279.539 99.7528 279.624 100.168 279.624 100.688V105H278.618V104.114H278.567C278.499 104.256 278.385 104.408 278.226 104.57C278.067 104.732 277.855 104.869 277.591 104.983C277.327 105.097 277.005 105.153 276.624 105.153ZM276.777 104.25C277.175 104.25 277.51 104.172 277.783 104.016C278.059 103.859 278.266 103.658 278.405 103.411C278.547 103.163 278.618 102.903 278.618 102.631V101.71C278.576 101.761 278.482 101.808 278.337 101.851C278.195 101.891 278.03 101.926 277.843 101.957C277.658 101.986 277.478 102.011 277.301 102.034C277.128 102.054 276.988 102.071 276.88 102.085C276.618 102.119 276.374 102.175 276.147 102.251C275.922 102.325 275.74 102.437 275.601 102.588C275.465 102.736 275.397 102.937 275.397 103.193C275.397 103.543 275.526 103.807 275.784 103.986C276.046 104.162 276.377 104.25 276.777 104.25ZM282.465 101.062V105H281.46V98.4545H282.431V99.4773H282.516C282.67 99.1449 282.903 98.8778 283.215 98.6761C283.528 98.4716 283.931 98.3693 284.425 98.3693C284.869 98.3693 285.256 98.4602 285.589 98.642C285.921 98.821 286.18 99.0938 286.364 99.4602C286.549 99.8239 286.641 100.284 286.641 100.841V105H285.636V100.909C285.636 100.395 285.502 99.9943 285.235 99.7074C284.968 99.4176 284.602 99.2727 284.136 99.2727C283.815 99.2727 283.528 99.3423 283.275 99.4815C283.025 99.6207 282.827 99.8239 282.683 100.091C282.538 100.358 282.465 100.682 282.465 101.062ZM291.326 98.4545V99.3068H287.934V98.4545H291.326ZM288.922 96.8864H289.928V103.125C289.928 103.409 289.969 103.622 290.051 103.764C290.137 103.903 290.245 103.997 290.375 104.045C290.509 104.091 290.65 104.114 290.797 104.114C290.908 104.114 290.999 104.108 291.07 104.097C291.141 104.082 291.198 104.071 291.24 104.062L291.445 104.966C291.377 104.991 291.282 105.017 291.159 105.043C291.037 105.071 290.882 105.085 290.695 105.085C290.411 105.085 290.132 105.024 289.86 104.902C289.59 104.78 289.365 104.594 289.186 104.344C289.01 104.094 288.922 103.778 288.922 103.398V96.8864Z" fill="black"/>
<path d="M170.5 17V57.6211H337.5V27L327.5 17H170.5Z" fill="#FEFFDD" stroke="#181818" stroke-width="0.5"/>
<path d="M327.5 17V27H337.5L327.5 17Z" fill="#FEFFDD" stroke="#181818" stroke-width="0.5"/>
<path d="M181.668 31.6V29.975L188.168 27.1128V28.9825L183.718 30.769L183.778 30.6721V30.9029L183.718 30.806L188.168 32.5925V34.4622L181.668 31.6ZM190.504 31.6V29.975L197.004 27.1128V28.9825L192.554 30.769L192.614 30.6721V30.9029L192.554 30.806L197.004 32.5925V34.4622L190.504 31.6ZM204.857 29.4995L203.056 29.6103C203.025 29.4564 202.959 29.3179 202.858 29.1948C202.756 29.0686 202.622 28.9686 202.456 28.8947C202.293 28.8178 202.097 28.7793 201.87 28.7793C201.565 28.7793 201.308 28.844 201.099 28.9732C200.889 29.0994 200.785 29.2687 200.785 29.481C200.785 29.6503 200.853 29.7934 200.988 29.9104C201.123 30.0273 201.356 30.1212 201.685 30.192L202.968 30.4505C203.658 30.5921 204.172 30.8198 204.51 31.1337C204.849 31.4477 205.018 31.8601 205.018 32.3709C205.018 32.8357 204.881 33.2435 204.607 33.5943C204.336 33.9452 203.964 34.2191 203.49 34.416C203.019 34.6099 202.476 34.7069 201.86 34.7069C200.922 34.7069 200.174 34.5115 199.617 34.1206C199.063 33.7267 198.738 33.1911 198.643 32.5141L200.577 32.4125C200.636 32.6987 200.777 32.9172 201.002 33.068C201.226 33.2158 201.514 33.2896 201.865 33.2896C202.21 33.2896 202.487 33.2235 202.696 33.0911C202.908 32.9557 203.016 32.7818 203.019 32.5695C203.016 32.391 202.941 32.2448 202.793 32.1309C202.645 32.0139 202.417 31.9247 202.11 31.8631L200.882 31.6185C200.189 31.48 199.674 31.2399 199.335 30.8983C199 30.5567 198.832 30.1212 198.832 29.5918C198.832 29.1363 198.955 28.7439 199.201 28.4146C199.451 28.0853 199.8 27.8314 200.249 27.6529C200.702 27.4744 201.231 27.3852 201.837 27.3852C202.733 27.3852 203.438 27.5744 203.952 27.953C204.469 28.3315 204.77 28.847 204.857 29.4995ZM209.488 34.7069C208.759 34.7069 208.131 34.5592 207.604 34.2637C207.081 33.9652 206.678 33.5435 206.395 32.9988C206.112 32.451 205.97 31.8031 205.97 31.0553C205.97 30.3258 206.112 29.6857 206.395 29.1348C206.678 28.5839 207.077 28.1546 207.591 27.8468C208.108 27.539 208.714 27.3852 209.41 27.3852C209.877 27.3852 210.313 27.4606 210.716 27.6114C211.122 27.7591 211.476 27.9822 211.778 28.2807C212.082 28.5793 212.319 28.9548 212.489 29.4072C212.658 29.8565 212.743 30.3828 212.743 30.986V31.5261H206.755V30.3074H210.891C210.891 30.0242 210.83 29.7734 210.707 29.5549C210.584 29.3364 210.413 29.1656 210.194 29.0425C209.979 28.9163 209.728 28.8532 209.442 28.8532C209.143 28.8532 208.879 28.9224 208.648 29.0609C208.42 29.1963 208.242 29.3795 208.112 29.6103C207.983 29.838 207.917 30.0919 207.914 30.372V31.5307C207.914 31.8816 207.978 32.1847 208.108 32.4402C208.24 32.6956 208.426 32.8926 208.666 33.0311C208.906 33.1696 209.191 33.2388 209.52 33.2388C209.739 33.2388 209.939 33.2081 210.12 33.1465C210.302 33.085 210.457 32.9926 210.587 32.8695C210.716 32.7464 210.814 32.5956 210.882 32.4171L212.701 32.5371C212.609 32.9742 212.419 33.3558 212.133 33.682C211.85 34.0052 211.484 34.2575 211.035 34.4391C210.588 34.6176 210.073 34.7069 209.488 34.7069ZM215.993 25.1138V34.5684H214.026V25.1138H215.993ZM220.8 34.7069C220.07 34.7069 219.442 34.5592 218.916 34.2637C218.393 33.9652 217.99 33.5435 217.706 32.9988C217.423 32.451 217.282 31.8031 217.282 31.0553C217.282 30.3258 217.423 29.6857 217.706 29.1348C217.99 28.5839 218.388 28.1546 218.902 27.8468C219.419 27.539 220.026 27.3852 220.721 27.3852C221.189 27.3852 221.624 27.4606 222.028 27.6114C222.434 27.7591 222.788 27.9822 223.089 28.2807C223.394 28.5793 223.631 28.9548 223.8 29.4072C223.97 29.8565 224.054 30.3828 224.054 30.986V31.5261H218.067V30.3074H222.203C222.203 30.0242 222.141 29.7734 222.018 29.5549C221.895 29.3364 221.724 29.1656 221.506 29.0425C221.29 28.9163 221.04 28.8532 220.753 28.8532C220.455 28.8532 220.19 28.9224 219.959 29.0609C219.732 29.1963 219.553 29.3795 219.424 29.6103C219.295 29.838 219.228 30.0919 219.225 30.372V31.5307C219.225 31.8816 219.29 32.1847 219.419 32.4402C219.552 32.6956 219.738 32.8926 219.978 33.0311C220.218 33.1696 220.503 33.2388 220.832 33.2388C221.05 33.2388 221.25 33.2081 221.432 33.1465C221.614 33.085 221.769 32.9926 221.898 32.8695C222.028 32.7464 222.126 32.5956 222.194 32.4171L224.013 32.5371C223.92 32.9742 223.731 33.3558 223.445 33.682C223.162 34.0052 222.795 34.2575 222.346 34.4391C221.9 34.6176 221.384 34.7069 220.8 34.7069ZM228.541 34.7069C227.815 34.7069 227.19 34.553 226.667 34.2452C226.147 33.9344 225.747 33.5035 225.467 32.9526C225.19 32.4017 225.051 31.7677 225.051 31.0506C225.051 30.3243 225.191 29.6872 225.471 29.1394C225.755 28.5885 226.156 28.1592 226.676 27.8514C227.196 27.5406 227.815 27.3852 228.532 27.3852C229.151 27.3852 229.692 27.4975 230.157 27.7222C230.622 27.9468 230.99 28.2623 231.26 28.6685C231.531 29.0748 231.681 29.5518 231.708 30.0996H229.852C229.8 29.7457 229.662 29.461 229.437 29.2456C229.215 29.0271 228.925 28.9178 228.564 28.9178C228.26 28.9178 227.994 29.0009 227.766 29.1671C227.541 29.3302 227.366 29.5687 227.24 29.8827C227.113 30.1966 227.05 30.5767 227.05 31.0229C227.05 31.4754 227.112 31.8601 227.235 32.1771C227.361 32.4941 227.538 32.7356 227.766 32.9018C227.994 33.068 228.26 33.1511 228.564 33.1511C228.789 33.1511 228.991 33.105 229.169 33.0126C229.351 32.9203 229.5 32.7864 229.617 32.611C229.737 32.4325 229.816 32.2186 229.852 31.9693H231.708C231.677 32.511 231.53 32.988 231.265 33.4004C231.003 33.8097 230.642 34.1298 230.18 34.3606C229.719 34.5915 229.172 34.7069 228.541 34.7069ZM236.739 27.4775V28.9548H232.469V27.4775H236.739ZM233.438 25.7786H235.405V32.3894C235.405 32.571 235.433 32.7126 235.488 32.8141C235.543 32.9126 235.62 32.9819 235.719 33.0219C235.82 33.0619 235.937 33.0819 236.07 33.0819C236.162 33.0819 236.254 33.0742 236.347 33.0588C236.439 33.0403 236.51 33.0265 236.559 33.0173L236.868 34.4807C236.77 34.5115 236.631 34.5468 236.453 34.5869C236.274 34.6299 236.057 34.6561 235.802 34.6653C235.328 34.6838 234.912 34.6207 234.555 34.4761C234.202 34.3314 233.926 34.1067 233.729 33.8021C233.532 33.4974 233.435 33.1127 233.438 32.6479V25.7786ZM238.02 34.5684V27.4775H239.987V34.5684H238.02ZM239.008 26.5634C238.716 26.5634 238.465 26.4665 238.256 26.2726C238.049 26.0756 237.946 25.8402 237.946 25.5663C237.946 25.2954 238.049 25.0631 238.256 24.8692C238.465 24.6722 238.716 24.5737 239.008 24.5737C239.3 24.5737 239.55 24.6722 239.756 24.8692C239.965 25.0631 240.07 25.2954 240.07 25.5663C240.07 25.8402 239.965 26.0756 239.756 26.2726C239.55 26.4665 239.3 26.5634 239.008 26.5634ZM244.766 34.7069C244.049 34.7069 243.429 34.5545 242.906 34.2499C242.385 33.9421 241.984 33.5143 241.701 32.9665C241.417 32.4156 241.276 31.777 241.276 31.0506C241.276 30.3182 241.417 29.678 241.701 29.1302C241.984 28.5793 242.385 28.1515 242.906 27.8468C243.429 27.539 244.049 27.3852 244.766 27.3852C245.483 27.3852 246.102 27.539 246.622 27.8468C247.145 28.1515 247.548 28.5793 247.831 29.1302C248.114 29.678 248.256 30.3182 248.256 31.0506C248.256 31.777 248.114 32.4156 247.831 32.9665C247.548 33.5143 247.145 33.9421 246.622 34.2499C246.102 34.5545 245.483 34.7069 244.766 34.7069ZM244.775 33.1834C245.101 33.1834 245.374 33.0911 245.592 32.9065C245.811 32.7187 245.975 32.4633 246.086 32.1401C246.2 31.817 246.257 31.4492 246.257 31.0368C246.257 30.6244 246.2 30.2566 246.086 29.9334C245.975 29.6103 245.811 29.3548 245.592 29.1671C245.374 28.9794 245.101 28.8855 244.775 28.8855C244.446 28.8855 244.169 28.9794 243.944 29.1671C243.723 29.3548 243.555 29.6103 243.441 29.9334C243.33 30.2566 243.275 30.6244 243.275 31.0368C243.275 31.4492 243.33 31.817 243.441 32.1401C243.555 32.4633 243.723 32.7187 243.944 32.9065C244.169 33.0911 244.446 33.1834 244.775 33.1834ZM251.501 30.469V34.5684H249.535V27.4775H251.409V28.7285H251.492C251.649 28.3161 251.912 27.9899 252.282 27.7499C252.651 27.5067 253.099 27.3852 253.625 27.3852C254.117 27.3852 254.547 27.4929 254.913 27.7083C255.279 27.9237 255.564 28.2315 255.767 28.6316C255.97 29.0286 256.072 29.5026 256.072 30.0535V34.5684H254.105V30.4043C254.108 29.9704 253.997 29.6318 253.773 29.3887C253.548 29.1425 253.239 29.0194 252.845 29.0194C252.58 29.0194 252.346 29.0763 252.143 29.1902C251.943 29.3041 251.786 29.4703 251.672 29.6888C251.561 29.9042 251.504 30.1643 251.501 30.469ZM264.505 31.6L258.005 34.4622V32.5925L262.455 30.806L262.395 30.9029V30.6721L262.455 30.769L258.005 28.9825V27.1128L264.505 29.975V31.6ZM273.341 31.6L266.841 34.4622V32.5925L271.291 30.806L271.231 30.9029V30.6721L271.291 30.769L266.841 28.9825V27.1128L273.341 29.975V31.6Z" fill="black"/>
<path d="M183.97 50.1477C183.287 50.1477 182.698 49.9969 182.202 49.6953C181.71 49.3906 181.33 48.9659 181.062 48.4212C180.797 47.8733 180.665 47.2363 180.665 46.5099C180.665 45.7836 180.797 45.1435 181.062 44.5895C181.33 44.0324 181.702 43.5985 182.179 43.2876C182.659 42.9737 183.219 42.8168 183.859 42.8168C184.229 42.8168 184.593 42.8783 184.953 43.0014C185.314 43.1245 185.641 43.3246 185.937 43.6016C186.232 43.8755 186.468 44.2386 186.643 44.6911C186.819 45.1435 186.906 45.7005 186.906 46.3622V46.8239H181.44V45.8821H185.798C185.798 45.482 185.718 45.125 185.558 44.8111C185.401 44.4972 185.177 44.2494 184.884 44.0678C184.595 43.8862 184.253 43.7955 183.859 43.7955C183.425 43.7955 183.05 43.9032 182.733 44.1186C182.419 44.331 182.177 44.608 182.008 44.9496C181.839 45.2912 181.754 45.6574 181.754 46.0483V46.6761C181.754 47.2116 181.847 47.6656 182.031 48.038C182.219 48.4073 182.479 48.6889 182.811 48.8828C183.144 49.0736 183.53 49.169 183.97 49.169C184.256 49.169 184.515 49.129 184.746 49.049C184.98 48.9659 185.181 48.8428 185.35 48.6797C185.52 48.5135 185.651 48.3073 185.743 48.0611L186.795 48.3565C186.685 48.7135 186.498 49.0275 186.237 49.2983C185.975 49.5661 185.652 49.7753 185.267 49.9261C184.883 50.0739 184.45 50.1477 183.97 50.1477ZM183.305 41.9489L184.432 39.8068H185.706L184.266 41.9489H183.305ZM191.647 42.9091V43.8324H187.973V42.9091H191.647ZM189.044 41.2102H190.133V47.9688C190.133 48.2765 190.178 48.5073 190.267 48.6612C190.359 48.812 190.476 48.9136 190.618 48.9659C190.763 49.0152 190.915 49.0398 191.075 49.0398C191.195 49.0398 191.293 49.0336 191.37 49.0213C191.447 49.0059 191.509 48.9936 191.555 48.9844L191.777 49.9631C191.703 49.9908 191.6 50.0185 191.467 50.0462C191.335 50.0769 191.167 50.0923 190.964 50.0923C190.656 50.0923 190.355 50.0262 190.059 49.8938C189.767 49.7615 189.524 49.5599 189.33 49.2891C189.139 49.0182 189.044 48.6766 189.044 48.2642V41.2102ZM197.755 47.1009V42.9091H198.844V50H197.755V48.7997H197.681C197.515 49.1598 197.256 49.466 196.906 49.7184C196.555 49.9677 196.112 50.0923 195.576 50.0923C195.133 50.0923 194.739 49.9954 194.394 49.8015C194.049 49.6045 193.779 49.3091 193.582 48.9151C193.385 48.5181 193.286 48.018 193.286 47.4148V42.9091H194.376V47.3409C194.376 47.858 194.52 48.2704 194.81 48.5781C195.102 48.8859 195.474 49.0398 195.927 49.0398C196.198 49.0398 196.473 48.9705 196.753 48.832C197.036 48.6935 197.273 48.4812 197.464 48.195C197.658 47.9087 197.755 47.544 197.755 47.1009ZM203.517 50.1477C202.927 50.1477 202.405 49.9985 201.953 49.6999C201.5 49.3983 201.146 48.9736 200.891 48.4258C200.635 47.8749 200.508 47.224 200.508 46.473C200.508 45.7282 200.635 45.0819 200.891 44.5341C201.146 43.9863 201.502 43.5631 201.957 43.2646C202.413 42.966 202.939 42.8168 203.536 42.8168C203.998 42.8168 204.362 42.8937 204.63 43.0476C204.901 43.1984 205.107 43.3707 205.249 43.5646C205.393 43.7554 205.506 43.9124 205.586 44.0355H205.678V40.5455H206.767V50H205.715V48.9105H205.586C205.506 49.0398 205.392 49.2029 205.244 49.3999C205.096 49.5937 204.886 49.7676 204.612 49.9215C204.338 50.0723 203.973 50.1477 203.517 50.1477ZM203.665 49.169C204.102 49.169 204.472 49.0552 204.773 48.8274C205.075 48.5966 205.304 48.2781 205.461 47.8718C205.618 47.4625 205.696 46.9901 205.696 46.4545C205.696 45.9252 205.62 45.462 205.466 45.065C205.312 44.6649 205.084 44.354 204.782 44.1325C204.481 43.9078 204.108 43.7955 203.665 43.7955C203.204 43.7955 202.819 43.9139 202.511 44.1509C202.206 44.3848 201.977 44.7034 201.823 45.1065C201.672 45.5066 201.597 45.956 201.597 46.4545C201.597 46.9593 201.674 47.4179 201.828 47.8303C201.985 48.2396 202.216 48.5658 202.52 48.8089C202.828 49.049 203.21 49.169 203.665 49.169ZM208.914 50V42.9091H210.004V50H208.914ZM209.468 41.7273C209.256 41.7273 209.073 41.6549 208.919 41.5103C208.768 41.3656 208.693 41.1918 208.693 40.9886C208.693 40.7855 208.768 40.6116 208.919 40.467C209.073 40.3223 209.256 40.25 209.468 40.25C209.68 40.25 209.862 40.3223 210.013 40.467C210.167 40.6116 210.244 40.7855 210.244 40.9886C210.244 41.1918 210.167 41.3656 210.013 41.5103C209.862 41.6549 209.68 41.7273 209.468 41.7273ZM214.086 50.1662C213.636 50.1662 213.229 50.0816 212.862 49.9123C212.496 49.7399 212.205 49.4922 211.99 49.169C211.774 48.8428 211.667 48.4489 211.667 47.9872C211.667 47.581 211.747 47.2517 211.907 46.9993C212.067 46.7438 212.281 46.5438 212.548 46.3991C212.816 46.2545 213.112 46.1468 213.435 46.076C213.761 46.0021 214.089 45.9437 214.418 45.9006C214.849 45.8452 215.198 45.8036 215.466 45.7759C215.737 45.7451 215.934 45.6944 216.057 45.6236C216.183 45.5528 216.246 45.4297 216.246 45.2543V45.2173C216.246 44.7618 216.122 44.4079 215.872 44.1555C215.626 43.9032 215.252 43.777 214.751 43.777C214.23 43.777 213.823 43.8909 213.527 44.1186C213.232 44.3464 213.024 44.5895 212.904 44.848L211.87 44.4787C212.055 44.0478 212.301 43.7124 212.608 43.4723C212.919 43.2292 213.258 43.0599 213.624 42.9645C213.993 42.866 214.357 42.8168 214.714 42.8168C214.941 42.8168 215.203 42.8445 215.498 42.8999C215.797 42.9522 216.085 43.0614 216.362 43.2276C216.642 43.3938 216.874 43.6446 217.059 43.9801C217.243 44.3156 217.336 44.7649 217.336 45.3281V50H216.246V49.0398H216.191C216.117 49.1937 215.994 49.3583 215.822 49.5337C215.649 49.7092 215.42 49.8584 215.134 49.9815C214.847 50.1046 214.498 50.1662 214.086 50.1662ZM214.252 49.1875C214.683 49.1875 215.046 49.1029 215.341 48.9336C215.64 48.7643 215.865 48.5458 216.015 48.2781C216.169 48.0103 216.246 47.7287 216.246 47.4332V46.4361C216.2 46.4915 216.099 46.5423 215.942 46.5884C215.788 46.6315 215.609 46.67 215.406 46.7038C215.206 46.7346 215.011 46.7623 214.82 46.7869C214.632 46.8085 214.48 46.8269 214.363 46.8423C214.08 46.8793 213.815 46.9393 213.569 47.0224C213.326 47.1024 213.129 47.224 212.978 47.3871C212.83 47.5471 212.756 47.7656 212.756 48.0426C212.756 48.4212 212.896 48.7074 213.176 48.9013C213.459 49.0921 213.818 49.1875 214.252 49.1875ZM220.414 45.7344V50H219.324V42.9091H220.377V44.017H220.469C220.635 43.657 220.888 43.3677 221.226 43.1491C221.565 42.9276 222.002 42.8168 222.537 42.8168C223.017 42.8168 223.438 42.9152 223.798 43.1122C224.158 43.3061 224.438 43.6016 224.638 43.9986C224.838 44.3925 224.938 44.8911 224.938 45.4943V50H223.848V45.5682C223.848 45.0111 223.704 44.5772 223.415 44.2663C223.125 43.9524 222.728 43.7955 222.223 43.7955C221.876 43.7955 221.565 43.8709 221.291 44.0217C221.02 44.1725 220.806 44.3925 220.649 44.6818C220.492 44.9711 220.414 45.322 220.414 45.7344ZM230.013 42.9091V43.8324H226.338V42.9091H230.013ZM227.409 41.2102H228.498V47.9688C228.498 48.2765 228.543 48.5073 228.632 48.6612C228.725 48.812 228.842 48.9136 228.983 48.9659C229.128 49.0152 229.28 49.0398 229.44 49.0398C229.56 49.0398 229.659 49.0336 229.736 49.0213C229.813 49.0059 229.874 48.9936 229.92 48.9844L230.142 49.9631C230.068 49.9908 229.965 50.0185 229.833 50.0462C229.7 50.0769 229.532 50.0923 229.329 50.0923C229.022 50.0923 228.72 50.0262 228.425 49.8938C228.132 49.7615 227.889 49.5599 227.695 49.2891C227.504 49.0182 227.409 48.6766 227.409 48.2642V41.2102ZM232.445 50.0739C232.218 50.0739 232.022 49.9923 231.859 49.8292C231.696 49.6661 231.615 49.4706 231.615 49.2429C231.615 49.0152 231.696 48.8197 231.859 48.6566C232.022 48.4935 232.218 48.4119 232.445 48.4119C232.673 48.4119 232.869 48.4935 233.032 48.6566C233.195 48.8197 233.276 49.0152 233.276 49.2429C233.276 49.3937 233.238 49.5322 233.161 49.6584C233.087 49.7846 232.987 49.8861 232.861 49.9631C232.738 50.0369 232.599 50.0739 232.445 50.0739ZM241.842 43.5C241.741 43.1892 241.607 42.9106 241.441 42.6644C241.278 42.4151 241.082 42.2028 240.854 42.0273C240.63 41.8519 240.374 41.718 240.088 41.6257C239.802 41.5334 239.488 41.4872 239.146 41.4872C238.586 41.4872 238.077 41.6319 237.618 41.9212C237.16 42.2105 236.795 42.6367 236.524 43.1999C236.253 43.7631 236.118 44.4541 236.118 45.2727C236.118 46.0914 236.255 46.7823 236.529 47.3455C236.803 47.9087 237.174 48.335 237.641 48.6243C238.109 48.9136 238.635 49.0582 239.22 49.0582C239.762 49.0582 240.239 48.9428 240.651 48.712C241.067 48.4781 241.39 48.1488 241.621 47.7241C241.855 47.2963 241.972 46.7931 241.972 46.2145L242.322 46.2884H239.479V45.2727H243.08V46.2884C243.08 47.067 242.913 47.7441 242.581 48.3196C242.252 48.8951 241.796 49.3414 241.214 49.6584C240.636 49.9723 239.971 50.1293 239.22 50.1293C238.383 50.1293 237.647 49.9323 237.013 49.5384C236.383 49.1444 235.89 48.5843 235.536 47.858C235.185 47.1316 235.01 46.2699 235.01 45.2727C235.01 44.5249 235.11 43.8524 235.31 43.2553C235.513 42.6552 235.799 42.1443 236.169 41.7227C236.538 41.301 236.975 40.9779 237.48 40.7532C237.984 40.5285 238.54 40.4162 239.146 40.4162C239.645 40.4162 240.11 40.4916 240.54 40.6424C240.974 40.7901 241.361 41.0009 241.699 41.2749C242.041 41.5457 242.326 41.8704 242.553 42.2489C242.781 42.6244 242.938 43.0414 243.024 43.5H241.842ZM245.04 50V40.5455H248.235C248.977 40.5455 249.583 40.6793 250.054 40.9471C250.528 41.2118 250.879 41.5703 251.106 42.0227C251.334 42.4751 251.448 42.9799 251.448 43.5369C251.448 44.094 251.334 44.6003 251.106 45.0558C250.882 45.5112 250.534 45.8744 250.063 46.1452C249.592 46.413 248.989 46.5469 248.253 46.5469H245.964V45.5312H248.217C248.724 45.5312 249.132 45.4435 249.44 45.2681C249.748 45.0927 249.971 44.8557 250.109 44.5572C250.251 44.2556 250.322 43.9155 250.322 43.5369C250.322 43.1584 250.251 42.8198 250.109 42.5213C249.971 42.2228 249.746 41.9889 249.435 41.8196C249.124 41.6473 248.712 41.5611 248.198 41.5611H246.185V50H245.04ZM252.715 50H251.515L254.987 40.5455H256.168L259.64 50H258.44L255.614 42.0412H255.541L252.715 50ZM253.158 46.3068H257.997V47.3224H253.158V46.3068ZM271.011 45.7898L265.065 48.8182V47.6364L269.626 45.4389L269.589 45.5128V45.3281L269.626 45.402L265.065 43.2045V42.0227L271.011 45.0511V45.7898ZM280.413 50.1293C279.804 50.1293 279.26 50.0246 278.783 49.8153C278.309 49.6061 277.932 49.3152 277.652 48.9428C277.375 48.5674 277.224 48.1319 277.2 47.6364H278.363C278.388 47.9411 278.492 48.2042 278.677 48.4258C278.862 48.6443 279.103 48.8136 279.402 48.9336C279.7 49.0536 280.031 49.1136 280.394 49.1136C280.801 49.1136 281.161 49.0429 281.475 48.9013C281.789 48.7597 282.035 48.5627 282.213 48.3104C282.392 48.058 282.481 47.7656 282.481 47.4332C282.481 47.0855 282.395 46.7792 282.223 46.5146C282.05 46.2468 281.798 46.0375 281.465 45.8867C281.133 45.7359 280.727 45.6605 280.247 45.6605H279.49V44.6449H280.247C280.622 44.6449 280.951 44.5772 281.235 44.4418C281.521 44.3063 281.744 44.1155 281.904 43.8693C282.067 43.6231 282.149 43.3338 282.149 43.0014C282.149 42.6813 282.078 42.4028 281.936 42.1658C281.795 41.9289 281.595 41.7442 281.336 41.6119C281.081 41.4795 280.779 41.4134 280.431 41.4134C280.105 41.4134 279.797 41.4734 279.508 41.5934C279.222 41.7103 278.988 41.8812 278.806 42.1058C278.625 42.3274 278.526 42.5952 278.511 42.9091H277.403C277.421 42.4136 277.571 41.9796 277.851 41.6072C278.131 41.2318 278.497 40.9394 278.949 40.7301C279.405 40.5208 279.905 40.4162 280.45 40.4162C281.035 40.4162 281.536 40.5347 281.955 40.7717C282.373 41.0056 282.695 41.3149 282.92 41.6996C283.144 42.0843 283.257 42.4998 283.257 42.946C283.257 43.4785 283.117 43.9324 282.837 44.3079C282.56 44.6834 282.183 44.9434 281.706 45.0881V45.1619C282.303 45.2604 282.769 45.5143 283.104 45.9237C283.44 46.3299 283.608 46.8331 283.608 47.4332C283.608 47.9472 283.467 48.4089 283.187 48.8182C282.91 49.2244 282.532 49.5445 282.052 49.7784C281.572 50.0123 281.025 50.1293 280.413 50.1293ZM286.146 50.0739C285.918 50.0739 285.723 49.9923 285.56 49.8292C285.397 49.6661 285.315 49.4706 285.315 49.2429C285.315 49.0152 285.397 48.8197 285.56 48.6566C285.723 48.4935 285.918 48.4119 286.146 48.4119C286.374 48.4119 286.569 48.4935 286.732 48.6566C286.896 48.8197 286.977 49.0152 286.977 49.2429C286.977 49.3937 286.939 49.5322 286.862 49.6584C286.788 49.7846 286.688 49.8861 286.562 49.9631C286.439 50.0369 286.3 50.0739 286.146 50.0739ZM291.808 50.1293C291.266 50.1293 290.778 50.0215 290.344 49.8061C289.91 49.5907 289.563 49.2952 289.301 48.9197C289.04 48.5443 288.896 48.1165 288.872 47.6364H289.98C290.023 48.0642 290.217 48.4181 290.561 48.6982C290.909 48.9751 291.325 49.1136 291.808 49.1136C292.196 49.1136 292.54 49.0228 292.842 48.8413C293.147 48.6597 293.385 48.4104 293.557 48.0934C293.733 47.7733 293.821 47.4117 293.821 47.0085C293.821 46.5961 293.73 46.2283 293.548 45.9052C293.37 45.579 293.124 45.322 292.81 45.1342C292.496 44.9465 292.137 44.8511 291.734 44.848C291.445 44.8449 291.148 44.8896 290.843 44.9819C290.538 45.0711 290.287 45.1866 290.091 45.3281L289.019 45.1989L289.592 40.5455H294.504V41.5611H290.552L290.22 44.3494H290.275C290.469 44.1955 290.712 44.0678 291.005 43.9663C291.297 43.8647 291.602 43.8139 291.919 43.8139C292.497 43.8139 293.013 43.9524 293.465 44.2294C293.921 44.5033 294.278 44.8788 294.536 45.3558C294.798 45.8329 294.929 46.3776 294.929 46.9901C294.929 47.5933 294.793 48.1319 294.522 48.6058C294.255 49.0767 293.885 49.4491 293.414 49.723C292.944 49.9938 292.408 50.1293 291.808 50.1293Z" fill="black"/>
<line x1="140.594" y1="98.708" x2="170.094" y2="57.708" stroke="black" stroke-dasharray="2 2"/>
<circle cx="3" cy="3" r="2.75" transform="matrix(1 0 0 -1 136 104)" stroke="black" stroke-width="0.5"/>
</svg>
