<svg width="523" height="127" viewBox="0 0 523 127" fill="none" xmlns="http://www.w3.org/2000/svg">
<rect x="48.5" y="0.5" width="423" height="126" rx="24.5" stroke="black"/>
<path d="M67.8217 27V17.5455H74.0817V19.1935H69.8207V21.4464H73.6662V23.0945H69.8207V27H67.8217ZM77.3224 27.1339C76.87 27.1339 76.4669 27.0554 76.1129 26.8984C75.759 26.7384 75.4789 26.503 75.2727 26.1921C75.0696 25.8782 74.968 25.4873 74.968 25.0195C74.968 24.6256 75.0404 24.2947 75.185 24.027C75.3297 23.7592 75.5266 23.5438 75.7759 23.3807C76.0252 23.2176 76.3084 23.0945 76.6254 23.0114C76.9454 22.9283 77.2809 22.8698 77.6317 22.8359C78.0442 22.7929 78.3765 22.7528 78.6289 22.7159C78.8813 22.6759 79.0644 22.6174 79.1783 22.5405C79.2921 22.4635 79.3491 22.3497 79.3491 22.1989V22.1712C79.3491 21.8788 79.2567 21.6526 79.0721 21.4925C78.8905 21.3325 78.632 21.2525 78.2965 21.2525C77.9426 21.2525 77.661 21.331 77.4517 21.4879C77.2424 21.6418 77.1039 21.8357 77.0362 22.0696L75.2173 21.9219C75.3097 21.491 75.4912 21.1186 75.7621 20.8047C76.0329 20.4877 76.3822 20.2446 76.81 20.0753C77.2409 19.9029 77.7395 19.8168 78.3058 19.8168C78.6997 19.8168 79.0767 19.8629 79.4368 19.9553C79.8 20.0476 80.1216 20.1907 80.4016 20.3846C80.6848 20.5785 80.9079 20.8278 81.071 21.1325C81.2341 21.4341 81.3157 21.7957 81.3157 22.2173V27H79.4506V26.0167H79.3952C79.2814 26.2383 79.129 26.4337 78.9382 26.603C78.7474 26.7692 78.5181 26.9 78.2504 26.9954C77.9826 27.0877 77.6733 27.1339 77.3224 27.1339ZM77.8857 25.7766C78.175 25.7766 78.4304 25.7197 78.652 25.6058C78.8736 25.4889 79.0475 25.3319 79.1737 25.1349C79.2998 24.938 79.3629 24.7148 79.3629 24.4656V23.7131C79.3014 23.7531 79.2167 23.79 79.109 23.8239C79.0044 23.8546 78.8859 23.8839 78.7536 23.9116C78.6212 23.9362 78.4889 23.9593 78.3565 23.9808C78.2242 23.9993 78.1042 24.0162 77.9964 24.0316C77.7656 24.0655 77.564 24.1193 77.3917 24.1932C77.2193 24.267 77.0855 24.3671 76.9901 24.4933C76.8946 24.6164 76.8469 24.7702 76.8469 24.9549C76.8469 25.2227 76.9439 25.4273 77.1378 25.5689C77.3348 25.7074 77.584 25.7766 77.8857 25.7766ZM82.8784 27V17.5455H84.845V21.1001H84.905C84.9912 20.9093 85.1158 20.7154 85.2789 20.5185C85.4451 20.3184 85.6606 20.1522 85.9252 20.0199C86.193 19.8845 86.5254 19.8168 86.9224 19.8168C87.4395 19.8168 87.9165 19.9522 88.3535 20.223C88.7905 20.4908 89.1399 20.8955 89.4015 21.4371C89.6631 21.9757 89.7939 22.6513 89.7939 23.4638C89.7939 24.2547 89.6661 24.9226 89.4107 25.4673C89.1583 26.009 88.8136 26.4199 88.3766 26.6999C87.9426 26.9769 87.4564 27.1154 86.9178 27.1154C86.5362 27.1154 86.2115 27.0523 85.9437 26.9261C85.679 26.8 85.4621 26.6415 85.2928 26.4506C85.1235 26.2567 84.9943 26.0613 84.905 25.8643H84.8173V27H82.8784ZM84.8034 23.4545C84.8034 23.8762 84.8619 24.244 84.9789 24.5579C85.0958 24.8718 85.2651 25.1165 85.4867 25.2919C85.7083 25.4643 85.9776 25.5504 86.2946 25.5504C86.6146 25.5504 86.8855 25.4627 87.1071 25.2873C87.3287 25.1088 87.4964 24.8626 87.6103 24.5487C87.7272 24.2317 87.7857 23.867 87.7857 23.4545C87.7857 23.0452 87.7288 22.6851 87.6149 22.3743C87.501 22.0634 87.3333 21.8203 87.1117 21.6449C86.8901 21.4695 86.6177 21.3817 86.2946 21.3817C85.9745 21.3817 85.7037 21.4664 85.4821 21.6357C85.2636 21.8049 85.0958 22.045 84.9789 22.3558C84.8619 22.6667 84.8034 23.0329 84.8034 23.4545ZM91.1061 27V19.9091H93.0127V21.1463H93.0866C93.2158 20.7062 93.4328 20.3738 93.7375 20.1491C94.0422 19.9214 94.393 19.8075 94.79 19.8075C94.8885 19.8075 94.9947 19.8137 95.1086 19.826C95.2224 19.8383 95.3225 19.8552 95.4086 19.8768V21.6218C95.3163 21.5941 95.1886 21.5695 95.0255 21.5479C94.8624 21.5264 94.7131 21.5156 94.5777 21.5156C94.2884 21.5156 94.0299 21.5787 93.8021 21.7049C93.5774 21.828 93.3989 22.0004 93.2666 22.2219C93.1373 22.4435 93.0727 22.699 93.0727 22.9883V27H91.1061ZM96.4254 27V19.9091H98.392V27H96.4254ZM97.4134 18.995C97.121 18.995 96.8701 18.8981 96.6609 18.7042C96.4547 18.5072 96.3516 18.2718 96.3516 17.9979C96.3516 17.727 96.4547 17.4947 96.6609 17.3008C96.8701 17.1038 97.121 17.0053 97.4134 17.0053C97.7057 17.0053 97.955 17.1038 98.1612 17.3008C98.3705 17.4947 98.4751 17.727 98.4751 17.9979C98.4751 18.2718 98.3705 18.5072 98.1612 18.7042C97.955 18.8981 97.7057 18.995 97.4134 18.995ZM104.653 29.6591V25.8643H104.593C104.501 26.0613 104.37 26.2567 104.201 26.4506C104.035 26.6415 103.818 26.8 103.55 26.9261C103.285 27.0523 102.962 27.1154 102.58 27.1154C102.042 27.1154 101.554 26.9769 101.117 26.6999C100.683 26.4199 100.338 26.009 100.083 25.4673C99.8305 24.9226 99.7043 24.2547 99.7043 23.4638C99.7043 22.6513 99.8351 21.9757 100.097 21.4371C100.358 20.8955 100.706 20.4908 101.14 20.223C101.577 19.9522 102.056 19.8168 102.576 19.8168C102.973 19.8168 103.304 19.8845 103.568 20.0199C103.836 20.1522 104.051 20.3184 104.215 20.5185C104.381 20.7154 104.507 20.9093 104.593 21.1001H104.676V19.9091H106.615V29.6591H104.653ZM103.204 25.5504C103.521 25.5504 103.788 25.4643 104.007 25.2919C104.228 25.1165 104.398 24.8718 104.515 24.5579C104.635 24.244 104.695 23.8762 104.695 23.4545C104.695 23.0329 104.636 22.6667 104.519 22.3558C104.402 22.045 104.233 21.8049 104.011 21.6357C103.79 21.4664 103.521 21.3817 103.204 21.3817C102.88 21.3817 102.608 21.4695 102.386 21.6449C102.165 21.8203 101.997 22.0634 101.883 22.3743C101.769 22.6851 101.712 23.0452 101.712 23.4545C101.712 23.867 101.769 24.2317 101.883 24.5487C102 24.8626 102.168 25.1088 102.386 25.2873C102.608 25.4627 102.88 25.5504 103.204 25.5504ZM112.741 23.9808V19.9091H114.708V27H112.82V25.712H112.746C112.586 26.1275 112.32 26.4614 111.947 26.7138C111.578 26.9661 111.127 27.0923 110.595 27.0923C110.121 27.0923 109.704 26.9846 109.343 26.7692C108.983 26.5537 108.702 26.2475 108.499 25.8505C108.299 25.4535 108.197 24.978 108.194 24.424V19.9091H110.161V24.0732C110.164 24.4917 110.276 24.8226 110.498 25.0657C110.719 25.3088 111.016 25.4304 111.389 25.4304C111.626 25.4304 111.847 25.3765 112.053 25.2688C112.26 25.158 112.426 24.9949 112.552 24.7795C112.681 24.564 112.744 24.2978 112.741 23.9808ZM119.512 27.1385C118.783 27.1385 118.155 26.9908 117.629 26.6953C117.106 26.3968 116.703 25.9751 116.419 25.4304C116.136 24.8826 115.995 24.2347 115.995 23.4869C115.995 22.7575 116.136 22.1173 116.419 21.5664C116.703 21.0155 117.101 20.5862 117.615 20.2784C118.132 19.9706 118.738 19.8168 119.434 19.8168C119.902 19.8168 120.337 19.8922 120.74 20.043C121.147 20.1907 121.501 20.4138 121.802 20.7124C122.107 21.0109 122.344 21.3864 122.513 21.8388C122.682 22.2881 122.767 22.8144 122.767 23.4176V23.9577H116.779V22.739H120.916C120.916 22.4558 120.854 22.205 120.731 21.9865C120.608 21.768 120.437 21.5972 120.219 21.4741C120.003 21.3479 119.752 21.2848 119.466 21.2848C119.168 21.2848 118.903 21.354 118.672 21.4925C118.444 21.628 118.266 21.8111 118.137 22.0419C118.007 22.2696 117.941 22.5236 117.938 22.8036V23.9624C117.938 24.3132 118.003 24.6164 118.132 24.8718C118.264 25.1272 118.451 25.3242 118.691 25.4627C118.931 25.6012 119.215 25.6705 119.545 25.6705C119.763 25.6705 119.963 25.6397 120.145 25.5781C120.326 25.5166 120.482 25.4242 120.611 25.3011C120.74 25.178 120.839 25.0272 120.907 24.8487L122.725 24.9688C122.633 25.4058 122.444 25.7874 122.158 26.1136C121.875 26.4368 121.508 26.6892 121.059 26.8707C120.613 27.0492 120.097 27.1385 119.512 27.1385ZM124.05 27V19.9091H125.957V21.1463H126.031C126.16 20.7062 126.377 20.3738 126.682 20.1491C126.987 19.9214 127.337 19.8075 127.734 19.8075C127.833 19.8075 127.939 19.8137 128.053 19.826C128.167 19.8383 128.267 19.8552 128.353 19.8768V21.6218C128.261 21.5941 128.133 21.5695 127.97 21.5479C127.807 21.5264 127.657 21.5156 127.522 21.5156C127.233 21.5156 126.974 21.5787 126.746 21.7049C126.522 21.828 126.343 22.0004 126.211 22.2219C126.082 22.4435 126.017 22.699 126.017 22.9883V27H124.05ZM136.926 23.9808V19.9091H138.892V27H137.004V25.712H136.93C136.77 26.1275 136.504 26.4614 136.132 26.7138C135.762 26.9661 135.312 27.0923 134.779 27.0923C134.305 27.0923 133.888 26.9846 133.528 26.7692C133.168 26.5537 132.886 26.2475 132.683 25.8505C132.483 25.4535 132.382 24.978 132.379 24.424V19.9091H134.345V24.0732C134.348 24.4917 134.461 24.8226 134.682 25.0657C134.904 25.3088 135.201 25.4304 135.573 25.4304C135.81 25.4304 136.032 25.3765 136.238 25.2688C136.444 25.158 136.61 24.9949 136.737 24.7795C136.866 24.564 136.929 24.2978 136.926 23.9808ZM142.432 22.9006V27H140.465V19.9091H142.34V21.1602H142.423C142.58 20.7478 142.843 20.4215 143.212 20.1815C143.582 19.9383 144.029 19.8168 144.556 19.8168C145.048 19.8168 145.477 19.9245 145.844 20.1399C146.21 20.3554 146.495 20.6631 146.698 21.0632C146.901 21.4602 147.002 21.9342 147.002 22.4851V27H145.036V22.8359C145.039 22.402 144.928 22.0634 144.703 21.8203C144.479 21.5741 144.169 21.451 143.775 21.451C143.511 21.451 143.277 21.5079 143.074 21.6218C142.874 21.7357 142.717 21.9019 142.603 22.1204C142.492 22.3358 142.435 22.5959 142.432 22.9006ZM151.784 27.1385C151.055 27.1385 150.427 26.9908 149.9 26.6953C149.377 26.3968 148.974 25.9751 148.691 25.4304C148.408 24.8826 148.266 24.2347 148.266 23.4869C148.266 22.7575 148.408 22.1173 148.691 21.5664C148.974 21.0155 149.373 20.5862 149.887 20.2784C150.404 19.9706 151.01 19.8168 151.705 19.8168C152.173 19.8168 152.609 19.8922 153.012 20.043C153.418 20.1907 153.772 20.4138 154.074 20.7124C154.378 21.0109 154.615 21.3864 154.785 21.8388C154.954 22.2881 155.039 22.8144 155.039 23.4176V23.9577H149.051V22.739H153.187C153.187 22.4558 153.126 22.205 153.003 21.9865C152.88 21.768 152.709 21.5972 152.49 21.4741C152.275 21.3479 152.024 21.2848 151.738 21.2848C151.439 21.2848 151.175 21.354 150.944 21.4925C150.716 21.628 150.537 21.8111 150.408 22.0419C150.279 22.2696 150.213 22.5236 150.21 22.8036V23.9624C150.21 24.3132 150.274 24.6164 150.404 24.8718C150.536 25.1272 150.722 25.3242 150.962 25.4627C151.202 25.6012 151.487 25.6705 151.816 25.6705C152.035 25.6705 152.235 25.6397 152.416 25.5781C152.598 25.5166 152.753 25.4242 152.883 25.3011C153.012 25.178 153.11 25.0272 153.178 24.8487L154.997 24.9688C154.905 25.4058 154.715 25.7874 154.429 26.1136C154.146 26.4368 153.78 26.6892 153.33 26.8707C152.884 27.0492 152.369 27.1385 151.784 27.1385ZM162.535 27.1385C161.808 27.1385 161.183 26.9846 160.66 26.6768C160.14 26.366 159.74 25.9351 159.46 25.3842C159.183 24.8333 159.044 24.1993 159.044 23.4822C159.044 22.7559 159.185 22.1188 159.465 21.571C159.748 21.0201 160.149 20.5908 160.669 20.283C161.19 19.9722 161.808 19.8168 162.525 19.8168C163.144 19.8168 163.686 19.9291 164.15 20.1538C164.615 20.3784 164.983 20.6939 165.254 21.1001C165.524 21.5064 165.674 21.9834 165.701 22.5312H163.846C163.793 22.1773 163.655 21.8926 163.43 21.6772C163.209 21.4587 162.918 21.3494 162.558 21.3494C162.253 21.3494 161.987 21.4325 161.759 21.5987C161.534 21.7618 161.359 22.0004 161.233 22.3143C161.107 22.6282 161.043 23.0083 161.043 23.4545C161.043 23.907 161.105 24.2917 161.228 24.6087C161.354 24.9257 161.531 25.1673 161.759 25.3335C161.987 25.4996 162.253 25.5827 162.558 25.5827C162.782 25.5827 162.984 25.5366 163.162 25.4442C163.344 25.3519 163.493 25.218 163.61 25.0426C163.73 24.8641 163.809 24.6502 163.846 24.4009H165.701C165.671 24.9426 165.523 25.4196 165.258 25.832C164.997 26.2414 164.635 26.5614 164.173 26.7923C163.712 27.0231 163.165 27.1385 162.535 27.1385ZM168.927 22.9006V27H166.961V17.5455H168.872V21.1602H168.955C169.115 20.7416 169.373 20.4138 169.73 20.1768C170.087 19.9368 170.535 19.8168 171.074 19.8168C171.566 19.8168 171.996 19.9245 172.362 20.1399C172.731 20.3523 173.017 20.6585 173.221 21.0586C173.427 21.4556 173.528 21.9311 173.525 22.4851V27H171.559V22.8359C171.562 22.3989 171.451 22.0588 171.226 21.8157C171.005 21.5726 170.694 21.451 170.294 21.451C170.026 21.451 169.789 21.5079 169.583 21.6218C169.38 21.7357 169.22 21.9019 169.103 22.1204C168.989 22.3358 168.93 22.5959 168.927 22.9006ZM177.095 27.1339C176.642 27.1339 176.239 27.0554 175.885 26.8984C175.531 26.7384 175.251 26.503 175.045 26.1921C174.842 25.8782 174.741 25.4873 174.741 25.0195C174.741 24.6256 174.813 24.2947 174.957 24.027C175.102 23.7592 175.299 23.5438 175.548 23.3807C175.798 23.2176 176.081 23.0945 176.398 23.0114C176.718 22.9283 177.053 22.8698 177.404 22.8359C177.817 22.7929 178.149 22.7528 178.401 22.7159C178.654 22.6759 178.837 22.6174 178.951 22.5405C179.065 22.4635 179.122 22.3497 179.122 22.1989V22.1712C179.122 21.8788 179.029 21.6526 178.845 21.4925C178.663 21.3325 178.404 21.2525 178.069 21.2525C177.715 21.2525 177.433 21.331 177.224 21.4879C177.015 21.6418 176.876 21.8357 176.809 22.0696L174.99 21.9219C175.082 21.491 175.264 21.1186 175.535 20.8047C175.805 20.4877 176.155 20.2446 176.582 20.0753C177.013 19.9029 177.512 19.8168 178.078 19.8168C178.472 19.8168 178.849 19.8629 179.209 19.9553C179.572 20.0476 179.894 20.1907 180.174 20.3846C180.457 20.5785 180.68 20.8278 180.843 21.1325C181.007 21.4341 181.088 21.7957 181.088 22.2173V27H179.223V26.0167H179.168C179.054 26.2383 178.901 26.4337 178.711 26.603C178.52 26.7692 178.291 26.9 178.023 26.9954C177.755 27.0877 177.446 27.1339 177.095 27.1339ZM177.658 25.7766C177.947 25.7766 178.203 25.7197 178.424 25.6058C178.646 25.4889 178.82 25.3319 178.946 25.1349C179.072 24.938 179.135 24.7148 179.135 24.4656V23.7131C179.074 23.7531 178.989 23.79 178.881 23.8239C178.777 23.8546 178.658 23.8839 178.526 23.9116C178.394 23.9362 178.261 23.9593 178.129 23.9808C177.997 23.9993 177.877 24.0162 177.769 24.0316C177.538 24.0655 177.336 24.1193 177.164 24.1932C176.992 24.267 176.858 24.3671 176.763 24.4933C176.667 24.6164 176.619 24.7702 176.619 24.9549C176.619 25.2227 176.716 25.4273 176.91 25.5689C177.107 25.7074 177.357 25.7766 177.658 25.7766ZM182.614 27V19.9091H184.581V27H182.614ZM183.602 18.995C183.309 18.995 183.059 18.8981 182.849 18.7042C182.643 18.5072 182.54 18.2718 182.54 17.9979C182.54 17.727 182.643 17.4947 182.849 17.3008C183.059 17.1038 183.309 17.0053 183.602 17.0053C183.894 17.0053 184.143 17.1038 184.35 17.3008C184.559 17.4947 184.664 17.727 184.664 17.9979C184.664 18.2718 184.559 18.5072 184.35 18.7042C184.143 18.8981 183.894 18.995 183.602 18.995ZM192.056 21.9311L190.255 22.0419C190.225 21.888 190.158 21.7495 190.057 21.6264C189.955 21.5002 189.821 21.4002 189.655 21.3263C189.492 21.2494 189.297 21.2109 189.069 21.2109C188.764 21.2109 188.507 21.2756 188.298 21.4048C188.089 21.531 187.984 21.7003 187.984 21.9126C187.984 22.0819 188.052 22.225 188.187 22.342C188.323 22.4589 188.555 22.5528 188.884 22.6236L190.168 22.8821C190.857 23.0237 191.371 23.2514 191.71 23.5653C192.048 23.8793 192.217 24.2917 192.217 24.8026C192.217 25.2673 192.08 25.6751 191.806 26.0259C191.536 26.3768 191.163 26.6507 190.689 26.8477C190.218 27.0415 189.675 27.1385 189.06 27.1385C188.121 27.1385 187.373 26.9431 186.816 26.5522C186.262 26.1583 185.937 25.6228 185.842 24.9457L187.776 24.8441C187.835 25.1303 187.976 25.3488 188.201 25.4996C188.426 25.6474 188.713 25.7212 189.064 25.7212C189.409 25.7212 189.686 25.6551 189.895 25.5227C190.108 25.3873 190.215 25.2134 190.218 25.0011C190.215 24.8226 190.14 24.6764 189.992 24.5625C189.844 24.4455 189.617 24.3563 189.309 24.2947L188.081 24.0501C187.388 23.9116 186.873 23.6715 186.534 23.3299C186.199 22.9883 186.031 22.5528 186.031 22.0234C186.031 21.5679 186.154 21.1755 186.401 20.8462C186.65 20.5169 186.999 20.263 187.449 20.0845C187.901 19.906 188.43 19.8168 189.037 19.8168C189.932 19.8168 190.637 20.006 191.151 20.3846C191.668 20.7631 191.97 21.2786 192.056 21.9311ZM196.687 27.1385C195.958 27.1385 195.33 26.9908 194.804 26.6953C194.281 26.3968 193.877 25.9751 193.594 25.4304C193.311 24.8826 193.169 24.2347 193.169 23.4869C193.169 22.7575 193.311 22.1173 193.594 21.5664C193.877 21.0155 194.276 20.5862 194.79 20.2784C195.307 19.9706 195.913 19.8168 196.609 19.8168C197.077 19.8168 197.512 19.8922 197.915 20.043C198.321 20.1907 198.675 20.4138 198.977 20.7124C199.282 21.0109 199.519 21.3864 199.688 21.8388C199.857 22.2881 199.942 22.8144 199.942 23.4176V23.9577H193.954V22.739H198.091C198.091 22.4558 198.029 22.205 197.906 21.9865C197.783 21.768 197.612 21.5972 197.394 21.4741C197.178 21.3479 196.927 21.2848 196.641 21.2848C196.343 21.2848 196.078 21.354 195.847 21.4925C195.619 21.628 195.441 21.8111 195.312 22.0419C195.182 22.2696 195.116 22.5236 195.113 22.8036V23.9624C195.113 24.3132 195.178 24.6164 195.307 24.8718C195.439 25.1272 195.625 25.3242 195.866 25.4627C196.106 25.6012 196.39 25.6705 196.72 25.6705C196.938 25.6705 197.138 25.6397 197.32 25.5781C197.501 25.5166 197.657 25.4242 197.786 25.3011C197.915 25.178 198.014 25.0272 198.081 24.8487L199.9 24.9688C199.808 25.4058 199.619 25.7874 199.332 26.1136C199.049 26.4368 198.683 26.6892 198.234 26.8707C197.787 27.0492 197.272 27.1385 196.687 27.1385Z" fill="black"/>
<rect x="0.25" y="50.25" width="104.5" height="33.5" fill="#F1F1F1" stroke="black" stroke-width="0.5"/>
<rect x="418.25" y="50.25" width="104.5" height="33.5" fill="#F1F1F1" stroke="black" stroke-width="0.5"/>
<path d="M37.0568 71V62.2727H40.108C40.7159 62.2727 41.2173 62.3778 41.6122 62.5881C42.0071 62.7955 42.3011 63.0753 42.4943 63.4276C42.6875 63.777 42.7841 64.1648 42.7841 64.5909C42.7841 64.9659 42.7173 65.2756 42.5838 65.5199C42.4531 65.7642 42.2798 65.9574 42.0639 66.0994C41.8509 66.2415 41.6193 66.3466 41.3693 66.4148V66.5C41.6364 66.517 41.9048 66.6108 42.1747 66.7812C42.4446 66.9517 42.6705 67.196 42.8523 67.5142C43.0341 67.8324 43.125 68.2216 43.125 68.6818C43.125 69.1193 43.0256 69.5128 42.8267 69.8622C42.6278 70.2116 42.3139 70.4886 41.8849 70.6932C41.456 70.8977 40.8977 71 40.2102 71H37.0568ZM38.1136 70.0625H40.2102C40.9006 70.0625 41.3906 69.929 41.6804 69.6619C41.973 69.392 42.1193 69.0653 42.1193 68.6818C42.1193 68.3864 42.044 68.1136 41.8935 67.8636C41.7429 67.6108 41.5284 67.4091 41.25 67.2585C40.9716 67.1051 40.642 67.0284 40.2614 67.0284H38.1136V70.0625ZM38.1136 66.108H40.0739C40.392 66.108 40.679 66.0455 40.9347 65.9205C41.1932 65.7955 41.3977 65.6193 41.5483 65.392C41.7017 65.1648 41.7784 64.8977 41.7784 64.5909C41.7784 64.2074 41.6449 63.8821 41.3778 63.6151C41.1108 63.3452 40.6875 63.2102 40.108 63.2102H38.1136V66.108ZM47.3842 71.1364C46.7933 71.1364 46.2749 70.9957 45.8288 70.7145C45.3857 70.4332 45.0391 70.0398 44.7891 69.5341C44.5419 69.0284 44.4183 68.4375 44.4183 67.7614C44.4183 67.0795 44.5419 66.4844 44.7891 65.9759C45.0391 65.4673 45.3857 65.0724 45.8288 64.7912C46.2749 64.5099 46.7933 64.3693 47.3842 64.3693C47.9751 64.3693 48.4922 64.5099 48.9354 64.7912C49.3814 65.0724 49.728 65.4673 49.9751 65.9759C50.2251 66.4844 50.3501 67.0795 50.3501 67.7614C50.3501 68.4375 50.2251 69.0284 49.9751 69.5341C49.728 70.0398 49.3814 70.4332 48.9354 70.7145C48.4922 70.9957 47.9751 71.1364 47.3842 71.1364ZM47.3842 70.233C47.8331 70.233 48.2024 70.1179 48.4922 69.8878C48.782 69.6577 48.9964 69.3551 49.1357 68.9801C49.2749 68.6051 49.3445 68.1989 49.3445 67.7614C49.3445 67.3239 49.2749 66.9162 49.1357 66.5384C48.9964 66.1605 48.782 65.8551 48.4922 65.6222C48.2024 65.3892 47.8331 65.2727 47.3842 65.2727C46.9354 65.2727 46.5661 65.3892 46.2763 65.6222C45.9865 65.8551 45.772 66.1605 45.6328 66.5384C45.4936 66.9162 45.424 67.3239 45.424 67.7614C45.424 68.1989 45.4936 68.6051 45.6328 68.9801C45.772 69.3551 45.9865 69.6577 46.2763 69.8878C46.5661 70.1179 46.9354 70.233 47.3842 70.233ZM51.8853 71V64.4545H52.891V71H51.8853ZM52.3967 63.3636C52.2006 63.3636 52.0316 63.2969 51.8896 63.1634C51.7504 63.0298 51.6808 62.8693 51.6808 62.6818C51.6808 62.4943 51.7504 62.3338 51.8896 62.2003C52.0316 62.0668 52.2006 62 52.3967 62C52.5927 62 52.7603 62.0668 52.8995 62.2003C53.0415 62.3338 53.1126 62.4943 53.1126 62.6818C53.1126 62.8693 53.0415 63.0298 52.8995 63.1634C52.7603 63.2969 52.5927 63.3636 52.3967 63.3636ZM59.3693 65.9205L58.4659 66.1761C58.4091 66.0256 58.3253 65.8793 58.2145 65.7372C58.1065 65.5923 57.9588 65.473 57.7713 65.3793C57.5838 65.2855 57.3438 65.2386 57.0511 65.2386C56.6506 65.2386 56.3168 65.331 56.0497 65.5156C55.7855 65.6974 55.6534 65.929 55.6534 66.2102C55.6534 66.4602 55.7443 66.6577 55.9261 66.8026C56.108 66.9474 56.392 67.0682 56.7784 67.1648L57.75 67.4034C58.3352 67.5455 58.7713 67.7628 59.0582 68.0554C59.3452 68.3452 59.4886 68.7187 59.4886 69.1761C59.4886 69.5511 59.3807 69.8864 59.1648 70.1818C58.9517 70.4773 58.6534 70.7102 58.2699 70.8807C57.8864 71.0511 57.4403 71.1364 56.9318 71.1364C56.2642 71.1364 55.7116 70.9915 55.2741 70.7017C54.8366 70.4119 54.5597 69.9886 54.4432 69.4318L55.3977 69.1932C55.4886 69.5455 55.6605 69.8097 55.9134 69.9858C56.169 70.1619 56.5028 70.25 56.9148 70.25C57.3835 70.25 57.7557 70.1506 58.0312 69.9517C58.3097 69.75 58.4489 69.5085 58.4489 69.2273C58.4489 69 58.3693 68.8097 58.2102 68.6562C58.0511 68.5 57.8068 68.3835 57.4773 68.3068L56.3864 68.0511C55.7869 67.9091 55.3466 67.6889 55.0653 67.3906C54.7869 67.0895 54.6477 66.7131 54.6477 66.2614C54.6477 65.892 54.7514 65.5653 54.9588 65.2812C55.169 64.9972 55.4545 64.7741 55.8153 64.6122C56.179 64.4503 56.5909 64.3693 57.0511 64.3693C57.6989 64.3693 58.2074 64.5114 58.5767 64.7955C58.9489 65.0795 59.2131 65.4545 59.3693 65.9205Z" fill="black"/>
<path d="M459.08 65H458.023C457.96 64.696 457.851 64.429 457.695 64.1989C457.541 63.9688 457.354 63.7756 457.132 63.6193C456.913 63.4602 456.67 63.3409 456.403 63.2614C456.136 63.1818 455.858 63.142 455.568 63.142C455.04 63.142 454.561 63.2756 454.132 63.5426C453.706 63.8097 453.366 64.2031 453.114 64.723C452.864 65.2429 452.739 65.8807 452.739 66.6364C452.739 67.392 452.864 68.0298 453.114 68.5497C453.366 69.0696 453.706 69.4631 454.132 69.7301C454.561 69.9972 455.04 70.1307 455.568 70.1307C455.858 70.1307 456.136 70.0909 456.403 70.0114C456.67 69.9318 456.913 69.8139 457.132 69.6577C457.354 69.4986 457.541 69.304 457.695 69.0739C457.851 68.8409 457.96 68.5739 458.023 68.2727H459.08C459 68.7187 458.855 69.1179 458.645 69.4702C458.435 69.8224 458.173 70.1222 457.861 70.3693C457.548 70.6136 457.197 70.7997 456.808 70.9276C456.422 71.0554 456.009 71.1193 455.568 71.1193C454.824 71.1193 454.162 70.9375 453.582 70.5739C453.003 70.2102 452.547 69.6932 452.214 69.0227C451.882 68.3523 451.716 67.5568 451.716 66.6364C451.716 65.7159 451.882 64.9205 452.214 64.25C452.547 63.5795 453.003 63.0625 453.582 62.6989C454.162 62.3352 454.824 62.1534 455.568 62.1534C456.009 62.1534 456.422 62.2173 456.808 62.3452C457.197 62.473 457.548 62.6605 457.861 62.9077C458.173 63.152 458.435 63.4503 458.645 63.8026C458.855 64.152 459 64.5511 459.08 65ZM461.657 67.0625V71H460.651V62.2727H461.657V65.4773H461.742C461.895 65.1392 462.125 64.8707 462.432 64.6719C462.742 64.4702 463.154 64.3693 463.668 64.3693C464.114 64.3693 464.505 64.4588 464.84 64.6378C465.175 64.8139 465.435 65.0852 465.62 65.4517C465.807 65.8153 465.901 66.2784 465.901 66.8409V71H464.895V66.9091C464.895 66.3892 464.76 65.9872 464.49 65.7031C464.223 65.4162 463.853 65.2727 463.378 65.2727C463.049 65.2727 462.753 65.3423 462.492 65.4815C462.233 65.6207 462.029 65.8239 461.878 66.0909C461.73 66.358 461.657 66.6818 461.657 67.0625ZM469.667 71.1534C469.252 71.1534 468.876 71.0753 468.538 70.919C468.2 70.7599 467.931 70.5312 467.732 70.233C467.533 69.9318 467.434 69.5682 467.434 69.142C467.434 68.767 467.508 68.4631 467.656 68.2301C467.803 67.9943 468.001 67.8097 468.248 67.6761C468.495 67.5426 468.768 67.4432 469.066 67.3778C469.367 67.3097 469.67 67.2557 469.974 67.2159C470.371 67.1648 470.694 67.1264 470.941 67.1009C471.191 67.0724 471.373 67.0256 471.487 66.9602C471.603 66.8949 471.661 66.7812 471.661 66.6193V66.5852C471.661 66.1648 471.546 65.8381 471.316 65.6051C471.089 65.3722 470.744 65.2557 470.281 65.2557C469.8 65.2557 469.424 65.3608 469.151 65.571C468.879 65.7812 468.687 66.0057 468.576 66.2443L467.621 65.9034C467.792 65.5057 468.019 65.196 468.303 64.9744C468.59 64.75 468.903 64.5937 469.241 64.5057C469.582 64.4148 469.917 64.3693 470.246 64.3693C470.457 64.3693 470.698 64.3949 470.971 64.446C471.246 64.4943 471.512 64.5952 471.768 64.7486C472.026 64.902 472.241 65.1335 472.411 65.4432C472.582 65.7528 472.667 66.1676 472.667 66.6875V71H471.661V70.1136H471.61C471.542 70.2557 471.428 70.4077 471.269 70.5696C471.11 70.7315 470.898 70.8693 470.634 70.983C470.37 71.0966 470.048 71.1534 469.667 71.1534ZM469.82 70.25C470.218 70.25 470.553 70.1719 470.826 70.0156C471.102 69.8594 471.309 69.6577 471.448 69.4105C471.59 69.1634 471.661 68.9034 471.661 68.6307V67.7102C471.619 67.7614 471.525 67.8082 471.38 67.8509C471.238 67.8906 471.073 67.9261 470.886 67.9574C470.701 67.9858 470.521 68.0114 470.344 68.0341C470.171 68.054 470.031 68.071 469.923 68.0852C469.661 68.1193 469.417 68.1747 469.19 68.2514C468.965 68.3253 468.783 68.4375 468.644 68.5881C468.508 68.7358 468.44 68.9375 468.44 69.1932C468.44 69.5426 468.569 69.8068 468.827 69.9858C469.089 70.1619 469.42 70.25 469.82 70.25ZM474.502 71V64.4545H475.508V71H474.502ZM475.014 63.3636C474.818 63.3636 474.649 63.2969 474.507 63.1634C474.368 63.0298 474.298 62.8693 474.298 62.6818C474.298 62.4943 474.368 62.3338 474.507 62.2003C474.649 62.0668 474.818 62 475.014 62C475.21 62 475.377 62.0668 475.517 62.2003C475.659 62.3338 475.73 62.4943 475.73 62.6818C475.73 62.8693 475.659 63.0298 475.517 63.1634C475.377 63.2969 475.21 63.3636 475.014 63.3636ZM481.987 65.9205L481.083 66.1761C481.026 66.0256 480.942 65.8793 480.832 65.7372C480.724 65.5923 480.576 65.473 480.388 65.3793C480.201 65.2855 479.961 65.2386 479.668 65.2386C479.268 65.2386 478.934 65.331 478.667 65.5156C478.403 65.6974 478.271 65.929 478.271 66.2102C478.271 66.4602 478.362 66.6577 478.543 66.8026C478.725 66.9474 479.009 67.0682 479.396 67.1648L480.367 67.4034C480.952 67.5455 481.388 67.7628 481.675 68.0554C481.962 68.3452 482.106 68.7187 482.106 69.1761C482.106 69.5511 481.998 69.8864 481.782 70.1818C481.569 70.4773 481.271 70.7102 480.887 70.8807C480.504 71.0511 480.058 71.1364 479.549 71.1364C478.881 71.1364 478.329 70.9915 477.891 70.7017C477.454 70.4119 477.177 69.9886 477.06 69.4318L478.015 69.1932C478.106 69.5455 478.278 69.8097 478.531 69.9858C478.786 70.1619 479.12 70.25 479.532 70.25C480.001 70.25 480.373 70.1506 480.648 69.9517C480.927 69.75 481.066 69.5085 481.066 69.2273C481.066 69 480.987 68.8097 480.827 68.6562C480.668 68.5 480.424 68.3835 480.094 68.3068L479.004 68.0511C478.404 67.9091 477.964 67.6889 477.683 67.3906C477.404 67.0895 477.265 66.7131 477.265 66.2614C477.265 65.892 477.369 65.5653 477.576 65.2812C477.786 64.9972 478.072 64.7741 478.433 64.6122C478.796 64.4503 479.208 64.3693 479.668 64.3693C480.316 64.3693 480.825 64.5114 481.194 64.7955C481.566 65.0795 481.83 65.4545 481.987 65.9205ZM486.364 71.1364C485.733 71.1364 485.189 70.9972 484.732 70.7188C484.277 70.4375 483.926 70.0455 483.679 69.5426C483.435 69.0369 483.313 68.4489 483.313 67.7784C483.313 67.108 483.435 66.517 483.679 66.0057C483.926 65.4915 484.27 65.0909 484.711 64.804C485.154 64.5142 485.671 64.3693 486.262 64.3693C486.603 64.3693 486.939 64.4261 487.272 64.5398C487.604 64.6534 487.907 64.8381 488.179 65.0938C488.452 65.3466 488.669 65.6818 488.831 66.0994C488.993 66.517 489.074 67.0312 489.074 67.642V68.0682H484.029V67.1989H488.051C488.051 66.8295 487.978 66.5 487.83 66.2102C487.685 65.9205 487.478 65.6918 487.208 65.5241C486.941 65.3565 486.625 65.2727 486.262 65.2727C485.861 65.2727 485.515 65.3722 485.222 65.571C484.932 65.767 484.709 66.0227 484.553 66.3381C484.397 66.6534 484.319 66.9915 484.319 67.3523V67.9318C484.319 68.4261 484.404 68.8452 484.574 69.1889C484.748 69.5298 484.988 69.7898 485.294 69.9688C485.601 70.1449 485.958 70.233 486.364 70.233C486.628 70.233 486.867 70.196 487.08 70.1222C487.296 70.0455 487.482 69.9318 487.638 69.7812C487.794 69.6278 487.915 69.4375 488 69.2102L488.972 69.483C488.87 69.8125 488.698 70.1023 488.456 70.3523C488.215 70.5994 487.917 70.7926 487.561 70.9318C487.206 71.0682 486.807 71.1364 486.364 71.1364Z" fill="black"/>
<path d="M230.5 50H138.5C131.596 50 126 55.5964 126 62.5V71.6328C126 78.5364 131.596 84.1328 138.5 84.1328H230.5C237.404 84.1328 243 78.5364 243 71.6328V62.5C243 55.5964 237.404 50 230.5 50Z" fill="#F1F1F1" stroke="#181818" stroke-width="0.5"/>
<path d="M382.791 50H278.209C270.362 50 264 55.5747 264 62.4514V71.5486C264 78.4253 270.362 84 278.209 84H382.791C390.638 84 397 78.4253 397 71.5486V62.4514C397 55.5747 390.638 50 382.791 50Z" fill="#F1F1F1" stroke="#181818" stroke-width="0.5"/>
<path d="M141.08 65H140.023C139.96 64.696 139.851 64.429 139.695 64.1989C139.541 63.9688 139.354 63.7756 139.132 63.6193C138.913 63.4602 138.67 63.3409 138.403 63.2614C138.136 63.1818 137.858 63.142 137.568 63.142C137.04 63.142 136.561 63.2756 136.132 63.5426C135.706 63.8097 135.366 64.2031 135.114 64.723C134.864 65.2429 134.739 65.8807 134.739 66.6364C134.739 67.392 134.864 68.0298 135.114 68.5497C135.366 69.0696 135.706 69.4631 136.132 69.7301C136.561 69.9972 137.04 70.1307 137.568 70.1307C137.858 70.1307 138.136 70.0909 138.403 70.0114C138.67 69.9318 138.913 69.8139 139.132 69.6577C139.354 69.4986 139.541 69.304 139.695 69.0739C139.851 68.8409 139.96 68.5739 140.023 68.2727H141.08C141 68.7187 140.855 69.1179 140.645 69.4702C140.435 69.8224 140.173 70.1222 139.861 70.3693C139.548 70.6136 139.197 70.7997 138.808 70.9276C138.422 71.0554 138.009 71.1193 137.568 71.1193C136.824 71.1193 136.162 70.9375 135.582 70.5739C135.003 70.2102 134.547 69.6932 134.214 69.0227C133.882 68.3523 133.716 67.5568 133.716 66.6364C133.716 65.7159 133.882 64.9205 134.214 64.25C134.547 63.5795 135.003 63.0625 135.582 62.6989C136.162 62.3352 136.824 62.1534 137.568 62.1534C138.009 62.1534 138.422 62.2173 138.808 62.3452C139.197 62.473 139.548 62.6605 139.861 62.9077C140.173 63.152 140.435 63.4503 140.645 63.8026C140.855 64.152 141 64.5511 141.08 65ZM145.31 71.1364C144.719 71.1364 144.201 70.9957 143.755 70.7145C143.311 70.4332 142.965 70.0398 142.715 69.5341C142.468 69.0284 142.344 68.4375 142.344 67.7614C142.344 67.0795 142.468 66.4844 142.715 65.9759C142.965 65.4673 143.311 65.0724 143.755 64.7912C144.201 64.5099 144.719 64.3693 145.31 64.3693C145.901 64.3693 146.418 64.5099 146.861 64.7912C147.307 65.0724 147.654 65.4673 147.901 65.9759C148.151 66.4844 148.276 67.0795 148.276 67.7614C148.276 68.4375 148.151 69.0284 147.901 69.5341C147.654 70.0398 147.307 70.4332 146.861 70.7145C146.418 70.9957 145.901 71.1364 145.31 71.1364ZM145.31 70.233C145.759 70.233 146.128 70.1179 146.418 69.8878C146.708 69.6577 146.922 69.3551 147.061 68.9801C147.201 68.6051 147.27 68.1989 147.27 67.7614C147.27 67.3239 147.201 66.9162 147.061 66.5384C146.922 66.1605 146.708 65.8551 146.418 65.6222C146.128 65.3892 145.759 65.2727 145.31 65.2727C144.861 65.2727 144.492 65.3892 144.202 65.6222C143.912 65.8551 143.698 66.1605 143.559 66.5384C143.419 66.9162 143.35 67.3239 143.35 67.7614C143.35 68.1989 143.419 68.6051 143.559 68.9801C143.698 69.3551 143.912 69.6577 144.202 69.8878C144.492 70.1179 144.861 70.233 145.31 70.233ZM153.936 68.3239V64.4545H154.942V71H153.936V69.892H153.868C153.714 70.2244 153.476 70.5071 153.152 70.7401C152.828 70.9702 152.419 71.0852 151.925 71.0852C151.516 71.0852 151.152 70.9957 150.834 70.8168C150.516 70.6349 150.266 70.3622 150.084 69.9986C149.902 69.6321 149.811 69.1705 149.811 68.6136V64.4545H150.817V68.5455C150.817 69.0227 150.95 69.4034 151.217 69.6875C151.487 69.9716 151.831 70.1136 152.249 70.1136C152.499 70.1136 152.753 70.0497 153.011 69.9219C153.273 69.794 153.491 69.598 153.668 69.3338C153.847 69.0696 153.936 68.733 153.936 68.3239ZM156.784 73.4545V64.4545H157.755V65.4943H157.875C157.949 65.3807 158.051 65.2358 158.181 65.0597C158.315 64.8807 158.505 64.7216 158.752 64.5824C159.002 64.4403 159.341 64.3693 159.767 64.3693C160.318 64.3693 160.804 64.5071 161.224 64.7827C161.645 65.0582 161.973 65.4489 162.208 65.9545C162.444 66.4602 162.562 67.0568 162.562 67.7443C162.562 68.4375 162.444 69.0384 162.208 69.5469C161.973 70.0526 161.646 70.4446 161.228 70.723C160.811 70.9986 160.329 71.1364 159.784 71.1364C159.363 71.1364 159.027 71.0668 158.774 70.9276C158.521 70.7855 158.326 70.625 158.19 70.446C158.054 70.2642 157.949 70.1136 157.875 69.9943H157.789V73.4545H156.784ZM157.772 67.7273C157.772 68.2216 157.845 68.6577 157.99 69.0355C158.135 69.4105 158.346 69.7045 158.625 69.9176C158.903 70.1278 159.244 70.233 159.647 70.233C160.068 70.233 160.419 70.1222 160.7 69.9006C160.984 69.6761 161.197 69.375 161.339 68.9972C161.484 68.6165 161.556 68.1932 161.556 67.7273C161.556 67.267 161.485 66.8523 161.343 66.483C161.204 66.1108 160.993 65.8168 160.708 65.6009C160.427 65.3821 160.074 65.2727 159.647 65.2727C159.238 65.2727 158.895 65.3764 158.616 65.5838C158.338 65.7884 158.127 66.0753 157.985 66.4446C157.843 66.8111 157.772 67.2386 157.772 67.7273ZM166.841 71.1364C166.21 71.1364 165.666 70.9972 165.208 70.7188C164.754 70.4375 164.403 70.0455 164.156 69.5426C163.912 69.0369 163.789 68.4489 163.789 67.7784C163.789 67.108 163.912 66.517 164.156 66.0057C164.403 65.4915 164.747 65.0909 165.187 64.804C165.63 64.5142 166.147 64.3693 166.738 64.3693C167.079 64.3693 167.416 64.4261 167.748 64.5398C168.081 64.6534 168.383 64.8381 168.656 65.0938C168.929 65.3466 169.146 65.6818 169.308 66.0994C169.47 66.517 169.551 67.0312 169.551 67.642V68.0682H164.505V67.1989H168.528C168.528 66.8295 168.454 66.5 168.306 66.2102C168.162 65.9205 167.954 65.6918 167.684 65.5241C167.417 65.3565 167.102 65.2727 166.738 65.2727C166.338 65.2727 165.991 65.3722 165.699 65.571C165.409 65.767 165.186 66.0227 165.029 66.3381C164.873 66.6534 164.795 66.9915 164.795 67.3523V67.9318C164.795 68.4261 164.88 68.8452 165.051 69.1889C165.224 69.5298 165.464 69.7898 165.771 69.9688C166.078 70.1449 166.434 70.233 166.841 70.233C167.105 70.233 167.343 70.196 167.556 70.1222C167.772 70.0455 167.958 69.9318 168.115 69.7812C168.271 69.6278 168.392 69.4375 168.477 69.2102L169.449 69.483C169.346 69.8125 169.174 70.1023 168.933 70.3523C168.691 70.5994 168.393 70.7926 168.038 70.9318C167.683 71.0682 167.284 71.1364 166.841 71.1364ZM171.081 71V64.4545H172.052V65.4432H172.12C172.24 65.1193 172.456 64.8565 172.768 64.6548C173.081 64.4531 173.433 64.3523 173.825 64.3523C173.899 64.3523 173.991 64.3537 174.102 64.3565C174.213 64.3594 174.297 64.3636 174.353 64.3693V65.392C174.319 65.3835 174.241 65.3707 174.119 65.3537C174 65.3338 173.873 65.3239 173.74 65.3239C173.422 65.3239 173.137 65.3906 172.887 65.5241C172.64 65.6548 172.444 65.8366 172.299 66.0696C172.157 66.2997 172.086 66.5625 172.086 66.858V71H171.081ZM179.926 62.2727V71H178.92V62.2727H179.926ZM184.512 71.1364C183.882 71.1364 183.338 70.9972 182.88 70.7188C182.426 70.4375 182.075 70.0455 181.828 69.5426C181.583 69.0369 181.461 68.4489 181.461 67.7784C181.461 67.108 181.583 66.517 181.828 66.0057C182.075 65.4915 182.419 65.0909 182.859 64.804C183.302 64.5142 183.819 64.3693 184.41 64.3693C184.751 64.3693 185.088 64.4261 185.42 64.5398C185.752 64.6534 186.055 64.8381 186.328 65.0938C186.6 65.3466 186.818 65.6818 186.98 66.0994C187.142 66.517 187.223 67.0312 187.223 67.642V68.0682H182.177V67.1989H186.2C186.2 66.8295 186.126 66.5 185.978 66.2102C185.833 65.9205 185.626 65.6918 185.356 65.5241C185.089 65.3565 184.774 65.2727 184.41 65.2727C184.01 65.2727 183.663 65.3722 183.37 65.571C183.081 65.767 182.858 66.0227 182.701 66.3381C182.545 66.6534 182.467 66.9915 182.467 67.3523V67.9318C182.467 68.4261 182.552 68.8452 182.723 69.1889C182.896 69.5298 183.136 69.7898 183.443 69.9688C183.75 70.1449 184.106 70.233 184.512 70.233C184.777 70.233 185.015 70.196 185.228 70.1222C185.444 70.0455 185.63 69.9318 185.787 69.7812C185.943 69.6278 186.064 69.4375 186.149 69.2102L187.12 69.483C187.018 69.8125 186.846 70.1023 186.605 70.3523C186.363 70.5994 186.065 70.7926 185.71 70.9318C185.355 71.0682 184.956 71.1364 184.512 71.1364ZM193.389 65.9205L192.485 66.1761C192.429 66.0256 192.345 65.8793 192.234 65.7372C192.126 65.5923 191.978 65.473 191.791 65.3793C191.603 65.2855 191.363 65.2386 191.071 65.2386C190.67 65.2386 190.336 65.331 190.069 65.5156C189.805 65.6974 189.673 65.929 189.673 66.2102C189.673 66.4602 189.764 66.6577 189.946 66.8026C190.127 66.9474 190.412 67.0682 190.798 67.1648L191.77 67.4034C192.355 67.5455 192.791 67.7628 193.078 68.0554C193.365 68.3452 193.508 68.7187 193.508 69.1761C193.508 69.5511 193.4 69.8864 193.184 70.1818C192.971 70.4773 192.673 70.7102 192.289 70.8807C191.906 71.0511 191.46 71.1364 190.951 71.1364C190.284 71.1364 189.731 70.9915 189.294 70.7017C188.856 70.4119 188.579 69.9886 188.463 69.4318L189.417 69.1932C189.508 69.5455 189.68 69.8097 189.933 69.9858C190.189 70.1619 190.522 70.25 190.934 70.25C191.403 70.25 191.775 70.1506 192.051 69.9517C192.329 69.75 192.468 69.5085 192.468 69.2273C192.468 69 192.389 68.8097 192.23 68.6562C192.071 68.5 191.826 68.3835 191.497 68.3068L190.406 68.0511C189.806 67.9091 189.366 67.6889 189.085 67.3906C188.806 67.0895 188.667 66.7131 188.667 66.2614C188.667 65.892 188.771 65.5653 188.978 65.2812C189.189 64.9972 189.474 64.7741 189.835 64.6122C190.199 64.4503 190.61 64.3693 191.071 64.3693C191.718 64.3693 192.227 64.5114 192.596 64.7955C192.968 65.0795 193.233 65.4545 193.389 65.9205ZM198.397 73.4545V64.4545H199.369V65.4943H199.488C199.562 65.3807 199.664 65.2358 199.795 65.0597C199.928 64.8807 200.119 64.7216 200.366 64.5824C200.616 64.4403 200.954 64.3693 201.38 64.3693C201.931 64.3693 202.417 64.5071 202.837 64.7827C203.258 65.0582 203.586 65.4489 203.822 65.9545C204.058 66.4602 204.175 67.0568 204.175 67.7443C204.175 68.4375 204.058 69.0384 203.822 69.5469C203.586 70.0526 203.259 70.4446 202.842 70.723C202.424 70.9986 201.942 71.1364 201.397 71.1364C200.977 71.1364 200.64 71.0668 200.387 70.9276C200.134 70.7855 199.94 70.625 199.803 70.446C199.667 70.2642 199.562 70.1136 199.488 69.9943H199.403V73.4545H198.397ZM199.386 67.7273C199.386 68.2216 199.458 68.6577 199.603 69.0355C199.748 69.4105 199.96 69.7045 200.238 69.9176C200.516 70.1278 200.857 70.233 201.261 70.233C201.681 70.233 202.032 70.1222 202.313 69.9006C202.597 69.6761 202.81 69.375 202.952 68.9972C203.097 68.6165 203.17 68.1932 203.17 67.7273C203.17 67.267 203.099 66.8523 202.957 66.483C202.817 66.1108 202.606 65.8168 202.322 65.6009C202.04 65.3821 201.687 65.2727 201.261 65.2727C200.852 65.2727 200.508 65.3764 200.229 65.5838C199.951 65.7884 199.741 66.0753 199.599 66.4446C199.457 66.8111 199.386 67.2386 199.386 67.7273ZM205.71 71V64.4545H206.715V71H205.71ZM206.221 63.3636C206.025 63.3636 205.856 63.2969 205.714 63.1634C205.575 63.0298 205.505 62.8693 205.505 62.6818C205.505 62.4943 205.575 62.3338 205.714 62.2003C205.856 62.0668 206.025 62 206.221 62C206.417 62 206.585 62.0668 206.724 62.2003C206.866 62.3338 206.937 62.4943 206.937 62.6818C206.937 62.8693 206.866 63.0298 206.724 63.1634C206.585 63.2969 206.417 63.3636 206.221 63.3636ZM211.301 71.1364C210.671 71.1364 210.127 70.9972 209.669 70.7188C209.215 70.4375 208.864 70.0455 208.617 69.5426C208.373 69.0369 208.25 68.4489 208.25 67.7784C208.25 67.108 208.373 66.517 208.617 66.0057C208.864 65.4915 209.208 65.0909 209.648 64.804C210.091 64.5142 210.608 64.3693 211.199 64.3693C211.54 64.3693 211.877 64.4261 212.209 64.5398C212.542 64.6534 212.844 64.8381 213.117 65.0938C213.39 65.3466 213.607 65.6818 213.769 66.0994C213.931 66.517 214.012 67.0312 214.012 67.642V68.0682H208.966V67.1989H212.989C212.989 66.8295 212.915 66.5 212.767 66.2102C212.623 65.9205 212.415 65.6918 212.145 65.5241C211.878 65.3565 211.563 65.2727 211.199 65.2727C210.799 65.2727 210.452 65.3722 210.159 65.571C209.87 65.767 209.647 66.0227 209.49 66.3381C209.334 66.6534 209.256 66.9915 209.256 67.3523V67.9318C209.256 68.4261 209.341 68.8452 209.512 69.1889C209.685 69.5298 209.925 69.7898 210.232 69.9688C210.539 70.1449 210.895 70.233 211.301 70.233C211.566 70.233 211.804 70.196 212.017 70.1222C212.233 70.0455 212.419 69.9318 212.576 69.7812C212.732 69.6278 212.853 69.4375 212.938 69.2102L213.909 69.483C213.807 69.8125 213.635 70.1023 213.394 70.3523C213.152 70.5994 212.854 70.7926 212.499 70.9318C212.144 71.0682 211.745 71.1364 211.301 71.1364ZM210.722 63.5682L209.392 61.5909H210.569L211.608 63.5682H210.722ZM218.201 71.1364C217.587 71.1364 217.059 70.9915 216.615 70.7017C216.172 70.4119 215.831 70.0128 215.593 69.5043C215.354 68.9957 215.235 68.4148 215.235 67.7614C215.235 67.0966 215.357 66.5099 215.601 66.0014C215.848 65.4901 216.192 65.0909 216.632 64.804C217.076 64.5142 217.593 64.3693 218.184 64.3693C218.644 64.3693 219.059 64.4545 219.428 64.625C219.797 64.7955 220.1 65.0341 220.336 65.3409C220.571 65.6477 220.718 66.0057 220.775 66.4148H219.769C219.692 66.1165 219.522 65.8523 219.257 65.6222C218.996 65.3892 218.644 65.2727 218.201 65.2727C217.809 65.2727 217.465 65.375 217.169 65.5795C216.877 65.7812 216.648 66.0668 216.483 66.4361C216.321 66.8026 216.24 67.233 216.24 67.7273C216.24 68.233 216.32 68.6733 216.479 69.0483C216.641 69.4233 216.868 69.7145 217.161 69.9219C217.456 70.1293 217.803 70.233 218.201 70.233C218.462 70.233 218.699 70.1875 218.912 70.0966C219.125 70.0057 219.306 69.875 219.453 69.7045C219.601 69.5341 219.706 69.3295 219.769 69.0909H220.775C220.718 69.4773 220.577 69.8253 220.353 70.1349C220.131 70.4418 219.837 70.6861 219.471 70.8679C219.107 71.0469 218.684 71.1364 218.201 71.1364ZM224.989 71.1364C224.358 71.1364 223.814 70.9972 223.357 70.7188C222.902 70.4375 222.551 70.0455 222.304 69.5426C222.06 69.0369 221.938 68.4489 221.938 67.7784C221.938 67.108 222.06 66.517 222.304 66.0057C222.551 65.4915 222.895 65.0909 223.336 64.804C223.779 64.5142 224.296 64.3693 224.887 64.3693C225.228 64.3693 225.564 64.4261 225.897 64.5398C226.229 64.6534 226.532 64.8381 226.804 65.0938C227.077 65.3466 227.294 65.6818 227.456 66.0994C227.618 66.517 227.699 67.0312 227.699 67.642V68.0682H222.654V67.1989H226.676C226.676 66.8295 226.603 66.5 226.455 66.2102C226.31 65.9205 226.103 65.6918 225.833 65.5241C225.566 65.3565 225.25 65.2727 224.887 65.2727C224.486 65.2727 224.14 65.3722 223.847 65.571C223.557 65.767 223.334 66.0227 223.178 66.3381C223.022 66.6534 222.944 66.9915 222.944 67.3523V67.9318C222.944 68.4261 223.029 68.8452 223.199 69.1889C223.373 69.5298 223.613 69.7898 223.919 69.9688C224.226 70.1449 224.583 70.233 224.989 70.233C225.253 70.233 225.492 70.196 225.705 70.1222C225.921 70.0455 226.107 69.9318 226.263 69.7812C226.419 69.6278 226.54 69.4375 226.625 69.2102L227.597 69.483C227.495 69.8125 227.323 70.1023 227.081 70.3523C226.84 70.5994 226.542 70.7926 226.186 70.9318C225.831 71.0682 225.432 71.1364 224.989 71.1364ZM233.865 65.9205L232.962 66.1761C232.905 66.0256 232.821 65.8793 232.711 65.7372C232.603 65.5923 232.455 65.473 232.267 65.3793C232.08 65.2855 231.84 65.2386 231.547 65.2386C231.147 65.2386 230.813 65.331 230.546 65.5156C230.282 65.6974 230.15 65.929 230.15 66.2102C230.15 66.4602 230.24 66.6577 230.422 66.8026C230.604 66.9474 230.888 67.0682 231.275 67.1648L232.246 67.4034C232.831 67.5455 233.267 67.7628 233.554 68.0554C233.841 68.3452 233.985 68.7187 233.985 69.1761C233.985 69.5511 233.877 69.8864 233.661 70.1818C233.448 70.4773 233.15 70.7102 232.766 70.8807C232.382 71.0511 231.936 71.1364 231.428 71.1364C230.76 71.1364 230.208 70.9915 229.77 70.7017C229.333 70.4119 229.056 69.9886 228.939 69.4318L229.894 69.1932C229.985 69.5455 230.157 69.8097 230.409 69.9858C230.665 70.1619 230.999 70.25 231.411 70.25C231.88 70.25 232.252 70.1506 232.527 69.9517C232.806 69.75 232.945 69.5085 232.945 69.2273C232.945 69 232.865 68.8097 232.706 68.6562C232.547 68.5 232.303 68.3835 231.973 68.3068L230.882 68.0511C230.283 67.9091 229.843 67.6889 229.561 67.3906C229.283 67.0895 229.144 66.7131 229.144 66.2614C229.144 65.892 229.248 65.5653 229.455 65.2812C229.665 64.9972 229.951 64.7741 230.311 64.6122C230.675 64.4503 231.087 64.3693 231.547 64.3693C232.195 64.3693 232.703 64.5114 233.073 64.7955C233.445 65.0795 233.709 65.4545 233.865 65.9205Z" fill="black"/>
<path d="M275.415 71H274.307L277.511 62.2727H278.602L281.807 71H280.699L278.091 63.6534H278.023L275.415 71ZM275.824 67.5909H280.29V68.5284H275.824V67.5909ZM287.666 65.9205L286.763 66.1761C286.706 66.0256 286.622 65.8793 286.511 65.7372C286.403 65.5923 286.256 65.473 286.068 65.3793C285.881 65.2855 285.641 65.2386 285.348 65.2386C284.947 65.2386 284.614 65.331 284.347 65.5156C284.082 65.6974 283.95 65.929 283.95 66.2102C283.95 66.4602 284.041 66.6577 284.223 66.8026C284.405 66.9474 284.689 67.0682 285.075 67.1648L286.047 67.4034C286.632 67.5455 287.068 67.7628 287.355 68.0554C287.642 68.3452 287.786 68.7187 287.786 69.1761C287.786 69.5511 287.678 69.8864 287.462 70.1818C287.249 70.4773 286.95 70.7102 286.567 70.8807C286.183 71.0511 285.737 71.1364 285.229 71.1364C284.561 71.1364 284.009 70.9915 283.571 70.7017C283.134 70.4119 282.857 69.9886 282.74 69.4318L283.695 69.1932C283.786 69.5455 283.957 69.8097 284.21 69.9858C284.466 70.1619 284.8 70.25 285.212 70.25C285.68 70.25 286.053 70.1506 286.328 69.9517C286.607 69.75 286.746 69.5085 286.746 69.2273C286.746 69 286.666 68.8097 286.507 68.6562C286.348 68.5 286.104 68.3835 285.774 68.3068L284.683 68.0511C284.084 67.9091 283.643 67.6889 283.362 67.3906C283.084 67.0895 282.945 66.7131 282.945 66.2614C282.945 65.892 283.048 65.5653 283.256 65.2812C283.466 64.9972 283.751 64.7741 284.112 64.6122C284.476 64.4503 284.888 64.3693 285.348 64.3693C285.996 64.3693 286.504 64.5114 286.874 64.7955C287.246 65.0795 287.51 65.4545 287.666 65.9205ZM293.936 65.9205L293.032 66.1761C292.975 66.0256 292.892 65.8793 292.781 65.7372C292.673 65.5923 292.525 65.473 292.338 65.3793C292.15 65.2855 291.91 65.2386 291.618 65.2386C291.217 65.2386 290.883 65.331 290.616 65.5156C290.352 65.6974 290.22 65.929 290.22 66.2102C290.22 66.4602 290.311 66.6577 290.493 66.8026C290.674 66.9474 290.958 67.0682 291.345 67.1648L292.316 67.4034C292.902 67.5455 293.338 67.7628 293.625 68.0554C293.912 68.3452 294.055 68.7187 294.055 69.1761C294.055 69.5511 293.947 69.8864 293.731 70.1818C293.518 70.4773 293.22 70.7102 292.836 70.8807C292.453 71.0511 292.007 71.1364 291.498 71.1364C290.831 71.1364 290.278 70.9915 289.841 70.7017C289.403 70.4119 289.126 69.9886 289.01 69.4318L289.964 69.1932C290.055 69.5455 290.227 69.8097 290.48 69.9858C290.735 70.1619 291.069 70.25 291.481 70.25C291.95 70.25 292.322 70.1506 292.598 69.9517C292.876 69.75 293.015 69.5085 293.015 69.2273C293.015 69 292.936 68.8097 292.777 68.6562C292.618 68.5 292.373 68.3835 292.044 68.3068L290.953 68.0511C290.353 67.9091 289.913 67.6889 289.632 67.3906C289.353 67.0895 289.214 66.7131 289.214 66.2614C289.214 65.892 289.318 65.5653 289.525 65.2812C289.735 64.9972 290.021 64.7741 290.382 64.6122C290.745 64.4503 291.157 64.3693 291.618 64.3693C292.265 64.3693 292.774 64.5114 293.143 64.7955C293.515 65.0795 293.779 65.4545 293.936 65.9205ZM298.313 71.1364C297.683 71.1364 297.138 70.9972 296.681 70.7188C296.227 70.4375 295.876 70.0455 295.629 69.5426C295.384 69.0369 295.262 68.4489 295.262 67.7784C295.262 67.108 295.384 66.517 295.629 66.0057C295.876 65.4915 296.219 65.0909 296.66 64.804C297.103 64.5142 297.62 64.3693 298.211 64.3693C298.552 64.3693 298.888 64.4261 299.221 64.5398C299.553 64.6534 299.856 64.8381 300.129 65.0938C300.401 65.3466 300.619 65.6818 300.781 66.0994C300.942 66.517 301.023 67.0312 301.023 67.642V68.0682H295.978V67.1989H300.001C300.001 66.8295 299.927 66.5 299.779 66.2102C299.634 65.9205 299.427 65.6918 299.157 65.5241C298.89 65.3565 298.575 65.2727 298.211 65.2727C297.81 65.2727 297.464 65.3722 297.171 65.571C296.881 65.767 296.658 66.0227 296.502 66.3381C296.346 66.6534 296.268 66.9915 296.268 67.3523V67.9318C296.268 68.4261 296.353 68.8452 296.523 69.1889C296.697 69.5298 296.937 69.7898 297.244 69.9688C297.55 70.1449 297.907 70.233 298.313 70.233C298.577 70.233 298.816 70.196 299.029 70.1222C299.245 70.0455 299.431 69.9318 299.587 69.7812C299.744 69.6278 299.864 69.4375 299.95 69.2102L300.921 69.483C300.819 69.8125 300.647 70.1023 300.406 70.3523C300.164 70.5994 299.866 70.7926 299.511 70.9318C299.156 71.0682 298.756 71.1364 298.313 71.1364ZM302.553 71V64.4545H303.525V65.4773H303.61C303.746 65.1278 303.967 64.8565 304.271 64.6634C304.575 64.4673 304.94 64.3693 305.366 64.3693C305.798 64.3693 306.157 64.4673 306.444 64.6634C306.734 64.8565 306.96 65.1278 307.121 65.4773H307.19C307.357 65.1392 307.609 64.8707 307.944 64.6719C308.279 64.4702 308.681 64.3693 309.15 64.3693C309.735 64.3693 310.214 64.5526 310.586 64.919C310.958 65.2827 311.144 65.8494 311.144 66.6193V71H310.138V66.6193C310.138 66.1364 310.006 65.7912 309.742 65.5838C309.478 65.3764 309.167 65.2727 308.809 65.2727C308.349 65.2727 307.992 65.4119 307.739 65.6903C307.487 65.9659 307.36 66.3153 307.36 66.7386V71H306.337V66.517C306.337 66.1449 306.217 65.8452 305.975 65.6179C305.734 65.3878 305.423 65.2727 305.042 65.2727C304.781 65.2727 304.536 65.3423 304.309 65.4815C304.085 65.6207 303.903 65.8139 303.763 66.0611C303.627 66.3054 303.559 66.5881 303.559 66.9091V71H302.553ZM313.119 71V62.2727H314.125V65.4943H314.21C314.284 65.3807 314.386 65.2358 314.517 65.0597C314.651 64.8807 314.841 64.7216 315.088 64.5824C315.338 64.4403 315.676 64.3693 316.102 64.3693C316.653 64.3693 317.139 64.5071 317.56 64.7827C317.98 65.0582 318.308 65.4489 318.544 65.9545C318.78 66.4602 318.898 67.0568 318.898 67.7443C318.898 68.4375 318.78 69.0384 318.544 69.5469C318.308 70.0526 317.982 70.4446 317.564 70.723C317.146 70.9986 316.665 71.1364 316.119 71.1364C315.699 71.1364 315.362 71.0668 315.109 70.9276C314.857 70.7855 314.662 70.625 314.526 70.446C314.389 70.2642 314.284 70.1136 314.21 69.9943H314.091V71H313.119ZM314.108 67.7273C314.108 68.2216 314.18 68.6577 314.325 69.0355C314.47 69.4105 314.682 69.7045 314.96 69.9176C315.239 70.1278 315.58 70.233 315.983 70.233C316.403 70.233 316.754 70.1222 317.036 69.9006C317.32 69.6761 317.533 69.375 317.675 68.9972C317.82 68.6165 317.892 68.1932 317.892 67.7273C317.892 67.267 317.821 66.8523 317.679 66.483C317.54 66.1108 317.328 65.8168 317.044 65.6009C316.763 65.3821 316.409 65.2727 315.983 65.2727C315.574 65.2727 315.23 65.3764 314.952 65.5838C314.673 65.7884 314.463 66.0753 314.321 66.4446C314.179 66.8111 314.108 67.2386 314.108 67.7273ZM321.442 62.2727V71H320.436V62.2727H321.442ZM326.028 71.1364C325.397 71.1364 324.853 70.9972 324.396 70.7188C323.941 70.4375 323.591 70.0455 323.343 69.5426C323.099 69.0369 322.977 68.4489 322.977 67.7784C322.977 67.108 323.099 66.517 323.343 66.0057C323.591 65.4915 323.934 65.0909 324.375 64.804C324.818 64.5142 325.335 64.3693 325.926 64.3693C326.267 64.3693 326.603 64.4261 326.936 64.5398C327.268 64.6534 327.571 64.8381 327.843 65.0938C328.116 65.3466 328.333 65.6818 328.495 66.0994C328.657 66.517 328.738 67.0312 328.738 67.642V68.0682H323.693V67.1989H327.716C327.716 66.8295 327.642 66.5 327.494 66.2102C327.349 65.9205 327.142 65.6918 326.872 65.5241C326.605 65.3565 326.289 65.2727 325.926 65.2727C325.525 65.2727 325.179 65.3722 324.886 65.571C324.596 65.767 324.373 66.0227 324.217 66.3381C324.061 66.6534 323.983 66.9915 323.983 67.3523V67.9318C323.983 68.4261 324.068 68.8452 324.238 69.1889C324.412 69.5298 324.652 69.7898 324.958 69.9688C325.265 70.1449 325.622 70.233 326.028 70.233C326.292 70.233 326.531 70.196 326.744 70.1222C326.96 70.0455 327.146 69.9318 327.302 69.7812C327.458 69.6278 327.579 69.4375 327.664 69.2102L328.636 69.483C328.534 69.8125 328.362 70.1023 328.12 70.3523C327.879 70.5994 327.581 70.7926 327.225 70.9318C326.87 71.0682 326.471 71.1364 326.028 71.1364ZM330.268 71V64.4545H331.24V65.4432H331.308C331.427 65.1193 331.643 64.8565 331.956 64.6548C332.268 64.4531 332.62 64.3523 333.012 64.3523C333.086 64.3523 333.179 64.3537 333.289 64.3565C333.4 64.3594 333.484 64.3636 333.541 64.3693V65.392C333.507 65.3835 333.429 65.3707 333.306 65.3537C333.187 65.3338 333.061 65.3239 332.927 65.3239C332.609 65.3239 332.325 65.3906 332.075 65.5241C331.828 65.6548 331.632 65.8366 331.487 66.0696C331.345 66.2997 331.274 66.5625 331.274 66.858V71H330.268ZM339.114 62.2727V71H338.108V62.2727H339.114ZM342.882 71.1534C342.467 71.1534 342.091 71.0753 341.752 70.919C341.414 70.7599 341.146 70.5312 340.947 70.233C340.748 69.9318 340.649 69.5682 340.649 69.142C340.649 68.767 340.723 68.4631 340.87 68.2301C341.018 67.9943 341.216 67.8097 341.463 67.6761C341.71 67.5426 341.983 67.4432 342.281 67.3778C342.582 67.3097 342.885 67.2557 343.189 67.2159C343.586 67.1648 343.909 67.1264 344.156 67.1009C344.406 67.0724 344.588 67.0256 344.701 66.9602C344.818 66.8949 344.876 66.7812 344.876 66.6193V66.5852C344.876 66.1648 344.761 65.8381 344.531 65.6051C344.304 65.3722 343.958 65.2557 343.495 65.2557C343.015 65.2557 342.639 65.3608 342.366 65.571C342.093 65.7812 341.902 66.0057 341.791 66.2443L340.836 65.9034C341.007 65.5057 341.234 65.196 341.518 64.9744C341.805 64.75 342.118 64.5937 342.456 64.5057C342.797 64.4148 343.132 64.3693 343.461 64.3693C343.672 64.3693 343.913 64.3949 344.186 64.446C344.461 64.4943 344.727 64.5952 344.983 64.7486C345.241 64.902 345.456 65.1335 345.626 65.4432C345.797 65.7528 345.882 66.1676 345.882 66.6875V71H344.876V70.1136H344.825C344.757 70.2557 344.643 70.4077 344.484 70.5696C344.325 70.7315 344.113 70.8693 343.849 70.983C343.585 71.0966 343.262 71.1534 342.882 71.1534ZM343.035 70.25C343.433 70.25 343.768 70.1719 344.041 70.0156C344.316 69.8594 344.524 69.6577 344.663 69.4105C344.805 69.1634 344.876 68.9034 344.876 68.6307V67.7102C344.833 67.7614 344.74 67.8082 344.595 67.8509C344.453 67.8906 344.288 67.9261 344.1 67.9574C343.916 67.9858 343.735 68.0114 343.559 68.0341C343.386 68.054 343.245 68.071 343.137 68.0852C342.876 68.1193 342.632 68.1747 342.404 68.2514C342.18 68.3253 341.998 68.4375 341.859 68.5881C341.723 68.7358 341.654 68.9375 341.654 69.1932C341.654 69.5426 341.784 69.8068 342.042 69.9858C342.304 70.1619 342.635 70.25 343.035 70.25ZM353.751 71.1364C353.138 71.1364 352.609 70.9915 352.166 70.7017C351.723 70.4119 351.382 70.0128 351.143 69.5043C350.905 68.9957 350.786 68.4148 350.786 67.7614C350.786 67.0966 350.908 66.5099 351.152 66.0014C351.399 65.4901 351.743 65.0909 352.183 64.804C352.626 64.5142 353.143 64.3693 353.734 64.3693C354.195 64.3693 354.609 64.4545 354.979 64.625C355.348 64.7955 355.651 65.0341 355.886 65.3409C356.122 65.6477 356.268 66.0057 356.325 66.4148H355.32C355.243 66.1165 355.072 65.8523 354.808 65.6222C354.547 65.3892 354.195 65.2727 353.751 65.2727C353.359 65.2727 353.016 65.375 352.72 65.5795C352.428 65.7812 352.199 66.0668 352.034 66.4361C351.872 66.8026 351.791 67.233 351.791 67.7273C351.791 68.233 351.871 68.6733 352.03 69.0483C352.192 69.4233 352.419 69.7145 352.712 69.9219C353.007 70.1293 353.354 70.233 353.751 70.233C354.013 70.233 354.25 70.1875 354.463 70.0966C354.676 70.0057 354.857 69.875 355.004 69.7045C355.152 69.5341 355.257 69.3295 355.32 69.0909H356.325C356.268 69.4773 356.128 69.8253 355.903 70.1349C355.682 70.4418 355.388 70.6861 355.021 70.8679C354.658 71.0469 354.234 71.1364 353.751 71.1364ZM358.801 67.0625V71H357.795V62.2727H358.801V65.4773H358.886C359.04 65.1392 359.27 64.8707 359.577 64.6719C359.886 64.4702 360.298 64.3693 360.812 64.3693C361.259 64.3693 361.649 64.4588 361.984 64.6378C362.32 64.8139 362.58 65.0852 362.764 65.4517C362.952 65.8153 363.045 66.2784 363.045 66.8409V71H362.04V66.9091C362.04 66.3892 361.905 65.9872 361.635 65.7031C361.368 65.4162 360.997 65.2727 360.523 65.2727C360.193 65.2727 359.898 65.3423 359.636 65.4815C359.378 65.6207 359.173 65.8239 359.023 66.0909C358.875 66.358 358.801 66.6818 358.801 67.0625ZM366.811 71.1534C366.397 71.1534 366.02 71.0753 365.682 70.919C365.344 70.7599 365.076 70.5312 364.877 70.233C364.678 69.9318 364.578 69.5682 364.578 69.142C364.578 68.767 364.652 68.4631 364.8 68.2301C364.948 67.9943 365.145 67.8097 365.392 67.6761C365.64 67.5426 365.912 67.4432 366.211 67.3778C366.512 67.3097 366.814 67.2557 367.118 67.2159C367.516 67.1648 367.838 67.1264 368.086 67.1009C368.336 67.0724 368.517 67.0256 368.631 66.9602C368.748 66.8949 368.806 66.7812 368.806 66.6193V66.5852C368.806 66.1648 368.691 65.8381 368.461 65.6051C368.233 65.3722 367.888 65.2557 367.425 65.2557C366.945 65.2557 366.569 65.3608 366.296 65.571C366.023 65.7812 365.831 66.0057 365.721 66.2443L364.766 65.9034C364.936 65.5057 365.164 65.196 365.448 64.9744C365.735 64.75 366.047 64.5937 366.385 64.5057C366.726 64.4148 367.061 64.3693 367.391 64.3693C367.601 64.3693 367.843 64.3949 368.115 64.446C368.391 64.4943 368.657 64.5952 368.912 64.7486C369.171 64.902 369.385 65.1335 369.556 65.4432C369.726 65.7528 369.811 66.1676 369.811 66.6875V71H368.806V70.1136H368.755C368.686 70.2557 368.573 70.4077 368.414 70.5696C368.255 70.7315 368.043 70.8693 367.779 70.983C367.515 71.0966 367.192 71.1534 366.811 71.1534ZM366.965 70.25C367.363 70.25 367.698 70.1719 367.971 70.0156C368.246 69.8594 368.453 69.6577 368.593 69.4105C368.735 69.1634 368.806 68.9034 368.806 68.6307V67.7102C368.763 67.7614 368.669 67.8082 368.525 67.8509C368.382 67.8906 368.218 67.9261 368.03 67.9574C367.846 67.9858 367.665 68.0114 367.489 68.0341C367.316 68.054 367.175 68.071 367.067 68.0852C366.806 68.1193 366.561 68.1747 366.334 68.2514C366.11 68.3253 365.928 68.4375 365.789 68.5881C365.652 68.7358 365.584 68.9375 365.584 69.1932C365.584 69.5426 365.713 69.8068 365.972 69.9858C366.233 70.1619 366.564 70.25 366.965 70.25ZM371.647 71V64.4545H372.653V71H371.647ZM372.158 63.3636C371.962 63.3636 371.793 63.2969 371.651 63.1634C371.512 63.0298 371.442 62.8693 371.442 62.6818C371.442 62.4943 371.512 62.3338 371.651 62.2003C371.793 62.0668 371.962 62 372.158 62C372.354 62 372.522 62.0668 372.661 62.2003C372.803 62.3338 372.874 62.4943 372.874 62.6818C372.874 62.8693 372.803 63.0298 372.661 63.1634C372.522 63.2969 372.354 63.3636 372.158 63.3636ZM379.131 65.9205L378.228 66.1761C378.171 66.0256 378.087 65.8793 377.976 65.7372C377.868 65.5923 377.721 65.473 377.533 65.3793C377.346 65.2855 377.105 65.2386 376.813 65.2386C376.412 65.2386 376.078 65.331 375.811 65.5156C375.547 65.6974 375.415 65.929 375.415 66.2102C375.415 66.4602 375.506 66.6577 375.688 66.8026C375.87 66.9474 376.154 67.0682 376.54 67.1648L377.512 67.4034C378.097 67.5455 378.533 67.7628 378.82 68.0554C379.107 68.3452 379.25 68.7187 379.25 69.1761C379.25 69.5511 379.142 69.8864 378.926 70.1818C378.713 70.4773 378.415 70.7102 378.032 70.8807C377.648 71.0511 377.202 71.1364 376.694 71.1364C376.026 71.1364 375.473 70.9915 375.036 70.7017C374.598 70.4119 374.321 69.9886 374.205 69.4318L375.159 69.1932C375.25 69.5455 375.422 69.8097 375.675 69.9858C375.931 70.1619 376.265 70.25 376.676 70.25C377.145 70.25 377.517 70.1506 377.793 69.9517C378.071 69.75 378.211 69.5085 378.211 69.2273C378.211 69 378.131 68.8097 377.972 68.6562C377.813 68.5 377.569 68.3835 377.239 68.3068L376.148 68.0511C375.549 67.9091 375.108 67.6889 374.827 67.3906C374.549 67.0895 374.409 66.7131 374.409 66.2614C374.409 65.892 374.513 65.5653 374.721 65.2812C374.931 64.9972 375.216 64.7741 375.577 64.6122C375.941 64.4503 376.353 64.3693 376.813 64.3693C377.461 64.3693 377.969 64.5114 378.338 64.7955C378.711 65.0795 378.975 65.4545 379.131 65.9205ZM383.509 71.1364C382.878 71.1364 382.334 70.9972 381.876 70.7188C381.422 70.4375 381.071 70.0455 380.824 69.5426C380.58 69.0369 380.457 68.4489 380.457 67.7784C380.457 67.108 380.58 66.517 380.824 66.0057C381.071 65.4915 381.415 65.0909 381.855 64.804C382.298 64.5142 382.815 64.3693 383.406 64.3693C383.747 64.3693 384.084 64.4261 384.416 64.5398C384.749 64.6534 385.051 64.8381 385.324 65.0938C385.597 65.3466 385.814 65.6818 385.976 66.0994C386.138 66.517 386.219 67.0312 386.219 67.642V68.0682H381.173V67.1989H385.196C385.196 66.8295 385.122 66.5 384.974 66.2102C384.83 65.9205 384.622 65.6918 384.352 65.5241C384.085 65.3565 383.77 65.2727 383.406 65.2727C383.006 65.2727 382.659 65.3722 382.366 65.571C382.077 65.767 381.854 66.0227 381.697 66.3381C381.541 66.6534 381.463 66.9915 381.463 67.3523V67.9318C381.463 68.4261 381.548 68.8452 381.719 69.1889C381.892 69.5298 382.132 69.7898 382.439 69.9688C382.746 70.1449 383.102 70.233 383.509 70.233C383.773 70.233 384.011 70.196 384.224 70.1222C384.44 70.0455 384.626 69.9318 384.783 69.7812C384.939 69.6278 385.06 69.4375 385.145 69.2102L386.116 69.483C386.014 69.8125 385.842 70.1023 385.601 70.3523C385.359 70.5994 385.061 70.7926 384.706 70.9318C384.351 71.0682 383.952 71.1364 383.509 71.1364Z" fill="black"/>
<path d="M105 67H125" stroke="#181818"/>
<path d="M115 71L125 67L115 63L119 67L115 71Z" fill="#181818" stroke="#181818"/>
<path d="M243 67H263" stroke="#181818"/>
<path d="M253 71L263 67L253 63L257 67L253 71Z" fill="#181818" stroke="#181818"/>
<path d="M397 67H417" stroke="#181818"/>
<path d="M407 71L417 67L407 63L411 67L407 71Z" fill="#181818" stroke="#181818"/>
</svg>
