<svg width="516" height="127" viewBox="0 0 516 127" fill="none" xmlns="http://www.w3.org/2000/svg">
<rect x="0.5" y="0.5" width="515" height="126" rx="24.5" stroke="black"/>
<path d="M28.1637 20.8555H26.1417C26.1048 20.5939 26.0294 20.3615 25.9155 20.1584C25.8016 19.9522 25.6554 19.7768 25.4769 19.6321C25.2984 19.4875 25.0922 19.3767 24.8583 19.2997C24.6275 19.2228 24.3767 19.1843 24.1058 19.1843C23.6165 19.1843 23.1902 19.3059 22.8271 19.549C22.4639 19.7891 22.1823 20.1399 21.9822 20.6016C21.7822 21.0601 21.6822 21.6172 21.6822 22.2727C21.6822 22.9467 21.7822 23.513 21.9822 23.9716C22.1854 24.4302 22.4685 24.7764 22.8317 25.0103C23.1948 25.2442 23.6149 25.3612 24.092 25.3612C24.3597 25.3612 24.6075 25.3258 24.8352 25.255C25.0661 25.1842 25.2707 25.0811 25.4492 24.9457C25.6277 24.8072 25.7755 24.6394 25.8924 24.4425C26.0124 24.2455 26.0955 24.0208 26.1417 23.7685L28.1637 23.7777C28.1114 24.2116 27.9806 24.6302 27.7713 25.0334C27.5651 25.4335 27.2866 25.792 26.9357 26.109C26.5879 26.4229 26.1725 26.6722 25.6893 26.8569C25.2092 27.0385 24.666 27.1293 24.0597 27.1293C23.2164 27.1293 22.4624 26.9384 21.7976 26.5568C21.1359 26.1752 20.6127 25.6228 20.228 24.8995C19.8464 24.1763 19.6555 23.3007 19.6555 22.2727C19.6555 21.2417 19.8494 20.3646 20.2372 19.6413C20.625 18.9181 21.1513 18.3672 21.8161 17.9886C22.4808 17.607 23.2287 17.4162 24.0597 17.4162C24.6075 17.4162 25.1153 17.4931 25.5831 17.647C26.054 17.8009 26.471 18.0256 26.8342 18.321C27.1973 18.6134 27.4928 18.9719 27.7205 19.3967C27.9513 19.8214 28.0991 20.3076 28.1637 20.8555ZM31.5268 17.5455V27H29.5602V17.5455H31.5268ZM35.1242 27.1339C34.6718 27.1339 34.2686 27.0554 33.9147 26.8984C33.5608 26.7384 33.2807 26.503 33.0745 26.1921C32.8714 25.8782 32.7698 25.4873 32.7698 25.0195C32.7698 24.6256 32.8421 24.2947 32.9868 24.027C33.1314 23.7592 33.3284 23.5438 33.5777 23.3807C33.827 23.2176 34.1101 23.0945 34.4271 23.0114C34.7472 22.9283 35.0827 22.8698 35.4335 22.8359C35.8459 22.7929 36.1783 22.7528 36.4307 22.7159C36.683 22.6759 36.8662 22.6174 36.98 22.5405C37.0939 22.4635 37.1508 22.3497 37.1508 22.1989V22.1712C37.1508 21.8788 37.0585 21.6526 36.8738 21.4925C36.6923 21.3325 36.4337 21.2525 36.0983 21.2525C35.7443 21.2525 35.4627 21.331 35.2535 21.4879C35.0442 21.6418 34.9057 21.8357 34.838 22.0696L33.0191 21.9219C33.1114 21.491 33.293 21.1186 33.5638 20.8047C33.8347 20.4877 34.184 20.2446 34.6118 20.0753C35.0426 19.9029 35.5412 19.8168 36.1075 19.8168C36.5015 19.8168 36.8785 19.8629 37.2385 19.9553C37.6017 20.0476 37.9233 20.1907 38.2034 20.3846C38.4865 20.5785 38.7097 20.8278 38.8728 21.1325C39.0359 21.4341 39.1175 21.7957 39.1175 22.2173V27H37.2524V26.0167H37.197C37.0831 26.2383 36.9308 26.4337 36.74 26.603C36.5492 26.7692 36.3199 26.9 36.0521 26.9954C35.7844 27.0877 35.4751 27.1339 35.1242 27.1339ZM35.6874 25.7766C35.9767 25.7766 36.2322 25.7197 36.4537 25.6058C36.6753 25.4889 36.8492 25.3319 36.9754 25.1349C37.1016 24.938 37.1647 24.7148 37.1647 24.4656V23.7131C37.1031 23.7531 37.0185 23.79 36.9108 23.8239C36.8061 23.8546 36.6876 23.8839 36.5553 23.9116C36.423 23.9362 36.2906 23.9593 36.1583 23.9808C36.026 23.9993 35.9059 24.0162 35.7982 24.0316C35.5674 24.0655 35.3658 24.1193 35.1934 24.1932C35.0211 24.267 34.8872 24.3671 34.7918 24.4933C34.6964 24.6164 34.6487 24.7702 34.6487 24.9549C34.6487 25.2227 34.7456 25.4273 34.9395 25.5689C35.1365 25.7074 35.3858 25.7766 35.6874 25.7766ZM47.0001 19.9091L44.521 27H42.3051L39.8261 19.9091H41.9035L43.3762 24.9826H43.45L44.9181 19.9091H47.0001ZM49.8381 27.1339C49.3857 27.1339 48.9825 27.0554 48.6286 26.8984C48.2746 26.7384 47.9946 26.503 47.7884 26.1921C47.5852 25.8782 47.4837 25.4873 47.4837 25.0195C47.4837 24.6256 47.556 24.2947 47.7006 24.027C47.8453 23.7592 48.0423 23.5438 48.2915 23.3807C48.5408 23.2176 48.824 23.0945 49.141 23.0114C49.4611 22.9283 49.7965 22.8698 50.1474 22.8359C50.5598 22.7929 50.8922 22.7528 51.1445 22.7159C51.3969 22.6759 51.58 22.6174 51.6939 22.5405C51.8078 22.4635 51.8647 22.3497 51.8647 22.1989V22.1712C51.8647 21.8788 51.7724 21.6526 51.5877 21.4925C51.4061 21.3325 51.1476 21.2525 50.8121 21.2525C50.4582 21.2525 50.1766 21.331 49.9673 21.4879C49.758 21.6418 49.6196 21.8357 49.5518 22.0696L47.733 21.9219C47.8253 21.491 48.0069 21.1186 48.2777 20.8047C48.5485 20.4877 48.8978 20.2446 49.3256 20.0753C49.7565 19.9029 50.2551 19.8168 50.8214 19.8168C51.2153 19.8168 51.5923 19.8629 51.9524 19.9553C52.3156 20.0476 52.6372 20.1907 52.9173 20.3846C53.2004 20.5785 53.4235 20.8278 53.5866 21.1325C53.7498 21.4341 53.8313 21.7957 53.8313 22.2173V27H51.9663V26.0167H51.9109C51.797 26.2383 51.6446 26.4337 51.4538 26.603C51.263 26.7692 51.0337 26.9 50.766 26.9954C50.4982 27.0877 50.1889 27.1339 49.8381 27.1339ZM50.4013 25.7766C50.6906 25.7766 50.946 25.7197 51.1676 25.6058C51.3892 25.4889 51.5631 25.3319 51.6893 25.1349C51.8155 24.938 51.8786 24.7148 51.8786 24.4656V23.7131C51.817 23.7531 51.7324 23.79 51.6246 23.8239C51.52 23.8546 51.4015 23.8839 51.2692 23.9116C51.1368 23.9362 51.0045 23.9593 50.8722 23.9808C50.7398 23.9993 50.6198 24.0162 50.5121 24.0316C50.2813 24.0655 50.0797 24.1193 49.9073 24.1932C49.735 24.267 49.6011 24.3671 49.5057 24.4933C49.4103 24.6164 49.3626 24.7702 49.3626 24.9549C49.3626 25.2227 49.4595 25.4273 49.6534 25.5689C49.8504 25.7074 50.0997 25.7766 50.4013 25.7766ZM55.3571 27V19.9091H57.2637V21.1463H57.3375C57.4668 20.7062 57.6838 20.3738 57.9885 20.1491C58.2931 19.9214 58.644 19.8075 59.041 19.8075C59.1395 19.8075 59.2457 19.8137 59.3596 19.826C59.4734 19.8383 59.5734 19.8552 59.6596 19.8768V21.6218C59.5673 21.5941 59.4396 21.5695 59.2765 21.5479C59.1133 21.5264 58.9641 21.5156 58.8287 21.5156C58.5394 21.5156 58.2808 21.5787 58.0531 21.7049C57.8284 21.828 57.6499 22.0004 57.5176 22.2219C57.3883 22.4435 57.3237 22.699 57.3237 22.9883V27H55.3571ZM62.9593 27.1154C62.4207 27.1154 61.9329 26.9769 61.4958 26.6999C61.0619 26.4199 60.7172 26.009 60.4617 25.4673C60.2094 24.9226 60.0832 24.2547 60.0832 23.4638C60.0832 22.6513 60.214 21.9757 60.4756 21.4371C60.7372 20.8955 61.085 20.4908 61.5189 20.223C61.9559 19.9522 62.4345 19.8168 62.9546 19.8168C63.3517 19.8168 63.6825 19.8845 63.9472 20.0199C64.2149 20.1522 64.4304 20.3184 64.5935 20.5185C64.7597 20.7154 64.8859 20.9093 64.972 21.1001H65.032V17.5455H66.9941V27H65.0551V25.8643H64.972C64.8797 26.0613 64.7489 26.2567 64.5796 26.4506C64.4134 26.6415 64.1965 26.8 63.9287 26.9261C63.664 27.0523 63.3409 27.1154 62.9593 27.1154ZM63.5825 25.5504C63.8995 25.5504 64.1672 25.4643 64.3857 25.2919C64.6073 25.1165 64.7766 24.8718 64.8936 24.5579C65.0136 24.244 65.0736 23.8762 65.0736 23.4545C65.0736 23.0329 65.0151 22.6667 64.8982 22.3558C64.7812 22.045 64.6119 21.8049 64.3904 21.6357C64.1688 21.4664 63.8995 21.3817 63.5825 21.3817C63.2593 21.3817 62.9869 21.4695 62.7654 21.6449C62.5438 21.8203 62.376 22.0634 62.2622 22.3743C62.1483 22.6851 62.0914 23.0452 62.0914 23.4545C62.0914 23.867 62.1483 24.2317 62.2622 24.5487C62.3791 24.8626 62.5468 25.1088 62.7654 25.2873C62.9869 25.4627 63.2593 25.5504 63.5825 25.5504ZM71.8425 27.1385C71.1131 27.1385 70.4853 26.9908 69.959 26.6953C69.4358 26.3968 69.0326 25.9751 68.7495 25.4304C68.4663 24.8826 68.3248 24.2347 68.3248 23.4869C68.3248 22.7575 68.4663 22.1173 68.7495 21.5664C69.0326 21.0155 69.4312 20.5862 69.9451 20.2784C70.4622 19.9706 71.0685 19.8168 71.764 19.8168C72.2318 19.8168 72.6673 19.8922 73.0705 20.043C73.4767 20.1907 73.8307 20.4138 74.1323 20.7124C74.437 21.0109 74.6739 21.3864 74.8432 21.8388C75.0125 22.2881 75.0971 22.8144 75.0971 23.4176V23.9577H69.1096V22.739H73.2459C73.2459 22.4558 73.1844 22.205 73.0613 21.9865C72.9382 21.768 72.7673 21.5972 72.5488 21.4741C72.3334 21.3479 72.0826 21.2848 71.7963 21.2848C71.4978 21.2848 71.2331 21.354 71.0023 21.4925C70.7746 21.628 70.5961 21.8111 70.4668 22.0419C70.3375 22.2696 70.2714 22.5236 70.2683 22.8036V23.9624C70.2683 24.3132 70.3329 24.6164 70.4622 24.8718C70.5945 25.1272 70.7807 25.3242 71.0208 25.4627C71.2608 25.6012 71.5455 25.6705 71.8748 25.6705C72.0933 25.6705 72.2934 25.6397 72.475 25.5781C72.6565 25.5166 72.812 25.4242 72.9412 25.3011C73.0705 25.178 73.169 25.0272 73.2367 24.8487L75.0556 24.9688C74.9632 25.4058 74.774 25.7874 74.4877 26.1136C74.2046 26.4368 73.8384 26.6892 73.389 26.8707C72.9428 27.0492 72.4273 27.1385 71.8425 27.1385ZM76.3805 27V19.9091H78.2871V21.1463H78.361C78.4902 20.7062 78.7072 20.3738 79.0119 20.1491C79.3166 19.9214 79.6674 19.8075 80.0645 19.8075C80.1629 19.8075 80.2691 19.8137 80.383 19.826C80.4969 19.8383 80.5969 19.8552 80.6831 19.8768V21.6218C80.5907 21.5941 80.463 21.5695 80.2999 21.5479C80.1368 21.5264 79.9875 21.5156 79.8521 21.5156C79.5628 21.5156 79.3043 21.5787 79.0765 21.7049C78.8519 21.828 78.6734 22.0004 78.541 22.2219C78.4118 22.4435 78.3471 22.699 78.3471 22.9883V27H76.3805Z" fill="black"/>
<path d="M41 77C46.5228 77 51 72.5228 51 67C51 61.4772 46.5228 57 41 57C35.4772 57 31 61.4772 31 67C31 72.5228 35.4772 77 41 77Z" fill="#222222" stroke="#222222"/>
<path d="M183.645 50H85.3547C77.9791 50 72 55.5747 72 62.4514V71.5486C72 78.4253 77.9791 84 85.3547 84H183.645C191.021 84 197 78.4253 197 71.5486V62.4514C197 55.5747 191.021 50 183.645 50Z" fill="#F1F1F1" stroke="#181818" stroke-width="0.5"/>
<path d="M84.0568 71V62.2727H89.3239V63.2102H85.1136V66.1591H89.0511V67.0966H85.1136V70.0625H89.392V71H84.0568ZM86.2216 61.3864L87.2614 59.4091H88.4375L87.108 61.3864H86.2216ZM93.7514 71.1364C93.1378 71.1364 92.6094 70.9915 92.1662 70.7017C91.723 70.4119 91.3821 70.0128 91.1435 69.5043C90.9048 68.9957 90.7855 68.4148 90.7855 67.7614C90.7855 67.0966 90.9077 66.5099 91.152 66.0014C91.3991 65.4901 91.7429 65.0909 92.1832 64.804C92.6264 64.5142 93.1435 64.3693 93.7344 64.3693C94.1946 64.3693 94.6094 64.4545 94.9787 64.625C95.348 64.7955 95.6506 65.0341 95.8864 65.3409C96.1222 65.6477 96.2685 66.0057 96.3253 66.4148H95.3196C95.2429 66.1165 95.0724 65.8523 94.8082 65.6222C94.5469 65.3892 94.1946 65.2727 93.7514 65.2727C93.3594 65.2727 93.0156 65.375 92.7202 65.5795C92.4276 65.7812 92.1989 66.0668 92.0341 66.4361C91.8722 66.8026 91.7912 67.233 91.7912 67.7273C91.7912 68.233 91.8707 68.6733 92.0298 69.0483C92.1918 69.4233 92.419 69.7145 92.7116 69.9219C93.0071 70.1293 93.3537 70.233 93.7514 70.233C94.0128 70.233 94.25 70.1875 94.4631 70.0966C94.6761 70.0057 94.8565 69.875 95.0043 69.7045C95.152 69.5341 95.2571 69.3295 95.3196 69.0909H96.3253C96.2685 69.4773 96.1278 69.8253 95.9034 70.1349C95.6818 70.4418 95.3878 70.6861 95.0213 70.8679C94.6577 71.0469 94.2344 71.1364 93.7514 71.1364ZM97.7955 71V64.4545H98.767V65.4432H98.8352C98.9545 65.1193 99.1705 64.8565 99.483 64.6548C99.7955 64.4531 100.148 64.3523 100.54 64.3523C100.614 64.3523 100.706 64.3537 100.817 64.3565C100.928 64.3594 101.011 64.3636 101.068 64.3693V65.392C101.034 65.3835 100.956 65.3707 100.834 65.3537C100.714 65.3338 100.588 65.3239 100.455 65.3239C100.136 65.3239 99.8523 65.3906 99.6023 65.5241C99.3551 65.6548 99.1591 65.8366 99.0142 66.0696C98.8722 66.2997 98.8011 66.5625 98.8011 66.858V71H97.7955ZM102.26 71V64.4545H103.266V71H102.26ZM102.772 63.3636C102.576 63.3636 102.407 63.2969 102.265 63.1634C102.125 63.0298 102.056 62.8693 102.056 62.6818C102.056 62.4943 102.125 62.3338 102.265 62.2003C102.407 62.0668 102.576 62 102.772 62C102.968 62 103.135 62.0668 103.275 62.2003C103.417 62.3338 103.488 62.4943 103.488 62.6818C103.488 62.8693 103.417 63.0298 103.275 63.1634C103.135 63.2969 102.968 63.3636 102.772 63.3636ZM105.108 71V64.4545H106.08V65.4432H106.148C106.267 65.1193 106.483 64.8565 106.795 64.6548C107.108 64.4531 107.46 64.3523 107.852 64.3523C107.926 64.3523 108.018 64.3537 108.129 64.3565C108.24 64.3594 108.324 64.3636 108.381 64.3693V65.392C108.347 65.3835 108.268 65.3707 108.146 65.3537C108.027 65.3338 107.901 65.3239 107.767 65.3239C107.449 65.3239 107.165 65.3906 106.915 65.5241C106.668 65.6548 106.472 65.8366 106.327 66.0696C106.185 66.2997 106.114 66.5625 106.114 66.858V71H105.108ZM112.118 71.1364C111.487 71.1364 110.943 70.9972 110.486 70.7188C110.031 70.4375 109.68 70.0455 109.433 69.5426C109.189 69.0369 109.067 68.4489 109.067 67.7784C109.067 67.108 109.189 66.517 109.433 66.0057C109.68 65.4915 110.024 65.0909 110.464 64.804C110.908 64.5142 111.425 64.3693 112.016 64.3693C112.357 64.3693 112.693 64.4261 113.026 64.5398C113.358 64.6534 113.661 64.8381 113.933 65.0938C114.206 65.3466 114.423 65.6818 114.585 66.0994C114.747 66.517 114.828 67.0312 114.828 67.642V68.0682H109.783V67.1989H113.805C113.805 66.8295 113.732 66.5 113.584 66.2102C113.439 65.9205 113.232 65.6918 112.962 65.5241C112.695 65.3565 112.379 65.2727 112.016 65.2727C111.615 65.2727 111.268 65.3722 110.976 65.571C110.686 65.767 110.463 66.0227 110.307 66.3381C110.151 66.6534 110.072 66.9915 110.072 67.3523V67.9318C110.072 68.4261 110.158 68.8452 110.328 69.1889C110.501 69.5298 110.741 69.7898 111.048 69.9688C111.355 70.1449 111.712 70.233 112.118 70.233C112.382 70.233 112.621 70.196 112.834 70.1222C113.05 70.0455 113.236 69.9318 113.392 69.7812C113.548 69.6278 113.669 69.4375 113.754 69.2102L114.726 69.483C114.624 69.8125 114.452 70.1023 114.21 70.3523C113.969 70.5994 113.67 70.7926 113.315 70.9318C112.96 71.0682 112.561 71.1364 112.118 71.1364ZM123.858 68.3239V64.4545H124.864V71H123.858V69.892H123.79C123.636 70.2244 123.398 70.5071 123.074 70.7401C122.75 70.9702 122.341 71.0852 121.847 71.0852C121.438 71.0852 121.074 70.9957 120.756 70.8168C120.438 70.6349 120.188 70.3622 120.006 69.9986C119.824 69.6321 119.733 69.1705 119.733 68.6136V64.4545H120.739V68.5455C120.739 69.0227 120.872 69.4034 121.139 69.6875C121.409 69.9716 121.753 70.1136 122.17 70.1136C122.42 70.1136 122.675 70.0497 122.933 69.9219C123.195 69.794 123.413 69.598 123.589 69.3338C123.768 69.0696 123.858 68.733 123.858 68.3239ZM127.711 67.0625V71H126.706V64.4545H127.677V65.4773H127.762C127.916 65.1449 128.149 64.8778 128.461 64.6761C128.774 64.4716 129.177 64.3693 129.672 64.3693C130.115 64.3693 130.502 64.4602 130.835 64.642C131.167 64.821 131.426 65.0938 131.61 65.4602C131.795 65.8239 131.887 66.2841 131.887 66.8409V71H130.882V66.9091C130.882 66.3949 130.748 65.9943 130.481 65.7074C130.214 65.4176 129.848 65.2727 129.382 65.2727C129.061 65.2727 128.774 65.3423 128.521 65.4815C128.271 65.6207 128.074 65.8239 127.929 66.0909C127.784 66.358 127.711 66.6818 127.711 67.0625ZM137.1 71V64.4545H138.072V65.4773H138.157C138.293 65.1278 138.513 64.8565 138.817 64.6634C139.121 64.4673 139.487 64.3693 139.913 64.3693C140.344 64.3693 140.704 64.4673 140.991 64.6634C141.281 64.8565 141.506 65.1278 141.668 65.4773H141.737C141.904 65.1392 142.156 64.8707 142.491 64.6719C142.826 64.4702 143.228 64.3693 143.697 64.3693C144.282 64.3693 144.761 64.5526 145.133 64.919C145.505 65.2827 145.691 65.8494 145.691 66.6193V71H144.685V66.6193C144.685 66.1364 144.553 65.7912 144.289 65.5838C144.025 65.3764 143.714 65.2727 143.356 65.2727C142.896 65.2727 142.539 65.4119 142.286 65.6903C142.033 65.9659 141.907 66.3153 141.907 66.7386V71H140.884V66.517C140.884 66.1449 140.763 65.8452 140.522 65.6179C140.281 65.3878 139.969 65.2727 139.589 65.2727C139.327 65.2727 139.083 65.3423 138.856 65.4815C138.631 65.6207 138.45 65.8139 138.31 66.0611C138.174 66.3054 138.106 66.5881 138.106 66.9091V71H137.1ZM150.274 71.1364C149.643 71.1364 149.099 70.9972 148.642 70.7188C148.188 70.4375 147.837 70.0455 147.589 69.5426C147.345 69.0369 147.223 68.4489 147.223 67.7784C147.223 67.108 147.345 66.517 147.589 66.0057C147.837 65.4915 148.18 65.0909 148.621 64.804C149.064 64.5142 149.581 64.3693 150.172 64.3693C150.513 64.3693 150.849 64.4261 151.182 64.5398C151.514 64.6534 151.817 64.8381 152.089 65.0938C152.362 65.3466 152.58 65.6818 152.741 66.0994C152.903 66.517 152.984 67.0312 152.984 67.642V68.0682H147.939V67.1989H151.962C151.962 66.8295 151.888 66.5 151.74 66.2102C151.595 65.9205 151.388 65.6918 151.118 65.5241C150.851 65.3565 150.536 65.2727 150.172 65.2727C149.771 65.2727 149.425 65.3722 149.132 65.571C148.842 65.767 148.619 66.0227 148.463 66.3381C148.307 66.6534 148.229 66.9915 148.229 67.3523V67.9318C148.229 68.4261 148.314 68.8452 148.484 69.1889C148.658 69.5298 148.898 69.7898 149.205 69.9688C149.511 70.1449 149.868 70.233 150.274 70.233C150.538 70.233 150.777 70.196 150.99 70.1222C151.206 70.0455 151.392 69.9318 151.548 69.7812C151.705 69.6278 151.825 69.4375 151.911 69.2102L152.882 69.483C152.78 69.8125 152.608 70.1023 152.366 70.3523C152.125 70.5994 151.827 70.7926 151.472 70.9318C151.116 71.0682 150.717 71.1364 150.274 71.1364ZM159.151 65.9205L158.247 66.1761C158.19 66.0256 158.107 65.8793 157.996 65.7372C157.888 65.5923 157.74 65.473 157.553 65.3793C157.365 65.2855 157.125 65.2386 156.832 65.2386C156.432 65.2386 156.098 65.331 155.831 65.5156C155.567 65.6974 155.435 65.929 155.435 66.2102C155.435 66.4602 155.526 66.6577 155.707 66.8026C155.889 66.9474 156.173 67.0682 156.56 67.1648L157.531 67.4034C158.116 67.5455 158.553 67.7628 158.839 68.0554C159.126 68.3452 159.27 68.7187 159.27 69.1761C159.27 69.5511 159.162 69.8864 158.946 70.1818C158.733 70.4773 158.435 70.7102 158.051 70.8807C157.668 71.0511 157.222 71.1364 156.713 71.1364C156.045 71.1364 155.493 70.9915 155.055 70.7017C154.618 70.4119 154.341 69.9886 154.224 69.4318L155.179 69.1932C155.27 69.5455 155.442 69.8097 155.695 69.9858C155.95 70.1619 156.284 70.25 156.696 70.25C157.165 70.25 157.537 70.1506 157.812 69.9517C158.091 69.75 158.23 69.5085 158.23 69.2273C158.23 69 158.151 68.8097 157.991 68.6562C157.832 68.5 157.588 68.3835 157.259 68.3068L156.168 68.0511C155.568 67.9091 155.128 67.6889 154.847 67.3906C154.568 67.0895 154.429 66.7131 154.429 66.2614C154.429 65.892 154.533 65.5653 154.74 65.2812C154.95 64.9972 155.236 64.7741 155.597 64.6122C155.96 64.4503 156.372 64.3693 156.832 64.3693C157.48 64.3693 157.989 64.5114 158.358 64.7955C158.73 65.0795 158.994 65.4545 159.151 65.9205ZM165.42 65.9205L164.517 66.1761C164.46 66.0256 164.376 65.8793 164.265 65.7372C164.157 65.5923 164.01 65.473 163.822 65.3793C163.635 65.2855 163.395 65.2386 163.102 65.2386C162.701 65.2386 162.368 65.331 162.1 65.5156C161.836 65.6974 161.704 65.929 161.704 66.2102C161.704 66.4602 161.795 66.6577 161.977 66.8026C162.159 66.9474 162.443 67.0682 162.829 67.1648L163.801 67.4034C164.386 67.5455 164.822 67.7628 165.109 68.0554C165.396 68.3452 165.539 68.7187 165.539 69.1761C165.539 69.5511 165.431 69.8864 165.216 70.1818C165.002 70.4773 164.704 70.7102 164.321 70.8807C163.937 71.0511 163.491 71.1364 162.983 71.1364C162.315 71.1364 161.762 70.9915 161.325 70.7017C160.887 70.4119 160.61 69.9886 160.494 69.4318L161.449 69.1932C161.539 69.5455 161.711 69.8097 161.964 69.9858C162.22 70.1619 162.554 70.25 162.966 70.25C163.434 70.25 163.806 70.1506 164.082 69.9517C164.36 69.75 164.5 69.5085 164.5 69.2273C164.5 69 164.42 68.8097 164.261 68.6562C164.102 68.5 163.858 68.3835 163.528 68.3068L162.437 68.0511C161.838 67.9091 161.397 67.6889 161.116 67.3906C160.838 67.0895 160.699 66.7131 160.699 66.2614C160.699 65.892 160.802 65.5653 161.01 65.2812C161.22 64.9972 161.505 64.7741 161.866 64.6122C162.23 64.4503 162.642 64.3693 163.102 64.3693C163.75 64.3693 164.258 64.5114 164.627 64.7955C165 65.0795 165.264 65.4545 165.42 65.9205ZM168.979 71.1534C168.565 71.1534 168.188 71.0753 167.85 70.919C167.512 70.7599 167.244 70.5312 167.045 70.233C166.846 69.9318 166.746 69.5682 166.746 69.142C166.746 68.767 166.82 68.4631 166.968 68.2301C167.116 67.9943 167.313 67.8097 167.56 67.6761C167.808 67.5426 168.08 67.4432 168.379 67.3778C168.68 67.3097 168.982 67.2557 169.286 67.2159C169.684 67.1648 170.006 67.1264 170.254 67.1009C170.504 67.0724 170.685 67.0256 170.799 66.9602C170.915 66.8949 170.974 66.7812 170.974 66.6193V66.5852C170.974 66.1648 170.859 65.8381 170.629 65.6051C170.401 65.3722 170.056 65.2557 169.593 65.2557C169.113 65.2557 168.737 65.3608 168.464 65.571C168.191 65.7812 167.999 66.0057 167.888 66.2443L166.934 65.9034C167.104 65.5057 167.332 65.196 167.616 64.9744C167.903 64.75 168.215 64.5937 168.553 64.5057C168.894 64.4148 169.229 64.3693 169.559 64.3693C169.769 64.3693 170.011 64.3949 170.283 64.446C170.559 64.4943 170.825 64.5952 171.08 64.7486C171.339 64.902 171.553 65.1335 171.724 65.4432C171.894 65.7528 171.979 66.1676 171.979 66.6875V71H170.974V70.1136H170.923C170.854 70.2557 170.741 70.4077 170.582 70.5696C170.423 70.7315 170.211 70.8693 169.947 70.983C169.683 71.0966 169.36 71.1534 168.979 71.1534ZM169.133 70.25C169.531 70.25 169.866 70.1719 170.138 70.0156C170.414 69.8594 170.621 69.6577 170.761 69.4105C170.903 69.1634 170.974 68.9034 170.974 68.6307V67.7102C170.931 67.7614 170.837 67.8082 170.692 67.8509C170.55 67.8906 170.386 67.9261 170.198 67.9574C170.013 67.9858 169.833 68.0114 169.657 68.0341C169.484 68.054 169.343 68.071 169.235 68.0852C168.974 68.1193 168.729 68.1747 168.502 68.2514C168.278 68.3253 168.096 68.4375 167.957 68.5881C167.82 68.7358 167.752 68.9375 167.752 69.1932C167.752 69.5426 167.881 69.8068 168.14 69.9858C168.401 70.1619 168.732 70.25 169.133 70.25ZM176.457 73.5909C175.971 73.5909 175.554 73.5284 175.204 73.4034C174.855 73.2812 174.564 73.1193 174.331 72.9176C174.1 72.7188 173.917 72.5057 173.781 72.2784L174.582 71.7159C174.673 71.8352 174.788 71.9716 174.927 72.125C175.066 72.2812 175.257 72.4162 175.498 72.5298C175.743 72.6463 176.062 72.7045 176.457 72.7045C176.985 72.7045 177.422 72.5767 177.765 72.321C178.109 72.0653 178.281 71.6648 178.281 71.1193V69.7898H178.196C178.122 69.9091 178.017 70.0568 177.88 70.233C177.747 70.4062 177.554 70.5611 177.301 70.6974C177.051 70.831 176.713 70.8977 176.287 70.8977C175.758 70.8977 175.284 70.7727 174.863 70.5227C174.446 70.2727 174.115 69.9091 173.87 69.4318C173.629 68.9545 173.508 68.375 173.508 67.6932C173.508 67.0227 173.626 66.4389 173.862 65.9418C174.098 65.4418 174.426 65.0554 174.846 64.7827C175.267 64.5071 175.752 64.3693 176.304 64.3693C176.73 64.3693 177.068 64.4403 177.318 64.5824C177.571 64.7216 177.764 64.8807 177.897 65.0597C178.034 65.2358 178.139 65.3807 178.213 65.4943H178.315V64.4545H179.287V71.1875C179.287 71.75 179.159 72.2074 178.903 72.5597C178.65 72.9148 178.309 73.1747 177.88 73.3395C177.454 73.5071 176.98 73.5909 176.457 73.5909ZM176.423 69.9943C176.826 69.9943 177.167 69.902 177.446 69.7173C177.724 69.5327 177.936 69.267 178.081 68.9205C178.225 68.5739 178.298 68.1591 178.298 67.6761C178.298 67.2045 178.227 66.7884 178.085 66.4276C177.943 66.0668 177.733 65.7841 177.454 65.5795C177.176 65.375 176.832 65.2727 176.423 65.2727C175.997 65.2727 175.642 65.3807 175.358 65.5966C175.076 65.8125 174.865 66.1023 174.723 66.4659C174.583 66.8295 174.514 67.233 174.514 67.6761C174.514 68.1307 174.585 68.5327 174.727 68.8821C174.872 69.2287 175.085 69.5014 175.366 69.7003C175.65 69.8963 176.002 69.9943 176.423 69.9943ZM183.872 71.1364C183.241 71.1364 182.697 70.9972 182.24 70.7188C181.785 70.4375 181.434 70.0455 181.187 69.5426C180.943 69.0369 180.821 68.4489 180.821 67.7784C180.821 67.108 180.943 66.517 181.187 66.0057C181.434 65.4915 181.778 65.0909 182.218 64.804C182.662 64.5142 183.179 64.3693 183.77 64.3693C184.11 64.3693 184.447 64.4261 184.779 64.5398C185.112 64.6534 185.414 64.8381 185.687 65.0938C185.96 65.3466 186.177 65.6818 186.339 66.0994C186.501 66.517 186.582 67.0312 186.582 67.642V68.0682H181.537V67.1989H185.559C185.559 66.8295 185.485 66.5 185.338 66.2102C185.193 65.9205 184.985 65.6918 184.716 65.5241C184.449 65.3565 184.133 65.2727 183.77 65.2727C183.369 65.2727 183.022 65.3722 182.73 65.571C182.44 65.767 182.217 66.0227 182.061 66.3381C181.904 66.6534 181.826 66.9915 181.826 67.3523V67.9318C181.826 68.4261 181.912 68.8452 182.082 69.1889C182.255 69.5298 182.495 69.7898 182.802 69.9688C183.109 70.1449 183.466 70.233 183.872 70.233C184.136 70.233 184.375 70.196 184.588 70.1222C184.804 70.0455 184.99 69.9318 185.146 69.7812C185.302 69.6278 185.423 69.4375 185.508 69.2102L186.48 69.483C186.377 69.8125 186.206 70.1023 185.964 70.3523C185.723 70.5994 185.424 70.7926 185.069 70.9318C184.714 71.0682 184.315 71.1364 183.872 71.1364Z" fill="black"/>
<path d="M199.881 49.7273H200.932L203.403 55.7642H203.489L205.96 49.7273H207.011V57H206.188V51.4744H206.116L203.844 57H203.048L200.776 51.4744H200.705V57H199.881V49.7273ZM210.95 57.1136C210.425 57.1136 209.972 56.9976 209.59 56.7656C209.212 56.5312 208.919 56.2045 208.713 55.7855C208.51 55.3641 208.408 54.8741 208.408 54.3153C208.408 53.7566 208.51 53.2642 208.713 52.8381C208.919 52.4096 209.206 52.0758 209.573 51.8366C209.942 51.5952 210.373 51.4744 210.865 51.4744C211.149 51.4744 211.43 51.5218 211.707 51.6165C211.984 51.7112 212.236 51.8651 212.463 52.0781C212.691 52.2888 212.872 52.5682 213.007 52.9162C213.142 53.2642 213.209 53.6927 213.209 54.2017V54.5568H209.004V53.8324H212.357C212.357 53.5246 212.295 53.25 212.172 53.0085C212.051 52.767 211.878 52.5765 211.654 52.4368C211.431 52.2971 211.168 52.2273 210.865 52.2273C210.531 52.2273 210.243 52.3101 209.999 52.4759C209.757 52.6392 209.571 52.8523 209.441 53.1151C209.311 53.3778 209.246 53.6596 209.246 53.9602V54.4432C209.246 54.8551 209.317 55.2043 209.459 55.4908C209.603 55.7749 209.803 55.9915 210.059 56.1406C210.315 56.2874 210.612 56.3608 210.95 56.3608C211.171 56.3608 211.369 56.33 211.547 56.2685C211.727 56.2045 211.882 56.1098 212.012 55.9844C212.142 55.8565 212.243 55.6979 212.314 55.5085L213.124 55.7358C213.039 56.0104 212.895 56.2519 212.694 56.4602C212.493 56.6662 212.244 56.8272 211.948 56.9432C211.652 57.0568 211.32 57.1136 210.95 57.1136ZM218.347 52.767L217.595 52.9801C217.547 52.8546 217.477 52.7327 217.385 52.6143C217.295 52.4936 217.172 52.3942 217.016 52.3161C216.86 52.2379 216.66 52.1989 216.416 52.1989C216.082 52.1989 215.804 52.2758 215.581 52.4297C215.361 52.5812 215.251 52.7741 215.251 53.0085C215.251 53.2169 215.327 53.3814 215.478 53.5021C215.63 53.6229 215.866 53.7235 216.188 53.804L216.998 54.0028C217.486 54.1212 217.849 54.3023 218.088 54.5462C218.327 54.7876 218.447 55.099 218.447 55.4801C218.447 55.7926 218.357 56.072 218.177 56.3182C217.999 56.5644 217.751 56.7585 217.431 56.9006C217.112 57.0426 216.74 57.1136 216.316 57.1136C215.76 57.1136 215.299 56.9929 214.935 56.7514C214.57 56.5099 214.339 56.1572 214.242 55.6932L215.038 55.4943C215.114 55.7879 215.257 56.008 215.468 56.1548C215.681 56.3016 215.959 56.375 216.302 56.375C216.693 56.375 217.003 56.2921 217.232 56.1264C217.464 55.9583 217.58 55.7571 217.58 55.5227C217.58 55.3333 217.514 55.1747 217.382 55.0469C217.249 54.9167 217.045 54.8196 216.771 54.7557L215.862 54.5426C215.362 54.4242 214.995 54.2408 214.761 53.9922C214.529 53.7412 214.413 53.4276 214.413 53.0511C214.413 52.7434 214.499 52.4711 214.672 52.2344C214.847 51.9976 215.085 51.8118 215.386 51.6768C215.689 51.5419 216.032 51.4744 216.416 51.4744C216.955 51.4744 217.379 51.5928 217.687 51.8295C217.997 52.0663 218.217 52.3788 218.347 52.767ZM223.572 52.767L222.819 52.9801C222.772 52.8546 222.702 52.7327 222.61 52.6143C222.52 52.4936 222.397 52.3942 222.24 52.3161C222.084 52.2379 221.884 52.1989 221.64 52.1989C221.306 52.1989 221.028 52.2758 220.806 52.4297C220.586 52.5812 220.475 52.7741 220.475 53.0085C220.475 53.2169 220.551 53.3814 220.703 53.5021C220.854 53.6229 221.091 53.7235 221.413 53.804L222.223 54.0028C222.71 54.1212 223.074 54.3023 223.313 54.5462C223.552 54.7876 223.672 55.099 223.672 55.4801C223.672 55.7926 223.582 56.072 223.402 56.3182C223.224 56.5644 222.975 56.7585 222.656 56.9006C222.336 57.0426 221.965 57.1136 221.541 57.1136C220.984 57.1136 220.524 56.9929 220.159 56.7514C219.795 56.5099 219.564 56.1572 219.467 55.6932L220.262 55.4943C220.338 55.7879 220.481 56.008 220.692 56.1548C220.905 56.3016 221.183 56.375 221.527 56.375C221.917 56.375 222.227 56.2921 222.457 56.1264C222.689 55.9583 222.805 55.7571 222.805 55.5227C222.805 55.3333 222.739 55.1747 222.606 55.0469C222.474 54.9167 222.27 54.8196 221.995 54.7557L221.086 54.5426C220.587 54.4242 220.22 54.2408 219.985 53.9922C219.753 53.7412 219.637 53.4276 219.637 53.0511C219.637 52.7434 219.724 52.4711 219.897 52.2344C220.072 51.9976 220.31 51.8118 220.61 51.6768C220.913 51.5419 221.257 51.4744 221.64 51.4744C222.18 51.4744 222.604 51.5928 222.912 51.8295C223.222 52.0663 223.442 52.3788 223.572 52.767ZM226.538 57.1278C226.193 57.1278 225.879 57.0627 225.597 56.9325C225.315 56.8 225.092 56.6094 224.926 56.3608C224.76 56.1098 224.677 55.8068 224.677 55.4517C224.677 55.1392 224.739 54.8859 224.862 54.6918C224.985 54.4953 225.15 54.3414 225.356 54.2301C225.562 54.1188 225.789 54.036 226.037 53.9815C226.288 53.9247 226.541 53.8797 226.794 53.8466C227.125 53.804 227.394 53.772 227.6 53.7507C227.808 53.727 227.96 53.688 228.055 53.6335C228.152 53.5791 228.2 53.4844 228.2 53.3494V53.321C228.2 52.9706 228.104 52.6984 227.912 52.5043C227.723 52.3101 227.435 52.2131 227.05 52.2131C226.649 52.2131 226.336 52.3007 226.108 52.4759C225.881 52.651 225.721 52.8381 225.629 53.0369L224.834 52.7528C224.976 52.4214 225.165 52.1634 225.402 51.9787C225.641 51.7917 225.901 51.6615 226.183 51.5881C226.467 51.5123 226.747 51.4744 227.021 51.4744C227.196 51.4744 227.398 51.4957 227.625 51.5384C227.854 51.5786 228.076 51.6626 228.289 51.7905C228.504 51.9183 228.683 52.1113 228.825 52.3693C228.967 52.6274 229.038 52.973 229.038 53.4062V57H228.2V56.2614H228.157C228.101 56.3797 228.006 56.5064 227.873 56.6413C227.741 56.7763 227.564 56.8911 227.344 56.9858C227.124 57.0805 226.855 57.1278 226.538 57.1278ZM226.666 56.375C226.997 56.375 227.277 56.3099 227.504 56.1797C227.734 56.0495 227.907 55.8814 228.023 55.6754C228.141 55.4695 228.2 55.2528 228.2 55.0256V54.2585C228.165 54.3011 228.086 54.3402 227.966 54.3757C227.847 54.4089 227.71 54.4384 227.554 54.4645C227.4 54.4882 227.25 54.5095 227.103 54.5284C226.958 54.545 226.841 54.5592 226.751 54.571C226.533 54.5994 226.33 54.6456 226.14 54.7095C225.953 54.7711 225.802 54.8646 225.686 54.9901C225.572 55.1132 225.515 55.2812 225.515 55.4943C225.515 55.7855 225.623 56.0057 225.839 56.1548C226.056 56.3016 226.332 56.375 226.666 56.375ZM232.77 59.1591C232.365 59.1591 232.017 59.107 231.725 59.0028C231.434 58.901 231.192 58.7661 230.998 58.598C230.806 58.4323 230.653 58.2547 230.539 58.0653L231.207 57.5966C231.283 57.696 231.379 57.8097 231.495 57.9375C231.611 58.0677 231.769 58.1802 231.971 58.2749C232.174 58.3719 232.44 58.4205 232.77 58.4205C233.21 58.4205 233.573 58.3139 233.86 58.1009C234.146 57.8878 234.289 57.554 234.289 57.0994V55.9915H234.218C234.157 56.0909 234.069 56.214 233.956 56.3608C233.844 56.5052 233.683 56.6342 233.473 56.7479C233.264 56.8591 232.983 56.9148 232.627 56.9148C232.187 56.9148 231.792 56.8106 231.441 56.6023C231.093 56.3939 230.818 56.0909 230.614 55.6932C230.413 55.2955 230.312 54.8125 230.312 54.2443C230.312 53.6856 230.41 53.1991 230.607 52.7848C230.803 52.3681 231.077 52.0462 231.427 51.8189C231.778 51.5893 232.182 51.4744 232.642 51.4744C232.997 51.4744 233.279 51.5336 233.487 51.652C233.698 51.768 233.859 51.9006 233.97 52.0497C234.083 52.1965 234.171 52.3172 234.233 52.4119H234.318V51.5455H235.127V57.1562C235.127 57.625 235.021 58.0062 234.808 58.2997C234.597 58.5956 234.313 58.8123 233.956 58.9496C233.6 59.0893 233.205 59.1591 232.77 59.1591ZM232.741 56.1619C233.077 56.1619 233.361 56.085 233.593 55.9311C233.825 55.7772 234.002 55.5559 234.123 55.267C234.243 54.9782 234.304 54.6326 234.304 54.2301C234.304 53.8371 234.244 53.4903 234.126 53.1896C234.008 52.889 233.833 52.6534 233.6 52.483C233.368 52.3125 233.082 52.2273 232.741 52.2273C232.386 52.2273 232.09 52.3172 231.853 52.4972C231.619 52.6771 231.443 52.9186 231.324 53.2216C231.208 53.5246 231.15 53.8608 231.15 54.2301C231.15 54.6089 231.209 54.9439 231.328 55.2351C231.449 55.5239 231.626 55.7512 231.86 55.9169C232.097 56.0803 232.391 56.1619 232.741 56.1619ZM238.949 57.1136C238.423 57.1136 237.97 56.9976 237.588 56.7656C237.21 56.5312 236.917 56.2045 236.711 55.7855C236.508 55.3641 236.406 54.8741 236.406 54.3153C236.406 53.7566 236.508 53.2642 236.711 52.8381C236.917 52.4096 237.204 52.0758 237.571 51.8366C237.94 51.5952 238.371 51.4744 238.863 51.4744C239.147 51.4744 239.428 51.5218 239.705 51.6165C239.982 51.7112 240.234 51.8651 240.461 52.0781C240.689 52.2888 240.87 52.5682 241.005 52.9162C241.14 53.2642 241.207 53.6927 241.207 54.2017V54.5568H237.002V53.8324H240.355C240.355 53.5246 240.293 53.25 240.17 53.0085C240.049 52.767 239.877 52.5765 239.652 52.4368C239.429 52.2971 239.166 52.2273 238.863 52.2273C238.529 52.2273 238.241 52.3101 237.997 52.4759C237.755 52.6392 237.569 52.8523 237.439 53.1151C237.309 53.3778 237.244 53.6596 237.244 53.9602V54.4432C237.244 54.8551 237.315 55.2043 237.457 55.4908C237.601 55.7749 237.801 55.9915 238.057 56.1406C238.313 56.2874 238.61 56.3608 238.949 56.3608C239.169 56.3608 239.368 56.33 239.545 56.2685C239.725 56.2045 239.88 56.1098 240.01 55.9844C240.141 55.8565 240.241 55.6979 240.312 55.5085L241.122 55.7358C241.037 56.0104 240.893 56.2519 240.692 56.4602C240.491 56.6662 240.242 56.8272 239.946 56.9432C239.65 57.0568 239.318 57.1136 238.949 57.1136Z" fill="black"/>
<path d="M268.881 49.7273H269.932L272.403 55.7642H272.489L274.96 49.7273H276.011V57H275.188V51.4744H275.116L272.844 57H272.048L269.776 51.4744H269.705V57H268.881V49.7273ZM279.95 57.1136C279.425 57.1136 278.972 56.9976 278.59 56.7656C278.212 56.5312 277.919 56.2045 277.713 55.7855C277.51 55.3641 277.408 54.8741 277.408 54.3153C277.408 53.7566 277.51 53.2642 277.713 52.8381C277.919 52.4096 278.206 52.0758 278.573 51.8366C278.942 51.5952 279.373 51.4744 279.865 51.4744C280.149 51.4744 280.43 51.5218 280.707 51.6165C280.984 51.7112 281.236 51.8651 281.463 52.0781C281.691 52.2888 281.872 52.5682 282.007 52.9162C282.142 53.2642 282.209 53.6927 282.209 54.2017V54.5568H278.004V53.8324H281.357C281.357 53.5246 281.295 53.25 281.172 53.0085C281.051 52.767 280.878 52.5765 280.654 52.4368C280.431 52.2971 280.168 52.2273 279.865 52.2273C279.531 52.2273 279.243 52.3101 278.999 52.4759C278.757 52.6392 278.571 52.8523 278.441 53.1151C278.311 53.3778 278.246 53.6596 278.246 53.9602V54.4432C278.246 54.8551 278.317 55.2043 278.459 55.4908C278.603 55.7749 278.803 55.9915 279.059 56.1406C279.315 56.2874 279.612 56.3608 279.95 56.3608C280.171 56.3608 280.369 56.33 280.547 56.2685C280.727 56.2045 280.882 56.1098 281.012 55.9844C281.142 55.8565 281.243 55.6979 281.314 55.5085L282.124 55.7358C282.039 56.0104 281.895 56.2519 281.694 56.4602C281.493 56.6662 281.244 56.8272 280.948 56.9432C280.652 57.0568 280.32 57.1136 279.95 57.1136ZM287.347 52.767L286.595 52.9801C286.547 52.8546 286.477 52.7327 286.385 52.6143C286.295 52.4936 286.172 52.3942 286.016 52.3161C285.86 52.2379 285.66 52.1989 285.416 52.1989C285.082 52.1989 284.804 52.2758 284.581 52.4297C284.361 52.5812 284.251 52.7741 284.251 53.0085C284.251 53.2169 284.327 53.3814 284.478 53.5021C284.63 53.6229 284.866 53.7235 285.188 53.804L285.998 54.0028C286.486 54.1212 286.849 54.3023 287.088 54.5462C287.327 54.7876 287.447 55.099 287.447 55.4801C287.447 55.7926 287.357 56.072 287.177 56.3182C286.999 56.5644 286.751 56.7585 286.431 56.9006C286.112 57.0426 285.74 57.1136 285.316 57.1136C284.76 57.1136 284.299 56.9929 283.935 56.7514C283.57 56.5099 283.339 56.1572 283.242 55.6932L284.038 55.4943C284.114 55.7879 284.257 56.008 284.468 56.1548C284.681 56.3016 284.959 56.375 285.302 56.375C285.693 56.375 286.003 56.2921 286.232 56.1264C286.464 55.9583 286.58 55.7571 286.58 55.5227C286.58 55.3333 286.514 55.1747 286.382 55.0469C286.249 54.9167 286.045 54.8196 285.771 54.7557L284.862 54.5426C284.362 54.4242 283.995 54.2408 283.761 53.9922C283.529 53.7412 283.413 53.4276 283.413 53.0511C283.413 52.7434 283.499 52.4711 283.672 52.2344C283.847 51.9976 284.085 51.8118 284.386 51.6768C284.689 51.5419 285.032 51.4744 285.416 51.4744C285.955 51.4744 286.379 51.5928 286.687 51.8295C286.997 52.0663 287.217 52.3788 287.347 52.767ZM292.572 52.767L291.819 52.9801C291.772 52.8546 291.702 52.7327 291.61 52.6143C291.52 52.4936 291.397 52.3942 291.24 52.3161C291.084 52.2379 290.884 52.1989 290.64 52.1989C290.306 52.1989 290.028 52.2758 289.806 52.4297C289.586 52.5812 289.475 52.7741 289.475 53.0085C289.475 53.2169 289.551 53.3814 289.703 53.5021C289.854 53.6229 290.091 53.7235 290.413 53.804L291.223 54.0028C291.71 54.1212 292.074 54.3023 292.313 54.5462C292.552 54.7876 292.672 55.099 292.672 55.4801C292.672 55.7926 292.582 56.072 292.402 56.3182C292.224 56.5644 291.975 56.7585 291.656 56.9006C291.336 57.0426 290.965 57.1136 290.541 57.1136C289.984 57.1136 289.524 56.9929 289.159 56.7514C288.795 56.5099 288.564 56.1572 288.467 55.6932L289.262 55.4943C289.338 55.7879 289.481 56.008 289.692 56.1548C289.905 56.3016 290.183 56.375 290.527 56.375C290.917 56.375 291.227 56.2921 291.457 56.1264C291.689 55.9583 291.805 55.7571 291.805 55.5227C291.805 55.3333 291.739 55.1747 291.606 55.0469C291.474 54.9167 291.27 54.8196 290.995 54.7557L290.086 54.5426C289.587 54.4242 289.22 54.2408 288.985 53.9922C288.753 53.7412 288.637 53.4276 288.637 53.0511C288.637 52.7434 288.724 52.4711 288.897 52.2344C289.072 51.9976 289.31 51.8118 289.61 51.6768C289.913 51.5419 290.257 51.4744 290.64 51.4744C291.18 51.4744 291.604 51.5928 291.912 51.8295C292.222 52.0663 292.442 52.3788 292.572 52.767ZM295.538 57.1278C295.193 57.1278 294.879 57.0627 294.597 56.9325C294.315 56.8 294.092 56.6094 293.926 56.3608C293.76 56.1098 293.677 55.8068 293.677 55.4517C293.677 55.1392 293.739 54.8859 293.862 54.6918C293.985 54.4953 294.15 54.3414 294.356 54.2301C294.562 54.1188 294.789 54.036 295.037 53.9815C295.288 53.9247 295.541 53.8797 295.794 53.8466C296.125 53.804 296.394 53.772 296.6 53.7507C296.808 53.727 296.96 53.688 297.055 53.6335C297.152 53.5791 297.2 53.4844 297.2 53.3494V53.321C297.2 52.9706 297.104 52.6984 296.912 52.5043C296.723 52.3101 296.435 52.2131 296.05 52.2131C295.649 52.2131 295.336 52.3007 295.108 52.4759C294.881 52.651 294.721 52.8381 294.629 53.0369L293.834 52.7528C293.976 52.4214 294.165 52.1634 294.402 51.9787C294.641 51.7917 294.901 51.6615 295.183 51.5881C295.467 51.5123 295.747 51.4744 296.021 51.4744C296.196 51.4744 296.398 51.4957 296.625 51.5384C296.854 51.5786 297.076 51.6626 297.289 51.7905C297.504 51.9183 297.683 52.1113 297.825 52.3693C297.967 52.6274 298.038 52.973 298.038 53.4062V57H297.2V56.2614H297.157C297.101 56.3797 297.006 56.5064 296.873 56.6413C296.741 56.7763 296.564 56.8911 296.344 56.9858C296.124 57.0805 295.855 57.1278 295.538 57.1278ZM295.666 56.375C295.997 56.375 296.277 56.3099 296.504 56.1797C296.734 56.0495 296.907 55.8814 297.023 55.6754C297.141 55.4695 297.2 55.2528 297.2 55.0256V54.2585C297.165 54.3011 297.086 54.3402 296.966 54.3757C296.847 54.4089 296.71 54.4384 296.554 54.4645C296.4 54.4882 296.25 54.5095 296.103 54.5284C295.958 54.545 295.841 54.5592 295.751 54.571C295.533 54.5994 295.33 54.6456 295.14 54.7095C294.953 54.7711 294.802 54.8646 294.686 54.9901C294.572 55.1132 294.515 55.2812 294.515 55.4943C294.515 55.7855 294.623 56.0057 294.839 56.1548C295.056 56.3016 295.332 56.375 295.666 56.375ZM301.77 59.1591C301.365 59.1591 301.017 59.107 300.725 59.0028C300.434 58.901 300.192 58.7661 299.998 58.598C299.806 58.4323 299.653 58.2547 299.539 58.0653L300.207 57.5966C300.283 57.696 300.379 57.8097 300.495 57.9375C300.611 58.0677 300.769 58.1802 300.971 58.2749C301.174 58.3719 301.44 58.4205 301.77 58.4205C302.21 58.4205 302.573 58.3139 302.86 58.1009C303.146 57.8878 303.289 57.554 303.289 57.0994V55.9915H303.218C303.157 56.0909 303.069 56.214 302.956 56.3608C302.844 56.5052 302.683 56.6342 302.473 56.7479C302.264 56.8591 301.983 56.9148 301.627 56.9148C301.187 56.9148 300.792 56.8106 300.441 56.6023C300.093 56.3939 299.818 56.0909 299.614 55.6932C299.413 55.2955 299.312 54.8125 299.312 54.2443C299.312 53.6856 299.41 53.1991 299.607 52.7848C299.803 52.3681 300.077 52.0462 300.427 51.8189C300.778 51.5893 301.182 51.4744 301.642 51.4744C301.997 51.4744 302.279 51.5336 302.487 51.652C302.698 51.768 302.859 51.9006 302.97 52.0497C303.083 52.1965 303.171 52.3172 303.233 52.4119H303.318V51.5455H304.127V57.1562C304.127 57.625 304.021 58.0062 303.808 58.2997C303.597 58.5956 303.313 58.8123 302.956 58.9496C302.6 59.0893 302.205 59.1591 301.77 59.1591ZM301.741 56.1619C302.077 56.1619 302.361 56.085 302.593 55.9311C302.825 55.7772 303.002 55.5559 303.123 55.267C303.243 54.9782 303.304 54.6326 303.304 54.2301C303.304 53.8371 303.244 53.4903 303.126 53.1896C303.008 52.889 302.833 52.6534 302.6 52.483C302.368 52.3125 302.082 52.2273 301.741 52.2273C301.386 52.2273 301.09 52.3172 300.853 52.4972C300.619 52.6771 300.443 52.9186 300.324 53.2216C300.208 53.5246 300.15 53.8608 300.15 54.2301C300.15 54.6089 300.209 54.9439 300.328 55.2351C300.449 55.5239 300.626 55.7512 300.86 55.9169C301.097 56.0803 301.391 56.1619 301.741 56.1619ZM307.949 57.1136C307.423 57.1136 306.97 56.9976 306.588 56.7656C306.21 56.5312 305.917 56.2045 305.711 55.7855C305.508 55.3641 305.406 54.8741 305.406 54.3153C305.406 53.7566 305.508 53.2642 305.711 52.8381C305.917 52.4096 306.204 52.0758 306.571 51.8366C306.94 51.5952 307.371 51.4744 307.863 51.4744C308.147 51.4744 308.428 51.5218 308.705 51.6165C308.982 51.7112 309.234 51.8651 309.461 52.0781C309.689 52.2888 309.87 52.5682 310.005 52.9162C310.14 53.2642 310.207 53.6927 310.207 54.2017V54.5568H306.002V53.8324H309.355C309.355 53.5246 309.293 53.25 309.17 53.0085C309.049 52.767 308.877 52.5765 308.652 52.4368C308.429 52.2971 308.166 52.2273 307.863 52.2273C307.529 52.2273 307.241 52.3101 306.997 52.4759C306.755 52.6392 306.569 52.8523 306.439 53.1151C306.309 53.3778 306.244 53.6596 306.244 53.9602V54.4432C306.244 54.8551 306.315 55.2043 306.457 55.4908C306.601 55.7749 306.801 55.9915 307.057 56.1406C307.313 56.2874 307.61 56.3608 307.949 56.3608C308.169 56.3608 308.368 56.33 308.545 56.2685C308.725 56.2045 308.88 56.1098 309.01 55.9844C309.141 55.8565 309.241 55.6979 309.312 55.5085L310.122 55.7358C310.037 56.0104 309.893 56.2519 309.692 56.4602C309.491 56.6662 309.242 56.8272 308.946 56.9432C308.65 57.0568 308.318 57.1136 307.949 57.1136Z" fill="black"/>
<path d="M482.5 78C488.575 78 493.5 73.0751 493.5 67C493.5 60.9249 488.575 56 482.5 56C476.425 56 471.5 60.9249 471.5 67C471.5 73.0751 476.425 78 482.5 78Z" stroke="#222222"/>
<path d="M482.5 73C485.814 73 488.5 70.3137 488.5 67C488.5 63.6863 485.814 61 482.5 61C479.186 61 476.5 63.6863 476.5 67C476.5 70.3137 479.186 73 482.5 73Z" fill="#222222" stroke="#111111"/>
<path d="M51.5 67H71.5" stroke="#181818"/>
<path d="M61.5 71L71.5 67L61.5 63L65.5 67L61.5 71Z" fill="#181818" stroke="#181818"/>
<path d="M435.15 50H325.85C317.649 50 311 55.5747 311 62.4514V71.5486C311 78.4253 317.649 84 325.85 84H435.15C443.351 84 450 78.4253 450 71.5486V62.4514C450 55.5747 443.351 50 435.15 50Z" fill="#F1F1F1" stroke="#181818" stroke-width="0.5"/>
<path d="M323.057 71V62.2727H328.324V63.2102H324.114V66.1591H328.051V67.0966H324.114V70.0625H328.392V71H323.057ZM331.098 67.0625V71H330.092V64.4545H331.064V65.4773H331.149C331.303 65.1449 331.536 64.8778 331.848 64.6761C332.161 64.4716 332.564 64.3693 333.058 64.3693C333.501 64.3693 333.889 64.4602 334.222 64.642C334.554 64.821 334.813 65.0938 334.997 65.4602C335.182 65.8239 335.274 66.2841 335.274 66.8409V71H334.268V66.9091C334.268 66.3949 334.135 65.9943 333.868 65.7074C333.601 65.4176 333.234 65.2727 332.768 65.2727C332.447 65.2727 332.161 65.3423 331.908 65.4815C331.658 65.6207 331.46 65.8239 331.315 66.0909C331.17 66.358 331.098 66.6818 331.098 67.0625ZM342.23 64.4545L339.809 71H338.787L336.366 64.4545H337.457L339.264 69.6705H339.332L341.139 64.4545H342.23ZM345.982 71.1364C345.391 71.1364 344.873 70.9957 344.426 70.7145C343.983 70.4332 343.637 70.0398 343.387 69.5341C343.14 69.0284 343.016 68.4375 343.016 67.7614C343.016 67.0795 343.14 66.4844 343.387 65.9759C343.637 65.4673 343.983 65.0724 344.426 64.7912C344.873 64.5099 345.391 64.3693 345.982 64.3693C346.573 64.3693 347.09 64.5099 347.533 64.7912C347.979 65.0724 348.326 65.4673 348.573 65.9759C348.823 66.4844 348.948 67.0795 348.948 67.7614C348.948 68.4375 348.823 69.0284 348.573 69.5341C348.326 70.0398 347.979 70.4332 347.533 70.7145C347.09 70.9957 346.573 71.1364 345.982 71.1364ZM345.982 70.233C346.431 70.233 346.8 70.1179 347.09 69.8878C347.38 69.6577 347.594 69.3551 347.733 68.9801C347.873 68.6051 347.942 68.1989 347.942 67.7614C347.942 67.3239 347.873 66.9162 347.733 66.5384C347.594 66.1605 347.38 65.8551 347.09 65.6222C346.8 65.3892 346.431 65.2727 345.982 65.2727C345.533 65.2727 345.164 65.3892 344.874 65.6222C344.584 65.8551 344.37 66.1605 344.23 66.5384C344.091 66.9162 344.022 67.3239 344.022 67.7614C344.022 68.1989 344.091 68.6051 344.23 68.9801C344.37 69.3551 344.584 69.6577 344.874 69.8878C345.164 70.1179 345.533 70.233 345.982 70.233ZM350.896 73.4545C350.726 73.4545 350.574 73.4403 350.44 73.4119C350.307 73.3864 350.214 73.3608 350.163 73.3352L350.419 72.4489C350.663 72.5114 350.879 72.5341 351.067 72.517C351.254 72.5 351.42 72.4162 351.565 72.2656C351.713 72.1179 351.848 71.8778 351.97 71.5455L352.158 71.0341L349.737 64.4545H350.828L352.635 69.6705H352.703L354.51 64.4545H355.601L352.822 71.9545C352.697 72.2926 352.543 72.5724 352.358 72.794C352.173 73.0185 351.959 73.1847 351.714 73.2926C351.473 73.4006 351.2 73.4545 350.896 73.4545ZM359.438 71.1364C358.808 71.1364 358.263 70.9972 357.806 70.7188C357.352 70.4375 357.001 70.0455 356.754 69.5426C356.509 69.0369 356.387 68.4489 356.387 67.7784C356.387 67.108 356.509 66.517 356.754 66.0057C357.001 65.4915 357.344 65.0909 357.785 64.804C358.228 64.5142 358.745 64.3693 359.336 64.3693C359.677 64.3693 360.013 64.4261 360.346 64.5398C360.678 64.6534 360.981 64.8381 361.254 65.0938C361.526 65.3466 361.744 65.6818 361.906 66.0994C362.067 66.517 362.148 67.0312 362.148 67.642V68.0682H357.103V67.1989H361.126C361.126 66.8295 361.052 66.5 360.904 66.2102C360.759 65.9205 360.552 65.6918 360.282 65.5241C360.015 65.3565 359.7 65.2727 359.336 65.2727C358.935 65.2727 358.589 65.3722 358.296 65.571C358.006 65.767 357.783 66.0227 357.627 66.3381C357.471 66.6534 357.393 66.9915 357.393 67.3523V67.9318C357.393 68.4261 357.478 68.8452 357.648 69.1889C357.822 69.5298 358.062 69.7898 358.369 69.9688C358.675 70.1449 359.032 70.233 359.438 70.233C359.702 70.233 359.941 70.196 360.154 70.1222C360.37 70.0455 360.556 69.9318 360.712 69.7812C360.869 69.6278 360.989 69.4375 361.075 69.2102L362.046 69.483C361.944 69.8125 361.772 70.1023 361.531 70.3523C361.289 70.5994 360.991 70.7926 360.636 70.9318C360.281 71.0682 359.881 71.1364 359.438 71.1364ZM363.678 71V64.4545H364.65V65.4432H364.718C364.837 65.1193 365.053 64.8565 365.366 64.6548C365.678 64.4531 366.031 64.3523 366.423 64.3523C366.496 64.3523 366.589 64.3537 366.7 64.3565C366.81 64.3594 366.894 64.3636 366.951 64.3693V65.392C366.917 65.3835 366.839 65.3707 366.717 65.3537C366.597 65.3338 366.471 65.3239 366.337 65.3239C366.019 65.3239 365.735 65.3906 365.485 65.5241C365.238 65.6548 365.042 65.8366 364.897 66.0696C364.755 66.2997 364.684 66.5625 364.684 66.858V71H363.678ZM375.643 68.3239V64.4545H376.649V71H375.643V69.892H375.575C375.422 70.2244 375.183 70.5071 374.859 70.7401C374.535 70.9702 374.126 71.0852 373.632 71.0852C373.223 71.0852 372.859 70.9957 372.541 70.8168C372.223 70.6349 371.973 70.3622 371.791 69.9986C371.609 69.6321 371.518 69.1705 371.518 68.6136V64.4545H372.524V68.5455C372.524 69.0227 372.657 69.4034 372.924 69.6875C373.194 69.9716 373.538 70.1136 373.956 70.1136C374.206 70.1136 374.46 70.0497 374.718 69.9219C374.98 69.794 375.199 69.598 375.375 69.3338C375.554 69.0696 375.643 68.733 375.643 68.3239ZM379.496 67.0625V71H378.491V64.4545H379.462V65.4773H379.548C379.701 65.1449 379.934 64.8778 380.246 64.6761C380.559 64.4716 380.962 64.3693 381.457 64.3693C381.9 64.3693 382.288 64.4602 382.62 64.642C382.952 64.821 383.211 65.0938 383.396 65.4602C383.58 65.8239 383.673 66.2841 383.673 66.8409V71H382.667V66.9091C382.667 66.3949 382.533 65.9943 382.266 65.7074C381.999 65.4176 381.633 65.2727 381.167 65.2727C380.846 65.2727 380.559 65.3423 380.306 65.4815C380.056 65.6207 379.859 65.8239 379.714 66.0909C379.569 66.358 379.496 66.6818 379.496 67.0625ZM388.885 71V64.4545H389.857V65.4773H389.942C390.078 65.1278 390.299 64.8565 390.603 64.6634C390.907 64.4673 391.272 64.3693 391.698 64.3693C392.13 64.3693 392.489 64.4673 392.776 64.6634C393.066 64.8565 393.292 65.1278 393.453 65.4773H393.522C393.689 65.1392 393.941 64.8707 394.276 64.6719C394.611 64.4702 395.013 64.3693 395.482 64.3693C396.067 64.3693 396.546 64.5526 396.918 64.919C397.29 65.2827 397.476 65.8494 397.476 66.6193V71H396.471V66.6193C396.471 66.1364 396.338 65.7912 396.074 65.5838C395.81 65.3764 395.499 65.2727 395.141 65.2727C394.681 65.2727 394.324 65.4119 394.071 65.6903C393.819 65.9659 393.692 66.3153 393.692 66.7386V71H392.669V66.517C392.669 66.1449 392.549 65.8452 392.307 65.6179C392.066 65.3878 391.755 65.2727 391.374 65.2727C391.113 65.2727 390.868 65.3423 390.641 65.4815C390.417 65.6207 390.235 65.8139 390.096 66.0611C389.959 66.3054 389.891 66.5881 389.891 66.9091V71H388.885ZM402.059 71.1364C401.429 71.1364 400.885 70.9972 400.427 70.7188C399.973 70.4375 399.622 70.0455 399.375 69.5426C399.13 69.0369 399.008 68.4489 399.008 67.7784C399.008 67.108 399.13 66.517 399.375 66.0057C399.622 65.4915 399.966 65.0909 400.406 64.804C400.849 64.5142 401.366 64.3693 401.957 64.3693C402.298 64.3693 402.635 64.4261 402.967 64.5398C403.299 64.6534 403.602 64.8381 403.875 65.0938C404.147 65.3466 404.365 65.6818 404.527 66.0994C404.689 66.517 404.77 67.0312 404.77 67.642V68.0682H399.724V67.1989H403.747C403.747 66.8295 403.673 66.5 403.525 66.2102C403.38 65.9205 403.173 65.6918 402.903 65.5241C402.636 65.3565 402.321 65.2727 401.957 65.2727C401.556 65.2727 401.21 65.3722 400.917 65.571C400.627 65.767 400.404 66.0227 400.248 66.3381C400.092 66.6534 400.014 66.9915 400.014 67.3523V67.9318C400.014 68.4261 400.099 68.8452 400.27 69.1889C400.443 69.5298 400.683 69.7898 400.99 69.9688C401.297 70.1449 401.653 70.233 402.059 70.233C402.324 70.233 402.562 70.196 402.775 70.1222C402.991 70.0455 403.177 69.9318 403.333 69.7812C403.49 69.6278 403.61 69.4375 403.696 69.2102L404.667 69.483C404.565 69.8125 404.393 70.1023 404.152 70.3523C403.91 70.5994 403.612 70.7926 403.257 70.9318C402.902 71.0682 402.502 71.1364 402.059 71.1364ZM410.936 65.9205L410.032 66.1761C409.975 66.0256 409.892 65.8793 409.781 65.7372C409.673 65.5923 409.525 65.473 409.338 65.3793C409.15 65.2855 408.91 65.2386 408.618 65.2386C408.217 65.2386 407.883 65.331 407.616 65.5156C407.352 65.6974 407.22 65.929 407.22 66.2102C407.22 66.4602 407.311 66.6577 407.493 66.8026C407.674 66.9474 407.958 67.0682 408.345 67.1648L409.316 67.4034C409.902 67.5455 410.338 67.7628 410.625 68.0554C410.912 68.3452 411.055 68.7187 411.055 69.1761C411.055 69.5511 410.947 69.8864 410.731 70.1818C410.518 70.4773 410.22 70.7102 409.836 70.8807C409.453 71.0511 409.007 71.1364 408.498 71.1364C407.831 71.1364 407.278 70.9915 406.841 70.7017C406.403 70.4119 406.126 69.9886 406.01 69.4318L406.964 69.1932C407.055 69.5455 407.227 69.8097 407.48 69.9858C407.735 70.1619 408.069 70.25 408.481 70.25C408.95 70.25 409.322 70.1506 409.598 69.9517C409.876 69.75 410.015 69.5085 410.015 69.2273C410.015 69 409.936 68.8097 409.777 68.6562C409.618 68.5 409.373 68.3835 409.044 68.3068L407.953 68.0511C407.353 67.9091 406.913 67.6889 406.632 67.3906C406.353 67.0895 406.214 66.7131 406.214 66.2614C406.214 65.892 406.318 65.5653 406.525 65.2812C406.735 64.9972 407.021 64.7741 407.382 64.6122C407.745 64.4503 408.157 64.3693 408.618 64.3693C409.265 64.3693 409.774 64.5114 410.143 64.7955C410.515 65.0795 410.779 65.4545 410.936 65.9205ZM417.205 65.9205L416.302 66.1761C416.245 66.0256 416.161 65.8793 416.05 65.7372C415.942 65.5923 415.795 65.473 415.607 65.3793C415.42 65.2855 415.18 65.2386 414.887 65.2386C414.487 65.2386 414.153 65.331 413.886 65.5156C413.621 65.6974 413.489 65.929 413.489 66.2102C413.489 66.4602 413.58 66.6577 413.762 66.8026C413.944 66.9474 414.228 67.0682 414.614 67.1648L415.586 67.4034C416.171 67.5455 416.607 67.7628 416.894 68.0554C417.181 68.3452 417.325 68.7187 417.325 69.1761C417.325 69.5511 417.217 69.8864 417.001 70.1818C416.788 70.4773 416.489 70.7102 416.106 70.8807C415.722 71.0511 415.276 71.1364 414.768 71.1364C414.1 71.1364 413.548 70.9915 413.11 70.7017C412.673 70.4119 412.396 69.9886 412.279 69.4318L413.234 69.1932C413.325 69.5455 413.496 69.8097 413.749 69.9858C414.005 70.1619 414.339 70.25 414.751 70.25C415.219 70.25 415.592 70.1506 415.867 69.9517C416.146 69.75 416.285 69.5085 416.285 69.2273C416.285 69 416.205 68.8097 416.046 68.6562C415.887 68.5 415.643 68.3835 415.313 68.3068L414.222 68.0511C413.623 67.9091 413.183 67.6889 412.901 67.3906C412.623 67.0895 412.484 66.7131 412.484 66.2614C412.484 65.892 412.587 65.5653 412.795 65.2812C413.005 64.9972 413.29 64.7741 413.651 64.6122C414.015 64.4503 414.427 64.3693 414.887 64.3693C415.535 64.3693 416.043 64.5114 416.413 64.7955C416.785 65.0795 417.049 65.4545 417.205 65.9205ZM420.765 71.1534C420.35 71.1534 419.973 71.0753 419.635 70.919C419.297 70.7599 419.029 70.5312 418.83 70.233C418.631 69.9318 418.532 69.5682 418.532 69.142C418.532 68.767 418.605 68.4631 418.753 68.2301C418.901 67.9943 419.098 67.8097 419.346 67.6761C419.593 67.5426 419.865 67.4432 420.164 67.3778C420.465 67.3097 420.767 67.2557 421.071 67.2159C421.469 67.1648 421.792 67.1264 422.039 67.1009C422.289 67.0724 422.471 67.0256 422.584 66.9602C422.701 66.8949 422.759 66.7812 422.759 66.6193V66.5852C422.759 66.1648 422.644 65.8381 422.414 65.6051C422.186 65.3722 421.841 65.2557 421.378 65.2557C420.898 65.2557 420.522 65.3608 420.249 65.571C419.976 65.7812 419.784 66.0057 419.674 66.2443L418.719 65.9034C418.89 65.5057 419.117 65.196 419.401 64.9744C419.688 64.75 420 64.5937 420.338 64.5057C420.679 64.4148 421.015 64.3693 421.344 64.3693C421.554 64.3693 421.796 64.3949 422.069 64.446C422.344 64.4943 422.61 64.5952 422.865 64.7486C423.124 64.902 423.338 65.1335 423.509 65.4432C423.679 65.7528 423.765 66.1676 423.765 66.6875V71H422.759V70.1136H422.708C422.64 70.2557 422.526 70.4077 422.367 70.5696C422.208 70.7315 421.996 70.8693 421.732 70.983C421.468 71.0966 421.145 71.1534 420.765 71.1534ZM420.918 70.25C421.316 70.25 421.651 70.1719 421.924 70.0156C422.199 69.8594 422.407 69.6577 422.546 69.4105C422.688 69.1634 422.759 68.9034 422.759 68.6307V67.7102C422.716 67.7614 422.623 67.8082 422.478 67.8509C422.336 67.8906 422.171 67.9261 421.983 67.9574C421.799 67.9858 421.618 68.0114 421.442 68.0341C421.269 68.054 421.128 68.071 421.02 68.0852C420.759 68.1193 420.515 68.1747 420.287 68.2514C420.063 68.3253 419.881 68.4375 419.742 68.5881C419.605 68.7358 419.537 68.9375 419.537 69.1932C419.537 69.5426 419.667 69.8068 419.925 69.9858C420.186 70.1619 420.517 70.25 420.918 70.25ZM428.242 73.5909C427.756 73.5909 427.339 73.5284 426.989 73.4034C426.64 73.2812 426.349 73.1193 426.116 72.9176C425.886 72.7188 425.702 72.5057 425.566 72.2784L426.367 71.7159C426.458 71.8352 426.573 71.9716 426.712 72.125C426.852 72.2812 427.042 72.4162 427.283 72.5298C427.528 72.6463 427.847 72.7045 428.242 72.7045C428.771 72.7045 429.207 72.5767 429.55 72.321C429.894 72.0653 430.066 71.6648 430.066 71.1193V69.7898H429.981C429.907 69.9091 429.802 70.0568 429.665 70.233C429.532 70.4062 429.339 70.5611 429.086 70.6974C428.836 70.831 428.498 70.8977 428.072 70.8977C427.543 70.8977 427.069 70.7727 426.648 70.5227C426.231 70.2727 425.9 69.9091 425.656 69.4318C425.414 68.9545 425.293 68.375 425.293 67.6932C425.293 67.0227 425.411 66.4389 425.647 65.9418C425.883 65.4418 426.211 65.0554 426.631 64.7827C427.052 64.5071 427.538 64.3693 428.089 64.3693C428.515 64.3693 428.853 64.4403 429.103 64.5824C429.356 64.7216 429.549 64.8807 429.683 65.0597C429.819 65.2358 429.924 65.3807 429.998 65.4943H430.1V64.4545H431.072V71.1875C431.072 71.75 430.944 72.2074 430.688 72.5597C430.435 72.9148 430.094 73.1747 429.665 73.3395C429.239 73.5071 428.765 73.5909 428.242 73.5909ZM428.208 69.9943C428.612 69.9943 428.952 69.902 429.231 69.7173C429.509 69.5327 429.721 69.267 429.866 68.9205C430.011 68.5739 430.083 68.1591 430.083 67.6761C430.083 67.2045 430.012 66.7884 429.87 66.4276C429.728 66.0668 429.518 65.7841 429.239 65.5795C428.961 65.375 428.617 65.2727 428.208 65.2727C427.782 65.2727 427.427 65.3807 427.143 65.5966C426.862 65.8125 426.65 66.1023 426.508 66.4659C426.369 66.8295 426.299 67.233 426.299 67.6761C426.299 68.1307 426.37 68.5327 426.512 68.8821C426.657 69.2287 426.87 69.5014 427.151 69.7003C427.435 69.8963 427.788 69.9943 428.208 69.9943ZM435.657 71.1364C435.026 71.1364 434.482 70.9972 434.025 70.7188C433.57 70.4375 433.219 70.0455 432.972 69.5426C432.728 69.0369 432.606 68.4489 432.606 67.7784C432.606 67.108 432.728 66.517 432.972 66.0057C433.219 65.4915 433.563 65.0909 434.004 64.804C434.447 64.5142 434.964 64.3693 435.555 64.3693C435.896 64.3693 436.232 64.4261 436.565 64.5398C436.897 64.6534 437.2 64.8381 437.472 65.0938C437.745 65.3466 437.962 65.6818 438.124 66.0994C438.286 66.517 438.367 67.0312 438.367 67.642V68.0682H433.322V67.1989H437.344C437.344 66.8295 437.271 66.5 437.123 66.2102C436.978 65.9205 436.771 65.6918 436.501 65.5241C436.234 65.3565 435.918 65.2727 435.555 65.2727C435.154 65.2727 434.808 65.3722 434.515 65.571C434.225 65.767 434.002 66.0227 433.846 66.3381C433.69 66.6534 433.612 66.9915 433.612 67.3523V67.9318C433.612 68.4261 433.697 68.8452 433.867 69.1889C434.04 69.5298 434.281 69.7898 434.587 69.9688C434.894 70.1449 435.251 70.233 435.657 70.233C435.921 70.233 436.16 70.196 436.373 70.1222C436.589 70.0455 436.775 69.9318 436.931 69.7812C437.087 69.6278 437.208 69.4375 437.293 69.2102L438.265 69.483C438.163 69.8125 437.991 70.1023 437.749 70.3523C437.508 70.5994 437.21 70.7926 436.854 70.9318C436.499 71.0682 436.1 71.1364 435.657 71.1364Z" fill="black"/>
<path d="M202 67L300 67" stroke="#181818"/>
<path d="M295 71L305 67L295 63L299 67L295 71Z" fill="#181818" stroke="#181818"/>
<path d="M450 67H470.5" stroke="#181818"/>
<path d="M460.25 71L470.5 67L460.25 63L464.35 67L460.25 71Z" fill="#181818" stroke="#181818"/>
<rect x="192.25" y="62.25" width="9.5" height="9.5" fill="#F1F1F1" stroke="black" stroke-width="0.5"/>
<rect x="306.25" y="62.25" width="9.5" height="9.5" fill="#F1F1F1" stroke="black" stroke-width="0.5"/>
</svg>
