<svg width="255" height="188" viewBox="0 0 255 188" fill="none" xmlns="http://www.w3.org/2000/svg">
<rect x="0.5" y="0.5" width="254" height="187" rx="24.5" stroke="black"/>
<path d="M21.5298 18.5455L23.815 25.7287H23.9027L26.1925 18.5455H28.4084L25.1491 28H22.5732L19.3093 18.5455H21.5298ZM31.9134 28.1385C31.1963 28.1385 30.5762 27.9862 30.053 27.6815C29.5329 27.3737 29.1312 26.9459 28.8481 26.3981C28.565 25.8472 28.4234 25.2086 28.4234 24.4822C28.4234 23.7498 28.565 23.1096 28.8481 22.5618C29.1312 22.0109 29.5329 21.5831 30.053 21.2784C30.5762 20.9706 31.1963 20.8168 31.9134 20.8168C32.6305 20.8168 33.2491 20.9706 33.7693 21.2784C34.2925 21.5831 34.6956 22.0109 34.9788 22.5618C35.2619 23.1096 35.4035 23.7498 35.4035 24.4822C35.4035 25.2086 35.2619 25.8472 34.9788 26.3981C34.6956 26.9459 34.2925 27.3737 33.7693 27.6815C33.2491 27.9862 32.6305 28.1385 31.9134 28.1385ZM31.9227 26.6151C32.2489 26.6151 32.5213 26.5227 32.7398 26.3381C32.9583 26.1503 33.123 25.8949 33.2338 25.5717C33.3476 25.2486 33.4046 24.8808 33.4046 24.4684C33.4046 24.056 33.3476 23.6882 33.2338 23.3651C33.123 23.0419 32.9583 22.7865 32.7398 22.5987C32.5213 22.411 32.2489 22.3171 31.9227 22.3171C31.5934 22.3171 31.3164 22.411 31.0917 22.5987C30.8701 22.7865 30.7024 23.0419 30.5885 23.3651C30.4777 23.6882 30.4223 24.056 30.4223 24.4684C30.4223 24.8808 30.4777 25.2486 30.5885 25.5717C30.7024 25.8949 30.8701 26.1503 31.0917 26.3381C31.3164 26.5227 31.5934 26.6151 31.9227 26.6151ZM37.6679 30.6591C37.4186 30.6591 37.1847 30.6391 36.9662 30.5991C36.7507 30.5621 36.5722 30.5144 36.4307 30.456L36.8738 28.9879C37.1047 29.0587 37.3124 29.0972 37.4971 29.1033C37.6848 29.1095 37.8464 29.0664 37.9818 28.9741C38.1203 28.8817 38.2326 28.7248 38.3188 28.5032L38.4342 28.2031L35.8905 20.9091H37.9587L39.4268 26.1165H39.5006L40.9825 20.9091H43.0645L40.3085 28.7663C40.1762 29.148 39.9961 29.4804 39.7684 29.7635C39.5437 30.0497 39.259 30.2698 38.9143 30.4237C38.5696 30.5806 38.1541 30.6591 37.6679 30.6591ZM45.9025 28.1339C45.4501 28.1339 45.0469 28.0554 44.693 27.8984C44.3391 27.7384 44.059 27.503 43.8528 27.1921C43.6497 26.8782 43.5481 26.4873 43.5481 26.0195C43.5481 25.6256 43.6204 25.2947 43.7651 25.027C43.9097 24.7592 44.1067 24.5438 44.356 24.3807C44.6053 24.2176 44.8884 24.0945 45.2054 24.0114C45.5255 23.9283 45.861 23.8698 46.2118 23.8359C46.6242 23.7929 46.9566 23.7528 47.209 23.7159C47.4614 23.6759 47.6445 23.6174 47.7583 23.5405C47.8722 23.4635 47.9292 23.3497 47.9292 23.1989V23.1712C47.9292 22.8788 47.8368 22.6526 47.6522 22.4925C47.4706 22.3325 47.2121 22.2525 46.8766 22.2525C46.5227 22.2525 46.2411 22.331 46.0318 22.4879C45.8225 22.6418 45.684 22.8357 45.6163 23.0696L43.7974 22.9219C43.8897 22.491 44.0713 22.1186 44.3422 21.8047C44.613 21.4877 44.9623 21.2446 45.3901 21.0753C45.821 20.9029 46.3195 20.8168 46.8858 20.8168C47.2798 20.8168 47.6568 20.8629 48.0169 20.9553C48.38 21.0476 48.7016 21.1907 48.9817 21.3846C49.2649 21.5785 49.488 21.8278 49.6511 22.1325C49.8142 22.4341 49.8958 22.7957 49.8958 23.2173V28H48.0307V27.0167H47.9753C47.8614 27.2383 47.7091 27.4337 47.5183 27.603C47.3275 27.7692 47.0982 27.9 46.8304 27.9954C46.5627 28.0877 46.2534 28.1339 45.9025 28.1339ZM46.4657 26.7766C46.755 26.7766 47.0105 26.7197 47.2321 26.6058C47.4537 26.4889 47.6275 26.3319 47.7537 26.1349C47.8799 25.938 47.943 25.7148 47.943 25.4656V24.7131C47.8815 24.7531 47.7968 24.79 47.6891 24.8239C47.5845 24.8546 47.466 24.8839 47.3336 24.9116C47.2013 24.9362 47.069 24.9593 46.9366 24.9808C46.8043 24.9993 46.6842 25.0162 46.5765 25.0316C46.3457 25.0655 46.1441 25.1193 45.9718 25.1932C45.7994 25.267 45.6655 25.3671 45.5701 25.4933C45.4747 25.6164 45.427 25.7702 45.427 25.9549C45.427 26.2227 45.524 26.4273 45.7179 26.5689C45.9148 26.7074 46.1641 26.7766 46.4657 26.7766ZM54.6161 30.8068C53.979 30.8068 53.4328 30.7191 52.9773 30.5437C52.5249 30.3713 52.1648 30.1359 51.897 29.8374C51.6293 29.5388 51.4554 29.2034 51.3754 28.831L53.1942 28.5863C53.2496 28.7279 53.3374 28.8602 53.4574 28.9833C53.5774 29.1064 53.7359 29.2049 53.9329 29.2788C54.1329 29.3557 54.3761 29.3942 54.6623 29.3942C55.0901 29.3942 55.4425 29.2895 55.7195 29.0803C55.9995 28.8741 56.1396 28.5278 56.1396 28.0415V26.7443H56.0565C55.9703 26.9413 55.841 27.1275 55.6687 27.3029C55.4963 27.4783 55.2747 27.6214 55.0039 27.7322C54.7331 27.843 54.4099 27.8984 54.0344 27.8984C53.502 27.8984 53.0173 27.7753 52.5803 27.5291C52.1463 27.2798 51.8001 26.8997 51.5415 26.3888C51.2861 25.8749 51.1584 25.2255 51.1584 24.4407C51.1584 23.6374 51.2892 22.9665 51.5508 22.4279C51.8124 21.8893 52.1602 21.4862 52.5941 21.2184C53.0311 20.9506 53.5097 20.8168 54.0298 20.8168C54.4268 20.8168 54.7592 20.8845 55.027 21.0199C55.2947 21.1522 55.5102 21.3184 55.6733 21.5185C55.8395 21.7154 55.9672 21.9093 56.0565 22.1001H56.1303V20.9091H58.0831V28.0692C58.0831 28.6725 57.9354 29.1772 57.6399 29.5835C57.3445 29.9897 56.9351 30.2944 56.4119 30.4975C55.8918 30.7037 55.2932 30.8068 54.6161 30.8068ZM54.6577 26.4212C54.9747 26.4212 55.2424 26.3427 55.4609 26.1857C55.6825 26.0257 55.8518 25.7979 55.9688 25.5025C56.0888 25.204 56.1488 24.8469 56.1488 24.4315C56.1488 24.016 56.0903 23.6559 55.9734 23.3512C55.8564 23.0434 55.6871 22.8049 55.4656 22.6357C55.244 22.4664 54.9747 22.3817 54.6577 22.3817C54.3345 22.3817 54.0621 22.4695 53.8406 22.6449C53.619 22.8172 53.4512 23.0573 53.3374 23.3651C53.2235 23.6728 53.1665 24.0283 53.1665 24.4315C53.1665 24.8408 53.2235 25.1947 53.3374 25.4933C53.4543 25.7887 53.622 26.018 53.8406 26.1811C54.0621 26.3411 54.3345 26.4212 54.6577 26.4212ZM62.8796 28.1385C62.1502 28.1385 61.5224 27.9908 60.9961 27.6953C60.4729 27.3968 60.0697 26.9751 59.7866 26.4304C59.5034 25.8826 59.3619 25.2347 59.3619 24.4869C59.3619 23.7575 59.5034 23.1173 59.7866 22.5664C60.0697 22.0155 60.4683 21.5862 60.9822 21.2784C61.4993 20.9706 62.1056 20.8168 62.8011 20.8168C63.2689 20.8168 63.7044 20.8922 64.1076 21.043C64.5138 21.1907 64.8678 21.4138 65.1694 21.7124C65.4741 22.0109 65.7111 22.3864 65.8803 22.8388C66.0496 23.2881 66.1342 23.8144 66.1342 24.4176V24.9577H60.1467V23.739H64.283C64.283 23.4558 64.2215 23.205 64.0984 22.9865C63.9753 22.768 63.8045 22.5972 63.5859 22.4741C63.3705 22.3479 63.1197 22.2848 62.8335 22.2848C62.5349 22.2848 62.2702 22.354 62.0394 22.4925C61.8117 22.628 61.6332 22.8111 61.5039 23.0419C61.3746 23.2696 61.3085 23.5236 61.3054 23.8036V24.9624C61.3054 25.3132 61.37 25.6164 61.4993 25.8718C61.6316 26.1272 61.8178 26.3242 62.0579 26.4627C62.2979 26.6012 62.5826 26.6705 62.9119 26.6705C63.1304 26.6705 63.3305 26.6397 63.5121 26.5781C63.6937 26.5166 63.8491 26.4242 63.9783 26.3011C64.1076 26.178 64.2061 26.0272 64.2738 25.8487L66.0927 25.9688C66.0004 26.4058 65.8111 26.7874 65.5249 27.1136C65.2417 27.4368 64.8755 27.6892 64.4261 27.8707C63.9799 28.0492 63.4644 28.1385 62.8796 28.1385ZM67.4176 28V20.9091H69.3242V22.1463H69.3981C69.5273 21.7062 69.7443 21.3738 70.049 21.1491C70.3537 20.9214 70.7045 20.8075 71.1016 20.8075C71.2 20.8075 71.3062 20.8137 71.4201 20.826C71.534 20.8383 71.634 20.8552 71.7202 20.8768V22.6218C71.6278 22.5941 71.5001 22.5695 71.337 22.5479C71.1739 22.5264 71.0246 22.5156 70.8892 22.5156C70.5999 22.5156 70.3414 22.5787 70.1136 22.7049C69.889 22.828 69.7105 23.0004 69.5781 23.2219C69.4489 23.4435 69.3842 23.699 69.3842 23.9883V28H67.4176Z" fill="black"/>
<path d="M22.6747 49.1477C22.0838 49.1477 21.5621 48.9985 21.1097 48.6999C20.6573 48.3983 20.3034 47.9736 20.0479 47.4258C19.7925 46.8749 19.6648 46.224 19.6648 45.473C19.6648 44.7282 19.7925 44.0819 20.0479 43.5341C20.3034 42.9863 20.6589 42.5631 21.1143 42.2646C21.5698 41.966 22.0961 41.8168 22.6932 41.8168C23.1548 41.8168 23.5195 41.8937 23.7873 42.0476C24.0581 42.1984 24.2643 42.3707 24.4059 42.5646C24.5505 42.7554 24.6629 42.9124 24.7429 43.0355H24.8352V39.5455H25.9247V49H24.8722V47.9105H24.7429C24.6629 48.0398 24.549 48.2029 24.4013 48.3999C24.2536 48.5937 24.0427 48.7676 23.7688 48.9215C23.4949 49.0723 23.1302 49.1477 22.6747 49.1477ZM22.8224 48.169C23.2595 48.169 23.6288 48.0552 23.9304 47.8274C24.232 47.5966 24.4613 47.2781 24.6183 46.8718C24.7752 46.4625 24.8537 45.9901 24.8537 45.4545C24.8537 44.9252 24.7768 44.462 24.6229 44.065C24.469 43.6649 24.2412 43.354 23.9396 43.1325C23.638 42.9078 23.2656 42.7955 22.8224 42.7955C22.3608 42.7955 21.9761 42.9139 21.6683 43.1509C21.3636 43.3848 21.1344 43.7034 20.9805 44.1065C20.8297 44.5066 20.7543 44.956 20.7543 45.4545C20.7543 45.9593 20.8312 46.4179 20.9851 46.8303C21.142 47.2396 21.3729 47.5658 21.6776 47.8089C21.9853 48.049 22.367 48.169 22.8224 48.169ZM31.0444 49.1477C30.3612 49.1477 29.7718 48.9969 29.2763 48.6953C28.7839 48.3906 28.4038 47.9659 28.136 47.4212C27.8713 46.8733 27.739 46.2363 27.739 45.5099C27.739 44.7836 27.8713 44.1435 28.136 43.5895C28.4038 43.0324 28.7762 42.5985 29.2532 42.2876C29.7333 41.9737 30.2934 41.8168 30.9336 41.8168C31.3029 41.8168 31.6676 41.8783 32.0277 42.0014C32.3878 42.1245 32.7156 42.3246 33.011 42.6016C33.3065 42.8755 33.5419 43.2386 33.7173 43.6911C33.8928 44.1435 33.9805 44.7005 33.9805 45.3622V45.8239H28.5146V44.8821H32.8725C32.8725 44.482 32.7925 44.125 32.6325 43.8111C32.4755 43.4972 32.2508 43.2494 31.9585 43.0678C31.6692 42.8862 31.3275 42.7955 30.9336 42.7955C30.4996 42.7955 30.1242 42.9032 29.8072 43.1186C29.4933 43.331 29.2517 43.608 29.0824 43.9496C28.9131 44.2912 28.8285 44.6574 28.8285 45.0483V45.6761C28.8285 46.2116 28.9208 46.6656 29.1055 47.038C29.2932 47.4073 29.5533 47.6889 29.8857 47.8828C30.218 48.0736 30.6043 48.169 31.0444 48.169C31.3306 48.169 31.5891 48.129 31.82 48.049C32.0539 47.9659 32.2554 47.8428 32.4247 47.6797C32.594 47.5135 32.7248 47.3073 32.8171 47.0611L33.8697 47.3565C33.7589 47.7135 33.5727 48.0275 33.3111 48.2983C33.0495 48.5661 32.7263 48.7753 32.3416 48.9261C31.9569 49.0739 31.5245 49.1477 31.0444 49.1477ZM40.6605 43.4972L39.6818 43.7741C39.6203 43.611 39.5295 43.4525 39.4094 43.2987C39.2925 43.1417 39.1325 43.0124 38.9293 42.9109C38.7262 42.8093 38.4661 42.7585 38.1491 42.7585C37.7152 42.7585 37.3536 42.8585 37.0643 43.0586C36.7781 43.2556 36.6349 43.5064 36.6349 43.8111C36.6349 44.0819 36.7334 44.2958 36.9304 44.4528C37.1274 44.6097 37.4351 44.7405 37.8537 44.8452L38.9062 45.1037C39.5402 45.2576 40.0127 45.493 40.3235 45.81C40.6344 46.1239 40.7898 46.5286 40.7898 47.0241C40.7898 47.4304 40.6728 47.7936 40.4389 48.1136C40.2081 48.4337 39.8849 48.6861 39.4695 48.8707C39.054 49.0554 38.5708 49.1477 38.0199 49.1477C37.2966 49.1477 36.698 48.9908 36.2241 48.6768C35.7501 48.3629 35.45 47.9044 35.3239 47.3011L36.358 47.0426C36.4564 47.4242 36.6426 47.7105 36.9165 47.9013C37.1935 48.0921 37.5552 48.1875 38.0014 48.1875C38.5092 48.1875 38.9124 48.0798 39.2109 47.8643C39.5125 47.6458 39.6634 47.3842 39.6634 47.0795C39.6634 46.8333 39.5772 46.6271 39.4048 46.4609C39.2325 46.2917 38.9678 46.1655 38.6108 46.0824L37.429 45.8054C36.7796 45.6515 36.3026 45.413 35.9979 45.0898C35.6963 44.7636 35.5455 44.3558 35.5455 43.8665C35.5455 43.4664 35.6578 43.1125 35.8825 42.8047C36.1102 42.4969 36.4195 42.2553 36.8104 42.0799C37.2043 41.9045 37.6506 41.8168 38.1491 41.8168C38.8509 41.8168 39.4018 41.9706 39.8018 42.2784C40.205 42.5862 40.4912 42.9924 40.6605 43.4972ZM45.5136 41.9091V42.8324H41.8389V41.9091H45.5136ZM42.9099 40.2102H43.9994V46.9688C43.9994 47.2765 44.044 47.5073 44.1333 47.6612C44.2256 47.812 44.3425 47.9136 44.4841 47.9659C44.6288 48.0152 44.7811 48.0398 44.9411 48.0398C45.0612 48.0398 45.1597 48.0336 45.2366 48.0213C45.3135 48.0059 45.3751 47.9936 45.4213 47.9844L45.6428 48.9631C45.569 48.9908 45.4659 49.0185 45.3335 49.0462C45.2012 49.0769 45.0335 49.0923 44.8303 49.0923C44.5226 49.0923 44.221 49.0262 43.9255 48.8938C43.6331 48.7615 43.39 48.5599 43.1961 48.2891C43.0053 48.0182 42.9099 47.6766 42.9099 47.2642V40.2102ZM47.1524 49V41.9091H48.2419V49H47.1524ZM47.7064 40.7273C47.4941 40.7273 47.3109 40.6549 47.157 40.5103C47.0062 40.3656 46.9308 40.1918 46.9308 39.9886C46.9308 39.7855 47.0062 39.6116 47.157 39.467C47.3109 39.3223 47.4941 39.25 47.7064 39.25C47.9188 39.25 48.1003 39.3223 48.2512 39.467C48.405 39.6116 48.482 39.7855 48.482 39.9886C48.482 40.1918 48.405 40.3656 48.2512 40.5103C48.1003 40.6549 47.9188 40.7273 47.7064 40.7273ZM51.3269 44.7344V49H50.2374V41.9091H51.29V43.017H51.3823C51.5485 42.657 51.8008 42.3677 52.1394 42.1491C52.4779 41.9276 52.915 41.8168 53.4505 41.8168C53.9306 41.8168 54.3507 41.9152 54.7108 42.1122C55.0708 42.3061 55.3509 42.6016 55.551 42.9986C55.751 43.3925 55.851 43.8911 55.851 44.4943V49H54.7615V44.5682C54.7615 44.0111 54.6169 43.5772 54.3276 43.2663C54.0383 42.9524 53.6413 42.7955 53.1365 42.7955C52.7888 42.7955 52.4779 42.8709 52.204 43.0217C51.9332 43.1725 51.7193 43.3925 51.5623 43.6818C51.4054 43.9711 51.3269 44.322 51.3269 44.7344ZM59.9285 49.1662C59.4792 49.1662 59.0714 49.0816 58.7052 48.9123C58.3389 48.7399 58.0481 48.4922 57.8327 48.169C57.6172 47.8428 57.5095 47.4489 57.5095 46.9872C57.5095 46.581 57.5895 46.2517 57.7496 45.9993C57.9096 45.7438 58.1235 45.5438 58.3912 45.3991C58.659 45.2545 58.9545 45.1468 59.2776 45.076C59.6038 45.0021 59.9316 44.9437 60.2609 44.9006C60.6918 44.8452 61.0411 44.8036 61.3089 44.7759C61.5797 44.7451 61.7767 44.6944 61.8998 44.6236C62.026 44.5528 62.089 44.4297 62.089 44.2543V44.2173C62.089 43.7618 61.9644 43.4079 61.7151 43.1555C61.4689 42.9032 61.095 42.777 60.5933 42.777C60.0732 42.777 59.6654 42.8909 59.3699 43.1186C59.0745 43.3464 58.8667 43.5895 58.7467 43.848L57.7126 43.4787C57.8973 43.0478 58.1435 42.7124 58.4513 42.4723C58.7621 42.2292 59.1006 42.0599 59.4669 41.9645C59.8362 41.866 60.1994 41.8168 60.5564 41.8168C60.7841 41.8168 61.0457 41.8445 61.3412 41.8999C61.6397 41.9522 61.9275 42.0614 62.2045 42.2276C62.4845 42.3938 62.7169 42.6446 62.9015 42.9801C63.0862 43.3156 63.1785 43.7649 63.1785 44.3281V49H62.089V48.0398H62.0336C61.9598 48.1937 61.8367 48.3583 61.6643 48.5337C61.492 48.7092 61.2627 48.8584 60.9765 48.9815C60.6903 49.1046 60.3409 49.1662 59.9285 49.1662ZM60.0947 48.1875C60.5256 48.1875 60.8888 48.1029 61.1842 47.9336C61.4827 47.7643 61.7074 47.5458 61.8582 47.2781C62.0121 47.0103 62.089 46.7287 62.089 46.4332V45.4361C62.0429 45.4915 61.9413 45.5423 61.7844 45.5884C61.6305 45.6315 61.452 45.67 61.2488 45.7038C61.0488 45.7346 60.8534 45.7623 60.6626 45.7869C60.4748 45.8085 60.3225 45.8269 60.2055 45.8423C59.9224 45.8793 59.6577 45.9393 59.4115 46.0224C59.1684 46.1024 58.9714 46.224 58.8206 46.3871C58.6729 46.5471 58.599 46.7656 58.599 47.0426C58.599 47.4212 58.739 47.7074 59.0191 47.9013C59.3022 48.0921 59.6608 48.1875 60.0947 48.1875ZM68.2509 41.9091V42.8324H64.5762V41.9091H68.2509ZM65.6472 40.2102H66.7367V46.9688C66.7367 47.2765 66.7813 47.5073 66.8706 47.6612C66.9629 47.812 67.0798 47.9136 67.2214 47.9659C67.3661 48.0152 67.5184 48.0398 67.6784 48.0398C67.7985 48.0398 67.897 48.0336 67.9739 48.0213C68.0508 48.0059 68.1124 47.9936 68.1586 47.9844L68.3801 48.9631C68.3063 48.9908 68.2032 49.0185 68.0708 49.0462C67.9385 49.0769 67.7708 49.0923 67.5676 49.0923C67.2599 49.0923 66.9583 49.0262 66.6628 48.8938C66.3704 48.7615 66.1273 48.5599 65.9334 48.2891C65.7426 48.0182 65.6472 47.6766 65.6472 47.2642V40.2102ZM69.8897 49V41.9091H70.9792V49H69.8897ZM70.4437 40.7273C70.2314 40.7273 70.0482 40.6549 69.8944 40.5103C69.7435 40.3656 69.6681 40.1918 69.6681 39.9886C69.6681 39.7855 69.7435 39.6116 69.8944 39.467C70.0482 39.3223 70.2314 39.25 70.4437 39.25C70.6561 39.25 70.8377 39.3223 70.9885 39.467C71.1423 39.6116 71.2193 39.7855 71.2193 39.9886C71.2193 40.1918 71.1423 40.3656 70.9885 40.5103C70.8377 40.6549 70.6561 40.7273 70.4437 40.7273ZM75.8554 49.1477C75.2152 49.1477 74.6536 48.9954 74.1704 48.6907C73.6903 48.386 73.3148 47.9598 73.0439 47.4119C72.7762 46.8641 72.6423 46.224 72.6423 45.4915C72.6423 44.7528 72.7762 44.1081 73.0439 43.5572C73.3148 43.0063 73.6903 42.5785 74.1704 42.2738C74.6536 41.9691 75.2152 41.8168 75.8554 41.8168C76.4955 41.8168 77.0557 41.9691 77.5358 42.2738C78.019 42.5785 78.3944 43.0063 78.6622 43.5572C78.933 44.1081 79.0684 44.7528 79.0684 45.4915C79.0684 46.224 78.933 46.8641 78.6622 47.4119C78.3944 47.9598 78.019 48.386 77.5358 48.6907C77.0557 48.9954 76.4955 49.1477 75.8554 49.1477ZM75.8554 48.169C76.3416 48.169 76.7417 48.0444 77.0557 47.7951C77.3696 47.5458 77.6019 47.218 77.7528 46.8118C77.9036 46.4055 77.979 45.9654 77.979 45.4915C77.979 45.0175 77.9036 44.5759 77.7528 44.1665C77.6019 43.7572 77.3696 43.4264 77.0557 43.174C76.7417 42.9216 76.3416 42.7955 75.8554 42.7955C75.3691 42.7955 74.969 42.9216 74.6551 43.174C74.3412 43.4264 74.1088 43.7572 73.958 44.1665C73.8072 44.5759 73.7318 45.0175 73.7318 45.4915C73.7318 45.9654 73.8072 46.4055 73.958 46.8118C74.1088 47.218 74.3412 47.5458 74.6551 47.7951C74.969 48.0444 75.3691 48.169 75.8554 48.169ZM81.821 44.7344V49H80.7315V41.9091H81.7841V43.017H81.8764C82.0426 42.657 82.295 42.3677 82.6335 42.1491C82.9721 41.9276 83.4091 41.8168 83.9446 41.8168C84.4247 41.8168 84.8448 41.9152 85.2049 42.1122C85.565 42.3061 85.8451 42.6016 86.0451 42.9986C86.2451 43.3925 86.3452 43.8911 86.3452 44.4943V49H85.2557V44.5682C85.2557 44.0111 85.111 43.5772 84.8217 43.2663C84.5324 42.9524 84.1354 42.7955 83.6307 42.7955C83.2829 42.7955 82.9721 42.8709 82.6982 43.0217C82.4273 43.1725 82.2134 43.3925 82.0565 43.6818C81.8995 43.9711 81.821 44.322 81.821 44.7344ZM92.7863 47.7905C92.5586 47.7905 92.3631 47.7089 92.2 47.5458C92.0369 47.3827 91.9553 47.1873 91.9553 46.9595C91.9553 46.7318 92.0369 46.5363 92.2 46.3732C92.3631 46.2101 92.5586 46.1286 92.7863 46.1286C93.0141 46.1286 93.2095 46.2101 93.3726 46.3732C93.5357 46.5363 93.6173 46.7318 93.6173 46.9595C93.6173 47.1103 93.5788 47.2488 93.5019 47.375C93.428 47.5012 93.328 47.6027 93.2018 47.6797C93.0787 47.7536 92.9402 47.7905 92.7863 47.7905ZM92.7863 43.0078C92.5586 43.0078 92.3631 42.9263 92.2 42.7631C92.0369 42.6 91.9553 42.4046 91.9553 42.1768C91.9553 41.9491 92.0369 41.7537 92.2 41.5906C92.3631 41.4274 92.5586 41.3459 92.7863 41.3459C93.0141 41.3459 93.2095 41.4274 93.3726 41.5906C93.5357 41.7537 93.6173 41.9491 93.6173 42.1768C93.6173 42.3277 93.5788 42.4661 93.5019 42.5923C93.428 42.7185 93.328 42.8201 93.2018 42.897C93.0787 42.9709 92.9402 43.0078 92.7863 43.0078ZM104.547 41.9091C104.491 41.4413 104.267 41.0781 103.873 40.8196C103.479 40.5611 102.996 40.4318 102.423 40.4318C102.005 40.4318 101.638 40.4995 101.324 40.6349C101.014 40.7704 100.771 40.9566 100.595 41.1935C100.423 41.4305 100.337 41.6998 100.337 42.0014C100.337 42.2538 100.397 42.4708 100.517 42.6523C100.64 42.8308 100.797 42.9801 100.987 43.1001C101.178 43.2171 101.378 43.314 101.588 43.391C101.797 43.4648 101.989 43.5249 102.165 43.571L103.125 43.8295C103.371 43.8942 103.645 43.9834 103.947 44.0973C104.251 44.2112 104.542 44.3666 104.819 44.5636C105.099 44.7575 105.33 45.0067 105.512 45.3114C105.693 45.6161 105.784 45.9901 105.784 46.4332C105.784 46.9441 105.65 47.4058 105.382 47.8182C105.118 48.2306 104.73 48.5584 104.219 48.8015C103.711 49.0446 103.094 49.1662 102.368 49.1662C101.691 49.1662 101.104 49.0569 100.609 48.8384C100.117 48.6199 99.7287 48.3152 99.4456 47.9244C99.1655 47.5335 99.007 47.0795 98.9701 46.5625H100.152C100.183 46.9195 100.303 47.215 100.512 47.4489C100.724 47.6797 100.992 47.852 101.315 47.9659C101.641 48.0767 101.992 48.1321 102.368 48.1321C102.805 48.1321 103.197 48.0613 103.545 47.9197C103.893 47.7751 104.168 47.575 104.371 47.3196C104.574 47.0611 104.676 46.7595 104.676 46.4148C104.676 46.1009 104.588 45.8454 104.413 45.6484C104.237 45.4515 104.007 45.2914 103.72 45.1683C103.434 45.0452 103.125 44.9375 102.793 44.8452L101.629 44.5128C100.891 44.3004 100.306 43.9973 99.8749 43.6033C99.444 43.2094 99.2286 42.6939 99.2286 42.0568C99.2286 41.5275 99.3717 41.0658 99.6579 40.6719C99.9472 40.2749 100.335 39.9671 100.821 39.7486C101.311 39.527 101.857 39.4162 102.46 39.4162C103.07 39.4162 103.611 39.5254 104.085 39.744C104.559 39.9594 104.935 40.2549 105.212 40.6303C105.492 41.0058 105.639 41.4321 105.655 41.9091H104.547ZM110.602 41.9091V42.8324H106.928V41.9091H110.602ZM107.999 40.2102H109.088V46.9688C109.088 47.2765 109.133 47.5073 109.222 47.6612C109.314 47.812 109.431 47.9136 109.573 47.9659C109.718 48.0152 109.87 48.0398 110.03 48.0398C110.15 48.0398 110.249 48.0336 110.325 48.0213C110.402 48.0059 110.464 47.9936 110.51 47.9844L110.732 48.9631C110.658 48.9908 110.555 49.0185 110.422 49.0462C110.29 49.0769 110.122 49.0923 109.919 49.0923C109.611 49.0923 109.31 49.0262 109.014 48.8938C108.722 48.7615 108.479 48.5599 108.285 48.2891C108.094 48.0182 107.999 47.6766 107.999 47.2642V40.2102ZM112.241 49V41.9091H113.294V42.9801H113.368C113.497 42.6293 113.731 42.3446 114.069 42.1261C114.408 41.9076 114.79 41.7983 115.214 41.7983C115.294 41.7983 115.394 41.7998 115.514 41.8029C115.634 41.806 115.725 41.8106 115.787 41.8168V42.9247C115.75 42.9155 115.665 42.9016 115.533 42.8832C115.404 42.8616 115.267 42.8509 115.122 42.8509C114.777 42.8509 114.47 42.9232 114.199 43.0678C113.931 43.2094 113.719 43.4064 113.562 43.6587C113.408 43.908 113.331 44.1927 113.331 44.5128V49H112.241ZM117.078 49V41.9091H118.168V49H117.078ZM117.632 40.7273C117.42 40.7273 117.237 40.6549 117.083 40.5103C116.932 40.3656 116.857 40.1918 116.857 39.9886C116.857 39.7855 116.932 39.6116 117.083 39.467C117.237 39.3223 117.42 39.25 117.632 39.25C117.845 39.25 118.026 39.3223 118.177 39.467C118.331 39.6116 118.408 39.7855 118.408 39.9886C118.408 40.1918 118.331 40.3656 118.177 40.5103C118.026 40.6549 117.845 40.7273 117.632 40.7273ZM121.253 44.7344V49H120.163V41.9091H121.216V43.017H121.308C121.474 42.657 121.727 42.3677 122.065 42.1491C122.404 41.9276 122.841 41.8168 123.376 41.8168C123.856 41.8168 124.276 41.9152 124.637 42.1122C124.997 42.3061 125.277 42.6016 125.477 42.9986C125.677 43.3925 125.777 43.8911 125.777 44.4943V49H124.687V44.5682C124.687 44.0111 124.543 43.5772 124.253 43.2663C123.964 42.9524 123.567 42.7955 123.062 42.7955C122.715 42.7955 122.404 42.8709 122.13 43.0217C121.859 43.1725 121.645 43.3925 121.488 43.6818C121.331 43.9711 121.253 44.322 121.253 44.7344ZM130.63 51.8068C130.104 51.8068 129.651 51.7391 129.273 51.6037C128.894 51.4714 128.579 51.2959 128.326 51.0774C128.077 50.862 127.878 50.6312 127.731 50.3849L128.599 49.7756C128.697 49.9048 128.822 50.0526 128.973 50.2188C129.123 50.388 129.33 50.5342 129.591 50.6573C129.856 50.7835 130.202 50.8466 130.63 50.8466C131.202 50.8466 131.675 50.7081 132.047 50.4311C132.42 50.1541 132.606 49.7202 132.606 49.1293V47.6889H132.513C132.433 47.8182 132.32 47.9782 132.172 48.169C132.027 48.3568 131.818 48.5245 131.544 48.6722C131.273 48.8169 130.907 48.8892 130.445 48.8892C129.873 48.8892 129.359 48.7538 128.903 48.483C128.451 48.2121 128.092 47.8182 127.828 47.3011C127.566 46.7841 127.435 46.1562 127.435 45.4176C127.435 44.6913 127.563 44.0588 127.818 43.5202C128.074 42.9786 128.429 42.56 128.885 42.2646C129.34 41.966 129.867 41.8168 130.464 41.8168C130.925 41.8168 131.292 41.8937 131.562 42.0476C131.836 42.1984 132.046 42.3707 132.19 42.5646C132.338 42.7554 132.452 42.9124 132.532 43.0355H132.643V41.9091H133.695V49.2031C133.695 49.8125 133.557 50.308 133.28 50.6896C133.006 51.0743 132.637 51.3559 132.172 51.5344C131.71 51.716 131.196 51.8068 130.63 51.8068ZM130.593 47.9105C131.03 47.9105 131.399 47.8105 131.701 47.6104C132.003 47.4104 132.232 47.1226 132.389 46.7472C132.546 46.3717 132.624 45.9223 132.624 45.3991C132.624 44.8883 132.547 44.4374 132.393 44.0465C132.239 43.6557 132.012 43.3494 131.71 43.1278C131.409 42.9062 131.036 42.7955 130.593 42.7955C130.131 42.7955 129.747 42.9124 129.439 43.1463C129.134 43.3802 128.905 43.6941 128.751 44.0881C128.6 44.482 128.525 44.919 128.525 45.3991C128.525 45.8916 128.602 46.3271 128.756 46.7056C128.913 47.0811 129.143 47.3765 129.448 47.592C129.756 47.8043 130.137 47.9105 130.593 47.9105Z" fill="black"/>
<path d="M173.5 77H81.5C74.5964 77 69 82.5964 69 89.5V98.6328C69 105.536 74.5964 111.133 81.5 111.133H173.5C180.404 111.133 186 105.536 186 98.6328V89.5C186 82.5964 180.404 77 173.5 77Z" fill="#F1F1F1" stroke="#181818" stroke-width="0.5"/>
<path d="M80.4148 98.6016H79.3068L82.5114 89.8743H83.6023L86.8068 98.6016H85.6989L83.0909 91.255H83.0227L80.4148 98.6016ZM80.8239 95.1925H85.2898V96.13H80.8239V95.1925ZM89.0355 89.8743V98.6016H88.0298V89.8743H89.0355ZM91.8832 89.8743V98.6016H90.8775V89.8743H91.8832ZM96.4695 98.738C95.8388 98.738 95.2947 98.5988 94.8374 98.3204C94.3828 98.0391 94.032 97.6471 93.7848 97.1442C93.5405 96.6385 93.4183 96.0505 93.4183 95.38C93.4183 94.7096 93.5405 94.1186 93.7848 93.6073C94.032 93.0931 94.3757 92.6925 94.8161 92.4056C95.2592 92.1158 95.7763 91.9709 96.3672 91.9709C96.7081 91.9709 97.0447 92.0277 97.3771 92.1414C97.7095 92.255 98.0121 92.4397 98.2848 92.6954C98.5575 92.9482 98.7749 93.2834 98.9368 93.701C99.0987 94.1186 99.1797 94.6329 99.1797 95.2436V95.6698H94.1342V94.8005H98.157C98.157 94.4311 98.0831 94.1016 97.9354 93.8118C97.7905 93.5221 97.5831 93.2934 97.3132 93.1257C97.0462 92.9581 96.7308 92.8743 96.3672 92.8743C95.9666 92.8743 95.62 92.9738 95.3274 93.1726C95.0376 93.3686 94.8146 93.6243 94.6584 93.9397C94.5021 94.255 94.424 94.5931 94.424 94.9539V95.5334C94.424 96.0277 94.5092 96.4468 94.6797 96.7905C94.853 97.1314 95.093 97.3914 95.3999 97.5704C95.7067 97.7465 96.0632 97.8346 96.4695 97.8346C96.7337 97.8346 96.9723 97.7976 97.1854 97.7238C97.4013 97.6471 97.5874 97.5334 97.7436 97.3829C97.8999 97.2294 98.0206 97.0391 98.1058 96.8118L99.0774 97.0846C98.9751 97.4141 98.8033 97.7039 98.5618 97.9539C98.3203 98.201 98.022 98.3942 97.6669 98.5334C97.3118 98.6698 96.9126 98.738 96.4695 98.738ZM100.71 98.6016V92.0561H101.681V93.0448H101.749C101.869 92.7209 102.085 92.4581 102.397 92.2564C102.71 92.0547 103.062 91.9539 103.454 91.9539C103.528 91.9539 103.62 91.9553 103.731 91.9581C103.842 91.961 103.925 91.9652 103.982 91.9709V92.9936C103.948 92.9851 103.87 92.9723 103.748 92.9553C103.629 92.9354 103.502 92.9255 103.369 92.9255C103.05 92.9255 102.766 92.9922 102.516 93.1257C102.269 93.2564 102.073 93.4382 101.928 93.6712C101.786 93.9013 101.715 94.1641 101.715 94.4596V98.6016H100.71ZM110.475 98.755C110.061 98.755 109.684 98.6769 109.346 98.5206C109.008 98.3615 108.74 98.1329 108.541 97.8346C108.342 97.5334 108.243 97.1698 108.243 96.7436C108.243 96.3686 108.316 96.0647 108.464 95.8317C108.612 95.5959 108.809 95.4113 109.056 95.2777C109.304 95.1442 109.576 95.0448 109.875 94.9794C110.176 94.9113 110.478 94.8573 110.782 94.8175C111.18 94.7664 111.502 94.728 111.75 94.7025C112 94.674 112.181 94.6272 112.295 94.5618C112.412 94.4965 112.47 94.3829 112.47 94.2209V94.1868C112.47 93.7664 112.355 93.4397 112.125 93.2067C111.897 92.9738 111.552 92.8573 111.089 92.8573C110.609 92.8573 110.233 92.9624 109.96 93.1726C109.687 93.3829 109.495 93.6073 109.385 93.8459L108.43 93.505C108.6 93.1073 108.828 92.7976 109.112 92.576C109.399 92.3516 109.711 92.1954 110.049 92.1073C110.39 92.0164 110.725 91.9709 111.055 91.9709C111.265 91.9709 111.507 91.9965 111.779 92.0476C112.055 92.0959 112.321 92.1968 112.576 92.3502C112.835 92.5036 113.049 92.7351 113.22 93.0448C113.39 93.3544 113.475 93.7692 113.475 94.2891V98.6016H112.47V97.7152H112.419C112.35 97.8573 112.237 98.0093 112.078 98.1712C111.919 98.3331 111.707 98.4709 111.443 98.5846C111.179 98.6982 110.856 98.755 110.475 98.755ZM110.629 97.8516C111.027 97.8516 111.362 97.7735 111.635 97.6172C111.91 97.461 112.118 97.2593 112.257 97.0121C112.399 96.765 112.47 96.505 112.47 96.2323V95.3118C112.427 95.363 112.333 95.4098 112.189 95.4525C112.047 95.4922 111.882 95.5277 111.694 95.559C111.51 95.5874 111.329 95.613 111.153 95.6357C110.98 95.6556 110.839 95.6726 110.731 95.6868C110.47 95.7209 110.225 95.7763 109.998 95.853C109.774 95.9269 109.592 96.0391 109.453 96.1897C109.316 96.3374 109.248 96.5391 109.248 96.7948C109.248 97.1442 109.377 97.4084 109.636 97.5874C109.897 97.7635 110.228 97.8516 110.629 97.8516ZM110.697 91.1698L109.368 89.1925H110.544L111.583 91.1698H110.697ZM119.692 89.8743V98.6016H118.686V89.8743H119.692ZM122.403 89.8743V92.8743H121.466V89.8743H122.403ZM126.12 98.755C125.705 98.755 125.329 98.6769 124.991 98.5206C124.653 98.3615 124.384 98.1329 124.185 97.8346C123.987 97.5334 123.887 97.1698 123.887 96.7436C123.887 96.3686 123.961 96.0647 124.109 95.8317C124.256 95.5959 124.454 95.4113 124.701 95.2777C124.948 95.1442 125.221 95.0448 125.519 94.9794C125.82 94.9113 126.123 94.8573 126.427 94.8175C126.825 94.7664 127.147 94.728 127.394 94.7025C127.644 94.674 127.826 94.6272 127.94 94.5618C128.056 94.4965 128.114 94.3829 128.114 94.2209V94.1868C128.114 93.7664 127.999 93.4397 127.769 93.2067C127.542 92.9738 127.197 92.8573 126.734 92.8573C126.254 92.8573 125.877 92.9624 125.604 93.1726C125.332 93.3829 125.14 93.6073 125.029 93.8459L124.075 93.505C124.245 93.1073 124.472 92.7976 124.756 92.576C125.043 92.3516 125.356 92.1954 125.694 92.1073C126.035 92.0164 126.37 91.9709 126.7 91.9709C126.91 91.9709 127.151 91.9965 127.424 92.0476C127.7 92.0959 127.965 92.1968 128.221 92.3502C128.479 92.5036 128.694 92.7351 128.864 93.0448C129.035 93.3544 129.12 93.7692 129.12 94.2891V98.6016H128.114V97.7152H128.063C127.995 97.8573 127.881 98.0093 127.722 98.1712C127.563 98.3331 127.352 98.4709 127.087 98.5846C126.823 98.6982 126.501 98.755 126.12 98.755ZM126.273 97.8516C126.671 97.8516 127.006 97.7735 127.279 97.6172C127.555 97.461 127.762 97.2593 127.901 97.0121C128.043 96.765 128.114 96.505 128.114 96.2323V95.3118C128.072 95.363 127.978 95.4098 127.833 95.4525C127.691 95.4922 127.526 95.5277 127.339 95.559C127.154 95.5874 126.974 95.613 126.798 95.6357C126.624 95.6556 126.484 95.6726 126.376 95.6868C126.114 95.7209 125.87 95.7763 125.643 95.853C125.418 95.9269 125.237 96.0391 125.097 96.1897C124.961 96.3374 124.893 96.5391 124.893 96.7948C124.893 97.1442 125.022 97.4084 125.281 97.5874C125.542 97.7635 125.873 97.8516 126.273 97.8516ZM133.7 98.738C133.069 98.738 132.525 98.5988 132.068 98.3204C131.613 98.0391 131.262 97.6471 131.015 97.1442C130.771 96.6385 130.649 96.0505 130.649 95.38C130.649 94.7096 130.771 94.1186 131.015 93.6073C131.262 93.0931 131.606 92.6925 132.047 92.4056C132.49 92.1158 133.007 91.9709 133.598 91.9709C133.939 91.9709 134.275 92.0277 134.608 92.1414C134.94 92.255 135.243 92.4397 135.515 92.6954C135.788 92.9482 136.005 93.2834 136.167 93.701C136.329 94.1186 136.41 94.6329 136.41 95.2436V95.6698H131.365V94.8005H135.387C135.387 94.4311 135.314 94.1016 135.166 93.8118C135.021 93.5221 134.814 93.2934 134.544 93.1257C134.277 92.9581 133.961 92.8743 133.598 92.8743C133.197 92.8743 132.85 92.9738 132.558 93.1726C132.268 93.3686 132.045 93.6243 131.889 93.9397C131.733 94.255 131.654 94.5931 131.654 94.9539V95.5334C131.654 96.0277 131.74 96.4468 131.91 96.7905C132.083 97.1314 132.324 97.3914 132.63 97.5704C132.937 97.7465 133.294 97.8346 133.7 97.8346C133.964 97.8346 134.203 97.7976 134.416 97.7238C134.632 97.6471 134.818 97.5334 134.974 97.3829C135.13 97.2294 135.251 97.0391 135.336 96.8118L136.308 97.0846C136.206 97.4141 136.034 97.7039 135.792 97.9539C135.551 98.201 135.252 98.3942 134.897 98.5334C134.542 98.6698 134.143 98.738 133.7 98.738ZM133.086 91.1698L134.126 89.1925H135.302L133.973 91.1698H133.086ZM137.94 98.6016V92.0561H138.912V93.0448H138.98C139.099 92.7209 139.315 92.4581 139.627 92.2564C139.94 92.0547 140.292 91.9539 140.684 91.9539C140.758 91.9539 140.85 91.9553 140.961 91.9581C141.072 91.961 141.156 91.9652 141.213 91.9709V92.9936C141.179 92.9851 141.1 92.9723 140.978 92.9553C140.859 92.9354 140.733 92.9255 140.599 92.9255C140.281 92.9255 139.997 92.9922 139.747 93.1257C139.5 93.2564 139.304 93.4382 139.159 93.6712C139.017 93.9013 138.946 94.1641 138.946 94.4596V98.6016H137.94ZM144.865 98.738C144.274 98.738 143.755 98.5973 143.309 98.3161C142.866 98.0348 142.52 97.6414 142.27 97.1357C142.022 96.63 141.899 96.0391 141.899 95.363C141.899 94.6811 142.022 94.086 142.27 93.5775C142.52 93.0689 142.866 92.674 143.309 92.3928C143.755 92.1115 144.274 91.9709 144.865 91.9709C145.456 91.9709 145.973 92.1115 146.416 92.3928C146.862 92.674 147.208 93.0689 147.456 93.5775C147.706 94.086 147.831 94.6811 147.831 95.363C147.831 96.0391 147.706 96.63 147.456 97.1357C147.208 97.6414 146.862 98.0348 146.416 98.3161C145.973 98.5973 145.456 98.738 144.865 98.738ZM144.865 97.8346C145.314 97.8346 145.683 97.7195 145.973 97.4894C146.262 97.2593 146.477 96.9567 146.616 96.5817C146.755 96.2067 146.825 95.8005 146.825 95.363C146.825 94.9255 146.755 94.5178 146.616 94.14C146.477 93.7621 146.262 93.4567 145.973 93.2238C145.683 92.9908 145.314 92.8743 144.865 92.8743C144.416 92.8743 144.047 92.9908 143.757 93.2238C143.467 93.4567 143.252 93.7621 143.113 94.14C142.974 94.5178 142.904 94.9255 142.904 95.363C142.904 95.8005 142.974 96.2067 143.113 96.5817C143.252 96.9567 143.467 97.2593 143.757 97.4894C144.047 97.7195 144.416 97.8346 144.865 97.8346ZM149.366 101.056V92.0561H150.337V93.0959H150.457C150.531 92.9823 150.633 92.8374 150.763 92.6613C150.897 92.4823 151.087 92.3232 151.335 92.184C151.585 92.0419 151.923 91.9709 152.349 91.9709C152.9 91.9709 153.386 92.1087 153.806 92.3843C154.227 92.6598 154.555 93.0505 154.79 93.5561C155.026 94.0618 155.144 94.6584 155.144 95.3459C155.144 96.0391 155.026 96.64 154.79 97.1485C154.555 97.6542 154.228 98.0462 153.81 98.3246C153.393 98.6002 152.911 98.738 152.366 98.738C151.945 98.738 151.609 98.6684 151.356 98.5292C151.103 98.3871 150.908 98.2266 150.772 98.0476C150.636 97.8658 150.531 97.7152 150.457 97.5959H150.371V101.056H149.366ZM150.354 95.3289C150.354 95.8232 150.427 96.2593 150.572 96.6371C150.717 97.0121 150.928 97.3061 151.207 97.5192C151.485 97.7294 151.826 97.8346 152.229 97.8346C152.65 97.8346 153.001 97.7238 153.282 97.5022C153.566 97.2777 153.779 96.9766 153.921 96.5988C154.066 96.2181 154.138 95.7948 154.138 95.3289C154.138 94.8686 154.067 94.4539 153.925 94.0846C153.786 93.7124 153.575 93.4184 153.29 93.2025C153.009 92.9837 152.656 92.8743 152.229 92.8743C151.82 92.8743 151.477 92.978 151.198 93.1854C150.92 93.39 150.71 93.6769 150.567 94.0462C150.425 94.4127 150.354 94.8402 150.354 95.3289ZM159.337 98.738C158.746 98.738 158.228 98.5973 157.782 98.3161C157.339 98.0348 156.992 97.6414 156.742 97.1357C156.495 96.63 156.371 96.0391 156.371 95.363C156.371 94.6811 156.495 94.086 156.742 93.5775C156.992 93.0689 157.339 92.674 157.782 92.3928C158.228 92.1115 158.746 91.9709 159.337 91.9709C159.928 91.9709 160.445 92.1115 160.888 92.3928C161.335 92.674 161.681 93.0689 161.928 93.5775C162.178 94.086 162.303 94.6811 162.303 95.363C162.303 96.0391 162.178 96.63 161.928 97.1357C161.681 97.6414 161.335 98.0348 160.888 98.3161C160.445 98.5973 159.928 98.738 159.337 98.738ZM159.337 97.8346C159.786 97.8346 160.156 97.7195 160.445 97.4894C160.735 97.2593 160.95 96.9567 161.089 96.5817C161.228 96.2067 161.298 95.8005 161.298 95.363C161.298 94.9255 161.228 94.5178 161.089 94.14C160.95 93.7621 160.735 93.4567 160.445 93.2238C160.156 92.9908 159.786 92.8743 159.337 92.8743C158.888 92.8743 158.519 92.9908 158.229 93.2238C157.94 93.4567 157.725 93.7621 157.586 94.14C157.447 94.5178 157.377 94.9255 157.377 95.363C157.377 95.8005 157.447 96.2067 157.586 96.5817C157.725 96.9567 157.94 97.2593 158.229 97.4894C158.519 97.7195 158.888 97.8346 159.337 97.8346ZM163.838 98.6016V92.0561H164.81V93.0448H164.878C164.998 92.7209 165.213 92.4581 165.526 92.2564C165.838 92.0547 166.191 91.9539 166.583 91.9539C166.657 91.9539 166.749 91.9553 166.86 91.9581C166.971 91.961 167.054 91.9652 167.111 91.9709V92.9936C167.077 92.9851 166.999 92.9723 166.877 92.9553C166.757 92.9354 166.631 92.9255 166.498 92.9255C166.179 92.9255 165.895 92.9922 165.645 93.1257C165.398 93.2564 165.202 93.4382 165.057 93.6712C164.915 93.9013 164.844 94.1641 164.844 94.4596V98.6016H163.838ZM171.56 92.0561V92.9084H168.168V92.0561H171.56ZM169.157 90.488H170.162V96.7266C170.162 97.0107 170.203 97.2238 170.286 97.3658C170.371 97.505 170.479 97.5988 170.61 97.6471C170.743 97.6925 170.884 97.7152 171.032 97.7152C171.142 97.7152 171.233 97.7096 171.304 97.6982C171.375 97.684 171.432 97.6726 171.475 97.6641L171.679 98.5675C171.611 98.5931 171.516 98.6186 171.394 98.6442C171.272 98.6726 171.117 98.6868 170.929 98.6868C170.645 98.6868 170.367 98.6257 170.094 98.5036C169.824 98.3814 169.6 98.1954 169.421 97.9454C169.245 97.6954 169.157 97.38 169.157 96.9993V90.488Z" fill="black"/>
<path d="M168 131.133H87C80.0964 131.133 74.5 136.729 74.5 143.633V152.766C74.5 159.669 80.0964 165.266 87 165.266H168C174.904 165.266 180.5 159.669 180.5 152.766V143.633C180.5 136.729 174.904 131.133 168 131.133Z" fill="#F1F1F1" stroke="#181818" stroke-width="0.5"/>
<path d="M85.5568 152.734V144.007H88.5057C89.1903 144.007 89.75 144.131 90.1847 144.378C90.6222 144.622 90.946 144.953 91.1562 145.371C91.3665 145.788 91.4716 146.254 91.4716 146.768C91.4716 147.283 91.3665 147.75 91.1562 148.17C90.9489 148.591 90.6278 148.926 90.1932 149.176C89.7585 149.423 89.2017 149.547 88.5227 149.547H86.4091V148.609H88.4886C88.9574 148.609 89.3338 148.528 89.6179 148.366C89.902 148.205 90.108 147.986 90.2358 147.71C90.3665 147.432 90.4318 147.118 90.4318 146.768C90.4318 146.419 90.3665 146.107 90.2358 145.831C90.108 145.555 89.9006 145.34 89.6136 145.183C89.3267 145.024 88.946 144.945 88.4716 144.945H86.6136V152.734H85.5568ZM93.0376 152.734V146.189H94.0092V147.178H94.0774C94.1967 146.854 94.4126 146.591 94.7251 146.389C95.0376 146.188 95.3899 146.087 95.782 146.087C95.8558 146.087 95.9482 146.088 96.0589 146.091C96.1697 146.094 96.2536 146.098 96.3104 146.104V147.126C96.2763 147.118 96.1982 147.105 96.076 147.088C95.9567 147.068 95.8303 147.058 95.6967 147.058C95.3786 147.058 95.0945 147.125 94.8445 147.259C94.5973 147.389 94.4013 147.571 94.2564 147.804C94.1143 148.034 94.0433 148.297 94.0433 148.592V152.734H93.0376ZM100.048 152.871C99.4169 152.871 98.8729 152.732 98.4155 152.453C97.9609 152.172 97.6101 151.78 97.3629 151.277C97.1186 150.771 96.9964 150.183 96.9964 149.513C96.9964 148.842 97.1186 148.251 97.3629 147.74C97.6101 147.226 97.9538 146.825 98.3942 146.538C98.8374 146.249 99.3544 146.104 99.9453 146.104C100.286 146.104 100.623 146.161 100.955 146.274C101.288 146.388 101.59 146.572 101.863 146.828C102.136 147.081 102.353 147.416 102.515 147.834C102.677 148.251 102.758 148.766 102.758 149.376V149.803H97.7124V148.933H101.735C101.735 148.564 101.661 148.234 101.513 147.945C101.369 147.655 101.161 147.426 100.891 147.259C100.624 147.091 100.309 147.007 99.9453 147.007C99.5447 147.007 99.1982 147.107 98.9055 147.305C98.6158 147.501 98.3928 147.757 98.2365 148.072C98.0803 148.388 98.0021 148.726 98.0021 149.087V149.666C98.0021 150.161 98.0874 150.58 98.2578 150.923C98.4311 151.264 98.6712 151.524 98.978 151.703C99.2848 151.879 99.6413 151.967 100.048 151.967C100.312 151.967 100.55 151.93 100.763 151.857C100.979 151.78 101.165 151.666 101.322 151.516C101.478 151.362 101.599 151.172 101.684 150.945L102.656 151.217C102.553 151.547 102.381 151.837 102.14 152.087C101.898 152.334 101.6 152.527 101.245 152.666C100.89 152.803 100.491 152.871 100.048 152.871ZM105.293 148.797V152.734H104.288V146.189H105.259V147.212H105.344C105.498 146.879 105.731 146.612 106.043 146.411C106.356 146.206 106.759 146.104 107.254 146.104C107.697 146.104 108.085 146.195 108.417 146.376C108.749 146.555 109.008 146.828 109.192 147.195C109.377 147.558 109.469 148.018 109.469 148.575V152.734H108.464V148.643C108.464 148.129 108.33 147.729 108.063 147.442C107.796 147.152 107.43 147.007 106.964 147.007C106.643 147.007 106.356 147.077 106.103 147.216C105.853 147.355 105.656 147.558 105.511 147.825C105.366 148.092 105.293 148.416 105.293 148.797ZM113.779 152.871C113.233 152.871 112.752 152.733 112.334 152.457C111.917 152.179 111.59 151.787 111.354 151.281C111.118 150.773 111 150.172 111 149.479C111 148.791 111.118 148.195 111.354 147.689C111.59 147.183 111.918 146.793 112.338 146.517C112.759 146.242 113.245 146.104 113.796 146.104C114.222 146.104 114.559 146.175 114.806 146.317C115.056 146.456 115.246 146.615 115.377 146.794C115.51 146.97 115.614 147.115 115.688 147.229H115.773V144.007H116.779V152.734H115.807V151.729H115.688C115.614 151.848 115.509 151.999 115.373 152.18C115.236 152.359 115.042 152.52 114.789 152.662C114.536 152.801 114.199 152.871 113.779 152.871ZM113.915 151.967C114.319 151.967 114.659 151.862 114.938 151.652C115.216 151.439 115.428 151.145 115.573 150.77C115.718 150.392 115.79 149.956 115.79 149.462C115.79 148.973 115.719 148.545 115.577 148.179C115.435 147.81 115.225 147.523 114.946 147.318C114.668 147.111 114.324 147.007 113.915 147.007C113.489 147.007 113.134 147.116 112.85 147.335C112.569 147.551 112.357 147.845 112.215 148.217C112.076 148.587 112.006 149.001 112.006 149.462C112.006 149.928 112.077 150.351 112.219 150.732C112.364 151.109 112.577 151.411 112.858 151.635C113.142 151.857 113.495 151.967 113.915 151.967ZM118.76 152.734V146.189H119.732V147.178H119.8C119.919 146.854 120.135 146.591 120.448 146.389C120.76 146.188 121.113 146.087 121.505 146.087C121.578 146.087 121.671 146.088 121.782 146.091C121.892 146.094 121.976 146.098 122.033 146.104V147.126C121.999 147.118 121.921 147.105 121.799 147.088C121.679 147.068 121.553 147.058 121.419 147.058C121.101 147.058 120.817 147.125 120.567 147.259C120.32 147.389 120.124 147.571 119.979 147.804C119.837 148.034 119.766 148.297 119.766 148.592V152.734H118.76ZM125.77 152.871C125.14 152.871 124.596 152.732 124.138 152.453C123.684 152.172 123.333 151.78 123.086 151.277C122.841 150.771 122.719 150.183 122.719 149.513C122.719 148.842 122.841 148.251 123.086 147.74C123.333 147.226 123.676 146.825 124.117 146.538C124.56 146.249 125.077 146.104 125.668 146.104C126.009 146.104 126.346 146.161 126.678 146.274C127.01 146.388 127.313 146.572 127.586 146.828C127.858 147.081 128.076 147.416 128.238 147.834C128.4 148.251 128.48 148.766 128.48 149.376V149.803H123.435V148.933H127.458C127.458 148.564 127.384 148.234 127.236 147.945C127.091 147.655 126.884 147.426 126.614 147.259C126.347 147.091 126.032 147.007 125.668 147.007C125.267 147.007 124.921 147.107 124.628 147.305C124.338 147.501 124.115 147.757 123.959 148.072C123.803 148.388 123.725 148.726 123.725 149.087V149.666C123.725 150.161 123.81 150.58 123.98 150.923C124.154 151.264 124.394 151.524 124.701 151.703C125.007 151.879 125.364 151.967 125.77 151.967C126.034 151.967 126.273 151.93 126.486 151.857C126.702 151.78 126.888 151.666 127.044 151.516C127.201 151.362 127.321 151.172 127.407 150.945L128.378 151.217C128.276 151.547 128.104 151.837 127.863 152.087C127.621 152.334 127.323 152.527 126.968 152.666C126.613 152.803 126.213 152.871 125.77 152.871ZM134.391 144.007V152.734H133.385V144.007H134.391ZM137.102 144.007V147.007H136.165V144.007H137.102ZM140.819 152.888C140.404 152.888 140.028 152.81 139.69 152.653C139.352 152.494 139.083 152.266 138.885 151.967C138.686 151.666 138.586 151.303 138.586 150.876C138.586 150.501 138.66 150.197 138.808 149.965C138.956 149.729 139.153 149.544 139.4 149.411C139.647 149.277 139.92 149.178 140.218 149.112C140.52 149.044 140.822 148.99 141.126 148.95C141.524 148.899 141.846 148.861 142.093 148.835C142.343 148.807 142.525 148.76 142.639 148.695C142.755 148.629 142.814 148.516 142.814 148.354V148.32C142.814 147.899 142.699 147.572 142.468 147.34C142.241 147.107 141.896 146.99 141.433 146.99C140.953 146.99 140.576 147.095 140.304 147.305C140.031 147.516 139.839 147.74 139.728 147.979L138.774 147.638C138.944 147.24 139.172 146.93 139.456 146.709C139.743 146.484 140.055 146.328 140.393 146.24C140.734 146.149 141.069 146.104 141.399 146.104C141.609 146.104 141.85 146.129 142.123 146.18C142.399 146.229 142.664 146.33 142.92 146.483C143.179 146.636 143.393 146.868 143.564 147.178C143.734 147.487 143.819 147.902 143.819 148.422V152.734H142.814V151.848H142.762C142.694 151.99 142.581 152.142 142.422 152.304C142.262 152.466 142.051 152.604 141.787 152.717C141.522 152.831 141.2 152.888 140.819 152.888ZM140.973 151.984C141.37 151.984 141.706 151.906 141.978 151.75C142.254 151.594 142.461 151.392 142.6 151.145C142.743 150.898 142.814 150.638 142.814 150.365V149.445C142.771 149.496 142.677 149.543 142.532 149.585C142.39 149.625 142.225 149.661 142.038 149.692C141.853 149.72 141.673 149.746 141.497 149.768C141.324 149.788 141.183 149.805 141.075 149.82C140.814 149.854 140.569 149.909 140.342 149.986C140.118 150.06 139.936 150.172 139.797 150.322C139.66 150.47 139.592 150.672 139.592 150.928C139.592 151.277 139.721 151.541 139.98 151.72C140.241 151.896 140.572 151.984 140.973 151.984ZM150.773 146.189L148.352 152.734H147.33L144.909 146.189H146L147.807 151.405H147.875L149.682 146.189H150.773ZM152.1 152.734V146.189H153.106V152.734H152.1ZM152.612 145.098C152.415 145.098 152.246 145.031 152.104 144.898C151.965 144.764 151.896 144.604 151.896 144.416C151.896 144.229 151.965 144.068 152.104 143.935C152.246 143.801 152.415 143.734 152.612 143.734C152.808 143.734 152.975 143.801 153.114 143.935C153.256 144.068 153.327 144.229 153.327 144.416C153.327 144.604 153.256 144.764 153.114 144.898C152.975 145.031 152.808 145.098 152.612 145.098ZM157.607 152.871C157.016 152.871 156.498 152.73 156.051 152.449C155.608 152.168 155.262 151.774 155.012 151.268C154.765 150.763 154.641 150.172 154.641 149.496C154.641 148.814 154.765 148.219 155.012 147.71C155.262 147.202 155.608 146.807 156.051 146.526C156.498 146.244 157.016 146.104 157.607 146.104C158.198 146.104 158.715 146.244 159.158 146.526C159.604 146.807 159.951 147.202 160.198 147.71C160.448 148.219 160.573 148.814 160.573 149.496C160.573 150.172 160.448 150.763 160.198 151.268C159.951 151.774 159.604 152.168 159.158 152.449C158.715 152.73 158.198 152.871 157.607 152.871ZM157.607 151.967C158.056 151.967 158.425 151.852 158.715 151.622C159.005 151.392 159.219 151.09 159.358 150.715C159.498 150.34 159.567 149.933 159.567 149.496C159.567 149.058 159.498 148.651 159.358 148.273C159.219 147.895 159.005 147.59 158.715 147.357C158.425 147.124 158.056 147.007 157.607 147.007C157.158 147.007 156.789 147.124 156.499 147.357C156.209 147.59 155.995 147.895 155.855 148.273C155.716 148.651 155.647 149.058 155.647 149.496C155.647 149.933 155.716 150.34 155.855 150.715C155.995 151.09 156.209 151.392 156.499 151.622C156.789 151.852 157.158 151.967 157.607 151.967ZM163.114 148.797V152.734H162.108V146.189H163.08V147.212H163.165C163.318 146.879 163.551 146.612 163.864 146.411C164.176 146.206 164.58 146.104 165.074 146.104C165.517 146.104 165.905 146.195 166.237 146.376C166.57 146.555 166.828 146.828 167.013 147.195C167.197 147.558 167.29 148.018 167.29 148.575V152.734H166.284V148.643C166.284 148.129 166.151 147.729 165.884 147.442C165.616 147.152 165.25 147.007 164.784 147.007C164.463 147.007 164.176 147.077 163.923 147.216C163.673 147.355 163.476 147.558 163.331 147.825C163.186 148.092 163.114 148.416 163.114 148.797Z" fill="black"/>
<path d="M127.5 111.133V131.133" stroke="#181818"/>
<path d="M123.5 121.133L127.5 131.133L131.5 121.133L127.5 125.133L123.5 121.133Z" fill="#181818" stroke="#181818"/>
</svg>
