<svg width="335" height="381" viewBox="0 0 335 381" fill="none" xmlns="http://www.w3.org/2000/svg">
<rect x="0.5" y="0.5" width="334" height="380" rx="24.5" stroke="black"/>
<path d="M33.9506 30.2646C33.9137 29.8922 33.7552 29.6029 33.4751 29.3967C33.1951 29.1905 32.815 29.0874 32.3349 29.0874C32.0086 29.0874 31.7332 29.1335 31.5085 29.2259C31.2839 29.3151 31.1115 29.4397 30.9915 29.5998C30.8745 29.7598 30.8161 29.9414 30.8161 30.1445C30.8099 30.3138 30.8453 30.4615 30.9222 30.5877C31.0022 30.7139 31.1115 30.8232 31.25 30.9155C31.3885 31.0047 31.5485 31.0832 31.7301 31.1509C31.9117 31.2156 32.1056 31.271 32.3118 31.3171L33.1612 31.5202C33.5736 31.6126 33.9522 31.7357 34.2969 31.8896C34.6416 32.0434 34.9401 32.2327 35.1925 32.4574C35.4448 32.6821 35.6403 32.9467 35.7788 33.2514C35.9203 33.5561 35.9927 33.9054 35.9957 34.2994C35.9927 34.878 35.8449 35.3796 35.5526 35.8043C35.2633 36.226 34.8447 36.5537 34.2969 36.7876C33.7521 37.0185 33.0951 37.1339 32.3256 37.1339C31.5624 37.1339 30.8976 37.0169 30.3313 36.783C29.7681 36.5491 29.328 36.2029 29.011 35.7443C28.6971 35.2827 28.5324 34.7118 28.517 34.0316H30.4513C30.4729 34.3486 30.5637 34.6133 30.7237 34.8256C30.8868 35.0349 31.1038 35.1934 31.3746 35.3011C31.6486 35.4058 31.9579 35.4581 32.3026 35.4581C32.6411 35.4581 32.935 35.4089 33.1843 35.3104C33.4367 35.2119 33.6321 35.0749 33.7706 34.8995C33.9091 34.7241 33.9783 34.5225 33.9783 34.2947C33.9783 34.0824 33.9152 33.9039 33.7891 33.7592C33.666 33.6146 33.4844 33.4915 33.2443 33.3899C33.0073 33.2884 32.7165 33.196 32.3718 33.1129L31.3423 32.8544C30.5452 32.6605 29.9158 32.3574 29.4542 31.945C28.9925 31.5326 28.7633 30.977 28.7663 30.2784C28.7633 29.706 28.9156 29.2058 29.2234 28.7781C29.5342 28.3503 29.9605 28.0163 30.5021 27.7763C31.0438 27.5362 31.6593 27.4162 32.3487 27.4162C33.0504 27.4162 33.6629 27.5362 34.1861 27.7763C34.7124 28.0163 35.1217 28.3503 35.4141 28.7781C35.7064 29.2058 35.8572 29.7013 35.8665 30.2646H33.9506ZM41.8506 33.9808V29.9091H43.8172V37H41.9291V35.712H41.8552C41.6952 36.1275 41.4289 36.4614 41.0566 36.7138C40.6872 36.9661 40.2364 37.0923 39.7039 37.0923C39.23 37.0923 38.8129 36.9846 38.4529 36.7692C38.0928 36.5537 37.8112 36.2475 37.608 35.8505C37.408 35.4535 37.3064 34.978 37.3034 34.424V29.9091H39.27V34.0732C39.2731 34.4917 39.3854 34.8226 39.607 35.0657C39.8286 35.3088 40.1256 35.4304 40.498 35.4304C40.7349 35.4304 40.9565 35.3765 41.1627 35.2688C41.3689 35.158 41.5351 34.9949 41.6613 34.7795C41.7906 34.564 41.8537 34.2978 41.8506 33.9808ZM45.3903 37V29.9091H47.3569V37H45.3903ZM46.3782 28.995C46.0858 28.995 45.835 28.8981 45.6257 28.7042C45.4195 28.5072 45.3164 28.2718 45.3164 27.9979C45.3164 27.727 45.4195 27.4947 45.6257 27.3008C45.835 27.1038 46.0858 27.0053 46.3782 27.0053C46.6706 27.0053 46.9199 27.1038 47.1261 27.3008C47.3353 27.4947 47.44 27.727 47.44 27.9979C47.44 28.2718 47.3353 28.5072 47.1261 28.7042C46.9199 28.8981 46.6706 28.995 46.3782 28.995ZM55.5431 29.9091L53.064 37H50.8481L48.3691 29.9091H50.4465L51.9191 34.9826H51.993L53.461 29.9091H55.5431ZM56.5494 37V29.9091H58.4561V31.1463H58.5299C58.6592 30.7062 58.8762 30.3738 59.1808 30.1491C59.4855 29.9214 59.8364 29.8075 60.2334 29.8075C60.3319 29.8075 60.4381 29.8137 60.5519 29.826C60.6658 29.8383 60.7658 29.8552 60.852 29.8768V31.6218C60.7597 31.5941 60.632 31.5695 60.4688 31.5479C60.3057 31.5264 60.1565 31.5156 60.021 31.5156C59.7317 31.5156 59.4732 31.5787 59.2455 31.7049C59.0208 31.828 58.8423 32.0004 58.71 32.2219C58.5807 32.4435 58.5161 32.699 58.5161 32.9883V37H56.5494ZM64.7702 37.1385C64.0408 37.1385 63.413 36.9908 62.8867 36.6953C62.3635 36.3968 61.9603 35.9751 61.6772 35.4304C61.3941 34.8826 61.2525 34.2347 61.2525 33.4869C61.2525 32.7575 61.3941 32.1173 61.6772 31.5664C61.9603 31.0155 62.3589 30.5862 62.8729 30.2784C63.3899 29.9706 63.9962 29.8168 64.6918 29.8168C65.1596 29.8168 65.5951 29.8922 65.9982 30.043C66.4045 30.1907 66.7584 30.4138 67.06 30.7124C67.3647 31.0109 67.6017 31.3864 67.771 31.8388C67.9402 32.2881 68.0249 32.8144 68.0249 33.4176V33.9577H62.0373V32.739H66.1737C66.1737 32.4558 66.1121 32.205 65.989 31.9865C65.8659 31.768 65.6951 31.5972 65.4766 31.4741C65.2611 31.3479 65.0103 31.2848 64.7241 31.2848C64.4255 31.2848 64.1609 31.354 63.93 31.4925C63.7023 31.628 63.5238 31.8111 63.3945 32.0419C63.2653 32.2696 63.1991 32.5236 63.196 32.8036V33.9624C63.196 34.3132 63.2607 34.6164 63.3899 34.8718C63.5223 35.1272 63.7085 35.3242 63.9485 35.4627C64.1886 35.6012 64.4732 35.6705 64.8026 35.6705C65.0211 35.6705 65.2211 35.6397 65.4027 35.5781C65.5843 35.5166 65.7397 35.4242 65.869 35.3011C65.9982 35.178 66.0967 35.0272 66.1644 34.8487L67.9833 34.9688C67.891 35.4058 67.7017 35.7874 67.4155 36.1136C67.1323 36.4368 66.7661 36.6892 66.3168 36.8707C65.8705 37.0492 65.355 37.1385 64.7702 37.1385ZM76.8643 33.9808V29.9091H78.8309V37H76.9427V35.712H76.8689C76.7088 36.1275 76.4426 36.4614 76.0702 36.7138C75.7009 36.9661 75.25 37.0923 74.7176 37.0923C74.2436 37.0923 73.8266 36.9846 73.4665 36.7692C73.1064 36.5537 72.8248 36.2475 72.6217 35.8505C72.4217 35.4535 72.3201 34.978 72.317 34.424V29.9091H74.2836V34.0732C74.2867 34.4917 74.3991 34.8226 74.6206 35.0657C74.8422 35.3088 75.1392 35.4304 75.5116 35.4304C75.7486 35.4304 75.9702 35.3765 76.1764 35.2688C76.3826 35.158 76.5488 34.9949 76.675 34.7795C76.8042 34.564 76.8673 34.2978 76.8643 33.9808ZM82.3706 32.9006V37H80.4039V29.9091H82.2782V31.1602H82.3613C82.5183 30.7478 82.7814 30.4215 83.1507 30.1815C83.5201 29.9383 83.9679 29.8168 84.4941 29.8168C84.9866 29.8168 85.4159 29.9245 85.7821 30.1399C86.1484 30.3554 86.4331 30.6631 86.6362 31.0632C86.8393 31.4602 86.9409 31.9342 86.9409 32.4851V37H84.9743V32.8359C84.9773 32.402 84.8665 32.0634 84.6419 31.8203C84.4172 31.5741 84.1079 31.451 83.714 31.451C83.4493 31.451 83.2154 31.5079 83.0123 31.6218C82.8122 31.7357 82.6552 31.9019 82.5414 32.1204C82.4306 32.3358 82.3736 32.5959 82.3706 32.9006ZM94.7035 37.1385C93.9772 37.1385 93.3524 36.9846 92.8292 36.6768C92.3091 36.366 91.909 35.9351 91.6289 35.3842C91.3519 34.8333 91.2134 34.1993 91.2134 33.4822C91.2134 32.7559 91.3535 32.1188 91.6335 31.571C91.9167 31.0201 92.3183 30.5908 92.8384 30.283C93.3585 29.9722 93.9772 29.8168 94.6942 29.8168C95.3129 29.8168 95.8545 29.9291 96.3192 30.1538C96.784 30.3784 97.1518 30.6939 97.4226 31.1001C97.6934 31.5064 97.8427 31.9834 97.8704 32.5312H96.0146C95.9622 32.1773 95.8237 31.8926 95.5991 31.6772C95.3775 31.4587 95.0866 31.3494 94.7266 31.3494C94.4219 31.3494 94.1557 31.4325 93.9279 31.5987C93.7032 31.7618 93.5278 32.0004 93.4016 32.3143C93.2754 32.6282 93.2124 33.0083 93.2124 33.4545C93.2124 33.907 93.2739 34.2917 93.397 34.6087C93.5232 34.9257 93.7002 35.1673 93.9279 35.3335C94.1557 35.4996 94.4219 35.5827 94.7266 35.5827C94.9512 35.5827 95.1528 35.5366 95.3313 35.4442C95.5129 35.3519 95.6622 35.218 95.7791 35.0426C95.8991 34.8641 95.9776 34.6502 96.0146 34.4009H97.8704C97.8396 34.9426 97.6919 35.4196 97.4272 35.832C97.1656 36.2414 96.804 36.5614 96.3423 36.7923C95.8807 37.0231 95.3344 37.1385 94.7035 37.1385ZM102.333 37.1385C101.616 37.1385 100.996 36.9862 100.473 36.6815C99.9528 36.3737 99.5512 35.9459 99.268 35.3981C98.9849 34.8472 98.8433 34.2086 98.8433 33.4822C98.8433 32.7498 98.9849 32.1096 99.268 31.5618C99.5512 31.0109 99.9528 30.5831 100.473 30.2784C100.996 29.9706 101.616 29.8168 102.333 29.8168C103.05 29.8168 103.669 29.9706 104.189 30.2784C104.712 30.5831 105.116 31.0109 105.399 31.5618C105.682 32.1096 105.823 32.7498 105.823 33.4822C105.823 34.2086 105.682 34.8472 105.399 35.3981C105.116 35.9459 104.712 36.3737 104.189 36.6815C103.669 36.9862 103.05 37.1385 102.333 37.1385ZM102.343 35.6151C102.669 35.6151 102.941 35.5227 103.16 35.3381C103.378 35.1503 103.543 34.8949 103.654 34.5717C103.768 34.2486 103.824 33.8808 103.824 33.4684C103.824 33.056 103.768 32.6882 103.654 32.3651C103.543 32.0419 103.378 31.7865 103.16 31.5987C102.941 31.411 102.669 31.3171 102.343 31.3171C102.013 31.3171 101.736 31.411 101.512 31.5987C101.29 31.7865 101.122 32.0419 101.008 32.3651C100.898 32.6882 100.842 33.056 100.842 33.4684C100.842 33.8808 100.898 34.2486 101.008 34.5717C101.122 34.8949 101.29 35.1503 101.512 35.3381C101.736 35.5227 102.013 35.6151 102.343 35.6151ZM111.649 33.9808V29.9091H113.616V37H111.728V35.712H111.654C111.494 36.1275 111.228 36.4614 110.855 36.7138C110.486 36.9661 110.035 37.0923 109.503 37.0923C109.029 37.0923 108.612 36.9846 108.252 36.7692C107.892 36.5537 107.61 36.2475 107.407 35.8505C107.207 35.4535 107.105 34.978 107.102 34.424V29.9091H109.069V34.0732C109.072 34.4917 109.184 34.8226 109.406 35.0657C109.627 35.3088 109.924 35.4304 110.297 35.4304C110.534 35.4304 110.755 35.3765 110.962 35.2688C111.168 35.158 111.334 34.9949 111.46 34.7795C111.589 34.564 111.652 34.2978 111.649 33.9808ZM115.189 37V29.9091H117.096V31.1463H117.17C117.299 30.7062 117.516 30.3738 117.82 30.1491C118.125 29.9214 118.476 29.8075 118.873 29.8075C118.972 29.8075 119.078 29.8137 119.192 29.826C119.305 29.8383 119.405 29.8552 119.492 29.8768V31.6218C119.399 31.5941 119.272 31.5695 119.108 31.5479C118.945 31.5264 118.796 31.5156 118.661 31.5156C118.371 31.5156 118.113 31.5787 117.885 31.7049C117.66 31.828 117.482 32.0004 117.35 32.2219C117.22 32.4435 117.156 32.699 117.156 32.9883V37H115.189ZM126.408 31.9311L124.608 32.0419C124.577 31.888 124.511 31.7495 124.409 31.6264C124.308 31.5002 124.174 31.4002 124.008 31.3263C123.845 31.2494 123.649 31.2109 123.421 31.2109C123.117 31.2109 122.86 31.2756 122.65 31.4048C122.441 31.531 122.337 31.7003 122.337 31.9126C122.337 32.0819 122.404 32.225 122.54 32.342C122.675 32.4589 122.907 32.5528 123.237 32.6236L124.52 32.8821C125.21 33.0237 125.724 33.2514 126.062 33.5653C126.401 33.8793 126.57 34.2917 126.57 34.8026C126.57 35.2673 126.433 35.6751 126.159 36.0259C125.888 36.3768 125.516 36.6507 125.042 36.8477C124.571 37.0415 124.028 37.1385 123.412 37.1385C122.474 37.1385 121.726 36.9431 121.169 36.5522C120.615 36.1583 120.29 35.6228 120.195 34.9457L122.129 34.8441C122.187 35.1303 122.329 35.3488 122.554 35.4996C122.778 35.6474 123.066 35.7212 123.417 35.7212C123.762 35.7212 124.039 35.6551 124.248 35.5227C124.46 35.3873 124.568 35.2134 124.571 35.0011C124.568 34.8226 124.492 34.6764 124.345 34.5625C124.197 34.4455 123.969 34.3563 123.661 34.2947L122.434 34.0501C121.741 33.9116 121.226 33.6715 120.887 33.3299C120.552 32.9883 120.384 32.5528 120.384 32.0234C120.384 31.5679 120.507 31.1755 120.753 30.8462C121.002 30.5169 121.352 30.263 121.801 30.0845C122.253 29.906 122.783 29.8168 123.389 29.8168C124.285 29.8168 124.989 30.006 125.503 30.3846C126.021 30.7631 126.322 31.2786 126.408 31.9311ZM134.049 37.1385C133.319 37.1385 132.691 36.9908 132.165 36.6953C131.642 36.3968 131.239 35.9751 130.956 35.4304C130.672 34.8826 130.531 34.2347 130.531 33.4869C130.531 32.7575 130.672 32.1173 130.956 31.5664C131.239 31.0155 131.637 30.5862 132.151 30.2784C132.668 29.9706 133.275 29.8168 133.97 29.8168C134.438 29.8168 134.873 29.8922 135.277 30.043C135.683 30.1907 136.037 30.4138 136.338 30.7124C136.643 31.0109 136.88 31.3864 137.049 31.8388C137.219 32.2881 137.303 32.8144 137.303 33.4176V33.9577H131.316V32.739H135.452C135.452 32.4558 135.39 32.205 135.267 31.9865C135.144 31.768 134.973 31.5972 134.755 31.4741C134.539 31.3479 134.289 31.2848 134.002 31.2848C133.704 31.2848 133.439 31.354 133.208 31.4925C132.981 31.628 132.802 31.8111 132.673 32.0419C132.544 32.2696 132.477 32.5236 132.474 32.8036V33.9624C132.474 34.3132 132.539 34.6164 132.668 34.8718C132.801 35.1272 132.987 35.3242 133.227 35.4627C133.467 35.6012 133.752 35.6705 134.081 35.6705C134.299 35.6705 134.499 35.6397 134.681 35.5781C134.863 35.5166 135.018 35.4242 135.147 35.3011C135.277 35.178 135.375 35.0272 135.443 34.8487L137.262 34.9688C137.169 35.4058 136.98 35.7874 136.694 36.1136C136.411 36.4368 136.044 36.6892 135.595 36.8707C135.149 37.0492 134.633 37.1385 134.049 37.1385ZM140.553 32.9006V37H138.587V29.9091H140.461V31.1602H140.544C140.701 30.7478 140.964 30.4215 141.333 30.1815C141.703 29.9383 142.15 29.8168 142.677 29.8168C143.169 29.8168 143.599 29.9245 143.965 30.1399C144.331 30.3554 144.616 30.6631 144.819 31.0632C145.022 31.4602 145.123 31.9342 145.123 32.4851V37H143.157V32.8359C143.16 32.402 143.049 32.0634 142.824 31.8203C142.6 31.5741 142.291 31.451 141.897 31.451C141.632 31.451 141.398 31.5079 141.195 31.6218C140.995 31.7357 140.838 31.9019 140.724 32.1204C140.613 32.3358 140.556 32.5959 140.553 32.9006ZM151.649 27.5455V37H149.682V27.5455H151.649ZM153.224 37V29.9091H155.191V37H153.224ZM154.212 28.995C153.92 28.995 153.669 28.8981 153.46 28.7042C153.253 28.5072 153.15 28.2718 153.15 27.9979C153.15 27.727 153.253 27.4947 153.46 27.3008C153.669 27.1038 153.92 27.0053 154.212 27.0053C154.505 27.0053 154.754 27.1038 154.96 27.3008C155.169 27.4947 155.274 27.727 155.274 27.9979C155.274 28.2718 155.169 28.5072 154.96 28.7042C154.754 28.8981 154.505 28.995 154.212 28.995ZM159.961 39.8068C159.324 39.8068 158.777 39.7191 158.322 39.5437C157.87 39.3713 157.509 39.1359 157.242 38.8374C156.974 38.5388 156.8 38.2034 156.72 37.831L158.539 37.5863C158.594 37.7279 158.682 37.8602 158.802 37.9833C158.922 38.1064 159.081 38.2049 159.278 38.2788C159.478 38.3557 159.721 38.3942 160.007 38.3942C160.435 38.3942 160.787 38.2895 161.064 38.0803C161.344 37.8741 161.484 37.5278 161.484 37.0415V35.7443H161.401C161.315 35.9413 161.186 36.1275 161.013 36.3029C160.841 36.4783 160.619 36.6214 160.349 36.7322C160.078 36.843 159.755 36.8984 159.379 36.8984C158.847 36.8984 158.362 36.7753 157.925 36.5291C157.491 36.2798 157.145 35.8997 156.886 35.3888C156.631 34.8749 156.503 34.2255 156.503 33.4407C156.503 32.6374 156.634 31.9665 156.896 31.4279C157.157 30.8893 157.505 30.4862 157.939 30.2184C158.376 29.9506 158.854 29.8168 159.375 29.8168C159.772 29.8168 160.104 29.8845 160.372 30.0199C160.639 30.1522 160.855 30.3184 161.018 30.5185C161.184 30.7154 161.312 30.9093 161.401 31.1001H161.475V29.9091H163.428V37.0692C163.428 37.6725 163.28 38.1772 162.985 38.5835C162.689 38.9897 162.28 39.2944 161.757 39.4975C161.237 39.7037 160.638 39.8068 159.961 39.8068ZM160.002 35.4212C160.319 35.4212 160.587 35.3427 160.806 35.1857C161.027 35.0257 161.197 34.7979 161.313 34.5025C161.434 34.204 161.494 33.8469 161.494 33.4315C161.494 33.016 161.435 32.6559 161.318 32.3512C161.201 32.0434 161.032 31.8049 160.81 31.6357C160.589 31.4664 160.319 31.3817 160.002 31.3817C159.679 31.3817 159.407 31.4695 159.185 31.6449C158.964 31.8172 158.796 32.0573 158.682 32.3651C158.568 32.6728 158.511 33.0283 158.511 33.4315C158.511 33.8408 158.568 34.1947 158.682 34.4933C158.799 34.7887 158.967 35.018 159.185 35.1811C159.407 35.3411 159.679 35.4212 160.002 35.4212ZM166.959 32.9006V37H164.993V29.9091H166.867V31.1602H166.95C167.107 30.7478 167.37 30.4215 167.74 30.1815C168.109 29.9383 168.557 29.8168 169.083 29.8168C169.575 29.8168 170.005 29.9245 170.371 30.1399C170.737 30.3554 171.022 30.6631 171.225 31.0632C171.428 31.4602 171.53 31.9342 171.53 32.4851V37H169.563V32.8359C169.566 32.402 169.455 32.0634 169.231 31.8203C169.006 31.5741 168.697 31.451 168.303 31.451C168.038 31.451 167.804 31.5079 167.601 31.6218C167.401 31.7357 167.244 31.9019 167.13 32.1204C167.019 32.3358 166.963 32.5959 166.959 32.9006ZM176.311 37.1385C175.582 37.1385 174.954 36.9908 174.428 36.6953C173.905 36.3968 173.501 35.9751 173.218 35.4304C172.935 34.8826 172.794 34.2347 172.794 33.4869C172.794 32.7575 172.935 32.1173 173.218 31.5664C173.501 31.0155 173.9 30.5862 174.414 30.2784C174.931 29.9706 175.537 29.8168 176.233 29.8168C176.701 29.8168 177.136 29.8922 177.539 30.043C177.945 30.1907 178.299 30.4138 178.601 30.7124C178.906 31.0109 179.143 31.3864 179.312 31.8388C179.481 32.2881 179.566 32.8144 179.566 33.4176V33.9577H173.578V32.739H177.715C177.715 32.4558 177.653 32.205 177.53 31.9865C177.407 31.768 177.236 31.5972 177.018 31.4741C176.802 31.3479 176.551 31.2848 176.265 31.2848C175.967 31.2848 175.702 31.354 175.471 31.4925C175.243 31.628 175.065 31.8111 174.936 32.0419C174.806 32.2696 174.74 32.5236 174.737 32.8036V33.9624C174.737 34.3132 174.802 34.6164 174.931 34.8718C175.063 35.1272 175.249 35.3242 175.49 35.4627C175.73 35.6012 176.014 35.6705 176.344 35.6705C176.562 35.6705 176.762 35.6397 176.944 35.5781C177.125 35.5166 177.281 35.4242 177.41 35.3011C177.539 35.178 177.638 35.0272 177.705 34.8487L179.524 34.9688C179.432 35.4058 179.243 35.7874 178.956 36.1136C178.673 36.4368 178.307 36.6892 177.858 36.8707C177.412 37.0492 176.896 37.1385 176.311 37.1385Z" fill="black"/>
<path d="M159 89C164.523 89 169 84.5228 169 79C169 73.4772 164.523 69 159 69C153.477 69 149 73.4772 149 79C149 84.5228 153.477 89 159 89Z" fill="#222222" stroke="#222222"/>
<path d="M193 109H125C118.096 109 112.5 114.596 112.5 121.5V130.633C112.5 137.536 118.096 143.133 125 143.133H193C199.904 143.133 205.5 137.536 205.5 130.633V121.5C205.5 114.596 199.904 109 193 109Z" fill="#F1F1F1" stroke="#181818" stroke-width="0.5"/>
<path d="M128.33 124.056C128.278 123.624 128.071 123.289 127.707 123.05C127.344 122.812 126.898 122.692 126.369 122.692C125.983 122.692 125.645 122.755 125.355 122.88C125.068 123.005 124.844 123.177 124.682 123.396C124.523 123.614 124.443 123.863 124.443 124.141C124.443 124.374 124.499 124.575 124.609 124.742C124.723 124.907 124.868 125.045 125.044 125.156C125.22 125.263 125.405 125.353 125.598 125.424C125.791 125.492 125.969 125.548 126.131 125.59L127.017 125.829C127.244 125.888 127.497 125.971 127.776 126.076C128.057 126.181 128.325 126.325 128.581 126.506C128.839 126.685 129.053 126.915 129.22 127.197C129.388 127.478 129.472 127.823 129.472 128.232C129.472 128.704 129.348 129.13 129.101 129.511C128.857 129.891 128.499 130.194 128.027 130.418C127.558 130.643 126.989 130.755 126.318 130.755C125.693 130.755 125.152 130.654 124.695 130.452C124.24 130.251 123.882 129.969 123.621 129.609C123.362 129.248 123.216 128.829 123.182 128.352H124.273C124.301 128.681 124.412 128.954 124.605 129.17C124.801 129.383 125.048 129.542 125.347 129.647C125.648 129.749 125.972 129.8 126.318 129.8C126.722 129.8 127.084 129.735 127.405 129.604C127.726 129.471 127.98 129.286 128.168 129.05C128.355 128.812 128.449 128.533 128.449 128.215C128.449 127.925 128.368 127.69 128.206 127.508C128.044 127.326 127.831 127.178 127.567 127.065C127.303 126.951 127.017 126.852 126.71 126.766L125.636 126.46C124.955 126.263 124.415 125.984 124.017 125.62C123.619 125.256 123.42 124.781 123.42 124.192C123.42 123.704 123.553 123.278 123.817 122.914C124.084 122.548 124.442 122.263 124.891 122.062C125.342 121.857 125.847 121.755 126.403 121.755C126.966 121.755 127.466 121.856 127.903 122.058C128.341 122.256 128.688 122.529 128.943 122.876C129.202 123.222 129.338 123.616 129.352 124.056H128.33ZM133.817 130.738C133.186 130.738 132.642 130.599 132.185 130.32C131.73 130.039 131.38 129.647 131.132 129.144C130.888 128.638 130.766 128.05 130.766 127.38C130.766 126.71 130.888 126.119 131.132 125.607C131.38 125.093 131.723 124.692 132.164 124.406C132.607 124.116 133.124 123.971 133.715 123.971C134.056 123.971 134.392 124.028 134.725 124.141C135.057 124.255 135.36 124.44 135.632 124.695C135.905 124.948 136.123 125.283 136.284 125.701C136.446 126.119 136.527 126.633 136.527 127.244V127.67H131.482V126.8H135.505C135.505 126.431 135.431 126.102 135.283 125.812C135.138 125.522 134.931 125.293 134.661 125.126C134.394 124.958 134.078 124.874 133.715 124.874C133.314 124.874 132.968 124.974 132.675 125.173C132.385 125.369 132.162 125.624 132.006 125.94C131.85 126.255 131.772 126.593 131.772 126.954V127.533C131.772 128.028 131.857 128.447 132.027 128.79C132.201 129.131 132.441 129.391 132.748 129.57C133.054 129.746 133.411 129.835 133.817 129.835C134.081 129.835 134.32 129.798 134.533 129.724C134.749 129.647 134.935 129.533 135.091 129.383C135.248 129.229 135.368 129.039 135.453 128.812L136.425 129.085C136.323 129.414 136.151 129.704 135.909 129.954C135.668 130.201 135.37 130.394 135.015 130.533C134.659 130.67 134.26 130.738 133.817 130.738ZM144.091 130.738C143.478 130.738 142.949 130.593 142.506 130.303C142.063 130.013 141.722 129.614 141.483 129.106C141.245 128.597 141.125 128.016 141.125 127.363C141.125 126.698 141.248 126.112 141.492 125.603C141.739 125.092 142.083 124.692 142.523 124.406C142.966 124.116 143.483 123.971 144.074 123.971C144.534 123.971 144.949 124.056 145.319 124.227C145.688 124.397 145.99 124.636 146.226 124.942C146.462 125.249 146.608 125.607 146.665 126.016H145.659C145.583 125.718 145.412 125.454 145.148 125.224C144.887 124.991 144.534 124.874 144.091 124.874C143.699 124.874 143.355 124.977 143.06 125.181C142.767 125.383 142.539 125.668 142.374 126.038C142.212 126.404 142.131 126.835 142.131 127.329C142.131 127.835 142.211 128.275 142.37 128.65C142.532 129.025 142.759 129.316 143.051 129.523C143.347 129.731 143.694 129.835 144.091 129.835C144.353 129.835 144.59 129.789 144.803 129.698C145.016 129.607 145.196 129.477 145.344 129.306C145.492 129.136 145.597 128.931 145.659 128.692H146.665C146.608 129.079 146.468 129.427 146.243 129.737C146.022 130.043 145.728 130.288 145.361 130.469C144.998 130.648 144.574 130.738 144.091 130.738ZM150.794 130.738C150.203 130.738 149.685 130.597 149.239 130.316C148.796 130.035 148.449 129.641 148.199 129.136C147.952 128.63 147.828 128.039 147.828 127.363C147.828 126.681 147.952 126.086 148.199 125.577C148.449 125.069 148.796 124.674 149.239 124.393C149.685 124.112 150.203 123.971 150.794 123.971C151.385 123.971 151.902 124.112 152.346 124.393C152.792 124.674 153.138 125.069 153.385 125.577C153.635 126.086 153.76 126.681 153.76 127.363C153.76 128.039 153.635 128.63 153.385 129.136C153.138 129.641 152.792 130.035 152.346 130.316C151.902 130.597 151.385 130.738 150.794 130.738ZM150.794 129.835C151.243 129.835 151.613 129.719 151.902 129.489C152.192 129.259 152.407 128.957 152.546 128.582C152.685 128.207 152.755 127.8 152.755 127.363C152.755 126.925 152.685 126.518 152.546 126.14C152.407 125.762 152.192 125.457 151.902 125.224C151.613 124.991 151.243 124.874 150.794 124.874C150.346 124.874 149.976 124.991 149.686 125.224C149.397 125.457 149.182 125.762 149.043 126.14C148.904 126.518 148.834 126.925 148.834 127.363C148.834 127.8 148.904 128.207 149.043 128.582C149.182 128.957 149.397 129.259 149.686 129.489C149.976 129.719 150.346 129.835 150.794 129.835ZM156.301 126.664V130.602H155.295V124.056H156.267V125.079H156.352C156.506 124.746 156.739 124.479 157.051 124.278C157.364 124.073 157.767 123.971 158.261 123.971C158.705 123.971 159.092 124.062 159.425 124.244C159.757 124.423 160.016 124.695 160.2 125.062C160.385 125.425 160.477 125.886 160.477 126.442V130.602H159.472V126.511C159.472 125.996 159.338 125.596 159.071 125.309C158.804 125.019 158.438 124.874 157.972 124.874C157.651 124.874 157.364 124.944 157.111 125.083C156.861 125.222 156.663 125.425 156.518 125.692C156.374 125.96 156.301 126.283 156.301 126.664ZM163.321 126.664V130.602H162.315V124.056H163.287V125.079H163.372C163.525 124.746 163.758 124.479 164.071 124.278C164.383 124.073 164.787 123.971 165.281 123.971C165.724 123.971 166.112 124.062 166.444 124.244C166.777 124.423 167.035 124.695 167.22 125.062C167.404 125.425 167.497 125.886 167.497 126.442V130.602H166.491V126.511C166.491 125.996 166.358 125.596 166.091 125.309C165.824 125.019 165.457 124.874 164.991 124.874C164.67 124.874 164.383 124.944 164.13 125.083C163.88 125.222 163.683 125.425 163.538 125.692C163.393 125.96 163.321 126.283 163.321 126.664ZM172.079 130.738C171.448 130.738 170.904 130.599 170.447 130.32C169.992 130.039 169.641 129.647 169.394 129.144C169.15 128.638 169.028 128.05 169.028 127.38C169.028 126.71 169.15 126.119 169.394 125.607C169.641 125.093 169.985 124.692 170.425 124.406C170.869 124.116 171.386 123.971 171.977 123.971C172.317 123.971 172.654 124.028 172.987 124.141C173.319 124.255 173.621 124.44 173.894 124.695C174.167 124.948 174.384 125.283 174.546 125.701C174.708 126.119 174.789 126.633 174.789 127.244V127.67H169.744V126.8H173.766C173.766 126.431 173.692 126.102 173.545 125.812C173.4 125.522 173.192 125.293 172.923 125.126C172.656 124.958 172.34 124.874 171.977 124.874C171.576 124.874 171.229 124.974 170.937 125.173C170.647 125.369 170.424 125.624 170.268 125.94C170.112 126.255 170.033 126.593 170.033 126.954V127.533C170.033 128.028 170.119 128.447 170.289 128.79C170.462 129.131 170.702 129.391 171.009 129.57C171.316 129.746 171.673 129.835 172.079 129.835C172.343 129.835 172.582 129.798 172.795 129.724C173.011 129.647 173.197 129.533 173.353 129.383C173.509 129.229 173.63 129.039 173.715 128.812L174.687 129.085C174.585 129.414 174.413 129.704 174.171 129.954C173.93 130.201 173.631 130.394 173.276 130.533C172.921 130.67 172.522 130.738 172.079 130.738ZM178.978 130.738C178.364 130.738 177.836 130.593 177.393 130.303C176.95 130.013 176.609 129.614 176.37 129.106C176.131 128.597 176.012 128.016 176.012 127.363C176.012 126.698 176.134 126.112 176.379 125.603C176.626 125.092 176.969 124.692 177.41 124.406C177.853 124.116 178.37 123.971 178.961 123.971C179.421 123.971 179.836 124.056 180.205 124.227C180.575 124.397 180.877 124.636 181.113 124.942C181.349 125.249 181.495 125.607 181.552 126.016H180.546C180.469 125.718 180.299 125.454 180.035 125.224C179.773 124.991 179.421 124.874 178.978 124.874C178.586 124.874 178.242 124.977 177.947 125.181C177.654 125.383 177.425 125.668 177.261 126.038C177.099 126.404 177.018 126.835 177.018 127.329C177.018 127.835 177.097 128.275 177.256 128.65C177.418 129.025 177.646 129.316 177.938 129.523C178.234 129.731 178.58 129.835 178.978 129.835C179.239 129.835 179.477 129.789 179.69 129.698C179.903 129.607 180.083 129.477 180.231 129.306C180.379 129.136 180.484 128.931 180.546 128.692H181.552C181.495 129.079 181.354 129.427 181.13 129.737C180.908 130.043 180.614 130.288 180.248 130.469C179.884 130.648 179.461 130.738 178.978 130.738ZM185.869 124.056V124.908H182.477V124.056H185.869ZM183.465 122.488H184.471V128.727C184.471 129.011 184.512 129.224 184.594 129.366C184.68 129.505 184.788 129.599 184.918 129.647C185.052 129.692 185.192 129.715 185.34 129.715C185.451 129.715 185.542 129.71 185.613 129.698C185.684 129.684 185.741 129.673 185.783 129.664L185.988 130.567C185.92 130.593 185.825 130.619 185.702 130.644C185.58 130.673 185.425 130.687 185.238 130.687C184.954 130.687 184.675 130.626 184.403 130.504C184.133 130.381 183.908 130.195 183.729 129.945C183.553 129.695 183.465 129.38 183.465 128.999V122.488ZM190.055 130.738C189.425 130.738 188.881 130.599 188.423 130.32C187.969 130.039 187.618 129.647 187.371 129.144C187.126 128.638 187.004 128.05 187.004 127.38C187.004 126.71 187.126 126.119 187.371 125.607C187.618 125.093 187.962 124.692 188.402 124.406C188.845 124.116 189.362 123.971 189.953 123.971C190.294 123.971 190.631 124.028 190.963 124.141C191.295 124.255 191.598 124.44 191.871 124.695C192.143 124.948 192.361 125.283 192.523 125.701C192.685 126.119 192.766 126.633 192.766 127.244V127.67H187.72V126.8H191.743C191.743 126.431 191.669 126.102 191.521 125.812C191.376 125.522 191.169 125.293 190.899 125.126C190.632 124.958 190.317 124.874 189.953 124.874C189.553 124.874 189.206 124.974 188.913 125.173C188.624 125.369 188.401 125.624 188.244 125.94C188.088 126.255 188.01 126.593 188.01 126.954V127.533C188.01 128.028 188.095 128.447 188.266 128.79C188.439 129.131 188.679 129.391 188.986 129.57C189.293 129.746 189.649 129.835 190.055 129.835C190.32 129.835 190.558 129.798 190.771 129.724C190.987 129.647 191.173 129.533 191.33 129.383C191.486 129.229 191.607 129.039 191.692 128.812L192.663 129.085C192.561 129.414 192.389 129.704 192.148 129.954C191.906 130.201 191.608 130.394 191.253 130.533C190.898 130.67 190.499 130.738 190.055 130.738ZM194.295 130.602V124.056H195.267V125.045H195.335C195.455 124.721 195.67 124.458 195.983 124.256C196.295 124.055 196.648 123.954 197.04 123.954C197.114 123.954 197.206 123.955 197.317 123.958C197.428 123.961 197.511 123.965 197.568 123.971V124.994C197.534 124.985 197.456 124.972 197.334 124.955C197.214 124.935 197.088 124.925 196.955 124.925C196.636 124.925 196.352 124.992 196.102 125.126C195.855 125.256 195.659 125.438 195.514 125.671C195.372 125.901 195.301 126.164 195.301 126.46V130.602H194.295Z" fill="black"/>
<path d="M276.5 163.133H41.5C40.1193 163.133 39 164.252 39 165.633V166.633C39 168.014 40.1193 169.133 41.5 169.133H276.5C277.881 169.133 279 168.014 279 166.633V165.633C279 164.252 277.881 163.133 276.5 163.133Z" fill="#555555" stroke="#555555"/>
<path d="M114.5 189.133H63.5C56.5964 189.133 51 194.729 51 201.633V210.766C51 217.669 56.5964 223.266 63.5 223.266H114.5C121.404 223.266 127 217.669 127 210.766V201.633C127 194.729 121.404 189.133 114.5 189.133Z" fill="#F1F1F1" stroke="#181818" stroke-width="0.5"/>
<path d="M69.0795 204.734H68.0227C67.9602 204.43 67.8509 204.163 67.6946 203.933C67.5412 203.703 67.3537 203.51 67.1321 203.354C66.9134 203.195 66.6705 203.075 66.4034 202.996C66.1364 202.916 65.858 202.876 65.5682 202.876C65.0398 202.876 64.5611 203.01 64.1321 203.277C63.706 203.544 63.3665 203.938 63.1136 204.457C62.8636 204.977 62.7386 205.615 62.7386 206.371C62.7386 207.126 62.8636 207.764 63.1136 208.284C63.3665 208.804 63.706 209.197 64.1321 209.464C64.5611 209.732 65.0398 209.865 65.5682 209.865C65.858 209.865 66.1364 209.825 66.4034 209.746C66.6705 209.666 66.9134 209.548 67.1321 209.392C67.3537 209.233 67.5412 209.038 67.6946 208.808C67.8509 208.575 67.9602 208.308 68.0227 208.007H69.0795C69 208.453 68.8551 208.852 68.6449 209.205C68.4347 209.557 68.1733 209.857 67.8608 210.104C67.5483 210.348 67.1974 210.534 66.8082 210.662C66.4219 210.79 66.0085 210.854 65.5682 210.854C64.8239 210.854 64.1619 210.672 63.5824 210.308C63.0028 209.945 62.5469 209.428 62.2145 208.757C61.8821 208.087 61.7159 207.291 61.7159 206.371C61.7159 205.45 61.8821 204.655 62.2145 203.984C62.5469 203.314 63.0028 202.797 63.5824 202.433C64.1619 202.07 64.8239 201.888 65.5682 201.888C66.0085 201.888 66.4219 201.952 66.8082 202.08C67.1974 202.207 67.5483 202.395 67.8608 202.642C68.1733 202.886 68.4347 203.185 68.6449 203.537C68.8551 203.886 69 204.286 69.0795 204.734ZM71.6566 202.007V210.734H70.6509V202.007H71.6566ZM75.4247 210.888C75.0099 210.888 74.6335 210.81 74.2955 210.653C73.9574 210.494 73.6889 210.266 73.4901 209.967C73.2912 209.666 73.1918 209.303 73.1918 208.876C73.1918 208.501 73.2656 208.197 73.4134 207.964C73.5611 207.729 73.7585 207.544 74.0057 207.411C74.2528 207.277 74.5256 207.178 74.8239 207.112C75.125 207.044 75.4276 206.99 75.7315 206.95C76.1293 206.899 76.4517 206.861 76.6989 206.835C76.9489 206.807 77.1307 206.76 77.2443 206.695C77.3608 206.629 77.419 206.516 77.419 206.354V206.32C77.419 205.899 77.304 205.572 77.0739 205.339C76.8466 205.107 76.5014 204.99 76.0384 204.99C75.5582 204.99 75.1818 205.095 74.9091 205.305C74.6364 205.516 74.4446 205.74 74.3338 205.979L73.3793 205.638C73.5497 205.24 73.777 204.93 74.0611 204.709C74.348 204.484 74.6605 204.328 74.9986 204.24C75.3395 204.149 75.6747 204.104 76.0043 204.104C76.2145 204.104 76.456 204.129 76.7287 204.18C77.0043 204.229 77.2699 204.33 77.5256 204.483C77.7841 204.636 77.9986 204.868 78.169 205.178C78.3395 205.487 78.4247 205.902 78.4247 206.422V210.734H77.419V209.848H77.3679C77.2997 209.99 77.1861 210.142 77.027 210.304C76.8679 210.466 76.6563 210.604 76.392 210.717C76.1278 210.831 75.8054 210.888 75.4247 210.888ZM75.5781 209.984C75.9759 209.984 76.3111 209.906 76.5838 209.75C76.8594 209.594 77.0668 209.392 77.206 209.145C77.348 208.898 77.419 208.638 77.419 208.365V207.445C77.3764 207.496 77.2827 207.543 77.1378 207.585C76.9957 207.625 76.831 207.661 76.6435 207.692C76.4588 207.72 76.2784 207.746 76.1023 207.768C75.929 207.788 75.7884 207.805 75.6804 207.82C75.419 207.854 75.1747 207.909 74.9474 207.986C74.723 208.06 74.5412 208.172 74.402 208.322C74.2656 208.47 74.1974 208.672 74.1974 208.928C74.1974 209.277 74.3267 209.541 74.5852 209.72C74.8466 209.896 75.1776 209.984 75.5781 209.984ZM85.3782 204.189L82.9577 210.734H81.935L79.5146 204.189H80.6055L82.4123 209.405H82.4805L84.2873 204.189H85.3782ZM88.4325 210.888C88.0178 210.888 87.6413 210.81 87.3033 210.653C86.9652 210.494 86.6967 210.266 86.4979 209.967C86.299 209.666 86.1996 209.303 86.1996 208.876C86.1996 208.501 86.2734 208.197 86.4212 207.964C86.5689 207.729 86.7663 207.544 87.0135 207.411C87.2607 207.277 87.5334 207.178 87.8317 207.112C88.1328 207.044 88.4354 206.99 88.7393 206.95C89.1371 206.899 89.4595 206.861 89.7067 206.835C89.9567 206.807 90.1385 206.76 90.2521 206.695C90.3686 206.629 90.4268 206.516 90.4268 206.354V206.32C90.4268 205.899 90.3118 205.572 90.0817 205.339C89.8544 205.107 89.5092 204.99 89.0462 204.99C88.5661 204.99 88.1896 205.095 87.9169 205.305C87.6442 205.516 87.4524 205.74 87.3416 205.979L86.3871 205.638C86.5575 205.24 86.7848 204.93 87.0689 204.709C87.3558 204.484 87.6683 204.328 88.0064 204.24C88.3473 204.149 88.6825 204.104 89.0121 204.104C89.2223 204.104 89.4638 204.129 89.7365 204.18C90.0121 204.229 90.2777 204.33 90.5334 204.483C90.7919 204.636 91.0064 204.868 91.1768 205.178C91.3473 205.487 91.4325 205.902 91.4325 206.422V210.734H90.4268V209.848H90.3757C90.3075 209.99 90.1939 210.142 90.0348 210.304C89.8757 210.466 89.6641 210.604 89.3999 210.717C89.1357 210.831 88.8132 210.888 88.4325 210.888ZM88.5859 209.984C88.9837 209.984 89.3189 209.906 89.5916 209.75C89.8672 209.594 90.0746 209.392 90.2138 209.145C90.3558 208.898 90.4268 208.638 90.4268 208.365V207.445C90.3842 207.496 90.2905 207.543 90.1456 207.585C90.0036 207.625 89.8388 207.661 89.6513 207.692C89.4666 207.72 89.2862 207.746 89.1101 207.768C88.9368 207.788 88.7962 207.805 88.6882 207.82C88.4268 207.854 88.1825 207.909 87.9553 207.986C87.7308 208.06 87.549 208.172 87.4098 208.322C87.2734 208.47 87.2053 208.672 87.2053 208.928C87.2053 209.277 87.3345 209.541 87.593 209.72C87.8544 209.896 88.1854 209.984 88.5859 209.984ZM93.2681 210.734V204.189H94.2397V205.178H94.3079C94.4272 204.854 94.6431 204.591 94.9556 204.389C95.2681 204.187 95.6204 204.087 96.0124 204.087C96.0863 204.087 96.1786 204.088 96.2894 204.091C96.4002 204.094 96.484 204.098 96.5408 204.104V205.126C96.5067 205.118 96.4286 205.105 96.3065 205.088C96.1871 205.068 96.0607 205.058 95.9272 205.058C95.609 205.058 95.3249 205.125 95.0749 205.259C94.8278 205.389 94.6317 205.571 94.4869 205.804C94.3448 206.034 94.2738 206.297 94.2738 206.592V210.734H93.2681ZM100.005 210.871C99.4599 210.871 98.9783 210.733 98.5607 210.457C98.1431 210.179 97.8164 209.787 97.5806 209.281C97.3448 208.773 97.2269 208.172 97.2269 207.479C97.2269 206.791 97.3448 206.195 97.5806 205.689C97.8164 205.183 98.1445 204.793 98.565 204.517C98.9854 204.241 99.4712 204.104 100.022 204.104C100.449 204.104 100.785 204.175 101.032 204.317C101.282 204.456 101.473 204.615 101.603 204.794C101.737 204.97 101.841 205.115 101.914 205.229H102V202.007H103.005V210.734H102.034V209.729H101.914C101.841 209.848 101.735 209.999 101.599 210.18C101.463 210.359 101.268 210.52 101.015 210.662C100.762 210.801 100.426 210.871 100.005 210.871ZM100.142 209.967C100.545 209.967 100.886 209.862 101.164 209.652C101.443 209.439 101.654 209.145 101.799 208.77C101.944 208.392 102.017 207.956 102.017 207.462C102.017 206.973 101.946 206.545 101.804 206.179C101.662 205.81 101.451 205.523 101.173 205.318C100.895 205.111 100.551 205.007 100.142 205.007C99.7156 205.007 99.3604 205.116 99.0763 205.335C98.7951 205.551 98.5835 205.845 98.4414 206.217C98.3022 206.587 98.2326 207.001 98.2326 207.462C98.2326 207.928 98.3036 208.351 98.4457 208.732C98.5906 209.109 98.8036 209.411 99.0849 209.635C99.369 209.857 99.7212 209.967 100.142 209.967ZM107.731 210.871C107.1 210.871 106.556 210.732 106.099 210.453C105.645 210.172 105.294 209.78 105.047 209.277C104.802 208.771 104.68 208.183 104.68 207.513C104.68 206.842 104.802 206.251 105.047 205.74C105.294 205.226 105.637 204.825 106.078 204.538C106.521 204.249 107.038 204.104 107.629 204.104C107.97 204.104 108.306 204.161 108.639 204.274C108.971 204.388 109.274 204.572 109.547 204.828C109.819 205.081 110.037 205.416 110.199 205.834C110.36 206.251 110.441 206.766 110.441 207.376V207.803H105.396V206.933H109.419C109.419 206.564 109.345 206.234 109.197 205.945C109.052 205.655 108.845 205.426 108.575 205.259C108.308 205.091 107.993 205.007 107.629 205.007C107.228 205.007 106.882 205.107 106.589 205.305C106.299 205.501 106.076 205.757 105.92 206.072C105.764 206.388 105.686 206.726 105.686 207.087V207.666C105.686 208.161 105.771 208.58 105.941 208.923C106.115 209.264 106.355 209.524 106.662 209.703C106.968 209.879 107.325 209.967 107.731 209.967C107.995 209.967 108.234 209.93 108.447 209.857C108.663 209.78 108.849 209.666 109.005 209.516C109.162 209.362 109.282 209.172 109.368 208.945L110.339 209.217C110.237 209.547 110.065 209.837 109.824 210.087C109.582 210.334 109.284 210.527 108.929 210.666C108.574 210.803 108.174 210.871 107.731 210.871ZM111.971 210.734V204.189H112.943V205.178H113.011C113.13 204.854 113.346 204.591 113.659 204.389C113.971 204.187 114.324 204.087 114.716 204.087C114.789 204.087 114.882 204.088 114.993 204.091C115.103 204.094 115.187 204.098 115.244 204.104V205.126C115.21 205.118 115.132 205.105 115.01 205.088C114.89 205.068 114.764 205.058 114.63 205.058C114.312 205.058 114.028 205.125 113.778 205.259C113.531 205.389 113.335 205.571 113.19 205.804C113.048 206.034 112.977 206.297 112.977 206.592V210.734H111.971Z" fill="black"/>
<path d="M254.5 189.133H167.5C160.596 189.133 155 194.729 155 201.633V210.766C155 217.669 160.596 223.266 167.5 223.266H254.5C261.404 223.266 267 217.669 267 210.766V201.633C267 194.729 261.404 189.133 254.5 189.133Z" fill="#F1F1F1" stroke="#181818" stroke-width="0.5"/>
<path d="M166.057 210.734V202.007H171.324V202.945H167.114V205.893H171.051V206.831H167.114V209.797H171.392V210.734H166.057ZM168.222 201.121L169.261 199.143H170.438L169.108 201.121H168.222ZM175.751 210.871C175.138 210.871 174.609 210.726 174.166 210.436C173.723 210.146 173.382 209.747 173.143 209.239C172.905 208.73 172.786 208.149 172.786 207.496C172.786 206.831 172.908 206.244 173.152 205.736C173.399 205.224 173.743 204.825 174.183 204.538C174.626 204.249 175.143 204.104 175.734 204.104C176.195 204.104 176.609 204.189 176.979 204.359C177.348 204.53 177.651 204.768 177.886 205.075C178.122 205.382 178.268 205.74 178.325 206.149H177.32C177.243 205.851 177.072 205.587 176.808 205.357C176.547 205.124 176.195 205.007 175.751 205.007C175.359 205.007 175.016 205.109 174.72 205.314C174.428 205.516 174.199 205.801 174.034 206.17C173.872 206.537 173.791 206.967 173.791 207.462C173.791 207.967 173.871 208.408 174.03 208.783C174.192 209.158 174.419 209.449 174.712 209.656C175.007 209.864 175.354 209.967 175.751 209.967C176.013 209.967 176.25 209.922 176.463 209.831C176.676 209.74 176.857 209.609 177.004 209.439C177.152 209.268 177.257 209.064 177.32 208.825H178.325C178.268 209.212 178.128 209.56 177.903 209.869C177.682 210.176 177.388 210.42 177.021 210.602C176.658 210.781 176.234 210.871 175.751 210.871ZM182.455 210.871C181.864 210.871 181.345 210.73 180.899 210.449C180.456 210.168 180.109 209.774 179.859 209.268C179.612 208.763 179.489 208.172 179.489 207.496C179.489 206.814 179.612 206.219 179.859 205.71C180.109 205.202 180.456 204.807 180.899 204.526C181.345 204.244 181.864 204.104 182.455 204.104C183.045 204.104 183.563 204.244 184.006 204.526C184.452 204.807 184.798 205.202 185.045 205.71C185.295 206.219 185.42 206.814 185.42 207.496C185.42 208.172 185.295 208.763 185.045 209.268C184.798 209.774 184.452 210.168 184.006 210.449C183.563 210.73 183.045 210.871 182.455 210.871ZM182.455 209.967C182.903 209.967 183.273 209.852 183.562 209.622C183.852 209.392 184.067 209.089 184.206 208.714C184.345 208.339 184.415 207.933 184.415 207.496C184.415 207.058 184.345 206.651 184.206 206.273C184.067 205.895 183.852 205.589 183.562 205.357C183.273 205.124 182.903 205.007 182.455 205.007C182.006 205.007 181.636 205.124 181.347 205.357C181.057 205.589 180.842 205.895 180.703 206.273C180.564 206.651 180.494 207.058 180.494 207.496C180.494 207.933 180.564 208.339 180.703 208.714C180.842 209.089 181.057 209.392 181.347 209.622C181.636 209.852 182.006 209.967 182.455 209.967ZM191.081 208.058V204.189H192.086V210.734H191.081V209.626H191.012C190.859 209.959 190.62 210.241 190.297 210.474C189.973 210.705 189.564 210.82 189.069 210.82C188.66 210.82 188.297 210.73 187.978 210.551C187.66 210.369 187.41 210.097 187.228 209.733C187.047 209.366 186.956 208.905 186.956 208.348V204.189H187.961V208.28C187.961 208.757 188.095 209.138 188.362 209.422C188.632 209.706 188.975 209.848 189.393 209.848C189.643 209.848 189.897 209.784 190.156 209.656C190.417 209.528 190.636 209.332 190.812 209.068C190.991 208.804 191.081 208.467 191.081 208.058ZM196.775 204.189V205.041H193.383V204.189H196.775ZM194.371 202.621H195.377V208.859C195.377 209.143 195.418 209.357 195.501 209.499C195.586 209.638 195.694 209.732 195.825 209.78C195.958 209.825 196.099 209.848 196.246 209.848C196.357 209.848 196.448 209.842 196.519 209.831C196.59 209.817 196.647 209.805 196.69 209.797L196.894 210.7C196.826 210.726 196.731 210.751 196.609 210.777C196.487 210.805 196.332 210.82 196.144 210.82C195.86 210.82 195.582 210.759 195.309 210.636C195.039 210.514 194.815 210.328 194.636 210.078C194.46 209.828 194.371 209.513 194.371 209.132V202.621ZM200.962 210.871C200.331 210.871 199.787 210.732 199.33 210.453C198.875 210.172 198.524 209.78 198.277 209.277C198.033 208.771 197.911 208.183 197.911 207.513C197.911 206.842 198.033 206.251 198.277 205.74C198.524 205.226 198.868 204.825 199.308 204.538C199.751 204.249 200.268 204.104 200.859 204.104C201.2 204.104 201.537 204.161 201.869 204.274C202.202 204.388 202.504 204.572 202.777 204.828C203.05 205.081 203.267 205.416 203.429 205.834C203.591 206.251 203.672 206.766 203.672 207.376V207.803H198.626V206.933H202.649C202.649 206.564 202.575 206.234 202.428 205.945C202.283 205.655 202.075 205.426 201.805 205.259C201.538 205.091 201.223 205.007 200.859 205.007C200.459 205.007 200.112 205.107 199.82 205.305C199.53 205.501 199.307 205.757 199.151 206.072C198.994 206.388 198.916 206.726 198.916 207.087V207.666C198.916 208.161 199.001 208.58 199.172 208.923C199.345 209.264 199.585 209.524 199.892 209.703C200.199 209.879 200.555 209.967 200.962 209.967C201.226 209.967 201.464 209.93 201.678 209.857C201.893 209.78 202.08 209.666 202.236 209.516C202.392 209.362 202.513 209.172 202.598 208.945L203.57 209.217C203.467 209.547 203.295 209.837 203.054 210.087C202.813 210.334 202.514 210.527 202.159 210.666C201.804 210.803 201.405 210.871 200.962 210.871ZM205.202 210.734V204.189H206.173V205.178H206.241C206.361 204.854 206.577 204.591 206.889 204.389C207.202 204.187 207.554 204.087 207.946 204.087C208.02 204.087 208.112 204.088 208.223 204.091C208.334 204.094 208.418 204.098 208.474 204.104V205.126C208.44 205.118 208.362 205.105 208.24 205.088C208.121 205.068 207.994 205.058 207.861 205.058C207.543 205.058 207.259 205.125 207.009 205.259C206.761 205.389 206.565 205.571 206.42 205.804C206.278 206.034 206.207 206.297 206.207 206.592V210.734H205.202ZM214.047 202.007V210.734H213.042V202.007H214.047ZM218.634 210.871C218.003 210.871 217.459 210.732 217.001 210.453C216.547 210.172 216.196 209.78 215.949 209.277C215.705 208.771 215.582 208.183 215.582 207.513C215.582 206.842 215.705 206.251 215.949 205.74C216.196 205.226 216.54 204.825 216.98 204.538C217.423 204.249 217.94 204.104 218.531 204.104C218.872 204.104 219.209 204.161 219.541 204.274C219.874 204.388 220.176 204.572 220.449 204.828C220.722 205.081 220.939 205.416 221.101 205.834C221.263 206.251 221.344 206.766 221.344 207.376V207.803H216.298V206.933H220.321C220.321 206.564 220.247 206.234 220.099 205.945C219.955 205.655 219.747 205.426 219.477 205.259C219.21 205.091 218.895 205.007 218.531 205.007C218.131 205.007 217.784 205.107 217.491 205.305C217.202 205.501 216.979 205.757 216.822 206.072C216.666 206.388 216.588 206.726 216.588 207.087V207.666C216.588 208.161 216.673 208.58 216.844 208.923C217.017 209.264 217.257 209.524 217.564 209.703C217.871 209.879 218.227 209.967 218.634 209.967C218.898 209.967 219.136 209.93 219.349 209.857C219.565 209.78 219.751 209.666 219.908 209.516C220.064 209.362 220.185 209.172 220.27 208.945L221.241 209.217C221.139 209.547 220.967 209.837 220.726 210.087C220.484 210.334 220.186 210.527 219.831 210.666C219.476 210.803 219.077 210.871 218.634 210.871ZM228.908 210.871C228.294 210.871 227.766 210.726 227.322 210.436C226.879 210.146 226.538 209.747 226.3 209.239C226.061 208.73 225.942 208.149 225.942 207.496C225.942 206.831 226.064 206.244 226.308 205.736C226.555 205.224 226.899 204.825 227.339 204.538C227.783 204.249 228.3 204.104 228.891 204.104C229.351 204.104 229.766 204.189 230.135 204.359C230.504 204.53 230.807 204.768 231.043 205.075C231.278 205.382 231.425 205.74 231.482 206.149H230.476C230.399 205.851 230.229 205.587 229.964 205.357C229.703 205.124 229.351 205.007 228.908 205.007C228.516 205.007 228.172 205.109 227.876 205.314C227.584 205.516 227.355 205.801 227.19 206.17C227.028 206.537 226.947 206.967 226.947 207.462C226.947 207.967 227.027 208.408 227.186 208.783C227.348 209.158 227.575 209.449 227.868 209.656C228.163 209.864 228.51 209.967 228.908 209.967C229.169 209.967 229.406 209.922 229.619 209.831C229.832 209.74 230.013 209.609 230.161 209.439C230.308 209.268 230.413 209.064 230.476 208.825H231.482C231.425 209.212 231.284 209.56 231.06 209.869C230.838 210.176 230.544 210.42 230.178 210.602C229.814 210.781 229.391 210.871 228.908 210.871ZM235.611 210.871C235.02 210.871 234.501 210.73 234.055 210.449C233.612 210.168 233.266 209.774 233.016 209.268C232.768 208.763 232.645 208.172 232.645 207.496C232.645 206.814 232.768 206.219 233.016 205.71C233.266 205.202 233.612 204.807 234.055 204.526C234.501 204.244 235.02 204.104 235.611 204.104C236.202 204.104 236.719 204.244 237.162 204.526C237.608 204.807 237.955 205.202 238.202 205.71C238.452 206.219 238.577 206.814 238.577 207.496C238.577 208.172 238.452 208.763 238.202 209.268C237.955 209.774 237.608 210.168 237.162 210.449C236.719 210.73 236.202 210.871 235.611 210.871ZM235.611 209.967C236.06 209.967 236.429 209.852 236.719 209.622C237.009 209.392 237.223 209.089 237.362 208.714C237.501 208.339 237.571 207.933 237.571 207.496C237.571 207.058 237.501 206.651 237.362 206.273C237.223 205.895 237.009 205.589 236.719 205.357C236.429 205.124 236.06 205.007 235.611 205.007C235.162 205.007 234.793 205.124 234.503 205.357C234.213 205.589 233.999 205.895 233.859 206.273C233.72 206.651 233.651 207.058 233.651 207.496C233.651 207.933 233.72 208.339 233.859 208.714C233.999 209.089 234.213 209.392 234.503 209.622C234.793 209.852 235.162 209.967 235.611 209.967ZM244.237 208.058V204.189H245.243V210.734H244.237V209.626H244.169C244.015 209.959 243.777 210.241 243.453 210.474C243.129 210.705 242.72 210.82 242.225 210.82C241.816 210.82 241.453 210.73 241.135 210.551C240.816 210.369 240.566 210.097 240.385 209.733C240.203 209.366 240.112 208.905 240.112 208.348V204.189H241.118V208.28C241.118 208.757 241.251 209.138 241.518 209.422C241.788 209.706 242.132 209.848 242.549 209.848C242.799 209.848 243.054 209.784 243.312 209.656C243.574 209.528 243.792 209.332 243.968 209.068C244.147 208.804 244.237 208.467 244.237 208.058ZM247.085 210.734V204.189H248.056V205.178H248.124C248.244 204.854 248.46 204.591 248.772 204.389C249.085 204.187 249.437 204.087 249.829 204.087C249.903 204.087 249.995 204.088 250.106 204.091C250.217 204.094 250.3 204.098 250.357 204.104V205.126C250.323 205.118 250.245 205.105 250.123 205.088C250.004 205.068 249.877 205.058 249.744 205.058C249.425 205.058 249.141 205.125 248.891 205.259C248.644 205.389 248.448 205.571 248.303 205.804C248.161 206.034 248.09 206.297 248.09 206.592V210.734H247.085ZM256.186 205.655L255.282 205.911C255.225 205.76 255.142 205.614 255.031 205.472C254.923 205.327 254.775 205.207 254.588 205.114C254.4 205.02 254.16 204.973 253.868 204.973C253.467 204.973 253.133 205.065 252.866 205.25C252.602 205.432 252.47 205.663 252.47 205.945C252.47 206.195 252.561 206.392 252.743 206.537C252.924 206.682 253.208 206.803 253.595 206.899L254.566 207.138C255.152 207.28 255.588 207.497 255.875 207.79C256.162 208.08 256.305 208.453 256.305 208.911C256.305 209.286 256.197 209.621 255.981 209.916C255.768 210.212 255.47 210.445 255.086 210.615C254.703 210.786 254.257 210.871 253.748 210.871C253.081 210.871 252.528 210.726 252.091 210.436C251.653 210.146 251.376 209.723 251.26 209.166L252.214 208.928C252.305 209.28 252.477 209.544 252.73 209.72C252.985 209.896 253.319 209.984 253.731 209.984C254.2 209.984 254.572 209.885 254.848 209.686C255.126 209.484 255.265 209.243 255.265 208.962C255.265 208.734 255.186 208.544 255.027 208.391C254.868 208.234 254.623 208.118 254.294 208.041L253.203 207.786C252.603 207.643 252.163 207.423 251.882 207.125C251.603 206.824 251.464 206.447 251.464 205.996C251.464 205.626 251.568 205.3 251.775 205.016C251.985 204.732 252.271 204.509 252.632 204.347C252.995 204.185 253.407 204.104 253.868 204.104C254.515 204.104 255.024 204.246 255.393 204.53C255.765 204.814 256.029 205.189 256.186 205.655Z" fill="black"/>
<path d="M276.5 243.266H41.5C40.1193 243.266 39 244.385 39 245.766V246.766C39 248.146 40.1193 249.266 41.5 249.266H276.5C277.881 249.266 279 248.146 279 246.766V245.766C279 244.385 277.881 243.266 276.5 243.266Z" fill="#555555" stroke="#555555"/>
<path d="M200.5 269.266H117.5C110.596 269.266 105 274.862 105 281.766V290.898C105 297.802 110.596 303.398 117.5 303.398H200.5C207.404 303.398 213 297.802 213 290.898V281.766C213 274.862 207.404 269.266 200.5 269.266Z" fill="#F1F1F1" stroke="#181818" stroke-width="0.5"/>
<path d="M120.83 284.322C120.778 283.89 120.571 283.555 120.207 283.316C119.844 283.077 119.398 282.958 118.869 282.958C118.483 282.958 118.145 283.021 117.855 283.146C117.568 283.271 117.344 283.442 117.182 283.661C117.023 283.88 116.943 284.129 116.943 284.407C116.943 284.64 116.999 284.84 117.109 285.008C117.223 285.173 117.368 285.31 117.544 285.421C117.72 285.529 117.905 285.619 118.098 285.69C118.291 285.758 118.469 285.813 118.631 285.856L119.517 286.094C119.744 286.154 119.997 286.237 120.276 286.342C120.557 286.447 120.825 286.59 121.081 286.772C121.339 286.951 121.553 287.181 121.72 287.462C121.888 287.744 121.972 288.089 121.972 288.498C121.972 288.969 121.848 289.396 121.601 289.776C121.357 290.157 120.999 290.46 120.527 290.684C120.058 290.908 119.489 291.021 118.818 291.021C118.193 291.021 117.652 290.92 117.195 290.718C116.74 290.516 116.382 290.235 116.121 289.874C115.862 289.513 115.716 289.094 115.682 288.617H116.773C116.801 288.947 116.912 289.219 117.105 289.435C117.301 289.648 117.548 289.808 117.847 289.913C118.148 290.015 118.472 290.066 118.818 290.066C119.222 290.066 119.584 290.001 119.905 289.87C120.226 289.737 120.48 289.552 120.668 289.316C120.855 289.077 120.949 288.799 120.949 288.481C120.949 288.191 120.868 287.955 120.706 287.773C120.544 287.592 120.331 287.444 120.067 287.33C119.803 287.217 119.517 287.117 119.21 287.032L118.136 286.725C117.455 286.529 116.915 286.249 116.517 285.886C116.119 285.522 115.92 285.046 115.92 284.458C115.92 283.969 116.053 283.543 116.317 283.18C116.584 282.813 116.942 282.529 117.391 282.327C117.842 282.123 118.347 282.021 118.903 282.021C119.466 282.021 119.966 282.121 120.403 282.323C120.841 282.522 121.188 282.795 121.443 283.141C121.702 283.488 121.838 283.881 121.852 284.322H120.83ZM126.317 291.004C125.686 291.004 125.142 290.864 124.685 290.586C124.23 290.305 123.88 289.913 123.632 289.41C123.388 288.904 123.266 288.316 123.266 287.646C123.266 286.975 123.388 286.384 123.632 285.873C123.88 285.359 124.223 284.958 124.664 284.671C125.107 284.381 125.624 284.237 126.215 284.237C126.556 284.237 126.892 284.293 127.225 284.407C127.557 284.521 127.86 284.705 128.132 284.961C128.405 285.214 128.623 285.549 128.784 285.967C128.946 286.384 129.027 286.898 129.027 287.509V287.935H123.982V287.066H128.005C128.005 286.697 127.931 286.367 127.783 286.077C127.638 285.788 127.431 285.559 127.161 285.391C126.894 285.224 126.578 285.14 126.215 285.14C125.814 285.14 125.468 285.239 125.175 285.438C124.885 285.634 124.662 285.89 124.506 286.205C124.35 286.521 124.272 286.859 124.272 287.219V287.799C124.272 288.293 124.357 288.712 124.527 289.056C124.701 289.397 124.941 289.657 125.248 289.836C125.554 290.012 125.911 290.1 126.317 290.1C126.581 290.1 126.82 290.063 127.033 289.989C127.249 289.913 127.435 289.799 127.591 289.648C127.748 289.495 127.868 289.305 127.953 289.077L128.925 289.35C128.823 289.68 128.651 289.969 128.409 290.219C128.168 290.467 127.87 290.66 127.515 290.799C127.159 290.935 126.76 291.004 126.317 291.004ZM136.404 291.004C135.858 291.004 135.377 290.866 134.959 290.59C134.542 290.312 134.215 289.92 133.979 289.414C133.743 288.906 133.625 288.305 133.625 287.612C133.625 286.924 133.743 286.327 133.979 285.822C134.215 285.316 134.543 284.925 134.963 284.65C135.384 284.374 135.87 284.237 136.421 284.237C136.847 284.237 137.184 284.308 137.431 284.45C137.681 284.589 137.871 284.748 138.002 284.927C138.135 285.103 138.239 285.248 138.313 285.362H138.398V282.14H139.404V290.867H138.432V289.862H138.313C138.239 289.981 138.134 290.131 137.998 290.313C137.861 290.492 137.667 290.653 137.414 290.795C137.161 290.934 136.824 291.004 136.404 291.004ZM136.54 290.1C136.944 290.1 137.284 289.995 137.563 289.785C137.841 289.572 138.053 289.278 138.198 288.903C138.343 288.525 138.415 288.089 138.415 287.594C138.415 287.106 138.344 286.678 138.202 286.312C138.06 285.942 137.85 285.656 137.571 285.451C137.293 285.244 136.949 285.14 136.54 285.14C136.114 285.14 135.759 285.249 135.475 285.468C135.194 285.684 134.982 285.978 134.84 286.35C134.701 286.719 134.631 287.134 134.631 287.594C134.631 288.06 134.702 288.484 134.844 288.864C134.989 289.242 135.202 289.543 135.483 289.768C135.767 289.989 136.12 290.1 136.54 290.1ZM144.13 291.004C143.499 291.004 142.955 290.864 142.498 290.586C142.043 290.305 141.692 289.913 141.445 289.41C141.201 288.904 141.078 288.316 141.078 287.646C141.078 286.975 141.201 286.384 141.445 285.873C141.692 285.359 142.036 284.958 142.476 284.671C142.919 284.381 143.436 284.237 144.027 284.237C144.368 284.237 144.705 284.293 145.037 284.407C145.37 284.521 145.672 284.705 145.945 284.961C146.218 285.214 146.435 285.549 146.597 285.967C146.759 286.384 146.84 286.898 146.84 287.509V287.935H141.794V287.066H145.817C145.817 286.697 145.743 286.367 145.596 286.077C145.451 285.788 145.243 285.559 144.973 285.391C144.706 285.224 144.391 285.14 144.027 285.14C143.627 285.14 143.28 285.239 142.988 285.438C142.698 285.634 142.475 285.89 142.319 286.205C142.162 286.521 142.084 286.859 142.084 287.219V287.799C142.084 288.293 142.169 288.712 142.34 289.056C142.513 289.397 142.753 289.657 143.06 289.836C143.367 290.012 143.723 290.1 144.13 290.1C144.394 290.1 144.632 290.063 144.846 289.989C145.061 289.913 145.248 289.799 145.404 289.648C145.56 289.495 145.681 289.305 145.766 289.077L146.738 289.35C146.635 289.68 146.463 289.969 146.222 290.219C145.98 290.467 145.682 290.66 145.327 290.799C144.972 290.935 144.573 291.004 144.13 291.004ZM143.516 283.435L144.556 281.458H145.732L144.402 283.435H143.516ZM151.029 291.004C150.415 291.004 149.887 290.859 149.444 290.569C149 290.279 148.659 289.88 148.421 289.371C148.182 288.863 148.063 288.282 148.063 287.629C148.063 286.964 148.185 286.377 148.429 285.869C148.676 285.357 149.02 284.958 149.461 284.671C149.904 284.381 150.421 284.237 151.012 284.237C151.472 284.237 151.887 284.322 152.256 284.492C152.625 284.663 152.928 284.901 153.164 285.208C153.4 285.515 153.546 285.873 153.603 286.282H152.597C152.52 285.984 152.35 285.719 152.086 285.489C151.824 285.256 151.472 285.14 151.029 285.14C150.637 285.14 150.293 285.242 149.998 285.447C149.705 285.648 149.476 285.934 149.311 286.303C149.15 286.67 149.069 287.1 149.069 287.594C149.069 288.1 149.148 288.54 149.307 288.915C149.469 289.29 149.696 289.582 149.989 289.789C150.284 289.996 150.631 290.1 151.029 290.1C151.29 290.1 151.527 290.055 151.74 289.964C151.953 289.873 152.134 289.742 152.282 289.572C152.429 289.401 152.534 289.197 152.597 288.958H153.603C153.546 289.344 153.405 289.692 153.181 290.002C152.959 290.309 152.665 290.553 152.299 290.735C151.935 290.914 151.512 291.004 151.029 291.004ZM157.732 291.004C157.141 291.004 156.623 290.863 156.176 290.582C155.733 290.3 155.387 289.907 155.137 289.401C154.89 288.896 154.766 288.305 154.766 287.629C154.766 286.947 154.89 286.352 155.137 285.843C155.387 285.335 155.733 284.94 156.176 284.658C156.623 284.377 157.141 284.237 157.732 284.237C158.323 284.237 158.84 284.377 159.283 284.658C159.729 284.94 160.076 285.335 160.323 285.843C160.573 286.352 160.698 286.947 160.698 287.629C160.698 288.305 160.573 288.896 160.323 289.401C160.076 289.907 159.729 290.3 159.283 290.582C158.84 290.863 158.323 291.004 157.732 291.004ZM157.732 290.1C158.181 290.1 158.55 289.985 158.84 289.755C159.13 289.525 159.344 289.222 159.483 288.847C159.623 288.472 159.692 288.066 159.692 287.629C159.692 287.191 159.623 286.783 159.483 286.406C159.344 286.028 159.13 285.722 158.84 285.489C158.55 285.256 158.181 285.14 157.732 285.14C157.283 285.14 156.914 285.256 156.624 285.489C156.334 285.722 156.12 286.028 155.98 286.406C155.841 286.783 155.772 287.191 155.772 287.629C155.772 288.066 155.841 288.472 155.98 288.847C156.12 289.222 156.334 289.525 156.624 289.755C156.914 289.985 157.283 290.1 157.732 290.1ZM163.239 286.93V290.867H162.233V284.322H163.205V285.344H163.29C163.443 285.012 163.676 284.745 163.989 284.543C164.301 284.339 164.705 284.237 165.199 284.237C165.642 284.237 166.03 284.327 166.362 284.509C166.695 284.688 166.953 284.961 167.138 285.327C167.322 285.691 167.415 286.151 167.415 286.708V290.867H166.409V286.776C166.409 286.262 166.276 285.862 166.009 285.575C165.741 285.285 165.375 285.14 164.909 285.14C164.588 285.14 164.301 285.21 164.048 285.349C163.798 285.488 163.601 285.691 163.456 285.958C163.311 286.225 163.239 286.549 163.239 286.93ZM170.258 286.93V290.867H169.252V284.322H170.224V285.344H170.309C170.463 285.012 170.696 284.745 171.008 284.543C171.321 284.339 171.724 284.237 172.218 284.237C172.662 284.237 173.049 284.327 173.382 284.509C173.714 284.688 173.973 284.961 174.157 285.327C174.342 285.691 174.434 286.151 174.434 286.708V290.867H173.429V286.776C173.429 286.262 173.295 285.862 173.028 285.575C172.761 285.285 172.395 285.14 171.929 285.14C171.608 285.14 171.321 285.21 171.068 285.349C170.818 285.488 170.62 285.691 170.475 285.958C170.331 286.225 170.258 286.549 170.258 286.93ZM179.016 291.004C178.386 291.004 177.842 290.864 177.384 290.586C176.93 290.305 176.579 289.913 176.332 289.41C176.087 288.904 175.965 288.316 175.965 287.646C175.965 286.975 176.087 286.384 176.332 285.873C176.579 285.359 176.923 284.958 177.363 284.671C177.806 284.381 178.323 284.237 178.914 284.237C179.255 284.237 179.592 284.293 179.924 284.407C180.256 284.521 180.559 284.705 180.832 284.961C181.104 285.214 181.322 285.549 181.484 285.967C181.646 286.384 181.727 286.898 181.727 287.509V287.935H176.681V287.066H180.704C180.704 286.697 180.63 286.367 180.482 286.077C180.337 285.788 180.13 285.559 179.86 285.391C179.593 285.224 179.278 285.14 178.914 285.14C178.513 285.14 178.167 285.239 177.874 285.438C177.585 285.634 177.362 285.89 177.205 286.205C177.049 286.521 176.971 286.859 176.971 287.219V287.799C176.971 288.293 177.056 288.712 177.227 289.056C177.4 289.397 177.64 289.657 177.947 289.836C178.254 290.012 178.61 290.1 179.016 290.1C179.281 290.1 179.519 290.063 179.732 289.989C179.948 289.913 180.134 289.799 180.29 289.648C180.447 289.495 180.567 289.305 180.653 289.077L181.624 289.35C181.522 289.68 181.35 289.969 181.109 290.219C180.867 290.467 180.569 290.66 180.214 290.799C179.859 290.935 179.46 291.004 179.016 291.004ZM185.915 291.004C185.302 291.004 184.773 290.859 184.33 290.569C183.887 290.279 183.546 289.88 183.308 289.371C183.069 288.863 182.95 288.282 182.95 287.629C182.95 286.964 183.072 286.377 183.316 285.869C183.563 285.357 183.907 284.958 184.347 284.671C184.79 284.381 185.308 284.237 185.898 284.237C186.359 284.237 186.773 284.322 187.143 284.492C187.512 284.663 187.815 284.901 188.05 285.208C188.286 285.515 188.433 285.873 188.489 286.282H187.484C187.407 285.984 187.237 285.719 186.972 285.489C186.711 285.256 186.359 285.14 185.915 285.14C185.523 285.14 185.18 285.242 184.884 285.447C184.592 285.648 184.363 285.934 184.198 286.303C184.036 286.67 183.955 287.1 183.955 287.594C183.955 288.1 184.035 288.54 184.194 288.915C184.356 289.29 184.583 289.582 184.876 289.789C185.171 289.996 185.518 290.1 185.915 290.1C186.177 290.1 186.414 290.055 186.627 289.964C186.84 289.873 187.021 289.742 187.168 289.572C187.316 289.401 187.421 289.197 187.484 288.958H188.489C188.433 289.344 188.292 289.692 188.067 290.002C187.846 290.309 187.552 290.553 187.185 290.735C186.822 290.914 186.398 291.004 185.915 291.004ZM192.806 284.322V285.174H189.414V284.322H192.806ZM190.403 282.754H191.408V288.992C191.408 289.276 191.45 289.489 191.532 289.631C191.617 289.771 191.725 289.864 191.856 289.913C191.989 289.958 192.13 289.981 192.278 289.981C192.388 289.981 192.479 289.975 192.55 289.964C192.621 289.95 192.678 289.938 192.721 289.93L192.925 290.833C192.857 290.859 192.762 290.884 192.64 290.91C192.518 290.938 192.363 290.952 192.175 290.952C191.891 290.952 191.613 290.891 191.34 290.769C191.07 290.647 190.846 290.461 190.667 290.211C190.491 289.961 190.403 289.646 190.403 289.265V282.754ZM196.993 291.004C196.362 291.004 195.818 290.864 195.361 290.586C194.906 290.305 194.555 289.913 194.308 289.41C194.064 288.904 193.942 288.316 193.942 287.646C193.942 286.975 194.064 286.384 194.308 285.873C194.555 285.359 194.899 284.958 195.339 284.671C195.783 284.381 196.3 284.237 196.891 284.237C197.232 284.237 197.568 284.293 197.901 284.407C198.233 284.521 198.536 284.705 198.808 284.961C199.081 285.214 199.298 285.549 199.46 285.967C199.622 286.384 199.703 286.898 199.703 287.509V287.935H194.658V287.066H198.68C198.68 286.697 198.607 286.367 198.459 286.077C198.314 285.788 198.107 285.559 197.837 285.391C197.57 285.224 197.254 285.14 196.891 285.14C196.49 285.14 196.143 285.239 195.851 285.438C195.561 285.634 195.338 285.89 195.182 286.205C195.026 286.521 194.947 286.859 194.947 287.219V287.799C194.947 288.293 195.033 288.712 195.203 289.056C195.376 289.397 195.616 289.657 195.923 289.836C196.23 290.012 196.587 290.1 196.993 290.1C197.257 290.1 197.496 290.063 197.709 289.989C197.925 289.913 198.111 289.799 198.267 289.648C198.423 289.495 198.544 289.305 198.629 289.077L199.601 289.35C199.499 289.68 199.327 289.969 199.085 290.219C198.844 290.467 198.545 290.66 198.19 290.799C197.835 290.935 197.436 291.004 196.993 291.004ZM201.233 290.867V284.322H202.205V285.31H202.273C202.392 284.987 202.608 284.724 202.92 284.522C203.233 284.32 203.585 284.219 203.977 284.219C204.051 284.219 204.143 284.221 204.254 284.224C204.365 284.227 204.449 284.231 204.506 284.237V285.259C204.472 285.251 204.393 285.238 204.271 285.221C204.152 285.201 204.026 285.191 203.892 285.191C203.574 285.191 203.29 285.258 203.04 285.391C202.793 285.522 202.597 285.704 202.452 285.937C202.31 286.167 202.239 286.43 202.239 286.725V290.867H201.233Z" fill="black"/>
<path d="M159 345.398C165.075 345.398 170 340.474 170 334.398C170 328.323 165.075 323.398 159 323.398C152.925 323.398 148 328.323 148 334.398C148 340.474 152.925 345.398 159 345.398Z" stroke="#222222"/>
<path d="M159 340.398C162.314 340.398 165 337.712 165 334.398C165 331.085 162.314 328.398 159 328.398C155.686 328.398 153 331.085 153 334.398C153 337.712 155.686 340.398 159 340.398Z" fill="#222222" stroke="#111111"/>
<path d="M159 89V109" stroke="#181818"/>
<path d="M155 99L159 109L163 99L159 103L155 99Z" fill="#181818" stroke="#181818"/>
<path d="M89 169.133V189.133" stroke="#181818"/>
<path d="M85 179.133L89 189.133L93 179.133L89 183.133L85 179.133Z" fill="#181818" stroke="#181818"/>
<path d="M211 169.133V189.133" stroke="#181818"/>
<path d="M207 179.133L211 189.133L215 179.133L211 183.133L207 179.133Z" fill="#181818" stroke="#181818"/>
<path d="M89 223.266V243.266" stroke="#181818"/>
<path d="M85 233.266L89 243.266L93 233.266L89 237.266L85 233.266Z" fill="#181818" stroke="#181818"/>
<path d="M211 223.266V243.266" stroke="#181818"/>
<path d="M207 233.266L211 243.266L215 233.266L211 237.266L207 233.266Z" fill="#181818" stroke="#181818"/>
<path d="M159 143.133V163.133" stroke="#181818"/>
<path d="M155 153.133L159 163.133L163 153.133L159 157.133L155 153.133Z" fill="#181818" stroke="#181818"/>
<path d="M159 249.266V269.266" stroke="#181818"/>
<path d="M155 259.266L159 269.266L163 259.266L159 263.266L155 259.266Z" fill="#181818" stroke="#181818"/>
<path d="M159 303.398V323.398" stroke="#181818"/>
<path d="M155 313.398L159 323.398L163 313.398L159 317.398L155 313.398Z" fill="#181818" stroke="#181818"/>
</svg>
