<?plantuml 1.2026.2?><svg xmlns="http://www.w3.org/2000/svg" xmlns:xlink="http://www.w3.org/1999/xlink" contentStyleType="text/css" data-diagram-type="CLASS" height="103px" preserveAspectRatio="none" style="width:391px;height:103px;background:#FFFFFF;" version="1.1" viewBox="0 0 391 103" width="391px" zoomAndPan="magnify"><defs/><g><!--cluster Rejoindre une r?union--><g class="cluster" data-qualified-name="Rejoindre une r.union" data-source-line="2" id="ent0002"><rect fill="none" height="90" rx="2.5" ry="2.5" style="stroke:#181818;stroke-width:1;" width="378" x="7" y="7"/><text fill="#000000" font-family="sans-serif" font-size="14" font-weight="bold" lengthAdjust="spacing" textLength="148.5654" x="121.7173" y="23.5332">Rejoindre une r&#233;union</text></g><g class="entity" data-qualified-name="Rejoindre une r.union.Navigateur" data-source-line="3" id="ent0003"><rect fill="#F1F1F1" height="37.6094" rx="2.5" ry="2.5" style="stroke:#181818;stroke-width:0.5;" width="85.5928" x="283" y="43"/><text fill="#000000" font-family="sans-serif" font-size="14" lengthAdjust="spacing" textLength="71.5928" x="290" y="59.5332">:Navigateur</text><line style="stroke:#181818;stroke-width:0.5;" x1="284" x2="367.5928" y1="64.6094" y2="64.6094"/></g><g class="entity" data-qualified-name="Rejoindre une r.union.Serveur" data-source-line="4" id="ent0004"><rect fill="#F1F1F1" height="37.6094" rx="2.5" ry="2.5" style="stroke:#181818;stroke-width:0.5;" width="66.9102" x="23.5" y="43"/><text fill="#000000" font-family="sans-serif" font-size="14" lengthAdjust="spacing" textLength="52.9102" x="30.5" y="59.5332">:Serveur</text><line style="stroke:#181818;stroke-width:0.5;" x1="24.5" x2="89.4102" y1="64.6094" y2="64.6094"/></g><!--link Navigateur to Serveur--><g class="link" data-entity-1="ent0003" data-entity-2="ent0004" data-link-type="dependency" data-source-line="6" id="lnk5"><path codeLine="6" d="M282.7,75.93 C271.74,78.86 259.91,81.51 248.75,83 C194.12,90.29 179.24,91.25 124.75,83 C113.43,81.29 107.1041,79.8802 96.3641,76.4402" fill="none" id="Navigateur-to-Serveur" style="stroke:#181818;stroke-width:1;"/><polygon fill="#181818" points="90.65,74.61,98.0009,81.1647,95.4117,76.1352,100.4412,73.5459,90.65,74.61" style="stroke:#181818;stroke-width:1;"/><text fill="#000000" font-family="sans-serif" font-size="13" lengthAdjust="spacing" textLength="122.1226" x="125.75" y="79.4951">1: rejoindreR&#233;union()</text></g><!--link Serveur to Navigateur--><g class="link" data-entity-1="ent0004" data-entity-2="ent0003" data-link-type="dependency" data-source-line="7" id="lnk6"><path codeLine="7" d="M90.53,62 C139.12,62 223.14,62 276.7,62" fill="none" id="Serveur-to-Navigateur" style="stroke:#181818;stroke-width:1;"/><polygon fill="#181818" points="282.7,62,273.7,58,277.7,62,273.7,66,282.7,62" style="stroke:#181818;stroke-width:1;"/><text fill="#000000" font-family="sans-serif" font-size="13" lengthAdjust="spacing" textLength="156.0762" x="108.75" y="55.4951">2: confirmationConnexion()</text></g><?plantuml-src AqfDBadCIyz9LL0AIitApynBAKfLACrBLIWwlB8qBpC_JqcXcai12FAJie1A5PIi_1BBCjCJIr9BYvGK4eiL45nKPS6fHMKmDL0s5rW5GeE2hXrCIi5AmT1AeGZcWY2evHgQO2qmHRf03KZQhHICh1IIy_FICejo4qk0oftpy_9IAo3wQha0?></g></svg>