<svg width="361" height="241" viewBox="0 0 361 241" fill="none" xmlns="http://www.w3.org/2000/svg">
<path d="M0.5 0.5H120.5V15.5L110.5 30.5H0.5V0.5Z" fill="white" stroke="black" stroke-miterlimit="10"/>
<path d="M120.5 0.5H360.5V240.5H0.5V30.5" stroke="black" stroke-miterlimit="10"/>
<path d="M25.3672 14.3359C25.9141 14.3359 26.3457 14.2266 26.6621 14.0078C26.9824 13.7891 27.1426 13.3945 27.1426 12.8242C27.1426 12.2109 26.9199 11.793 26.4746 11.5703C26.2363 11.4531 25.918 11.3945 25.5195 11.3945H22.6719V14.3359H25.3672ZM21.5059 10.3926H25.4902C26.1465 10.3926 26.6875 10.4883 27.1133 10.6797C27.9219 11.0469 28.3262 11.7246 28.3262 12.7129C28.3262 13.2285 28.2188 13.6504 28.0039 13.9785C27.793 14.3066 27.4961 14.5703 27.1133 14.7695C27.4492 14.9062 27.7012 15.0859 27.8691 15.3086C28.041 15.5312 28.1367 15.8926 28.1562 16.3926L28.1973 17.5469C28.209 17.875 28.2363 18.1191 28.2793 18.2793C28.3496 18.5527 28.4746 18.7285 28.6543 18.8066V19H27.2246C27.1855 18.9258 27.1543 18.8301 27.1309 18.7129C27.1074 18.5957 27.0879 18.3691 27.0723 18.0332L27.002 16.5977C26.9746 16.0352 26.7656 15.6582 26.375 15.4668C26.1523 15.3613 25.8027 15.3086 25.3262 15.3086H22.6719V19H21.5059V10.3926ZM32.5098 12.584C32.9551 12.584 33.3867 12.6895 33.8047 12.9004C34.2227 13.1074 34.541 13.377 34.7598 13.709C34.9707 14.0254 35.1113 14.3945 35.1816 14.8164C35.2441 15.1055 35.2754 15.5664 35.2754 16.1992H30.6758C30.6953 16.8359 30.8457 17.3477 31.127 17.7344C31.4082 18.1172 31.8438 18.3086 32.4336 18.3086C32.9844 18.3086 33.4238 18.127 33.752 17.7637C33.9395 17.5527 34.0723 17.3086 34.1504 17.0312H35.1875C35.1602 17.2617 35.0684 17.5195 34.9121 17.8047C34.7598 18.0859 34.5879 18.3164 34.3965 18.4961C34.0762 18.8086 33.6797 19.0195 33.207 19.1289C32.9531 19.1914 32.666 19.2227 32.3457 19.2227C31.5645 19.2227 30.9023 18.9395 30.3594 18.373C29.8164 17.8027 29.5449 17.0059 29.5449 15.9824C29.5449 14.9746 29.8184 14.1562 30.3652 13.5273C30.9121 12.8984 31.627 12.584 32.5098 12.584ZM34.1914 15.3613C34.1484 14.9043 34.0488 14.5391 33.8926 14.2656C33.6035 13.7578 33.1211 13.5039 32.4453 13.5039C31.9609 13.5039 31.5547 13.6797 31.2266 14.0312C30.8984 14.3789 30.7246 14.8223 30.7051 15.3613H34.1914ZM37.2559 15.9473C37.2559 16.4902 37.332 16.9453 37.4844 17.3125C37.7539 17.9648 38.2363 18.291 38.9316 18.291C39.666 18.291 40.1719 17.9473 40.4492 17.2598C40.6016 16.8809 40.6777 16.3965 40.6777 15.8066C40.6777 15.2637 40.5938 14.8105 40.4258 14.4473C40.1406 13.8262 39.6387 13.5156 38.9199 13.5156C38.4629 13.5156 38.0703 13.7148 37.7422 14.1133C37.418 14.5078 37.2559 15.1191 37.2559 15.9473ZM38.8145 12.584C39.334 12.584 39.7715 12.7148 40.127 12.9766C40.3223 13.1172 40.5098 13.3242 40.6895 13.5977V12.7246H41.6914V21.502H40.6309V18.2793C40.4551 18.5605 40.2109 18.7852 39.8984 18.9531C39.5898 19.1172 39.2031 19.1992 38.7383 19.1992C38.0703 19.1992 37.4727 18.9375 36.9453 18.4141C36.418 17.8906 36.1543 17.0938 36.1543 16.0234C36.1543 15.0195 36.4004 14.1953 36.8926 13.5508C37.3887 12.9062 38.0293 12.584 38.8145 12.584ZM44.3105 12.7246V16.8906C44.3105 17.2109 44.3613 17.4727 44.4629 17.6758C44.6504 18.0508 45 18.2383 45.5117 18.2383C46.2461 18.2383 46.7461 17.9102 47.0117 17.2539C47.1562 16.9023 47.2285 16.4199 47.2285 15.8066V12.7246H48.2832V19H47.2871L47.2988 18.0742C47.1621 18.3125 46.9922 18.5137 46.7891 18.6777C46.3867 19.0059 45.8984 19.1699 45.3242 19.1699C44.4297 19.1699 43.8203 18.8711 43.4961 18.2734C43.3203 17.9531 43.2324 17.5254 43.2324 16.9902V12.7246H44.3105ZM52.5488 12.584C52.9941 12.584 53.4258 12.6895 53.8438 12.9004C54.2617 13.1074 54.5801 13.377 54.7988 13.709C55.0098 14.0254 55.1504 14.3945 55.2207 14.8164C55.2832 15.1055 55.3145 15.5664 55.3145 16.1992H50.7148C50.7344 16.8359 50.8848 17.3477 51.166 17.7344C51.4473 18.1172 51.8828 18.3086 52.4727 18.3086C53.0234 18.3086 53.4629 18.127 53.791 17.7637C53.9785 17.5527 54.1113 17.3086 54.1895 17.0312H55.2266C55.1992 17.2617 55.1074 17.5195 54.9512 17.8047C54.7988 18.0859 54.627 18.3164 54.4355 18.4961C54.1152 18.8086 53.7188 19.0195 53.2461 19.1289C52.9922 19.1914 52.7051 19.2227 52.3848 19.2227C51.6035 19.2227 50.9414 18.9395 50.3984 18.373C49.8555 17.8027 49.584 17.0059 49.584 15.9824C49.584 14.9746 49.8574 14.1562 50.4043 13.5273C50.9512 12.8984 51.666 12.584 52.5488 12.584ZM54.2305 15.3613C54.1875 14.9043 54.0879 14.5391 53.9316 14.2656C53.6426 13.7578 53.1602 13.5039 52.4844 13.5039C52 13.5039 51.5938 13.6797 51.2656 14.0312C50.9375 14.3789 50.7637 14.8223 50.7441 15.3613H54.2305ZM53.1523 10.1992L54.3477 11.8926H53.3867L52.5957 10.7676L51.8047 11.8926H50.8496L52.0391 10.1992H53.1523ZM56.8262 10.9727H57.8926V12.7246H58.8945V13.5859H57.8926V17.6816C57.8926 17.9004 57.9668 18.0469 58.1152 18.1211C58.1973 18.1641 58.334 18.1855 58.5254 18.1855C58.5762 18.1855 58.6309 18.1855 58.6895 18.1855C58.748 18.1816 58.8164 18.1758 58.8945 18.168V19C58.7734 19.0352 58.6465 19.0605 58.5137 19.0762C58.3848 19.0918 58.2441 19.0996 58.0918 19.0996C57.5996 19.0996 57.2656 18.9746 57.0898 18.7246C56.9141 18.4707 56.8262 18.1426 56.8262 17.7402V13.5859H55.9766V12.7246H56.8262V10.9727ZM62.5684 12.584C63.0137 12.584 63.4453 12.6895 63.8633 12.9004C64.2812 13.1074 64.5996 13.377 64.8184 13.709C65.0293 14.0254 65.1699 14.3945 65.2402 14.8164C65.3027 15.1055 65.334 15.5664 65.334 16.1992H60.7344C60.7539 16.8359 60.9043 17.3477 61.1855 17.7344C61.4668 18.1172 61.9023 18.3086 62.4922 18.3086C63.043 18.3086 63.4824 18.127 63.8105 17.7637C63.998 17.5527 64.1309 17.3086 64.209 17.0312H65.2461C65.2188 17.2617 65.127 17.5195 64.9707 17.8047C64.8184 18.0859 64.6465 18.3164 64.4551 18.4961C64.1348 18.8086 63.7383 19.0195 63.2656 19.1289C63.0117 19.1914 62.7246 19.2227 62.4043 19.2227C61.623 19.2227 60.9609 18.9395 60.418 18.373C59.875 17.8027 59.6035 17.0059 59.6035 15.9824C59.6035 14.9746 59.877 14.1562 60.4238 13.5273C60.9707 12.8984 61.6855 12.584 62.5684 12.584ZM64.25 15.3613C64.207 14.9043 64.1074 14.5391 63.9512 14.2656C63.6621 13.7578 63.1797 13.5039 62.5039 13.5039C62.0195 13.5039 61.6133 13.6797 61.2852 14.0312C60.957 14.3789 60.7832 14.8223 60.7637 15.3613H64.25ZM70.1445 10.3926H71.3223V13.9492H75.7988V10.3926H76.9766V19H75.7988V14.9746H71.3223V19H70.1445V10.3926ZM85.0508 10.3926V11.418H82.1504V19H80.9668V11.418H78.0664V10.3926H85.0508ZM92.3867 10.3926V11.418H89.4863V19H88.3027V11.418H85.4023V10.3926H92.3867ZM93.5703 10.3926H97.4434C98.209 10.3926 98.8262 10.6094 99.2949 11.043C99.7637 11.4727 99.998 12.0781 99.998 12.8594C99.998 13.5312 99.7891 14.1172 99.3711 14.6172C98.9531 15.1133 98.3105 15.3613 97.4434 15.3613H94.7363V19H93.5703V10.3926ZM98.8203 12.8652C98.8203 12.2324 98.5859 11.8027 98.1172 11.5762C97.8594 11.4551 97.5059 11.3945 97.0566 11.3945H94.7363V14.377H97.0566C97.5801 14.377 98.0039 14.2656 98.3281 14.043C98.6562 13.8203 98.8203 13.4277 98.8203 12.8652Z" fill="black"/>
<path d="M160.5 40.5H60.5V80.5H160.5V40.5Z" fill="white" stroke="black"/>
<path d="M110.5 80.5V230.5" stroke="black" stroke-miterlimit="10" stroke-dasharray="3 3"/>
<path d="M80.6211 56.8066H81.8457V58.084H80.6211V56.8066ZM80.6211 61.7227H81.8457V63H80.6211V61.7227ZM83.5449 54.3926H84.9219L89.2695 61.3652V54.3926H90.377V63H89.0703L84.6582 56.0332V63H83.5449V54.3926ZM92.8848 61.3301C92.8848 61.6348 92.9961 61.875 93.2188 62.0508C93.4414 62.2266 93.7051 62.3145 94.0098 62.3145C94.3809 62.3145 94.7402 62.2285 95.0879 62.0566C95.6738 61.7715 95.9668 61.3047 95.9668 60.6562V59.8066C95.8379 59.8887 95.6719 59.957 95.4688 60.0117C95.2656 60.0664 95.0664 60.1055 94.8711 60.1289L94.2324 60.2109C93.8496 60.2617 93.5625 60.3418 93.3711 60.4512C93.0469 60.6348 92.8848 60.9277 92.8848 61.3301ZM95.4395 59.1973C95.6816 59.166 95.8438 59.0645 95.9258 58.8926C95.9727 58.7988 95.9961 58.6641 95.9961 58.4883C95.9961 58.1289 95.8672 57.8691 95.6094 57.709C95.3555 57.5449 94.9902 57.4629 94.5137 57.4629C93.9629 57.4629 93.5723 57.6113 93.3418 57.9082C93.2129 58.0723 93.1289 58.3164 93.0898 58.6406H92.1055C92.125 57.8672 92.375 57.3301 92.8555 57.0293C93.3398 56.7246 93.9004 56.5723 94.5371 56.5723C95.2754 56.5723 95.875 56.7129 96.3359 56.9941C96.793 57.2754 97.0215 57.7129 97.0215 58.3066V61.9219C97.0215 62.0312 97.043 62.1191 97.0859 62.1855C97.1328 62.252 97.2285 62.2852 97.373 62.2852C97.4199 62.2852 97.4727 62.2832 97.5312 62.2793C97.5898 62.2715 97.6523 62.2617 97.7188 62.25V63.0293C97.5547 63.0762 97.4297 63.1055 97.3438 63.1172C97.2578 63.1289 97.1406 63.1348 96.9922 63.1348C96.6289 63.1348 96.3652 63.0059 96.2012 62.748C96.1152 62.6113 96.0547 62.418 96.0195 62.168C95.8047 62.4492 95.4961 62.6934 95.0938 62.9004C94.6914 63.1074 94.248 63.2109 93.7637 63.2109C93.1816 63.2109 92.7051 63.0352 92.334 62.6836C91.9668 62.3281 91.7832 61.8848 91.7832 61.3535C91.7832 60.7715 91.9648 60.3203 92.3281 60C92.6914 59.6797 93.168 59.4824 93.7578 59.4082L95.4395 59.1973ZM99.2715 56.7246L100.947 61.834L102.699 56.7246H103.854L101.486 63H100.361L98.0469 56.7246H99.2715ZM104.756 56.7539H105.828V63H104.756V56.7539ZM104.756 54.3926H105.828V55.5879H104.756V54.3926ZM109.643 56.6133C110.135 56.6133 110.564 56.7344 110.932 56.9766C111.131 57.1133 111.334 57.3125 111.541 57.5742V56.7832H112.514V62.4902C112.514 63.2871 112.396 63.916 112.162 64.377C111.725 65.2285 110.898 65.6543 109.684 65.6543C109.008 65.6543 108.439 65.502 107.979 65.1973C107.518 64.8965 107.26 64.4238 107.205 63.7793H108.277C108.328 64.0605 108.43 64.2773 108.582 64.4297C108.82 64.6641 109.195 64.7812 109.707 64.7812C110.516 64.7812 111.045 64.4961 111.295 63.9258C111.443 63.5898 111.512 62.9902 111.5 62.127C111.289 62.4473 111.035 62.6855 110.738 62.8418C110.441 62.998 110.049 63.0762 109.561 63.0762C108.881 63.0762 108.285 62.8359 107.773 62.3555C107.266 61.8711 107.012 61.0723 107.012 59.959C107.012 58.9082 107.268 58.0879 107.779 57.498C108.295 56.9082 108.916 56.6133 109.643 56.6133ZM111.541 59.8359C111.541 59.0586 111.381 58.4824 111.061 58.1074C110.74 57.7324 110.332 57.5449 109.836 57.5449C109.094 57.5449 108.586 57.8926 108.312 58.5879C108.168 58.959 108.096 59.4453 108.096 60.0469C108.096 60.7539 108.238 61.293 108.523 61.6641C108.812 62.0312 109.199 62.2148 109.684 62.2148C110.441 62.2148 110.975 61.873 111.283 61.1895C111.455 60.8027 111.541 60.3516 111.541 59.8359ZM114.916 61.3301C114.916 61.6348 115.027 61.875 115.25 62.0508C115.473 62.2266 115.736 62.3145 116.041 62.3145C116.412 62.3145 116.771 62.2285 117.119 62.0566C117.705 61.7715 117.998 61.3047 117.998 60.6562V59.8066C117.869 59.8887 117.703 59.957 117.5 60.0117C117.297 60.0664 117.098 60.1055 116.902 60.1289L116.264 60.2109C115.881 60.2617 115.594 60.3418 115.402 60.4512C115.078 60.6348 114.916 60.9277 114.916 61.3301ZM117.471 59.1973C117.713 59.166 117.875 59.0645 117.957 58.8926C118.004 58.7988 118.027 58.6641 118.027 58.4883C118.027 58.1289 117.898 57.8691 117.641 57.709C117.387 57.5449 117.021 57.4629 116.545 57.4629C115.994 57.4629 115.604 57.6113 115.373 57.9082C115.244 58.0723 115.16 58.3164 115.121 58.6406H114.137C114.156 57.8672 114.406 57.3301 114.887 57.0293C115.371 56.7246 115.932 56.5723 116.568 56.5723C117.307 56.5723 117.906 56.7129 118.367 56.9941C118.824 57.2754 119.053 57.7129 119.053 58.3066V61.9219C119.053 62.0312 119.074 62.1191 119.117 62.1855C119.164 62.252 119.26 62.2852 119.404 62.2852C119.451 62.2852 119.504 62.2832 119.562 62.2793C119.621 62.2715 119.684 62.2617 119.75 62.25V63.0293C119.586 63.0762 119.461 63.1055 119.375 63.1172C119.289 63.1289 119.172 63.1348 119.023 63.1348C118.66 63.1348 118.396 63.0059 118.232 62.748C118.146 62.6113 118.086 62.418 118.051 62.168C117.836 62.4492 117.527 62.6934 117.125 62.9004C116.723 63.1074 116.279 63.2109 115.795 63.2109C115.213 63.2109 114.736 63.0352 114.365 62.6836C113.998 62.3281 113.814 61.8848 113.814 61.3535C113.814 60.7715 113.996 60.3203 114.359 60C114.723 59.6797 115.199 59.4824 115.789 59.4082L117.471 59.1973ZM120.998 54.9727H122.064V56.7246H123.066V57.5859H122.064V61.6816C122.064 61.9004 122.139 62.0469 122.287 62.1211C122.369 62.1641 122.506 62.1855 122.697 62.1855C122.748 62.1855 122.803 62.1855 122.861 62.1855C122.92 62.1816 122.988 62.1758 123.066 62.168V63C122.945 63.0352 122.818 63.0605 122.686 63.0762C122.557 63.0918 122.416 63.0996 122.264 63.0996C121.771 63.0996 121.438 62.9746 121.262 62.7246C121.086 62.4707 120.998 62.1426 120.998 61.7402V57.5859H120.148V56.7246H120.998V54.9727ZM126.74 56.584C127.186 56.584 127.617 56.6895 128.035 56.9004C128.453 57.1074 128.771 57.377 128.99 57.709C129.201 58.0254 129.342 58.3945 129.412 58.8164C129.475 59.1055 129.506 59.5664 129.506 60.1992H124.906C124.926 60.8359 125.076 61.3477 125.357 61.7344C125.639 62.1172 126.074 62.3086 126.664 62.3086C127.215 62.3086 127.654 62.127 127.982 61.7637C128.17 61.5527 128.303 61.3086 128.381 61.0312H129.418C129.391 61.2617 129.299 61.5195 129.143 61.8047C128.99 62.0859 128.818 62.3164 128.627 62.4961C128.307 62.8086 127.91 63.0195 127.438 63.1289C127.184 63.1914 126.896 63.2227 126.576 63.2227C125.795 63.2227 125.133 62.9395 124.59 62.373C124.047 61.8027 123.775 61.0059 123.775 59.9824C123.775 58.9746 124.049 58.1562 124.596 57.5273C125.143 56.8984 125.857 56.584 126.74 56.584ZM128.422 59.3613C128.379 58.9043 128.279 58.5391 128.123 58.2656C127.834 57.7578 127.352 57.5039 126.676 57.5039C126.191 57.5039 125.785 57.6797 125.457 58.0312C125.129 58.3789 124.955 58.8223 124.936 59.3613H128.422ZM131.861 56.7246V60.8906C131.861 61.2109 131.912 61.4727 132.014 61.6758C132.201 62.0508 132.551 62.2383 133.062 62.2383C133.797 62.2383 134.297 61.9102 134.562 61.2539C134.707 60.9023 134.779 60.4199 134.779 59.8066V56.7246H135.834V63H134.838L134.85 62.0742C134.713 62.3125 134.543 62.5137 134.34 62.6777C133.938 63.0059 133.449 63.1699 132.875 63.1699C131.98 63.1699 131.371 62.8711 131.047 62.2734C130.871 61.9531 130.783 61.5254 130.783 60.9902V56.7246H131.861ZM137.516 56.7246H138.518V57.8086C138.6 57.5977 138.801 57.3418 139.121 57.041C139.441 56.7363 139.811 56.584 140.229 56.584C140.248 56.584 140.281 56.5859 140.328 56.5898C140.375 56.5938 140.455 56.6016 140.568 56.6133V57.7266C140.506 57.7148 140.447 57.707 140.393 57.7031C140.342 57.6992 140.285 57.6973 140.223 57.6973C139.691 57.6973 139.283 57.8691 138.998 58.2129C138.713 58.5527 138.57 58.9453 138.57 59.3906V63H137.516V56.7246Z" fill="black"/>
<path d="M300.5 40.5H200.5V80.5H300.5V40.5Z" fill="white" stroke="black"/>
<path d="M250.5 80.5V230.5" stroke="black" stroke-miterlimit="10" stroke-dasharray="3 3"/>
<path d="M228.643 56.8066H229.867V58.084H228.643V56.8066ZM228.643 61.7227H229.867V63H228.643V61.7227ZM232.328 60.2227C232.355 60.7109 232.471 61.1074 232.674 61.4121C233.061 61.9824 233.742 62.2676 234.719 62.2676C235.156 62.2676 235.555 62.2051 235.914 62.0801C236.609 61.8379 236.957 61.4043 236.957 60.7793C236.957 60.3105 236.811 59.9766 236.518 59.7773C236.221 59.582 235.756 59.4121 235.123 59.2676L233.957 59.0039C233.195 58.832 232.656 58.6426 232.34 58.4355C231.793 58.0762 231.52 57.5391 231.52 56.8242C231.52 56.0508 231.787 55.416 232.322 54.9199C232.857 54.4238 233.615 54.1758 234.596 54.1758C235.498 54.1758 236.264 54.3945 236.893 54.832C237.525 55.2656 237.842 55.9609 237.842 56.918H236.746C236.688 56.457 236.562 56.1035 236.371 55.8574C236.016 55.4082 235.412 55.1836 234.561 55.1836C233.873 55.1836 233.379 55.3281 233.078 55.6172C232.777 55.9062 232.627 56.2422 232.627 56.625C232.627 57.0469 232.803 57.3555 233.154 57.5508C233.385 57.6758 233.906 57.832 234.719 58.0195L235.926 58.2949C236.508 58.4277 236.957 58.6094 237.273 58.8398C237.82 59.2422 238.094 59.8262 238.094 60.5918C238.094 61.5449 237.746 62.2266 237.051 62.6367C236.359 63.0469 235.555 63.252 234.637 63.252C233.566 63.252 232.729 62.9785 232.123 62.4316C231.518 61.8887 231.221 61.1523 231.232 60.2227H232.328ZM242.043 56.584C242.488 56.584 242.92 56.6895 243.338 56.9004C243.756 57.1074 244.074 57.377 244.293 57.709C244.504 58.0254 244.645 58.3945 244.715 58.8164C244.777 59.1055 244.809 59.5664 244.809 60.1992H240.209C240.229 60.8359 240.379 61.3477 240.66 61.7344C240.941 62.1172 241.377 62.3086 241.967 62.3086C242.518 62.3086 242.957 62.127 243.285 61.7637C243.473 61.5527 243.605 61.3086 243.684 61.0312H244.721C244.693 61.2617 244.602 61.5195 244.445 61.8047C244.293 62.0859 244.121 62.3164 243.93 62.4961C243.609 62.8086 243.213 63.0195 242.74 63.1289C242.486 63.1914 242.199 63.2227 241.879 63.2227C241.098 63.2227 240.436 62.9395 239.893 62.373C239.35 61.8027 239.078 61.0059 239.078 59.9824C239.078 58.9746 239.352 58.1562 239.898 57.5273C240.445 56.8984 241.16 56.584 242.043 56.584ZM243.725 59.3613C243.682 58.9043 243.582 58.5391 243.426 58.2656C243.137 57.7578 242.654 57.5039 241.979 57.5039C241.494 57.5039 241.088 57.6797 240.76 58.0312C240.432 58.3789 240.258 58.8223 240.238 59.3613H243.725ZM246.139 56.7246H247.141V57.8086C247.223 57.5977 247.424 57.3418 247.744 57.041C248.064 56.7363 248.434 56.584 248.852 56.584C248.871 56.584 248.904 56.5859 248.951 56.5898C248.998 56.5938 249.078 56.6016 249.191 56.6133V57.7266C249.129 57.7148 249.07 57.707 249.016 57.7031C248.965 57.6992 248.908 57.6973 248.846 57.6973C248.314 57.6973 247.906 57.8691 247.621 58.2129C247.336 58.5527 247.193 58.9453 247.193 59.3906V63H246.139V56.7246ZM250.621 56.7246L252.297 61.834L254.049 56.7246H255.203L252.836 63H251.711L249.396 56.7246H250.621ZM258.719 56.584C259.164 56.584 259.596 56.6895 260.014 56.9004C260.432 57.1074 260.75 57.377 260.969 57.709C261.18 58.0254 261.32 58.3945 261.391 58.8164C261.453 59.1055 261.484 59.5664 261.484 60.1992H256.885C256.904 60.8359 257.055 61.3477 257.336 61.7344C257.617 62.1172 258.053 62.3086 258.643 62.3086C259.193 62.3086 259.633 62.127 259.961 61.7637C260.148 61.5527 260.281 61.3086 260.359 61.0312H261.396C261.369 61.2617 261.277 61.5195 261.121 61.8047C260.969 62.0859 260.797 62.3164 260.605 62.4961C260.285 62.8086 259.889 63.0195 259.416 63.1289C259.162 63.1914 258.875 63.2227 258.555 63.2227C257.773 63.2227 257.111 62.9395 256.568 62.373C256.025 61.8027 255.754 61.0059 255.754 59.9824C255.754 58.9746 256.027 58.1562 256.574 57.5273C257.121 56.8984 257.836 56.584 258.719 56.584ZM260.4 59.3613C260.357 58.9043 260.258 58.5391 260.102 58.2656C259.812 57.7578 259.33 57.5039 258.654 57.5039C258.17 57.5039 257.764 57.6797 257.436 58.0312C257.107 58.3789 256.934 58.8223 256.914 59.3613H260.4ZM263.84 56.7246V60.8906C263.84 61.2109 263.891 61.4727 263.992 61.6758C264.18 62.0508 264.529 62.2383 265.041 62.2383C265.775 62.2383 266.275 61.9102 266.541 61.2539C266.686 60.9023 266.758 60.4199 266.758 59.8066V56.7246H267.812V63H266.816L266.828 62.0742C266.691 62.3125 266.521 62.5137 266.318 62.6777C265.916 63.0059 265.428 63.1699 264.854 63.1699C263.959 63.1699 263.35 62.8711 263.025 62.2734C262.85 61.9531 262.762 61.5254 262.762 60.9902V56.7246H263.84ZM269.494 56.7246H270.496V57.8086C270.578 57.5977 270.779 57.3418 271.1 57.041C271.42 56.7363 271.789 56.584 272.207 56.584C272.227 56.584 272.26 56.5859 272.307 56.5898C272.354 56.5938 272.434 56.6016 272.547 56.6133V57.7266C272.484 57.7148 272.426 57.707 272.371 57.7031C272.32 57.6992 272.264 57.6973 272.201 57.6973C271.67 57.6973 271.262 57.8691 270.977 58.2129C270.691 58.5527 270.549 58.9453 270.549 59.3906V63H269.494V56.7246Z" fill="black"/>
<path d="M255.5 110.5H245.5V190.5H255.5V110.5Z" fill="white" stroke="black"/>
<path d="M110.5 120.5L241.88 120.81" stroke="black" stroke-miterlimit="10"/>
<path d="M248.88 120.83L241.87 124.31L241.89 117.31L248.88 120.83Z" fill="black" stroke="black" stroke-miterlimit="10"/>
<path d="M148.224 110.248H149.142V111.241C149.217 111.048 149.402 110.813 149.695 110.538C149.989 110.258 150.327 110.119 150.71 110.119C150.728 110.119 150.759 110.12 150.802 110.124C150.845 110.128 150.918 110.135 151.022 110.146V111.166C150.965 111.155 150.911 111.148 150.861 111.145C150.814 111.141 150.762 111.139 150.705 111.139C150.218 111.139 149.844 111.297 149.583 111.612C149.321 111.923 149.19 112.283 149.19 112.691V116H148.224V110.248ZM154.255 110.119C154.664 110.119 155.059 110.215 155.442 110.409C155.826 110.598 156.117 110.846 156.318 111.15C156.511 111.44 156.64 111.778 156.705 112.165C156.762 112.43 156.791 112.853 156.791 113.433H152.574C152.592 114.016 152.73 114.485 152.988 114.84C153.246 115.191 153.645 115.366 154.186 115.366C154.69 115.366 155.093 115.2 155.394 114.867C155.566 114.673 155.688 114.45 155.759 114.195H156.71C156.685 114.407 156.601 114.643 156.458 114.904C156.318 115.162 156.16 115.373 155.985 115.538C155.691 115.825 155.328 116.018 154.895 116.118C154.662 116.175 154.399 116.204 154.105 116.204C153.389 116.204 152.782 115.944 152.284 115.425C151.786 114.903 151.538 114.172 151.538 113.234C151.538 112.31 151.788 111.56 152.29 110.983C152.791 110.407 153.446 110.119 154.255 110.119ZM155.797 112.665C155.757 112.246 155.666 111.911 155.523 111.66C155.258 111.195 154.816 110.962 154.196 110.962C153.752 110.962 153.38 111.123 153.079 111.445C152.778 111.764 152.619 112.17 152.601 112.665H155.797ZM158.606 113.202C158.606 113.699 158.676 114.117 158.815 114.453C159.062 115.051 159.505 115.35 160.142 115.35C160.815 115.35 161.279 115.035 161.533 114.405C161.673 114.057 161.743 113.613 161.743 113.073C161.743 112.575 161.666 112.16 161.512 111.827C161.25 111.257 160.79 110.973 160.131 110.973C159.712 110.973 159.353 111.155 159.052 111.521C158.755 111.882 158.606 112.443 158.606 113.202ZM160.035 110.119C160.511 110.119 160.912 110.239 161.238 110.479C161.417 110.607 161.589 110.797 161.753 111.048V110.248H162.672V118.293H161.7V115.339C161.539 115.597 161.315 115.803 161.028 115.957C160.745 116.107 160.391 116.183 159.965 116.183C159.353 116.183 158.805 115.943 158.321 115.463C157.838 114.983 157.596 114.253 157.596 113.271C157.596 112.351 157.822 111.596 158.273 111.005C158.728 110.414 159.315 110.119 160.035 110.119ZM165.073 110.248V114.066C165.073 114.36 165.119 114.6 165.212 114.786C165.384 115.13 165.705 115.302 166.174 115.302C166.847 115.302 167.305 115.001 167.549 114.399C167.681 114.077 167.748 113.635 167.748 113.073V110.248H168.714V116H167.801L167.812 115.151C167.687 115.37 167.531 115.554 167.345 115.705C166.976 116.005 166.528 116.156 166.002 116.156C165.182 116.156 164.623 115.882 164.326 115.334C164.165 115.04 164.084 114.648 164.084 114.158V110.248H165.073ZM172.625 110.119C173.033 110.119 173.428 110.215 173.812 110.409C174.195 110.598 174.486 110.846 174.687 111.15C174.88 111.44 175.009 111.778 175.074 112.165C175.131 112.43 175.16 112.853 175.16 113.433H170.943C170.961 114.016 171.099 114.485 171.357 114.84C171.615 115.191 172.014 115.366 172.555 115.366C173.06 115.366 173.462 115.2 173.763 114.867C173.935 114.673 174.057 114.45 174.128 114.195H175.079C175.054 114.407 174.97 114.643 174.827 114.904C174.687 115.162 174.529 115.373 174.354 115.538C174.06 115.825 173.697 116.018 173.264 116.118C173.031 116.175 172.768 116.204 172.474 116.204C171.758 116.204 171.151 115.944 170.653 115.425C170.156 114.903 169.907 114.172 169.907 113.234C169.907 112.31 170.157 111.56 170.659 110.983C171.16 110.407 171.815 110.119 172.625 110.119ZM174.166 112.665C174.127 112.246 174.035 111.911 173.892 111.66C173.627 111.195 173.185 110.962 172.565 110.962C172.121 110.962 171.749 111.123 171.448 111.445C171.147 111.764 170.988 112.17 170.97 112.665H174.166ZM173.178 107.933L174.273 109.485H173.393L172.667 108.454L171.942 109.485H171.067L172.157 107.933H173.178ZM176.545 108.642H177.523V110.248H178.441V111.037H177.523V114.792C177.523 114.992 177.591 115.126 177.727 115.194C177.802 115.234 177.928 115.253 178.103 115.253C178.15 115.253 178.2 115.253 178.253 115.253C178.307 115.25 178.37 115.244 178.441 115.237V116C178.33 116.032 178.214 116.056 178.092 116.07C177.974 116.084 177.845 116.091 177.706 116.091C177.254 116.091 176.948 115.977 176.787 115.748C176.626 115.515 176.545 115.214 176.545 114.845V111.037H175.767V110.248H176.545V108.642ZM181.809 110.119C182.217 110.119 182.613 110.215 182.996 110.409C183.379 110.598 183.671 110.846 183.872 111.15C184.065 111.44 184.194 111.778 184.258 112.165C184.316 112.43 184.344 112.853 184.344 113.433H180.128C180.146 114.016 180.284 114.485 180.542 114.84C180.799 115.191 181.199 115.366 181.739 115.366C182.244 115.366 182.647 115.2 182.948 114.867C183.12 114.673 183.241 114.45 183.313 114.195H184.264C184.239 114.407 184.154 114.643 184.011 114.904C183.872 115.162 183.714 115.373 183.539 115.538C183.245 115.825 182.882 116.018 182.448 116.118C182.215 116.175 181.952 116.204 181.659 116.204C180.943 116.204 180.336 115.944 179.838 115.425C179.34 114.903 179.091 114.172 179.091 113.234C179.091 112.31 179.342 111.56 179.843 110.983C180.345 110.407 181 110.119 181.809 110.119ZM183.351 112.665C183.311 112.246 183.22 111.911 183.077 111.66C182.812 111.195 182.369 110.962 181.75 110.962C181.306 110.962 180.934 111.123 180.633 111.445C180.332 111.764 180.173 112.17 180.155 112.665H183.351ZM192.138 107.906C192.879 107.906 193.52 108.049 194.061 108.335C194.845 108.747 195.325 109.469 195.5 110.5H194.442C194.313 109.924 194.046 109.505 193.642 109.243C193.237 108.978 192.727 108.846 192.111 108.846C191.38 108.846 190.764 109.12 190.263 109.667C189.765 110.215 189.517 111.032 189.517 112.117C189.517 113.055 189.722 113.819 190.134 114.41C190.546 114.997 191.217 115.291 192.148 115.291C192.861 115.291 193.45 115.085 193.916 114.673C194.385 114.258 194.625 113.588 194.635 112.665H192.165V111.778H195.629V116H194.941L194.684 114.985C194.322 115.382 194.001 115.658 193.722 115.812C193.253 116.077 192.657 116.209 191.934 116.209C190.999 116.209 190.195 115.907 189.522 115.302C188.788 114.543 188.421 113.501 188.421 112.176C188.421 110.854 188.779 109.804 189.495 109.023C190.175 108.278 191.056 107.906 192.138 107.906ZM197.391 108.11H203.143V109.077H198.433V111.472H202.789V112.385H198.433V115.06H203.224V116H197.391V108.11ZM210.367 108.11V109.05H207.708V116H206.624V109.05H203.965V108.11H210.367Z" fill="black"/>
<path d="M117.78 180.5H180.5H250" stroke="black" stroke-miterlimit="10"/>
<path d="M110.78 180.5L117.78 177V184L110.78 180.5Z" fill="black" stroke="black" stroke-miterlimit="10"/>
<path d="M144.948 170.248H145.867V171.241C145.942 171.048 146.126 170.813 146.42 170.538C146.714 170.258 147.052 170.119 147.435 170.119C147.453 170.119 147.483 170.12 147.526 170.124C147.569 170.128 147.643 170.135 147.747 170.146V171.166C147.689 171.155 147.636 171.148 147.585 171.145C147.539 171.141 147.487 171.139 147.43 171.139C146.943 171.139 146.569 171.297 146.307 171.612C146.046 171.923 145.915 172.283 145.915 172.691V176H144.948V170.248ZM150.98 170.119C151.388 170.119 151.784 170.215 152.167 170.409C152.55 170.598 152.842 170.846 153.042 171.15C153.236 171.44 153.365 171.778 153.429 172.165C153.486 172.43 153.515 172.853 153.515 173.433H149.299C149.317 174.016 149.455 174.485 149.712 174.84C149.97 175.191 150.369 175.366 150.91 175.366C151.415 175.366 151.818 175.2 152.119 174.867C152.291 174.673 152.412 174.45 152.484 174.195H153.435C153.41 174.407 153.325 174.643 153.182 174.904C153.042 175.162 152.885 175.373 152.709 175.538C152.416 175.825 152.052 176.018 151.619 176.118C151.386 176.175 151.123 176.204 150.83 176.204C150.113 176.204 149.507 175.944 149.009 175.425C148.511 174.903 148.262 174.172 148.262 173.234C148.262 172.31 148.513 171.56 149.014 170.983C149.515 170.407 150.171 170.119 150.98 170.119ZM152.521 172.665C152.482 172.246 152.391 171.911 152.248 171.66C151.983 171.195 151.54 170.962 150.921 170.962C150.477 170.962 150.104 171.123 149.804 171.445C149.503 171.764 149.344 172.17 149.326 172.665H152.521ZM152.097 167.933L150.663 169.485H149.922L150.905 167.933H152.097ZM157.135 175.35C157.586 175.35 157.961 175.162 158.258 174.786C158.559 174.407 158.709 173.841 158.709 173.089C158.709 172.631 158.643 172.237 158.51 171.907C158.26 171.273 157.801 170.957 157.135 170.957C156.466 170.957 156.007 171.291 155.76 171.961C155.628 172.319 155.562 172.774 155.562 173.325C155.562 173.769 155.628 174.147 155.76 174.458C156.011 175.053 156.469 175.35 157.135 175.35ZM154.632 170.274H155.572V171.037C155.766 170.776 155.977 170.573 156.206 170.43C156.532 170.215 156.915 170.108 157.355 170.108C158.007 170.108 158.56 170.359 159.015 170.86C159.47 171.358 159.697 172.07 159.697 172.998C159.697 174.251 159.37 175.146 158.714 175.683C158.299 176.023 157.816 176.193 157.264 176.193C156.831 176.193 156.467 176.098 156.174 175.909C156.002 175.801 155.81 175.617 155.599 175.355V178.293H154.632V170.274ZM163.113 175.377C163.754 175.377 164.193 175.135 164.429 174.652C164.669 174.165 164.789 173.624 164.789 173.03C164.789 172.493 164.703 172.056 164.531 171.719C164.259 171.189 163.79 170.924 163.124 170.924C162.533 170.924 162.104 171.15 161.835 171.601C161.566 172.052 161.432 172.597 161.432 173.234C161.432 173.846 161.566 174.356 161.835 174.765C162.104 175.173 162.53 175.377 163.113 175.377ZM163.151 170.081C163.892 170.081 164.519 170.328 165.031 170.822C165.543 171.316 165.799 172.043 165.799 173.003C165.799 173.93 165.573 174.697 165.122 175.302C164.671 175.907 163.971 176.209 163.022 176.209C162.231 176.209 161.602 175.943 161.137 175.409C160.671 174.872 160.438 174.152 160.438 173.25C160.438 172.283 160.684 171.513 161.174 170.94C161.665 170.368 162.324 170.081 163.151 170.081ZM166.954 170.248H167.872V171.064C168.144 170.727 168.432 170.486 168.737 170.339C169.041 170.192 169.38 170.119 169.752 170.119C170.568 170.119 171.12 170.403 171.406 170.973C171.564 171.284 171.643 171.73 171.643 172.31V176H170.66V172.375C170.66 172.024 170.608 171.741 170.504 171.526C170.332 171.168 170.021 170.989 169.569 170.989C169.34 170.989 169.152 171.012 169.005 171.059C168.74 171.137 168.508 171.295 168.307 171.531C168.146 171.721 168.04 171.918 167.99 172.122C167.944 172.323 167.92 172.611 167.92 172.987V176H166.954V170.248ZM173.651 174.195C173.68 174.518 173.761 174.765 173.893 174.937C174.137 175.248 174.559 175.404 175.161 175.404C175.519 175.404 175.834 175.327 176.106 175.173C176.378 175.015 176.514 174.774 176.514 174.448C176.514 174.201 176.405 174.013 176.187 173.884C176.047 173.805 175.771 173.714 175.359 173.61L174.591 173.417C174.101 173.295 173.739 173.159 173.506 173.008C173.091 172.747 172.883 172.385 172.883 171.923C172.883 171.379 173.078 170.939 173.469 170.602C173.863 170.265 174.391 170.097 175.053 170.097C175.92 170.097 176.545 170.351 176.928 170.86C177.168 171.182 177.284 171.529 177.277 171.902H176.364C176.346 171.683 176.269 171.485 176.133 171.306C175.911 171.051 175.526 170.924 174.978 170.924C174.613 170.924 174.335 170.994 174.146 171.134C173.959 171.273 173.866 171.458 173.866 171.687C173.866 171.938 173.99 172.138 174.237 172.289C174.38 172.378 174.591 172.457 174.871 172.525L175.51 172.681C176.204 172.849 176.67 173.012 176.906 173.169C177.282 173.417 177.47 173.805 177.47 174.335C177.47 174.847 177.275 175.289 176.885 175.662C176.498 176.034 175.907 176.22 175.112 176.22C174.257 176.22 173.65 176.027 173.292 175.64C172.937 175.25 172.747 174.768 172.722 174.195H173.651ZM180.972 170.119C181.38 170.119 181.776 170.215 182.159 170.409C182.542 170.598 182.834 170.846 183.035 171.15C183.228 171.44 183.357 171.778 183.421 172.165C183.479 172.43 183.507 172.853 183.507 173.433H179.291C179.309 174.016 179.447 174.485 179.705 174.84C179.962 175.191 180.362 175.366 180.902 175.366C181.407 175.366 181.81 175.2 182.111 174.867C182.283 174.673 182.404 174.45 182.476 174.195H183.427C183.402 174.407 183.318 174.643 183.174 174.904C183.035 175.162 182.877 175.373 182.702 175.538C182.408 175.825 182.045 176.018 181.611 176.118C181.379 176.175 181.115 176.204 180.822 176.204C180.106 176.204 179.499 175.944 179.001 175.425C178.503 174.903 178.254 174.172 178.254 173.234C178.254 172.31 178.505 171.56 179.006 170.983C179.508 170.407 180.163 170.119 180.972 170.119ZM182.514 172.665C182.474 172.246 182.383 171.911 182.24 171.66C181.975 171.195 181.533 170.962 180.913 170.962C180.469 170.962 180.097 171.123 179.796 171.445C179.495 171.764 179.336 172.17 179.318 172.665H182.514ZM187.917 168.11H188.997V171.37H193.1V168.11H194.18V176H193.1V172.31H188.997V176H187.917V168.11ZM201.581 168.11V169.05H198.922V176H197.837V169.05H195.179V168.11H201.581ZM208.306 168.11V169.05H205.647V176H204.562V169.05H201.903V168.11H208.306ZM209.391 168.11H212.941C213.643 168.11 214.208 168.309 214.638 168.706C215.068 169.1 215.283 169.655 215.283 170.371C215.283 170.987 215.091 171.524 214.708 171.982C214.325 172.437 213.736 172.665 212.941 172.665H210.459V176H209.391V168.11ZM214.203 170.376C214.203 169.796 213.988 169.403 213.559 169.195C213.322 169.084 212.998 169.028 212.586 169.028H210.459V171.762H212.586C213.066 171.762 213.455 171.66 213.752 171.456C214.053 171.252 214.203 170.892 214.203 170.376Z" fill="black"/>
</svg>
