<?xml version="1.0" encoding="us-ascii" standalone="no"?><svg xmlns="http://www.w3.org/2000/svg" xmlns:xlink="http://www.w3.org/1999/xlink" contentStyleType="text/css" height="202px" preserveAspectRatio="none" style="width:290px;height:202px;" version="1.1" viewBox="0 0 290 202" width="290px" zoomAndPan="magnify"><defs/><g><!--entity Utilisateurs--><g id="elem_Utilisateurs"><path d="M82,6 L123,6 A3.75,3.75 0 0 1 125.5,8.5 L132.5,27 L176,27 A2.5,2.5 0 0 1 178.5,29.5 L178.5,59.1094 A2.5,2.5 0 0 1 176,61.6094 L82,61.6094 A2.5,2.5 0 0 1 79.5,59.1094 L79.5,8.5 A2.5,2.5 0 0 1 82,6 " fill="#F1F1F1" style="stroke:#181818;stroke-width:0.5;"/><line style="stroke:#181818;stroke-width:0.5;" x1="79.5" x2="132.5" y1="27" y2="27"/><text fill="#000000" font-family="sans-serif" font-size="14" lengthAdjust="spacing" textLength="69" x="89.5" y="48.5332">Utilisateurs</text></g><!--entity Reunions--><g id="elem_Reunions"><path d="M8.5,140 L49.5,140 A3.75,3.75 0 0 1 52,142.5 L59,161 L93.5,161 A2.5,2.5 0 0 1 96,163.5 L96,193.1094 A2.5,2.5 0 0 1 93.5,195.6094 L8.5,195.6094 A2.5,2.5 0 0 1 6,193.1094 L6,142.5 A2.5,2.5 0 0 1 8.5,140 " fill="#F1F1F1" style="stroke:#181818;stroke-width:0.5;"/><line style="stroke:#181818;stroke-width:0.5;" x1="6" x2="59" y1="161" y2="161"/><text fill="#000000" font-family="sans-serif" font-size="14" lengthAdjust="spacing" textLength="60" x="16" y="182.5332">Reunions</text></g><!--entity ConnectionServeur--><g id="elem_ConnectionServeur"><path d="M133.5,140 L174.5,140 A3.75,3.75 0 0 1 177,142.5 L184,161 L280.5,161 A2.5,2.5 0 0 1 283,163.5 L283,193.1094 A2.5,2.5 0 0 1 280.5,195.6094 L133.5,195.6094 A2.5,2.5 0 0 1 131,193.1094 L131,142.5 A2.5,2.5 0 0 1 133.5,140 " fill="#F1F1F1" style="stroke:#181818;stroke-width:0.5;"/><line style="stroke:#181818;stroke-width:0.5;" x1="131" x2="184" y1="161" y2="161"/><text fill="#000000" font-family="sans-serif" font-size="14" lengthAdjust="spacing" textLength="122" x="141" y="182.5332">ConnectionServeur</text></g><!--link Utilisateurs to Reunions--><g id="link_Utilisateurs_Reunions"><path codeLine="10" d="M113.03,62.03 C99.66,84.66 83.7128,132.6447 70.2728,155.3847 " fill="none" id="Utilisateurs-to-Reunions" style="stroke:#181818;stroke-width:1.0;stroke-dasharray:7.0,7.0;"/><polygon fill="#181818" points="67.22,160.55,75.2428,154.8373,69.764,156.2456,68.3557,150.7668,67.22,160.55" style="stroke:#181818;stroke-width:1.0;"/><text fill="#000000" font-family="sans-serif" font-size="13" lengthAdjust="spacing" textLength="50" x="96" y="106.4951">&#171;import&#187;</text></g><!--link Utilisateurs to ConnectionServeur--><g id="link_Utilisateurs_ConnectionServeur"><path codeLine="11" d="M144.97,62.03 C158.34,84.66 174.2872,129.2355 187.7272,151.9755 " fill="none" id="Utilisateurs-to-ConnectionServeur" style="stroke:#181818;stroke-width:1.0;stroke-dasharray:7.0,7.0;"/><polygon fill="#181818" points="190.78,157.1407,189.6443,147.3576,188.236,152.8363,182.7572,151.428,190.78,157.1407" style="stroke:#181818;stroke-width:1.0;"/><text fill="#000000" font-family="sans-serif" font-size="13" lengthAdjust="spacing" textLength="56" x="173" y="106.4951">&#171;access&#187;</text></g><!--SRC=[PSn12i9030NG_PnYJb1SIoc8AxSMrp9DOmsT9YL9LJoziwaKNUR_ztEd7YEGGiQGSfRdTQ8NyH1i99wJfYb2JcO7TwLkSJo1S4jlZBiDwHACWyh2FKWMZQw9hLJ87i9DSeyQBqwPB3akQcjsneL9-7iVXHd1IzIYFeeCOJkhgcPTxEkQfbdKc-QN_3qfDW6WMR7X0m00]--></g></svg>