<?xml version="1.0" encoding="UTF-8" standalone="no"?><svg xmlns="http://www.w3.org/2000/svg" xmlns:xlink="http://www.w3.org/1999/xlink" contentStyleType="text/css" height="198px" preserveAspectRatio="none" style="width:372px;height:198px;background:#00000000;" version="1.1" viewBox="0 0 372 198" width="372px" zoomAndPan="magnify"><defs/><g><!--MD5=[9cf9ab6d273db467b4343d3233be372b]
entity PayrollSystem--><g id="elem_PayrollSystem"><path d="M128.5,6 L169.5,6 A3.75,3.75 0 0 1 172,8.5 L179,27 L247.5,27 A2.5,2.5 0 0 1 250,29.5 L250,57.9883 A2.5,2.5 0 0 1 247.5,60.4883 L128.5,60.4883 A2.5,2.5 0 0 1 126,57.9883 L126,8.5 A2.5,2.5 0 0 1 128.5,6 " fill="#F1F1F1" style="stroke:#181818;stroke-width:0.5;"/><line style="stroke:#181818;stroke-width:0.5;" x1="126" x2="179" y1="27" y2="27"/><text fill="#000000" font-family="sans-serif" font-size="14" lengthAdjust="spacing" textLength="94" x="136" y="47.5352">PayrollSystem</text></g><!--MD5=[aba640e4f4167f514b71375f1ec13817]
entity EmployeeTimeSheet--><g id="elem_EmployeeTimeSheet"><path d="M8.5,137.49 L49.5,137.49 A3.75,3.75 0 0 1 52,139.99 L59,158.49 L171.5,158.49 A2.5,2.5 0 0 1 174,160.99 L174,189.4783 A2.5,2.5 0 0 1 171.5,191.9783 L8.5,191.9783 A2.5,2.5 0 0 1 6,189.4783 L6,139.99 A2.5,2.5 0 0 1 8.5,137.49 " fill="#F1F1F1" style="stroke:#181818;stroke-width:0.5;"/><line style="stroke:#181818;stroke-width:0.5;" x1="6" x2="59" y1="158.49" y2="158.49"/><text fill="#000000" font-family="sans-serif" font-size="14" lengthAdjust="spacing" textLength="138" x="16" y="179.0252">EmployeeTimeSheet</text></g><!--MD5=[8d298b07b8eaf0cda2deb2bd83e16865]
entity EmployeeBankInfo--><g id="elem_EmployeeBankInfo"><path d="M211.5,137.49 L252.5,137.49 A3.75,3.75 0 0 1 255,139.99 L262,158.49 L362.5,158.49 A2.5,2.5 0 0 1 365,160.99 L365,189.4783 A2.5,2.5 0 0 1 362.5,191.9783 L211.5,191.9783 A2.5,2.5 0 0 1 209,189.4783 L209,139.99 A2.5,2.5 0 0 1 211.5,137.49 " fill="#F1F1F1" style="stroke:#181818;stroke-width:0.5;"/><line style="stroke:#181818;stroke-width:0.5;" x1="209" x2="262" y1="158.49" y2="158.49"/><text fill="#000000" font-family="sans-serif" font-size="14" lengthAdjust="spacing" textLength="126" x="219" y="179.0252">EmployeeBankInfo</text></g><!--MD5=[88d53a84bde1def052e613ea0b3445d9]
link PayrollSystem to EmployeeBankInfo--><g id="link_PayrollSystem_EmployeeBankInfo"><path codeLine="10" d="M208.27,60.76 C224.22,81.63 246.48,110.74 263.26,132.69 " fill="none" id="PayrollSystem-to-EmployeeBankInfo" style="stroke:#181818;stroke-width:1.0;stroke-dasharray:7.0,7.0;"/><polygon fill="#181818" points="266.75,136.25,264.4514,126.6731,263.709,132.281,258.1011,131.5387,266.75,136.25" style="stroke:#181818;stroke-width:1.0;"/><text fill="#000000" font-family="sans-serif" font-size="13" lengthAdjust="spacing" textLength="56" x="244" y="104.0584">«access»</text></g><!--MD5=[bc7c2cdaaf6fc21614ed70d39c9c1db0]
link PayrollSystem to EmployeeTimeSheet--><g id="link_PayrollSystem_EmployeeTimeSheet"><path codeLine="11" d="M167.93,60.76 C152.14,81.63 130.11,110.74 113.5,132.69 " fill="none" id="PayrollSystem-to-EmployeeTimeSheet" style="stroke:#181818;stroke-width:1.0;stroke-dasharray:7.0,7.0;"/><polygon fill="#181818" points="110.04,136.25,118.6591,131.4845,113.056,132.262,112.2784,126.6589,110.04,136.25" style="stroke:#181818;stroke-width:1.0;"/><text fill="#000000" font-family="sans-serif" font-size="13" lengthAdjust="spacing" textLength="56" x="146" y="104.0584">«import»</text></g><!--MD5=[c3a759cc85977c8656ac4be091c1ca6e]
@startuml
hide circle
allow_mixing
skinparam classAttributeIconSize 0
skinparam backgroundcolor transparent

folder PayrollSystem
folder EmployeeTimeSheet
folder EmployeeBankInfo

PayrollSystem..>EmployeeBankInfo:<<access>>
PayrollSystem..>EmployeeTimeSheet:<<import>>


@enduml

PlantUML version 1.2022.7(Mon Aug 22 13:01:30 EDT 2022)
(GPL source distribution)
Java Runtime: OpenJDK Runtime Environment
JVM: OpenJDK 64-Bit Server VM
Default Encoding: UTF-8
Language: en
Country: CA
--></g></svg>