<?xml version="1.0" encoding="UTF-8" standalone="no"?><svg xmlns="http://www.w3.org/2000/svg" xmlns:xlink="http://www.w3.org/1999/xlink" contentStyleType="text/css" height="198px" preserveAspectRatio="none" style="width:371px;height:198px;background:#00000000;" version="1.1" viewBox="0 0 371 198" width="371px" zoomAndPan="magnify"><defs/><g><!--MD5=[286a7fca6a874b03ce33c6f8951fede8]
entity SystèmeDePaie--><g id="elem_SystèmeDePaie"><path d="M110,6 L151,6 A3.75,3.75 0 0 1 153.5,8.5 L160.5,27 L237,27 A2.5,2.5 0 0 1 239.5,29.5 L239.5,57.9883 A2.5,2.5 0 0 1 237,60.4883 L110,60.4883 A2.5,2.5 0 0 1 107.5,57.9883 L107.5,8.5 A2.5,2.5 0 0 1 110,6 " fill="#F1F1F1" style="stroke:#181818;stroke-width:0.5;"/><line style="stroke:#181818;stroke-width:0.5;" x1="107.5" x2="160.5" y1="27" y2="27"/><text fill="#000000" font-family="sans-serif" font-size="14" lengthAdjust="spacing" textLength="102" x="117.5" y="47.5352">SystèmeDePaie</text></g><!--MD5=[dc9403ad53d7bf0e856855d85ff4f87f]
entity HoraireEmployé--><g id="elem_HoraireEmployé"><path d="M8.5,137.49 L49.5,137.49 A3.75,3.75 0 0 1 52,139.99 L59,158.49 L142.5,158.49 A2.5,2.5 0 0 1 145,160.99 L145,189.4783 A2.5,2.5 0 0 1 142.5,191.9783 L8.5,191.9783 A2.5,2.5 0 0 1 6,189.4783 L6,139.99 A2.5,2.5 0 0 1 8.5,137.49 " fill="#F1F1F1" style="stroke:#181818;stroke-width:0.5;"/><line style="stroke:#181818;stroke-width:0.5;" x1="6" x2="59" y1="158.49" y2="158.49"/><text fill="#000000" font-family="sans-serif" font-size="14" lengthAdjust="spacing" textLength="109" x="16" y="179.0252">HoraireEmployé</text></g><!--MD5=[9e5880a20429a921148f2d1dc4e2fd1c]
entity InfoBanquaireEmployé--><g id="elem_InfoBanquaireEmployé"><path d="M183,137.49 L224,137.49 A3.75,3.75 0 0 1 226.5,139.99 L233.5,158.49 L362,158.49 A2.5,2.5 0 0 1 364.5,160.99 L364.5,189.4783 A2.5,2.5 0 0 1 362,191.9783 L183,191.9783 A2.5,2.5 0 0 1 180.5,189.4783 L180.5,139.99 A2.5,2.5 0 0 1 183,137.49 " fill="#F1F1F1" style="stroke:#181818;stroke-width:0.5;"/><line style="stroke:#181818;stroke-width:0.5;" x1="180.5" x2="233.5" y1="158.49" y2="158.49"/><text fill="#000000" font-family="sans-serif" font-size="14" lengthAdjust="spacing" textLength="154" x="190.5" y="179.0252">InfoBanquaireEmployé</text></g><!--MD5=[df8dd74420a5ddb3ef858dabcbbd640f]
link SystèmeDePaie to InfoBanquaireEmployé--><g id="link_SystèmeDePaie_InfoBanquaireEmployé"><path codeLine="10" d="M193.77,60.76 C209.72,81.63 231.98,110.74 248.76,132.69 " fill="none" id="SystèmeDePaie-to-InfoBanquaireEmployé" style="stroke:#181818;stroke-width:1.0;stroke-dasharray:7.0,7.0;"/><polygon fill="#181818" points="252.25,136.25,249.9514,126.6731,249.209,132.281,243.6011,131.5387,252.25,136.25" style="stroke:#181818;stroke-width:1.0;"/><text fill="#000000" font-family="sans-serif" font-size="13" lengthAdjust="spacing" textLength="56" x="229.5" y="104.0584">«access»</text></g><!--MD5=[c0845e2efee357e635c00c059876bb60]
link SystèmeDePaie to HoraireEmployé--><g id="link_SystèmeDePaie_HoraireEmployé"><path codeLine="11" d="M153.43,60.76 C137.64,81.63 115.61,110.74 99,132.69 " fill="none" id="SystèmeDePaie-to-HoraireEmployé" style="stroke:#181818;stroke-width:1.0;stroke-dasharray:7.0,7.0;"/><polygon fill="#181818" points="95.54,136.25,104.1591,131.4845,98.556,132.262,97.7784,126.6589,95.54,136.25" style="stroke:#181818;stroke-width:1.0;"/><text fill="#000000" font-family="sans-serif" font-size="13" lengthAdjust="spacing" textLength="56" x="131.5" y="104.0584">«import»</text></g><!--MD5=[aff8676aa8b534ea2e216b845ac9a365]
@startuml
hide circle
allow_mixing
skinparam classAttributeIconSize 0
skinparam backgroundcolor transparent

folder SystèmeDePaie
folder HoraireEmployé
folder InfoBanquaireEmployé

SystèmeDePaie..>InfoBanquaireEmployé:<<access>>
SystèmeDePaie..>HoraireEmployé:<<import>>


@enduml

PlantUML version 1.2022.7(Mon Aug 22 13:01:30 EDT 2022)
(GPL source distribution)
Java Runtime: OpenJDK Runtime Environment
JVM: OpenJDK 64-Bit Server VM
Default Encoding: UTF-8
Language: en
Country: CA
--></g></svg>