<?xml version="1.0" encoding="UTF-8" standalone="no"?><svg xmlns="http://www.w3.org/2000/svg" xmlns:xlink="http://www.w3.org/1999/xlink" contentStyleType="text/css" height="202px" preserveAspectRatio="none" style="width:355px;height:202px;background:#FFFFFF;" version="1.1" viewBox="0 0 355 202" width="355px" zoomAndPan="magnify"><defs/><g><!--MD5=[9cf9ab6d273db467b4343d3233be372b]
entity PayrollSystem--><g id="elem_PayrollSystem"><path d="M123,6 L164,6 A3.75,3.75 0 0 1 166.5,8.5 L173.5,27 L237,27 A2.5,2.5 0 0 1 239.5,29.5 L239.5,59.1094 A2.5,2.5 0 0 1 237,61.6094 L123,61.6094 A2.5,2.5 0 0 1 120.5,59.1094 L120.5,8.5 A2.5,2.5 0 0 1 123,6 " fill="#F1F1F1" style="stroke:#181818;stroke-width:0.5;"/><line style="stroke:#181818;stroke-width:0.5;" x1="120.5" x2="173.5" y1="27" y2="27"/><text fill="#000000" font-family="sans-serif" font-size="14" lengthAdjust="spacing" textLength="89" x="130.5" y="48.5332">PayrollSystem</text></g><!--MD5=[aba640e4f4167f514b71375f1ec13817]
entity EmployeeTimeSheet--><g id="elem_EmployeeTimeSheet"><path d="M8.5,140 L49.5,140 A3.75,3.75 0 0 1 52,142.5 L59,161 L163.5,161 A2.5,2.5 0 0 1 166,163.5 L166,193.1094 A2.5,2.5 0 0 1 163.5,195.6094 L8.5,195.6094 A2.5,2.5 0 0 1 6,193.1094 L6,142.5 A2.5,2.5 0 0 1 8.5,140 " fill="#F1F1F1" style="stroke:#181818;stroke-width:0.5;"/><line style="stroke:#181818;stroke-width:0.5;" x1="6" x2="59" y1="161" y2="161"/><text fill="#000000" font-family="sans-serif" font-size="14" lengthAdjust="spacing" textLength="130" x="16" y="182.5332">EmployeeTimeSheet</text></g><!--MD5=[8d298b07b8eaf0cda2deb2bd83e16865]
entity EmployeeBankInfo--><g id="elem_EmployeeBankInfo"><path d="M204,140 L245,140 A3.75,3.75 0 0 1 247.5,142.5 L254.5,161 L346,161 A2.5,2.5 0 0 1 348.5,163.5 L348.5,193.1094 A2.5,2.5 0 0 1 346,195.6094 L204,195.6094 A2.5,2.5 0 0 1 201.5,193.1094 L201.5,142.5 A2.5,2.5 0 0 1 204,140 " fill="#F1F1F1" style="stroke:#181818;stroke-width:0.5;"/><line style="stroke:#181818;stroke-width:0.5;" x1="201.5" x2="254.5" y1="161" y2="161"/><text fill="#000000" font-family="sans-serif" font-size="14" lengthAdjust="spacing" textLength="117" x="211.5" y="182.5332">EmployeeBankInfo</text></g><!--MD5=[88d53a84bde1def052e613ea0b3445d9]
link PayrollSystem to EmployeeBankInfo--><g id="link_PayrollSystem_EmployeeBankInfo"><path codeLine="9" d="M199.45,62.03 C214.78,83.33 236.19,113.07 252.3,135.46 " fill="none" id="PayrollSystem-to-EmployeeBankInfo" style="stroke:#181818;stroke-width:1.0;stroke-dasharray:7.0,7.0;"/><polygon fill="#181818" points="255.25,139.55,253.2419,129.908,252.3304,135.491,246.7474,134.5795,255.25,139.55" style="stroke:#181818;stroke-width:1.0;"/><text fill="#000000" font-family="sans-serif" font-size="13" lengthAdjust="spacing" textLength="56" x="234" y="106.4951">«access»</text></g><!--MD5=[bc7c2cdaaf6fc21614ed70d39c9c1db0]
link PayrollSystem to EmployeeTimeSheet--><g id="link_PayrollSystem_EmployeeTimeSheet"><path codeLine="10" d="M160.75,62.03 C145.58,83.33 124.4,113.07 108.46,135.46 " fill="none" id="PayrollSystem-to-EmployeeTimeSheet" style="stroke:#181818;stroke-width:1.0;stroke-dasharray:7.0,7.0;"/><polygon fill="#181818" points="105.55,139.55,114.0294,134.5401,108.4508,135.4775,107.5134,129.8988,105.55,139.55" style="stroke:#181818;stroke-width:1.0;"/><text fill="#000000" font-family="sans-serif" font-size="13" lengthAdjust="spacing" textLength="50" x="140" y="106.4951">«import»</text></g><!--MD5=[f10f5b518c8c768a5a35abf02a3010b0]
@startuml
hide circle
allow_mixing
skinparam classAttributeIconSize 0

folder PayrollSystem
folder EmployeeTimeSheet
folder EmployeeBankInfo

PayrollSystem..>EmployeeBankInfo:<<access>>
PayrollSystem..>EmployeeTimeSheet:<<import>>


@enduml

PlantUML version 1.2022.7(Mon Aug 22 13:01:30 EDT 2022)
(GPL source distribution)
Java Runtime: Java(TM) SE Runtime Environment
JVM: Java HotSpot(TM) 64-Bit Server VM
Default Encoding: Cp1252
Language: en
Country: CA
--></g></svg>