<?xml version="1.0" encoding="UTF-8" standalone="no"?><svg xmlns="http://www.w3.org/2000/svg" xmlns:xlink="http://www.w3.org/1999/xlink" contentStyleType="text/css" height="67px" preserveAspectRatio="none" style="width:242px;height:67px;background:#00000000;" version="1.1" viewBox="0 0 242 67" width="242px" zoomAndPan="magnify"><defs/><g><!--MD5=[770389ab9df153645bc6ef28055eb2b5]
entity A--><g id="elem_A"><path d="M8.5,6 L49.5,6 A3.75,3.75 0 0 1 52,8.5 L59,27 L73.5,27 A2.5,2.5 0 0 1 76,29.5 L76,57.9883 A2.5,2.5 0 0 1 73.5,60.4883 L8.5,60.4883 A2.5,2.5 0 0 1 6,57.9883 L6,8.5 A2.5,2.5 0 0 1 8.5,6 " fill="#F1F1F1" style="stroke:#181818;stroke-width:0.5;"/><line style="stroke:#181818;stroke-width:0.5;" x1="6" x2="59" y1="27" y2="27"/><text fill="#000000" font-family="sans-serif" font-size="14" lengthAdjust="spacing" textLength="10" x="16" y="47.5352">A</text></g><!--MD5=[b2d39259b6aeabc16b394deeb0238426]
entity B--><g id="elem_B"><path d="M167.5,6 L208.5,6 A3.75,3.75 0 0 1 211,8.5 L218,27 L232.5,27 A2.5,2.5 0 0 1 235,29.5 L235,57.9883 A2.5,2.5 0 0 1 232.5,60.4883 L167.5,60.4883 A2.5,2.5 0 0 1 165,57.9883 L165,8.5 A2.5,2.5 0 0 1 167.5,6 " fill="#F1F1F1" style="stroke:#181818;stroke-width:0.5;"/><line style="stroke:#181818;stroke-width:0.5;" x1="165" x2="218" y1="27" y2="27"/><text fill="#000000" font-family="sans-serif" font-size="14" lengthAdjust="spacing" textLength="8" x="175" y="47.5352">B</text></g><!--MD5=[5e2eec62a50b26b6b0db6c12e4ee289c]
link A to B--><g id="link_A_B"><path codeLine="8" d="M76.29,33.25 C100.7,33.25 133.26,33.25 158.86,33.25 " fill="none" id="A-to-B" style="stroke:#181818;stroke-width:1.0;stroke-dasharray:1.0,3.0;"/><polygon fill="#181818" points="163.54,33.25,154.54,29.25,158.54,33.25,154.54,37.25,163.54,33.25" style="stroke:#181818;stroke-width:1.0;"/><text fill="#000000" font-family="sans-serif" font-size="13" lengthAdjust="spacing" textLength="53" x="94" y="26.8184">«merge»</text></g><!--MD5=[a7f2d49f3d238ad51ff8f641018dec32]
@startuml
hide circle
allow_mixing
skinparam classAttributeIconSize 0
skinparam backgroundcolor transparent
folder A
folder B

A -r[dotted]-> B : <<merge>>
@enduml

PlantUML version 1.2022.7(Mon Aug 22 13:01:30 EDT 2022)
(GPL source distribution)
Java Runtime: OpenJDK Runtime Environment
JVM: OpenJDK 64-Bit Server VM
Default Encoding: UTF-8
Language: en
Country: CA
--></g></svg>