<?xml version="1.0" encoding="UTF-8" standalone="no"?><svg xmlns="http://www.w3.org/2000/svg" xmlns:xlink="http://www.w3.org/1999/xlink" contentStyleType="text/css" height="176px" preserveAspectRatio="none" style="width:148px;height:176px;background:#FFFFFF;" version="1.1" viewBox="0 0 148 176" width="148px" zoomAndPan="magnify"><defs/><g><!--MD5=[e9daf3f04ba70fbc9d6267d7b1ae7833]
class IList--><g id="elem_IList"><rect codeLine="3" fill="#F1F1F1" height="58.7031" id="IList" rx="2.5" ry="2.5" style="stroke:#181818;stroke-width:0.5;" width="64" x="7" y="7"/><text fill="#000000" font-family="sans-serif" font-size="12" font-style="italic" lengthAdjust="spacing" textLength="62" x="8" y="24.457">«Interface»</text><text fill="#000000" font-family="sans-serif" font-size="14" lengthAdjust="spacing" textLength="25" x="26.5" y="41.627">IList</text><line style="stroke:#181818;stroke-width:0.5;" x1="8" x2="70" y1="49.7031" y2="49.7031"/><line style="stroke:#181818;stroke-width:0.5;" x1="8" x2="70" y1="57.7031" y2="57.7031"/></g><!--MD5=[99f32fa4e73f6681c1a0ac5117bd3ce1]
class Array--><g id="elem_Array"><rect codeLine="4" fill="#F1F1F1" height="43.6094" id="Array" rx="2.5" ry="2.5" style="stroke:#181818;stroke-width:0.5;" width="40" x="19" y="126"/><text fill="#000000" font-family="sans-serif" font-size="14" lengthAdjust="spacing" textLength="34" x="22" y="145.5332">Array</text><line style="stroke:#181818;stroke-width:0.5;" x1="20" x2="58" y1="153.6094" y2="153.6094"/><line style="stroke:#181818;stroke-width:0.5;" x1="20" x2="58" y1="161.6094" y2="161.6094"/></g><!--MD5=[3fd616f346a44cd59a91eb10b19e157c]
class User--><g id="elem_User"><rect codeLine="5" fill="#F1F1F1" height="43.6094" id="User" rx="2.5" ry="2.5" style="stroke:#181818;stroke-width:0.5;" width="35" x="106.5" y="14.5"/><text fill="#000000" font-family="sans-serif" font-size="14" lengthAdjust="spacing" textLength="29" x="109.5" y="34.0332">User</text><line style="stroke:#181818;stroke-width:0.5;" x1="107.5" x2="140.5" y1="42.1094" y2="42.1094"/><line style="stroke:#181818;stroke-width:0.5;" x1="107.5" x2="140.5" y1="50.1094" y2="50.1094"/></g><!--MD5=[80856a369dd313b09b5113c017fcc624]
reverse link IList to Array--><g id="link_IList_Array"><path codeLine="8" d="M39,86.35 C39,100.15 39,114.44 39,125.69 " fill="none" id="IList-backto-Array" style="stroke:#181818;stroke-width:1.0;stroke-dasharray:1.0,3.0;"/><polygon fill="none" points="32,86.27,39,66.27,46,86.27,32,86.27" style="stroke:#181818;stroke-width:1.0;"/></g><!--MD5=[fae054a08cbea41a1e358a91a8adab4a]
reverse link IList to User--><g id="link_IList_User"><path codeLine="9" d="M76.41,36.5 C86.36,36.5 96.31,36.5 106.26,36.5 " fill="none" id="IList-backto-User" style="stroke:#181818;stroke-width:1.0;stroke-dasharray:1.0,3.0;"/><polygon fill="#181818" points="71.21,36.5,80.21,40.5,76.21,36.5,80.21,32.5,71.21,36.5" style="stroke:#181818;stroke-width:1.0;"/></g><!--MD5=[cffef51434d6e8d1ceb98dce356ff6c2]
@startuml
hide circle

class IList <<Interface>> 
class Array
class User 


Array -u[dotted]-|> IList
IList <-r[dotted]- User

@enduml

PlantUML version 1.2022.7(Mon Aug 22 13:01:30 EDT 2022)
(GPL source distribution)
Java Runtime: Java(TM) SE Runtime Environment
JVM: Java HotSpot(TM) 64-Bit Server VM
Default Encoding: Cp1252
Language: en
Country: US
--></g></svg>