<?xml version="1.0" encoding="UTF-8" standalone="no"?><svg xmlns="http://www.w3.org/2000/svg" xmlns:xlink="http://www.w3.org/1999/xlink" contentStyleType="text/css" height="173px" preserveAspectRatio="none" style="width:150px;height:173px;background:#00000000;" version="1.1" viewBox="0 0 150 173" width="150px" zoomAndPan="magnify"><defs/><g><!--MD5=[e9daf3f04ba70fbc9d6267d7b1ae7833]
class IList--><g id="elem_IList"><rect codeLine="3" fill="#F1F1F1" height="56.6211" id="IList" rx="2.5" ry="2.5" style="stroke:#181818;stroke-width:0.5;" width="64" x="7" y="7"/><text fill="#000000" font-family="sans-serif" font-size="12" font-style="italic" lengthAdjust="spacing" textLength="62" x="8" y="23.6016">«Interface»</text><text fill="#000000" font-family="sans-serif" font-size="14" lengthAdjust="spacing" textLength="27" x="25.5" y="39.668">IList</text><line style="stroke:#181818;stroke-width:0.5;" x1="8" x2="70" y1="47.6211" y2="47.6211"/><line style="stroke:#181818;stroke-width:0.5;" x1="8" x2="70" y1="55.6211" y2="55.6211"/></g><!--MD5=[99f32fa4e73f6681c1a0ac5117bd3ce1]
class Array--><g id="elem_Array"><rect codeLine="4" fill="#F1F1F1" height="42.4883" id="Array" rx="2.5" ry="2.5" style="stroke:#181818;stroke-width:0.5;" width="43" x="17.5" y="123.62"/><text fill="#000000" font-family="sans-serif" font-size="14" lengthAdjust="spacing" textLength="37" x="20.5" y="142.1552">Array</text><line style="stroke:#181818;stroke-width:0.5;" x1="18.5" x2="59.5" y1="150.1083" y2="150.1083"/><line style="stroke:#181818;stroke-width:0.5;" x1="18.5" x2="59.5" y1="158.1083" y2="158.1083"/></g><!--MD5=[3fd616f346a44cd59a91eb10b19e157c]
class User--><g id="elem_User"><rect codeLine="5" fill="#F1F1F1" height="42.4883" id="User" rx="2.5" ry="2.5" style="stroke:#181818;stroke-width:0.5;" width="37" x="106.5" y="14.07"/><text fill="#000000" font-family="sans-serif" font-size="14" lengthAdjust="spacing" textLength="31" x="109.5" y="32.6052">User</text><line style="stroke:#181818;stroke-width:0.5;" x1="107.5" x2="142.5" y1="40.5583" y2="40.5583"/><line style="stroke:#181818;stroke-width:0.5;" x1="107.5" x2="142.5" y1="48.5583" y2="48.5583"/></g><!--MD5=[80856a369dd313b09b5113c017fcc624]
reverse link IList to Array--><g id="link_IList_Array"><path codeLine="8" d="M39,84.56 C39,98.22 39,112.35 39,123.4 " fill="none" id="IList-backto-Array" style="stroke:#181818;stroke-width:1.0;stroke-dasharray:1.0,3.0;"/><polygon fill="none" points="32,85.01,39,65.01,46,85.01,32,85.01" style="stroke:#181818;stroke-width:1.0;"/></g><!--MD5=[fae054a08cbea41a1e358a91a8adab4a]
reverse link IList to User--><g id="link_IList_User"><path codeLine="9" d="M77.24,35.31 C86.86,35.31 96.48,35.31 106.1,35.31 " fill="none" id="IList-backto-User" style="stroke:#181818;stroke-width:1.0;stroke-dasharray:1.0,3.0;"/><polygon fill="#181818" points="72.25,35.31,81.25,39.31,77.25,35.31,81.25,31.31,72.25,35.31" style="stroke:#181818;stroke-width:1.0;"/></g><!--MD5=[5909e109e0717671f4f4524b2ccfac8a]
@startuml
hide circle
skinparam backgroundcolor transparent
class IList <<Interface>> 
class Array
class User 


Array -u[dotted]-|> IList
IList <-r[dotted]- User

@enduml

PlantUML version 1.2022.7(Mon Aug 22 13:01:30 EDT 2022)
(GPL source distribution)
Java Runtime: OpenJDK Runtime Environment
JVM: OpenJDK 64-Bit Server VM
Default Encoding: UTF-8
Language: en
Country: CA
--></g></svg>