<?xml version="1.0" encoding="UTF-8" standalone="no"?><svg xmlns="http://www.w3.org/2000/svg" xmlns:xlink="http://www.w3.org/1999/xlink" contentStyleType="text/css" height="134px" preserveAspectRatio="none" style="width:535px;height:134px;background:#00000000;" version="1.1" viewBox="0 0 535 134" width="535px" zoomAndPan="magnify"><defs/><g><!--MD5=[e169ac431914a6adb8cf110c9da1459f]
cluster DB--><g id="cluster_DB"><polygon fill="none" points="16,16,26,6,270,6,270,107.49,260,117.49,16,117.49,16,16" style="stroke:#181818;stroke-width:1.0;"/><line style="stroke:#181818;stroke-width:1.0;" x1="260" x2="270" y1="16" y2="6"/><line style="stroke:#181818;stroke-width:1.0;" x1="16" x2="260" y1="16" y2="16"/><line style="stroke:#181818;stroke-width:1.0;" x1="260" x2="260" y1="16" y2="117.49"/><text fill="#000000" font-family="sans-serif" font-size="14" font-weight="bold" lengthAdjust="spacing" textLength="178" x="50" y="32.5352">Serveur Base de données</text></g><!--MD5=[28176b713ef7970549f8499dd703bfda]
cluster webServer--><g id="cluster_webServer"><polygon fill="none" points="310,16,320,6,518,6,518,107.49,508,117.49,310,117.49,310,16" style="stroke:#181818;stroke-width:1.0;"/><line style="stroke:#181818;stroke-width:1.0;" x1="508" x2="518" y1="16" y2="6"/><line style="stroke:#181818;stroke-width:1.0;" x1="310" x2="508" y1="16" y2="16"/><line style="stroke:#181818;stroke-width:1.0;" x1="508" x2="508" y1="16" y2="117.49"/><text fill="#000000" font-family="sans-serif" font-size="14" font-weight="bold" lengthAdjust="spacing" textLength="88" x="366" y="32.5352">Serveur Web</text></g><!--MD5=[72676a4464780aaf9388e67f383ec166]
entity BD MySQL--><g id="elem_BD MySQL"><rect fill="#F1F1F1" height="39.4883" rx="2.5" ry="2.5" style="stroke:#181818;stroke-width:0.5;" width="97" x="149.5" y="54"/><polygon fill="#F1F1F1" points="229.5,59,229.5,73,241.5,73,241.5,65,235.5,59,229.5,59" style="stroke:#181818;stroke-width:0.5;"/><line style="stroke:#181818;stroke-width:0.5;" x1="235.5" x2="235.5" y1="59" y2="65"/><line style="stroke:#181818;stroke-width:0.5;" x1="241.5" x2="235.5" y1="65" y2="65"/><text fill="#000000" font-family="sans-serif" font-size="14" lengthAdjust="spacing" textLength="67" x="159.5" y="80.5352">BD MySQL</text></g><!--MD5=[57a974512d9e8b98a5be7fb983b325b1]
entity Application Web--><g id="elem_Application Web"><rect fill="#F1F1F1" height="39.4883" rx="2.5" ry="2.5" style="stroke:#181818;stroke-width:0.5;" width="141" x="353.5" y="54"/><polygon fill="#F1F1F1" points="477.5,59,477.5,73,489.5,73,489.5,65,483.5,59,477.5,59" style="stroke:#181818;stroke-width:0.5;"/><line style="stroke:#181818;stroke-width:0.5;" x1="483.5" x2="483.5" y1="59" y2="65"/><line style="stroke:#181818;stroke-width:0.5;" x1="489.5" x2="483.5" y1="65" y2="65"/><text fill="#000000" font-family="sans-serif" font-size="14" lengthAdjust="spacing" textLength="111" x="363.5" y="80.5352">Application Web</text></g><!--MD5=[0506607017f84ec2daee9325b4601ee0]
link DB to webServer--><g id="link_DB_webServer"><path d="M270.6855,36.49 C276.1641,36.49 281.3438,36.49 286.125,36.49 C295.6875,36.49 303.6563,36.49 309.2344,36.49 C309.4087,36.49 309.5807,36.49 309.7503,36.49 C309.7927,36.49 309.835,36.49 309.8771,36.49 " fill="none" id="DB-webServer" style="stroke:#181818;stroke-width:1.0;"/></g><!--MD5=[f9943218f3b9351c59858ee151377138]
@startuml
skinparam backgroundcolor transparent
skinparam linetype ortho

node "Serveur Base de données" as DB {
  artifact "BD MySQL"
}

node "Serveur Web" as webServer {
  artifact "Application Web"
}

DB -r- - webServer

@enduml

PlantUML version 1.2022.7(Mon Aug 22 13:01:30 EDT 2022)
(GPL source distribution)
Java Runtime: OpenJDK Runtime Environment
JVM: OpenJDK 64-Bit Server VM
Default Encoding: UTF-8
Language: en
Country: CA
--></g></svg>