<?xml version="1.0" encoding="UTF-8" standalone="no"?><svg xmlns="http://www.w3.org/2000/svg" xmlns:xlink="http://www.w3.org/1999/xlink" contentStyleType="text/css" height="137px" preserveAspectRatio="none" style="width:555px;height:137px;background:#FFFFFF;" version="1.1" viewBox="0 0 555 137" width="555px" zoomAndPan="magnify"><defs/><g><!--MD5=[e169ac431914a6adb8cf110c9da1459f]
cluster DB--><g id="cluster_DB"><polygon fill="none" points="16,16,26,6,299,6,299,110,289,120,16,120,16,16" style="stroke:#181818;stroke-width:1.0;"/><line style="stroke:#181818;stroke-width:1.0;" x1="289" x2="299" y1="16" y2="6"/><line style="stroke:#181818;stroke-width:1.0;" x1="16" x2="289" y1="16" y2="16"/><line style="stroke:#181818;stroke-width:1.0;" x1="289" x2="289" y1="16" y2="120"/><text fill="#000000" font-family="sans-serif" font-size="14" font-weight="bold" lengthAdjust="spacing" textLength="207" x="50" y="33.5332">Serveur de Base de Données</text></g><!--MD5=[28176b713ef7970549f8499dd703bfda]
cluster webServer--><g id="cluster_webServer"><polygon fill="none" points="339,16,349,6,538,6,538,110,528,120,339,120,339,16" style="stroke:#181818;stroke-width:1.0;"/><line style="stroke:#181818;stroke-width:1.0;" x1="528" x2="538" y1="16" y2="6"/><line style="stroke:#181818;stroke-width:1.0;" x1="339" x2="528" y1="16" y2="16"/><line style="stroke:#181818;stroke-width:1.0;" x1="528" x2="528" y1="16" y2="120"/><text fill="#000000" font-family="sans-serif" font-size="14" font-weight="bold" lengthAdjust="spacing" textLength="92" x="388.5" y="33.5332">Serveur Web</text></g><!--MD5=[d1de8057c52f7f0714cffeb856e87914]
entity Base de données MySQL--><g id="elem_Base de données MySQL"><rect fill="#F1F1F1" height="40.6094" rx="2.5" ry="2.5" style="stroke:#181818;stroke-width:0.5;" width="191" x="83.5" y="55"/><polygon fill="#F1F1F1" points="257.5,60,257.5,74,269.5,74,269.5,66,263.5,60,257.5,60" style="stroke:#181818;stroke-width:0.5;"/><line style="stroke:#181818;stroke-width:0.5;" x1="263.5" x2="263.5" y1="60" y2="66"/><line style="stroke:#181818;stroke-width:0.5;" x1="269.5" x2="263.5" y1="66" y2="66"/><text fill="#000000" font-family="sans-serif" font-size="14" lengthAdjust="spacing" textLength="161" x="93.5" y="82.5332">Base de données MySQL</text></g><!--MD5=[57a974512d9e8b98a5be7fb983b325b1]
entity Application Web--><g id="elem_Application Web"><rect fill="#F1F1F1" height="40.6094" rx="2.5" ry="2.5" style="stroke:#181818;stroke-width:0.5;" width="132" x="382" y="55"/><polygon fill="#F1F1F1" points="497,60,497,74,509,74,509,66,503,60,497,60" style="stroke:#181818;stroke-width:0.5;"/><line style="stroke:#181818;stroke-width:0.5;" x1="503" x2="503" y1="60" y2="66"/><line style="stroke:#181818;stroke-width:0.5;" x1="509" x2="503" y1="66" y2="66"/><text fill="#000000" font-family="sans-serif" font-size="14" lengthAdjust="spacing" textLength="102" x="392" y="82.5332">Application Web</text></g><!--MD5=[0506607017f84ec2daee9325b4601ee0]
link DB to webServer--><g id="link_DB_webServer"><path d="M300.2813,37 C314.2969,37 325.9766,37 334.1523,37 C335.1743,37 336.1415,37 337.0517,37 C337.5068,37 337.9477,37 338.374,37 C338.4805,37 338.5862,37 338.691,37 C338.7433,37 338.7955,37 338.8474,37 " fill="none" id="DB-webServer" style="stroke:#181818;stroke-width:1.0;"/></g><!--MD5=[f6c159d1052fc3238f51e4dc142bb54d]
@startuml

skinparam linetype ortho

node "Serveur de Base de Données" as DB {
  artifact "Base de données MySQL"
}

node "Serveur Web" as webServer {
  artifact "Application Web"
}

DB -r- - webServer

@enduml

PlantUML version 1.2022.7(Mon Aug 22 13:01:30 EDT 2022)
(GPL source distribution)
Java Runtime: Java(TM) SE Runtime Environment
JVM: Java HotSpot(TM) 64-Bit Server VM
Default Encoding: Cp1252
Language: en
Country: US
--></g></svg>