<?xml version="1.0" encoding="UTF-8" standalone="no"?><svg xmlns="http://www.w3.org/2000/svg" xmlns:xlink="http://www.w3.org/1999/xlink" contentStyleType="text/css" height="134px" preserveAspectRatio="none" style="width:472px;height:134px;background:#00000000;" version="1.1" viewBox="0 0 472 134" width="472px" zoomAndPan="magnify"><defs/><g><!--MD5=[e169ac431914a6adb8cf110c9da1459f]
cluster DB--><g id="cluster_DB"><polygon fill="none" points="16,16,26,6,207,6,207,107.49,197,117.49,16,117.49,16,16" style="stroke:#181818;stroke-width:1.0;"/><line style="stroke:#181818;stroke-width:1.0;" x1="197" x2="207" y1="16" y2="6"/><line style="stroke:#181818;stroke-width:1.0;" x1="16" x2="197" y1="16" y2="16"/><line style="stroke:#181818;stroke-width:1.0;" x1="197" x2="197" y1="16" y2="117.49"/><text fill="#000000" font-family="sans-serif" font-size="14" font-weight="bold" lengthAdjust="spacing" textLength="115" x="50" y="32.5352">DataBase Server</text></g><!--MD5=[28176b713ef7970549f8499dd703bfda]
cluster webServer--><g id="cluster_webServer"><polygon fill="none" points="247,16,257,6,455,6,455,107.49,445,117.49,247,117.49,247,16" style="stroke:#181818;stroke-width:1.0;"/><line style="stroke:#181818;stroke-width:1.0;" x1="445" x2="455" y1="16" y2="6"/><line style="stroke:#181818;stroke-width:1.0;" x1="247" x2="445" y1="16" y2="16"/><line style="stroke:#181818;stroke-width:1.0;" x1="445" x2="445" y1="16" y2="117.49"/><text fill="#000000" font-family="sans-serif" font-size="14" font-weight="bold" lengthAdjust="spacing" textLength="79" x="307.5" y="32.5352">Web Server</text></g><!--MD5=[72ba5d2a9de5201c667537778dc413af]
entity MySQL DB--><g id="elem_MySQL DB"><rect fill="#F1F1F1" height="39.4883" rx="2.5" ry="2.5" style="stroke:#181818;stroke-width:0.5;" width="97" x="86.5" y="54"/><polygon fill="#F1F1F1" points="166.5,59,166.5,73,178.5,73,178.5,65,172.5,59,166.5,59" style="stroke:#181818;stroke-width:0.5;"/><line style="stroke:#181818;stroke-width:0.5;" x1="172.5" x2="172.5" y1="59" y2="65"/><line style="stroke:#181818;stroke-width:0.5;" x1="178.5" x2="172.5" y1="65" y2="65"/><text fill="#000000" font-family="sans-serif" font-size="14" lengthAdjust="spacing" textLength="67" x="96.5" y="80.5352">MySQL DB</text></g><!--MD5=[5f72b1e1b6bcd2ac922e89c6c0b5c71b]
entity Web Application--><g id="elem_Web Application"><rect fill="#F1F1F1" height="39.4883" rx="2.5" ry="2.5" style="stroke:#181818;stroke-width:0.5;" width="141" x="290.5" y="54"/><polygon fill="#F1F1F1" points="414.5,59,414.5,73,426.5,73,426.5,65,420.5,59,414.5,59" style="stroke:#181818;stroke-width:0.5;"/><line style="stroke:#181818;stroke-width:0.5;" x1="420.5" x2="420.5" y1="59" y2="65"/><line style="stroke:#181818;stroke-width:0.5;" x1="426.5" x2="420.5" y1="65" y2="65"/><text fill="#000000" font-family="sans-serif" font-size="14" lengthAdjust="spacing" textLength="111" x="300.5" y="80.5352">Web Application</text></g><!--MD5=[0506607017f84ec2daee9325b4601ee0]
link DB to webServer--><g id="link_DB_webServer"><path d="M207.6855,36.49 C213.1641,36.49 218.3438,36.49 223.125,36.49 C232.6875,36.49 240.6563,36.49 246.2344,36.49 C246.4087,36.49 246.5807,36.49 246.7503,36.49 C246.7927,36.49 246.835,36.49 246.8771,36.49 " fill="none" id="DB-webServer" style="stroke:#181818;stroke-width:1.0;"/></g><!--MD5=[5807e85b610f97394543d5ecdb008ca5]
@startuml
skinparam backgroundcolor transparent
skinparam linetype ortho

node "DataBase Server" as DB {
  artifact "MySQL DB"
}

node "Web Server" as webServer {
  artifact "Web Application"
}

DB -r- - webServer

@enduml

PlantUML version 1.2022.7(Mon Aug 22 13:01:30 EDT 2022)
(GPL source distribution)
Java Runtime: OpenJDK Runtime Environment
JVM: OpenJDK 64-Bit Server VM
Default Encoding: UTF-8
Language: en
Country: CA
--></g></svg>