<?xml version="1.0" encoding="UTF-8" standalone="no"?><svg xmlns="http://www.w3.org/2000/svg" xmlns:xlink="http://www.w3.org/1999/xlink" contentStyleType="text/css" height="137px" preserveAspectRatio="none" style="width:466px;height:137px;background:#FFFFFF;" version="1.1" viewBox="0 0 466 137" width="466px" zoomAndPan="magnify"><defs/><g><!--MD5=[e169ac431914a6adb8cf110c9da1459f]
cluster DB--><g id="cluster_DB"><polygon fill="none" points="16,16,26,6,210,6,210,110,200,120,16,120,16,16" style="stroke:#181818;stroke-width:1.0;"/><line style="stroke:#181818;stroke-width:1.0;" x1="200" x2="210" y1="16" y2="6"/><line style="stroke:#181818;stroke-width:1.0;" x1="16" x2="200" y1="16" y2="16"/><line style="stroke:#181818;stroke-width:1.0;" x1="200" x2="200" y1="16" y2="120"/><text fill="#000000" font-family="sans-serif" font-size="14" font-weight="bold" lengthAdjust="spacing" textLength="118" x="50" y="33.5332">DataBase Server</text></g><!--MD5=[28176b713ef7970549f8499dd703bfda]
cluster webServer--><g id="cluster_webServer"><polygon fill="none" points="250,16,260,6,449,6,449,110,439,120,250,120,250,16" style="stroke:#181818;stroke-width:1.0;"/><line style="stroke:#181818;stroke-width:1.0;" x1="439" x2="449" y1="16" y2="6"/><line style="stroke:#181818;stroke-width:1.0;" x1="250" x2="439" y1="16" y2="16"/><line style="stroke:#181818;stroke-width:1.0;" x1="439" x2="439" y1="16" y2="120"/><text fill="#000000" font-family="sans-serif" font-size="14" font-weight="bold" lengthAdjust="spacing" textLength="83" x="304" y="33.5332">Web Server</text></g><!--MD5=[72ba5d2a9de5201c667537778dc413af]
entity MySQL DB--><g id="elem_MySQL DB"><rect fill="#F1F1F1" height="40.6094" rx="2.5" ry="2.5" style="stroke:#181818;stroke-width:0.5;" width="99" x="86.5" y="55"/><polygon fill="#F1F1F1" points="168.5,60,168.5,74,180.5,74,180.5,66,174.5,60,168.5,60" style="stroke:#181818;stroke-width:0.5;"/><line style="stroke:#181818;stroke-width:0.5;" x1="174.5" x2="174.5" y1="60" y2="66"/><line style="stroke:#181818;stroke-width:0.5;" x1="180.5" x2="174.5" y1="66" y2="66"/><text fill="#000000" font-family="sans-serif" font-size="14" lengthAdjust="spacing" textLength="69" x="96.5" y="82.5332">MySQL DB</text></g><!--MD5=[5f72b1e1b6bcd2ac922e89c6c0b5c71b]
entity Web Application--><g id="elem_Web Application"><rect fill="#F1F1F1" height="40.6094" rx="2.5" ry="2.5" style="stroke:#181818;stroke-width:0.5;" width="132" x="293" y="55"/><polygon fill="#F1F1F1" points="408,60,408,74,420,74,420,66,414,60,408,60" style="stroke:#181818;stroke-width:0.5;"/><line style="stroke:#181818;stroke-width:0.5;" x1="414" x2="414" y1="60" y2="66"/><line style="stroke:#181818;stroke-width:0.5;" x1="420" x2="414" y1="66" y2="66"/><text fill="#000000" font-family="sans-serif" font-size="14" lengthAdjust="spacing" textLength="102" x="303" y="82.5332">Web Application</text></g><!--MD5=[0506607017f84ec2daee9325b4601ee0]
link DB to webServer--><g id="link_DB_webServer"><path d="M211.0285,37 C211.3735,37 211.7174,37 212.06,37 C212.7452,37 213.4255,37 214.1006,37 C215.4509,37 216.7807,37 218.0883,37 C220.7036,37 223.2305,37 225.6563,37 C235.3594,37 243.4453,37 249.1055,37 C249.2823,37 249.4569,37 249.629,37 C249.715,37 249.8005,37 249.8854,37 " fill="none" id="DB-webServer" style="stroke:#181818;stroke-width:1.0;"/></g><!--MD5=[3f8ed53a3355be151526c7044917c7b4]
@startuml

skinparam linetype ortho

node "DataBase Server" as DB {
  artifact "MySQL DB"
}

node "Web Server" as webServer {
  artifact "Web Application"
}

DB -r- - webServer

@enduml

PlantUML version 1.2022.7(Mon Aug 22 13:01:30 EDT 2022)
(GPL source distribution)
Java Runtime: Java(TM) SE Runtime Environment
JVM: Java HotSpot(TM) 64-Bit Server VM
Default Encoding: Cp1252
Language: en
Country: US
--></g></svg>