<?xml version="1.0" encoding="UTF-8" standalone="no"?><svg xmlns="http://www.w3.org/2000/svg" xmlns:xlink="http://www.w3.org/1999/xlink" contentStyleType="text/css" height="165px" preserveAspectRatio="none" style="width:359px;height:165px;background:#00000000;" version="1.1" viewBox="0 0 359 165" width="359px" zoomAndPan="magnify"><defs/><g><!--MD5=[63afcd40d2edd859ed351233e2de2c5d]
entity ClientUI--><g id="elem_ClientUI"><rect fill="#F1F1F1" height="46.4883" rx="2.5" ry="2.5" style="stroke:#181818;stroke-width:0.5;" width="94" x="7" y="7"/><rect fill="#F1F1F1" height="10" style="stroke:#181818;stroke-width:0.5;" width="15" x="81" y="12"/><rect fill="#F1F1F1" height="2" style="stroke:#181818;stroke-width:0.5;" width="4" x="79" y="14"/><rect fill="#F1F1F1" height="2" style="stroke:#181818;stroke-width:0.5;" width="4" x="79" y="18"/><text fill="#000000" font-family="sans-serif" font-size="14" lengthAdjust="spacing" textLength="54" x="22" y="40.5352">ClientUI</text></g><!--MD5=[fcc35125a50bf27f0a58c916e8462e43]
entity Comp2--><g id="elem_Comp2"><rect fill="#F1F1F1" height="46.4883" rx="2.5" ry="2.5" style="stroke:#181818;stroke-width:0.5;" width="115" x="136.5" y="7"/><rect fill="#F1F1F1" height="10" style="stroke:#181818;stroke-width:0.5;" width="15" x="231.5" y="12"/><rect fill="#F1F1F1" height="2" style="stroke:#181818;stroke-width:0.5;" width="4" x="229.5" y="14"/><rect fill="#F1F1F1" height="2" style="stroke:#181818;stroke-width:0.5;" width="4" x="229.5" y="18"/><text fill="#000000" font-family="sans-serif" font-size="14" lengthAdjust="spacing" textLength="75" x="151.5" y="40.5352">ProductAPI</text></g><!--MD5=[9b0ee41058c506f496d31c8c2a337121]
entity OrderService--><g id="elem_OrderService"><rect fill="#F1F1F1" height="46.4883" rx="2.5" ry="2.5" style="stroke:#181818;stroke-width:0.5;" width="128" x="44" y="113.49"/><rect fill="#F1F1F1" height="10" style="stroke:#181818;stroke-width:0.5;" width="15" x="152" y="118.49"/><rect fill="#F1F1F1" height="2" style="stroke:#181818;stroke-width:0.5;" width="4" x="150" y="120.49"/><rect fill="#F1F1F1" height="2" style="stroke:#181818;stroke-width:0.5;" width="4" x="150" y="124.49"/><text fill="#000000" font-family="sans-serif" font-size="14" lengthAdjust="spacing" textLength="88" x="59" y="147.0252">OrderService</text></g><!--MD5=[9cfae8aaee43ceeb6127c652bd5114d8]
entity Comp4--><g id="elem_Comp4"><rect fill="#F1F1F1" height="46.4883" rx="2.5" ry="2.5" style="stroke:#181818;stroke-width:0.5;" width="146" x="207" y="113.49"/><rect fill="#F1F1F1" height="10" style="stroke:#181818;stroke-width:0.5;" width="15" x="333" y="118.49"/><rect fill="#F1F1F1" height="2" style="stroke:#181818;stroke-width:0.5;" width="4" x="331" y="120.49"/><rect fill="#F1F1F1" height="2" style="stroke:#181818;stroke-width:0.5;" width="4" x="331" y="124.49"/><text fill="#000000" font-family="sans-serif" font-size="14" lengthAdjust="spacing" textLength="106" x="222" y="147.0252">PaymentService</text></g><!--MD5=[f30b69ba78f97612f93690a8ca799d56]
link ClientUI to Comp2--><g id="link_ClientUI_Comp2"><path d="M101.3,30.25 C110.9,30.25 120.5,30.25 130.09,30.25 " fill="none" id="ClientUI-to-Comp2" style="stroke:#181818;stroke-width:1.0;stroke-dasharray:7.0,7.0;"/><polygon fill="#181818" points="135.07,30.25,126.07,26.25,130.07,30.25,126.07,34.25,135.07,30.25" style="stroke:#181818;stroke-width:1.0;"/></g><!--MD5=[bd1c61ef76b91f139dbbe8208b345117]
link Comp2 to OrderService--><g id="link_Comp2_OrderService"><path d="M175.34,53.92 C162.04,70.08 144.11,91.86 130.1,108.89 " fill="none" id="Comp2-to-OrderService" style="stroke:#181818;stroke-width:1.0;stroke-dasharray:7.0,7.0;"/><polygon fill="#181818" points="126.62,112.11,135.4354,107.718,129.804,108.2549,129.2672,102.6236,126.62,112.11" style="stroke:#181818;stroke-width:1.0;"/></g><!--MD5=[d3e3adeb431b7d508cb387c9ef3ae94a]
link Comp2 to Comp4--><g id="link_Comp2_Comp4"><path d="M212.66,53.92 C225.96,70.08 243.89,91.86 257.9,108.89 " fill="none" id="Comp2-to-Comp4" style="stroke:#181818;stroke-width:1.0;stroke-dasharray:7.0,7.0;"/><polygon fill="#181818" points="261.38,112.11,258.7328,102.6236,258.196,108.2549,252.5646,107.718,261.38,112.11" style="stroke:#181818;stroke-width:1.0;"/></g><!--MD5=[597a35cc96a1f3cad0a2833bf59cbae3]
@startuml
skinparam backgroundcolor transparent
[ClientUI]
[ProductAPI] as Comp2
component OrderService
component [PaymentService] as Comp4
ClientUI .> Comp2
Comp2 ..> OrderService
Comp2 ..> Comp4
@enduml

PlantUML version 1.2022.7(Mon Aug 22 13:01:30 EDT 2022)
(GPL source distribution)
Java Runtime: OpenJDK Runtime Environment
JVM: OpenJDK 64-Bit Server VM
Default Encoding: UTF-8
Language: en
Country: CA
--></g></svg>