<?xml version="1.0" encoding="UTF-8" standalone="no"?><svg xmlns="http://www.w3.org/2000/svg" xmlns:xlink="http://www.w3.org/1999/xlink" contentStyleType="text/css" height="165px" preserveAspectRatio="none" style="width:387px;height:165px;background:#00000000;" version="1.1" viewBox="0 0 387 165" width="387px" zoomAndPan="magnify"><defs/><g><!--MD5=[63afcd40d2edd859ed351233e2de2c5d]
entity ClientUI--><g id="elem_ClientUI"><rect fill="#F1F1F1" height="46.4883" rx="2.5" ry="2.5" style="stroke:#181818;stroke-width:0.5;" width="94" x="7" y="7"/><rect fill="#F1F1F1" height="10" style="stroke:#181818;stroke-width:0.5;" width="15" x="81" y="12"/><rect fill="#F1F1F1" height="2" style="stroke:#181818;stroke-width:0.5;" width="4" x="79" y="14"/><rect fill="#F1F1F1" height="2" style="stroke:#181818;stroke-width:0.5;" width="4" x="79" y="18"/><text fill="#000000" font-family="sans-serif" font-size="14" lengthAdjust="spacing" textLength="54" x="22" y="40.5352">ClientUI</text></g><!--MD5=[fcc35125a50bf27f0a58c916e8462e43]
entity Comp2--><g id="elem_Comp2"><rect fill="#F1F1F1" height="46.4883" rx="2.5" ry="2.5" style="stroke:#181818;stroke-width:0.5;" width="145" x="136.5" y="7"/><rect fill="#F1F1F1" height="10" style="stroke:#181818;stroke-width:0.5;" width="15" x="261.5" y="12"/><rect fill="#F1F1F1" height="2" style="stroke:#181818;stroke-width:0.5;" width="4" x="259.5" y="14"/><rect fill="#F1F1F1" height="2" style="stroke:#181818;stroke-width:0.5;" width="4" x="259.5" y="18"/><text fill="#000000" font-family="sans-serif" font-size="14" lengthAdjust="spacing" textLength="105" x="151.5" y="40.5352">ProduitsService</text></g><!--MD5=[d26207e961ac20c3454880167e3703a3]
entity CommandeService--><g id="elem_CommandeService"><rect fill="#F1F1F1" height="46.4883" rx="2.5" ry="2.5" style="stroke:#181818;stroke-width:0.5;" width="167" x="28.5" y="113.49"/><rect fill="#F1F1F1" height="10" style="stroke:#181818;stroke-width:0.5;" width="15" x="175.5" y="118.49"/><rect fill="#F1F1F1" height="2" style="stroke:#181818;stroke-width:0.5;" width="4" x="173.5" y="120.49"/><rect fill="#F1F1F1" height="2" style="stroke:#181818;stroke-width:0.5;" width="4" x="173.5" y="124.49"/><text fill="#000000" font-family="sans-serif" font-size="14" lengthAdjust="spacing" textLength="127" x="43.5" y="147.0252">CommandeService</text></g><!--MD5=[9cfae8aaee43ceeb6127c652bd5114d8]
entity Comp4--><g id="elem_Comp4"><rect fill="#F1F1F1" height="46.4883" rx="2.5" ry="2.5" style="stroke:#181818;stroke-width:0.5;" width="151" x="230.5" y="113.49"/><rect fill="#F1F1F1" height="10" style="stroke:#181818;stroke-width:0.5;" width="15" x="361.5" y="118.49"/><rect fill="#F1F1F1" height="2" style="stroke:#181818;stroke-width:0.5;" width="4" x="359.5" y="120.49"/><rect fill="#F1F1F1" height="2" style="stroke:#181818;stroke-width:0.5;" width="4" x="359.5" y="124.49"/><text fill="#000000" font-family="sans-serif" font-size="14" lengthAdjust="spacing" textLength="111" x="245.5" y="147.0252">PaiementService</text></g><!--MD5=[f30b69ba78f97612f93690a8ca799d56]
link ClientUI to Comp2--><g id="link_ClientUI_Comp2"><path d="M101.23,30.25 C110.96,30.25 120.7,30.25 130.44,30.25 " fill="none" id="ClientUI-to-Comp2" style="stroke:#181818;stroke-width:1.0;stroke-dasharray:7.0,7.0;"/><polygon fill="#181818" points="135.17,30.25,126.17,26.25,130.17,30.25,126.17,34.25,135.17,30.25" style="stroke:#181818;stroke-width:1.0;"/></g><!--MD5=[4770075435233ca180f8edb8c7ce0e9e]
link Comp2 to CommandeService--><g id="link_Comp2_CommandeService"><path d="M187.95,53.92 C172.95,70.08 152.73,91.86 136.92,108.89 " fill="none" id="Comp2-to-CommandeService" style="stroke:#181818;stroke-width:1.0;stroke-dasharray:7.0,7.0;"/><polygon fill="#181818" points="134.01,112.11,143.0676,108.2421,137.4144,108.4481,137.2085,102.795,134.01,112.11" style="stroke:#181818;stroke-width:1.0;"/></g><!--MD5=[d3e3adeb431b7d508cb387c9ef3ae94a]
link Comp2 to Comp4--><g id="link_Comp2_Comp4"><path d="M230.05,53.92 C245.05,70.08 265.27,91.86 281.08,108.89 " fill="none" id="Comp2-to-Comp4" style="stroke:#181818;stroke-width:1.0;stroke-dasharray:7.0,7.0;"/><polygon fill="#181818" points="283.99,112.11,280.7915,102.795,280.5856,108.4481,274.9324,108.2421,283.99,112.11" style="stroke:#181818;stroke-width:1.0;"/></g><!--MD5=[61ea2730d561ac0e9cf157ce2ab79230]
@startuml
skinparam backgroundcolor transparent
[ClientUI]
[ProduitsService] as Comp2
component CommandeService
component [PaiementService] as Comp4
ClientUI .> Comp2
Comp2 ..> CommandeService
Comp2 ..> Comp4
@enduml

PlantUML version 1.2022.7(Mon Aug 22 13:01:30 EDT 2022)
(GPL source distribution)
Java Runtime: OpenJDK Runtime Environment
JVM: OpenJDK 64-Bit Server VM
Default Encoding: UTF-8
Language: en
Country: CA
--></g></svg>