<?xml version="1.0" encoding="UTF-8" standalone="no"?><svg xmlns="http://www.w3.org/2000/svg" xmlns:xlink="http://www.w3.org/1999/xlink" contentStyleType="text/css" height="168px" preserveAspectRatio="none" style="width:346px;height:168px;background:#FFFFFF;" version="1.1" viewBox="0 0 346 168" width="346px" zoomAndPan="magnify"><defs/><g><!--MD5=[63afcd40d2edd859ed351233e2de2c5d]
entity ClientUI--><g id="elem_ClientUI"><rect fill="#F1F1F1" height="47.6094" rx="2.5" ry="2.5" style="stroke:#181818;stroke-width:0.5;" width="88" x="7" y="7"/><rect fill="#F1F1F1" height="10" style="stroke:#181818;stroke-width:0.5;" width="15" x="75" y="12"/><rect fill="#F1F1F1" height="2" style="stroke:#181818;stroke-width:0.5;" width="4" x="73" y="14"/><rect fill="#F1F1F1" height="2" style="stroke:#181818;stroke-width:0.5;" width="4" x="73" y="18"/><text fill="#000000" font-family="sans-serif" font-size="14" lengthAdjust="spacing" textLength="48" x="22" y="41.5332">ClientUI</text></g><!--MD5=[fcc35125a50bf27f0a58c916e8462e43]
entity Comp2--><g id="elem_Comp2"><rect fill="#F1F1F1" height="47.6094" rx="2.5" ry="2.5" style="stroke:#181818;stroke-width:0.5;" width="110" x="130" y="7"/><rect fill="#F1F1F1" height="10" style="stroke:#181818;stroke-width:0.5;" width="15" x="220" y="12"/><rect fill="#F1F1F1" height="2" style="stroke:#181818;stroke-width:0.5;" width="4" x="218" y="14"/><rect fill="#F1F1F1" height="2" style="stroke:#181818;stroke-width:0.5;" width="4" x="218" y="18"/><text fill="#000000" font-family="sans-serif" font-size="14" lengthAdjust="spacing" textLength="70" x="145" y="41.5332">ProductAPI</text></g><!--MD5=[9b0ee41058c506f496d31c8c2a337121]
entity OrderService--><g id="elem_OrderService"><rect fill="#F1F1F1" height="47.6094" rx="2.5" ry="2.5" style="stroke:#181818;stroke-width:0.5;" width="124" x="39" y="115"/><rect fill="#F1F1F1" height="10" style="stroke:#181818;stroke-width:0.5;" width="15" x="143" y="120"/><rect fill="#F1F1F1" height="2" style="stroke:#181818;stroke-width:0.5;" width="4" x="141" y="122"/><rect fill="#F1F1F1" height="2" style="stroke:#181818;stroke-width:0.5;" width="4" x="141" y="126"/><text fill="#000000" font-family="sans-serif" font-size="14" lengthAdjust="spacing" textLength="84" x="54" y="149.5332">OrderService</text></g><!--MD5=[9cfae8aaee43ceeb6127c652bd5114d8]
entity Comp4--><g id="elem_Comp4"><rect fill="#F1F1F1" height="47.6094" rx="2.5" ry="2.5" style="stroke:#181818;stroke-width:0.5;" width="142" x="198" y="115"/><rect fill="#F1F1F1" height="10" style="stroke:#181818;stroke-width:0.5;" width="15" x="320" y="120"/><rect fill="#F1F1F1" height="2" style="stroke:#181818;stroke-width:0.5;" width="4" x="318" y="122"/><rect fill="#F1F1F1" height="2" style="stroke:#181818;stroke-width:0.5;" width="4" x="318" y="126"/><text fill="#000000" font-family="sans-serif" font-size="14" lengthAdjust="spacing" textLength="102" x="213" y="149.5332">PaymentService</text></g><!--MD5=[f30b69ba78f97612f93690a8ca799d56]
link ClientUI to Comp2--><g id="link_ClientUI_Comp2"><path d="M95.23,31 C105.08,31 114.94,31 124.79,31 " fill="none" id="ClientUI-to-Comp2" style="stroke:#181818;stroke-width:1.0;stroke-dasharray:7.0,7.0;"/><polygon fill="#181818" points="129.95,31,120.95,27,124.95,31,120.95,35,129.95,31" style="stroke:#181818;stroke-width:1.0;"/></g><!--MD5=[bd1c61ef76b91f139dbbe8208b345117]
link Comp2 to OrderService--><g id="link_Comp2_OrderService"><path d="M166.77,55 C153.87,71.28 136.51,93.19 122.87,110.41 " fill="none" id="Comp2-to-OrderService" style="stroke:#181818;stroke-width:1.0;stroke-dasharray:7.0,7.0;"/><polygon fill="#181818" points="119.48,114.68,128.2136,110.1276,122.593,110.7673,121.9533,105.1467,119.48,114.68" style="stroke:#181818;stroke-width:1.0;"/></g><!--MD5=[d3e3adeb431b7d508cb387c9ef3ae94a]
link Comp2 to Comp4--><g id="link_Comp2_Comp4"><path d="M203.23,55 C216.13,71.28 233.49,93.19 247.13,110.41 " fill="none" id="Comp2-to-Comp4" style="stroke:#181818;stroke-width:1.0;stroke-dasharray:7.0,7.0;"/><polygon fill="#181818" points="250.52,114.68,248.0467,105.1467,247.407,110.7673,241.7864,110.1276,250.52,114.68" style="stroke:#181818;stroke-width:1.0;"/></g><!--MD5=[3e694180aaa41360bbfd4a8322a0afc3]
@startuml

[ClientUI]
[ProductAPI] as Comp2
component OrderService
component [PaymentService] as Comp4
ClientUI .> Comp2
Comp2 ..> OrderService
Comp2 ..> Comp4
@enduml

PlantUML version 1.2022.7(Mon Aug 22 13:01:30 EDT 2022)
(GPL source distribution)
Java Runtime: Java(TM) SE Runtime Environment
JVM: Java HotSpot(TM) 64-Bit Server VM
Default Encoding: Cp1252
Language: en
Country: CA
--></g></svg>