<?xml version="1.0" encoding="us-ascii" standalone="no"?><svg xmlns="http://www.w3.org/2000/svg" xmlns:xlink="http://www.w3.org/1999/xlink" contentStyleType="text/css" height="172px" preserveAspectRatio="none" style="width:296px;height:172px;background:#FFFFFF;" version="1.1" viewBox="0 0 296 172" width="296px" zoomAndPan="magnify"><defs/><g><!--entity Composant1--><g id="elem_Composant1"><rect fill="#F1F1F1" height="46.2969" rx="2.5" ry="2.5" style="stroke:#181818;stroke-width:0.5;" width="132" x="7" y="10.5"/><rect fill="#F1F1F1" height="10" style="stroke:#181818;stroke-width:0.5;" width="15" x="119" y="15.5"/><rect fill="#F1F1F1" height="2" style="stroke:#181818;stroke-width:0.5;" width="4" x="117" y="17.5"/><rect fill="#F1F1F1" height="2" style="stroke:#181818;stroke-width:0.5;" width="4" x="117" y="21.5"/><text fill="#000000" font-family="sans-serif" font-size="14" lengthAdjust="spacing" textLength="92" x="22" y="43.4951">Composant1</text></g><!--entity Composant2--><g id="elem_Composant2"><rect fill="#F1F1F1" height="46.2969" rx="2.5" ry="2.5" style="stroke:#181818;stroke-width:0.5;" width="131" x="159.5" y="120"/><rect fill="#F1F1F1" height="10" style="stroke:#181818;stroke-width:0.5;" width="15" x="270.5" y="125"/><rect fill="#F1F1F1" height="2" style="stroke:#181818;stroke-width:0.5;" width="4" x="268.5" y="127"/><rect fill="#F1F1F1" height="2" style="stroke:#181818;stroke-width:0.5;" width="4" x="268.5" y="131"/><text fill="#000000" font-family="sans-serif" font-size="14" lengthAdjust="spacing" textLength="91" x="174.5" y="152.9951">Composant2</text></g><!--entity Interface--><g id="elem_Interface"><rect fill="#F1F1F1" height="52.5938" rx="2.5" ry="2.5" style="stroke:#181818;stroke-width:0.5;" width="102" x="174" y="7"/><text fill="#000000" font-family="sans-serif" font-size="14" font-style="italic" lengthAdjust="spacing" textLength="82" x="184" y="29.9951">&#171;Interface&#187;</text><text fill="#000000" font-family="sans-serif" font-size="14" lengthAdjust="spacing" textLength="66" x="192" y="46.292">Interface</text></g><!--link Composant1 to Interface--><g id="link_Composant1_Interface"><path d="M139.203,33.5 C149.002,33.5 158.8,33.5 168.599,33.5 " fill="none" id="Composant1-to-Interface" style="stroke:#181818;stroke-width:1.0;stroke-dasharray:1.0,3.0;"/><polygon fill="#181818" points="173.723,33.5,164.723,29.5,168.723,33.5,164.723,37.5,173.723,33.5" style="stroke:#181818;stroke-width:1.0;"/></g><!--reverse link Interface to Composant2--><g id="link_Interface_Composant2"><path d="M225,80.5324 C225,94.1185 225,108.3763 225,119.7361 " fill="none" id="Interface-backto-Composant2" style="stroke:#181818;stroke-width:1.0;stroke-dasharray:1.0,3.0;"/><polygon fill="none" points="218,80.249,225,60.249,232,80.2489,218,80.249" style="stroke:#181818;stroke-width:1.0;"/></g><!--SRC=[oyXCILL8pYnApadbuahEpot8pqlDAr5m1h6A4_DA3B496d4LfIQN9EQbvwGgUEQLf1Qb9IQdAjZOmDbsTWfSN4WokZdHAVab9QafiRh8HYEfgD75ei880000]--></g></svg>