<?xml version="1.0" encoding="UTF-8" standalone="no"?><svg xmlns="http://www.w3.org/2000/svg" xmlns:xlink="http://www.w3.org/1999/xlink" contentStyleType="text/css" height="71px" preserveAspectRatio="none" style="width:285px;height:71px;background:#FFFFFF;" version="1.1" viewBox="0 0 285 71" width="285px" zoomAndPan="magnify"><defs/><g><!--MD5=[b2d39259b6aeabc16b394deeb0238426]
entity B--><g id="elem_B"><rect fill="#F1F1F1" height="47.6094" rx="2.5" ry="2.5" style="stroke:#181818;stroke-width:0.5;" width="49" x="7" y="7"/><rect fill="#F1F1F1" height="10" style="stroke:#181818;stroke-width:0.5;" width="15" x="36" y="12"/><rect fill="#F1F1F1" height="2" style="stroke:#181818;stroke-width:0.5;" width="4" x="34" y="14"/><rect fill="#F1F1F1" height="2" style="stroke:#181818;stroke-width:0.5;" width="4" x="34" y="18"/><text fill="#000000" font-family="sans-serif" font-size="14" lengthAdjust="spacing" textLength="9" x="22" y="41.5332">B</text></g><!--MD5=[770389ab9df153645bc6ef28055eb2b5]
entity A--><g id="elem_A"><rect fill="#F1F1F1" height="47.6094" rx="2.5" ry="2.5" style="stroke:#181818;stroke-width:0.5;" width="49" x="230" y="7"/><rect fill="#F1F1F1" height="10" style="stroke:#181818;stroke-width:0.5;" width="15" x="259" y="12"/><rect fill="#F1F1F1" height="2" style="stroke:#181818;stroke-width:0.5;" width="4" x="257" y="14"/><rect fill="#F1F1F1" height="2" style="stroke:#181818;stroke-width:0.5;" width="4" x="257" y="18"/><text fill="#000000" font-family="sans-serif" font-size="14" lengthAdjust="spacing" textLength="9" x="245" y="41.5332">A</text></g><!--MD5=[16fab723be418f7eaf2ea4bd895a8e51]
entity C--><g id="elem_C"><ellipse cx="143" cy="31" fill="#F1F1F1" rx="8" ry="8" style="stroke:#181818;stroke-width:0.5;"/><text fill="#000000" font-family="sans-serif" font-size="14" lengthAdjust="spacing" textLength="10" x="138" y="62.5332">C</text></g><!--MD5=[cd25d8247324207f828a4db9f58ed69d]
link B to C--><g id="link_B_C"><path d="M56.26,31 C80.67,31 117.32,31 133.64,31 " fill="none" id="B-C" style="stroke:#181818;stroke-width:1.0;"/></g><!--MD5=[af6f073b7b5163b432cedcd91e02d35b]
reverse link C to A--><g id="link_C_A"><path d="M162.3,31 C180.88,31 209.72,31 229.98,31 " fill="none" id="C-backto-A" style="stroke:#181818;stroke-width:1.0;"/><path d="M155.3082,39.4572 A9,9 0 0 0 155.3082 22.5428" fill="none" style="stroke:#181818;stroke-width:1.5;"/></g><!--MD5=[768a6a771ea392687eb730b990e1632d]
@startuml
left to right direction
hide circle
skinparam classAttributeIconSize 0
Component B
Component A
interface C

B - - C
C )- - A
@enduml

PlantUML version 1.2022.7(Mon Aug 22 13:01:30 EDT 2022)
(GPL source distribution)
Java Runtime: Java(TM) SE Runtime Environment
JVM: Java HotSpot(TM) 64-Bit Server VM
Default Encoding: Cp1252
Language: en
Country: CA
--></g></svg>