<?xml version="1.0" encoding="UTF-8" standalone="no"?><svg xmlns="http://www.w3.org/2000/svg" xmlns:xlink="http://www.w3.org/1999/xlink" contentStyleType="text/css" height="69px" preserveAspectRatio="none" style="width:285px;height:69px;background:#00000000;" version="1.1" viewBox="0 0 285 69" width="285px" zoomAndPan="magnify"><defs/><g><!--MD5=[b2d39259b6aeabc16b394deeb0238426]
entity B--><g id="elem_B"><rect fill="#F1F1F1" height="46.4883" rx="2.5" ry="2.5" style="stroke:#181818;stroke-width:0.5;" width="48" x="7" y="7"/><rect fill="#F1F1F1" height="10" style="stroke:#181818;stroke-width:0.5;" width="15" x="35" y="12"/><rect fill="#F1F1F1" height="2" style="stroke:#181818;stroke-width:0.5;" width="4" x="33" y="14"/><rect fill="#F1F1F1" height="2" style="stroke:#181818;stroke-width:0.5;" width="4" x="33" y="18"/><text fill="#000000" font-family="sans-serif" font-size="14" lengthAdjust="spacing" textLength="8" x="22" y="40.5352">B</text></g><!--MD5=[770389ab9df153645bc6ef28055eb2b5]
entity A--><g id="elem_A"><rect fill="#F1F1F1" height="46.4883" rx="2.5" ry="2.5" style="stroke:#181818;stroke-width:0.5;" width="50" x="229" y="7"/><rect fill="#F1F1F1" height="10" style="stroke:#181818;stroke-width:0.5;" width="15" x="259" y="12"/><rect fill="#F1F1F1" height="2" style="stroke:#181818;stroke-width:0.5;" width="4" x="257" y="14"/><rect fill="#F1F1F1" height="2" style="stroke:#181818;stroke-width:0.5;" width="4" x="257" y="18"/><text fill="#000000" font-family="sans-serif" font-size="14" lengthAdjust="spacing" textLength="10" x="244" y="40.5352">A</text></g><!--MD5=[16fab723be418f7eaf2ea4bd895a8e51]
entity C--><g id="elem_C"><ellipse cx="142" cy="30.24" fill="#F1F1F1" rx="8" ry="8" style="stroke:#181818;stroke-width:0.5;"/><text fill="#000000" font-family="sans-serif" font-size="14" lengthAdjust="spacing" textLength="10" x="137" y="60.7752">C</text></g><!--MD5=[cd25d8247324207f828a4db9f58ed69d]
link B to C--><g id="link_B_C"><path d="M55.38,30.24 C79.9,30.24 117.06,30.24 133.14,30.24 " fill="none" id="B-C" style="stroke:#181818;stroke-width:1.0;"/></g><!--MD5=[af6f073b7b5163b432cedcd91e02d35b]
reverse link C to A--><g id="link_C_A"><path d="M161.67,30.24 C180.14,30.24 208.51,30.24 228.73,30.24 " fill="none" id="C-backto-A" style="stroke:#181818;stroke-width:1.0;"/><path d="M154.9882,38.6972 A9,9 0 0 0 154.9882 21.7828" fill="none" style="stroke:#181818;stroke-width:1.5;"/></g><!--MD5=[7a055a470081b1efc801948719597618]
@startuml
skinparam backgroundcolor transparent
left to right direction
hide circle
skinparam classAttributeIconSize 0
Component B
Component A
interface C

B - - C
C )- - A
@enduml

PlantUML version 1.2022.7(Mon Aug 22 13:01:30 EDT 2022)
(GPL source distribution)
Java Runtime: OpenJDK Runtime Environment
JVM: OpenJDK 64-Bit Server VM
Default Encoding: UTF-8
Language: en
Country: CA
--></g></svg>