<?xml version="1.0" encoding="UTF-8" standalone="no"?><svg xmlns="http://www.w3.org/2000/svg" xmlns:xlink="http://www.w3.org/1999/xlink" contentStyleType="text/css" height="447px" preserveAspectRatio="none" style="width:457px;height:447px;background:#00000000;" version="1.1" viewBox="0 0 457 447" width="457px" zoomAndPan="magnify"><defs/><g><ellipse cx="208" cy="20" fill="#222222" rx="10" ry="10" style="stroke:#222222;stroke-width:1.0;"/><polygon fill="#F1F1F1" points="208,50,208,50,220,62,208,74,208,74,196,62,208,50" style="stroke:#181818;stroke-width:0.5;"/><text fill="#000000" font-family="sans-serif" font-size="11" lengthAdjust="spacing" textLength="92" x="104" y="59.6797">[Code en Python]</text><text fill="#000000" font-family="sans-serif" font-size="11" lengthAdjust="spacing" textLength="81" x="220" y="59.6797">[Code en C++]</text><rect fill="#F1F1F1" height="34.1328" rx="12.5" ry="12.5" style="stroke:#181818;stroke-width:0.5;" width="128" x="41.5" y="84"/><text fill="#000000" font-family="sans-serif" font-size="12" lengthAdjust="spacing" textLength="108" x="51.5" y="105.6016">Interpréter le code</text><rect fill="#F1F1F1" height="34.1328" rx="12.5" ry="12.5" style="stroke:#181818;stroke-width:0.5;" width="118" x="251.5" y="84"/><text fill="#000000" font-family="sans-serif" font-size="12" lengthAdjust="spacing" textLength="98" x="261.5" y="105.6016">Compiler le code</text><rect fill="#F1F1F1" height="34.1328" rx="12.5" ry="12.5" style="stroke:#181818;stroke-width:0.5;" width="222" x="199.5" y="186.6104"/><text fill="#000000" font-family="sans-serif" font-size="12" lengthAdjust="spacing" textLength="202" x="209.5" y="208.2119">Indiquer une erreur de compilation</text><ellipse cx="310.5" cy="266.7432" fill="none" rx="11" ry="11" style="stroke:#222222;stroke-width:1.0;"/><ellipse cx="310.5" cy="266.7432" fill="#222222" rx="6" ry="6" style="stroke:#111111;stroke-width:1.0;"/><polygon fill="#F1F1F1" points="310.5,138.1328,310.5,138.1328,322.5,150.1328,310.5,162.1328,310.5,162.1328,298.5,150.1328,310.5,138.1328" style="stroke:#181818;stroke-width:0.5;"/><text fill="#000000" font-family="sans-serif" font-size="11" lengthAdjust="spacing" textLength="33" x="314.5" y="172.7676">[false]</text><text fill="#000000" font-family="sans-serif" font-size="11" lengthAdjust="spacing" textLength="30" x="322.5" y="147.8125">[true]</text><polygon fill="#F1F1F1" points="208,305.7432,220,317.7432,208,329.7432,196,317.7432,208,305.7432" style="stroke:#181818;stroke-width:0.5;"/><rect fill="#F1F1F1" height="34.1328" rx="12.5" ry="12.5" style="stroke:#181818;stroke-width:0.5;" width="116" x="150" y="349.7432"/><text fill="#000000" font-family="sans-serif" font-size="12" lengthAdjust="spacing" textLength="96" x="160" y="371.3447">Exécuter le code</text><path d="M10,394.5654 L10,435.1865 L177,435.1865 L177,404.5654 L167,394.5654 L10,394.5654 " fill="#FEFFDD" style="stroke:#181818;stroke-width:0.5;"/><path d="M167,394.5654 L167,404.5654 L177,404.5654 L167,394.5654 " fill="#FEFFDD" style="stroke:#181818;stroke-width:0.5;"/><text fill="#000000" font-family="sans-serif" font-size="13" font-weight="bold" lengthAdjust="spacing" textLength="132" x="20" y="412.1338">&lt;&lt;decisionInput&gt;&gt;</text><text fill="#000000" font-family="sans-serif" font-size="13" lengthAdjust="spacing" textLength="146" x="16" y="427.4443">syntaxErrorCount == 0</text><ellipse cx="208" cy="414.876" fill="none" rx="11" ry="11" style="stroke:#222222;stroke-width:1.0;"/><ellipse cx="208" cy="414.876" fill="#222222" rx="6" ry="6" style="stroke:#111111;stroke-width:1.0;"/><line style="stroke:#181818;stroke-width:1.0;" x1="310.5" x2="310.5" y1="220.7432" y2="255.7432"/><polygon fill="#181818" points="306.5,245.7432,310.5,255.7432,314.5,245.7432,310.5,249.7432" style="stroke:#181818;stroke-width:1.0;"/><line style="stroke:#181818;stroke-width:1.0;" x1="310.5" x2="310.5" y1="162.1328" y2="186.6104"/><polygon fill="#181818" points="306.5,176.6104,310.5,186.6104,314.5,176.6104,310.5,180.6104" style="stroke:#181818;stroke-width:1.0;"/><line style="stroke:#181818;stroke-width:1.0;" x1="322.5" x2="431.5" y1="150.1328" y2="150.1328"/><polygon fill="#181818" points="427.5,228.1768,431.5,238.1768,435.5,228.1768,431.5,232.1768" style="stroke:#181818;stroke-width:1.0;"/><line style="stroke:#181818;stroke-width:1.0;" x1="431.5" x2="431.5" y1="150.1328" y2="317.7432"/><line style="stroke:#181818;stroke-width:1.0;" x1="431.5" x2="220" y1="317.7432" y2="317.7432"/><polygon fill="#181818" points="230,313.7432,220,317.7432,230,321.7432,226,317.7432" style="stroke:#181818;stroke-width:1.0;"/><line style="stroke:#181818;stroke-width:1.0;" x1="310.5" x2="310.5" y1="118.1328" y2="138.1328"/><polygon fill="#181818" points="306.5,128.1328,310.5,138.1328,314.5,128.1328,310.5,132.1328" style="stroke:#181818;stroke-width:1.0;"/><line style="stroke:#181818;stroke-width:1.0;" x1="196" x2="105.5" y1="62" y2="62"/><line style="stroke:#181818;stroke-width:1.0;" x1="105.5" x2="105.5" y1="62" y2="84"/><polygon fill="#181818" points="101.5,74,105.5,84,109.5,74,105.5,78" style="stroke:#181818;stroke-width:1.0;"/><line style="stroke:#181818;stroke-width:1.0;" x1="220" x2="310.5" y1="62" y2="62"/><line style="stroke:#181818;stroke-width:1.0;" x1="310.5" x2="310.5" y1="62" y2="84"/><polygon fill="#181818" points="306.5,74,310.5,84,314.5,74,310.5,78" style="stroke:#181818;stroke-width:1.0;"/><line style="stroke:#181818;stroke-width:1.0;" x1="105.5" x2="105.5" y1="118.1328" y2="317.7432"/><line style="stroke:#181818;stroke-width:1.0;" x1="105.5" x2="196" y1="317.7432" y2="317.7432"/><polygon fill="#181818" points="186,313.7432,196,317.7432,186,321.7432,190,317.7432" style="stroke:#181818;stroke-width:1.0;"/><line style="stroke:#181818;stroke-width:1.0;" x1="208" x2="208" y1="30" y2="50"/><polygon fill="#181818" points="204,40,208,50,212,40,208,44" style="stroke:#181818;stroke-width:1.0;"/><line style="stroke:#181818;stroke-width:1.0;" x1="208" x2="208" y1="329.7432" y2="349.7432"/><polygon fill="#181818" points="204,339.7432,208,349.7432,212,339.7432,208,343.7432" style="stroke:#181818;stroke-width:1.0;"/><line style="stroke:#181818;stroke-width:1.0;" x1="208" x2="208" y1="383.876" y2="403.876"/><polygon fill="#181818" points="204,393.876,208,403.876,212,393.876,208,397.876" style="stroke:#181818;stroke-width:1.0;"/><!--MD5=[336c3dd9383029d532727ef355153e72]
@startuml
start
skinparam backgroundcolor transparent

if () then ([Code en Python])
  :Interpréter le code;
else ([Code en C++])
  :Compiler le code;
  if () then ([false])
    :Indiquer une erreur de compilation;
    stop
  else ([true])
  endif
endif
:Exécuter le code;

stop
    floating note
    <b> <<decisionInput>> </b>
    syntaxErrorCount == 0
    end note
@enduml

PlantUML version 1.2022.7(Mon Aug 22 13:01:30 EDT 2022)
(GPL source distribution)
Java Runtime: OpenJDK Runtime Environment
JVM: OpenJDK 64-Bit Server VM
Default Encoding: UTF-8
Language: en
Country: CA
--></g></svg>