<?xml version="1.0" encoding="UTF-8" standalone="no"?><svg xmlns="http://www.w3.org/2000/svg" xmlns:xlink="http://www.w3.org/1999/xlink" contentStyleType="text/css" height="68px" preserveAspectRatio="none" style="width:378px;height:68px;background:#FFFFFF;" version="1.1" viewBox="0 0 378 68" width="378px" zoomAndPan="magnify"><defs/><g><!--MD5=[9cf9ab6d273db467b4343d3233be372b]
entity PayrollSystem--><g id="elem_PayrollSystem"><path d="M8.5,6 L49.5,6 A3.75,3.75 0 0 1 52,8.5 L59,27 L122.5,27 A2.5,2.5 0 0 1 125,29.5 L125,59.1094 A2.5,2.5 0 0 1 122.5,61.6094 L8.5,61.6094 A2.5,2.5 0 0 1 6,59.1094 L6,8.5 A2.5,2.5 0 0 1 8.5,6 " fill="#F1F1F1" style="stroke:#181818;stroke-width:0.5;"/><line style="stroke:#181818;stroke-width:0.5;" x1="6" x2="59" y1="27" y2="27"/><text fill="#000000" font-family="sans-serif" font-size="14" lengthAdjust="spacing" textLength="89" x="16" y="48.5332">PayrollSystem</text></g><!--MD5=[aba640e4f4167f514b71375f1ec13817]
entity EmployeeTimeSheet--><g id="elem_EmployeeTimeSheet"><path d="M214,6 L255,6 A3.75,3.75 0 0 1 257.5,8.5 L264.5,27 L369,27 A2.5,2.5 0 0 1 371.5,29.5 L371.5,59.1094 A2.5,2.5 0 0 1 369,61.6094 L214,61.6094 A2.5,2.5 0 0 1 211.5,59.1094 L211.5,8.5 A2.5,2.5 0 0 1 214,6 " fill="#F1F1F1" style="stroke:#181818;stroke-width:0.5;"/><line style="stroke:#181818;stroke-width:0.5;" x1="211.5" x2="264.5" y1="27" y2="27"/><text fill="#000000" font-family="sans-serif" font-size="14" lengthAdjust="spacing" textLength="130" x="221.5" y="48.5332">EmployeeTimeSheet</text></g><!--MD5=[bc7c2cdaaf6fc21614ed70d39c9c1db0]
link PayrollSystem to EmployeeTimeSheet--><g id="link_PayrollSystem_EmployeeTimeSheet"><path codeLine="8" d="M125.17,34 C150.04,34 179.38,34 206.44,34 " fill="none" id="PayrollSystem-to-EmployeeTimeSheet" style="stroke:#181818;stroke-width:1.0;stroke-dasharray:7.0,7.0;"/><polygon fill="#181818" points="211.47,34,202.47,30,206.47,34,202.47,38,211.47,34" style="stroke:#181818;stroke-width:1.0;"/><text fill="#000000" font-family="sans-serif" font-size="13" lengthAdjust="spacing" textLength="50" x="143.25" y="27.4951">«import»</text></g><!--MD5=[1ff94c50f007ca6d7f1c808c7eeaaf47]
@startuml
hide circle
allow_mixing
skinparam classAttributeIconSize 0

folder PayrollSystem
folder EmployeeTimeSheet

PayrollSystem.>EmployeeTimeSheet:<<import>>


@enduml

PlantUML version 1.2022.7(Mon Aug 22 13:01:30 EDT 2022)
(GPL source distribution)
Java Runtime: Java(TM) SE Runtime Environment
JVM: Java HotSpot(TM) 64-Bit Server VM
Default Encoding: Cp1252
Language: en
Country: CA
--></g></svg>