<?xml version="1.0" encoding="UTF-8" standalone="no"?><svg xmlns="http://www.w3.org/2000/svg" xmlns:xlink="http://www.w3.org/1999/xlink" contentStyleType="text/css" height="67px" preserveAspectRatio="none" style="width:376px;height:67px;background:#00000000;" version="1.1" viewBox="0 0 376 67" width="376px" zoomAndPan="magnify"><defs/><g><!--MD5=[286a7fca6a874b03ce33c6f8951fede8]
entity SystèmeDePaie--><g id="elem_SystèmeDePaie"><path d="M8.5,6 L49.5,6 A3.75,3.75 0 0 1 52,8.5 L59,27 L135.5,27 A2.5,2.5 0 0 1 138,29.5 L138,57.9883 A2.5,2.5 0 0 1 135.5,60.4883 L8.5,60.4883 A2.5,2.5 0 0 1 6,57.9883 L6,8.5 A2.5,2.5 0 0 1 8.5,6 " fill="#F1F1F1" style="stroke:#181818;stroke-width:0.5;"/><line style="stroke:#181818;stroke-width:0.5;" x1="6" x2="59" y1="27" y2="27"/><text fill="#000000" font-family="sans-serif" font-size="14" lengthAdjust="spacing" textLength="102" x="16" y="47.5352">SystèmeDePaie</text></g><!--MD5=[dc9403ad53d7bf0e856855d85ff4f87f]
entity HoraireEmployé--><g id="elem_HoraireEmployé"><path d="M233,6 L274,6 A3.75,3.75 0 0 1 276.5,8.5 L283.5,27 L367,27 A2.5,2.5 0 0 1 369.5,29.5 L369.5,57.9883 A2.5,2.5 0 0 1 367,60.4883 L233,60.4883 A2.5,2.5 0 0 1 230.5,57.9883 L230.5,8.5 A2.5,2.5 0 0 1 233,6 " fill="#F1F1F1" style="stroke:#181818;stroke-width:0.5;"/><line style="stroke:#181818;stroke-width:0.5;" x1="230.5" x2="283.5" y1="27" y2="27"/><text fill="#000000" font-family="sans-serif" font-size="14" lengthAdjust="spacing" textLength="109" x="240.5" y="47.5352">HoraireEmployé</text></g><!--MD5=[c0845e2efee357e635c00c059876bb60]
link SystèmeDePaie to HoraireEmployé--><g id="link_SystèmeDePaie_HoraireEmployé"><path codeLine="9" d="M138.25,33.25 C165.14,33.25 196.34,33.25 224.13,33.25 " fill="none" id="SystèmeDePaie-to-HoraireEmployé" style="stroke:#181818;stroke-width:1.0;stroke-dasharray:7.0,7.0;"/><polygon fill="#181818" points="229,33.25,220,29.25,224,33.25,220,37.25,229,33.25" style="stroke:#181818;stroke-width:1.0;"/><text fill="#000000" font-family="sans-serif" font-size="13" lengthAdjust="spacing" textLength="56" x="156.25" y="26.8184">«import»</text></g><!--MD5=[5252de3629c5766910a7d9880720bcbd]
@startuml
hide circle
skinparam backgroundcolor transparent
allow_mixing
skinparam classAttributeIconSize 0

folder SystèmeDePaie
folder HoraireEmployé

SystèmeDePaie.>HoraireEmployé:<<import>>


@enduml

PlantUML version 1.2022.7(Mon Aug 22 13:01:30 EDT 2022)
(GPL source distribution)
Java Runtime: OpenJDK Runtime Environment
JVM: OpenJDK 64-Bit Server VM
Default Encoding: UTF-8
Language: en
Country: CA
--></g></svg>