<?xml version="1.0" encoding="us-ascii" standalone="no"?><svg xmlns="http://www.w3.org/2000/svg" xmlns:xlink="http://www.w3.org/1999/xlink" contentStyleType="text/css" height="68px" preserveAspectRatio="none" style="width:288px;height:68px;" version="1.1" viewBox="0 0 288 68" width="288px" zoomAndPan="magnify"><defs/><g><!--entity Utilisateurs--><g id="elem_Utilisateurs"><path d="M8.5,6 L49.5,6 A3.75,3.75 0 0 1 52,8.5 L59,27 L102.5,27 A2.5,2.5 0 0 1 105,29.5 L105,59.1094 A2.5,2.5 0 0 1 102.5,61.6094 L8.5,61.6094 A2.5,2.5 0 0 1 6,59.1094 L6,8.5 A2.5,2.5 0 0 1 8.5,6 " fill="#F1F1F1" style="stroke:#181818;stroke-width:0.5;"/><line style="stroke:#181818;stroke-width:0.5;" x1="6" x2="59" y1="27" y2="27"/><text fill="#000000" font-family="sans-serif" font-size="14" lengthAdjust="spacing" textLength="69" x="16" y="48.5332">Utilisateurs</text></g><!--entity Reunions--><g id="elem_Reunions"><path d="M194,6 L235,6 A3.75,3.75 0 0 1 237.5,8.5 L244.5,27 L279,27 A2.5,2.5 0 0 1 281.5,29.5 L281.5,59.1094 A2.5,2.5 0 0 1 279,61.6094 L194,61.6094 A2.5,2.5 0 0 1 191.5,59.1094 L191.5,8.5 A2.5,2.5 0 0 1 194,6 " fill="#F1F1F1" style="stroke:#181818;stroke-width:0.5;"/><line style="stroke:#181818;stroke-width:0.5;" x1="191.5" x2="244.5" y1="27" y2="27"/><text fill="#000000" font-family="sans-serif" font-size="14" lengthAdjust="spacing" textLength="60" x="201.5" y="48.5332">Reunions</text></g><!--link Utilisateurs to Reunions--><g id="link_Utilisateurs_Reunions"><path codeLine="9" d="M105.44,34 C132.33,34 159.25,34 185.36,34 " fill="none" id="Utilisateurs-to-Reunions" style="stroke:#181818;stroke-width:1.0;stroke-dasharray:7.0,7.0;"/><polygon fill="#181818" points="191.36,34,182.36,30,186.36,34,182.36,38,191.36,34" style="stroke:#181818;stroke-width:1.0;"/><text fill="#000000" font-family="sans-serif" font-size="13" lengthAdjust="spacing" textLength="50" x="123.25" y="27.4951">&#171;import&#187;</text></g><!--SRC=[JSkn2i9G343HFL_nla2SfHGSNHLdILzZ3KsJakIX-FMw5BhUmttnIAMoLo68cNL5nwKCMEV9hUbOJSnBEchyYJG1HUpzMFZ3EksMAXXnpdGUMjAbcjxuI-K8y3GPoSizMJWmgNbixKfDsJG0zdhejtxgEbvMy-nxW1y0]--></g></svg>