<?xml version="1.0" encoding="UTF-8" standalone="no"?><svg xmlns="http://www.w3.org/2000/svg" xmlns:xlink="http://www.w3.org/1999/xlink" contentStyleType="text/css" height="67px" preserveAspectRatio="none" style="width:397px;height:67px;background:#00000000;" version="1.1" viewBox="0 0 397 67" width="397px" zoomAndPan="magnify"><defs/><g><!--MD5=[9cf9ab6d273db467b4343d3233be372b]
entity PayrollSystem--><g id="elem_PayrollSystem"><path d="M8.5,6 L49.5,6 A3.75,3.75 0 0 1 52,8.5 L59,27 L127.5,27 A2.5,2.5 0 0 1 130,29.5 L130,57.9883 A2.5,2.5 0 0 1 127.5,60.4883 L8.5,60.4883 A2.5,2.5 0 0 1 6,57.9883 L6,8.5 A2.5,2.5 0 0 1 8.5,6 " fill="#F1F1F1" style="stroke:#181818;stroke-width:0.5;"/><line style="stroke:#181818;stroke-width:0.5;" x1="6" x2="59" y1="27" y2="27"/><text fill="#000000" font-family="sans-serif" font-size="14" lengthAdjust="spacing" textLength="94" x="16" y="47.5352">PayrollSystem</text></g><!--MD5=[aba640e4f4167f514b71375f1ec13817]
entity EmployeeTimeSheet--><g id="elem_EmployeeTimeSheet"><path d="M224.5,6 L265.5,6 A3.75,3.75 0 0 1 268,8.5 L275,27 L387.5,27 A2.5,2.5 0 0 1 390,29.5 L390,57.9883 A2.5,2.5 0 0 1 387.5,60.4883 L224.5,60.4883 A2.5,2.5 0 0 1 222,57.9883 L222,8.5 A2.5,2.5 0 0 1 224.5,6 " fill="#F1F1F1" style="stroke:#181818;stroke-width:0.5;"/><line style="stroke:#181818;stroke-width:0.5;" x1="222" x2="275" y1="27" y2="27"/><text fill="#000000" font-family="sans-serif" font-size="14" lengthAdjust="spacing" textLength="138" x="232" y="47.5352">EmployeeTimeSheet</text></g><!--MD5=[bc7c2cdaaf6fc21614ed70d39c9c1db0]
link PayrollSystem to EmployeeTimeSheet--><g id="link_PayrollSystem_EmployeeTimeSheet"><path codeLine="9" d="M130.22,33.25 C156.43,33.25 187.44,33.25 216.07,33.25 " fill="none" id="PayrollSystem-to-EmployeeTimeSheet" style="stroke:#181818;stroke-width:1.0;stroke-dasharray:7.0,7.0;"/><polygon fill="#181818" points="220.76,33.25,211.76,29.25,215.76,33.25,211.76,37.25,220.76,33.25" style="stroke:#181818;stroke-width:1.0;"/><text fill="#000000" font-family="sans-serif" font-size="13" lengthAdjust="spacing" textLength="56" x="148" y="26.8184">«import»</text></g><!--MD5=[8aaaad7c820a80c4a9deaffd4c5170a7]
@startuml
hide circle
skinparam backgroundcolor transparent
allow_mixing
skinparam classAttributeIconSize 0

folder PayrollSystem
folder EmployeeTimeSheet

PayrollSystem.>EmployeeTimeSheet:<<import>>


@enduml

PlantUML version 1.2022.7(Mon Aug 22 13:01:30 EDT 2022)
(GPL source distribution)
Java Runtime: OpenJDK Runtime Environment
JVM: OpenJDK 64-Bit Server VM
Default Encoding: UTF-8
Language: en
Country: CA
--></g></svg>