<?xml version="1.0" encoding="UTF-8" standalone="no"?><svg xmlns="http://www.w3.org/2000/svg" xmlns:xlink="http://www.w3.org/1999/xlink" contentStyleType="text/css" height="279px" preserveAspectRatio="none" style="width:221px;height:279px;background:#FFFFFF;" version="1.1" viewBox="0 0 221 279" width="221px" zoomAndPan="magnify"><defs/><g><!--MD5=[7dafcc16794d284db7b552873a986268]
class file1--><g id="elem_file1"><rect codeLine="2" fill="#F1F1F1" height="42.4883" id="file1" rx="2.5" ry="2.5" style="stroke:#181818;stroke-width:0.5;" width="60" x="154" y="126.48"/><text fill="#000000" font-family="sans-serif" font-size="14" lengthAdjust="spacing" textLength="54" x="157" y="145.0152">signal.h</text><line style="stroke:#181818;stroke-width:0.5;" x1="155" x2="213" y1="152.9683" y2="152.9683"/><line style="stroke:#181818;stroke-width:0.5;" x1="155" x2="213" y1="160.9683" y2="160.9683"/></g><!--MD5=[42639ba33ac31c072052f2fbd21371c2]
class file2--><g id="elem_file2"><rect codeLine="3" fill="#F1F1F1" height="42.4883" id="file2" rx="2.5" ry="2.5" style="stroke:#181818;stroke-width:0.5;" width="58" x="155" y="7"/><text fill="#000000" font-family="sans-serif" font-size="14" lengthAdjust="spacing" textLength="52" x="158" y="25.5352">signal.c</text><line style="stroke:#181818;stroke-width:0.5;" x1="156" x2="212" y1="33.4883" y2="33.4883"/><line style="stroke:#181818;stroke-width:0.5;" x1="156" x2="212" y1="41.4883" y2="41.4883"/></g><!--MD5=[5e102023dfe585434de47d3815777c3e]
class file3--><g id="elem_file3"><rect codeLine="4" fill="#F1F1F1" height="42.4883" id="file3" rx="2.5" ry="2.5" style="stroke:#181818;stroke-width:0.5;" width="50" x="98" y="229.97"/><text fill="#000000" font-family="sans-serif" font-size="14" lengthAdjust="spacing" textLength="44" x="101" y="248.5052">alert.h</text><line style="stroke:#181818;stroke-width:0.5;" x1="99" x2="147" y1="256.4583" y2="256.4583"/><line style="stroke:#181818;stroke-width:0.5;" x1="99" x2="147" y1="264.4583" y2="264.4583"/></g><!--MD5=[7b692cf7982b04f9ab29ebb8729f86c1]
class file4--><g id="elem_file4"><rect codeLine="5" fill="#F1F1F1" height="42.4883" id="file4" rx="2.5" ry="2.5" style="stroke:#181818;stroke-width:0.5;" width="112" x="7" y="126.48"/><text fill="#000000" font-family="sans-serif" font-size="14" lengthAdjust="spacing" textLength="106" x="10" y="145.0152">alarm.h {v=3.0}</text><line style="stroke:#181818;stroke-width:0.5;" x1="8" x2="118" y1="152.9683" y2="152.9683"/><line style="stroke:#181818;stroke-width:0.5;" x1="8" x2="118" y1="160.9683" y2="160.9683"/></g><!--MD5=[498d0c4258bd17b2e2bcb68ad07de632]
class file5--><g id="elem_file5"><rect codeLine="6" fill="#F1F1F1" height="42.4883" id="file5" rx="2.5" ry="2.5" style="stroke:#181818;stroke-width:0.5;" width="112" x="7" y="7"/><text fill="#000000" font-family="sans-serif" font-size="14" lengthAdjust="spacing" textLength="106" x="10" y="25.5352">alarm.h {v=3.1}</text><line style="stroke:#181818;stroke-width:0.5;" x1="8" x2="118" y1="33.4883" y2="33.4883"/><line style="stroke:#181818;stroke-width:0.5;" x1="8" x2="118" y1="41.4883" y2="41.4883"/></g><!--MD5=[0a27c27e10ee26885654416979e1af38]
link file2 to file1--><g id="link_file2_file1"><path codeLine="8" d="M184,49.97 C184,69.6 184,99.16 184,120.43 " fill="none" id="file2-to-file1" style="stroke:#181818;stroke-width:1.0;stroke-dasharray:7.0,7.0;"/><polygon fill="#181818" points="184,125.2,188,116.2,184,120.2,180,116.2,184,125.2" style="stroke:#181818;stroke-width:1.0;"/></g><!--MD5=[552b8f3fbb943fb8d69815ce0aa27a99]
link file1 to file3--><g id="link_file1_file3"><path codeLine="9" d="M171.66,169.27 C162.06,185.22 148.71,207.44 138.41,224.57 " fill="none" id="file1-to-file3" style="stroke:#181818;stroke-width:1.0;stroke-dasharray:7.0,7.0;"/><polygon fill="#181818" points="135.33,228.71,143.3904,223.0505,137.9025,224.4225,136.5305,218.9346,135.33,228.71" style="stroke:#181818;stroke-width:1.0;"/></g><!--MD5=[71615d14547ff51814733d9ca15ebe57]
link file4 to file3--><g id="link_file4_file3"><path codeLine="10" d="M75.14,169.27 C84.58,185.22 97.71,207.44 107.84,224.57 " fill="none" id="file4-to-file3" style="stroke:#181818;stroke-width:1.0;stroke-dasharray:7.0,7.0;"/><polygon fill="#181818" points="110.88,228.71,109.7178,218.93,108.3243,224.4125,102.8418,223.019,110.88,228.71" style="stroke:#181818;stroke-width:1.0;"/></g><!--MD5=[f0acafa41b8e9eda051bfb540fb4f4eb]
link file5 to file4--><g id="link_file5_file4"><path codeLine="11" d="M63,49.97 C63,69.6 63,99.16 63,120.43 " fill="none" id="file5-to-file4" style="stroke:#181818;stroke-width:1.0;stroke-dasharray:7.0,7.0;"/><polygon fill="#181818" points="63,125.2,67,116.2,63,120.2,59,116.2,63,125.2" style="stroke:#181818;stroke-width:1.0;"/><text fill="#000000" font-family="sans-serif" font-size="13" lengthAdjust="spacing" textLength="54" x="64" y="93.0484">«parent»</text></g><!--MD5=[5ee375d1421760c669f9f35af2827581]
@startuml
hide circle
class "signal.h" as file1
class "signal.c" as file2
class "alert.h" as file3
class "alarm.h {v=3.0}" as file4
class "alarm.h {v=3.1}" as file5

file2 ..> file1
file1 ..> file3
file4 ..> file3
file5 ..> file4:<<parent>>
@enduml

PlantUML version 1.2022.7(Mon Aug 22 13:01:30 EDT 2022)
(GPL source distribution)
Java Runtime: OpenJDK Runtime Environment
JVM: OpenJDK 64-Bit Server VM
Default Encoding: UTF-8
Language: en
Country: CA
--></g></svg>