<?xml version="1.0" encoding="UTF-8" standalone="no"?><svg xmlns="http://www.w3.org/2000/svg" xmlns:xlink="http://www.w3.org/1999/xlink" contentStyleType="text/css" height="279px" preserveAspectRatio="none" style="width:229px;height:279px;background:#00000000;" version="1.1" viewBox="0 0 229 279" width="229px" zoomAndPan="magnify"><defs/><g><!--MD5=[7dafcc16794d284db7b552873a986268]
class file1--><g id="elem_file1"><rect codeLine="3" fill="#F1F1F1" height="42.4883" id="file1" rx="2.5" ry="2.5" style="stroke:#181818;stroke-width:0.5;" width="60" x="162" y="126.48"/><text fill="#000000" font-family="sans-serif" font-size="14" lengthAdjust="spacing" textLength="54" x="165" y="145.0152">signal.h</text><line style="stroke:#181818;stroke-width:0.5;" x1="163" x2="221" y1="152.9683" y2="152.9683"/><line style="stroke:#181818;stroke-width:0.5;" x1="163" x2="221" y1="160.9683" y2="160.9683"/></g><!--MD5=[42639ba33ac31c072052f2fbd21371c2]
class file2--><g id="elem_file2"><rect codeLine="4" fill="#F1F1F1" height="42.4883" id="file2" rx="2.5" ry="2.5" style="stroke:#181818;stroke-width:0.5;" width="58" x="163" y="7"/><text fill="#000000" font-family="sans-serif" font-size="14" lengthAdjust="spacing" textLength="52" x="166" y="25.5352">signal.c</text><line style="stroke:#181818;stroke-width:0.5;" x1="164" x2="220" y1="33.4883" y2="33.4883"/><line style="stroke:#181818;stroke-width:0.5;" x1="164" x2="220" y1="41.4883" y2="41.4883"/></g><!--MD5=[5e102023dfe585434de47d3815777c3e]
class file3--><g id="elem_file3"><rect codeLine="5" fill="#F1F1F1" height="42.4883" id="file3" rx="2.5" ry="2.5" style="stroke:#181818;stroke-width:0.5;" width="58" x="100" y="229.97"/><text fill="#000000" font-family="sans-serif" font-size="14" lengthAdjust="spacing" textLength="52" x="103" y="248.5052">alerte.h</text><line style="stroke:#181818;stroke-width:0.5;" x1="101" x2="157" y1="256.4583" y2="256.4583"/><line style="stroke:#181818;stroke-width:0.5;" x1="101" x2="157" y1="264.4583" y2="264.4583"/></g><!--MD5=[7b692cf7982b04f9ab29ebb8729f86c1]
class file4--><g id="elem_file4"><rect codeLine="6" fill="#F1F1F1" height="42.4883" id="file4" rx="2.5" ry="2.5" style="stroke:#181818;stroke-width:0.5;" width="120" x="7" y="126.48"/><text fill="#000000" font-family="sans-serif" font-size="14" lengthAdjust="spacing" textLength="114" x="10" y="145.0152">alarme.h {v=3.0}</text><line style="stroke:#181818;stroke-width:0.5;" x1="8" x2="126" y1="152.9683" y2="152.9683"/><line style="stroke:#181818;stroke-width:0.5;" x1="8" x2="126" y1="160.9683" y2="160.9683"/></g><!--MD5=[498d0c4258bd17b2e2bcb68ad07de632]
class file5--><g id="elem_file5"><rect codeLine="7" fill="#F1F1F1" height="42.4883" id="file5" rx="2.5" ry="2.5" style="stroke:#181818;stroke-width:0.5;" width="120" x="7" y="7"/><text fill="#000000" font-family="sans-serif" font-size="14" lengthAdjust="spacing" textLength="114" x="10" y="25.5352">alarme.h {v=3.1}</text><line style="stroke:#181818;stroke-width:0.5;" x1="8" x2="126" y1="33.4883" y2="33.4883"/><line style="stroke:#181818;stroke-width:0.5;" x1="8" x2="126" y1="41.4883" y2="41.4883"/></g><!--MD5=[0a27c27e10ee26885654416979e1af38]
link file2 to file1--><g id="link_file2_file1"><path codeLine="9" d="M192,49.97 C192,69.6 192,99.16 192,120.43 " fill="none" id="file2-to-file1" style="stroke:#181818;stroke-width:1.0;stroke-dasharray:7.0,7.0;"/><polygon fill="#181818" points="192,125.2,196,116.2,192,120.2,188,116.2,192,125.2" style="stroke:#181818;stroke-width:1.0;"/></g><!--MD5=[552b8f3fbb943fb8d69815ce0aa27a99]
link file1 to file3--><g id="link_file1_file3"><path codeLine="10" d="M179.25,169.27 C169.26,185.36 155.31,207.83 144.65,225.01 " fill="none" id="file1-to-file3" style="stroke:#181818;stroke-width:1.0;stroke-dasharray:7.0,7.0;"/><polygon fill="#181818" points="141.73,228.71,149.8702,223.1659,144.3633,224.4596,143.0695,218.9527,141.73,228.71" style="stroke:#181818;stroke-width:1.0;"/></g><!--MD5=[71615d14547ff51814733d9ca15ebe57]
link file4 to file3--><g id="link_file4_file3"><path codeLine="11" d="M79.55,169.27 C89.38,185.36 103.11,207.83 113.6,225.01 " fill="none" id="file4-to-file3" style="stroke:#181818;stroke-width:1.0;stroke-dasharray:7.0,7.0;"/><polygon fill="#181818" points="116.47,228.71,115.2073,218.9424,113.8703,224.439,108.3737,223.102,116.47,228.71" style="stroke:#181818;stroke-width:1.0;"/></g><!--MD5=[f0acafa41b8e9eda051bfb540fb4f4eb]
link file5 to file4--><g id="link_file5_file4"><path codeLine="12" d="M67,49.97 C67,69.6 67,99.16 67,120.43 " fill="none" id="file5-to-file4" style="stroke:#181818;stroke-width:1.0;stroke-dasharray:7.0,7.0;"/><polygon fill="#181818" points="67,125.2,71,116.2,67,120.2,63,116.2,67,125.2" style="stroke:#181818;stroke-width:1.0;"/><text fill="#000000" font-family="sans-serif" font-size="13" lengthAdjust="spacing" textLength="54" x="68" y="93.0484">«parent»</text></g><!--MD5=[b6b09b066b617630a5dca566faff5c79]
@startuml
skinparam backgroundcolor transparent
hide circle
class "signal.h" as file1
class "signal.c" as file2
class "alerte.h" as file3
class "alarme.h {v=3.0}" as file4
class "alarme.h {v=3.1}" as file5

file2 ..> file1
file1 ..> file3
file4 ..> file3
file5 ..> file4:<<parent>>
@enduml

PlantUML version 1.2022.7(Mon Aug 22 13:01:30 EDT 2022)
(GPL source distribution)
Java Runtime: OpenJDK Runtime Environment
JVM: OpenJDK 64-Bit Server VM
Default Encoding: UTF-8
Language: en
Country: CA
--></g></svg>