<?xml version="1.0" encoding="UTF-8" standalone="no"?><svg xmlns="http://www.w3.org/2000/svg" xmlns:xlink="http://www.w3.org/1999/xlink" contentStyleType="text/css" height="297px" preserveAspectRatio="none" style="width:258px;height:297px;background:#FFFFFF;" version="1.1" viewBox="0 0 258 297" width="258px" zoomAndPan="magnify"><defs/><g><!--MD5=[7dafcc16794d284db7b552873a986268]
class file1--><g id="elem_file1"><rect codeLine="2" fill="#F1F1F1" height="48" id="file1" rx="2.5" ry="2.5" style="stroke:#181818;stroke-width:0.5;" width="81" x="170.5" y="133"/><ellipse cx="185.5" cy="149" fill="#ADD1B2" rx="11" ry="11" style="stroke:#181818;stroke-width:1.0;"/><path d="M188.2656,144.875 Q188.4219,144.6563 188.6094,144.5469 Q188.7969,144.4375 189.0156,144.4375 Q189.3906,144.4375 189.625,144.6953 Q189.8594,144.9531 189.8594,145.5625 L189.8594,147.0156 Q189.8594,147.625 189.625,147.8906 Q189.3906,148.1563 189.0156,148.1563 Q188.6719,148.1563 188.4688,147.9531 Q188.2656,147.7656 188.1563,147.25 Q188.1094,146.8906 187.9219,146.7031 Q187.5938,146.3281 186.9844,146.1094 Q186.375,145.8906 185.75,145.8906 Q184.9844,145.8906 184.3516,146.2188 Q183.7188,146.5469 183.2266,147.2969 Q182.7344,148.0469 182.7344,149.0781 L182.7344,150.1719 Q182.7344,151.4063 183.625,152.2266 Q184.5156,153.0469 186.1094,153.0469 Q187.0469,153.0469 187.7031,152.7969 Q188.0938,152.6406 188.5156,152.2031 Q188.7813,151.9375 188.9297,151.8594 Q189.0781,151.7813 189.2813,151.7813 Q189.6094,151.7813 189.8672,152.0391 Q190.125,152.2969 190.125,152.6406 Q190.125,152.9844 189.7813,153.3906 Q189.2813,153.9688 188.4844,154.2969 Q187.4063,154.75 186.1094,154.75 Q184.5938,154.75 183.3906,154.125 Q182.4063,153.625 181.7188,152.5547 Q181.0313,151.4844 181.0313,150.2031 L181.0313,149.0469 Q181.0313,147.7188 181.6484,146.5703 Q182.2656,145.4219 183.3594,144.8047 Q184.4531,144.1875 185.6875,144.1875 Q186.4219,144.1875 187.0703,144.3516 Q187.7188,144.5156 188.2656,144.875 Z " fill="#000000"/><text fill="#000000" font-family="sans-serif" font-size="14" lengthAdjust="spacing" textLength="49" x="199.5" y="154.7285">signal.h</text><line style="stroke:#181818;stroke-width:0.5;" x1="171.5" x2="250.5" y1="165" y2="165"/><line style="stroke:#181818;stroke-width:0.5;" x1="171.5" x2="250.5" y1="173" y2="173"/></g><!--MD5=[42639ba33ac31c072052f2fbd21371c2]
class file2--><g id="elem_file2"><rect codeLine="3" fill="#F1F1F1" height="48" id="file2" rx="2.5" ry="2.5" style="stroke:#181818;stroke-width:0.5;" width="80" x="171" y="7"/><ellipse cx="186" cy="23" fill="#ADD1B2" rx="11" ry="11" style="stroke:#181818;stroke-width:1.0;"/><path d="M188.7656,18.875 Q188.9219,18.6563 189.1094,18.5469 Q189.2969,18.4375 189.5156,18.4375 Q189.8906,18.4375 190.125,18.6953 Q190.3594,18.9531 190.3594,19.5625 L190.3594,21.0156 Q190.3594,21.625 190.125,21.8906 Q189.8906,22.1563 189.5156,22.1563 Q189.1719,22.1563 188.9688,21.9531 Q188.7656,21.7656 188.6563,21.25 Q188.6094,20.8906 188.4219,20.7031 Q188.0938,20.3281 187.4844,20.1094 Q186.875,19.8906 186.25,19.8906 Q185.4844,19.8906 184.8516,20.2188 Q184.2188,20.5469 183.7266,21.2969 Q183.2344,22.0469 183.2344,23.0781 L183.2344,24.1719 Q183.2344,25.4063 184.125,26.2266 Q185.0156,27.0469 186.6094,27.0469 Q187.5469,27.0469 188.2031,26.7969 Q188.5938,26.6406 189.0156,26.2031 Q189.2813,25.9375 189.4297,25.8594 Q189.5781,25.7813 189.7813,25.7813 Q190.1094,25.7813 190.3672,26.0391 Q190.625,26.2969 190.625,26.6406 Q190.625,26.9844 190.2813,27.3906 Q189.7813,27.9688 188.9844,28.2969 Q187.9063,28.75 186.6094,28.75 Q185.0938,28.75 183.8906,28.125 Q182.9063,27.625 182.2188,26.5547 Q181.5313,25.4844 181.5313,24.2031 L181.5313,23.0469 Q181.5313,21.7188 182.1484,20.5703 Q182.7656,19.4219 183.8594,18.8047 Q184.9531,18.1875 186.1875,18.1875 Q186.9219,18.1875 187.5703,18.3516 Q188.2188,18.5156 188.7656,18.875 Z " fill="#000000"/><text fill="#000000" font-family="sans-serif" font-size="14" lengthAdjust="spacing" textLength="48" x="200" y="28.7285">signal.c</text><line style="stroke:#181818;stroke-width:0.5;" x1="172" x2="250" y1="39" y2="39"/><line style="stroke:#181818;stroke-width:0.5;" x1="172" x2="250" y1="47" y2="47"/></g><!--MD5=[5e102023dfe585434de47d3815777c3e]
class file3--><g id="elem_file3"><rect codeLine="4" fill="#F1F1F1" height="48" id="file3" rx="2.5" ry="2.5" style="stroke:#181818;stroke-width:0.5;" width="72" x="104" y="242"/><ellipse cx="119" cy="258" fill="#ADD1B2" rx="11" ry="11" style="stroke:#181818;stroke-width:1.0;"/><path d="M121.7656,253.875 Q121.9219,253.6563 122.1094,253.5469 Q122.2969,253.4375 122.5156,253.4375 Q122.8906,253.4375 123.125,253.6953 Q123.3594,253.9531 123.3594,254.5625 L123.3594,256.0156 Q123.3594,256.625 123.125,256.8906 Q122.8906,257.1563 122.5156,257.1563 Q122.1719,257.1563 121.9688,256.9531 Q121.7656,256.7656 121.6563,256.25 Q121.6094,255.8906 121.4219,255.7031 Q121.0938,255.3281 120.4844,255.1094 Q119.875,254.8906 119.25,254.8906 Q118.4844,254.8906 117.8516,255.2188 Q117.2188,255.5469 116.7266,256.2969 Q116.2344,257.0469 116.2344,258.0781 L116.2344,259.1719 Q116.2344,260.4063 117.125,261.2266 Q118.0156,262.0469 119.6094,262.0469 Q120.5469,262.0469 121.2031,261.7969 Q121.5938,261.6406 122.0156,261.2031 Q122.2813,260.9375 122.4297,260.8594 Q122.5781,260.7813 122.7813,260.7813 Q123.1094,260.7813 123.3672,261.0391 Q123.625,261.2969 123.625,261.6406 Q123.625,261.9844 123.2813,262.3906 Q122.7813,262.9688 121.9844,263.2969 Q120.9063,263.75 119.6094,263.75 Q118.0938,263.75 116.8906,263.125 Q115.9063,262.625 115.2188,261.5547 Q114.5313,260.4844 114.5313,259.2031 L114.5313,258.0469 Q114.5313,256.7188 115.1484,255.5703 Q115.7656,254.4219 116.8594,253.8047 Q117.9531,253.1875 119.1875,253.1875 Q119.9219,253.1875 120.5703,253.3516 Q121.2188,253.5156 121.7656,253.875 Z " fill="#000000"/><text fill="#000000" font-family="sans-serif" font-size="14" lengthAdjust="spacing" textLength="40" x="133" y="263.7285">alert.h</text><line style="stroke:#181818;stroke-width:0.5;" x1="105" x2="175" y1="274" y2="274"/><line style="stroke:#181818;stroke-width:0.5;" x1="105" x2="175" y1="282" y2="282"/></g><!--MD5=[7b692cf7982b04f9ab29ebb8729f86c1]
class file4--><g id="elem_file4"><rect codeLine="5" fill="#F1F1F1" height="48" id="file4" rx="2.5" ry="2.5" style="stroke:#181818;stroke-width:0.5;" width="128" x="7" y="133"/><ellipse cx="22" cy="149" fill="#ADD1B2" rx="11" ry="11" style="stroke:#181818;stroke-width:1.0;"/><path d="M24.7656,144.875 Q24.9219,144.6563 25.1094,144.5469 Q25.2969,144.4375 25.5156,144.4375 Q25.8906,144.4375 26.125,144.6953 Q26.3594,144.9531 26.3594,145.5625 L26.3594,147.0156 Q26.3594,147.625 26.125,147.8906 Q25.8906,148.1563 25.5156,148.1563 Q25.1719,148.1563 24.9688,147.9531 Q24.7656,147.7656 24.6563,147.25 Q24.6094,146.8906 24.4219,146.7031 Q24.0938,146.3281 23.4844,146.1094 Q22.875,145.8906 22.25,145.8906 Q21.4844,145.8906 20.8516,146.2188 Q20.2188,146.5469 19.7266,147.2969 Q19.2344,148.0469 19.2344,149.0781 L19.2344,150.1719 Q19.2344,151.4063 20.125,152.2266 Q21.0156,153.0469 22.6094,153.0469 Q23.5469,153.0469 24.2031,152.7969 Q24.5938,152.6406 25.0156,152.2031 Q25.2813,151.9375 25.4297,151.8594 Q25.5781,151.7813 25.7813,151.7813 Q26.1094,151.7813 26.3672,152.0391 Q26.625,152.2969 26.625,152.6406 Q26.625,152.9844 26.2813,153.3906 Q25.7813,153.9688 24.9844,154.2969 Q23.9063,154.75 22.6094,154.75 Q21.0938,154.75 19.8906,154.125 Q18.9063,153.625 18.2188,152.5547 Q17.5313,151.4844 17.5313,150.2031 L17.5313,149.0469 Q17.5313,147.7188 18.1484,146.5703 Q18.7656,145.4219 19.8594,144.8047 Q20.9531,144.1875 22.1875,144.1875 Q22.9219,144.1875 23.5703,144.3516 Q24.2188,144.5156 24.7656,144.875 Z " fill="#000000"/><text fill="#000000" font-family="sans-serif" font-size="14" lengthAdjust="spacing" textLength="96" x="36" y="154.7285">alarm.h {v=3.0}</text><line style="stroke:#181818;stroke-width:0.5;" x1="8" x2="134" y1="165" y2="165"/><line style="stroke:#181818;stroke-width:0.5;" x1="8" x2="134" y1="173" y2="173"/></g><!--MD5=[498d0c4258bd17b2e2bcb68ad07de632]
class file5--><g id="elem_file5"><rect codeLine="6" fill="#F1F1F1" height="48" id="file5" rx="2.5" ry="2.5" style="stroke:#181818;stroke-width:0.5;" width="128" x="7" y="7"/><ellipse cx="22" cy="23" fill="#ADD1B2" rx="11" ry="11" style="stroke:#181818;stroke-width:1.0;"/><path d="M24.7656,18.875 Q24.9219,18.6563 25.1094,18.5469 Q25.2969,18.4375 25.5156,18.4375 Q25.8906,18.4375 26.125,18.6953 Q26.3594,18.9531 26.3594,19.5625 L26.3594,21.0156 Q26.3594,21.625 26.125,21.8906 Q25.8906,22.1563 25.5156,22.1563 Q25.1719,22.1563 24.9688,21.9531 Q24.7656,21.7656 24.6563,21.25 Q24.6094,20.8906 24.4219,20.7031 Q24.0938,20.3281 23.4844,20.1094 Q22.875,19.8906 22.25,19.8906 Q21.4844,19.8906 20.8516,20.2188 Q20.2188,20.5469 19.7266,21.2969 Q19.2344,22.0469 19.2344,23.0781 L19.2344,24.1719 Q19.2344,25.4063 20.125,26.2266 Q21.0156,27.0469 22.6094,27.0469 Q23.5469,27.0469 24.2031,26.7969 Q24.5938,26.6406 25.0156,26.2031 Q25.2813,25.9375 25.4297,25.8594 Q25.5781,25.7813 25.7813,25.7813 Q26.1094,25.7813 26.3672,26.0391 Q26.625,26.2969 26.625,26.6406 Q26.625,26.9844 26.2813,27.3906 Q25.7813,27.9688 24.9844,28.2969 Q23.9063,28.75 22.6094,28.75 Q21.0938,28.75 19.8906,28.125 Q18.9063,27.625 18.2188,26.5547 Q17.5313,25.4844 17.5313,24.2031 L17.5313,23.0469 Q17.5313,21.7188 18.1484,20.5703 Q18.7656,19.4219 19.8594,18.8047 Q20.9531,18.1875 22.1875,18.1875 Q22.9219,18.1875 23.5703,18.3516 Q24.2188,18.5156 24.7656,18.875 Z " fill="#000000"/><text fill="#000000" font-family="sans-serif" font-size="14" lengthAdjust="spacing" textLength="96" x="36" y="28.7285">alarm.h {v=3.1}</text><line style="stroke:#181818;stroke-width:0.5;" x1="8" x2="134" y1="39" y2="39"/><line style="stroke:#181818;stroke-width:0.5;" x1="8" x2="134" y1="47" y2="47"/></g><!--MD5=[0a27c27e10ee26885654416979e1af38]
link file2 to file1--><g id="link_file2_file1"><path codeLine="8" d="M211,55.03 C211,75.52 211,105.56 211,127.55 " fill="none" id="file2-to-file1" style="stroke:#181818;stroke-width:1.0;stroke-dasharray:7.0,7.0;"/><polygon fill="#181818" points="211,132.67,215,123.67,211,127.67,207,123.67,211,132.67" style="stroke:#181818;stroke-width:1.0;"/></g><!--MD5=[552b8f3fbb943fb8d69815ce0aa27a99]
link file1 to file3--><g id="link_file1_file3"><path codeLine="9" d="M195.59,181.22 C184.62,197.76 169.81,220.07 158.24,237.51 " fill="none" id="file1-to-file3" style="stroke:#181818;stroke-width:1.0;stroke-dasharray:7.0,7.0;"/><polygon fill="#181818" points="155.38,241.83,163.6922,236.5472,158.1469,237.6654,157.0287,232.1201,155.38,241.83" style="stroke:#181818;stroke-width:1.0;"/></g><!--MD5=[71615d14547ff51814733d9ca15ebe57]
link file4 to file3--><g id="link_file4_file3"><path codeLine="10" d="M85.97,181.22 C96.64,197.76 111.03,220.07 122.27,237.51 " fill="none" id="file4-to-file3" style="stroke:#181818;stroke-width:1.0;stroke-dasharray:7.0,7.0;"/><polygon fill="#181818" points="125.06,241.83,123.5579,232.0964,122.3562,237.6241,116.8285,236.4224,125.06,241.83" style="stroke:#181818;stroke-width:1.0;"/></g><!--MD5=[f0acafa41b8e9eda051bfb540fb4f4eb]
link file5 to file4--><g id="link_file5_file4"><path codeLine="11" d="M71,55.03 C71,75.52 71,105.56 71,127.55 " fill="none" id="file5-to-file4" style="stroke:#181818;stroke-width:1.0;stroke-dasharray:7.0,7.0;"/><polygon fill="#181818" points="71,132.67,75,123.67,71,127.67,67,123.67,71,132.67" style="stroke:#181818;stroke-width:1.0;"/><text fill="#000000" font-family="sans-serif" font-size="13" lengthAdjust="spacing" textLength="50" x="72" y="99.4951">«parent»</text></g><!--MD5=[edc12235f21daa3db1492e8a1cde5f8e]
@startuml

class "signal.h" as file1
class "signal.c" as file2
class "alert.h" as file3
class "alarm.h {v=3.0}" as file4
class "alarm.h {v=3.1}" as file5

file2 ..> file1
file1 ..> file3
file4 ..> file3
file5 ..> file4:<<parent>>
@enduml

PlantUML version 1.2022.7(Mon Aug 22 13:01:30 EDT 2022)
(GPL source distribution)
Java Runtime: Java(TM) SE Runtime Environment
JVM: Java HotSpot(TM) 64-Bit Server VM
Default Encoding: Cp1252
Language: en
Country: CA
--></g></svg>