<?xml version="1.0" encoding="UTF-8" standalone="no"?><svg xmlns="http://www.w3.org/2000/svg" xmlns:xlink="http://www.w3.org/1999/xlink" contentStyleType="text/css" height="488px" preserveAspectRatio="none" style="width:839px;height:488px;background:#FFFFFF;" version="1.1" viewBox="0 0 839 488" width="839px" zoomAndPan="magnify"><defs/><g><!--MD5=[33116b6fa0e176f45134f69ae19cea52]
cluster car_unlocking--><g id="cluster_car_unlocking"><rect fill="none" height="475" rx="2.5" ry="2.5" style="stroke:#181818;stroke-width:1.0;" width="826" x="7" y="7"/><rect fill="none" height="10" style="stroke:#181818;stroke-width:1.0;" width="15" x="813" y="12"/><rect fill="none" height="2" style="stroke:#181818;stroke-width:1.0;" width="4" x="811" y="14"/><rect fill="none" height="2" style="stroke:#181818;stroke-width:1.0;" width="4" x="811" y="18"/><text fill="#000000" font-family="sans-serif" font-size="14" font-weight="bold" lengthAdjust="spacing" textLength="274" x="283" y="34.5332">Système de Réservation des Véhicules</text></g><!--MD5=[8fc3522a43f8c7199df5e09e5bb0188e]
entity user--><g id="elem_user"><rect fill="#F1F1F1" height="65.2188" rx="2.5" ry="2.5" style="stroke:#181818;stroke-width:0.5;" width="137" x="679.5" y="401"/><rect fill="#F1F1F1" height="10" style="stroke:#181818;stroke-width:0.5;" width="15" x="796.5" y="406"/><rect fill="#F1F1F1" height="2" style="stroke:#181818;stroke-width:0.5;" width="4" x="794.5" y="408"/><rect fill="#F1F1F1" height="2" style="stroke:#181818;stroke-width:0.5;" width="4" x="794.5" y="412"/><text fill="#000000" font-family="sans-serif" font-size="14" font-style="italic" lengthAdjust="spacing" textLength="89" x="698.5" y="435.5332">«Component»</text><text fill="#000000" font-family="sans-serif" font-size="14" lengthAdjust="spacing" textLength="97" x="694.5" y="453.1426">Compte usager</text></g><!--MD5=[5efd806f285230177069469d847ad47a]
entity account--><g id="elem_account"><ellipse cx="724" cy="308.5" fill="#F1F1F1" rx="8" ry="8" style="stroke:#181818;stroke-width:0.5;"/><text fill="#000000" font-family="sans-serif" font-size="14" lengthAdjust="spacing" textLength="52" x="698" y="340.0332">ICompte</text></g><!--MD5=[cefdcc8797ba21ff03de9b9d486eda30]
entity reservation--><g id="elem_reservation"><rect fill="#F1F1F1" height="65.2188" rx="2.5" ry="2.5" style="stroke:#181818;stroke-width:0.5;" width="129" x="419.5" y="151"/><rect fill="#F1F1F1" height="10" style="stroke:#181818;stroke-width:0.5;" width="15" x="528.5" y="156"/><rect fill="#F1F1F1" height="2" style="stroke:#181818;stroke-width:0.5;" width="4" x="526.5" y="158"/><rect fill="#F1F1F1" height="2" style="stroke:#181818;stroke-width:0.5;" width="4" x="526.5" y="162"/><text fill="#000000" font-family="sans-serif" font-size="14" font-style="italic" lengthAdjust="spacing" textLength="89" x="434.5" y="185.5332">«Component»</text><text fill="#000000" font-family="sans-serif" font-size="14" lengthAdjust="spacing" textLength="76" x="441" y="203.1426">Réservation</text></g><!--MD5=[a97baaf8bec76a24bdd91bb971ab3440]
entity vehicleDB--><g id="elem_vehicleDB"><rect fill="#F1F1F1" height="47.6094" rx="2.5" ry="2.5" style="stroke:#181818;stroke-width:0.5;" width="241" x="143.5" y="159.5"/><rect fill="#F1F1F1" height="10" style="stroke:#181818;stroke-width:0.5;" width="15" x="364.5" y="164.5"/><rect fill="#F1F1F1" height="2" style="stroke:#181818;stroke-width:0.5;" width="4" x="362.5" y="166.5"/><rect fill="#F1F1F1" height="2" style="stroke:#181818;stroke-width:0.5;" width="4" x="362.5" y="170.5"/><text fill="#000000" font-family="sans-serif" font-size="14" lengthAdjust="spacing" textLength="201" x="158.5" y="194.0332">Base de données des véhicules</text></g><!--MD5=[22b6986650add4f4b90f4b3c001b41eb]
entity userDB--><g id="elem_userDB"><rect fill="#F1F1F1" height="47.6094" rx="2.5" ry="2.5" style="stroke:#181818;stroke-width:0.5;" width="233" x="583.5" y="159.5"/><rect fill="#F1F1F1" height="10" style="stroke:#181818;stroke-width:0.5;" width="15" x="796.5" y="164.5"/><rect fill="#F1F1F1" height="2" style="stroke:#181818;stroke-width:0.5;" width="4" x="794.5" y="166.5"/><rect fill="#F1F1F1" height="2" style="stroke:#181818;stroke-width:0.5;" width="4" x="794.5" y="170.5"/><text fill="#000000" font-family="sans-serif" font-size="14" lengthAdjust="spacing" textLength="193" x="598.5" y="194.0332">Base de données des usagers</text></g><!--MD5=[099e521eda26a54596f7291759a5ba77]
entity reservationDB--><g id="elem_reservationDB"><rect fill="#F1F1F1" height="47.6094" rx="2.5" ry="2.5" style="stroke:#181818;stroke-width:0.5;" width="253" x="357.5" y="43"/><rect fill="#F1F1F1" height="10" style="stroke:#181818;stroke-width:0.5;" width="15" x="590.5" y="48"/><rect fill="#F1F1F1" height="2" style="stroke:#181818;stroke-width:0.5;" width="4" x="588.5" y="50"/><rect fill="#F1F1F1" height="2" style="stroke:#181818;stroke-width:0.5;" width="4" x="588.5" y="54"/><text fill="#000000" font-family="sans-serif" font-size="14" lengthAdjust="spacing" textLength="213" x="372.5" y="77.5332">Base de données des réservation</text></g><!--MD5=[dacd7ab44c35fcb5a065f31e482f81ab]
entity vehicle--><g id="elem_vehicle"><rect fill="#F1F1F1" height="65.2188" rx="2.5" ry="2.5" style="stroke:#181818;stroke-width:0.5;" width="111" x="208.5" y="276"/><rect fill="#F1F1F1" height="10" style="stroke:#181818;stroke-width:0.5;" width="15" x="299.5" y="281"/><rect fill="#F1F1F1" height="2" style="stroke:#181818;stroke-width:0.5;" width="4" x="297.5" y="283"/><rect fill="#F1F1F1" height="2" style="stroke:#181818;stroke-width:0.5;" width="4" x="297.5" y="287"/><text fill="#000000" font-family="sans-serif" font-size="14" font-style="italic" lengthAdjust="spacing" textLength="71" x="223.5" y="310.5332">«interface»</text><text fill="#000000" font-family="sans-serif" font-size="14" lengthAdjust="spacing" textLength="54" x="232" y="328.1426">Véhicule</text></g><!--MD5=[f6c9eb518576544fa958a3c92ebd687e]
entity cars--><g id="elem_cars"><rect fill="#F1F1F1" height="65.2188" rx="2.5" ry="2.5" style="stroke:#181818;stroke-width:0.5;" width="129" x="23.5" y="401"/><rect fill="#F1F1F1" height="10" style="stroke:#181818;stroke-width:0.5;" width="15" x="132.5" y="406"/><rect fill="#F1F1F1" height="2" style="stroke:#181818;stroke-width:0.5;" width="4" x="130.5" y="408"/><rect fill="#F1F1F1" height="2" style="stroke:#181818;stroke-width:0.5;" width="4" x="130.5" y="412"/><text fill="#000000" font-family="sans-serif" font-size="14" font-style="italic" lengthAdjust="spacing" textLength="89" x="38.5" y="435.5332">«Component»</text><text fill="#000000" font-family="sans-serif" font-size="14" lengthAdjust="spacing" textLength="52" x="57" y="453.1426">Voitures</text></g><!--MD5=[6edd243383d1511a7d3cd9147579512b]
entity scooters--><g id="elem_scooters"><rect fill="#F1F1F1" height="65.2188" rx="2.5" ry="2.5" style="stroke:#181818;stroke-width:0.5;" width="129" x="187.5" y="401"/><rect fill="#F1F1F1" height="10" style="stroke:#181818;stroke-width:0.5;" width="15" x="296.5" y="406"/><rect fill="#F1F1F1" height="2" style="stroke:#181818;stroke-width:0.5;" width="4" x="294.5" y="408"/><rect fill="#F1F1F1" height="2" style="stroke:#181818;stroke-width:0.5;" width="4" x="294.5" y="412"/><text fill="#000000" font-family="sans-serif" font-size="14" font-style="italic" lengthAdjust="spacing" textLength="89" x="202.5" y="435.5332">«Component»</text><text fill="#000000" font-family="sans-serif" font-size="14" lengthAdjust="spacing" textLength="56" x="219" y="453.1426">Scooters</text></g><!--MD5=[75cab65c15c0af3165cb0b8a38019a34]
entity bikes--><g id="elem_bikes"><rect fill="#F1F1F1" height="65.2188" rx="2.5" ry="2.5" style="stroke:#181818;stroke-width:0.5;" width="129" x="351.5" y="401"/><rect fill="#F1F1F1" height="10" style="stroke:#181818;stroke-width:0.5;" width="15" x="460.5" y="406"/><rect fill="#F1F1F1" height="2" style="stroke:#181818;stroke-width:0.5;" width="4" x="458.5" y="408"/><rect fill="#F1F1F1" height="2" style="stroke:#181818;stroke-width:0.5;" width="4" x="458.5" y="412"/><text fill="#000000" font-family="sans-serif" font-size="14" font-style="italic" lengthAdjust="spacing" textLength="89" x="366.5" y="435.5332">«Component»</text><text fill="#000000" font-family="sans-serif" font-size="14" lengthAdjust="spacing" textLength="35" x="393.5" y="453.1426">Vélos</text></g><!--MD5=[f1a8806ae4cf8316abbb41990a92b005]
entity trotts--><g id="elem_trotts"><rect fill="#F1F1F1" height="65.2188" rx="2.5" ry="2.5" style="stroke:#181818;stroke-width:0.5;" width="129" x="515.5" y="401"/><rect fill="#F1F1F1" height="10" style="stroke:#181818;stroke-width:0.5;" width="15" x="624.5" y="406"/><rect fill="#F1F1F1" height="2" style="stroke:#181818;stroke-width:0.5;" width="4" x="622.5" y="408"/><rect fill="#F1F1F1" height="2" style="stroke:#181818;stroke-width:0.5;" width="4" x="622.5" y="412"/><text fill="#000000" font-family="sans-serif" font-size="14" font-style="italic" lengthAdjust="spacing" textLength="89" x="530.5" y="435.5332">«Component»</text><text fill="#000000" font-family="sans-serif" font-size="14" lengthAdjust="spacing" textLength="72" x="539" y="453.1426">Trottinettes</text></g><!--MD5=[fadb533e99d36cd6a37443a6d8f649a0]
link reservation to userDB--><g id="link_reservation_userDB"><path d="M548.51,184 C548.51,184 578.31,184 578.31,184 " fill="none" id="reservation-to-userDB" style="stroke:#181818;stroke-width:1.0;stroke-dasharray:1.0,3.0;"/><polygon fill="#181818" points="583.31,184,574.31,180,578.31,184,574.31,188,583.31,184" style="stroke:#181818;stroke-width:1.0;"/></g><!--MD5=[e5fb696c37abc809ba035379c4a0fbc4]
reverse link vehicleDB to reservation--><g id="link_vehicleDB_reservation"><path d="M389.62,184 C389.62,184 419.28,184 419.28,184 " fill="none" id="vehicleDB-backto-reservation" style="stroke:#181818;stroke-width:1.0;stroke-dasharray:1.0,3.0;"/><polygon fill="#181818" points="384.62,184,393.62,188,389.62,184,393.62,180,384.62,184" style="stroke:#181818;stroke-width:1.0;"/></g><!--MD5=[e8a8e09ecb6eb1c0ada2bdb77c1efdc9]
link reservationDB to reservation--><g id="link_reservationDB_reservation"><path d="M484,91.14 C484,108.47 484,132.01 484,151 " fill="none" id="reservationDB-reservation" style="stroke:#181818;stroke-width:1.0;"/></g><!--MD5=[afc2cfa134b6b71755924f303de7d06c]
link userDB to account--><g id="link_userDB_account"><path d="M724,207.6 C724,207.6 724,289.35 724,289.35 " fill="none" id="userDB-to-account" style="stroke:#181818;stroke-width:1.0;"/><path d="M732.4572,296.2718 A9,9 0 0 0 715.5428 296.2718" fill="none" style="stroke:#181818;stroke-width:1.5;"/></g><!--MD5=[819ede24af99ce073b1d4003719dfb89]
link account to user--><g id="link_account_user"><path d="M724,317.9 C724,335.27 724,373.17 724,400.85 " fill="none" id="account-user" style="stroke:#181818;stroke-width:1.0;"/></g><!--MD5=[a72200895587f8e078f7a9704880b739]
link vehicleDB to vehicle--><g id="link_vehicleDB_vehicle"><path d="M264,207.6 C264,207.6 264,270.96 264,270.96 " fill="none" id="vehicleDB-to-vehicle" style="stroke:#181818;stroke-width:1.0;stroke-dasharray:1.0,3.0;"/><polygon fill="#181818" points="264,275.96,268,266.96,264,270.96,260,266.96,264,275.96" style="stroke:#181818;stroke-width:1.0;"/></g><!--MD5=[43586e4c50eaf14a4975b60dddad991d]
reverse link vehicle to cars--><g id="link_vehicle_cars"><path d="M188.38,309 C188.38,309 148,309 148,309 C148,309 148,363.9 148,400.79 " fill="none" id="vehicle-backto-cars" style="stroke:#181818;stroke-width:1.0;"/><polygon fill="none" points="188.38,302,208.38,309,188.38,316,188.38,302" style="stroke:#181818;stroke-width:1.0;"/></g><!--MD5=[b4380343f0ae5252c742a731c657d40b]
reverse link vehicle to trotts--><g id="link_vehicle_trotts"><path d="M339.53,299 C339.53,299 532,299 532,299 C532,299 532,361.14 532,400.94 " fill="none" id="vehicle-backto-trotts" style="stroke:#181818;stroke-width:1.0;"/><polygon fill="none" points="339.53,306,319.53,299,339.53,292,339.53,306" style="stroke:#181818;stroke-width:1.0;"/></g><!--MD5=[3ead476711e09f7e55f6a9f2215eb65f]
reverse link vehicle to scooters--><g id="link_vehicle_scooters"><path d="M262.5,361.02 C262.5,361.02 262.5,400.71 262.5,400.71 " fill="none" id="vehicle-backto-scooters" style="stroke:#181818;stroke-width:1.0;"/><polygon fill="none" points="255.5,361.02,262.5,341.02,269.5,361.02,255.5,361.02" style="stroke:#181818;stroke-width:1.0;"/></g><!--MD5=[763d04869fc7ad52be6dde5a2fa1ffe6]
reverse link vehicle to bikes--><g id="link_vehicle_bikes"><path d="M339.65,319 C339.65,319 368,319 368,319 C368,319 368,367.14 368,401 " fill="none" id="vehicle-backto-bikes" style="stroke:#181818;stroke-width:1.0;"/><polygon fill="none" points="339.65,326,319.65,319,339.65,312,339.65,326" style="stroke:#181818;stroke-width:1.0;"/></g><!--MD5=[89ec90a4cac3b84f49e1a100c7117f92]
@startuml
skinparam linetype ortho

component "Système de Réservation des Véhicules" as car_unlocking{
  component "Compte usager" as user <<Component>>
  interface "ICompte" as account
  component "Réservation" as reservation <<Component>>
  component "Base de données des véhicules" as vehicleDB
  component "Base de données des usagers" as userDB
  component "Base de données des réservation" as reservationDB
  component "Véhicule" as vehicle <<interface>>
  component "Voitures" as cars <<Component>>
  component "Scooters" as scooters <<Component>>
  component "Vélos" as bikes <<Component>>
  component "Trottinettes" as trotts <<Component>>
}

reservation - -[dotted]r-> userDB
reservation - -[dotted]l-> vehicleDB
reservation -u- reservationDB

userDB -d-( account
user -u- account

vehicleDB -[dotted]d-> vehicle
vehicle <|-d- cars
vehicle <|-d- trotts
vehicle <|-d- scooters
vehicle <|-d- bikes

@enduml

PlantUML version 1.2022.7(Mon Aug 22 13:01:30 EDT 2022)
(GPL source distribution)
Java Runtime: Java(TM) SE Runtime Environment
JVM: Java HotSpot(TM) 64-Bit Server VM
Default Encoding: Cp1252
Language: en
Country: US
--></g></svg>