<?xml version="1.0" encoding="UTF-8" standalone="no"?><svg xmlns="http://www.w3.org/2000/svg" xmlns:xlink="http://www.w3.org/1999/xlink" contentStyleType="text/css" height="479px" preserveAspectRatio="none" style="width:871px;height:479px;background:#00000000;" version="1.1" viewBox="0 0 871 479" width="871px" zoomAndPan="magnify"><defs/><g><!--MD5=[33116b6fa0e176f45134f69ae19cea52]
cluster car_unlocking--><g id="cluster_car_unlocking"><rect fill="none" height="466.42" rx="2.5" ry="2.5" style="stroke:#181818;stroke-width:1.0;" width="858" x="7" y="7"/><rect fill="none" height="10" style="stroke:#181818;stroke-width:1.0;" width="15" x="845" y="12"/><rect fill="none" height="2" style="stroke:#181818;stroke-width:1.0;" width="4" x="843" y="14"/><rect fill="none" height="2" style="stroke:#181818;stroke-width:1.0;" width="4" x="843" y="18"/><text fill="#000000" font-family="sans-serif" font-size="14" font-weight="bold" lengthAdjust="spacing" textLength="276" x="298" y="33.5352">Système de Réservation des Véhicules</text></g><!--MD5=[8fc3522a43f8c7199df5e09e5bb0188e]
entity user--><g id="elem_user"><rect fill="#F1F1F1" height="62.9766" rx="2.5" ry="2.5" style="stroke:#181818;stroke-width:0.5;" width="145" x="703.5" y="394.44"/><rect fill="#F1F1F1" height="10" style="stroke:#181818;stroke-width:0.5;" width="15" x="828.5" y="399.44"/><rect fill="#F1F1F1" height="2" style="stroke:#181818;stroke-width:0.5;" width="4" x="826.5" y="401.44"/><rect fill="#F1F1F1" height="2" style="stroke:#181818;stroke-width:0.5;" width="4" x="826.5" y="405.44"/><text fill="#000000" font-family="sans-serif" font-size="14" font-style="italic" lengthAdjust="spacing" textLength="95" x="723.5" y="427.9752">«Component»</text><text fill="#000000" font-family="sans-serif" font-size="14" lengthAdjust="spacing" textLength="105" x="718.5" y="444.4634">Compte usager</text></g><!--MD5=[5efd806f285230177069469d847ad47a]
entity account--><g id="elem_account"><ellipse cx="752" cy="302.96" fill="#F1F1F1" rx="8" ry="8" style="stroke:#181818;stroke-width:0.5;"/><text fill="#000000" font-family="sans-serif" font-size="14" lengthAdjust="spacing" textLength="58" x="723" y="333.4952">ICompte</text></g><!--MD5=[cefdcc8797ba21ff03de9b9d486eda30]
entity reservation--><g id="elem_reservation"><rect fill="#F1F1F1" height="62.9766" rx="2.5" ry="2.5" style="stroke:#181818;stroke-width:0.5;" width="135" x="438.5" y="148.49"/><rect fill="#F1F1F1" height="10" style="stroke:#181818;stroke-width:0.5;" width="15" x="553.5" y="153.49"/><rect fill="#F1F1F1" height="2" style="stroke:#181818;stroke-width:0.5;" width="4" x="551.5" y="155.49"/><rect fill="#F1F1F1" height="2" style="stroke:#181818;stroke-width:0.5;" width="4" x="551.5" y="159.49"/><text fill="#000000" font-family="sans-serif" font-size="14" font-style="italic" lengthAdjust="spacing" textLength="95" x="453.5" y="182.0252">«Component»</text><text fill="#000000" font-family="sans-serif" font-size="14" lengthAdjust="spacing" textLength="80" x="461" y="198.5134">Réservation</text></g><!--MD5=[a97baaf8bec76a24bdd91bb971ab3440]
entity vehicleDB--><g id="elem_vehicleDB"><rect fill="#F1F1F1" height="46.4883" rx="2.5" ry="2.5" style="stroke:#181818;stroke-width:0.5;" width="250" x="154" y="156.73"/><rect fill="#F1F1F1" height="10" style="stroke:#181818;stroke-width:0.5;" width="15" x="384" y="161.73"/><rect fill="#F1F1F1" height="2" style="stroke:#181818;stroke-width:0.5;" width="4" x="382" y="163.73"/><rect fill="#F1F1F1" height="2" style="stroke:#181818;stroke-width:0.5;" width="4" x="382" y="167.73"/><text fill="#000000" font-family="sans-serif" font-size="14" lengthAdjust="spacing" textLength="210" x="169" y="190.2652">Base de données des véhicules</text></g><!--MD5=[22b6986650add4f4b90f4b3c001b41eb]
entity userDB--><g id="elem_userDB"><rect fill="#F1F1F1" height="46.4883" rx="2.5" ry="2.5" style="stroke:#181818;stroke-width:0.5;" width="241" x="608.5" y="156.73"/><rect fill="#F1F1F1" height="10" style="stroke:#181818;stroke-width:0.5;" width="15" x="829.5" y="161.73"/><rect fill="#F1F1F1" height="2" style="stroke:#181818;stroke-width:0.5;" width="4" x="827.5" y="163.73"/><rect fill="#F1F1F1" height="2" style="stroke:#181818;stroke-width:0.5;" width="4" x="827.5" y="167.73"/><text fill="#000000" font-family="sans-serif" font-size="14" lengthAdjust="spacing" textLength="201" x="623.5" y="190.2652">Base de données des usagers</text></g><!--MD5=[099e521eda26a54596f7291759a5ba77]
entity reservationDB--><g id="elem_reservationDB"><rect fill="#F1F1F1" height="46.4883" rx="2.5" ry="2.5" style="stroke:#181818;stroke-width:0.5;" width="264" x="374" y="42"/><rect fill="#F1F1F1" height="10" style="stroke:#181818;stroke-width:0.5;" width="15" x="618" y="47"/><rect fill="#F1F1F1" height="2" style="stroke:#181818;stroke-width:0.5;" width="4" x="616" y="49"/><rect fill="#F1F1F1" height="2" style="stroke:#181818;stroke-width:0.5;" width="4" x="616" y="53"/><text fill="#000000" font-family="sans-serif" font-size="14" lengthAdjust="spacing" textLength="224" x="389" y="75.5352">Base de données des réservation</text></g><!--MD5=[dacd7ab44c35fcb5a065f31e482f81ab]
entity vehicle--><g id="elem_vehicle"><rect fill="#F1F1F1" height="62.9766" rx="2.5" ry="2.5" style="stroke:#181818;stroke-width:0.5;" width="114" x="222" y="271.47"/><rect fill="#F1F1F1" height="10" style="stroke:#181818;stroke-width:0.5;" width="15" x="316" y="276.47"/><rect fill="#F1F1F1" height="2" style="stroke:#181818;stroke-width:0.5;" width="4" x="314" y="278.47"/><rect fill="#F1F1F1" height="2" style="stroke:#181818;stroke-width:0.5;" width="4" x="314" y="282.47"/><text fill="#000000" font-family="sans-serif" font-size="14" font-style="italic" lengthAdjust="spacing" textLength="74" x="237" y="305.0052">«interface»</text><text fill="#000000" font-family="sans-serif" font-size="14" lengthAdjust="spacing" textLength="58" x="245" y="321.4934">Véhicule</text></g><!--MD5=[f6c9eb518576544fa958a3c92ebd687e]
entity cars--><g id="elem_cars"><rect fill="#F1F1F1" height="62.9766" rx="2.5" ry="2.5" style="stroke:#181818;stroke-width:0.5;" width="135" x="23.5" y="394.44"/><rect fill="#F1F1F1" height="10" style="stroke:#181818;stroke-width:0.5;" width="15" x="138.5" y="399.44"/><rect fill="#F1F1F1" height="2" style="stroke:#181818;stroke-width:0.5;" width="4" x="136.5" y="401.44"/><rect fill="#F1F1F1" height="2" style="stroke:#181818;stroke-width:0.5;" width="4" x="136.5" y="405.44"/><text fill="#000000" font-family="sans-serif" font-size="14" font-style="italic" lengthAdjust="spacing" textLength="95" x="38.5" y="427.9752">«Component»</text><text fill="#000000" font-family="sans-serif" font-size="14" lengthAdjust="spacing" textLength="57" x="57.5" y="444.4634">Voitures</text></g><!--MD5=[6edd243383d1511a7d3cd9147579512b]
entity scooters--><g id="elem_scooters"><rect fill="#F1F1F1" height="62.9766" rx="2.5" ry="2.5" style="stroke:#181818;stroke-width:0.5;" width="135" x="193.5" y="394.44"/><rect fill="#F1F1F1" height="10" style="stroke:#181818;stroke-width:0.5;" width="15" x="308.5" y="399.44"/><rect fill="#F1F1F1" height="2" style="stroke:#181818;stroke-width:0.5;" width="4" x="306.5" y="401.44"/><rect fill="#F1F1F1" height="2" style="stroke:#181818;stroke-width:0.5;" width="4" x="306.5" y="405.44"/><text fill="#000000" font-family="sans-serif" font-size="14" font-style="italic" lengthAdjust="spacing" textLength="95" x="208.5" y="427.9752">«Component»</text><text fill="#000000" font-family="sans-serif" font-size="14" lengthAdjust="spacing" textLength="59" x="226.5" y="444.4634">Scooters</text></g><!--MD5=[75cab65c15c0af3165cb0b8a38019a34]
entity bikes--><g id="elem_bikes"><rect fill="#F1F1F1" height="62.9766" rx="2.5" ry="2.5" style="stroke:#181818;stroke-width:0.5;" width="135" x="363.5" y="394.44"/><rect fill="#F1F1F1" height="10" style="stroke:#181818;stroke-width:0.5;" width="15" x="478.5" y="399.44"/><rect fill="#F1F1F1" height="2" style="stroke:#181818;stroke-width:0.5;" width="4" x="476.5" y="401.44"/><rect fill="#F1F1F1" height="2" style="stroke:#181818;stroke-width:0.5;" width="4" x="476.5" y="405.44"/><text fill="#000000" font-family="sans-serif" font-size="14" font-style="italic" lengthAdjust="spacing" textLength="95" x="378.5" y="427.9752">«Component»</text><text fill="#000000" font-family="sans-serif" font-size="14" lengthAdjust="spacing" textLength="37" x="407.5" y="444.4634">Vélos</text></g><!--MD5=[f1a8806ae4cf8316abbb41990a92b005]
entity trotts--><g id="elem_trotts"><rect fill="#F1F1F1" height="62.9766" rx="2.5" ry="2.5" style="stroke:#181818;stroke-width:0.5;" width="135" x="533.5" y="394.44"/><rect fill="#F1F1F1" height="10" style="stroke:#181818;stroke-width:0.5;" width="15" x="648.5" y="399.44"/><rect fill="#F1F1F1" height="2" style="stroke:#181818;stroke-width:0.5;" width="4" x="646.5" y="401.44"/><rect fill="#F1F1F1" height="2" style="stroke:#181818;stroke-width:0.5;" width="4" x="646.5" y="405.44"/><text fill="#000000" font-family="sans-serif" font-size="14" font-style="italic" lengthAdjust="spacing" textLength="95" x="548.5" y="427.9752">«Component»</text><text fill="#000000" font-family="sans-serif" font-size="14" lengthAdjust="spacing" textLength="80" x="556" y="444.4634">Trottinettes</text></g><!--MD5=[fadb533e99d36cd6a37443a6d8f649a0]
link reservation to userDB--><g id="link_reservation_userDB"><path d="M573.82,180.42 C573.82,180.42 602.37,180.42 602.37,180.42 " fill="none" id="reservation-to-userDB" style="stroke:#181818;stroke-width:1.0;stroke-dasharray:1.0,3.0;"/><polygon fill="#181818" points="607.37,180.42,598.37,176.42,602.37,180.42,598.37,184.42,607.37,180.42" style="stroke:#181818;stroke-width:1.0;"/></g><!--MD5=[e5fb696c37abc809ba035379c4a0fbc4]
reverse link vehicleDB to reservation--><g id="link_vehicleDB_reservation"><path d="M410.45,180.42 C410.45,180.42 438.22,180.42 438.22,180.42 " fill="none" id="vehicleDB-backto-reservation" style="stroke:#181818;stroke-width:1.0;stroke-dasharray:1.0,3.0;"/><polygon fill="#181818" points="405.45,180.42,414.45,184.42,410.45,180.42,414.45,176.42,405.45,180.42" style="stroke:#181818;stroke-width:1.0;"/></g><!--MD5=[e8a8e09ecb6eb1c0ada2bdb77c1efdc9]
link reservationDB to reservation--><g id="link_reservationDB_reservation"><path d="M506,88.74 C506,105.92 506,129.41 506,148.25 " fill="none" id="reservationDB-reservation" style="stroke:#181818;stroke-width:1.0;"/></g><!--MD5=[afc2cfa134b6b71755924f303de7d06c]
link userDB to account--><g id="link_userDB_account"><path d="M752,203.69 C752,203.69 752,283.23 752,283.23 " fill="none" id="userDB-to-account" style="stroke:#181818;stroke-width:1.0;"/><path d="M760.4572,290.1518 A9,9 0 0 0 743.5428 290.1518" fill="none" style="stroke:#181818;stroke-width:1.5;"/></g><!--MD5=[819ede24af99ce073b1d4003719dfb89]
link account to user--><g id="link_account_user"><path d="M752,311.8 C752,328.76 752,366.62 752,394.09 " fill="none" id="account-user" style="stroke:#181818;stroke-width:1.0;"/></g><!--MD5=[a72200895587f8e078f7a9704880b739]
link vehicleDB to vehicle--><g id="link_vehicleDB_vehicle"><path d="M279,203.69 C279,203.69 279,265.41 279,265.41 " fill="none" id="vehicleDB-to-vehicle" style="stroke:#181818;stroke-width:1.0;stroke-dasharray:1.0,3.0;"/><polygon fill="#181818" points="279,270.41,283,261.41,279,265.41,275,261.41,279,270.41" style="stroke:#181818;stroke-width:1.0;"/></g><!--MD5=[43586e4c50eaf14a4975b60dddad991d]
reverse link vehicle to cars--><g id="link_vehicle_cars"><path d="M200.66,303.42 C200.66,303.42 88.75,303.42 88.75,303.42 C88.75,303.42 88.75,357.76 88.75,394.06 " fill="none" id="vehicle-backto-cars" style="stroke:#181818;stroke-width:1.0;"/><polygon fill="none" points="200.66,296.42,220.66,303.42,200.66,310.42,200.66,296.42" style="stroke:#181818;stroke-width:1.0;"/></g><!--MD5=[b4380343f0ae5252c742a731c657d40b]
reverse link vehicle to trotts--><g id="link_vehicle_trotts"><path d="M357.21,303.42 C357.21,303.42 553.5,303.42 553.5,303.42 C553.5,303.42 553.5,357.76 553.5,394.06 " fill="none" id="vehicle-backto-trotts" style="stroke:#181818;stroke-width:1.0;"/><polygon fill="none" points="357.21,310.42,337.21,303.42,357.21,296.42,357.21,310.42" style="stroke:#181818;stroke-width:1.0;"/></g><!--MD5=[3ead476711e09f7e55f6a9f2215eb65f]
reverse link vehicle to scooters--><g id="link_vehicle_scooters"><path d="M275.25,355.62 C275.25,355.62 275.25,394.37 275.25,394.37 " fill="none" id="vehicle-backto-scooters" style="stroke:#181818;stroke-width:1.0;"/><polygon fill="none" points="268.25,355.62,275.25,335.62,282.25,355.62,268.25,355.62" style="stroke:#181818;stroke-width:1.0;"/></g><!--MD5=[763d04869fc7ad52be6dde5a2fa1ffe6]
reverse link vehicle to bikes--><g id="link_vehicle_bikes"><path d="M332.25,355.75 C332.25,355.75 332.25,426.42 332.25,426.42 C332.25,426.42 345.99,426.42 363.22,426.42 " fill="none" id="vehicle-backto-bikes" style="stroke:#181818;stroke-width:1.0;"/><polygon fill="none" points="325.25,355.75,332.25,335.75,339.25,355.75,325.25,355.75" style="stroke:#181818;stroke-width:1.0;"/></g><!--MD5=[6bf38f1041e027abae4b0a933af98d22]
@startuml
skinparam linetype ortho
skinparam backgroundcolor transparent
component "Système de Réservation des Véhicules" as car_unlocking{
  component "Compte usager" as user <<Component>>
  interface "ICompte" as account
  component "Réservation" as reservation <<Component>>
  component "Base de données des véhicules" as vehicleDB
  component "Base de données des usagers" as userDB
  component "Base de données des réservation" as reservationDB
  component "Véhicule" as vehicle <<interface>>
  component "Voitures" as cars <<Component>>
  component "Scooters" as scooters <<Component>>
  component "Vélos" as bikes <<Component>>
  component "Trottinettes" as trotts <<Component>>
}

reservation - -[dotted]r-> userDB
reservation - -[dotted]l-> vehicleDB
reservation -u- reservationDB

userDB -d-( account
user -u- account

vehicleDB -[dotted]d-> vehicle
vehicle <|-d- cars
vehicle <|-d- trotts
vehicle <|-d- scooters
vehicle <|-d- bikes

@enduml

PlantUML version 1.2022.7(Mon Aug 22 13:01:30 EDT 2022)
(GPL source distribution)
Java Runtime: OpenJDK Runtime Environment
JVM: OpenJDK 64-Bit Server VM
Default Encoding: UTF-8
Language: en
Country: CA
--></g></svg>