<?xml version="1.0" encoding="UTF-8" standalone="no"?><svg xmlns="http://www.w3.org/2000/svg" xmlns:xlink="http://www.w3.org/1999/xlink" contentStyleType="text/css" height="190px" preserveAspectRatio="none" style="width:206px;height:190px;background:#FFFFFF;" version="1.1" viewBox="0 0 206 190" width="206px" zoomAndPan="magnify"><defs/><g><!--MD5=[76e9058266bc8316d4f8460a5a541ec3]
entity Package--><g id="elem_Package"><path d="M64,6 L105,6 A3.75,3.75 0 0 1 107.5,8.5 L114.5,27 L144,27 A2.5,2.5 0 0 1 146.5,29.5 L146.5,59.1094 A2.5,2.5 0 0 1 144,61.6094 L64,61.6094 A2.5,2.5 0 0 1 61.5,59.1094 L61.5,8.5 A2.5,2.5 0 0 1 64,6 " fill="#F1F1F1" style="stroke:#181818;stroke-width:0.5;"/><line style="stroke:#181818;stroke-width:0.5;" x1="61.5" x2="114.5" y1="27" y2="27"/><text fill="#000000" font-family="sans-serif" font-size="14" lengthAdjust="spacing" textLength="55" x="71.5" y="48.5332">Package</text></g><!--MD5=[ca66430013dec83b1dbf950cee73fbca]
class ClassA--><g id="elem_ClassA"><rect codeLine="7" fill="#F1F1F1" height="61.2188" id="ClassA" rx="2.5" ry="2.5" style="stroke:#181818;stroke-width:0.5;" width="80" x="7" y="122"/><text fill="#000000" font-family="sans-serif" font-size="14" lengthAdjust="spacing" textLength="44" x="25" y="141.5332">ClassA</text><line style="stroke:#181818;stroke-width:0.5;" x1="8" x2="86" y1="149.6094" y2="149.6094"/><text fill="#000000" font-family="sans-serif" font-size="14" lengthAdjust="spacing" textLength="68" x="13" y="168.1426">~attribute1</text><line style="stroke:#181818;stroke-width:0.5;" x1="8" x2="86" y1="175.2188" y2="175.2188"/></g><!--MD5=[bec7b9779c4af2a63aafd425c74f388a]
class ClassB--><g id="elem_ClassB"><rect codeLine="11" fill="#F1F1F1" height="61.2188" id="ClassB" rx="2.5" ry="2.5" style="stroke:#181818;stroke-width:0.5;" width="77" x="122.5" y="122"/><text fill="#000000" font-family="sans-serif" font-size="14" lengthAdjust="spacing" textLength="44" x="139" y="141.5332">ClassB</text><line style="stroke:#181818;stroke-width:0.5;" x1="123.5" x2="198.5" y1="149.6094" y2="149.6094"/><line style="stroke:#181818;stroke-width:0.5;" x1="123.5" x2="198.5" y1="157.6094" y2="157.6094"/><text fill="#000000" font-family="sans-serif" font-size="14" lengthAdjust="spacing" textLength="65" x="128.5" y="176.1426">method1()</text></g><!--MD5=[d0b7c82a6e2dd28721ae2913bf23f29c]
reverse link Package to ClassA--><g id="link_Package_ClassA"><path codeLine="15" d="M84.02,75.84 C76.62,90.96 68.38,107.81 61.55,121.76 " fill="none" id="Package-backto-ClassA" style="stroke:#181818;stroke-width:1.0;"/><ellipse cx="87.2665" cy="69.2071" fill="#FFFFFF" rx="8" ry="8" style="stroke:#181818;stroke-width:1.0;"/><line style="stroke:#181818;stroke-width:1.0;" x1="83.7529" x2="90.78" y1="76.3943" y2="62.02"/><line style="stroke:#181818;stroke-width:1.0;" x1="80.0793" x2="94.4536" y1="65.6936" y2="72.7207"/></g><!--MD5=[e090823ae35fd43b05d1e3f0ab811f05]
reverse link Package to ClassB--><g id="link_Package_ClassB"><path codeLine="16" d="M123.98,75.84 C131.38,90.96 139.62,107.81 146.45,121.76 " fill="none" id="Package-backto-ClassB" style="stroke:#181818;stroke-width:1.0;"/><ellipse cx="120.7335" cy="69.2071" fill="#FFFFFF" rx="8" ry="8" style="stroke:#181818;stroke-width:1.0;"/><line style="stroke:#181818;stroke-width:1.0;" x1="124.2471" x2="117.22" y1="76.3943" y2="62.02"/><line style="stroke:#181818;stroke-width:1.0;" x1="113.5464" x2="127.9207" y1="72.7207" y2="65.6936"/></g><!--MD5=[c2ce7267f5c6d725739c9eeaf0b0ccd1]
@startuml
hide circle
allow_mixing
skinparam classAttributeIconSize 0

folder Package

class ClassA{
    ~attribute1
}

class ClassB{
    method1()
}

ClassA -u-+ Package
ClassB -u-+ Package
@enduml

PlantUML version 1.2022.7(Mon Aug 22 13:01:30 EDT 2022)
(GPL source distribution)
Java Runtime: Java(TM) SE Runtime Environment
JVM: Java HotSpot(TM) 64-Bit Server VM
Default Encoding: Cp1252
Language: en
Country: US
--></g></svg>