<?xml version="1.0" encoding="UTF-8" standalone="no"?><svg xmlns="http://www.w3.org/2000/svg" xmlns:xlink="http://www.w3.org/1999/xlink" contentStyleType="text/css" height="186px" preserveAspectRatio="none" style="width:204px;height:186px;background:#00000000;" version="1.1" viewBox="0 0 204 186" width="204px" zoomAndPan="magnify"><defs/><g><!--MD5=[2c080ab48a000bc17c201944f3bbeb21]
entity Paquetage--><g id="elem_Paquetage"><path d="M50.5,6 L91.5,6 A3.75,3.75 0 0 1 94,8.5 L101,27 L147.5,27 A2.5,2.5 0 0 1 150,29.5 L150,57.9883 A2.5,2.5 0 0 1 147.5,60.4883 L50.5,60.4883 A2.5,2.5 0 0 1 48,57.9883 L48,8.5 A2.5,2.5 0 0 1 50.5,6 " fill="#F1F1F1" style="stroke:#181818;stroke-width:0.5;"/><line style="stroke:#181818;stroke-width:0.5;" x1="48" x2="101" y1="27" y2="27"/><text fill="#000000" font-family="sans-serif" font-size="14" lengthAdjust="spacing" textLength="72" x="58" y="47.5352">Paquetage</text></g><!--MD5=[32913f7303abac640bb16b04e8266ed6]
class ClasseA--><g id="elem_ClasseA"><rect codeLine="8" fill="#F1F1F1" height="58.9766" id="ClasseA" rx="2.5" ry="2.5" style="stroke:#181818;stroke-width:0.5;" width="72" x="7" y="120.48"/><text fill="#000000" font-family="sans-serif" font-size="14" lengthAdjust="spacing" textLength="54" x="16" y="139.0152">ClasseA</text><line style="stroke:#181818;stroke-width:0.5;" x1="8" x2="78" y1="146.9683" y2="146.9683"/><text fill="#000000" font-family="sans-serif" font-size="14" lengthAdjust="spacing" textLength="60" x="13" y="164.5034">~attribut</text><line style="stroke:#181818;stroke-width:0.5;" x1="8" x2="78" y1="171.4566" y2="171.4566"/></g><!--MD5=[aee30aad19bf1ae62a6ebbd8a4c16bfd]
class ClasseB--><g id="elem_ClasseB"><rect codeLine="12" fill="#F1F1F1" height="58.9766" id="ClasseB" rx="2.5" ry="2.5" style="stroke:#181818;stroke-width:0.5;" width="83" x="114.5" y="120.48"/><text fill="#000000" font-family="sans-serif" font-size="14" lengthAdjust="spacing" textLength="52" x="130" y="139.0152">ClasseB</text><line style="stroke:#181818;stroke-width:0.5;" x1="115.5" x2="196.5" y1="146.9683" y2="146.9683"/><line style="stroke:#181818;stroke-width:0.5;" x1="115.5" x2="196.5" y1="154.9683" y2="154.9683"/><text fill="#000000" font-family="sans-serif" font-size="14" lengthAdjust="spacing" textLength="71" x="120.5" y="172.5034">méthode()</text></g><!--MD5=[a358b82cd76e2496545e9213fad73ae9]
reverse link Paquetage to ClasseA--><g id="link_Paquetage_ClasseA"><path codeLine="16" d="M79.09,75.03 C71.82,89.93 63.75,106.45 57.1,120.09 " fill="none" id="Paquetage-backto-ClasseA" style="stroke:#181818;stroke-width:1.0;"/><ellipse cx="82.5056" cy="69.0416" fill="none" rx="8" ry="8" style="stroke:#181818;stroke-width:1.0;"/><line style="stroke:#181818;stroke-width:1.0;" x1="79.0012" x2="86.01" y1="76.2332" y2="61.85"/><line style="stroke:#181818;stroke-width:1.0;" x1="75.314" x2="89.6972" y1="65.5372" y2="72.546"/></g><!--MD5=[dbeb8c582032a6533987c62a1caa868c]
reverse link Paquetage to ClasseB--><g id="link_Paquetage_ClasseB"><path codeLine="17" d="M119.27,75.03 C126.67,89.93 134.88,106.45 141.65,120.09 " fill="none" id="Paquetage-backto-ClasseB" style="stroke:#181818;stroke-width:1.0;"/><ellipse cx="115.7764" cy="69.016" fill="none" rx="8" ry="8" style="stroke:#181818;stroke-width:1.0;"/><line style="stroke:#181818;stroke-width:1.0;" x1="119.3327" x2="112.22" y1="76.1821" y2="61.85"/><line style="stroke:#181818;stroke-width:1.0;" x1="108.6103" x2="122.9424" y1="72.5724" y2="65.4597"/></g><!--MD5=[dee70c95026ca322f25058768478f878]
@startuml
hide circle
skinparam backgroundcolor transparent
allow_mixing
skinparam classAttributeIconSize 0

folder Paquetage

class ClasseA{
    ~attribut
}

class ClasseB{
    méthode()
}

ClasseA -u-+ Paquetage
ClasseB -u-+ Paquetage
@enduml

PlantUML version 1.2022.7(Mon Aug 22 13:01:30 EDT 2022)
(GPL source distribution)
Java Runtime: OpenJDK Runtime Environment
JVM: OpenJDK 64-Bit Server VM
Default Encoding: UTF-8
Language: en
Country: CA
--></g></svg>