<?xml version="1.0" encoding="UTF-8" standalone="no"?><svg xmlns="http://www.w3.org/2000/svg" xmlns:xlink="http://www.w3.org/1999/xlink" contentStyleType="text/css" height="186px" preserveAspectRatio="none" style="width:222px;height:186px;background:#00000000;" version="1.1" viewBox="0 0 222 186" width="222px" zoomAndPan="magnify"><defs/><g><!--MD5=[76e9058266bc8316d4f8460a5a541ec3]
entity Package--><g id="elem_Package"><path d="M72,6 L113,6 A3.75,3.75 0 0 1 115.5,8.5 L122.5,27 L153,27 A2.5,2.5 0 0 1 155.5,29.5 L155.5,57.9883 A2.5,2.5 0 0 1 153,60.4883 L72,60.4883 A2.5,2.5 0 0 1 69.5,57.9883 L69.5,8.5 A2.5,2.5 0 0 1 72,6 " fill="#F1F1F1" style="stroke:#181818;stroke-width:0.5;"/><line style="stroke:#181818;stroke-width:0.5;" x1="69.5" x2="122.5" y1="27" y2="27"/><text fill="#000000" font-family="sans-serif" font-size="14" lengthAdjust="spacing" textLength="56" x="79.5" y="47.5352">Package</text></g><!--MD5=[ca66430013dec83b1dbf950cee73fbca]
class ClassA--><g id="elem_ClassA"><rect codeLine="8" fill="#F1F1F1" height="58.9766" id="ClassA" rx="2.5" ry="2.5" style="stroke:#181818;stroke-width:0.5;" width="89" x="7" y="120.48"/><text fill="#000000" font-family="sans-serif" font-size="14" lengthAdjust="spacing" textLength="46" x="28.5" y="139.0152">ClassA</text><line style="stroke:#181818;stroke-width:0.5;" x1="8" x2="95" y1="146.9683" y2="146.9683"/><text fill="#000000" font-family="sans-serif" font-size="14" lengthAdjust="spacing" textLength="77" x="13" y="164.5034">~attribute1</text><line style="stroke:#181818;stroke-width:0.5;" x1="8" x2="95" y1="171.4566" y2="171.4566"/></g><!--MD5=[bec7b9779c4af2a63aafd425c74f388a]
class ClassB--><g id="elem_ClassB"><rect codeLine="12" fill="#F1F1F1" height="58.9766" id="ClassB" rx="2.5" ry="2.5" style="stroke:#181818;stroke-width:0.5;" width="84" x="131.5" y="120.48"/><text fill="#000000" font-family="sans-serif" font-size="14" lengthAdjust="spacing" textLength="44" x="151.5" y="139.0152">ClassB</text><line style="stroke:#181818;stroke-width:0.5;" x1="132.5" x2="214.5" y1="146.9683" y2="146.9683"/><line style="stroke:#181818;stroke-width:0.5;" x1="132.5" x2="214.5" y1="154.9683" y2="154.9683"/><text fill="#000000" font-family="sans-serif" font-size="14" lengthAdjust="spacing" textLength="72" x="137.5" y="172.5034">method1()</text></g><!--MD5=[d0b7c82a6e2dd28721ae2913bf23f29c]
reverse link Package to ClassA--><g id="link_Package_ClassA"><path codeLine="16" d="M91.06,74.57 C83.08,89.58 74.18,106.31 66.85,120.09 " fill="none" id="Package-backto-ClassA" style="stroke:#181818;stroke-width:1.0;"/><ellipse cx="94.5968" cy="68.9149" fill="none" rx="8" ry="8" style="stroke:#181818;stroke-width:1.0;"/><line style="stroke:#181818;stroke-width:1.0;" x1="90.8435" x2="98.35" y1="75.9799" y2="61.85"/><line style="stroke:#181818;stroke-width:1.0;" x1="87.5318" x2="101.6617" y1="65.1617" y2="72.6682"/></g><!--MD5=[e090823ae35fd43b05d1e3f0ab811f05]
reverse link Package to ClassB--><g id="link_Package_ClassB"><path codeLine="17" d="M133.94,74.57 C141.92,89.58 150.82,106.31 158.15,120.09 " fill="none" id="Package-backto-ClassB" style="stroke:#181818;stroke-width:1.0;"/><ellipse cx="130.4032" cy="68.9149" fill="none" rx="8" ry="8" style="stroke:#181818;stroke-width:1.0;"/><line style="stroke:#181818;stroke-width:1.0;" x1="134.1565" x2="126.65" y1="75.9799" y2="61.85"/><line style="stroke:#181818;stroke-width:1.0;" x1="123.3383" x2="137.4682" y1="72.6682" y2="65.1617"/></g><!--MD5=[32c69c0d6c5e471e6331b21dbd7f9e95]
@startuml
hide circle
skinparam backgroundcolor transparent
allow_mixing
skinparam classAttributeIconSize 0

folder Package

class ClassA{
    ~attribute1
}

class ClassB{
    method1()
}

ClassA -u-+ Package
ClassB -u-+ Package
@enduml

PlantUML version 1.2022.7(Mon Aug 22 13:01:30 EDT 2022)
(GPL source distribution)
Java Runtime: OpenJDK Runtime Environment
JVM: OpenJDK 64-Bit Server VM
Default Encoding: UTF-8
Language: en
Country: CA
--></g></svg>