<?xml version="1.0" encoding="UTF-8" standalone="no"?><svg xmlns="http://www.w3.org/2000/svg" xmlns:xlink="http://www.w3.org/1999/xlink" contentStyleType="text/css" height="364px" preserveAspectRatio="none" style="width:284px;height:364px;background:#FFFFFF;" version="1.1" viewBox="0 0 284 364" width="284px" zoomAndPan="magnify"><defs/><g><!--MD5=[738138b80a6efb4ef6b9c97305d9abca]
entity GenericActor--><g id="elem_GenericActor"><ellipse cx="47.5" cy="152" fill="#F1F1F1" rx="8" ry="8" style="stroke:#181818;stroke-width:0.5;"/><path d="M47.5,160 L47.5,187 M34.5,168 L60.5,168 M47.5,187 L34.5,202 M47.5,187 L60.5,202 " fill="none" style="stroke:#181818;stroke-width:0.5;"/><text fill="#000000" font-family="sans-serif" font-size="14" lengthAdjust="spacing" textLength="83" x="6" y="218.0332">GenericActor</text></g><!--MD5=[0e3d34a6fad928887da125984832494a]
entity Actor1--><g id="elem_Actor1"><ellipse cx="47.5" cy="14" fill="#F1F1F1" rx="8" ry="8" style="stroke:#181818;stroke-width:0.5;"/><path d="M47.5,22 L47.5,49 M34.5,30 L60.5,30 M47.5,49 L34.5,64 M47.5,49 L60.5,64 " fill="none" style="stroke:#181818;stroke-width:0.5;"/><text fill="#000000" font-family="sans-serif" font-size="14" lengthAdjust="spacing" textLength="41" x="27" y="80.0332">Actor1</text></g><!--MD5=[fae669f50678bcf5ef333b5d18fedf4b]
entity Actor2--><g id="elem_Actor2"><ellipse cx="47.5" cy="290" fill="#F1F1F1" rx="8" ry="8" style="stroke:#181818;stroke-width:0.5;"/><path d="M47.5,298 L47.5,325 M34.5,306 L60.5,306 M47.5,325 L34.5,340 M47.5,325 L60.5,340 " fill="none" style="stroke:#181818;stroke-width:0.5;"/><text fill="#000000" font-family="sans-serif" font-size="14" lengthAdjust="spacing" textLength="41" x="27" y="356.0332">Actor2</text></g><g id="elem_GenericUseCase"><ellipse cx="201.6203" cy="182.3241" fill="#F1F1F1" rx="77.1203" ry="17.8241" style="stroke:#181818;stroke-width:0.5;"/><text fill="#000000" font-family="sans-serif" font-size="14" lengthAdjust="spacing" textLength="107" x="145.7783" y="186.6856">GenericUseCase</text></g><g id="elem_UseCase1"><ellipse cx="161.452" cy="44.5671" fill="#F1F1F1" rx="57.952" ry="15.5671" style="stroke:#181818;stroke-width:0.5;"/><text fill="#000000" font-family="sans-serif" font-size="14" lengthAdjust="spacing" textLength="65" x="125.952" y="49.0837">UseCase1</text></g><g id="elem_UseCase2"><ellipse cx="161.452" cy="320.5671" fill="#F1F1F1" rx="57.952" ry="15.5671" style="stroke:#181818;stroke-width:0.5;"/><text fill="#000000" font-family="sans-serif" font-size="14" lengthAdjust="spacing" textLength="65" x="125.952" y="325.0837">UseCase2</text></g><!--MD5=[746e72dafecfef9bb4946ca20719b414]
link GenericActor to GenericUseCase--><g id="link_GenericActor_GenericUseCase"><path d="M89.01,182.5 C100.73,182.5 112.44,182.5 124.16,182.5 " fill="none" id="GenericActor-GenericUseCase" style="stroke:#181818;stroke-width:1.0;"/></g><!--MD5=[27b44a8930ee89d85ce8978f4643c391]
link Actor1 to UseCase1--><g id="link_Actor1_UseCase1"><path d="M68.43,44.5 C80.06,44.5 91.7,44.5 103.33,44.5 " fill="none" id="Actor1-UseCase1" style="stroke:#181818;stroke-width:1.0;"/></g><!--MD5=[d787e25009ff7523741431f4b41589f4]
link Actor2 to UseCase2--><g id="link_Actor2_UseCase2"><path d="M68.43,320.5 C80.06,320.5 91.7,320.5 103.33,320.5 " fill="none" id="Actor2-UseCase2" style="stroke:#181818;stroke-width:1.0;"/></g><!--MD5=[7c0afed5bd30818ec4909bdddaf0ee1b]
link Actor1 to GenericActor--><g id="link_Actor1_GenericActor"><path d="M47.5,83.75 C47.5,95.91 47.5,109.66 47.5,122.93 " fill="none" id="Actor1-to-GenericActor" style="stroke:#181818;stroke-width:1.0;"/><polygon fill="none" points="54.5,123.07,47.5,143.07,40.5,123.07,54.5,123.07" style="stroke:#181818;stroke-width:1.0;"/></g><!--MD5=[6bb13528889c231bf529ad1871e3c896]
reverse link GenericActor to Actor2--><g id="link_GenericActor_Actor2"><path d="M47.5,241.87 C47.5,255.13 47.5,268.89 47.5,281.07 " fill="none" id="GenericActor-backto-Actor2" style="stroke:#181818;stroke-width:1.0;"/><polygon fill="none" points="40.5,241.75,47.5,221.75,54.5,241.75,40.5,241.75" style="stroke:#181818;stroke-width:1.0;"/></g><!--MD5=[cf61bda0bbcac93ee60d7b2cb3668031]
@startuml
actor GenericActor
actor Actor1
actor Actor2

usecase GenericUseCase
usecase UseCase1
usecase UseCase2


GenericActor -r- - GenericUseCase
Actor1 -r- - UseCase1
Actor2 -r- - UseCase2

Actor1 - -|> GenericActor
Actor2 -u-|> GenericActor

@enduml

PlantUML version 1.2022.7(Mon Aug 22 13:01:30 EDT 2022)
(GPL source distribution)
Java Runtime: Java(TM) SE Runtime Environment
JVM: Java HotSpot(TM) 64-Bit Server VM
Default Encoding: Cp1252
Language: en
Country: US
--></g></svg>