<?xml version="1.0" encoding="UTF-8" standalone="no"?><svg xmlns="http://www.w3.org/2000/svg" xmlns:xlink="http://www.w3.org/1999/xlink" contentStyleType="text/css" height="682px" preserveAspectRatio="none" style="width:569px;height:682px;background:#00000000;" version="1.1" viewBox="0 0 569 682" width="569px" zoomAndPan="magnify"><defs/><g><!--MD5=[bfde24dfc89cf95b83bd88a8d32e4f2c]
cluster PolyAutoApp--><g id="cluster_PolyAutoApp"><rect fill="none" height="669" rx="2.5" ry="2.5" style="stroke:#181818;stroke-width:1.0;" width="326.44" x="237" y="7"/><text fill="#000000" font-family="sans-serif" font-size="14" font-weight="bold" lengthAdjust="spacing" textLength="93" x="353.72" y="22.5352">PolyAutoApp</text></g><g id="elem_UC1"><ellipse cx="400.2236" cy="555.9967" fill="#F1F1F1" rx="123.2836" ry="27.0567" style="stroke:#181818;stroke-width:0.5;"/><text fill="#000000" font-family="sans-serif" font-size="14" lengthAdjust="spacing" textLength="214" x="293.2236" y="559.2877">CU-1: Vérifier une disponibilité</text></g><g id="elem_UC5"><ellipse cx="400.2221" cy="639.0044" fill="#F1F1F1" rx="91.2221" ry="20.6444" style="stroke:#181818;stroke-width:0.5;"/><text fill="#000000" font-family="sans-serif" font-size="14" lengthAdjust="spacing" textLength="144" x="328.2221" y="642.2954">CU-3: Payer un trajet</text></g><g id="elem_UC6"><ellipse cx="400.2155" cy="466.9951" fill="#F1F1F1" rx="121.8755" ry="26.7751" style="stroke:#181818;stroke-width:0.5;"/><text fill="#000000" font-family="sans-serif" font-size="14" lengthAdjust="spacing" textLength="211" x="294.7155" y="470.2861">CU-4: Annuler une réservation</text></g><g id="elem_UC4"><ellipse cx="400.2152" cy="89.997" fill="#F1F1F1" rx="107.9352" ry="23.987" style="stroke:#181818;stroke-width:0.5;"/><text fill="#000000" font-family="sans-serif" font-size="14" lengthAdjust="spacing" textLength="181" x="309.7152" y="93.2881">CU-2.2: Choisir une durée</text></g><g id="elem_UC3"><ellipse cx="400.215" cy="173.995" fill="#F1F1F1" rx="111.625" ry="24.725" style="stroke:#181818;stroke-width:0.5;"/><text fill="#000000" font-family="sans-serif" font-size="14" lengthAdjust="spacing" textLength="189" x="305.715" y="177.286">CU-2.1: Choisir un véhicule</text></g><g id="elem_UC7"><ellipse cx="400.2199" cy="378.004" fill="#F1F1F1" rx="123.2199" ry="27.044" style="stroke:#181818;stroke-width:0.5;"/><text fill="#000000" font-family="sans-serif" font-size="14" lengthAdjust="spacing" textLength="114" x="341.2199" y="373.0509">CU-2.3: Signaler</text><text fill="#000000" font-family="sans-serif" font-size="14" lengthAdjust="spacing" textLength="159" x="322.7199" y="389.5391">un véhicule défectueux</text></g><g id="elem_UC2"><ellipse cx="400.2187" cy="274.9977" fill="#F1F1F1" rx="110.2387" ry="24.4477" style="stroke:#181818;stroke-width:0.5;"/><text fill="#000000" font-family="sans-serif" font-size="14" lengthAdjust="spacing" textLength="186" x="307.2187" y="278.2888">CU-2: Réserver un véhicule</text></g><!--MD5=[7d46d6cd919e02e6168a09ad91eae8b4]
entity u--><g id="elem_u"><ellipse cx="67.5" cy="492.26" fill="#F1F1F1" rx="8" ry="8" style="stroke:#181818;stroke-width:0.5;"/><path d="M67.5,500.26 L67.5,527.26 M54.5,508.26 L80.5,508.26 M67.5,527.26 L54.5,542.26 M67.5,527.26 L80.5,542.26 " fill="none" style="stroke:#181818;stroke-width:0.5;"/><text fill="#000000" font-family="sans-serif" font-size="14" lengthAdjust="spacing" textLength="70" x="32.5" y="557.2952">Utilisateur</text></g><!--MD5=[011db1d27274c86691871bc51b12beb8]
entity d--><g id="elem_d"><ellipse cx="67.5" cy="609.26" fill="#F1F1F1" rx="8" ry="8" style="stroke:#181818;stroke-width:0.5;"/><path d="M67.5,617.26 L67.5,644.26 M54.5,625.26 L80.5,625.26 M67.5,644.26 L54.5,659.26 M67.5,644.26 L80.5,659.26 " fill="none" style="stroke:#181818;stroke-width:0.5;"/><text fill="#000000" font-family="sans-serif" font-size="14" lengthAdjust="spacing" textLength="123" x="6" y="674.2952">Système Financier</text></g><!--MD5=[029537e5e4461a0df5daea802c84c937]
link u to UC1--><g id="link_u_UC1"><path d="M102.96,525.54 C145.11,529.88 218.69,537.44 281.97,543.95 " fill="none" id="u-to-UC1" style="stroke:#181818;stroke-width:1.0;"/><polygon fill="#181818" points="286.67,544.53,278.1294,539.6251,281.6965,544.0155,277.3062,547.5827,286.67,544.53" style="stroke:#181818;stroke-width:1.0;"/></g><!--MD5=[ce2247ea231441ce78fd7a3347e9db83]
link u to UC2--><g id="link_u_UC2"><path d="M91.91,483.64 C119.68,441.15 169.75,373.33 229,333 C254.65,315.54 286.03,302.9 314.84,293.96 " fill="none" id="u-to-UC2" style="stroke:#181818;stroke-width:1.0;"/><polygon fill="#181818" points="319.56,292.22,309.7851,291.0149,314.7768,293.6764,312.1153,298.668,319.56,292.22" style="stroke:#181818;stroke-width:1.0;"/></g><!--MD5=[594891eb4838d876d29f7ff5a36f2080]
link UC2 to UC3--><g id="link_UC2_UC3"><path d="M400.22,250.29 C400.22,236.58 400.22,219.4 400.22,204.81 " fill="none" id="UC2-to-UC3" style="stroke:#181818;stroke-width:1.0;stroke-dasharray:1.0,3.0;"/><polygon fill="#181818" points="400.22,200.15,396.22,209.15,400.22,205.15,404.22,209.15,400.22,200.15" style="stroke:#181818;stroke-width:1.0;"/><text fill="#000000" font-family="sans-serif" font-size="13" lengthAdjust="spacing" textLength="60" x="358.72" y="229.7084">«include»</text></g><!--MD5=[70fd0aa021e0672eb21bacda73a77dec]
link UC2 to UC4--><g id="link_UC2_UC4"><path d="M300.65,264.25 C239.11,252.3 175.16,227.17 194.04,174.5 C208.97,132.85 251.71,111.55 294.43,100.73 " fill="none" id="UC2-to-UC4" style="stroke:#181818;stroke-width:1.0;stroke-dasharray:1.0,3.0;"/><polygon fill="#181818" points="299.18,99.34,289.4942,97.5551,294.3186,100.509,291.3647,105.3334,299.18,99.34" style="stroke:#181818;stroke-width:1.0;"/><text fill="#000000" font-family="sans-serif" font-size="13" lengthAdjust="spacing" textLength="60" x="160" y="188.0684">«include»</text></g><!--MD5=[942a2fcfdb65d3a0206ab7cad7b2742a]
link UC7 to UC2--><g id="link_UC7_UC2"><path d="M400.22,350.67 C400.22,336.8 400.22,319.9 400.22,305.6 " fill="none" id="UC7-to-UC2" style="stroke:#181818;stroke-width:1.0;stroke-dasharray:1.0,3.0;"/><polygon fill="#181818" points="400.22,300.64,396.22,309.64,400.22,305.64,404.22,309.64,400.22,300.64" style="stroke:#181818;stroke-width:1.0;"/><text fill="#000000" font-family="sans-serif" font-size="13" lengthAdjust="spacing" textLength="57" x="360.22" y="330.2684">«extend»</text></g><!--MD5=[4450909595c331656ee543c78c27ecb9]
link u to UC5--><g id="link_u_UC5"><path d="M102.84,541.89 C134.65,559.59 183.74,585.07 229,601 C258.19,611.28 291.19,619.4 320.32,625.46 " fill="none" id="u-to-UC5" style="stroke:#181818;stroke-width:1.0;"/><polygon fill="#181818" points="325.09,626.64,317.0876,620.8987,320.1938,625.6265,315.466,628.7327,325.09,626.64" style="stroke:#181818;stroke-width:1.0;"/></g><!--MD5=[aa2bf64e1d61247a2da878c2422fc9c8]
link d to UC5--><g id="link_d_UC5"><path d="M129.16,639 C177.75,639 246.82,639 302.95,639 " fill="none" id="d-to-UC5" style="stroke:#181818;stroke-width:1.0;"/><polygon fill="#181818" points="307.68,639,298.68,635,302.68,639,298.68,643,307.68,639" style="stroke:#181818;stroke-width:1.0;"/></g><!--MD5=[a4f60d7cc07bd3bf473b475d83a9ea00]
link u to UC6--><g id="link_u_UC6"><path d="M102.96,516.27 C148.34,508.72 230.12,495.12 296.28,484.12 " fill="none" id="u-to-UC6" style="stroke:#181818;stroke-width:1.0;"/><polygon fill="#181818" points="300.82,483.2,291.2814,480.7475,295.8892,484.0289,292.6077,488.6367,300.82,483.2" style="stroke:#181818;stroke-width:1.0;"/></g><!--MD5=[8142793b176d6e6b288c94b899d7c107]
@startuml
left to right direction
skinparam backgroundcolor transparent


actor Utilisateur as u
actor "Système Financier" as d

Rectangle PolyAutoApp {
  skinparam defaultTextAlignment center
  usecase "CU-1: Vérifier une disponibilité" as UC1
  together {
    usecase "CU-2.2: Choisir une durée" as UC4
    usecase "CU-2.1: Choisir un véhicule" as UC3
    usecase "CU-2.3: Signaler \r un véhicule défectueux" as UC7
    usecase "CU-2: Réserver un véhicule" as UC2


  }


  usecase "CU-3: Payer un trajet" as UC5
  usecase "CU-4: Annuler une réservation" as UC6




}

u - -> UC1
u - -> UC2
UC2 -[dotted]r-> UC3 : <<include>>
UC2 -[dotted]r-> UC4 : <<include>>
UC7 -[dotted]r-> UC2 : <<extend>>

u - -> UC5
d - -> UC5
u - -> UC6

@enduml

PlantUML version 1.2022.7(Mon Aug 22 13:01:30 EDT 2022)
(GPL source distribution)
Java Runtime: OpenJDK Runtime Environment
JVM: OpenJDK 64-Bit Server VM
Default Encoding: UTF-8
Language: en
Country: CA
--></g></svg>