<?xml version="1.0" encoding="UTF-8" standalone="no"?><svg xmlns="http://www.w3.org/2000/svg" xmlns:xlink="http://www.w3.org/1999/xlink" contentStyleType="text/css" height="576px" preserveAspectRatio="none" style="width:546px;height:576px;background:#00000000;" version="1.1" viewBox="0 0 546 576" width="546px" zoomAndPan="magnify"><defs/><g><!--MD5=[bfde24dfc89cf95b83bd88a8d32e4f2c]
cluster PolyAutoApp--><g id="cluster_PolyAutoApp"><rect fill="none" height="563" rx="2.5" ry="2.5" style="stroke:#181818;stroke-width:1.0;" width="303.25" x="237" y="7"/><text fill="#000000" font-family="sans-serif" font-size="14" font-weight="bold" lengthAdjust="spacing" textLength="93" x="342.125" y="22.5352">PolyAutoApp</text></g><g id="elem_UC1"><ellipse cx="388.6236" cy="449.9967" fill="#F1F1F1" rx="123.2836" ry="27.0567" style="stroke:#181818;stroke-width:0.5;"/><text fill="#000000" font-family="sans-serif" font-size="14" lengthAdjust="spacing" textLength="214" x="281.6236" y="453.2877">CU-1: Vérifier une disponibilité</text></g><g id="elem_UC5"><ellipse cx="388.6221" cy="533.0044" fill="#F1F1F1" rx="91.2221" ry="20.6444" style="stroke:#181818;stroke-width:0.5;"/><text fill="#000000" font-family="sans-serif" font-size="14" lengthAdjust="spacing" textLength="144" x="316.6221" y="536.2954">CU-3: Payer un trajet</text></g><g id="elem_UC6"><ellipse cx="388.6155" cy="360.9951" fill="#F1F1F1" rx="121.8755" ry="26.7751" style="stroke:#181818;stroke-width:0.5;"/><text fill="#000000" font-family="sans-serif" font-size="14" lengthAdjust="spacing" textLength="211" x="283.1155" y="364.2861">CU-4: Annuler une réservation</text></g><g id="elem_UC2"><ellipse cx="388.6187" cy="274.9977" fill="#F1F1F1" rx="110.2387" ry="24.4477" style="stroke:#181818;stroke-width:0.5;"/><text fill="#000000" font-family="sans-serif" font-size="14" lengthAdjust="spacing" textLength="186" x="295.6187" y="278.2888">CU-2: Réserver un véhicule</text></g><g id="elem_UC3"><ellipse cx="388.615" cy="90.995" fill="#F1F1F1" rx="111.625" ry="24.725" style="stroke:#181818;stroke-width:0.5;"/><text fill="#000000" font-family="sans-serif" font-size="14" lengthAdjust="spacing" textLength="189" x="294.115" y="94.286">CU-2.1: Choisir un véhicule</text></g><g id="elem_UC4"><ellipse cx="388.6152" cy="174.997" fill="#F1F1F1" rx="107.9352" ry="23.987" style="stroke:#181818;stroke-width:0.5;"/><text fill="#000000" font-family="sans-serif" font-size="14" lengthAdjust="spacing" textLength="181" x="298.1152" y="178.2881">CU-2.2: Choisir une durée</text></g><!--MD5=[7d46d6cd919e02e6168a09ad91eae8b4]
entity u--><g id="elem_u"><ellipse cx="67.5" cy="386.26" fill="#F1F1F1" rx="8" ry="8" style="stroke:#181818;stroke-width:0.5;"/><path d="M67.5,394.26 L67.5,421.26 M54.5,402.26 L80.5,402.26 M67.5,421.26 L54.5,436.26 M67.5,421.26 L80.5,436.26 " fill="none" style="stroke:#181818;stroke-width:0.5;"/><text fill="#000000" font-family="sans-serif" font-size="14" lengthAdjust="spacing" textLength="70" x="32.5" y="451.2952">Utilisateur</text></g><!--MD5=[011db1d27274c86691871bc51b12beb8]
entity d--><g id="elem_d"><ellipse cx="67.5" cy="503.26" fill="#F1F1F1" rx="8" ry="8" style="stroke:#181818;stroke-width:0.5;"/><path d="M67.5,511.26 L67.5,538.26 M54.5,519.26 L80.5,519.26 M67.5,538.26 L54.5,553.26 M67.5,538.26 L80.5,553.26 " fill="none" style="stroke:#181818;stroke-width:0.5;"/><text fill="#000000" font-family="sans-serif" font-size="14" lengthAdjust="spacing" textLength="123" x="6" y="568.2952">Système Financier</text></g><!--MD5=[029537e5e4461a0df5daea802c84c937]
link u to UC1--><g id="link_u_UC1"><path d="M102.96,419.67 C143.08,423.95 211.5,431.23 271.2,437.6 " fill="none" id="u-to-UC1" style="stroke:#181818;stroke-width:1.0;"/><polygon fill="#181818" points="275.95,438.21,267.4233,433.2809,270.978,437.6814,266.5775,441.236,275.95,438.21" style="stroke:#181818;stroke-width:1.0;"/></g><!--MD5=[ce2247ea231441ce78fd7a3347e9db83]
link u to UC2--><g id="link_u_UC2"><path d="M102.76,385.05 C133.56,359 181.17,322.89 229,303 C245.97,295.95 264.67,290.67 283.11,286.72 " fill="none" id="u-to-UC2" style="stroke:#181818;stroke-width:1.0;"/><polygon fill="#181818" points="287.82,285.54,278.1948,283.4529,282.9244,286.5563,279.821,291.2859,287.82,285.54" style="stroke:#181818;stroke-width:1.0;"/></g><!--MD5=[594891eb4838d876d29f7ff5a36f2080]
link UC2 to UC3--><g id="link_UC2_UC3"><path d="M291.79,262.92 C233.2,250.43 173.14,225.36 192.1,175.5 C206.76,136.96 245.66,115.96 285.02,104.53 " fill="none" id="UC2-to-UC3" style="stroke:#181818;stroke-width:1.0;stroke-dasharray:1.0,3.0;"/><polygon fill="#181818" points="289.33,103.05,279.5862,101.6152,284.5138,104.3934,281.7356,109.321,289.33,103.05" style="stroke:#181818;stroke-width:1.0;"/><text fill="#000000" font-family="sans-serif" font-size="13" lengthAdjust="spacing" textLength="60" x="160" y="189.0684">«include»</text></g><!--MD5=[70fd0aa021e0672eb21bacda73a77dec]
link UC2 to UC4--><g id="link_UC2_UC4"><path d="M388.62,250.28 C388.62,236.72 388.62,219.79 388.62,205.42 " fill="none" id="UC2-to-UC4" style="stroke:#181818;stroke-width:1.0;stroke-dasharray:1.0,3.0;"/><polygon fill="#181818" points="388.62,200.43,384.62,209.43,388.62,205.43,392.62,209.43,388.62,200.43" style="stroke:#181818;stroke-width:1.0;"/><text fill="#000000" font-family="sans-serif" font-size="13" lengthAdjust="spacing" textLength="60" x="347.12" y="229.8384">«include»</text></g><!--MD5=[4450909595c331656ee543c78c27ecb9]
link u to UC5--><g id="link_u_UC5"><path d="M102.9,435.73 C134.75,453.31 183.86,478.72 229,495 C255.49,504.56 285.33,512.42 311.92,518.47 " fill="none" id="u-to-UC5" style="stroke:#181818;stroke-width:1.0;"/><polygon fill="#181818" points="316.54,519.73,308.6421,513.8459,311.6628,518.6287,306.88,521.6494,316.54,519.73" style="stroke:#181818;stroke-width:1.0;"/></g><!--MD5=[aa2bf64e1d61247a2da878c2422fc9c8]
link d to UC5--><g id="link_d_UC5"><path d="M129.28,533 C175.08,533 238.78,533 291.47,533 " fill="none" id="d-to-UC5" style="stroke:#181818;stroke-width:1.0;"/><polygon fill="#181818" points="296.19,533,287.19,529,291.19,533,287.19,537,296.19,533" style="stroke:#181818;stroke-width:1.0;"/></g><!--MD5=[a4f60d7cc07bd3bf473b475d83a9ea00]
link u to UC6--><g id="link_u_UC6"><path d="M102.96,410.06 C146.45,402.57 223.17,389.34 286.02,378.51 " fill="none" id="u-to-UC6" style="stroke:#181818;stroke-width:1.0;"/><polygon fill="#181818" points="290.67,377.54,281.1177,375.1412,285.7439,378.3967,282.4885,383.0229,290.67,377.54" style="stroke:#181818;stroke-width:1.0;"/></g><!--MD5=[20a90ac1094b436f93719b20b7bd72cc]
@startuml
left to right direction
skinparam backgroundcolor transparent


actor Utilisateur as u
actor "Système Financier" as d

Rectangle PolyAutoApp {
  skinparam defaultTextAlignment left
  usecase "CU-1: Vérifier une disponibilité" as UC1
  together {
    usecase "CU-2: Réserver un véhicule" as UC2
    usecase "CU-2.1: Choisir un véhicule" as UC3
    usecase "CU-2.2: Choisir une durée" as UC4
  }

  usecase "CU-3: Payer un trajet" as UC5
  usecase "CU-4: Annuler une réservation" as UC6




}

u - -> UC1
u - -> UC2
UC2 -[dotted]r-> UC3 : <<include>>
UC2 -[dotted]r-> UC4 : <<include>>
u - -> UC5
d - -> UC5
u - -> UC6

@enduml

PlantUML version 1.2022.7(Mon Aug 22 13:01:30 EDT 2022)
(GPL source distribution)
Java Runtime: OpenJDK Runtime Environment
JVM: OpenJDK 64-Bit Server VM
Default Encoding: UTF-8
Language: en
Country: CA
--></g></svg>